<svg xmlns="http://www.w3.org/2000/svg" width="52mm" height="52mm" viewBox="0 0 5200 5200" shape-rendering="geometricPrecision" text-rendering="geometricPrecision" image-rendering="optimizeQuality" fill-rule="evenodd" clip-rule="evenodd"><g id="Слой_x0020_1"><path d="M634.04 2719.51c0 4.91 21.01 26.28 25.3 31.14 4.8 5.46 9.26 8.59 13.99 14.24 22.76 27.22 157.19 199.24 167.67 206.27 7.94-5.32 26.14-27.34 34.65-35.9 61.04-61.39 175.73-72.33 254.62-37.01 54.48 24.38 101.33 60.4 134.55 110.04 9.5 14.18 14.17 22.88 22.25 38.91 4.96 9.82 16.28 34.78 17.24 46.25 11.5-3.07 17.51-18.67 24.17-27.58 41.1-55.08 69.41-102.11 136.71-129.04 176.16-70.5 375.34 90.99 375.34 267.15 0 19.34.52 52.42-7.06 68.2 100.33 0 161.88 35.65 227.59 101.67 6.78 6.81 10.48 13.46 16.35 21.28 38.96 51.97 57.1 111.55 57.1 182.78 0 18.55-4.36 29.55-4.7 44.69 15.14 0 15.74-3.77 33.9-1.01 38.85 5.88 52.43 5.05 92.13 20.79 15.16 6 36.11 17.52 48.98 26.27 13.62 9.24 32.05 23.27 43.14 34.48 39.89 40.34 69 87.39 82.88 142.88 15.82 63.2 9.33 129.21-18.78 183.49-7.3 14.1-19.38 30.49-29.26 43.64-9.09 12.09-26.23 29.01-29.57 43.33 15.57 1.3 82.17 25.59 102.01 32.05 69.74 22.71 141.3 38.88 213.71 54.4 81.9 17.55 174.72 22.59 255.31.11 35.64-9.94 66.61-32.55 94.17-56.35l48.13-48.29c4.9-5.83 8.02-9.46 12.84-15.38 9.43-11.55 15.91-20.2 24.06-32.39l-134.38-65.51c-53.95-21.85-147.31-75.1-201.59-97.08-40.8-16.53-92.67-46.94-134.42-65.5-16.72-7.43-35.12-14.61-42.11-33.15-7.74-20.6-3.28-39.72 10.88-54.58 22.73-23.83 48.45-14.29 73.59-1.67 27.93 14.01 65.9 29.07 92.18 44.24 23.47 13.56 50.54 23.73 74.84 35.69l93.25 45.5c74.91 37.46 149.33 69.84 223.39 108.22 19.05 9.88 75.32 13.29 97.25 13.29 58.88 0 115.73-9.46 152.18-52.42 27.36-32.25 50.07-100.83 50.07-159.23 0-7.25-31.6-22.56-39.17-26.68-84.6-46.05-165.34-99.24-250.11-145.01l-43.36-24.84c-28.21-17.12-55.12-31.71-83.16-48.53-28.13-16.87-55.26-31.19-83.53-48.18l-125.31-72.24c-58.7-34.6-14.27-125.04 56.87-82.74 15.71 9.35 28.77 16.53 44.67 25.88 90.86 53.41 183.87 104.48 273.94 158.8l227.88 131.95c7.17 4.11 13.98 8.91 22.06 13.21l46.4 26.52c28.07 16.95 35.54 11.89 68.06 11.89 58.9 0 117.68-8.77 160.53-46.43 25.91-22.77 43.44-59.23 52.59-95.58 5.07-20.19 4.35-29.32 6.26-52.56 1.11-13.57-3.01-37.82-3.01-54.72l-440.27-262.92c-96.5-60.48-195.63-118.66-293.64-176.73-22.3-13.22-35.14-24.87-35.14-54.23 0-28.7 26.16-44.68 51.74-44.68 21.37 0 64.44 30.56 83.7 43.3 8.95 5.91 17.85 10.32 26.7 15.62l530.68 318.34c9.47 5.68 16.43 10.46 26.1 16.23 9.63 5.75 17.32 10.37 26.48 15.85 31.35 18.76 76.1 47.97 105.89 63.44 24.31 12.62 67.59 14.04 98.85 14.04 57.14 0 105.53-26.97 137.79-71.53 27.23-37.62 33.9-71.42 33.9-118.96 0-35.17-20.8-69.28-36.27-90.74-30.4-42.16-75.14-73.67-115.6-105.46-6.19-4.87-12.2-9.89-17.99-14.94-11.69-10.19-22.9-19.49-34.75-28.74-54.11-42.28-109.81-82.84-163.01-126.27-65.07-53.13-134.72-100.87-202.89-149.89l-73.92-53.08c-12.41-8.76-24.2-17.73-37.11-26.38l-169.33-117.59c-70.44-47.14-141.41-95.03-214.07-138.71-27.42-16.48-52.71-32.41-81.14-48.21l-59.64-34.43c-48.33-25.7-93.8-56.61-142.66-80.77-8.54-4.23-11.86-6.58-19.64-10.93-90.06-50.41-182.5-97.08-274.36-144.29-20.78-10.69-23.86-3.93-45.4 2.42-10.26 3.04-13.72 4.06-22.97 7.6-39.85 15.26-82.87 25.68-123.48 38.8-15.73 5.09-21.33 20.17-30.78 32.72-36.41 48.4-74.22 94.21-117 137l-66.1 60.89-74.18 55.19c-98.47 65.8-214.32 111.46-337.73 111.46-70 0-124.59-4.91-166.03-57.42-6.25-7.92-9.84-13.64-14.3-23.31-25.53-55.4-13.49-127.16.61-183.65 4.34-17.31 7.52-25.42 15.54-38.55 6.81-11.17 12.47-23.19 19.09-35.01 29.29-52.37 59.12-101.03 92.36-149.88 4.27-6.27 6.65-8.66 10.89-14.98l65.8-96.47c7.52-11.09 15.02-20.36 22.61-31.49 4.21-6.16 6.52-8.81 10.83-15.03 11.07-16 52.32-69.09 55.49-80.92-22.5 0-125.44-18.32-149.49-22.2-48.87-7.86-99.1-15.57-143.5-28.18-24.16-6.86-42.57-11.84-64.16-20.51-58.52-23.47-109.47-64.38-164.96-93.73l-119.49 212.11c-7.63 12.61-12.85 22.96-20.05 36.4l-300.27 532.26c-47.96 92.89-111.74 191.33-159.9 284.59-4.75 9.21-39.99 68.24-39.99 72.9zm-576.2-169.33c0 36.98 7.49 33.52 36.67 52.69 8.75 5.76 16.14 9.78 24.92 15.07l295.15 179.92c21.56 12.79 13.84 13.37 38.36 13.37 16.77 0 27.81-22.48 34.52-36.04 23.3-47.11 73.17-128.81 102.65-181.93l76.85-137.15c4.07-8.28 7.86-14.08 12.57-22.71l128.1-227.03c4.78-7.92 7.85-14.7 12.66-22.62l51.39-92.06c37.17-64.4 78.57-143.06 115.59-204.26 4.76-7.87 7.75-14.37 12.67-22.61l77.03-136.97c7.8-15.4 16.74-30.48 25.53-45.02l25.44-45.13c31.05-60.14 92.28-164.07 127.71-227.41 27.76-49.63 38.9-60.85-12.95-94.34-16.55-10.69-32.65-19.65-49.95-30.01l-198.42-121.42c-16.8-10.6-33.78-19.48-49.85-30.12-8.51-5.63-43.06-28.22-51.74-28.22-33.35 0-30.9 10.63-58.04 59.54-53.29 96.01-115.61 200.01-166.17 294.8l-50.95 90.17c-3.74 7.25-8.1 14.63-12.77 22.5l-25.62 44.93c-4.74 8.6-7.97 14.34-12.55 22.72L94.74 2478.9c-4.86 8.7-8.07 13.78-12.59 22.68-5.37 10.59-24.31 38.28-24.31 48.6z" fill="#38319a"/><path d="M982.11 3448.56c37.66 0 71.8-16.51 89.94-37.04 9.88-11.19 17.91-24.42 27.32-36.18l82.99-109.88c43.36-57.71 45.52-123.07 9.19-186.26-52.35-91.03-169.45-135.63-249.79-70.79-13.04 10.52-58.05 74.37-71.87 92.76-8.58 11.43-15.43 21.39-23.85 32.6-13.45 17.9-37.78 48.97-44.75 68.14-29.91 82.3 14.94 174.44 92.76 221.82 20.63 12.55 55.94 24.83 88.06 24.83zm874.88 618.52c0 39.83 1.15 58.9 19.58 95.67 9.92 19.82 16.2 26.07 27.78 40.42 4.48 5.54 5.32 7.28 10.78 12.74 7.36 7.36 16.23 13.96 24.49 20.19 27.13 20.5 60.65 33.45 94.24 35.59h19.69c37.83-2.5 74.16-19.71 99.79-56.42l138.41-186.14c9.79-12.98 26.49-35.46 33.29-49.03 34.17-68.27 9.38-145.48-38.22-197.02-50.18-54.34-134.61-82.08-203.32-44.51-17.87 9.77-29.27 24.01-40.72 39.24l-99.1 136.08c-6.11 8.08-10.59 14.92-16.78 23.21-6.4 8.57-10.65 14-16.75 23.22-11.1 16.85-22.28 29.89-33.41 46.55-7.36 11-9.03 12.23-13.65 26.34-3.59 10.96-6.1 20.33-6.1 33.87zm-395.1-211.65c0 31.4 6.06 57.07 18.01 80.76 12.06 23.94 22.02 36.79 38.03 56.04 3.72 4.48 6.77 5.86 11.43 9.74 60.15 50.13 137.84 70 203.68 21.13 21.78-16.16 74.93-96.88 93.04-120.98l45.49-62.69c35.52-52.17 97.13-131.54 135.93-186.27 54.8-77.27 22.96-180.85-37.94-230.14-39.71-32.15-66.73-49.71-126.68-49.71-70.65 0-90.63 41.65-125.66 88.36l-217.02 295.67c-21.52 28.58-38.31 54.25-38.31 98.09zm-369.24-261.05c0 59.3 17.21 105.67 53.47 141.73 29.39 29.23 63.71 54.87 115.85 60.54 40.93 4.45 70.3-3.85 101.18-25.84l16.44-16.49c1.69-2 3.32-3.82 5.36-6.4 37.9-47.58 90.92-125.21 130.36-177.73l93.38-127.68c26.44-36.77 90.82-119.13 112.41-153.35 41.43-65.69 16.96-156.08-36.38-209.24-50.45-50.29-122.06-76.91-188.31-48.37-39.5 17-64.92 62.69-92.99 99.86l-54.44 74.91c-50.01 71.21-111.07 150.28-163.26 222.44l-54.78 74.56c-17.29 23.11-38.29 51.94-38.29 91.06zm2744.58-2236.56c0 24.06 17.81 44.98 28.98 65.1l378.71 672.55c5.74 11.42 10.19 19.5 16.65 30.38l82.1 146.04c5.66 10.63 11.57 19.15 17.25 29.78 35.25 66.11 77.67 136.88 114.41 203.08l98.84 176.33c5.7 10.43 10.78 19.85 16.98 30.05l33.14 58.58c33.71 61.69 38.37 49.95 104.16 10.81l227.8-139.07c9.66-6.09 17.92-10.8 27.95-16.75l57.15-34.57c10.86-6.92 15.52-15.58 16.49-24.74v-7.73c-1.84-19.23-16.42-39.16-21.92-49.06l-191.98-341.88c-4.44-7.7-8.45-14.29-12.67-22.61l-76.93-137.09c-41.66-72.18-86.64-156.76-128.24-226.88l-37.9-67.92c-4.5-8.06-8.21-15.09-12.6-22.69l-320.66-568.32c-21.27-34.23-59.28-2.6-82.75 11.83l-322.61 197.14c-7.44 5.96-12.35 15.01-12.35 27.64zm-2250.7 961.89c0 50.39 40.6 54.09 82.31 54.09 49.37 0 98.14-8.68 137.27-20.31 96.36-28.6 179.6-81.71 251.35-148.46 4.8-4.47 5.75-4.33 10.51-8.31 4.17-3.49 6.82-6.59 10.68-10.47 7.22-7.27 12.75-12.76 20-20 6.66-6.67 14.14-13.2 19.74-20.22l104.98-134.92c5.82-8.9 10.82-14.28 20.96-19.02 8.55-3.99 20.15-6.92 29.82-10.15 33.28-11.11 203.14-66.74 213.13-66.74 24.62 0 82.38 33.62 107.44 47.78l50.91 26.7c6.53 3.52 10.58 5.28 17.26 8.61 6.48 3.24 11.52 5.61 17.27 8.6l217.92 118.4c11.81 6.32 20.94 12.31 32.89 18.84 33.46 18.28 68.39 36.99 100.03 57.54l65.28 38.21c74.8 44.83 148.72 92.68 221.2 140.97l61.51 41.98c10.4 7.72 20.28 13.52 30.57 21.16l60.8 42.68c5.25 3.74 9.61 6.16 15.46 10.41l46.67 33.3c10.76 7.79 19.6 13.67 30.53 21.21l150.51 108.19c58.37 40.15 120.18 90.28 177.47 132.97 49.57 36.91 96.49 77.66 145.15 115.91l70.92 58.45c16.81 15.68 23.96 2.89 50.01-10.06 116.99-58.17 199.31-162.91 293.4-249.89 4.51-4.16 12.06-9.92 14.69-13.52-2.64-11.36-12.49-26.02-18.39-35.7-27.79-45.72-52.63-93.21-78.75-139.96-6.87-12.29-12.23-22.55-19.46-34.64-7.23-12.12-12.22-22.88-19.35-34.74l-39.68-70.85c-6.69-12.04-12.88-23.11-19.7-34.39-13.72-22.72-25.99-48.11-39.71-70.83l-375.07-666.78c-7.67-12.88-13.4-23.46-20.17-36.27-27.01 6.3-64.23 20.13-96.43 28.23-88.71 22.32-151.72 19.58-240.23 5.04-87.34-14.34-171.07-38.8-257.79-57.35-55.99-11.99-114.25-24.67-175.62-33.7-32.43-4.77-58.59-7.3-92.68-10.79-98.77-10.12-206.52-7.39-306.2-4.41l-59.05 4.44c-18.12 2.03-42.97 2.19-60.87 2.63-17.62.43-40.59 4.31-58.74 4.77-45.64 1.14-124.84 12.63-171.27 19.22-78.67 11.15-236.82 35.5-296.11 84.9-15.27 12.73-28.57 37.51-40.61 53.45-4.88 6.46-8.74 12.37-13.75 19.17l-236.95 332.19c-9.09 13.64-16.29 24.47-25.41 38.09-17.61 26.29-31.98 51.11-49.4 77.6-8.92 13.57-15.56 25.55-23.35 40.16-27.71 51.96-43.9 76.02-43.9 146.59z" fill="#ee8119"/></g></svg>