<svg xmlns="http://www.w3.org/2000/svg" xml:space="preserve" width="5.3mm" height="5.4187mm" version="1.1" style="shape-rendering:geometricPrecision; text-rendering:geometricPrecision; image-rendering:optimizeQuality; fill-rule:evenodd; clip-rule:evenodd" viewBox="0 0 530 542" xmlns:xlink="http://www.w3.org/1999/xlink">
	<defs>
		<style type="text/css">
			<![CDATA[
    .fil0 {fill:#00b601}
   ]]>
		</style>
	</defs>
	<g id="Слой_x0020_1">
		<metadata id="CorelCorpID_0Corel-Layer" />
		<g id="_1485734736816">
			<path class="fil0" d="M23 433c11,39 76,60 193,61l7 48 112 -118c1,-5 1,-6 2,-10 -63,-39 -98,-63 -138,-92 -2,1 -3,2 -5,4l6 43c-50,0 -90,-3 -121,-10 8,-6 18,-11 29,-18l-26 -111 -9 -3c-24,15 -79,49 -73,87l1 0 22 119z" />
			<path class="fil0" d="M516 428c28,-29 13,-95 -44,-198l38 -29 -158 -38c-5,1 -6,1 -10,2 -2,75 -5,117 -11,166 3,1 4,1 6,3l35 -27c25,43 42,79 51,109 -9,-4 -18,-9 -29,-16l-83 79 2 9c24,13 81,43 111,19l0 0 92 -79z" />
			<path class="fil0" d="M267 1c-39,-10 -89,36 -148,138l-45 -19 46 156c4,4 4,5 7,8 65,-36 104,-55 149,-74 -1,-3 -1,-4 -1,-7l-40 -16c25,-43 48,-77 69,-100 0,10 1,21 1,34l109 33 7 -6c-1,-28 -3,-93 -39,-107l0 1 -115 -41z" />
		</g>
	</g>
</svg>