<svg xmlns="http://www.w3.org/2000/svg" width="7mm" height="52mm" viewBox="0 0 700 5200" shape-rendering="geometricPrecision" text-rendering="geometricPrecision" image-rendering="optimizeQuality" fill-rule="evenodd" clip-rule="evenodd"><path d="M259.39 5041.9v-52.69c-61.94-24.36-104.9-54.95-128.6-91.87-23.8-36.92-35.7-76.11-35.7-117.37 0-56 20.49-105.1 61.57-147.31 40.98-42.2 92.06-63.26 153.25-63.26 59.39 0 109.63 20.49 150.7 61.38 41.08 40.88 61.66 90.36 61.66 148.34 0 51.83-16.99 98.67-50.99 140.6-33.89 41.92-79.69 65.06-137.1 69.49v52.69h177.89v77.05H105.29v-77.05h154.1zm50.14-394.32c-37.01 0-69.4 12.56-97.07 37.77-27.66 25.21-41.45 57.04-41.45 95.47 0 36.25 12.84 67.51 38.43 93.76 25.59 26.16 59.21 39.28 100.66 39.28 41.07 0 74.22-13.41 99.52-40.32 25.22-26.81 37.87-58.16 37.87-94.05 0-36.63-13.41-67.79-40.13-93.38-26.72-25.69-59.3-38.53-97.83-38.53zm202.54-412.73v76.39L322 4387.16l190.07 77.05v76.29l-300.83-128.04v-48.72l300.83-128.89zm0-79.6v40.13H211.24v-73.65h176.67l-176.67-154.1v-36.26h300.83v73.65H338.99l173.08 150.23zm-123.41-351.26c-5.38 16.33-15.48 29.74-30.31 40.22-14.83 10.48-31.54 15.68-50.14 15.68-22.28 0-41.83-6.33-58.54-19.08-16.81-12.74-27.39-27.95-31.82-45.6-4.44-17.66-6.61-45.14-6.61-82.63v-76.48h300.83v75.35H403.3v14.64l108.77 72.04v89.61l-123.41-83.75zm-42.02-92.54h-72.52v26.44c0 28.8 11.99 43.25 36.07 43.25 24.27 0 36.45-16.06 36.45-48.26v-21.43zm-241.35-442.66v-78l406.78-156.56v80.55l-83.85 31.72v166.76l83.85 32.48v80.55l-406.78-157.5zm108.12-39.1l140.03 55.15v-110.01l-140.03 54.86zm59.01-541.71l34.56 62.79c-12.37 11.8-20.87 23.42-25.68 34.94-4.82 11.51-7.18 25.02-7.18 40.5 0 28.24 8.41 51.09 25.12 68.46 16.81 17.47 38.24 26.16 64.49 26.16 25.5 0 46.27-8.4 62.42-25.12 16.15-16.81 24.17-38.81 24.17-66.1 0-33.71-11.52-59.96-34.56-78.84l40.79-59.39c41.93 32.29 62.89 77.8 62.89 136.63 0 52.97-15.68 94.43-46.93 124.36-31.26 29.93-67.8 44.94-109.72 44.94-29.08 0-55.81-7.27-80.26-21.81-24.46-14.64-43.72-34.94-57.7-61.09-13.97-26.06-20.96-55.24-20.96-87.53 0-29.94 5.95-56.75 17.85-80.55 11.89-23.8 28.8-43.24 50.7-58.35zm-61.18-41.46v-280.44h71.95v100.28h228.88v75.35H283.19v104.81h-71.95zm0-552.48v-75.35h300.83v75.35h-32c13.97 14.73 23.98 29.56 30.12 44.38 6.13 14.83 9.25 30.97 9.25 48.25 0 39-15.01 72.62-45.13 101.04-30.03 28.42-67.43 42.58-112.09 42.58-46.36 0-84.32-13.78-113.97-41.26-29.55-27.48-44.38-60.81-44.38-100.09 0-18.13 3.4-35.03 10.1-50.9 6.71-15.86 16.91-30.49 30.32-44h-33.05zm61.75 79.41c0 23.42 8.22 42.87 24.74 58.26 16.43 15.49 37.58 23.23 63.36 23.23 25.97 0 47.31-7.83 64.11-23.6 16.72-15.77 25.12-35.13 25.12-58.17 0-23.7-8.22-43.43-24.74-59.02-16.43-15.67-38.05-23.51-64.77-23.51-26.16 0-47.31 7.84-63.55 23.51-16.15 15.59-24.27 35.41-24.27 59.3zm213.12-440.4c22.94 26.35 34.46 55.05 34.46 86.12 0 37.68-15.01 70.44-45.04 98.3-30.03 27.76-67.51 41.64-112.65 41.64-47.11 0-85.36-13.5-114.82-40.6-29.46-27.01-44.19-59.49-44.19-97.45 0-33.81 11.62-63.17 34.75-88.01H95.09v-75.35h143.53c-23.89-24.92-35.88-54.38-35.88-88.38 0-24.17 6.42-46.74 19.16-67.61 12.75-20.86 30.98-37.86 54.87-50.99 23.79-13.12 52.12-19.64 85.08-19.64 45.98 0 83.75 14.07 113.4 42.21 29.65 28.23 44.47 60.81 44.47 98.01 0 31.17-11.14 59.96-33.61 86.4h135.88v75.35H486.11zm-125.3-226.61c-25.78 0-46.93 7.26-63.46 21.9-16.62 14.54-24.93 33.43-24.93 56.56 0 19.93 7.94 37.3 23.8 52.22 15.86 14.83 38.43 22.28 67.7 22.28 27.2 0 48.54-7.17 63.93-21.43 15.39-14.35 23.04-32.1 23.04-53.35 0-22-8.5-40.51-25.4-55.62-17-15.01-38.53-22.56-64.68-22.56zm2.83 224.35c-19.83 0-36.17 3.3-48.82 9.91-12.65 6.61-22.85 15.4-30.41 26.54-7.64 11.05-11.42 23.7-11.42 37.86 0 24.17 8.69 43.16 25.97 56.94 17.37 13.69 38.15 20.59 62.41 20.59 25.97 0 47.5-7.46 64.49-22.29 17.09-14.83 25.59-33.14 25.59-55.05 0-21.06-7.65-38.71-22.94-53.06-15.3-14.26-36.92-21.44-64.87-21.44zm-43.63-434.45v-22.47c0-31.73 2.46-56 7.27-72.9 4.91-17 15.11-31.25 30.5-42.96 15.49-11.62 34.94-17.47 58.26-17.47 23.14 0 42.5 5.29 57.79 15.77 15.39 10.57 25.59 23.98 30.69 40.32 5.01 16.33 7.55 39.18 7.55 68.74v106.32H211.24v-75.35h108.77zm133.71 0v-23.04c0-13.79-.94-23.7-2.93-29.84-1.89-6.04-5.57-11.42-11.04-16.05-5.58-4.63-12.19-6.99-20.12-6.99-25.59 0-38.43 14.83-38.43 44.48v31.44h72.52zM382.9 781.72v242.2c21.43-3.49 38.53-12.84 51.27-27.95 12.66-15.1 18.98-34.46 18.98-57.88 0-28.14-9.91-52.22-29.74-72.42l29.93-63.27c22.48 15.77 39.09 34.75 49.95 56.75 10.77 22.1 16.15 48.25 16.15 78.56 0 47.03-14.83 85.36-44.57 114.92-29.65 29.55-66.85 44.38-111.52 44.38-45.79 0-83.84-14.83-114.06-44.38-30.31-29.56-45.42-66.57-45.42-111.23 0-47.31 15.11-85.84 45.23-115.49 30.22-29.65 69.97-44.47 119.54-44.47l14.26.28zm-58.92 75.07c-16.43 5.01-29.84 14.82-40.13 29.46-10.29 14.73-15.39 31.73-15.39 51.18 0 21.06 5.76 39.47 17.37 55.43 7.18 9.91 19.93 19.17 38.15 27.66V856.79zm188.09-136.63H211.24V599.1c0-39.65 7.83-66.66 23.41-80.82 15.59-14.26 33.24-21.34 52.98-21.34 29.36 0 50.42 14.54 63.36 43.62 13.69-39.66 39.37-59.49 77.14-59.49 20.4 0 37.3 5.29 50.61 15.77 13.41 10.48 22.29 23.89 26.72 40.04 4.44 16.05 6.61 38.62 6.61 67.61v115.67zm-182.42-75.35v-29.37c0-12.56-3.12-22.19-9.26-28.99-6.14-6.8-13.03-10.2-20.58-10.2-11.24 0-19.93 3.31-26.25 9.82-6.24 6.52-9.35 14.26-9.35 23.23l.28 9.73v25.78h65.16zm124.07 0v-38.25c0-14.91-3.4-25.39-10.29-31.44-6.89-6.04-13.6-9.06-20.12-9.06-9.72 0-18.6 3.4-26.62 10.19-8.03 6.8-12.09 19.08-12.09 36.74v31.82h69.12zM211.24 194.3v-75.35h300.83v75.35h-32c13.97 14.73 23.98 29.56 30.12 44.38 6.13 14.83 9.25 30.97 9.25 48.25 0 39-15.01 72.62-45.13 101.04-30.03 28.42-67.43 42.59-112.09 42.59-46.36 0-84.32-13.79-113.97-41.27-29.55-27.48-44.38-60.81-44.38-100.09 0-18.13 3.4-35.03 10.1-50.9 6.71-15.86 16.91-30.49 30.32-44h-33.05zm61.75 79.42c0 23.41 8.22 42.86 24.74 58.26 16.43 15.48 37.58 23.22 63.36 23.22 25.97 0 47.31-7.83 64.11-23.6 16.72-15.77 25.12-35.13 25.12-58.17 0-23.7-8.22-43.43-24.74-59.02-16.43-15.67-38.05-23.51-64.77-23.51-26.16 0-47.31 7.84-63.55 23.51-16.15 15.59-24.27 35.42-24.27 59.31z" fill-rule="nonzero" id="Слой_x0020_1"/></svg>