<svg xmlns="http://www.w3.org/2000/svg" width="7mm" height="52mm" viewBox="0 0 700 5200" shape-rendering="geometricPrecision" text-rendering="geometricPrecision" image-rendering="optimizeQuality" fill-rule="evenodd" clip-rule="evenodd"><path d="M291.1 5053.77v-73.01c-66.83-10.53-116.27-36.99-148.33-79.38-32.06-42.29-48.09-87.68-48.09-135.96 0-62.77 21.05-115.5 63.06-158.18 42-42.58 93.76-63.93 155.18-63.93 60.74 0 112.4 21.15 154.89 63.35 42.49 42.3 63.74 94.06 63.74 155.38 0 56.2-18.06 105.16-54.08 146.87-36.02 41.63-85.27 65.67-147.55 71.85v73.01h191.2v41.71H105.11v-41.71H291.1zm21.82-467.58c-51.37 0-93.86 17.77-127.37 53.31-33.51 35.53-50.31 76.67-50.31 123.41 0 46.54 16.99 87.29 50.98 122.34 34 35.06 76.97 52.63 128.73 52.63 50.5 0 92.41-17.38 125.92-52.14 33.41-34.77 50.12-75.71 50.12-122.83 0-48.87-16.9-90.48-50.6-124.96-33.71-34.47-76.19-51.76-127.47-51.76zm208.2-380.37v41.42l-224.33 103.91 224.33 102.26v42.39l-307.66-140.5v-7.05l307.66-142.43zm-307.66-99.56h227.89l-227.89-226.35v-3.09h307.66v39.4H294.96l226.16 224.61v4.83H213.46v-39.4zm170.34-447.97v28.2l137.32 88.45v42.78l-141.28-92.9c-2.8 23.08-11.59 41.82-26.27 56.2-14.58 14.39-32.83 21.54-54.56 21.54-27.13 0-48.28-8.31-63.15-24.82-14.97-16.51-22.4-38.24-22.4-64.99v-93.86h307.66v39.4H383.8zm-136.16 0v26.26c0 25.4 1.64 42.49 4.83 51.28 3.18 8.69 8.69 15.64 16.51 20.76 7.82 5.12 18.35 7.73 31.48 7.73 12.65 0 22.98-3.29 31.19-9.95 8.21-6.66 13.23-14.1 15.16-22.31 1.84-8.11 2.8-23.94 2.8-47.51v-26.26H247.64zM105.11 3193.8l416.01-194.09v44.71l-136.74 64.99v180.29l136.74 64.6v46.35l-416.01-196.42v-10.43zm87.29 5.22l151.42 71.56v-142.83l-151.42 71.27zm84.98-556.03l19.51 31.38c-35.92 27.24-53.88 64.42-53.88 111.54 0 37.66 12.06 68.95 36.11 93.86 24.04 24.82 53.21 37.28 87.59 37.28 22.4 0 43.45-5.7 63.15-17.19 19.7-11.4 35.06-27.14 45.97-47.13 10.91-19.89 16.32-42.29 16.32-67.11 0-45.38-17.97-82.47-53.89-111.25l20.67-31.38c22.11 14.78 39.2 34.57 51.47 59.39 12.17 24.91 18.25 53.21 18.25 84.98 0 48.86-15.45 89.32-46.26 121.48-30.9 32.16-68.36 48.19-112.59 48.19-29.65 0-57.27-7.54-82.76-22.6-25.49-14.97-45.39-35.63-59.68-61.9-14.29-26.36-21.44-55.72-21.44-88.26 0-20.47 3.09-40.17 9.27-59.2 6.18-18.92 14.29-35.05 24.24-48.28 9.95-13.33 22.6-24.53 37.95-33.8zm-63.92-41.71v-202.22h34.18v81.7h273.48v39.4H247.64v81.12h-34.18zm0-562.5h307.66v39.4H468.2c20.18 16.61 35.34 35.15 45.38 55.81 10.05 20.57 15.07 43.17 15.07 67.6 0 43.45-15.74 80.63-47.22 111.43-31.58 30.81-69.82 46.16-115.01 46.16-44.13 0-81.99-15.54-113.37-46.64-31.39-31-47.13-68.37-47.13-112.11 0-25.2 5.31-47.99 15.94-68.47 10.62-20.37 26.65-38.33 48.18-53.78h-56.58v-39.4zm30.7 158.56c0 22.02 5.41 42.39 16.23 60.93 10.72 18.64 25.88 33.41 45.38 44.42 19.51 11.01 40.17 16.51 62 16.51 21.53 0 42.2-5.5 61.9-16.6 19.7-11.11 35.05-25.98 45.96-44.71 11.01-18.74 16.52-38.82 16.52-60.26 0-21.54-5.41-42.11-16.32-61.42-10.91-19.41-25.59-34.28-44.23-44.71-18.54-10.43-39.5-15.64-62.77-15.64-35.44 0-65.08 11.68-88.94 35.15-23.85 23.37-35.73 52.14-35.73 86.33zM94.68 1699.73v-39.4h165.13c-35.15-24.72-52.73-60.35-52.73-106.8 0-44.71 15.16-82.27 45.58-112.5 30.42-30.32 69.34-45.48 116.94-45.48 47.03 0 85.56 15.26 115.79 45.87 30.22 30.61 45.29 67.59 45.29 111.05 0 47.51-18.54 83.53-55.63 107.86h158.47v39.4H475.05c37.28 23.95 55.92 60.26 55.92 108.74 0 42.68-15.07 79.37-45.29 109.98-30.23 30.71-68.86 46.07-116.08 46.07-47.6 0-86.52-15.16-116.94-45.49-30.42-30.22-45.58-67.78-45.58-112.49 0-47.42 17.58-83.05 52.73-106.81H94.68zm280.23-38.24c36.7 0 65.48-10.52 86.43-31.48 20.96-20.95 31.39-45 31.39-72.13 0-36.99-12.27-66.63-36.7-88.94-24.53-22.31-53.98-33.41-88.45-33.41-35.54 0-65.19 11.78-88.65 35.24-23.56 23.47-35.35 51.67-35.35 84.5 0 29.65 10.53 54.75 31.58 75.32 20.96 20.57 54.27 30.9 99.75 30.9zm-7.04 263.05c34.28 0 63.63-11.11 88.16-33.22 24.43-22.21 36.7-51.86 36.7-88.94 0-12.84-3.29-26.65-9.76-41.33s-14.67-26.55-24.62-35.44c-9.95-8.98-21.34-15.74-34.28-20.28-13.04-4.54-31.97-6.76-57.07-6.76-39.79 0-70.4 10.33-91.55 31.1-21.24 20.76-31.87 45.87-31.87 75.22 0 33.03 11.79 61.23 35.35 84.59 23.46 23.37 53.2 35.06 88.94 35.06zm-32.74-641.1v-37.76c0-30.03 2.32-53.5 7.05-70.49 4.73-17 15.16-31.68 31.29-43.94 16.12-12.26 34.66-18.45 55.62-18.45 25.3 0 46.93 8.89 64.99 26.66 18.06 17.67 27.04 44.61 27.04 80.63v102.46H213.46v-39.11h121.67zm36.5-1.45h115.88v-45.68c0-53.79-18.83-80.63-56.39-80.63-10.72 0-21.25 2.9-31.58 8.69-10.33 5.7-17.58 14.2-21.73 25.2-4.15 11.11-6.18 30.62-6.18 58.62v33.8zm47.51-492.2l17.58-33.41c21.34 11.01 38.63 23.66 51.76 38.05 13.04 14.38 23.08 30.51 29.93 48.47 6.86 18.06 10.24 38.34 10.24 61.03 0 50.41-16.42 89.71-49.25 118.1s-69.91 42.59-111.25 42.59c-38.91 0-73.68-12.07-104.09-36.12-38.73-30.42-58.14-71.26-58.14-122.35 0-52.63 19.9-94.73 59.58-126.11 28.01-22.31 62.97-33.7 104.97-34.09v278.11c35.64-.77 64.8-12.26 87.49-34.38 22.79-22.21 34.19-49.63 34.19-82.17 0-15.74-2.71-31.1-8.11-45.97-5.41-14.87-12.56-27.52-21.54-37.95-8.98-10.43-23.37-21.73-43.36-33.8zm-82.85-.38c-21.15 5.31-37.95 13.03-50.6 23.17-12.65 10.24-22.79 23.66-30.52 40.36-7.72 16.71-11.59 34.29-11.59 52.64 0 30.41 9.66 56.49 29.07 78.31 14.2 16.03 35.34 28 63.64 36.21V789.41zm184.83-205.88v89.51H213.46v-88.16c0-33.61 7.72-57.85 23.07-72.72 15.46-14.77 33.51-22.21 54.18-22.21 31.19 0 52.24 13.81 63.35 41.43 14.19-39.98 41.52-59.97 81.98-59.97 56.69 0 85.08 37.37 85.08 112.12zm-273.48 50.11h95.6v-25.88c0-23.56-.96-39.01-2.8-46.15-1.93-7.25-6.57-14.01-13.9-20.38-7.44-6.37-17.2-9.56-29.46-9.56-12.74 0-23.37 3.28-31.96 9.95-8.69 6.66-13.71 13.61-15.26 20.95-1.45 7.34-2.22 22.4-2.22 45.19v25.88zm132.1 0h107.77v-42.58c0-20.09-1.25-34.48-3.86-43.07-2.51-8.6-8.02-16.03-16.52-22.11-8.49-6.18-19.21-9.28-32.25-9.28-16.8 0-30.13 5.31-40.17 15.94-9.95 10.62-14.97 24.62-14.97 42v59.1zM213.46 95.48h307.66v39.4H468.2c20.18 16.61 35.34 35.15 45.38 55.82 10.05 20.56 15.07 43.16 15.07 67.59 0 43.45-15.74 80.63-47.22 111.44-31.58 30.8-69.82 46.16-115.01 46.16-44.13 0-81.99-15.55-113.37-46.65-31.39-30.99-47.13-68.36-47.13-112.11 0-25.2 5.31-47.99 15.94-68.46 10.62-20.38 26.65-38.34 48.18-53.79h-56.58v-39.4zm30.7 158.56c0 22.02 5.41 42.39 16.23 60.94 10.72 18.63 25.88 33.41 45.38 44.42 19.51 11 40.17 16.51 62 16.51 21.53 0 42.2-5.51 61.9-16.61 19.7-11.11 35.05-25.98 45.96-44.71 11.01-18.73 16.52-38.82 16.52-60.26 0-21.53-5.41-42.1-16.32-61.42-10.91-19.4-25.59-34.28-44.23-44.71-18.54-10.42-39.5-15.64-62.77-15.64-35.44 0-65.08 11.69-88.94 35.15-23.85 23.37-35.73 52.15-35.73 86.33z" fill-rule="nonzero" id="Слой_x0020_1"/></svg>