<svg xmlns="http://www.w3.org/2000/svg" width="210mm" height="184mm" viewBox="0 0 21000 18400" aria-hidden="true" data-prefix="fas" data-icon="th-list" shape-rendering="geometricPrecision" text-rendering="geometricPrecision" image-rendering="optimizeQuality" fill-rule="evenodd" clip-rule="evenodd"><path d="M6125 7559v3281c0 544-441 984-984 984H985c-544 0-984-441-984-984V7559c0-544 441-984 984-984h4156c544 0 984 441 984 984zM0 14122v3281c0 544 441 984 984 984h4156c544 0 984-441 984-984v-3281c0-544-441-984-984-984H984c-544 0-984 441-984 984zM5141 13H985C441 13 1 454 1 997v3281c0 544 441 984 984 984h4156c544 0 984-441 984-984V997c0-544-441-984-984-984zm3281 18375h11594c544 0 984-441 984-984v-3281c0-544-441-984-984-984H8422c-544 0-984 441-984 984v3281c0 544 441 984 984 984zM7438 997v3281c0 544 441 984 984 984h11594c544 0 984-441 984-984V997c0-544-441-984-984-984H8422c-544 0-984 441-984 984zm984 10828h11594c544 0 984-441 984-984V7560c0-544-441-984-984-984H8422c-544 0-984 441-984 984v3281c0 544 441 984 984 984z" fill="#ff9601" id="Слой_x0020_1"/></svg>