<svg><defs><font id="DINPro-CondensedBlackItalic" horiz-adv-x="1107" vert-adv-y="1107"><font-face font-family="DIN Pro Cond Black" font-weight="400" ascent="975" descent="-203"/><glyph glyph-name="uni21" unicode="!" d="M69 207l86 505h148L197 207H69M16 0l30 150h142L158 0H16z" horiz-adv-x="261" vert-adv-y="1000"/><glyph glyph-name="uni22" unicode="&quot;" d="M121 501l42 211h117l-42-211H121m197 0l42 211h117l-42-211H318z" horiz-adv-x="462" vert-adv-y="1000"/><glyph glyph-name="uni23" unicode="#" d="M22 0l66 190H25l24 120h82l40 113h-70l24 120h87l59 169h134l-60-169h107l59 169h134l-60-169h63l-24-120h-81l-39-113h68l-24-120h-87L396 0H262l66 190H221L156 0H22m243 310h105l39 113H304l-39-113z" horiz-adv-x="634" vert-adv-y="1000"/><glyph glyph-name="uni24" unicode="$" d="M18 203h134q-4-23-4-41 0-25 11-36 14-14 35-14 29 0 46 17 18 18 27 62 5 25 5 53 0 37-47 58l-69 33q-77 36-77 116 0 40 9 85 18 89 60 131 40 40 95 49l18 90h120l-20-95q33-9 62-36 32-32 32-92 0-38-6-72H315q5 25 5 44 0 25-10 35-11 11-29 11-23 0-38-15t-22-50q-5-25-5-44 0-34 36-50l57-27q56-26 78.5-55t22.5-75q0-50-9-95-12-59-26-90.5T338 45Q295 2 230-5l-21-109H89L111 0Q73 11 47 37q-36 36-36 94 0 31 7 72z" horiz-adv-x="444" vert-adv-y="1000"/><glyph glyph-name="uni25" unicode="%" d="M184 485q-4-18-4-27 0-27 30-27 33 0 42 44l22 107q4 18 4 27 0 27-30 27-33 0-42-44l-22-107m-101-1l21 104q15 73 54 102.5T258 720q55 0 88-29t33-73q0-17-4-35l-21-104q-14-71-52-101.5T200 347q-55 0-88 29t-33 73q0 17 4 35m436-354q-4-18-4-27 0-27 30-27 33 0 42 44l22 107q4 18 4 27 0 27-30 27-33 0-42-44l-22-107m-101-1l21 104q15 73 54 102.5T593 365q55 0 88-29t33-73q0-17-4-35l-21-104q-14-71-52-101.5T535-8q-55 0-88 29t-33 73q0 17 4 35M160 0l378 712h98L257 0h-97z" horiz-adv-x="758" vert-adv-y="1000"/><glyph glyph-name="uni26" unicode="&amp;" d="M6 141q0 78 33 134t104 115q-40 98-40 152 0 80 43.5 129T267 720q65 0 100-40t35-101q0-62-28-106.5T284 371l-2-2 38-95q20 39 40 113h106q-13-59-41-124.5T368 153L429 0H299l-20 49Q221-8 143-8 74-8 40 35T6 141m122 30q0-59 44-59 33 0 66 41l-52 129q-58-56-58-111m112 304l4 4q43 43 43 86 0 39-27 39-17 0-26-17.5t-9-40.5q0-36 15-71z" horiz-adv-x="480" vert-adv-y="1000"/><glyph glyph-name="uni27" unicode="'" d="M121 501l42 211h117l-42-211H121z" horiz-adv-x="265" vert-adv-y="1000"/><glyph glyph-name="uni28" unicode="(" d="M7 70q0 34 9 77l85 424q12 56 21 83t31 58q28 39 98 94l72-93q-49-43-66-65-16-21-29-83l-85-424q-7-33-7-56 0-16 7-33.5t14.5-29Q165 11 182-11L84-93Q7 7 7 70z" horiz-adv-x="278" vert-adv-y="1000"/><glyph glyph-name="uni29" unicode=")" d="M306 644q0-34-9-77l-85-424q-12-56-21-83T160 2q-28-39-98-94L-10 1q49 43 66 65 16 21 29 83l85 424q7 33 7 56 0 16-7 33.5t-14.5 29Q148 703 131 725l98 82q77-100 77-163z" horiz-adv-x="276" vert-adv-y="1000"/><glyph glyph-name="uni2a" unicode="*" d="M182 335l30 125-117-46-30 79 124 35-99 81 58 64 87-88 21 126 82-15-30-125 117 46 30-79-124-35 99-81-58-64-87 88-21-126-82 15z" horiz-adv-x="422" vert-adv-y="1000"/><glyph glyph-name="uni2b" unicode="+" d="M130 101l27 134H34l24 120h123l26 134h122l-26-134h123l-24-120H279l-27-134H130z" horiz-adv-x="448" vert-adv-y="1000"/><glyph glyph-name="uni2c" unicode="," d="M-36-179l66 329h136L121-74-36-179z" horiz-adv-x="242" vert-adv-y="1000"/><glyph glyph-name="uni2d" unicode="-" d="M34 235l24 120h198l-24-120H34z" horiz-adv-x="278" vert-adv-y="1000"/><glyph glyph-name="uni2e" unicode="." d="M-3 0l30 150h142L139 0H-3z" horiz-adv-x="242" vert-adv-y="1000"/><glyph glyph-name="uni2f" unicode="/" d="M-61-74l348 860h118L56-74H-61z" horiz-adv-x="313" vert-adv-y="1000"/><glyph glyph-name="uni30" unicode="0" d="M90 546q18 91 65 132 49 42 129 42 75 0 110-35 36-35 36-95 0-25-6-55l-74-369q-18-91-65-132Q236-8 156-8 81-8 46 27q-36 35-36 95 0 25 6 55l74 369m129 6l-77-387q-3-15-3-26 0-33 32-33 39 0 50 54l77 387q3 15 3 26 0 33-32 33-39 0-50-54z" horiz-adv-x="404" vert-adv-y="1000"/><glyph glyph-name="uni31" unicode="1" d="M117 0l111 557-121-84 31 154 121 85h128L245 0H117z" horiz-adv-x="404" vert-adv-y="1000"/><glyph glyph-name="uni32" unicode="2" d="M-11 0l21 108 237 327q52 70 52 134 0 37-31 37-38 0-49-55l-8-40H83l7 35q20 101 75 141 45 33 114 33 80 0 117-45 32-38 32-97 0-88-78-191L148 114h195L321 0H-11z" horiz-adv-x="404" vert-adv-y="1000"/><glyph glyph-name="uni33" unicode="3" d="M82 508l8 40q10 51 26 83t48 56q42 33 116 33 80 0 114-43 28-34 28-84 0-33-8-73-14-69-39-102-19-25-47-42 44-26 44-88 0-26-11-81-16-80-28.5-111.5T292 36Q248-8 160-8 76-8 39 38q-29 36-29 84 0 27 7 62l4 20h128l-5-25q-4-20-4-32 0-41 33-41 18 0 32 14 13 13 28 87 11 55 11 76 0 35-32 35h-30l23 112h25q19 0 29 12 14 16 26 75 9 45 9 58 0 31-28 31-36 0-46-49l-10-49H82z" horiz-adv-x="404" vert-adv-y="1000"/><glyph glyph-name="uni34" unicode="4" d="M-19 104L4 218l274 494h127L140 218h62l18 88h128l-18-88h46l-23-114h-46L287 0H159l20 104H-19z" horiz-adv-x="404" vert-adv-y="1000"/><glyph glyph-name="uni35" unicode="5" d="M19 194h128l-3-15q-4-20-4-32 0-41 33-41 18 0 32 14 13 13 34 115 15 79 15 97 0 36-32 36-39 0-51-55l-1-5H48l81 404h325l-23-114H222l-30-153q19 17 36 25 26 12 57 12 48 0 75-30 25-28 25-71 0-56-18-146-20-101-33-135.5T292 36Q248-8 160-8 76-8 39 38q-29 36-29 84 0 27 6 57l3 15z" horiz-adv-x="404" vert-adv-y="1000"/><glyph glyph-name="uni36" unicode="6" d="M12 130q0 38 10 89 18 90 55 155l191 338h139L240 435q12 7 34 7 50 0 75.5-34t25.5-83q0-40-13-106-14-71-26.5-104.5T302 56q-28-33-62-48.5T155-8Q80-8 42 38q-30 38-30 92m128 14q0-38 30-38 21 0 33 16 14 19 32 100 10 47 10 73 0 37-30 37-21 0-34-16-15-19-30-94-11-55-11-78z" horiz-adv-x="404" vert-adv-y="1000"/><glyph glyph-name="uni37" unicode="7" d="M19 0l295 598H210l-17-85H73l40 199h355l-21-106L149 0H19z" horiz-adv-x="404" vert-adv-y="1000"/><glyph glyph-name="uni38" unicode="8" d="M88 521q15 70 27.5 100t36.5 54q45 45 126 45 83 0 119-45 28-33 28-81 0-40-9-84-14-70-34-99-20-30-49-51 12-12 20-26 14-24 14-57 0-35-8-73-16-79-27.5-108.5T294 40Q246-8 159-8 76-8 39 38q-29 36-29 84 0 37 9 82 17 85 38 117 21 33 54 55-12 14-19 26-11 21-11 55 0 25 7 64m126-6q-9-45-9-56 0-18 9-27 8-8 20-8 18 0 29 14 13 18 25 77 9 45 9 56 0 18-9 27-8 8-20 8-18 0-29-14-13-18-25-77m-66-306q-10-50-10-65 0-19 10-29 9-9 23-9 19 0 33 15 14 16 28 88 10 50 10 65 0 19-10 29-9 9-23 9-19 0-33-15-14-16-28-88z" horiz-adv-x="404" vert-adv-y="1000"/><glyph glyph-name="uni39" unicode="9" d="M427 582q0-38-10-89-18-90-55-155L171 0H32l167 277q-12-7-34-7-50 0-75.5 34T64 387q0 40 13 106 14 71 26.5 104.5T137 656q28 33 62 48.5t85 15.5q75 0 113-46 30-38 30-92m-128-14q0 38-30 38-21 0-33-16-14-19-32-100-10-47-10-73 0-37 30-37 21 0 34 16 15 19 30 94 11 55 11 78z" horiz-adv-x="404" vert-adv-y="1000"/><glyph glyph-name="uni3a" unicode=":" d="M16 0l30 150h142L158 0H16m59 298l30 150h142l-30-150H75z" horiz-adv-x="261" vert-adv-y="1000"/><glyph glyph-name="uni3b" unicode=";" d="M-16-179l66 329h136L141-74-16-179m91 477l30 150h142l-30-150H75z" horiz-adv-x="261" vert-adv-y="1000"/><glyph glyph-name="uni3c" unicode="&lt;" d="M29 252l19 93 379 208-31-156-204-108 161-109-28-136L29 252z" horiz-adv-x="402" vert-adv-y="1000"/><glyph glyph-name="uni3d" unicode="=" d="M15 138l24 120h368l-24-120H15m39 194l24 120h368l-24-120H54z" horiz-adv-x="448" vert-adv-y="1000"/><glyph glyph-name="uni3e" unicode="&gt;" d="M386 335l-19-93L-12 34l31 156 204 108L62 407l28 136 296-208z" horiz-adv-x="402" vert-adv-y="1000"/><glyph glyph-name="uni3f" unicode="?" d="M153 207l12 60q7 30 17 49t37 46l67 67q32 32 44 86 6 28 6 45 0 22-11 33t-29 11q-22 0-39-17-16-16-28-76H102q24 121 74 163 51 44 134 44 89 0 128-51 26-35 26-86 0-35-7-70-17-87-66-136l-64-64q-32-32-37-59l-9-45H153M105 0l30 150h142L247 0H105z" horiz-adv-x="434" vert-adv-y="1000"/><glyph glyph-name="uni40" unicode="@" d="M48-14Q10 36 10 88q0 31 6 59l78 389q19 93 70 135 50 41 141 41h164q104 0 142-47 28-36 28-83 0-28-6-60L529 0H410l7 37q-20-20-39-31-25-14-61-14-57 0-85 45-15 25-15 54 0 34 7 68l34 168q16 84 53 122 44 45 105 45 26 0 49-15 16-11 28-30l13 59q4 16 4 38 0 57-55 57H310q-81 0-99-91l-71-357q-3-16-3-29 0-25 18-49L48-14m302 153q0-33 32-33 18 0 33 12.5t20 36.5l35 176q2 10 2 17 0 13-10.5 22.5T437 380q-41 0-50-49l-35-176q-2-10-2-16z" horiz-adv-x="629" vert-adv-y="1000"/><glyph glyph-name="uni41" unicode="A" d="M433 0H298l1 115H143L97 0H-47l316 712h132L433 0M297 235l1 279-107-279h106z" horiz-adv-x="492" vert-adv-y="1000"/><glyph glyph-name="uni42" unicode="B" d="M-1 0l142 712h183q95 0 131-48 27-36 27-89 0-28-8-67-16-80-52-112-19-16-38-24 17-8 28-25 18-25 18-63 0-35-8-75-24-122-74-167-27-24-61-33t-92-9H-1m158 120h44q42 0 59.5 20.5T289 214q6 28 6 48 0 28-13 40.5T240 315h-44l-39-195m61 309h38q38 0 56.5 18.5T340 508q5 23 5 38 0 23-11.5 34.5T293 592h-42l-33-163z" horiz-adv-x="477" vert-adv-y="1000"/><glyph glyph-name="uni43" unicode="C" d="M23 164q0 63 27 192 31 152 52.5 212.5T159 664q56 56 148 56 90 0 132-52 34-42 34-110 0-28-2-45H337q2 15 2 37 0 50-43 50-25 0-44-19-17-17-31-64t-37-161q-27-135-27-190 0-54 43-54 32 0 51 27 16 23 25 61h136Q389 90 330 38 278-8 188-8 85-8 46 61q-23 41-23 103z" horiz-adv-x="450" vert-adv-y="1000"/><glyph glyph-name="uni44" unicode="D" d="M157 120h49q39 0 61 31 22 33 57 206 28 138 28 182 0 25-13 39-12 14-35 14h-53l-94-472M-1 0l142 712h184q53 0 84-17t53-53q24-38 24-103 0-36-28-182-28-140-48-201t-54-95Q295 0 195 0H-1z" horiz-adv-x="474" vert-adv-y="1000"/><glyph glyph-name="uni45" unicode="E" d="M-1 0l142 712h312l-24-120H251l-35-173h153l-24-120H192l-35-179h178L311 0H-1z" horiz-adv-x="394" vert-adv-y="1000"/><glyph glyph-name="uni46" unicode="F" d="M-1 0l142 712h312l-24-120H251l-35-173h153l-24-120H192L133 0H-1z" horiz-adv-x="386" vert-adv-y="1000"/><glyph glyph-name="uni47" unicode="G" d="M446 392l-36-181Q387 97 334 44.5T185-8Q85-8 46 61q-23 41-23 103 0 63 27 192 31 152 52.5 212.5T159 664q56 56 148 56 90 0 132-52 34-42 34-110 0-28-2-45H337q2 15 2 37 0 50-43 50-25 0-44-19-17-17-31-64t-37-161q-27-135-27-190 0-54 43-54 56 0 74 88l17 85h-56l21 107h190z" horiz-adv-x="456" vert-adv-y="1000"/><glyph glyph-name="uni48" unicode="H" d="M-1 0l142 712h134l-58-290h114l58 290h134L381 0H247l60 302H193L133 0H-1z" horiz-adv-x="486" vert-adv-y="1000"/><glyph glyph-name="uni49" unicode="I" d="M-1 0l142 712h134L133 0H-1z" horiz-adv-x="238" vert-adv-y="1000"/><glyph glyph-name="uni4a" unicode="J" d="M-31 66l102 75q21-29 52-29 63 0 82 93l101 507h134L339 205Q317 96 268 48 209-8 120-8 13-8-31 66z" horiz-adv-x="399" vert-adv-y="1000"/><glyph glyph-name="uni4b" unicode="K" d="M-1 0l142 712h134l-56-281 175 281h145L345 416 419 0H284l-46 271-73-107L133 0H-1z" horiz-adv-x="477" vert-adv-y="1000"/><glyph glyph-name="uni4c" unicode="L" d="M-1 0l142 712h134L157 120h178L311 0H-1z" horiz-adv-x="386" vert-adv-y="1000"/><glyph glyph-name="uni4d" unicode="M" d="M-1 0l142 712h118l54-344 193 344h118L482 0H348l75 375-123-243h-69l-23 243L133 0H-1z" horiz-adv-x="587" vert-adv-y="1000"/><glyph glyph-name="uni4e" unicode="N" d="M-1 0l142 712h109l72-361 67 361h134L381 0H277l-73 360L133 0H-1z" horiz-adv-x="486" vert-adv-y="1000"/><glyph glyph-name="uni4f" unicode="O" d="M50 356q31 152 52.5 212.5T159 664q56 56 149 56 103 0 142-69 23-41 23-103 0-63-27-192-31-152-52.5-212.5T337 48Q281-8 188-8 85-8 46 61q-23 41-23 103 0 63 27 192m134 0q-27-135-27-190 0-54 44-54 24 0 43 19 17 17 31 64t37 161q27 135 27 190 0 54-44 54-24 0-43-19-17-17-31-64t-37-161z" horiz-adv-x="460" vert-adv-y="1000"/><glyph glyph-name="uni50" unicode="P" d="M-1 0l142 712h181q86 0 127-41 36-36 36-101 0-45-8-85-26-130-79-178.5T250 258h-66L133 0H-1m209 378h49q39 0 56.5 24.5T343 485q7 35 7 56 0 26-12 38.5T297 592h-46l-43-214z" horiz-adv-x="462" vert-adv-y="1000"/><glyph glyph-name="uni51" unicode="Q" d="M50 356q31 152 52.5 212.5T159 664q56 56 149 56 103 0 142-69 23-41 23-103 0-63-27-192-42-205-75-262l42-45-70-71-40 42Q257-8 188-8 85-8 46 61q-23 41-23 103 0 63 27 192m134 0q-27-135-27-190 0-54 44-54 10 0 19 3l-28 30 65 66 17-19q12 37 38 164 27 135 27 190 0 54-44 54-24 0-43-19-17-17-31-64t-37-161z" horiz-adv-x="460" vert-adv-y="1000"/><glyph glyph-name="uni52" unicode="R" d="M-1 0l142 712h189q80 0 118.5-36.5T487 578q0-36-9-83-18-88-43-126t-72-63L401 0H267l-30 281h-48L133 0H-1m213 397h58q34 0 49.5 26.5T344 495q6 34 6 49 0 24-10 36t-36 12h-53l-39-195z" horiz-adv-x="478" vert-adv-y="1000"/><glyph glyph-name="uni53" unicode="S" d="M18 203h134q-4-23-4-41 0-25 11-36 14-14 35-14 29 0 46 17 18 18 27 62 5 25 5 53 0 37-47 58l-69 33q-77 36-77 116 0 40 9 85 18 89 60 131 53 53 142 53 88 0 133-45 32-32 32-92 0-38-6-72H315q5 25 5 44 0 25-10 35-11 11-29 11-23 0-38-15t-22-50q-5-25-5-44 0-34 36-50l57-27q56-26 78.5-55t22.5-75q0-50-9-95-12-59-26-90.5T338 45Q285-8 182-8 92-8 47 37q-36 36-36 94 0 31 7 72z" horiz-adv-x="444" vert-adv-y="1000"/><glyph glyph-name="uni54" unicode="T" d="M80 0l118 592H84l24 120h362l-24-120H332L214 0H80z" horiz-adv-x="400" vert-adv-y="1000"/><glyph glyph-name="uni55" unicode="U" d="M33 196l103 516h134L165 187q-3-17-3-28 0-47 48-47 54 0 68 70l106 530h134L412 181q-19-93-73-141T193-8Q113-8 68 37 28 77 28 145q0 26 5 51z" horiz-adv-x="476" vert-adv-y="1000"/><glyph glyph-name="uni56" unicode="V" d="M102 0l-9 712h148l-29-507 176 507h148L242 0H102z" horiz-adv-x="451" vert-adv-y="1000"/><glyph glyph-name="uni57" unicode="W" d="M85 0l8 712h143l-31-513 182 513h149l-12-513 164 513h143L564 0H412l8 504L237 0H85z" horiz-adv-x="746" vert-adv-y="1000"/><glyph glyph-name="uni58" unicode="X" d="M-41 0l202 372-58 340h145l17-208 97 208h152L313 364 381 0H236l-27 222L110 0H-41z" horiz-adv-x="442" vert-adv-y="1000"/><glyph glyph-name="uni59" unicode="Y" d="M84 0l54 273-45 439h139l7-264 107 264h146L270 263 218 0H84z" horiz-adv-x="408" vert-adv-y="1000"/><glyph glyph-name="uni5a" unicode="Z" d="M-22 0l19 97 277 495H105l24 120h312l-19-97-277-495h180L301 0H-22z" horiz-adv-x="380" vert-adv-y="1000"/><glyph glyph-name="uni5b" unicode="[" d="M-23-74l172 860h221l-23-114h-91L130 40h91L198-74H-23z" horiz-adv-x="292" vert-adv-y="1000"/><glyph glyph-name="uni5c" unicode="\" d="M121-74l-17 860h124l17-860H121z" horiz-adv-x="313" vert-adv-y="1000"/><glyph glyph-name="uni5d" unicode="]" d="M351 786L179-74H-42l23 114h91l126 632h-91l23 114h221z" horiz-adv-x="292" vert-adv-y="1000"/><glyph glyph-name="uni5e" unicode="^" d="M64 432l196 284h110l82-284H336l-41 154-102-154H64z" horiz-adv-x="448" vert-adv-y="1000"/><glyph glyph-name="uni5f" unicode="_" d="M-66-68h449l-19-96H-85l19 96z" horiz-adv-x="450" vert-adv-y="1000"/><glyph glyph-name="uni60" unicode="`" d="M224 586l-57 143h100l43-143h-86z" horiz-adv-x="400" vert-adv-y="1000"/><glyph glyph-name="uni61" unicode="a" d="M8 43Q-7 70-7 112q0 26 6 56 15 74 71 117 45 34 131 34h44l11 55q3 15 3 26 0 32-31 32-18 0-30-12t-18-40H52q17 83 66 126 45 40 125 40 84 0 119-45 25-32 25-86 0-27-6-57L310 0H190l9 45q-20-25-40-37-25-16-57-16Q38-8 8 43m118 103q0-40 37-40 40 0 52 61l13 63h-22q-35 0-52-13-28-23-28-71z" horiz-adv-x="404" vert-adv-y="1000"/><glyph glyph-name="uni62" unicode="b" d="M202-8q-30 0-50 14-19 13-31 34l-8-40H-9l142 712h128l-41-205q19 19 33 26 24 13 51 13 63 0 87-44 16-31 16-71 0-47-23-162-24-118-40-165t-38-69Q263-8 202-8m54 277q19 95 19 125 0 21-9 30-8 8-22 8-18 0-30-12-14-14-20-43l-43-216q-3-15-3-23 0-16 9-25 7-7 22-7 18 0 32 14 19 19 45 149z" horiz-adv-x="411" vert-adv-y="1000"/><glyph glyph-name="uni63" unicode="c" d="M29 269q20 99 36 144t42 76q47 57 140 57t126-63q17-33 17-78 0-18-2-32H261q2 12 2 24 0 18-9 27-8 8-21 8-24 0-37-21-15-23-39-142-21-101-21-128 0-18 9-27 8-8 22-8 18 0 29 11 14 14 23 48h128q-18-73-53-116Q247-8 153-8 60-8 27 55q-17 33-17 80 0 36 19 134z" horiz-adv-x="389" vert-adv-y="1000"/><glyph glyph-name="uni64" unicode="d" d="M5 107q0 47 23 162 24 118 40 165t38 69q43 43 105 43 29 0 49-14 16-12 27-26l41 206h128L314 0H192l7 39q-19-23-40-34-24-13-51-13-63 0-87 44Q5 67 5 107m151 162q-19-95-19-125 0-21 9-30 8-8 22-8 18 0 30 12 14 14 20 43l43 216q3 15 3 23 0 16-9 25-7 7-22 7-18 0-32-14-19-19-45-149z" horiz-adv-x="411" vert-adv-y="1000"/><glyph glyph-name="uni65" unicode="e" d="M27 55q-17 33-17 80 0 36 19 134 20 99 36 144t42 76q47 57 143 57 80 0 115-50 23-33 23-90 0-54-25-179H148q-12-65-12-86 0-18 9-27 8-8 22-8 18 0 29 11 14 14 23 48h128q-18-73-53-116Q247-8 153-8 60-8 27 55m141 267h86q10 47 10 74 0 36-31 36-24 0-37-21-12-19-28-89z" horiz-adv-x="399" vert-adv-y="1000"/><glyph glyph-name="uni66" unicode="f" d="M13 0l84 421H50l19 96h47l6 29q21 103 82 144 28 19 57.5 24.5T348 720l-23-114q-35 0-52.5-17.5T248 536l-4-19h63l-19-96h-63L141 0H13z" horiz-adv-x="276" vert-adv-y="1000"/><glyph glyph-name="uni67" unicode="g" d="M421 538L311-12q-18-91-65-131-47-39-127-39-68 0-107 36t-39 96q0 14 3 33h127q-1-7-1-18 0-33 32-33 18 0 31 13 12 12 17 37l17 85q-16-18-33-26-26-13-52-13-62 0-86 44-16 31-16 71 0 44 20 144 22 110 37 151.5t37 64.5q43 43 104 43 30 0 50-14 19-13 31-34l8 40h122M160 287q-16-80-16-107 0-19 10-29 9-9 25-9t28 12q12 12 18 43l36 180q3 15 3 23 0 15-9 24-8 8-22 8-18 0-32-14-19-18-41-131z" horiz-adv-x="411" vert-adv-y="1000"/><glyph glyph-name="uni68" unicode="h" d="M-9 0l142 712h128l-41-205q23 21 35 27 24 12 51 12 62 0 89-45 15-26 15-66 0-15-9-61L327 0H199l74 373q4 20 4 27 0 15-9 23.5t-23 8.5q-40 0-52-59L119 0H-9z" horiz-adv-x="422" vert-adv-y="1000"/><glyph glyph-name="uni69" unicode="i" d="M-9 0L94 517h128L119 0H-9m115 578l27 134h128l-27-134H106z" horiz-adv-x="216" vert-adv-y="1000"/><glyph glyph-name="uni6a" unicode="j" d="M-8 10L94 517h128L118 0Q97-103 36-144q-28-19-57.5-24.5T-108-174l23 114q35 0 52.5 17.5T-8 10m114 568l27 134h128l-27-134H106z" horiz-adv-x="216" vert-adv-y="1000"/><glyph glyph-name="uni6b" unicode="k" d="M-9 0l142 712h128l-73-367 145 193h142L298 312 365 0H238l-44 202-47-60L119 0H-9z" horiz-adv-x="427" vert-adv-y="1000"/><glyph glyph-name="uni6c" unicode="l" d="M56 35q-37 34-37 93 0 25 5 50l107 534h128L154 187q-3-15-3-30 0-43 50-43L179 0Q96 0 56 35z" horiz-adv-x="249" vert-adv-y="1000"/><glyph glyph-name="uni6d" unicode="m" d="M-9 0L98 538h122l-8-38q24 24 43 34 24 12 51 12 67 0 93-53 30 28 58 41 24 12 57 12 62 0 89-45 15-26 15-66 0-15-9-61L535 0H407l74 373q4 20 4 27 0 15-9 23.5t-23 8.5q-40 0-52-59L327 0H199l74 373q4 20 4 27 0 15-9 23.5t-23 8.5q-40 0-52-59L119 0H-9z" horiz-adv-x="630" vert-adv-y="1000"/><glyph glyph-name="uni6e" unicode="n" d="M-9 0L98 538h122l-8-38q24 24 43 34 24 12 51 12 62 0 89-45 15-26 15-66 0-15-9-61L327 0H199l74 373q4 20 4 27 0 15-9 23.5t-23 8.5q-40 0-52-59L119 0H-9z" horiz-adv-x="422" vert-adv-y="1000"/><glyph glyph-name="uni6f" unicode="o" d="M157 269q-21-101-21-128 0-18 9-27 8-8 22-8 24 0 37 21 15 23 39 142 21 101 21 128 0 18-9 27-8 8-22 8-24 0-37-21-15-23-39-142m-128 0q20 99 36 144t42 76q47 57 140 57t126-63q17-33 17-80 0-36-19-134-20-99-36-144t-42-76Q245-8 153-8 60-8 27 55q-17 33-17 80 0 36 19 134z" horiz-adv-x="400" vert-adv-y="1000"/><glyph glyph-name="uni70" unicode="p" d="M98 538h122l-7-39q19 23 40 34 24 13 51 13 63 0 87-44 16-31 16-71 0-43-23-162-24-119-40-165.5T306 35Q263-8 201-8q-29 0-49 14-16 12-27 26L84-174H-44L98 538m96-161l-43-216q-3-15-3-23 0-16 9-25 7-7 22-7 18 0 32 14 19 19 45 149 19 95 19 125 0 21-9 30-8 8-22 8-18 0-30-12-14-14-20-43z" horiz-adv-x="411" vert-adv-y="1000"/><glyph glyph-name="uni71" unicode="q" d="M210 546q30 0 50-14 19-13 31-34l8 40h122L279-174H151l41 205q-19-19-33-26-24-13-51-13-63 0-87 44Q5 67 5 107q0 43 23 162 24 119 40 165.5t38 68.5q43 43 104 43m-54-277q-19-95-19-125 0-21 9-30 8-8 22-8 18 0 30 12 14 14 20 43l43 216q3 15 3 23 0 16-9 25-7 7-22 7-18 0-32-14-19-19-45-149z" horiz-adv-x="411" vert-adv-y="1000"/><glyph glyph-name="uni72" unicode="r" d="M-9 0L98 538h122l-11-58q22 29 56 47 37 19 89 19l-25-126h-47q-33 0-61-25t-37-67L119 0H-9z" horiz-adv-x="315" vert-adv-y="1000"/><glyph glyph-name="uni73" unicode="s" d="M29 36Q-3 68-3 124q0 17 4 37h126q-1-6-1-16 0-17 9-27 10-12 31-12 23 0 35 16t12 38q0 34-42 54l-49 23q-75 35-75 119 0 92 61 148 45 42 126 42 83 0 120-47 27-33 27-80 0-17-4-37H255q1 7 1 16 0 15-10 25-9 9-27 9t-30-12q-14-14-14-39 0-29 35-45l48-22q84-39 84-132 0-45-17.5-84T281 36Q231-8 152-8 72-8 29 36z" horiz-adv-x="386" vert-adv-y="1000"/><glyph glyph-name="uni74" unicode="t" d="M44 128q0 25 5 50l49 243H50l19 96h47l30 147h128l-30-147h63l-19-96h-62l-47-234q-3-15-3-30 0-43 50-43L204 0Q121 0 81 35q-37 34-37 93z" horiz-adv-x="276" vert-adv-y="1000"/><glyph glyph-name="uni75" unicode="u" d="M432 538L325 0H203l8 38q-24-24-43-34-24-12-51-12-62 0-89 45-15 26-15 66 0 15 9 61l74 374h128l-74-373q-4-20-4-27 0-15 9-23.5t23-8.5q40 0 52 59l74 373h128z" horiz-adv-x="422" vert-adv-y="1000"/><glyph glyph-name="uni76" unicode="v" d="M81 0L58 538h136l-6-337 130 337h136L217 0H81z" horiz-adv-x="404" vert-adv-y="1000"/><glyph glyph-name="uni77" unicode="w" d="M65 0l-7 538h133l-19-331 134 331h100l3-332 109 332h137L431 0H317l-5 310L182 0H65z" horiz-adv-x="605" vert-adv-y="1000"/><glyph glyph-name="uni78" unicode="x" d="M-42 0l171 276-64 262h136l28-148 81 148h143L276 266 353 0H217l-32 148L101 0H-42z" horiz-adv-x="412" vert-adv-y="1000"/><glyph glyph-name="uni79" unicode="y" d="M-23-60q44 2 60 8Q63-42 81 0L58 538h134l-6-343 127 343h146L199-49q-19-43-42.5-69T100-155.5q-33-11.5-63.5-15T-46-174l23 114z" horiz-adv-x="404" vert-adv-y="1000"/><glyph glyph-name="uni7a" unicode="z" d="M-27 0l18 94 196 330H62l23 114h274l-19-94-203-330h141L256 0H-27z" horiz-adv-x="336" vert-adv-y="1000"/><glyph glyph-name="uni7b" unicode="{" d="M65 39q0 14 7 46l27 140q9 43 9 52 0 29-37 29H33l22 113h40q27 0 38 17t23 75l27 130q9 47 19.5 71.5T235 756q34 30 115 30h72l-23-114h-33q-29 0-42-15t-23-66l-27-134q-10-50-38-76-18-17-52-24 28-8 40-24 13-17 13-40 0-21-6-52l-26-129q-7-30-7-40 0-18 8.5-25t27.5-7h39L250-74h-55q-73 0-105 39Q65-6 65 39z" horiz-adv-x="344" vert-adv-y="1000"/><glyph glyph-name="uni7c" unicode="|" d="M46-74l172 860h128L174-74H46z" horiz-adv-x="356" vert-adv-y="1000"/><glyph glyph-name="uni7d" unicode="}" d="M315 673q0-14-7-46l-27-140q-9-43-9-52 0-29 37-29h38l-22-113h-40q-27 0-38-17t-23-75L197 71q-9-47-19.5-71.5T145-44Q111-74 30-74h-72l23 114h33q29 0 42 15t23 66l27 134q10 50 38 76 18 17 52 24-28 8-40 24-13 17-13 40 0 21 6 52l26 129q7 30 7 40 0 18-8.5 25t-27.5 7h-39l23 114h55q73 0 105-39 25-29 25-74z" horiz-adv-x="344" vert-adv-y="1000"/><glyph glyph-name="uni7e" unicode="~" d="M82 226l-63 83q83 73 148 73 44 0 84-28 28-20 61-20 38 0 78 40l64-83q-83-73-148-73-44 0-84 28-28 20-61 20-39 0-79-40z" horiz-adv-x="450" vert-adv-y="1000"/><glyph glyph-name="unia1" unicode="¡" d="M193 331l-86-505H-41L65 331h128m53 207l-30-150H74l30 150h142z" horiz-adv-x="261" vert-adv-y="1000"/><glyph glyph-name="unia2" unicode="¢" d="M39 236q0 51 17 130 18 89 34 136t40 74q37 40 101 49l17 87h97l-17-87q31-6 58-37 29-33 29-93 0-9-2-31H286q1 4 1 14 0 18-7 28-8 9-23 9-24 0-37-20-15-22-36-129-18-90-18-113 0-18 7-26 8-10 24-10 20 0 33 15 12 14 17 36h127q-12-47-27.5-75T305 142q-29-26-81-34L203 0h-97l21 107q-43 10-66 46-22 34-22 83z" horiz-adv-x="400" vert-adv-y="1000"/><glyph glyph-name="unia3" unicode="£" d="M134 503q22 113 72 160 58 57 153 57 102 0 152-74l-107-79q-21 33-54 33-63 0-82-97l-19-96h71l-19-96h-71l-37-188h217L386 0H34l62 311H37l19 96h59l19 96z" horiz-adv-x="472" vert-adv-y="1000"/><glyph glyph-name="unia4" unicode="¤" d="M90 212q-20 42-20 83t20 83l-56 56 81 81 56-56q42 20 83 20t83-20l56 56 81-81-56-56q20-42 20-83t-20-83l56-56-81-81-56 56q-42-20-83-20t-83 20l-56-56-81 81 56 56m111 136l-11-11q-11-11-11-42t22-53q22-22 53-22t53 22q22 22 22 53t-22 53q-22 22-53 22t-53-22z" horiz-adv-x="496" vert-adv-y="1000"/><glyph glyph-name="unia5" unicode="¥" d="M12 137l19 96h99l8 40-3 30H45l19 96h61L93 712h139l8-259 106 259h146L337 399h58l-19-96h-86l-20-40-6-30h98l-19-96h-98L218 0H84l27 137H12z" horiz-adv-x="410" vert-adv-y="1000"/><glyph glyph-name="unia6" unicode="¦" d="M46-71l69 344h128L174-71H46m102 510l69 344h128l-69-344H148z" horiz-adv-x="356" vert-adv-y="1000"/><glyph glyph-name="unia7" unicode="§" d="M35 269q18 90 48 123 16 18 47 33-36 29-36 87 0 100 65 157 50 43 130 43 86 0 123-47 27-33 27-80 0-17-4-37H313q1 7 1 16 0 15-10 25-9 9-27 9-17 0-30-11-18-15-18-44 0-28 31-43l66-31q35-16 53-42 26-39 26-84 0-24-10-74-17-83-43-120-17-23-50-41 35-28 35-91 0-95-63-152-50-45-136-45-83 0-126 44-32 32-32 87 0 17 4 37h128q-1-7-1-17 0-17 10-27t30-10q22 0 35 13 15 15 15 41 0 31-35 48L99 68q-34 16-53 42-22 30-22 76 0 28 11 83m128 0q-7-35-7-54 0-21 10-32 10-12 30-12 23 0 39 16 19 19 32 82 7 35 7 54 0 21-10 32-10 12-30 12-23 0-39-16-19-20-32-82z" horiz-adv-x="430" vert-adv-y="1000"/><glyph glyph-name="unia8" unicode="¨" d="M114 590l24 120h115l-24-120H114m187 0l24 120h115l-24-120H301z" horiz-adv-x="400" vert-adv-y="1000"/><glyph glyph-name="unia9" unicode="©" d="M516 272q-3-56-34-87-28-28-72-28-50 0-81 38-17 21-22.5 57.5T301 356q0 67 5.5 103.5T329 517q31 38 81 38 44 0 72-28 31-31 34-87h-74q-2 27-8 34-8 11-24 11-18 0-25-15-10-20-10-114t10-114q7-15 25-15 16 0 24 11 6 8 8 34h74M214.5 557l-38.75-39.5Q137 478 137 356t77.5-201Q292 76 410 76t195.5 79Q683 234 683 356t-77.5 201Q528 636 410 636t-195.5-79m-58-454.5l-52.75 52.75Q51 208 51 356t105.5 253.5Q262 715 410 715t253.5-105.5Q769 504 769 356T663.5 102.5Q558-3 410-3T156.5 102.5z" horiz-adv-x="794" vert-adv-y="1000"/><glyph glyph-name="uniaa" unicode="ª" d="M42 367q0 97 63 144 33 25 108 25h34l8 41q3 15 3 23 0 25-25 25-14 0-24-10-9-9-13-31H91q14 69 52 101 37 32 102 32 62 0 90-28t28-78q0-22-5-47l-56-284h-99l7 35q-18-19-32-27-20-11-45-11-53 0-77 38-14 21-14 52m111 34q0-32 29-32 33 0 42 49l9 45h-17q-28 0-42-10-21-18-21-52z" horiz-adv-x="334" vert-adv-y="1000"/><glyph glyph-name="uniab" unicode="«" d="M134 9L23 280l220 270-38-187-77-90 41-90L134 9m190 0L213 280l220 270-38-187-77-90 41-90L324 9z" horiz-adv-x="415" vert-adv-y="1000"/><glyph glyph-name="uniac" unicode="¬" d="M47 259l24 120h350l-48-242H254l24 122H47z" horiz-adv-x="448" vert-adv-y="1000"/><glyph glyph-name="uniad" unicode="­" d="M34 235l24 120h198l-24-120H34z" horiz-adv-x="278" vert-adv-y="1000"/><glyph glyph-name="uniae" unicode="®" d="M526 434q0-60-25-87-7-7-18-15l55-169h-78l-45 152h-25V163h-75v390h107q51 0 77-26 27-28 27-93m-83-41l4 4q4 4 4 37t-8 41q-8 8-22 8h-31v-98h31q14 0 22 8M214.5 557l-38.75-39.5Q137 478 137 356t77.5-201Q292 76 410 76t195.5 79Q683 234 683 356t-77.5 201Q528 636 410 636t-195.5-79m-58-454.5l-52.75 52.75Q51 208 51 356t105.5 253.5Q262 715 410 715t253.5-105.5Q769 504 769 356T663.5 102.5Q558-3 410-3T156.5 102.5z" horiz-adv-x="794" vert-adv-y="1000"/><glyph glyph-name="uniaf" unicode="¯" d="M134 600l16 81h252l-16-81H134z" horiz-adv-x="400" vert-adv-y="1000"/><glyph glyph-name="unib0" unicode="°" d="M382.5 675.5l25.25-25.25Q433 625 433 553t-50.5-122.5Q332 380 260 380t-122.5 50.5Q87 481 87 553t50.5 122.5Q188 726 260 726t122.5-50.5m-80-167l8.75 9.25Q320 527 320 553t-17.5 44.5Q285 616 260 616t-42.5-18.5Q200 579 200 553t17.5-44.5Q235 490 260 490t42.5 18.5z" horiz-adv-x="406" vert-adv-y="1000"/><glyph glyph-name="unib1" unicode="±" d="M149 199l27 134H53l24 120h123l26 134h122l-26-134h123l-24-120H298l-27-134H149M-13 0l24 120h368L355 0H-13z" horiz-adv-x="448" vert-adv-y="1000"/><glyph glyph-name="unib2" unicode="²" d="M63 285l13 65 152 196q13 16 23.5 40t10.5 37q0 22-22 22-25 0-31-29l-5-24h-84l4 21q12 62 48 84 28 20 74 20 53 0 77-27 23-25 23-57 0-9-2-21-12-51-47-95L170 357h126l-14-72H63z" horiz-adv-x="330" vert-adv-y="1000"/><glyph glyph-name="unib3" unicode="³" d="M119 590l4 24q11 57 48 83 26 20 76 20 52 0 75-26 19-20 19-56 0-14-4-38-8-40-25-61-12-16-30-25 30-17 30-58 0-18-6-44-10-49-18-67.5T262 307q-28-27-86-27-55 0-80 28-20 20-20 50 0 17 4 37l2 12h84l-3-15q-2-10-2-19 0-21 22-21 13 0 21 8 9 9 18 49 6 29 6 46 0 21-22 21h-19l14 67h16q12 0 19 7 11 11 17 45 4 20 4 31 0 19-18 19-24 0-30-26l-6-29h-84z" horiz-adv-x="330" vert-adv-y="1000"/><glyph glyph-name="unib4" unicode="´" d="M211 586l100 143h108L301 586h-90z" horiz-adv-x="400" vert-adv-y="1000"/><glyph glyph-name="unib5" unicode="µ" d="M-46-174L96 538h128l-74-373q-4-20-4-27 0-15 9-23.5t23-8.5q40 0 52 59l74 373h128L325 0H203l7 38q-25-25-42-34-10-5-22-8-16-4-37-4L76-174H-46z" horiz-adv-x="422" vert-adv-y="1000"/><glyph glyph-name="unib6" unicode="¶" d="M133-174l89 448h-39q-58 0-94 35t-36 98q0 33 11 88 23 122 66.5 169.5T252 712h399L474-174H346l154 772h-85L261-174H133z" horiz-adv-x="607" vert-adv-y="1000"/><glyph glyph-name="unib7" unicode="·" d="M36 213l34 170h172l-34-170H36z" horiz-adv-x="266" vert-adv-y="1000"/><glyph glyph-name="unib8" unicode="¸" d="M13-203l98 163h82l-84-163H13z" horiz-adv-x="400" vert-adv-y="1000"/><glyph glyph-name="unib9" unicode="¹" d="M149 285l67 334-65-45 18 92 65 46h84l-85-427h-84z" horiz-adv-x="330" vert-adv-y="1000"/><glyph glyph-name="uniba" unicode="º" d="M72 495q26 132 61 175 38 47 115 47 61 0 90-29t29-79q0-39-15-114-26-132-61-175-38-47-115-47-61 0-90 29t-29 79q0 39 15 114m106 0q-15-75-15-99 0-28 24-28 18 0 29 16 11 18 30 111 15 75 15 99 0 28-24 28-18 0-29-16-11-18-30-111z" horiz-adv-x="332" vert-adv-y="1000"/><glyph glyph-name="unibb" unicode="»" d="M97 550l111-271L-12 9l38 187 77 90-41 90 35 174m189 0l111-271L177 9l38 187 77 90-41 90 35 174z" horiz-adv-x="415" vert-adv-y="1000"/><glyph glyph-name="unibc" unicode="¼" d="M149 285l67 334-65-45 18 92 65 46h84l-85-427h-84M174 0l376 712h89L263 0h-89m273 62l14 69 164 296h84L551 134h41l10 50h83l-9-50h30l-15-72h-29L649 0h-84l12 62H447z" horiz-adv-x="777" vert-adv-y="1000"/><glyph glyph-name="unibd" unicode="½" d="M149 285l67 334-65-45 18 92 65 46h84l-85-427h-84M174 0l376 712h89L263 0h-89m279 0l13 65 152 196q13 16 23.5 40t10.5 37q0 22-22 22-25 0-31-29l-5-24h-84l4 21q12 62 48 84 28 20 74 20 53 0 77-27 23-25 23-57 0-9-2-21-12-51-47-95L560 72h126L672 0H453z" horiz-adv-x="777" vert-adv-y="1000"/><glyph glyph-name="unibe" unicode="¾" d="M119 590l4 24q11 57 48 83 26 20 76 20 52 0 75-26 19-20 19-56 0-14-4-38-8-40-25-61-12-16-30-25 30-17 30-58 0-18-6-44-10-49-18-67.5T262 307q-28-27-86-27-55 0-80 28-20 20-20 50 0 17 4 37l2 12h84l-3-15q-2-10-2-19 0-21 22-21 13 0 21 8 9 9 18 49 6 29 6 46 0 21-22 21h-19l14 67h16q12 0 19 7 11 11 17 45 4 20 4 31 0 19-18 19-24 0-30-26l-6-29h-84M174 0l376 712h89L263 0h-89m273 62l14 69 164 296h84L551 134h41l10 50h83l-9-50h30l-15-72h-29L649 0h-84l12 62H447z" horiz-adv-x="777" vert-adv-y="1000"/><glyph glyph-name="unibf" unicode="¿" d="M278 331l-12-60q-7-30-17-49t-37-46l-67-67q-32-32-44-86-6-28-6-45 0-22 11-33t29-11q22 0 39 17 16 16 28 76h127q-24-121-74-163-51-44-134-44-89 0-128 51-26 35-26 86 0 35 7 70 10 50 25.5 80.5T40 163l64 64q32 32 37 59l9 45h128m48 207l-30-150H154l30 150h142z" horiz-adv-x="434" vert-adv-y="1000"/><glyph glyph-name="unic0" unicode="À" d="M433 0H298l1 115H143L97 0H-47l316 712h132L433 0M297 235l1 279-107-279h106m4 520l-57 143h100l43-143h-86z" horiz-adv-x="492" vert-adv-y="1000"/><glyph glyph-name="unic1" unicode="Á" d="M433 0H298l1 115H143L97 0H-47l316 712h132L433 0M297 235l1 279-107-279h106m-6 520l100 143h108L381 755h-90z" horiz-adv-x="492" vert-adv-y="1000"/><glyph glyph-name="unic2" unicode="Â" d="M433 0H298l1 115H143L97 0H-47l316 712h132L433 0M297 235l1 279-107-279h106m119 665l72-145h-86l-43 78-71-78h-96l130 145h94z" horiz-adv-x="492" vert-adv-y="1000"/><glyph glyph-name="unic3" unicode="Ã" d="M433 0H298l1 115H143L97 0H-47l316 712h132L433 0M297 235l1 279-107-279h106m-50 538l-44 59q50 45 97 45 33 0 62-17 25-14 47-14 25 0 52 24l44-59q-50-45-97-45-33 0-62 17-25 14-47 14-25 0-52-24z" horiz-adv-x="492" vert-adv-y="1000"/><glyph glyph-name="unic4" unicode="Ä" d="M433 0H298l1 115H143L97 0H-47l316 712h132L433 0M297 235l1 279-107-279h106M189 759l24 120h115l-24-120H189m187 0l24 120h115l-24-120H376z" horiz-adv-x="492" vert-adv-y="1000"/><glyph glyph-name="unic5" unicode="Å" d="M433 0H298l1 115H143L97 0H-47l316 712h132L433 0M297 235l1 279-107-279h106m22 663.5l-6.5-6.75Q306 885 306 865t13-33.5q13-13.5 31-13.5t31 13.5q13 13.5 13 33.5t-13 33.5Q368 912 350 912t-31-13.5M272 787l-16 16q-16 16-16 62t32 78q32 32 78 32t78-32q32-32 32-78t-32-78q-32-32-78-32t-78 32z" horiz-adv-x="492" vert-adv-y="1000"/><glyph glyph-name="unic6" unicode="Æ" d="M-48 0l388 712h398l-24-120H536l-35-173h153l-24-120H477l-35-179h178L596 0H284l25 125H164L101 0H-48m276 245h105l69 349-174-349z" horiz-adv-x="679" vert-adv-y="1000"/><glyph glyph-name="unic7" unicode="Ç" d="M23 164q0 63 27 192 31 152 52.5 212.5T159 664q56 56 148 56 90 0 132-52 34-42 34-110 0-28-2-45H337q2 15 2 37 0 50-43 50-25 0-44-19-17-17-31-64t-37-161q-27-135-27-190 0-54 43-54 32 0 51 27 16 23 25 61h136Q389 90 330 38 278-8 188-8 85-8 46 61q-23 41-23 103m18-367l98 163h82l-84-163H41z" horiz-adv-x="450" vert-adv-y="1000"/><glyph glyph-name="unic8" unicode="È" d="M-1 0l142 712h312l-24-120H251l-35-173h153l-24-120H192l-35-179h178L311 0H-1m267 755l-57 143h100l43-143h-86z" horiz-adv-x="394" vert-adv-y="1000"/><glyph glyph-name="unic9" unicode="É" d="M-1 0l142 712h312l-24-120H251l-35-173h153l-24-120H192l-35-179h178L311 0H-1m257 755l100 143h108L346 755h-90z" horiz-adv-x="394" vert-adv-y="1000"/><glyph glyph-name="unica" unicode="Ê" d="M-1 0l142 712h312l-24-120H251l-35-173h153l-24-120H192l-35-179h178L311 0H-1m382 900l72-145h-86l-43 78-71-78h-96l130 145h94z" horiz-adv-x="394" vert-adv-y="1000"/><glyph glyph-name="unicb" unicode="Ë" d="M-1 0l142 712h312l-24-120H251l-35-173h153l-24-120H192l-35-179h178L311 0H-1m155 759l24 120h115l-24-120H154m187 0l24 120h115l-24-120H341z" horiz-adv-x="394" vert-adv-y="1000"/><glyph glyph-name="unicc" unicode="Ì" d="M-1 0l142 712h134L133 0H-1m176 755l-57 143h100l43-143h-86z" horiz-adv-x="238" vert-adv-y="1000"/><glyph glyph-name="unicd" unicode="Í" d="M-1 0l142 712h134L133 0H-1m166 755l100 143h108L255 755h-90z" horiz-adv-x="238" vert-adv-y="1000"/><glyph glyph-name="unice" unicode="Î" d="M-1 0l142 712h134L133 0H-1m291 900l72-145h-86l-43 78-71-78H66l130 145h94z" horiz-adv-x="238" vert-adv-y="1000"/><glyph glyph-name="unicf" unicode="Ï" d="M-1 0l142 712h134L133 0H-1m64 759l24 120h115l-24-120H63m187 0l24 120h115l-24-120H250z" horiz-adv-x="238" vert-adv-y="1000"/><glyph glyph-name="unid0" unicode="Ð" d="M43 0l61 306H57l21 105h47l60 301h184q53 0 84-17t53-53q24-38 24-103 0-36-28-182-28-140-48-201t-54-95Q339 0 239 0H43m158 120h49q39 0 61 31 22 33 57 206 28 138 28 182 0 25-13 39-12 14-35 14h-53l-36-181h57l-21-105h-57l-37-186z" horiz-adv-x="517" vert-adv-y="1000"/><glyph glyph-name="unid1" unicode="Ñ" d="M-1 0l142 712h109l72-361 67 361h134L381 0H277l-73 360L133 0H-1m251 773l-44 59q50 45 97 45 33 0 62-17 25-14 47-14 25 0 52 24l44-59q-50-45-97-45-33 0-62 17-25 14-47 14-25 0-52-24z" horiz-adv-x="486" vert-adv-y="1000"/><glyph glyph-name="unid2" unicode="Ò" d="M50 356q31 152 52.5 212.5T159 664q56 56 149 56 103 0 142-69 23-41 23-103 0-63-27-192-31-152-52.5-212.5T337 48Q281-8 188-8 85-8 46 61q-23 41-23 103 0 63 27 192m134 0q-27-135-27-190 0-54 44-54 24 0 43 19 17 17 31 64t37 161q27 135 27 190 0 54-44 54-24 0-43-19-17-17-31-64t-37-161m101 399l-57 143h100l43-143h-86z" horiz-adv-x="460" vert-adv-y="1000"/><glyph glyph-name="unid3" unicode="Ó" d="M50 356q31 152 52.5 212.5T159 664q56 56 149 56 103 0 142-69 23-41 23-103 0-63-27-192-31-152-52.5-212.5T337 48Q281-8 188-8 85-8 46 61q-23 41-23 103 0 63 27 192m134 0q-27-135-27-190 0-54 44-54 24 0 43 19 17 17 31 64t37 161q27 135 27 190 0 54-44 54-24 0-43-19-17-17-31-64t-37-161m91 399l100 143h108L365 755h-90z" horiz-adv-x="460" vert-adv-y="1000"/><glyph glyph-name="unid4" unicode="Ô" d="M50 356q31 152 52.5 212.5T159 664q56 56 149 56 103 0 142-69 23-41 23-103 0-63-27-192-31-152-52.5-212.5T337 48Q281-8 188-8 85-8 46 61q-23 41-23 103 0 63 27 192m134 0q-27-135-27-190 0-54 44-54 24 0 43 19 17 17 31 64t37 161q27 135 27 190 0 54-44 54-24 0-43-19-17-17-31-64t-37-161m216 544l72-145h-86l-43 78-71-78h-96l130 145h94z" horiz-adv-x="460" vert-adv-y="1000"/><glyph glyph-name="unid5" unicode="Õ" d="M50 356q31 152 52.5 212.5T159 664q56 56 149 56 103 0 142-69 23-41 23-103 0-63-27-192-31-152-52.5-212.5T337 48Q281-8 188-8 85-8 46 61q-23 41-23 103 0 63 27 192m134 0q-27-135-27-190 0-54 44-54 24 0 43 19 17 17 31 64t37 161q27 135 27 190 0 54-44 54-24 0-43-19-17-17-31-64t-37-161m47 417l-44 59q50 45 97 45 33 0 62-17 25-14 47-14 25 0 52 24l44-59q-50-45-97-45-33 0-62 17-25 14-47 14-25 0-52-24z" horiz-adv-x="460" vert-adv-y="1000"/><glyph glyph-name="unid6" unicode="Ö" d="M50 356q31 152 52.5 212.5T159 664q56 56 149 56 103 0 142-69 23-41 23-103 0-63-27-192-31-152-52.5-212.5T337 48Q281-8 188-8 85-8 46 61q-23 41-23 103 0 63 27 192m134 0q-27-135-27-190 0-54 44-54 24 0 43 19 17 17 31 64t37 161q27 135 27 190 0 54-44 54-24 0-43-19-17-17-31-64t-37-161m-11 403l24 120h115l-24-120H173m187 0l24 120h115l-24-120H360z" horiz-adv-x="460" vert-adv-y="1000"/><glyph glyph-name="unid7" unicode="×" d="M20 187l130 113-84 113 91 80 84-112 130 113 69-91-130-113 84-113-91-80-84 113L89 96l-69 91z" horiz-adv-x="448" vert-adv-y="1000"/><glyph glyph-name="unid8" unicode="Ø" d="M50 356q31 152 52.5 212.5T159 664q56 56 149 56 58 0 94-21l32 57h84l-64-113q19-38 19-95 0-63-27-192-31-152-52.5-212.5T337 48Q281-8 188-8q-57 0-94 20L62-44h-84L42 68q-19 39-19 96 0 63 27 192m262 0q8 40 14 74L161 137q9-25 40-25 24 0 43 19 17 17 31 64t37 161m-128 0q-4-19-13-70l163 290q-9 24-39 24-24 0-43-19-17-17-31-64t-37-161z" horiz-adv-x="460" vert-adv-y="1000"/><glyph glyph-name="unid9" unicode="Ù" d="M33 196l103 516h134L165 187q-3-17-3-28 0-47 48-47 54 0 68 70l106 530h134L412 181q-19-93-73-141T193-8Q113-8 68 37 28 77 28 145q0 26 5 51m260 559l-57 143h100l43-143h-86z" horiz-adv-x="476" vert-adv-y="1000"/><glyph glyph-name="unida" unicode="Ú" d="M33 196l103 516h134L165 187q-3-17-3-28 0-47 48-47 54 0 68 70l106 530h134L412 181q-19-93-73-141T193-8Q113-8 68 37 28 77 28 145q0 26 5 51m250 559l100 143h108L373 755h-90z" horiz-adv-x="476" vert-adv-y="1000"/><glyph glyph-name="unidb" unicode="Û" d="M33 196l103 516h134L165 187q-3-17-3-28 0-47 48-47 54 0 68 70l106 530h134L412 181q-19-93-73-141T193-8Q113-8 68 37 28 77 28 145q0 26 5 51m375 704l72-145h-86l-43 78-71-78h-96l130 145h94z" horiz-adv-x="476" vert-adv-y="1000"/><glyph glyph-name="unidc" unicode="Ü" d="M33 196l103 516h134L165 187q-3-17-3-28 0-47 48-47 54 0 68 70l106 530h134L412 181q-19-93-73-141T193-8Q113-8 68 37 28 77 28 145q0 26 5 51m148 563l24 120h115l-24-120H181m187 0l24 120h115l-24-120H368z" horiz-adv-x="476" vert-adv-y="1000"/><glyph glyph-name="unidd" unicode="Ý" d="M84 0l54 273-45 439h139l7-264 107 264h146L270 263 218 0H84m160 755l100 143h108L334 755h-90z" horiz-adv-x="408" vert-adv-y="1000"/><glyph glyph-name="unide" unicode="Þ" d="M159 134L133 0H-1l142 712h134l-25-124h47q86 0 127-41 36-36 36-101 0-45-8-85-26-130-79-178.5T225 134h-66m24 120h49q39 0 56.5 24.5T318 361q7 35 7 56 0 26-12 38.5T272 468h-46l-43-214z" horiz-adv-x="463" vert-adv-y="1000"/><glyph glyph-name="unidf" unicode="ß" d="M-9 0l109 547q18 91 69 133 49 40 127 40 82 0 119-46 28-35 28-91 0-37-11.5-87.5T403 420q-19-30-49-49 37-30 37-85 0-27-10-77-15-74-30.5-108T305 41q-27-24-59.5-32.5T162 0l22 114q25 0 39 14 18 18 33 94 9 45 9 64 0 36-32 36h-7l21 106h8q17 0 28 13.5t15 27q4 13.5 10 41.5 9 45 9 61 0 35-34 35-44 0-55-59L119 0H-9z" horiz-adv-x="420" vert-adv-y="1000"/><glyph glyph-name="unie0" unicode="à" d="M8 43Q-7 70-7 112q0 26 6 56 15 74 71 117 45 34 131 34h44l11 55q3 15 3 26 0 32-31 32-18 0-30-12t-18-40H52q17 83 66 126 45 40 125 40 84 0 119-45 25-32 25-86 0-27-6-57L310 0H190l9 45q-20-25-40-37-25-16-57-16Q38-8 8 43m118 103q0-40 37-40 40 0 52 61l13 63h-22q-35 0-52-13-28-23-28-71m95 440l-57 143h100l43-143h-86z" horiz-adv-x="404" vert-adv-y="1000"/><glyph glyph-name="unie1" unicode="á" d="M8 43Q-7 70-7 112q0 26 6 56 15 74 71 117 45 34 131 34h44l11 55q3 15 3 26 0 32-31 32-18 0-30-12t-18-40H52q17 83 66 126 45 40 125 40 84 0 119-45 25-32 25-86 0-27-6-57L310 0H190l9 45q-20-25-40-37-25-16-57-16Q38-8 8 43m118 103q0-40 37-40 40 0 52 61l13 63h-22q-35 0-52-13-28-23-28-71m85 440l100 143h108L301 586h-90z" horiz-adv-x="404" vert-adv-y="1000"/><glyph glyph-name="unie2" unicode="â" d="M8 43Q-7 70-7 112q0 26 6 56 15 74 71 117 45 34 131 34h44l11 55q3 15 3 26 0 32-31 32-18 0-30-12t-18-40H52q17 83 66 126 45 40 125 40 84 0 119-45 25-32 25-86 0-27-6-57L310 0H190l9 45q-20-25-40-37-25-16-57-16Q38-8 8 43m118 103q0-40 37-40 40 0 52 61l13 63h-22q-35 0-52-13-28-23-28-71m210 585l72-145h-86l-43 78-71-78h-96l130 145h94z" horiz-adv-x="404" vert-adv-y="1000"/><glyph glyph-name="unie3" unicode="ã" d="M8 43Q-7 70-7 112q0 26 6 56 15 74 71 117 45 34 131 34h44l11 55q3 15 3 26 0 32-31 32-18 0-30-12t-18-40H52q17 83 66 126 45 40 125 40 84 0 119-45 25-32 25-86 0-27-6-57L310 0H190l9 45q-20-25-40-37-25-16-57-16Q38-8 8 43m118 103q0-40 37-40 40 0 52 61l13 63h-22q-35 0-52-13-28-23-28-71m41 458l-44 59q50 45 97 45 33 0 62-17 25-14 47-14 25 0 52 24l44-59q-50-45-97-45-33 0-62 17-25 14-47 14-25 0-52-24z" horiz-adv-x="404" vert-adv-y="1000"/><glyph glyph-name="unie4" unicode="ä" d="M8 43Q-7 70-7 112q0 26 6 56 15 74 71 117 45 34 131 34h44l11 55q3 15 3 26 0 32-31 32-18 0-30-12t-18-40H52q17 83 66 126 45 40 125 40 84 0 119-45 25-32 25-86 0-27-6-57L310 0H190l9 45q-20-25-40-37-25-16-57-16Q38-8 8 43m118 103q0-40 37-40 40 0 52 61l13 63h-22q-35 0-52-13-28-23-28-71m-17 444l24 120h115l-24-120H109m187 0l24 120h115l-24-120H296z" horiz-adv-x="404" vert-adv-y="1000"/><glyph glyph-name="unie5" unicode="å" d="M8 43Q-7 70-7 112q0 26 6 56 15 74 71 117 45 34 131 34h44l11 55q3 15 3 26 0 32-31 32-18 0-30-12t-18-40H52q17 83 66 126 45 40 125 40 84 0 119-45 25-32 25-86 0-27-6-57L310 0H190l9 45q-20-25-40-37-25-16-57-16Q38-8 8 43m118 103q0-40 37-40 40 0 52 61l13 63h-22q-35 0-52-13-28-23-28-71m113 586.5l-6.5-6.75Q226 719 226 699t13-33.5q13-13.5 31-13.5t31 13.5q13 13.5 13 33.5t-13 33.5Q288 746 270 746t-31-13.5M192 621l-16 16q-16 16-16 62t32 78q32 32 78 32t78-32q32-32 32-78t-32-78q-32-32-78-32t-78 32z" horiz-adv-x="404" vert-adv-y="1000"/><glyph glyph-name="unie6" unicode="æ" d="M-1 168q15 74 71 117 45 34 131 34h44l11 55q3 15 3 26 0 32-31 32-18 0-30-12t-18-40H52q17 83 66 126 45 40 125 40 63 0 101-30 46 30 111 30 80 0 115-50 23-33 23-90 0-54-25-179H353q-12-65-12-86 0-18 9-27 8-8 22-8 18 0 29 11 14 14 23 48h128q-18-73-53-116Q452-8 358-8q-53 0-80 13-28 14-52 48-25-34-59-49-29-12-65-12Q38-8 8 43-7 70-7 112q0 26 6 56m127-22q0-40 37-40 40 0 52 61l13 63h-22q-35 0-52-13-28-23-28-71m247 176h86q10 47 10 74 0 36-31 36-24 0-37-21-12-19-28-89z" horiz-adv-x="604" vert-adv-y="1000"/><glyph glyph-name="unie7" unicode="ç" d="M29 269q20 99 36 144t42 76q47 57 140 57t126-63q17-33 17-78 0-18-2-32H261q2 12 2 24 0 18-9 27-8 8-21 8-24 0-37-21-15-23-39-142-21-101-21-128 0-18 9-27 8-8 22-8 18 0 29 11 14 14 23 48h128q-18-73-53-116Q247-8 153-8 60-8 27 55q-17 33-17 80 0 36 19 134M10-203l98 163h82l-84-163H10z" horiz-adv-x="389" vert-adv-y="1000"/><glyph glyph-name="unie8" unicode="è" d="M27 55q-17 33-17 80 0 36 19 134 20 99 36 144t42 76q47 57 143 57 80 0 115-50 23-33 23-90 0-54-25-179H148q-12-65-12-86 0-18 9-27 8-8 22-8 18 0 29 11 14 14 23 48h128q-18-73-53-116Q247-8 153-8 60-8 27 55m141 267h86q10 47 10 74 0 36-31 36-24 0-37-21-12-19-28-89m53 264l-57 143h100l43-143h-86z" horiz-adv-x="399" vert-adv-y="1000"/><glyph glyph-name="unie9" unicode="é" d="M27 55q-17 33-17 80 0 36 19 134 20 99 36 144t42 76q47 57 143 57 80 0 115-50 23-33 23-90 0-54-25-179H148q-12-65-12-86 0-18 9-27 8-8 22-8 18 0 29 11 14 14 23 48h128q-18-73-53-116Q247-8 153-8 60-8 27 55m141 267h86q10 47 10 74 0 36-31 36-24 0-37-21-12-19-28-89m43 264l100 143h108L301 586h-90z" horiz-adv-x="399" vert-adv-y="1000"/><glyph glyph-name="uniea" unicode="ê" d="M27 55q-17 33-17 80 0 36 19 134 20 99 36 144t42 76q47 57 143 57 80 0 115-50 23-33 23-90 0-54-25-179H148q-12-65-12-86 0-18 9-27 8-8 22-8 18 0 29 11 14 14 23 48h128q-18-73-53-116Q247-8 153-8 60-8 27 55m141 267h86q10 47 10 74 0 36-31 36-24 0-37-21-12-19-28-89m168 409l72-145h-86l-43 78-71-78h-96l130 145h94z" horiz-adv-x="399" vert-adv-y="1000"/><glyph glyph-name="unieb" unicode="ë" d="M27 55q-17 33-17 80 0 36 19 134 20 99 36 144t42 76q47 57 143 57 80 0 115-50 23-33 23-90 0-54-25-179H148q-12-65-12-86 0-18 9-27 8-8 22-8 18 0 29 11 14 14 23 48h128q-18-73-53-116Q247-8 153-8 60-8 27 55m141 267h86q10 47 10 74 0 36-31 36-24 0-37-21-12-19-28-89m-59 268l24 120h115l-24-120H109m187 0l24 120h115l-24-120H296z" horiz-adv-x="399" vert-adv-y="1000"/><glyph glyph-name="uniec" unicode="ì" d="M-9 0L94 517h128L119 0H-9m141 586L75 729h100l43-143h-86z" horiz-adv-x="216" vert-adv-y="1000"/><glyph glyph-name="unied" unicode="í" d="M-9 0L94 517h128L119 0H-9m131 586l100 143h108L212 586h-90z" horiz-adv-x="216" vert-adv-y="1000"/><glyph glyph-name="uniee" unicode="î" d="M-9 0L94 517h128L119 0H-9m256 731l72-145h-86l-43 78-71-78H23l130 145h94z" horiz-adv-x="216" vert-adv-y="1000"/><glyph glyph-name="unief" unicode="ï" d="M-9 0L94 517h128L119 0H-9m29 590l24 120h115l-24-120H20m187 0l24 120h115l-24-120H207z" horiz-adv-x="216" vert-adv-y="1000"/><glyph glyph-name="unif0" unicode="ð" d="M27 243q33 170 68 205 40 40 104 40 38 0 64-19l-9 100h-67l16 83h40l-3 60h124l4-60h69l-16-83h-43l7-101q3-30 3-58 0-69-19-167-31-154-72-200-27-28-59.5-39.5T151-8Q94-8 56 25 12 63 12 128q0 40 15 115m127 0q-16-82-16-100 0-16 7-26 8-11 25-11 24 0 37 19t33 118q15 70 15 96 0 17-7 25-9 10-25 10-24 0-37-19-14-21-32-112z" horiz-adv-x="406" vert-adv-y="1000"/><glyph glyph-name="unif1" unicode="ñ" d="M-9 0L98 538h122l-8-38q24 24 43 34 24 12 51 12 62 0 89-45 15-26 15-66 0-15-9-61L327 0H199l74 373q4 20 4 27 0 15-9 23.5t-23 8.5q-40 0-52-59L119 0H-9m186 604l-44 59q50 45 97 45 33 0 62-17 25-14 47-14 25 0 52 24l44-59q-50-45-97-45-33 0-62 17-25 14-47 14-25 0-52-24z" horiz-adv-x="422" vert-adv-y="1000"/><glyph glyph-name="unif2" unicode="ò" d="M157 269q-21-101-21-128 0-18 9-27 8-8 22-8 24 0 37 21 15 23 39 142 21 101 21 128 0 18-9 27-8 8-22 8-24 0-37-21-15-23-39-142m-128 0q20 99 36 144t42 76q47 57 140 57t126-63q17-33 17-80 0-36-19-134-20-99-36-144t-42-76Q245-8 153-8 60-8 27 55q-17 33-17 80 0 36 19 134m192 317l-57 143h100l43-143h-86z" horiz-adv-x="400" vert-adv-y="1000"/><glyph glyph-name="unif3" unicode="ó" d="M157 269q-21-101-21-128 0-18 9-27 8-8 22-8 24 0 37 21 15 23 39 142 21 101 21 128 0 18-9 27-8 8-22 8-24 0-37-21-15-23-39-142m-128 0q20 99 36 144t42 76q47 57 140 57t126-63q17-33 17-80 0-36-19-134-20-99-36-144t-42-76Q245-8 153-8 60-8 27 55q-17 33-17 80 0 36 19 134m182 317l100 143h108L301 586h-90z" horiz-adv-x="400" vert-adv-y="1000"/><glyph glyph-name="unif4" unicode="ô" d="M157 269q-21-101-21-128 0-18 9-27 8-8 22-8 24 0 37 21 15 23 39 142 21 101 21 128 0 18-9 27-8 8-22 8-24 0-37-21-15-23-39-142m-128 0q20 99 36 144t42 76q47 57 140 57t126-63q17-33 17-80 0-36-19-134-20-99-36-144t-42-76Q245-8 153-8 60-8 27 55q-17 33-17 80 0 36 19 134m307 462l72-145h-86l-43 78-71-78h-96l130 145h94z" horiz-adv-x="400" vert-adv-y="1000"/><glyph glyph-name="unif5" unicode="õ" d="M157 269q-21-101-21-128 0-18 9-27 8-8 22-8 24 0 37 21 15 23 39 142 21 101 21 128 0 18-9 27-8 8-22 8-24 0-37-21-15-23-39-142m-128 0q20 99 36 144t42 76q47 57 140 57t126-63q17-33 17-80 0-36-19-134-20-99-36-144t-42-76Q245-8 153-8 60-8 27 55q-17 33-17 80 0 36 19 134m138 335l-44 59q50 45 97 45 33 0 62-17 25-14 47-14 25 0 52 24l44-59q-50-45-97-45-33 0-62 17-25 14-47 14-25 0-52-24z" horiz-adv-x="400" vert-adv-y="1000"/><glyph glyph-name="unif6" unicode="ö" d="M157 269q-21-101-21-128 0-18 9-27 8-8 22-8 24 0 37 21 15 23 39 142 21 101 21 128 0 18-9 27-8 8-22 8-24 0-37-21-15-23-39-142m-128 0q20 99 36 144t42 76q47 57 140 57t126-63q17-33 17-80 0-36-19-134-20-99-36-144t-42-76Q245-8 153-8 60-8 27 55q-17 33-17 80 0 36 19 134m80 321l24 120h115l-24-120H109m187 0l24 120h115l-24-120H296z" horiz-adv-x="400" vert-adv-y="1000"/><glyph glyph-name="unif7" unicode="÷" d="M104 18l28 140h142L246 18H104M34 235l24 120h368l-24-120H34m152 197l28 140h142l-28-140H186z" horiz-adv-x="448" vert-adv-y="1000"/><glyph glyph-name="unif8" unicode="ø" d="M362 582h80l-67-103q15-31 15-76 0-36-19-134-20-99-36-144t-42-76Q245-8 153-8 104-8 72 9L38-44h-80L24 60q-14 29-14 75 0 36 19 134 20 99 36 144t42 76q47 57 140 57 47 0 81-17l34 53M243 269l3 17-105-168q9-12 26-12 24 0 37 21 15 23 39 142m-86 0l-4-17 106 168q-9 12-26 12-24 0-37-21-15-23-39-142z" horiz-adv-x="400" vert-adv-y="1000"/><glyph glyph-name="unif9" unicode="ù" d="M432 538L325 0H203l8 38q-24-24-43-34-24-12-51-12-62 0-89 45-15 26-15 66 0 15 9 61l74 374h128l-74-373q-4-20-4-27 0-15 9-23.5t23-8.5q40 0 52 59l74 373h128m-198 48l-57 143h100l43-143h-86z" horiz-adv-x="422" vert-adv-y="1000"/><glyph glyph-name="unifa" unicode="ú" d="M432 538L325 0H203l8 38q-24-24-43-34-24-12-51-12-62 0-89 45-15 26-15 66 0 15 9 61l74 374h128l-74-373q-4-20-4-27 0-15 9-23.5t23-8.5q40 0 52 59l74 373h128m-208 48l100 143h108L314 586h-90z" horiz-adv-x="422" vert-adv-y="1000"/><glyph glyph-name="unifb" unicode="û" d="M432 538L325 0H203l8 38q-24-24-43-34-24-12-51-12-62 0-89 45-15 26-15 66 0 15 9 61l74 374h128l-74-373q-4-20-4-27 0-15 9-23.5t23-8.5q40 0 52 59l74 373h128m-83 193l72-145h-86l-43 78-71-78h-96l130 145h94z" horiz-adv-x="422" vert-adv-y="1000"/><glyph glyph-name="unifc" unicode="ü" d="M432 538L325 0H203l8 38q-24-24-43-34-24-12-51-12-62 0-89 45-15 26-15 66 0 15 9 61l74 374h128l-74-373q-4-20-4-27 0-15 9-23.5t23-8.5q40 0 52 59l74 373h128m-310 52l24 120h115l-24-120H122m187 0l24 120h115l-24-120H309z" horiz-adv-x="422" vert-adv-y="1000"/><glyph glyph-name="unifd" unicode="ý" d="M-23-60q44 2 60 8Q63-42 81 0L58 538h134l-6-343 127 343h146L199-49q-19-43-42.5-69T100-155.5q-33-11.5-63.5-15T-46-174l23 114m239 646l100 143h108L306 586h-90z" horiz-adv-x="404" vert-adv-y="1000"/><glyph glyph-name="unife" unicode="þ" d="M-44-174l177 886h128l-41-205q19 19 33 26 24 13 51 13 63 0 87-44 16-31 16-71 0-43-23-162-24-119-40-165.5T306 35Q263-8 201-8q-29 0-49 14-17 11-27 26L84-174H-44m238 551l-43-216q-3-15-3-23 0-16 9-25 7-7 22-7 18 0 32 14 19 19 45 149 19 95 19 125 0 21-9 30-8 8-22 8-18 0-30-12-14-14-20-43z" horiz-adv-x="411" vert-adv-y="1000"/><glyph glyph-name="uniff" unicode="ÿ" d="M-23-60q44 2 60 8Q63-42 81 0L58 538h134l-6-343 127 343h146L199-49q-19-43-42.5-69T100-155.5q-33-11.5-63.5-15T-46-174l23 114m137 650l24 120h115l-24-120H114m187 0l24 120h115l-24-120H301z" horiz-adv-x="404" vert-adv-y="1000"/><glyph glyph-name="uni0100" unicode="Ā" d="M433 0H298l1 115H143L97 0H-47l316 712h132L433 0M297 235l1 279-107-279h106m-80 534l16 81h252l-16-81H217z" horiz-adv-x="492" vert-adv-y="1000"/><glyph glyph-name="uni0101" unicode="ā" d="M8 43Q-7 70-7 112q0 26 6 56 15 74 71 117 45 34 131 34h44l11 55q3 15 3 26 0 32-31 32-18 0-30-12t-18-40H52q17 83 66 126 45 40 125 40 84 0 119-45 25-32 25-86 0-27-6-57L310 0H190l9 45q-20-25-40-37-25-16-57-16Q38-8 8 43m118 103q0-40 37-40 40 0 52 61l13 63h-22q-35 0-52-13-28-23-28-71m5 454l16 81h252l-16-81H131z" horiz-adv-x="404" vert-adv-y="1000"/><glyph glyph-name="uni0102" unicode="Ă" d="M433 0H298l1 115H143L97 0H-47l316 712h132L433 0M297 235l1 279-107-279h106m195 643q-12-66-47-94.5T349 755q-52 0-83 26t-31 68q0 13 3 29h80v-6q0-34 40-34 44 0 54 40h80z" horiz-adv-x="492" vert-adv-y="1000"/><glyph glyph-name="uni0103" unicode="ă" d="M8 43Q-7 70-7 112q0 26 6 56 15 74 71 117 45 34 131 34h44l11 55q3 15 3 26 0 32-31 32-18 0-30-12t-18-40H52q17 83 66 126 45 40 125 40 84 0 119-45 25-32 25-86 0-27-6-57L310 0H190l9 45q-20-25-40-37-25-16-57-16Q38-8 8 43m118 103q0-40 37-40 40 0 52 61l13 63h-22q-35 0-52-13-28-23-28-71m286 563q-12-66-47-94.5T269 586q-52 0-83 26t-31 68q0 12 3 29h80v-6q0-34 40-34 44 0 54 40h80z" horiz-adv-x="404" vert-adv-y="1000"/><glyph glyph-name="uni0104" unicode="Ą" d="M433 0H298l1 115H143L97 0H-47l316 712h132L433 0M297 235l1 279-107-279h106m-60-438l98 163h82l-84-163h-96z" horiz-adv-x="492" vert-adv-y="1000"/><glyph glyph-name="uni0105" unicode="ą" d="M8 43Q-7 70-7 112q0 26 6 56 15 74 71 117 45 34 131 34h44l11 55q3 15 3 26 0 32-31 32-18 0-30-12t-18-40H52q17 83 66 126 45 40 125 40 84 0 119-45 25-32 25-86 0-27-6-57L310 0H190l9 45q-20-25-40-37-25-16-57-16Q38-8 8 43m118 103q0-40 37-40 40 0 52 61l13 63h-22q-35 0-52-13-28-23-28-71m-21-349l98 163h82l-84-163h-96z" horiz-adv-x="404" vert-adv-y="1000"/><glyph glyph-name="uni0106" unicode="Ć" d="M23 164q0 63 27 192 31 152 52.5 212.5T159 664q56 56 148 56 90 0 132-52 34-42 34-110 0-28-2-45H337q2 15 2 37 0 50-43 50-25 0-44-19-17-17-31-64t-37-161q-27-135-27-190 0-54 43-54 32 0 51 27 16 23 25 61h136Q389 90 330 38 278-8 188-8 85-8 46 61q-23 41-23 103m252 591l100 143h108L365 755h-90z" horiz-adv-x="450" vert-adv-y="1000"/><glyph glyph-name="uni0107" unicode="ć" d="M29 269q20 99 36 144t42 76q47 57 140 57t126-63q17-33 17-78 0-18-2-32H261q2 12 2 24 0 18-9 27-8 8-21 8-24 0-37-21-15-23-39-142-21-101-21-128 0-18 9-27 8-8 22-8 18 0 29 11 14 14 23 48h128q-18-73-53-116Q247-8 153-8 60-8 27 55q-17 33-17 80 0 36 19 134m182 317l100 143h108L301 586h-90z" horiz-adv-x="389" vert-adv-y="1000"/><glyph glyph-name="uni0108" unicode="Ĉ" d="M23 164q0 63 27 192 31 152 52.5 212.5T159 664q56 56 148 56 90 0 132-52 34-42 34-110 0-28-2-45H337q2 15 2 37 0 50-43 50-25 0-44-19-17-17-31-64t-37-161q-27-135-27-190 0-54 43-54 32 0 51 27 16 23 25 61h136Q389 90 330 38 278-8 188-8 85-8 46 61q-23 41-23 103m377 736l72-145h-86l-43 78-71-78h-96l130 145h94z" horiz-adv-x="450" vert-adv-y="1000"/><glyph glyph-name="uni0109" unicode="ĉ" d="M29 269q20 99 36 144t42 76q47 57 140 57t126-63q17-33 17-78 0-18-2-32H261q2 12 2 24 0 18-9 27-8 8-21 8-24 0-37-21-15-23-39-142-21-101-21-128 0-18 9-27 8-8 22-8 18 0 29 11 14 14 23 48h128q-18-73-53-116Q247-8 153-8 60-8 27 55q-17 33-17 80 0 36 19 134m311 462l72-145h-86l-43 78-71-78h-96l130 145h94z" horiz-adv-x="389" vert-adv-y="1000"/><glyph glyph-name="uni010A" unicode="Ċ" d="M23 164q0 63 27 192 31 152 52.5 212.5T159 664q56 56 148 56 90 0 132-52 34-42 34-110 0-28-2-45H337q2 15 2 37 0 50-43 50-25 0-44-19-17-17-31-64t-37-161q-27-135-27-190 0-54 43-54 32 0 51 27 16 23 25 61h136Q389 90 330 38 278-8 188-8 85-8 46 61q-23 41-23 103m246 595l24 120h114l-24-120H269z" horiz-adv-x="450" vert-adv-y="1000"/><glyph glyph-name="uni010B" unicode="ċ" d="M29 269q20 99 36 144t42 76q47 57 140 57t126-63q17-33 17-78 0-18-2-32H261q2 12 2 24 0 18-9 27-8 8-21 8-24 0-37-21-15-23-39-142-21-101-21-128 0-18 9-27 8-8 22-8 18 0 29 11 14 14 23 48h128q-18-73-53-116Q247-8 153-8 60-8 27 55q-17 33-17 80 0 36 19 134m176 321l24 120h114l-24-120H205z" horiz-adv-x="389" vert-adv-y="1000"/><glyph glyph-name="uni010C" unicode="Č" d="M23 164q0 63 27 192 31 152 52.5 212.5T159 664q56 56 148 56 90 0 132-52 34-42 34-110 0-28-2-45H337q2 15 2 37 0 50-43 50-25 0-44-19-17-17-31-64t-37-161q-27-135-27-190 0-54 43-54 32 0 51 27 16 23 25 61h136Q389 90 330 38 278-8 188-8 85-8 46 61q-23 41-23 103m252 591l-72 145h86l43-78 71 78h96L369 755h-94z" horiz-adv-x="450" vert-adv-y="1000"/><glyph glyph-name="uni010D" unicode="č" d="M29 269q20 99 36 144t42 76q47 57 140 57t126-63q17-33 17-78 0-18-2-32H261q2 12 2 24 0 18-9 27-8 8-21 8-24 0-37-21-15-23-39-142-21-101-21-128 0-18 9-27 8-8 22-8 18 0 29 11 14 14 23 48h128q-18-73-53-116Q247-8 153-8 60-8 27 55q-17 33-17 80 0 36 19 134m184 317l-72 145h86l43-78 71 78h96L307 586h-94z" horiz-adv-x="389" vert-adv-y="1000"/><glyph glyph-name="uni010E" unicode="Ď" d="M157 120h49q39 0 61 31 22 33 57 206 28 138 28 182 0 25-13 39-12 14-35 14h-53l-94-472M-1 0l142 712h184q53 0 84-17t53-53q24-38 24-103 0-36-28-182-28-140-48-201t-54-95Q295 0 195 0H-1m274 755l-72 145h86l43-78 71 78h96L367 755h-94z" horiz-adv-x="474" vert-adv-y="1000"/><glyph glyph-name="uni010F" unicode="ď" d="M5 107q0 47 23 162 24 118 40 165t38 69q43 43 105 43 29 0 49-14 16-12 27-26l41 206h128L314 0H192l7 39q-19-23-40-34-24-13-51-13-63 0-87 44Q5 67 5 107m151 162q-19-95-19-125 0-21 9-30 8-8 22-8 18 0 30 12 14 14 20 43l43 216q3 15 3 23 0 16-9 25-7 7-22 7-18 0-32-14-19-19-45-149m311 318l58 166h89l-71-166h-76z" horiz-adv-x="411" vert-adv-y="1000"/><glyph glyph-name="uni0110" unicode="Đ" d="M43 0l61 306H57l21 105h47l60 301h184q53 0 84-17t53-53q24-38 24-103 0-36-28-182-28-140-48-201t-54-95Q339 0 239 0H43m158 120h49q39 0 61 31 22 33 57 206 28 138 28 182 0 25-13 39-12 14-35 14h-53l-36-181h57l-21-105h-57l-37-186z" horiz-adv-x="517" vert-adv-y="1000"/><glyph glyph-name="uni0111" unicode="đ" d="M222 579l16 78h79l11 55h128l-11-55h42l-16-78h-42L314 0H192l7 39q-19-23-40-34-24-13-51-13-63 0-87 44Q5 67 5 107q0 47 23 162 24 118 40 165t38 69q43 43 105 43 29 0 49-14 16-12 27-26l14 73h-79m-66-310q-19-95-19-125 0-21 9-30 8-8 22-8 18 0 30 12 14 14 20 43l43 216q3 15 3 23 0 16-9 25-7 7-22 7-18 0-32-14-19-19-45-149z" horiz-adv-x="426" vert-adv-y="1000"/><glyph glyph-name="uni0112" unicode="Ē" d="M-1 0l142 712h312l-24-120H251l-35-173h153l-24-120H192l-35-179h178L311 0H-1m183 769l16 81h252l-16-81H182z" horiz-adv-x="394" vert-adv-y="1000"/><glyph glyph-name="uni0113" unicode="ē" d="M27 55q-17 33-17 80 0 36 19 134 20 99 36 144t42 76q47 57 143 57 80 0 115-50 23-33 23-90 0-54-25-179H148q-12-65-12-86 0-18 9-27 8-8 22-8 18 0 29 11 14 14 23 48h128q-18-73-53-116Q247-8 153-8 60-8 27 55m141 267h86q10 47 10 74 0 36-31 36-24 0-37-21-12-19-28-89m-37 278l16 81h252l-16-81H131z" horiz-adv-x="399" vert-adv-y="1000"/><glyph glyph-name="uni0114" unicode="Ĕ" d="M-1 0l142 712h312l-24-120H251l-35-173h153l-24-120H192l-35-179h178L311 0H-1m458 878q-12-66-47-94.5T314 755q-52 0-83 26t-31 68q0 13 3 29h80v-6q0-34 40-34 44 0 54 40h80z" horiz-adv-x="394" vert-adv-y="1000"/><glyph glyph-name="uni0115" unicode="ĕ" d="M27 55q-17 33-17 80 0 36 19 134 20 99 36 144t42 76q47 57 143 57 80 0 115-50 23-33 23-90 0-54-25-179H148q-12-65-12-86 0-18 9-27 8-8 22-8 18 0 29 11 14 14 23 48h128q-18-73-53-116Q247-8 153-8 60-8 27 55m141 267h86q10 47 10 74 0 36-31 36-24 0-37-21-12-19-28-89m244 387q-12-66-47-94.5T269 586q-52 0-83 26t-31 68q0 12 3 29h80v-6q0-34 40-34 44 0 54 40h80z" horiz-adv-x="399" vert-adv-y="1000"/><glyph glyph-name="uni0116" unicode="Ė" d="M-1 0l142 712h312l-24-120H251l-35-173h153l-24-120H192l-35-179h178L311 0H-1m251 759l24 120h114l-24-120H250z" horiz-adv-x="394" vert-adv-y="1000"/><glyph glyph-name="uni0117" unicode="ė" d="M27 55q-17 33-17 80 0 36 19 134 20 99 36 144t42 76q47 57 143 57 80 0 115-50 23-33 23-90 0-54-25-179H148q-12-65-12-86 0-18 9-27 8-8 22-8 18 0 29 11 14 14 23 48h128q-18-73-53-116Q247-8 153-8 60-8 27 55m141 267h86q10 47 10 74 0 36-31 36-24 0-37-21-12-19-28-89m37 268l24 120h114l-24-120H205z" horiz-adv-x="399" vert-adv-y="1000"/><glyph glyph-name="uni0118" unicode="Ę" d="M-1 0l142 712h312l-24-120H251l-35-173h153l-24-120H192l-35-179h178L311 0H-1m124-203l98 163h82l-84-163h-96z" horiz-adv-x="394" vert-adv-y="1000"/><glyph glyph-name="uni0119" unicode="ę" d="M27 55q-17 33-17 80 0 36 19 134 20 99 36 144t42 76q47 57 143 57 80 0 115-50 23-33 23-90 0-54-25-179H148q-12-65-12-86 0-18 9-27 8-8 22-8 18 0 29 11 14 14 23 48h128q-18-73-53-116Q247-8 153-8 60-8 27 55m141 267h86q10 47 10 74 0 36-31 36-24 0-37-21-12-19-28-89M54-203l98 163h82l-84-163H54z" horiz-adv-x="399" vert-adv-y="1000"/><glyph glyph-name="uni011A" unicode="Ě" d="M-1 0l142 712h312l-24-120H251l-35-173h153l-24-120H192l-35-179h178L311 0H-1m259 755l-72 145h86l43-78 71 78h96L352 755h-94z" horiz-adv-x="394" vert-adv-y="1000"/><glyph glyph-name="uni011B" unicode="ě" d="M27 55q-17 33-17 80 0 36 19 134 20 99 36 144t42 76q47 57 143 57 80 0 115-50 23-33 23-90 0-54-25-179H148q-12-65-12-86 0-18 9-27 8-8 22-8 18 0 29 11 14 14 23 48h128q-18-73-53-116Q247-8 153-8 60-8 27 55m141 267h86q10 47 10 74 0 36-31 36-24 0-37-21-12-19-28-89m45 264l-72 145h86l43-78 71 78h96L307 586h-94z" horiz-adv-x="399" vert-adv-y="1000"/><glyph glyph-name="uni011C" unicode="Ĝ" d="M446 392l-36-181Q387 97 334 44.5T185-8Q85-8 46 61q-23 41-23 103 0 63 27 192 31 152 52.5 212.5T159 664q56 56 148 56 90 0 132-52 34-42 34-110 0-28-2-45H337q2 15 2 37 0 50-43 50-25 0-44-19-17-17-31-64t-37-161q-27-135-27-190 0-54 43-54 56 0 74 88l17 85h-56l21 107h190m-46 508l72-145h-86l-43 78-71-78h-96l130 145h94z" horiz-adv-x="456" vert-adv-y="1000"/><glyph glyph-name="uni011D" unicode="ĝ" d="M421 538L311-12q-18-91-65-131-47-39-127-39-68 0-107 36t-39 96q0 14 3 33h127q-1-7-1-18 0-33 32-33 18 0 31 13 12 12 17 37l17 85q-16-18-33-26-26-13-52-13-62 0-86 44-16 31-16 71 0 44 20 144 22 110 37 151.5t37 64.5q43 43 104 43 30 0 50-14 19-13 31-34l8 40h122M160 287q-16-80-16-107 0-19 10-29 9-9 25-9t28 12q12 12 18 43l36 180q3 15 3 23 0 15-9 24-8 8-22 8-18 0-32-14-19-18-41-131m176 444l72-145h-86l-43 78-71-78h-96l130 145h94z" horiz-adv-x="411" vert-adv-y="1000"/><glyph glyph-name="uni011E" unicode="Ğ" d="M446 392l-36-181Q387 97 334 44.5T185-8Q85-8 46 61q-23 41-23 103 0 63 27 192 31 152 52.5 212.5T159 664q56 56 148 56 90 0 132-52 34-42 34-110 0-28-2-45H337q2 15 2 37 0 50-43 50-25 0-44-19-17-17-31-64t-37-161q-27-135-27-190 0-54 43-54 56 0 74 88l17 85h-56l21 107h190m30 486q-12-66-47-94.5T333 755q-52 0-83 26t-31 68q0 13 3 29h80v-6q0-34 40-34 44 0 54 40h80z" horiz-adv-x="456" vert-adv-y="1000"/><glyph glyph-name="uni011F" unicode="ğ" d="M421 538L311-12q-18-91-65-131-47-39-127-39-68 0-107 36t-39 96q0 14 3 33h127q-1-7-1-18 0-33 32-33 18 0 31 13 12 12 17 37l17 85q-16-18-33-26-26-13-52-13-62 0-86 44-16 31-16 71 0 44 20 144 22 110 37 151.5t37 64.5q43 43 104 43 30 0 50-14 19-13 31-34l8 40h122M160 287q-16-80-16-107 0-19 10-29 9-9 25-9t28 12q12 12 18 43l36 180q3 15 3 23 0 15-9 24-8 8-22 8-18 0-32-14-19-18-41-131m252 422q-12-66-47-94.5T269 586q-52 0-83 26t-31 68q0 12 3 29h80v-6q0-34 40-34 44 0 54 40h80z" horiz-adv-x="411" vert-adv-y="1000"/><glyph glyph-name="uni0120" unicode="Ġ" d="M446 392l-36-181Q387 97 334 44.5T185-8Q85-8 46 61q-23 41-23 103 0 63 27 192 31 152 52.5 212.5T159 664q56 56 148 56 90 0 132-52 34-42 34-110 0-28-2-45H337q2 15 2 37 0 50-43 50-25 0-44-19-17-17-31-64t-37-161q-27-135-27-190 0-54 43-54 56 0 74 88l17 85h-56l21 107h190M269 759l24 120h114l-24-120H269z" horiz-adv-x="456" vert-adv-y="1000"/><glyph glyph-name="uni0121" unicode="ġ" d="M421 538L311-12q-18-91-65-131-47-39-127-39-68 0-107 36t-39 96q0 14 3 33h127q-1-7-1-18 0-33 32-33 18 0 31 13 12 12 17 37l17 85q-16-18-33-26-26-13-52-13-62 0-86 44-16 31-16 71 0 44 20 144 22 110 37 151.5t37 64.5q43 43 104 43 30 0 50-14 19-13 31-34l8 40h122M160 287q-16-80-16-107 0-19 10-29 9-9 25-9t28 12q12 12 18 43l36 180q3 15 3 23 0 15-9 24-8 8-22 8-18 0-32-14-19-18-41-131m45 303l24 120h114l-24-120H205z" horiz-adv-x="411" vert-adv-y="1000"/><glyph glyph-name="uni0122" unicode="Ģ" d="M446 392l-36-181Q387 97 334 44.5T185-8Q85-8 46 61q-23 41-23 103 0 63 27 192 31 152 52.5 212.5T159 664q56 56 148 56 90 0 132-52 34-42 34-110 0-28-2-45H337q2 15 2 37 0 50-43 50-25 0-44-19-17-17-31-64t-37-161q-27-135-27-190 0-54 43-54 56 0 74 88l17 85h-56l21 107h190M41-203l98 163h82l-84-163H41z" horiz-adv-x="456" vert-adv-y="1000"/><glyph glyph-name="uni0123" unicode="ģ" d="M421 538L311-12q-18-91-65-131-47-39-127-39-68 0-107 36t-39 96q0 14 3 33h127q-1-7-1-18 0-33 32-33 18 0 31 13 12 12 17 37l17 85q-16-18-33-26-26-13-52-13-62 0-86 44-16 31-16 71 0 44 20 144 22 110 37 151.5t37 64.5q43 43 104 43 30 0 50-14 19-13 31-34l8 40h122M160 287q-16-80-16-107 0-19 10-29 9-9 25-9t28 12q12 12 18 43l36 180q3 15 3 23 0 15-9 24-8 8-22 8-18 0-32-14-19-18-41-131m248 462l-98-163h-82l84 163h96z" horiz-adv-x="411" vert-adv-y="1000"/><glyph glyph-name="uni0124" unicode="Ĥ" d="M-1 0l142 712h134l-58-290h114l58 290h134L381 0H247l60 302H193L133 0H-1m413 900l72-145h-86l-43 78-71-78h-96l130 145h94z" horiz-adv-x="486" vert-adv-y="1000"/><glyph glyph-name="uni0125" unicode="ĥ" d="M-9 0l142 712h128l-41-205q23 21 35 27 24 12 51 12 62 0 89-45 15-26 15-66 0-15-9-61L327 0H199l74 373q4 20 4 27 0 15-9 23.5t-23 8.5q-40 0-52-59L119 0H-9m281 905l72-145h-86l-43 78-71-78H48l130 145h94z" horiz-adv-x="422" vert-adv-y="1000"/><glyph glyph-name="uni0126" unicode="Ħ" d="M101 519l20 104h47l18 89h134l-18-89h114l18 89h134l-18-89h47l-20-104h-48L426 0H292l60 302H238L178 0H44l103 519h-46m161-97h114l19 97H281l-19-97z" horiz-adv-x="576" vert-adv-y="1000"/><glyph glyph-name="uni0127" unicode="ħ" d="M80 579l15 78h41l11 55h128l-11-55h80l-15-78h-81l-14-72q23 21 35 27 24 12 51 12 62 0 89-45 15-26 15-66 0-15-9-61L341 0H213l74 373q4 20 4 27 0 15-9 23.5t-23 8.5q-40 0-52-59L133 0H5l115 579H80z" horiz-adv-x="436" vert-adv-y="1000"/><glyph glyph-name="uni0128" unicode="Ĩ" d="M-1 0l142 712h134L133 0H-1m122 773l-44 59q50 45 97 45 33 0 62-17 25-14 47-14 25 0 52 24l44-59q-50-45-97-45-33 0-62 17-25 14-47 14-25 0-52-24z" horiz-adv-x="238" vert-adv-y="1000"/><glyph glyph-name="uni0129" unicode="ĩ" d="M-9 0L94 517h128L119 0H-9m87 604l-44 59q50 45 97 45 33 0 62-17 25-14 47-14 25 0 52 24l44-59q-50-45-97-45-33 0-62 17-25 14-47 14-25 0-52-24z" horiz-adv-x="216" vert-adv-y="1000"/><glyph glyph-name="uni012A" unicode="Ī" d="M-1 0l142 712h134L133 0H-1m92 769l16 81h252l-16-81H91z" horiz-adv-x="238" vert-adv-y="1000"/><glyph glyph-name="uni012B" unicode="ī" d="M-9 0L94 517h128L119 0H-9m51 600l16 81h252l-16-81H42z" horiz-adv-x="216" vert-adv-y="1000"/><glyph glyph-name="uni012C" unicode="Ĭ" d="M-1 0l142 712h134L133 0H-1m367 878q-12-66-47-94.5T223 755q-52 0-83 26t-31 68q0 13 3 29h80v-6q0-34 40-34 44 0 54 40h80z" horiz-adv-x="238" vert-adv-y="1000"/><glyph glyph-name="uni012D" unicode="ĭ" d="M-9 0L94 517h128L119 0H-9m332 709q-12-66-47-94.5T180 586q-52 0-83 26t-31 68q0 12 3 29h80v-6q0-34 40-34 44 0 54 40h80z" horiz-adv-x="216" vert-adv-y="1000"/><glyph glyph-name="uni012E" unicode="Į" d="M-1 0l142 712h134L133 0H-1m-67-203L30-40h82L28-203h-96z" horiz-adv-x="238" vert-adv-y="1000"/><glyph glyph-name="uni012F" unicode="į" d="M-9 0L94 517h128L119 0H-9m115 578l27 134h128l-27-134H106M-78-203L20-40h82L18-203h-96z" horiz-adv-x="216" vert-adv-y="1000"/><glyph glyph-name="uni0130" unicode="İ" d="M-1 0l142 712h134L133 0H-1m160 759l24 120h114l-24-120H159z" horiz-adv-x="238" vert-adv-y="1000"/><glyph glyph-name="uni0131" unicode="ı" d="M-9 0L94 517h128L119 0H-9z" horiz-adv-x="216" vert-adv-y="1000"/><glyph glyph-name="uni0132" unicode="Ĳ" d="M-1 0l142 712h134L133 0H-1m210 66l102 75q21-29 52-29 63 0 82 93l101 507h134L579 205Q557 96 508 48 449-8 360-8 253-8 209 66z" horiz-adv-x="639" vert-adv-y="1000"/><glyph glyph-name="uni0133" unicode="ĳ" d="M-9 0L94 517h128L119 0H-9m115 578l27 134h128l-27-134H106M208 10l102 507h128L334 0q-21-103-82-144-28-19-57.5-24.5T108-174l23 114q35 0 52.5 17.5T208 10m114 568l27 134h128l-27-134H322z" horiz-adv-x="432" vert-adv-y="1000"/><glyph glyph-name="uni0134" unicode="Ĵ" d="M-31 66l102 75q21-29 52-29 63 0 82 93l101 507h134L339 205Q317 96 268 48 209-8 120-8 13-8-31 66m482 834l72-145h-86l-43 78-71-78h-96l130 145h94z" horiz-adv-x="399" vert-adv-y="1000"/><glyph glyph-name="uni0135" unicode="ĵ" d="M-8 10L94 517h128L118 0Q97-103 36-144q-28-19-57.5-24.5T-108-174l23 114q35 0 52.5 17.5T-8 10m255 721l72-145h-86l-43 78-71-78H23l130 145h94z" horiz-adv-x="216" vert-adv-y="1000"/><glyph glyph-name="uni0136" unicode="Ķ" d="M-1 0l142 712h134l-56-281 175 281h145L345 416 419 0H284l-46 271-73-107L133 0H-1m54-203l98 163h82l-84-163H53z" horiz-adv-x="477" vert-adv-y="1000"/><glyph glyph-name="uni0137" unicode="ķ" d="M-9 0l142 712h128l-73-367 145 193h142L298 312 365 0H238l-44 202-47-60L119 0H-9m32-203l98 163h82l-84-163H23z" horiz-adv-x="427" vert-adv-y="1000"/><glyph glyph-name="uni0138" unicode="ĸ" d="M-9 0L98 538h128l-38-193 145 193h142L298 312 365 0H238l-44 202-47-60L119 0H-9z" horiz-adv-x="427" vert-adv-y="1000"/><glyph glyph-name="uni0139" unicode="Ĺ" d="M-1 0l142 712h134L157 120h178L311 0H-1m166 755l100 143h108L255 755h-90z" horiz-adv-x="386" vert-adv-y="1000"/><glyph glyph-name="uni013A" unicode="ĺ" d="M56 35q-37 34-37 93 0 25 5 50l107 534h128L154 187q-3-15-3-30 0-43 50-43L179 0Q96 0 56 35m97 725l100 143h108L243 760h-90z" horiz-adv-x="249" vert-adv-y="1000"/><glyph glyph-name="uni013B" unicode="Ļ" d="M-1 0l142 712h134L157 120h178L311 0H-1m23-203l98 163h82l-84-163H22z" horiz-adv-x="386" vert-adv-y="1000"/><glyph glyph-name="uni013C" unicode="ļ" d="M56 35q-37 34-37 93 0 25 5 50l107 534h128L154 187q-3-15-3-30 0-43 50-43L179 0Q96 0 56 35m-97-238L57-40h82L55-203h-96z" horiz-adv-x="249" vert-adv-y="1000"/><glyph glyph-name="uni013D" unicode="Ľ" d="M-1 0l142 712h134L157 120h178L311 0H-1m296 546l58 166h89l-71-166h-76z" horiz-adv-x="386" vert-adv-y="1000"/><glyph glyph-name="uni013E" unicode="ľ" d="M56 35q-37 34-37 93 0 25 5 50l107 534h128L154 187q-3-15-3-30 0-43 50-43L179 0Q96 0 56 35m213 552l58 166h89l-71-166h-76z" horiz-adv-x="249" vert-adv-y="1000"/><glyph glyph-name="uni013F" unicode="Ŀ" d="M-1 0l142 712h134L157 120h178L311 0H-1m263 299l24 120h114l-24-120H262z" horiz-adv-x="390" vert-adv-y="1000"/><glyph glyph-name="uni0140" unicode="ŀ" d="M56 35q-37 34-37 93 0 25 5 50l107 534h128L154 187q-3-15-3-30 0-43 50-43L179 0Q96 0 56 35m162 203l24 120h114l-24-120H218z" horiz-adv-x="353" vert-adv-y="1000"/><glyph glyph-name="uni0141" unicode="Ł" d="M16 0l48 239-48-34 23 119 48 34 71 354h134l-49-245 105 74-24-119-105-74-45-228h178L328 0H16z" horiz-adv-x="404" vert-adv-y="1000"/><glyph glyph-name="uni0142" unicode="ł" d="M21 254l22 110 52 36 63 312h128l-42-207 52 36-22-110-52-36-41-208q-3-15-3-30 0-43 50-43L206 0Q123 0 83 35q-37 34-37 93 0 25 5 50l22 113-52-37z" horiz-adv-x="278" vert-adv-y="1000"/><glyph glyph-name="uni0143" unicode="Ń" d="M-1 0l142 712h109l72-361 67 361h134L381 0H277l-73 360L133 0H-1m295 755l100 143h108L384 755h-90z" horiz-adv-x="486" vert-adv-y="1000"/><glyph glyph-name="uni0144" unicode="ń" d="M-9 0L98 538h122l-8-38q24 24 43 34 24 12 51 12 62 0 89-45 15-26 15-66 0-15-9-61L327 0H199l74 373q4 20 4 27 0 15-9 23.5t-23 8.5q-40 0-52-59L119 0H-9m230 586l100 143h108L311 586h-90z" horiz-adv-x="422" vert-adv-y="1000"/><glyph glyph-name="uni0145" unicode="Ņ" d="M-1 0l142 712h109l72-361 67 361h134L381 0H277l-73 360L133 0H-1m54-203l98 163h82l-84-163H53z" horiz-adv-x="486" vert-adv-y="1000"/><glyph glyph-name="uni0146" unicode="ņ" d="M-9 0L98 538h122l-8-38q24 24 43 34 24 12 51 12 62 0 89-45 15-26 15-66 0-15-9-61L327 0H199l74 373q4 20 4 27 0 15-9 23.5t-23 8.5q-40 0-52-59L119 0H-9m23-203l98 163h82l-84-163H14z" horiz-adv-x="422" vert-adv-y="1000"/><glyph glyph-name="uni0147" unicode="Ň" d="M-1 0l142 712h109l72-361 67 361h134L381 0H277l-73 360L133 0H-1m297 755l-72 145h86l43-78 71 78h96L390 755h-94z" horiz-adv-x="486" vert-adv-y="1000"/><glyph glyph-name="uni0148" unicode="ň" d="M-9 0L98 538h122l-8-38q24 24 43 34 24 12 51 12 62 0 89-45 15-26 15-66 0-15-9-61L327 0H199l74 373q4 20 4 27 0 15-9 23.5t-23 8.5q-40 0-52-59L119 0H-9m232 586l-72 145h86l43-78 71 78h96L317 586h-94z" horiz-adv-x="422" vert-adv-y="1000"/><glyph glyph-name="uni0149" unicode="ŉ" d="M52 0l107 538h122l-8-38q24 24 43 34 24 12 51 12 62 0 89-45 15-26 15-66 0-15-9-61L388 0H260l74 373q4 20 4 27 0 15-9 23.5t-23 8.5q-40 0-52-59L180 0H52m8 537l43 216h91l-30-152-104-64z" horiz-adv-x="483" vert-adv-y="1000"/><glyph glyph-name="uni014A" unicode="Ŋ" d="M-1 0l142 712h109l72-361 67 361h134L375-34q-20-98-79-140-47-33-127-33l23 120q26 0 40 12t20 42l15 79-63 314L133 0H-1z" horiz-adv-x="486" vert-adv-y="1000"/><glyph glyph-name="uni014B" unicode="ŋ" d="M-9 0L98 538h122l-8-38q24 24 43 34 24 12 51 12 62 0 89-45 15-26 15-66 0-15-9-61L320-34q-19-95-87-140-52-33-139-33l23 114q34 0 52 15t25 53l79 398q4 20 4 27 0 15-9 23.5t-23 8.5q-40 0-52-59L119 0H-9z" horiz-adv-x="422" vert-adv-y="1000"/><glyph glyph-name="uni014C" unicode="Ō" d="M50 356q31 152 52.5 212.5T159 664q56 56 149 56 103 0 142-69 23-41 23-103 0-63-27-192-31-152-52.5-212.5T337 48Q281-8 188-8 85-8 46 61q-23 41-23 103 0 63 27 192m134 0q-27-135-27-190 0-54 44-54 24 0 43 19 17 17 31 64t37 161q27 135 27 190 0 54-44 54-24 0-43-19-17-17-31-64t-37-161m17 413l16 81h252l-16-81H201z" horiz-adv-x="460" vert-adv-y="1000"/><glyph glyph-name="uni014D" unicode="ō" d="M157 269q-21-101-21-128 0-18 9-27 8-8 22-8 24 0 37 21 15 23 39 142 21 101 21 128 0 18-9 27-8 8-22 8-24 0-37-21-15-23-39-142m-128 0q20 99 36 144t42 76q47 57 140 57t126-63q17-33 17-80 0-36-19-134-20-99-36-144t-42-76Q245-8 153-8 60-8 27 55q-17 33-17 80 0 36 19 134m102 331l16 81h252l-16-81H131z" horiz-adv-x="400" vert-adv-y="1000"/><glyph glyph-name="uni014E" unicode="Ŏ" d="M50 356q31 152 52.5 212.5T159 664q56 56 149 56 103 0 142-69 23-41 23-103 0-63-27-192-31-152-52.5-212.5T337 48Q281-8 188-8 85-8 46 61q-23 41-23 103 0 63 27 192m134 0q-27-135-27-190 0-54 44-54 24 0 43 19 17 17 31 64t37 161q27 135 27 190 0 54-44 54-24 0-43-19-17-17-31-64t-37-161m34 519h83v-5q0-33 40-33 45 0 55 38h84q-12-61-46.5-90T333 756q-54 0-86 24.5T215 847q0 13 3 28z" horiz-adv-x="460" vert-adv-y="1000"/><glyph glyph-name="uni014F" unicode="ŏ" d="M157 269q-21-101-21-128 0-18 9-27 8-8 22-8 24 0 37 21 15 23 39 142 21 101 21 128 0 18-9 27-8 8-22 8-24 0-37-21-15-23-39-142m-128 0q20 99 36 144t42 76q47 57 140 57t126-63q17-33 17-80 0-36-19-134-20-99-36-144t-42-76Q245-8 153-8 60-8 27 55q-17 33-17 80 0 36 19 134m383 440q-12-66-47-94.5T269 586q-52 0-83 26t-31 68q0 12 3 29h80v-6q0-34 40-34 44 0 54 40h80z" horiz-adv-x="400" vert-adv-y="1000"/><glyph glyph-name="uni0150" unicode="Ő" d="M50 356q31 152 52.5 212.5T159 664q56 56 149 56 103 0 142-69 23-41 23-103 0-63-27-192-31-152-52.5-212.5T337 48Q281-8 188-8 85-8 46 61q-23 41-23 103 0 63 27 192m134 0q-27-135-27-190 0-54 44-54 24 0 43 19 17 17 31 64t37 161q27 135 27 190 0 54-44 54-24 0-43-19-17-17-31-64t-37-161m22 399l67 146h99l-82-146h-84m153 0l67 146h99l-82-146h-84z" horiz-adv-x="460" vert-adv-y="1000"/><glyph glyph-name="uni0151" unicode="ő" d="M157 269q-21-101-21-128 0-18 9-27 8-8 22-8 24 0 37 21 15 23 39 142 21 101 21 128 0 18-9 27-8 8-22 8-24 0-37-21-15-23-39-142m-128 0q20 99 36 144t42 76q47 57 140 57t126-63q17-33 17-80 0-36-19-134-20-99-36-144t-42-76Q245-8 153-8 60-8 27 55q-17 33-17 80 0 36 19 134m113 317l67 146h99l-82-146h-84m153 0l67 146h99l-82-146h-84z" horiz-adv-x="400" vert-adv-y="1000"/><glyph glyph-name="uni0152" unicode="Œ" d="M182-8Q85-7 47 61q-23 41-23 103 0 63 27 192 31 152 52.5 212.5T160 664q56 56 147 56 42 0 70-28l4 20h315l-24-120H494l-35-173h153l-24-120H435l-35-179h178L554 0H254l4 20Q223-8 182-8m3 364q-27-135-27-190 0-54 44-54 24 0 43 19 17 17 31 64t37 161q27 135 27 190 0 54-44 54-24 0-43-19-17-17-31-64t-37-161z" horiz-adv-x="637" vert-adv-y="1000"/><glyph glyph-name="uni0153" unicode="œ" d="M29 269q20 99 36 144t42 76q47 57 140 57 63 0 100-31 42 31 116 31 80 0 115-50 23-33 23-90 0-54-25-179H361q-12-65-12-86 0-18 9-27 8-8 22-8 18 0 29 11 14 14 23 48h128q-18-73-53-116Q460-8 366-8q-66 0-101 31Q223-8 153-8 60-8 27 55q-17 33-17 80 0 36 19 134m128 0q-21-101-21-128 0-18 9-27 8-8 22-8 24 0 37 21 15 23 39 142 21 101 21 128 0 18-9 27-8 8-22 8-24 0-37-21-15-23-39-142m224 53h86q10 47 10 74 0 36-31 36-24 0-37-21-12-19-28-89z" horiz-adv-x="612" vert-adv-y="1000"/><glyph glyph-name="uni0154" unicode="Ŕ" d="M-1 0l142 712h189q80 0 118.5-36.5T487 578q0-36-9-83-18-88-43-126t-72-63L401 0H267l-30 281h-48L133 0H-1m213 397h58q34 0 49.5 26.5T344 495q6 34 6 49 0 24-10 36t-36 12h-53l-39-195m65 358l100 143h108L367 755h-90z" horiz-adv-x="478" vert-adv-y="1000"/><glyph glyph-name="uni0155" unicode="ŕ" d="M-9 0L98 538h122l-11-58q22 29 56 47 37 19 89 19l-25-126h-47q-33 0-61-25t-37-67L119 0H-9m173 586l100 143h108L254 586h-90z" horiz-adv-x="315" vert-adv-y="1000"/><glyph glyph-name="uni0156" unicode="Ŗ" d="M-1 0l142 712h189q80 0 118.5-36.5T487 578q0-36-9-83-18-88-43-126t-72-63L401 0H267l-30 281h-48L133 0H-1m213 397h58q34 0 49.5 26.5T344 495q6 34 6 49 0 24-10 36t-36 12h-53l-39-195M53-203l98 163h82l-84-163H53z" horiz-adv-x="478" vert-adv-y="1000"/><glyph glyph-name="uni0157" unicode="ŗ" d="M-9 0L98 538h122l-11-58q22 29 56 47 37 19 89 19l-25-126h-47q-33 0-61-25t-37-67L119 0H-9m-69-203L20-40h82L18-203h-96z" horiz-adv-x="315" vert-adv-y="1000"/><glyph glyph-name="uni0158" unicode="Ř" d="M-1 0l142 712h189q80 0 118.5-36.5T487 578q0-36-9-83-18-88-43-126t-72-63L401 0H267l-30 281h-48L133 0H-1m213 397h58q34 0 49.5 26.5T344 495q6 34 6 49 0 24-10 36t-36 12h-53l-39-195m67 358l-72 145h86l43-78 71 78h96L373 755h-94z" horiz-adv-x="478" vert-adv-y="1000"/><glyph glyph-name="uni0159" unicode="ř" d="M-9 0L98 538h122l-11-58q22 29 56 47 37 19 89 19l-25-126h-47q-33 0-61-25t-37-67L119 0H-9m175 586L94 731h86l43-78 71 78h96L260 586h-94z" horiz-adv-x="315" vert-adv-y="1000"/><glyph glyph-name="uni015A" unicode="Ś" d="M18 203h134q-4-23-4-41 0-25 11-36 14-14 35-14 29 0 46 17 18 18 27 62 5 25 5 53 0 37-47 58l-69 33q-77 36-77 116 0 40 9 85 18 89 60 131 53 53 142 53 88 0 133-45 32-32 32-92 0-38-6-72H315q5 25 5 44 0 25-10 35-11 11-29 11-23 0-38-15t-22-50q-5-25-5-44 0-34 36-50l57-27q56-26 78.5-55t22.5-75q0-50-9-95-12-59-26-90.5T338 45Q285-8 182-8 92-8 47 37q-36 36-36 94 0 31 7 72m245 552l100 143h108L353 755h-90z" horiz-adv-x="444" vert-adv-y="1000"/><glyph glyph-name="uni015B" unicode="ś" d="M29 36Q-3 68-3 124q0 17 4 37h126q-1-6-1-16 0-17 9-27 10-12 31-12 23 0 35 16t12 38q0 34-42 54l-49 23q-75 35-75 119 0 92 61 148 45 42 126 42 83 0 120-47 27-33 27-80 0-17-4-37H255q1 7 1 16 0 15-10 25-9 9-27 9t-30-12q-14-14-14-39 0-29 35-45l48-22q84-39 84-132 0-45-17.5-84T281 36Q231-8 152-8 72-8 29 36m177 550l100 143h108L296 586h-90z" horiz-adv-x="386" vert-adv-y="1000"/><glyph glyph-name="uni015C" unicode="Ŝ" d="M18 203h134q-4-23-4-41 0-25 11-36 14-14 35-14 29 0 46 17 18 18 27 62 5 25 5 53 0 37-47 58l-69 33q-77 36-77 116 0 40 9 85 18 89 60 131 53 53 142 53 88 0 133-45 32-32 32-92 0-38-6-72H315q5 25 5 44 0 25-10 35-11 11-29 11-23 0-38-15t-22-50q-5-25-5-44 0-34 36-50l57-27q56-26 78.5-55t22.5-75q0-50-9-95-12-59-26-90.5T338 45Q285-8 182-8 92-8 47 37q-36 36-36 94 0 31 7 72m370 697l72-145h-86l-43 78-71-78h-96l130 145h94z" horiz-adv-x="444" vert-adv-y="1000"/><glyph glyph-name="uni015D" unicode="ŝ" d="M29 36Q-3 68-3 124q0 17 4 37h126q-1-6-1-16 0-17 9-27 10-12 31-12 23 0 35 16t12 38q0 34-42 54l-49 23q-75 35-75 119 0 92 61 148 45 42 126 42 83 0 120-47 27-33 27-80 0-17-4-37H255q1 7 1 16 0 15-10 25-9 9-27 9t-30-12q-14-14-14-39 0-29 35-45l48-22q84-39 84-132 0-45-17.5-84T281 36Q231-8 152-8 72-8 29 36m302 695l72-145h-86l-43 78-71-78h-96l130 145h94z" horiz-adv-x="386" vert-adv-y="1000"/><glyph glyph-name="uni015E" unicode="Ş" d="M18 203h134q-4-23-4-41 0-25 11-36 14-14 35-14 29 0 46 17 18 18 27 62 5 25 5 53 0 37-47 58l-69 33q-77 36-77 116 0 40 9 85 18 89 60 131 53 53 142 53 88 0 133-45 32-32 32-92 0-38-6-72H315q5 25 5 44 0 25-10 35-11 11-29 11-23 0-38-15t-22-50q-5-25-5-44 0-34 36-50l57-27q56-26 78.5-55t22.5-75q0-50-9-95-12-59-26-90.5T338 45Q285-8 182-8 92-8 47 37q-36 36-36 94 0 31 7 72m18-406l98 163h82l-84-163H36z" horiz-adv-x="444" vert-adv-y="1000"/><glyph glyph-name="uni015F" unicode="ş" d="M29 36Q-3 68-3 124q0 17 4 37h126q-1-6-1-16 0-17 9-27 10-12 31-12 23 0 35 16t12 38q0 34-42 54l-49 23q-75 35-75 119 0 92 61 148 45 42 126 42 83 0 120-47 27-33 27-80 0-17-4-37H255q1 7 1 16 0 15-10 25-9 9-27 9t-30-12q-14-14-14-39 0-29 35-45l48-22q84-39 84-132 0-45-17.5-84T281 36Q231-8 152-8 72-8 29 36M5-203l98 163h82l-84-163H5z" horiz-adv-x="386" vert-adv-y="1000"/><glyph glyph-name="uni0160" unicode="Š" d="M18 203h134q-4-23-4-41 0-25 11-36 14-14 35-14 29 0 46 17 18 18 27 62 5 25 5 53 0 37-47 58l-69 33q-77 36-77 116 0 40 9 85 18 89 60 131 53 53 142 53 88 0 133-45 32-32 32-92 0-38-6-72H315q5 25 5 44 0 25-10 35-11 11-29 11-23 0-38-15t-22-50q-5-25-5-44 0-34 36-50l57-27q56-26 78.5-55t22.5-75q0-50-9-95-12-59-26-90.5T338 45Q285-8 182-8 92-8 47 37q-36 36-36 94 0 31 7 72m247 552l-72 145h86l43-78 71 78h96L359 755h-94z" horiz-adv-x="444" vert-adv-y="1000"/><glyph glyph-name="uni0161" unicode="š" d="M29 36Q-3 68-3 124q0 17 4 37h126q-1-6-1-16 0-17 9-27 10-12 31-12 23 0 35 16t12 38q0 34-42 54l-49 23q-75 35-75 119 0 92 61 148 45 42 126 42 83 0 120-47 27-33 27-80 0-17-4-37H255q1 7 1 16 0 15-10 25-9 9-27 9t-30-12q-14-14-14-39 0-29 35-45l48-22q84-39 84-132 0-45-17.5-84T281 36Q231-8 152-8 72-8 29 36m179 550l-72 145h86l43-78 71 78h96L302 586h-94z" horiz-adv-x="386" vert-adv-y="1000"/><glyph glyph-name="uni0162" unicode="Ţ" d="M80 0l118 592H84l24 120h362l-24-120H332L214 0H80M4-203l98 163h82l-84-163H4z" horiz-adv-x="400" vert-adv-y="1000"/><glyph glyph-name="uni0163" unicode="ţ" d="M44 128q0 25 5 50l49 243H50l19 96h47l30 147h128l-30-147h63l-19-96h-62l-47-234q-3-15-3-30 0-43 50-43L204 0Q121 0 81 35q-37 34-37 93m-74-331L68-40h82L66-203h-96z" horiz-adv-x="276" vert-adv-y="1000"/><glyph glyph-name="uni0164" unicode="Ť" d="M80 0l118 592H84l24 120h362l-24-120H332L214 0H80m167 755l-72 145h86l43-78 71 78h96L341 755h-94z" horiz-adv-x="400" vert-adv-y="1000"/><glyph glyph-name="uni0165" unicode="ť" d="M44 128q0 25 5 50l49 243H50l19 96h47l30 147h128l-30-147h63l-19-96h-62l-47-234q-3-15-3-30 0-43 50-43L204 0Q121 0 81 35q-37 34-37 93m245 459l58 166h89l-71-166h-76z" horiz-adv-x="276" vert-adv-y="1000"/><glyph glyph-name="uni0166" unicode="Ŧ" d="M84 592l24 120h362l-24-120H332l-36-181h53l-21-105h-53L214 0H80l61 306H88l21 105h53l36 181H84z" horiz-adv-x="400" vert-adv-y="1000"/><glyph glyph-name="uni0167" unicode="ŧ" d="M25 254l17 83h48l17 84H59l19 96h47l30 147h128l-30-147h63l-19-96h-62l-17-84h62l-17-83h-62l-13-67q-3-15-3-30 0-43 50-43L213 0Q130 0 90 35q-37 34-37 93 0 25 5 50l15 76H25z" horiz-adv-x="296" vert-adv-y="1000"/><glyph glyph-name="uni0168" unicode="Ũ" d="M33 196l103 516h134L165 187q-3-17-3-28 0-47 48-47 54 0 68 70l106 530h134L412 181q-19-93-73-141T193-8Q113-8 68 37 28 77 28 145q0 26 5 51m206 577l-44 59q50 45 97 45 33 0 62-17 25-14 47-14 25 0 52 24l44-59q-50-45-97-45-33 0-62 17-25 14-47 14-25 0-52-24z" horiz-adv-x="476" vert-adv-y="1000"/><glyph glyph-name="uni0169" unicode="ũ" d="M432 538L325 0H203l8 38q-24-24-43-34-24-12-51-12-62 0-89 45-15 26-15 66 0 15 9 61l74 374h128l-74-373q-4-20-4-27 0-15 9-23.5t23-8.5q40 0 52 59l74 373h128m-252 66l-44 59q50 45 97 45 33 0 62-17 25-14 47-14 25 0 52 24l44-59q-50-45-97-45-33 0-62 17-25 14-47 14-25 0-52-24z" horiz-adv-x="422" vert-adv-y="1000"/><glyph glyph-name="uni016A" unicode="Ū" d="M33 196l103 516h134L165 187q-3-17-3-28 0-47 48-47 54 0 68 70l106 530h134L412 181q-19-93-73-141T193-8Q113-8 68 37 28 77 28 145q0 26 5 51m176 573l16 81h252l-16-81H209z" horiz-adv-x="476" vert-adv-y="1000"/><glyph glyph-name="uni016B" unicode="ū" d="M432 538L325 0H203l8 38q-24-24-43-34-24-12-51-12-62 0-89 45-15 26-15 66 0 15 9 61l74 374h128l-74-373q-4-20-4-27 0-15 9-23.5t23-8.5q40 0 52 59l74 373h128m-288 62l16 81h252l-16-81H144z" horiz-adv-x="422" vert-adv-y="1000"/><glyph glyph-name="uni016C" unicode="Ŭ" d="M33 196l103 516h134L165 187q-3-17-3-28 0-47 48-47 54 0 68 70l106 530h134L412 181q-19-93-73-141T193-8Q113-8 68 37 28 77 28 145q0 26 5 51m451 682q-12-66-47-94.5T341 755q-52 0-83 26t-31 68q0 13 3 29h80v-6q0-34 40-34 44 0 54 40h80z" horiz-adv-x="476" vert-adv-y="1000"/><glyph glyph-name="uni016D" unicode="ŭ" d="M432 538L325 0H203l8 38q-24-24-43-34-24-12-51-12-62 0-89 45-15 26-15 66 0 15 9 61l74 374h128l-74-373q-4-20-4-27 0-15 9-23.5t23-8.5q40 0 52 59l74 373h128m-7 171q-12-66-47-94.5T282 586q-52 0-83 26t-31 68q0 12 3 29h80v-6q0-34 40-34 44 0 54 40h80z" horiz-adv-x="422" vert-adv-y="1000"/><glyph glyph-name="uni016E" unicode="Ů" d="M33 196l103 516h134L165 187q-3-17-3-28 0-47 48-47 54 0 68 70l106 530h134L412 181q-19-93-73-141T193-8Q113-8 68 37 28 77 28 145q0 26 5 51m278 702.5l-6.5-6.75Q298 885 298 865t13-33.5q13-13.5 31-13.5t31 13.5q13 13.5 13 33.5t-13 33.5Q360 912 342 912t-31-13.5M264 787l-16 16q-16 16-16 62t32 78q32 32 78 32t78-32q32-32 32-78t-32-78q-32-32-78-32t-78 32z" horiz-adv-x="476" vert-adv-y="1000"/><glyph glyph-name="uni016F" unicode="ů" d="M432 538L325 0H203l8 38q-24-24-43-34-24-12-51-12-62 0-89 45-15 26-15 66 0 15 9 61l74 374h128l-74-373q-4-20-4-27 0-15 9-23.5t23-8.5q40 0 52 59l74 373h128M252 732.5l-6.5-6.75Q239 719 239 699t13-33.5q13-13.5 31-13.5t31 13.5q13 13.5 13 33.5t-13 33.5Q301 746 283 746t-31-13.5M205 621l-16 16q-16 16-16 62t32 78q32 32 78 32t78-32q32-32 32-78t-32-78q-32-32-78-32t-78 32z" horiz-adv-x="422" vert-adv-y="1000"/><glyph glyph-name="uni0170" unicode="Ű" d="M33 196l103 516h134L165 187q-3-17-3-28 0-47 48-47 54 0 68 70l106 530h134L412 181q-19-93-73-141T193-8Q113-8 68 37 28 77 28 145q0 26 5 51m181 559l67 146h99l-82-146h-84m153 0l67 146h99l-82-146h-84z" horiz-adv-x="476" vert-adv-y="1000"/><glyph glyph-name="uni0171" unicode="ű" d="M432 538L325 0H203l8 38q-24-24-43-34-24-12-51-12-62 0-89 45-15 26-15 66 0 15 9 61l74 374h128l-74-373q-4-20-4-27 0-15 9-23.5t23-8.5q40 0 52 59l74 373h128m-277 48l67 146h99l-82-146h-84m153 0l67 146h99l-82-146h-84z" horiz-adv-x="422" vert-adv-y="1000"/><glyph glyph-name="uni0172" unicode="Ų" d="M33 196l103 516h134L165 187q-3-17-3-28 0-47 48-47 54 0 68 70l106 530h134L412 181q-19-93-73-141T193-8Q113-8 68 37 28 77 28 145q0 26 5 51m81-399l98 163h82l-84-163h-96z" horiz-adv-x="476" vert-adv-y="1000"/><glyph glyph-name="uni0173" unicode="ų" d="M432 538L325 0H203l8 38q-24-24-43-34-24-12-51-12-62 0-89 45-15 26-15 66 0 15 9 61l74 374h128l-74-373q-4-20-4-27 0-15 9-23.5t23-8.5q40 0 52 59l74 373h128M125-203l98 163h82l-84-163h-96z" horiz-adv-x="422" vert-adv-y="1000"/><glyph glyph-name="uni0174" unicode="Ŵ" d="M85 0l8 712h143l-31-513 182 513h149l-12-513 164 513h143L564 0H412l8 504L237 0H85m453 900l72-145h-86l-43 78-71-78h-96l130 145h94z" horiz-adv-x="746" vert-adv-y="1000"/><glyph glyph-name="uni0175" unicode="ŵ" d="M65 0l-7 538h133l-19-331 134 331h100l3-332 109 332h137L431 0H317l-5 310L182 0H65m376 731l72-145h-86l-43 78-71-78h-96l130 145h94z" horiz-adv-x="605" vert-adv-y="1000"/><glyph glyph-name="uni0176" unicode="Ŷ" d="M84 0l54 273-45 439h139l7-264 107 264h146L270 263 218 0H84m285 900l72-145h-86l-43 78-71-78h-96l130 145h94z" horiz-adv-x="408" vert-adv-y="1000"/><glyph glyph-name="uni0177" unicode="ŷ" d="M-23-60q44 2 60 8Q63-42 81 0L58 538h134l-6-343 127 343h146L199-49q-19-43-42.5-69T100-155.5q-33-11.5-63.5-15T-46-174l23 114m364 791l72-145h-86l-43 78-71-78h-96l130 145h94z" horiz-adv-x="404" vert-adv-y="1000"/><glyph glyph-name="uni0178" unicode="Ÿ" d="M84 0l54 273-45 439h139l7-264 107 264h146L270 263 218 0H84m58 759l24 120h115l-24-120H142m187 0l24 120h115l-24-120H329z" horiz-adv-x="408" vert-adv-y="1000"/><glyph glyph-name="uni0179" unicode="Ź" d="M-22 0l19 97 277 495H105l24 120h312l-19-97-277-495h180L301 0H-22m265 755l100 143h108L333 755h-90z" horiz-adv-x="380" vert-adv-y="1000"/><glyph glyph-name="uni017A" unicode="ź" d="M-27 0l18 94 196 330H62l23 114h274l-19-94-203-330h141L256 0H-27m205 586l100 143h108L268 586h-90z" horiz-adv-x="336" vert-adv-y="1000"/><glyph glyph-name="uni017B" unicode="Ż" d="M-22 0l19 97 277 495H105l24 120h312l-19-97-277-495h180L301 0H-22m259 759l24 120h114l-24-120H237z" horiz-adv-x="380" vert-adv-y="1000"/><glyph glyph-name="uni017C" unicode="ż" d="M-27 0l18 94 196 330H62l23 114h274l-19-94-203-330h141L256 0H-27m199 590l24 120h114l-24-120H172z" horiz-adv-x="336" vert-adv-y="1000"/><glyph glyph-name="uni017D" unicode="Ž" d="M-22 0l19 97 277 495H105l24 120h312l-19-97-277-495h180L301 0H-22m267 755l-72 145h86l43-78 71 78h96L339 755h-94z" horiz-adv-x="380" vert-adv-y="1000"/><glyph glyph-name="uni017E" unicode="ž" d="M-27 0l18 94 196 330H62l23 114h274l-19-94-203-330h141L256 0H-27m207 586l-72 145h86l43-78 71 78h96L274 586h-94z" horiz-adv-x="336" vert-adv-y="1000"/><glyph glyph-name="uni017F" unicode="ſ" d="M-9 0l109 546q21 103 82 144 28 19 57.5 24.5T326 720l-23-114q-35 0-52.5-17.5T226 536L119 0H-9z" horiz-adv-x="216" vert-adv-y="1000"/><glyph glyph-name="uni018F" unicode="Ə" d="M53 392h262q20 107 20 154 0 54-48 54-25 0-43-18t-29-70H81q24 114 76 161 51 47 145 47 54 0 86.5-15t55.5-50q24-37 24-107 0-62-26-192-30-151-52-212t-57-96Q277-8 184-8 81-8 42 61q-23 41-23 103t34 228m240-107H167q-14-76-14-119 0-54 44-54 24 0 43 19 26 26 53 154z" horiz-adv-x="459" vert-adv-y="1000"/><glyph glyph-name="uni0192" unicode="ƒ" d="M90 389h63l69 189q27 75 70.5 109T407 721h58l-23-113h-51q-15 0-28-11.5T344 568l-66-179h69l-19-96h-86L71-174H-51l169 467H71l19 96z" horiz-adv-x="393" vert-adv-y="1000"/><glyph glyph-name="uni01B5" unicode="Ƶ" d="M71 306l22 105h79l102 181H105l24 120h312l-19-97-114-204h43l-22-105h-80L145 120h180L301 0H-22l19 97 117 209H71z" horiz-adv-x="380" vert-adv-y="1000"/><glyph glyph-name="uni01B6" unicode="ƶ" d="M33 233l17 83h73l64 108H62l23 114h274l-19-94-79-128h40l-17-83h-74l-73-119h141L256 0H-27l18 94 82 139H33z" horiz-adv-x="336" vert-adv-y="1000"/><glyph glyph-name="uni01C4" unicode="Ǆ" d="M157 120h49q39 0 61 31 22 33 57 206 28 138 28 182 0 25-13 39-12 14-35 14h-53l-94-472M-1 0l142 712h184q53 0 84-17t53-53q24-38 24-103 0-36-28-182-28-140-48-201t-54-95Q295 0 195 0H-1m454 0l19 97 277 495H580l24 120h312l-19-97-277-495h180L776 0H453m266 755l-72 145h86l43-78 71 78h96L813 755h-94z" horiz-adv-x="854" vert-adv-y="1000"/><glyph glyph-name="uni01C5" unicode="ǅ" d="M157 120h49q39 0 61 31 22 33 57 206 28 138 28 182 0 25-13 39-12 14-35 14h-53l-94-472M-1 0l142 712h184q53 0 84-17t53-53q24-38 24-103 0-36-28-182-28-140-48-201t-54-95Q295 0 195 0H-1m448 0l18 94 196 330H536l23 114h274l-19-94-203-330h141L730 0H447m217 586l-72 145h86l43-78 71 78h96L758 586h-94z" horiz-adv-x="810" vert-adv-y="1000"/><glyph glyph-name="uni01C6" unicode="ǆ" d="M5 107q0 47 23 162 24 118 40 165t38 69q43 43 105 43 29 0 49-14 16-12 27-26l41 206h128L314 0H192l7 39q-19-23-40-34-24-13-51-13-63 0-87 44Q5 67 5 107m151 162q-19-95-19-125 0-21 9-30 8-8 22-8 18 0 30 12 14 14 20 43l43 216q3 15 3 23 0 16-9 25-7 7-22 7-18 0-32-14-19-19-45-149M384 0l18 94 196 330H473l23 114h274l-19-94-203-330h141L667 0H384m227 586l-72 145h86l43-78 71 78h96L705 586h-94z" horiz-adv-x="747" vert-adv-y="1000"/><glyph glyph-name="uni01C7" unicode="Ǉ" d="M-1 0l142 712h134L157 120h178L311 0H-1m356 66l102 75q21-29 52-29 63 0 82 93l101 507h134L725 205Q703 96 654 48 595-8 506-8 399-8 355 66z" horiz-adv-x="785" vert-adv-y="1000"/><glyph glyph-name="uni01C8" unicode="ǈ" d="M-1 0l142 712h134L157 120h178L311 0H-1m379 10l102 507h128L504 0q-21-103-82-144-28-19-57.5-24.5T278-174l23 114q35 0 52.5 17.5T378 10m114 568l27 134h128l-27-134H492z" horiz-adv-x="602" vert-adv-y="1000"/><glyph glyph-name="uni01C9" unicode="ǉ" d="M56 35q-37 34-37 93 0 25 5 50l107 534h128L154 187q-3-15-3-30 0-43 50-43L179 0Q96 0 56 35m185-25l102 507h128L367 0q-21-103-82-144-28-19-57.5-24.5T141-174l23 114q35 0 52.5 17.5T241 10m114 568l27 134h128l-27-134H355z" horiz-adv-x="465" vert-adv-y="1000"/><glyph glyph-name="uni01CA" unicode="Ǌ" d="M-1 0l142 712h109l72-361 67 361h134L381 0H277l-73 360L133 0H-1m456 66l102 75q21-29 52-29 63 0 82 93l101 507h134L825 205Q803 96 754 48 695-8 606-8 499-8 455 66z" horiz-adv-x="885" vert-adv-y="1000"/><glyph glyph-name="uni01CB" unicode="ǋ" d="M-1 0l142 712h109l72-361 67 361h134L381 0H277l-73 360L133 0H-1m479 10l102 507h128L604 0q-21-103-82-144-28-19-57.5-24.5T378-174l23 114q35 0 52.5 17.5T478 10m114 568l27 134h128l-27-134H592z" horiz-adv-x="702" vert-adv-y="1000"/><glyph glyph-name="uni01CC" unicode="ǌ" d="M-9 0L98 538h122l-8-38q24 24 43 34 24 12 51 12 62 0 89-45 15-26 15-66 0-15-9-61L327 0H199l74 373q4 20 4 27 0 15-9 23.5t-23 8.5q-40 0-52-59L119 0H-9m423 10l102 507h128L540 0q-21-103-82-144-28-19-57.5-24.5T314-174l23 114q35 0 52.5 17.5T414 10m114 568l27 134h128l-27-134H528z" horiz-adv-x="638" vert-adv-y="1000"/><glyph glyph-name="uni01F1" unicode="Ǳ" d="M157 120h49q39 0 61 31 22 33 57 206 28 138 28 182 0 25-13 39-12 14-35 14h-53l-94-472M-1 0l142 712h184q53 0 84-17t53-53q24-38 24-103 0-36-28-182-28-140-48-201t-54-95Q295 0 195 0H-1m453 0l19 97 277 495H579l24 120h312l-19-97-277-495h180L775 0H452z" horiz-adv-x="854" vert-adv-y="1000"/><glyph glyph-name="uni01F2" unicode="ǲ" d="M157 120h49q39 0 61 31 22 33 57 206 28 138 28 182 0 25-13 39-12 14-35 14h-53l-94-472M-1 0l142 712h184q53 0 84-17t53-53q24-38 24-103 0-36-28-182-28-140-48-201t-54-95Q295 0 195 0H-1m448 0l18 94 196 330H536l23 114h274l-19-94-203-330h141L730 0H447z" horiz-adv-x="810" vert-adv-y="1000"/><glyph glyph-name="uni01F3" unicode="ǳ" d="M384 0l18 94 196 330H473l23 114h274l-19-94-203-330h141L667 0H384M5 107q0 47 23 162 24 118 40 165t38 69q43 43 105 43 29 0 49-14 16-12 27-26l41 206h128L314 0H192l7 39q-19-23-40-34-24-13-51-13-63 0-87 44Q5 67 5 107m151 162q-19-95-19-125 0-21 9-30 8-8 22-8 18 0 30 12 14 14 20 43l43 216q3 15 3 23 0 16-9 25-7 7-22 7-18 0-32-14-19-19-45-149z" horiz-adv-x="747" vert-adv-y="1000"/><glyph glyph-name="uni01FA" unicode="Ǻ" d="M433 0H298l1 115H143L97 0H-47l316 712h132L433 0M297 235l1 279-107-279h106m53 752l100 143h108L440 987h-90m-31-88.5l-6.5-6.75Q306 885 306 865t13-33.5q13-13.5 31-13.5t31 13.5q13 13.5 13 33.5t-13 33.5Q368 912 350 912t-31-13.5M272 787l-16 16q-16 16-16 62t32 78q32 32 78 32t78-32q32-32 32-78t-32-78q-32-32-78-32t-78 32z" horiz-adv-x="492" vert-adv-y="1000"/><glyph glyph-name="uni01FB" unicode="ǻ" d="M8 43Q-7 70-7 112q0 26 6 56 15 74 71 117 45 34 131 34h44l11 55q3 15 3 26 0 32-31 32-18 0-30-12t-18-40H52q17 83 66 126 45 40 125 40 84 0 119-45 25-32 25-86 0-27-6-57L310 0H190l9 45q-20-25-40-37-25-16-57-16Q38-8 8 43m118 103q0-40 37-40 40 0 52 61l13 63h-22q-35 0-52-13-28-23-28-71m147 674l100 143h108L363 820h-90m-23-87.5l-6.5-6.75Q237 719 237 699t13-33.5q13-13.5 31-13.5t31 13.5q13 13.5 13 33.5t-13 33.5Q299 746 281 746t-31-13.5M203 621l-16 16q-16 16-16 62t32 78q32 32 78 32t78-32q32-32 32-78t-32-78q-32-32-78-32t-78 32z" horiz-adv-x="404" vert-adv-y="1000"/><glyph glyph-name="uni01FC" unicode="Ǽ" d="M-48 0l388 712h398l-24-120H536l-35-173h153l-24-120H477l-35-179h178L596 0H284l25 125H164L101 0H-48m276 245h105l69 349-174-349m220 510l100 143h108L538 755h-90z" horiz-adv-x="679" vert-adv-y="1000"/><glyph glyph-name="uni01FD" unicode="ǽ" d="M-1 168q15 74 71 117 45 34 131 34h44l11 55q3 15 3 26 0 32-31 32-18 0-30-12t-18-40H52q17 83 66 126 45 40 125 40 63 0 101-30 46 30 111 30 80 0 115-50 23-33 23-90 0-54-25-179H353q-12-65-12-86 0-18 9-27 8-8 22-8 18 0 29 11 14 14 23 48h128q-18-73-53-116Q452-8 358-8q-53 0-80 13-28 14-52 48-25-34-59-49-29-12-65-12Q38-8 8 43-7 70-7 112q0 26 6 56m127-22q0-40 37-40 40 0 52 61l13 63h-22q-35 0-52-13-28-23-28-71m247 176h86q10 47 10 74 0 36-31 36-24 0-37-21-12-19-28-89m-66 264l100 143h108L397 586h-90z" horiz-adv-x="604" vert-adv-y="1000"/><glyph glyph-name="uni01FE" unicode="Ǿ" d="M50 356q31 152 52.5 212.5T159 664q56 56 149 56 58 0 94-21l32 57h84l-64-113q19-38 19-95 0-63-27-192-31-152-52.5-212.5T337 48Q281-8 188-8q-57 0-94 20L62-44h-84L42 68q-19 39-19 96 0 63 27 192m262 0q8 40 14 74L161 137q9-25 40-25 24 0 43 19 17 17 31 64t37 161m-128 0q-4-19-13-70l163 290q-9 24-39 24-24 0-43-19-17-17-31-64t-37-161m91 399l100 143h108L365 755h-90z" horiz-adv-x="460" vert-adv-y="1000"/><glyph glyph-name="uni01FF" unicode="ǿ" d="M362 582h80l-67-103q15-31 15-76 0-36-19-134-20-99-36-144t-42-76Q245-8 153-8 104-8 72 9L38-44h-80L24 60q-14 29-14 75 0 36 19 134 20 99 36 144t42 76q47 57 140 57 47 0 81-17l34 53M243 269l3 17-105-168q9-12 26-12 24 0 37 21 15 23 39 142m-86 0l-4-17 106 168q-9 12-26 12-24 0-37-21-15-23-39-142m54 317l100 143h108L301 586h-90z" horiz-adv-x="400" vert-adv-y="1000"/><glyph glyph-name="uni0218" unicode="Ș" d="M18 203h134q-4-23-4-41 0-25 11-36 14-14 35-14 29 0 46 17 18 18 27 62 5 25 5 53 0 37-47 58l-69 33q-77 36-77 116 0 40 9 85 18 89 60 131 53 53 142 53 88 0 133-45 32-32 32-92 0-38-6-72H315q5 25 5 44 0 25-10 35-11 11-29 11-23 0-38-15t-22-50q-5-25-5-44 0-34 36-50l57-27q56-26 78.5-55t22.5-75q0-50-9-95-12-59-26-90.5T338 45Q285-8 182-8 92-8 47 37q-36 36-36 94 0 31 7 72m18-406l98 163h82l-84-163H36z" horiz-adv-x="444" vert-adv-y="1000"/><glyph glyph-name="uni0219" unicode="ș" d="M29 36Q-3 68-3 124q0 17 4 37h126q-1-6-1-16 0-17 9-27 10-12 31-12 23 0 35 16t12 38q0 34-42 54l-49 23q-75 35-75 119 0 92 61 148 45 42 126 42 83 0 120-47 27-33 27-80 0-17-4-37H255q1 7 1 16 0 15-10 25-9 9-27 9t-30-12q-14-14-14-39 0-29 35-45l48-22q84-39 84-132 0-45-17.5-84T281 36Q231-8 152-8 72-8 29 36M5-203l98 163h82l-84-163H5z" horiz-adv-x="386" vert-adv-y="1000"/><glyph glyph-name="uni021A" unicode="Ț" d="M80 0l118 592H84l24 120h362l-24-120H332L214 0H80M4-203l98 163h82l-84-163H4z" horiz-adv-x="400" vert-adv-y="1000"/><glyph glyph-name="uni021B" unicode="ț" d="M44 128q0 25 5 50l49 243H50l19 96h47l30 147h128l-30-147h63l-19-96h-62l-47-234q-3-15-3-30 0-43 50-43L204 0Q121 0 81 35q-37 34-37 93m-71-331L71-40h82L69-203h-96z" horiz-adv-x="276" vert-adv-y="1000"/><glyph glyph-name="uni0237" unicode="ȷ" d="M-8 10L94 517h128L118 0Q97-103 36-144q-28-19-57.5-24.5T-108-174l23 114q35 0 52.5 17.5T-8 10z" horiz-adv-x="216" vert-adv-y="1000"/><glyph glyph-name="uni0259" unicode="ə" d="M36 311h214q11 53 11 85 0 19-9 28-8 8-22 8-23 0-37-20-11-18-15-38H52q21 84 69 129 46 43 128 43 77 0 113-50 25-34 25-91 0-56-16-136-22-104-44.5-157.5T272 31Q226-8 146-8 73-8 34 42q-23 33-23 90 0 54 25 179m195-95h-86q-10-47-10-74 0-36 31-36 23 0 37 20 14 21 28 90z" horiz-adv-x="399" vert-adv-y="1000"/><glyph glyph-name="uni02BB" unicode="ʻ" d="M114 570l28 142 155 105-49-247H114z" horiz-adv-x="240" vert-adv-y="1000"/><glyph glyph-name="uni02BC" unicode="ʼ" d="M93 465l49 247h134l-28-142L93 465z" horiz-adv-x="240" vert-adv-y="1000"/><glyph glyph-name="uni02C6" unicode="ˆ" d="M339 731l72-145h-86l-43 78-71-78h-96l130 145h94z" horiz-adv-x="400" vert-adv-y="1000"/><glyph glyph-name="uni02C7" unicode="ˇ" d="M216 586l-72 145h86l43-78 71 78h96L310 586h-94z" horiz-adv-x="400" vert-adv-y="1000"/><glyph glyph-name="uni02D8" unicode="˘" d="M415 709q-12-66-47-94.5T272 586q-52 0-83 26t-31 68q0 12 3 29h80v-6q0-34 40-34 44 0 54 40h80z" horiz-adv-x="400" vert-adv-y="1000"/><glyph glyph-name="uni02D9" unicode="˙" d="M208 590l24 120h114l-24-120H208z" horiz-adv-x="400" vert-adv-y="1000"/><glyph glyph-name="uni02DA" unicode="˚" d="M239 732.5l-6.5-6.75Q226 719 226 699t13-33.5q13-13.5 31-13.5t31 13.5q13 13.5 13 33.5t-13 33.5Q288 746 270 746t-31-13.5M192 621l-16 16q-16 16-16 62t32 78q32 32 78 32t78-32q32-32 32-78t-32-78q-32-32-78-32t-78 32z" horiz-adv-x="400" vert-adv-y="1000"/><glyph glyph-name="uni02DB" unicode="˛" d="M13-203l98 163h82l-84-163H13z" horiz-adv-x="400" vert-adv-y="1000"/><glyph glyph-name="uni02DC" unicode="˜" d="M170 604l-44 59q50 45 97 45 33 0 62-17 25-14 47-14 25 0 52 24l44-59q-50-45-97-45-33 0-62 17-25 14-47 14-25 0-52-24z" horiz-adv-x="400" vert-adv-y="1000"/><glyph glyph-name="uni02DD" unicode="˝" d="M145 586l67 146h99l-82-146h-84m153 0l67 146h99l-82-146h-84z" horiz-adv-x="400" vert-adv-y="1000"/><glyph glyph-name="uni0394" unicode="Δ" d="M-47 0l316 712h132L433 0H-47m196 120h151l3 395-154-395z" horiz-adv-x="492" vert-adv-y="1000"/><glyph glyph-name="uni03A9" unicode="Ω" d="M446 356q-34-161-63-211-11-18-26-30h46L380 0H206l20 101q20 14 33 47 23 60 53 208 27 135 27 190 0 54-44 54-24 0-43-19-17-17-31-64t-37-161q-30-150-30-212 0-31 14-43L148 0H-26l23 115h53q-21 23-21 76 0 64 21 165 31 152 52.5 212.5T159 664q56 56 149 56 103 0 142-69 23-41 23-103 0-63-27-192z" horiz-adv-x="460" vert-adv-y="1000"/><glyph glyph-name="uni03BC" unicode="μ" d="M-46-174L96 538h128l-74-373q-4-20-4-27 0-15 9-23.5t23-8.5q40 0 52 59l74 373h128L325 0H203l7 38q-25-25-42-34-10-5-22-8-16-4-37-4L76-174H-46z" horiz-adv-x="422" vert-adv-y="1000"/><glyph glyph-name="uni03C0" unicode="π" d="M-9 0L98 538h336L327 0H199l86 434h-80L119 0H-9z" horiz-adv-x="424" vert-adv-y="1000"/><glyph glyph-name="uni0400" unicode="Ѐ" d="M-1 0l142 712h312l-24-120H251l-35-173h153l-24-120H192l-35-179h178L311 0H-1m267 755l-57 143h100l43-143h-86z" horiz-adv-x="394" vert-adv-y="1000"/><glyph glyph-name="uni0401" unicode="Ё" d="M-1 0l142 712h312l-24-120H251l-35-173h153l-24-120H192l-35-179h178L311 0H-1m155 759l24 120h115l-24-120H154m187 0l24 120h115l-24-120H341z" horiz-adv-x="394" vert-adv-y="1000"/><glyph glyph-name="uni0402" unicode="Ђ" d="M61 0l118 592H84l24 120h360l-24-120H313l-28-138h49q86 0 127-41 36-36 36-101 0-45-8-85-26-130-79-178.5T262 0h-16l24 120q9 0 13 1 31 3 45.5 27.5T355 227q7 35 7 56 0 26-12 38.5T309 334h-48L195 0H61z" horiz-adv-x="527" vert-adv-y="1000"/><glyph glyph-name="uni0403" unicode="Ѓ" d="M-1 0l142 712h307l-24-120H251L133 0H-1m235 755l100 143h108L324 755h-90z" horiz-adv-x="378" vert-adv-y="1000"/><glyph glyph-name="uni0404" unicode="Є" d="M23 164q0 63 27 192 31 152 52.5 212.5T159 664q56 56 148 56 90 0 132-52 34-42 34-110 0-28-2-45H337q2 15 2 37 0 50-43 50-25 0-44-19-26-26-55-162h120l-24-120H173q-16-92-16-133 0-54 43-54 32 0 51 27 16 23 25 61h136Q389 90 330 38 278-8 188-8 85-8 46 61q-23 41-23 103z" horiz-adv-x="450" vert-adv-y="1000"/><glyph glyph-name="uni0405" unicode="Ѕ" d="M18 203h134q-4-23-4-41 0-25 11-36 14-14 35-14 29 0 46 17 18 18 27 62 5 25 5 53 0 37-47 58l-69 33q-77 36-77 116 0 40 9 85 18 89 60 131 53 53 142 53 88 0 133-45 32-32 32-92 0-38-6-72H315q5 25 5 44 0 25-10 35-11 11-29 11-23 0-38-15t-22-50q-5-25-5-44 0-34 36-50l57-27q56-26 78.5-55t22.5-75q0-50-9-95-12-59-26-90.5T338 45Q285-8 182-8 92-8 47 37q-36 36-36 94 0 31 7 72z" horiz-adv-x="444" vert-adv-y="1000"/><glyph glyph-name="uni0406" unicode="І" d="M-1 0l142 712h134L133 0H-1z" horiz-adv-x="238" vert-adv-y="1000"/><glyph glyph-name="uni0407" unicode="Ї" d="M-1 0l142 712h134L133 0H-1m64 759l24 120h115l-24-120H63m187 0l24 120h115l-24-120H250z" horiz-adv-x="238" vert-adv-y="1000"/><glyph glyph-name="uni0408" unicode="Ј" d="M-31 66l102 75q21-29 52-29 63 0 82 93l101 507h134L339 205Q317 96 268 48 209-8 120-8 13-8-31 66z" horiz-adv-x="399" vert-adv-y="1000"/><glyph glyph-name="uni0409" unicode="Љ" d="M281 0l118 592h-96l-61-306q-18-89-45.5-149t-62-88q-34.5-28-66-38.5T-1 0h-41l24 120h11q23 0 36.5 4.5T59 146q16 17 29.5 54.5T114 299l83 413h360l-52-258h47q86 0 127-41 36-36 36-101 0-45-8-85-26-130-79-178.5T480 0H281m158 120h48q39 0 56.5 24.5T573 227q7 35 7 56 0 26-12 38.5T527 334h-46l-42-214z" horiz-adv-x="746" vert-adv-y="1000"/><glyph glyph-name="uni040A" unicode="Њ" d="M249 0l66 334H199L133 0H-1l142 712h134l-52-258h116l52 258h134l-52-258h47q86 0 127-41 36-36 36-101 0-45-8-85-26-130-79-178.5T448 0H249m158 120h48q39 0 56.5 24.5T541 227q7 35 7 56 0 26-12 38.5T495 334h-46l-42-214z" horiz-adv-x="714" vert-adv-y="1000"/><glyph glyph-name="uni040B" unicode="Ћ" d="M61 0l118 592H84l24 120h360l-24-120H313l-27-137h50q80 0 121-36.5t41-99.5q0-34-14-102L441 0H307l43 217q8 38 8 72 0 46-52 46h-44L195 0H61z" horiz-adv-x="526" vert-adv-y="1000"/><glyph glyph-name="uni040C" unicode="Ќ" d="M272 0l-66 362 198 350h148L345 365 420 0H272M-1 0l142 712h134L133 0H-1m301 755l100 143h108L390 755h-90z" horiz-adv-x="480" vert-adv-y="1000"/><glyph glyph-name="uni040D" unicode="Ѝ" d="M-1 0l142 712h134l-72-358 211 358h113L385 0H251l71 357L115 0H-1m307 755l-57 143h100l43-143h-86z" horiz-adv-x="490" vert-adv-y="1000"/><glyph glyph-name="uni040E" unicode="Ў" d="M-2 0l24 120q47 0 71 15.5t40 55.5l16 42-56 479h137l14-299 135 299h142L236 154q-22-42-34-62.5T171 49q-19-22-40.5-30T77 5.5Q45 0-2 0m205 875h83v-5q0-33 40-33 45 0 55 38h84q-12-61-46.5-90T318 756q-54 0-86 24.5T200 847q0 13 3 28z" horiz-adv-x="436" vert-adv-y="1000"/><glyph glyph-name="uni040F" unicode="Џ" d="M-1 0l142 712h134L157 120h114l118 592h134L381 0H251l-29-144H100L129 0H-1z" horiz-adv-x="486" vert-adv-y="1000"/><glyph glyph-name="uni0410" unicode="А" d="M433 0H298l1 115H143L97 0H-47l316 712h132L433 0M297 235l1 279-107-279h106z" horiz-adv-x="492" vert-adv-y="1000"/><glyph glyph-name="uni0411" unicode="Б" d="M-1 0l142 712h347l-24-120H251l-28-138h47q86 0 127-41 36-36 36-101 0-45-8-85-26-130-79-178.5T198 0H-1m158 120h48q39 0 56.5 24.5T291 227q7 35 7 56 0 27-11 38-13 13-42 13h-46l-42-214z" horiz-adv-x="462" vert-adv-y="1000"/><glyph glyph-name="uni0412" unicode="В" d="M-1 0l142 712h183q95 0 131-48 27-36 27-89 0-28-8-67-16-80-52-112-19-16-38-24 17-8 28-25 18-25 18-63 0-35-8-75-24-122-74-167-27-24-61-33t-92-9H-1m158 120h44q42 0 59.5 20.5T289 214q6 28 6 48 0 28-13 40.5T240 315h-44l-39-195m61 309h38q38 0 56.5 18.5T340 508q5 23 5 38 0 23-11.5 34.5T293 592h-42l-33-163z" horiz-adv-x="477" vert-adv-y="1000"/><glyph glyph-name="uni0413" unicode="Г" d="M-1 0l142 712h307l-24-120H251L133 0H-1z" horiz-adv-x="378" vert-adv-y="1000"/><glyph glyph-name="uni0414" unicode="Д" d="M-18 120h47q89 161 129 365l45 227h360L445 120h60l-53-264H325L354 0H85L56-144H-70l52 264m184 0h145l94 472h-96l-32-161q-33-165-111-311z" horiz-adv-x="557" vert-adv-y="1000"/><glyph glyph-name="uni0415" unicode="Е" d="M-1 0l142 712h312l-24-120H251l-35-173h153l-24-120H192l-35-179h178L311 0H-1z" horiz-adv-x="394" vert-adv-y="1000"/><glyph glyph-name="uni0416" unicode="Ж" d="M-58 0l237 391-63 321h136l61-341L97 0H-58m577 0l-68 369 197 343h151L588 362 661 0H519M241 0l142 712h134L375 0H241z" horiz-adv-x="722" vert-adv-y="1000"/><glyph glyph-name="uni0417" unicode="З" d="M53 33Q10 76 10 152q0 27 4 47h136q-4-20-4-36 0-27 13-40 11-11 34-11 27 0 42 17 17 18 31 85 5 28 5 43 0 23-9 35-12 15-39 15h-54l24 116h51q29 0 45 16 15 15 25 67 6 30 6 49 0 22-11 33-12 12-32 12-29 0-45-19-17-19-27-69H72q23 114 75 161 51 47 143 47 86 0 126-40 39-39 39-96 0-35-8-75-8-41-17-62t-27-42q-15-20-50-41 52-34 52-101 0-21-8-61-14-71-27.5-102T328 41Q279-8 186-8 94-8 53 33z" horiz-adv-x="454" vert-adv-y="1000"/><glyph glyph-name="uni0418" unicode="И" d="M-1 0l142 712h134l-72-358 211 358h113L385 0H251l71 357L115 0H-1z" horiz-adv-x="490" vert-adv-y="1000"/><glyph glyph-name="uni0419" unicode="Й" d="M-1 0l142 712h134l-72-358 211 358h113L385 0H251l71 357L115 0H-1m240 875h83v-5q0-33 40-33 45 0 55 38h84q-12-61-46.5-90T354 756q-54 0-86 24.5T236 847q0 13 3 28z" horiz-adv-x="490" vert-adv-y="1000"/><glyph glyph-name="uni041A" unicode="К" d="M272 0l-66 362 198 350h148L345 365 420 0H272M-1 0l142 712h134L133 0H-1z" horiz-adv-x="480" vert-adv-y="1000"/><glyph glyph-name="uni041B" unicode="Л" d="M-42 0l24 120h12q45 0 72 37.5T114 299l83 413h361L416 0H281l118 592h-96l-59-293q-19-97-39-154.5T155 54q-30-33-65-43.5T-1 0h-41z" horiz-adv-x="521" vert-adv-y="1000"/><glyph glyph-name="uni041C" unicode="М" d="M-1 0l142 712h118l54-344 193 344h118L482 0H348l75 375-123-243h-69l-23 243L133 0H-1z" horiz-adv-x="587" vert-adv-y="1000"/><glyph glyph-name="uni041D" unicode="Н" d="M-1 0l142 712h134l-58-290h114l58 290h134L381 0H247l60 302H193L133 0H-1z" horiz-adv-x="486" vert-adv-y="1000"/><glyph glyph-name="uni041E" unicode="О" d="M50 356q31 152 52.5 212.5T159 664q56 56 149 56 103 0 142-69 23-41 23-103 0-63-27-192-31-152-52.5-212.5T337 48Q281-8 188-8 85-8 46 61q-23 41-23 103 0 63 27 192m134 0q-27-135-27-190 0-54 44-54 24 0 43 19 17 17 31 64t37 161q27 135 27 190 0 54-44 54-24 0-43-19-17-17-31-64t-37-161z" horiz-adv-x="460" vert-adv-y="1000"/><glyph glyph-name="uni041F" unicode="П" d="M-1 0l142 712h382L381 0H247l118 592H251L133 0H-1z" horiz-adv-x="486" vert-adv-y="1000"/><glyph glyph-name="uni0420" unicode="Р" d="M-1 0l142 712h181q86 0 127-41 36-36 36-101 0-45-8-85-26-130-79-178.5T250 258h-66L133 0H-1m209 378h49q39 0 56.5 24.5T343 485q7 35 7 56 0 26-12 38.5T297 592h-46l-43-214z" horiz-adv-x="462" vert-adv-y="1000"/><glyph glyph-name="uni0421" unicode="С" d="M23 164q0 63 27 192 31 152 52.5 212.5T159 664q56 56 148 56 90 0 132-52 34-42 34-110 0-28-2-45H337q2 15 2 37 0 50-43 50-25 0-44-19-17-17-31-64t-37-161q-27-135-27-190 0-54 43-54 32 0 51 27 16 23 25 61h136Q389 90 330 38 278-8 188-8 85-8 46 61q-23 41-23 103z" horiz-adv-x="450" vert-adv-y="1000"/><glyph glyph-name="uni0422" unicode="Т" d="M80 0l118 592H84l24 120h362l-24-120H332L214 0H80z" horiz-adv-x="400" vert-adv-y="1000"/><glyph glyph-name="uni0423" unicode="У" d="M-2 0l24 120q47 0 71 15.5t40 55.5l16 42-56 479h137l14-299 135 299h142L236 154q-22-42-34-62.5T171 49q-19-22-40.5-30T77 5.5Q45 0-2 0z" horiz-adv-x="436" vert-adv-y="1000"/><glyph glyph-name="uni0424" unicode="Ф" d="M204-6l17 84q-92 4-137.5 50T38 247q0 47 16 129 16 81 32.5 128.5T134 593q31 41 80.5 59.5T340 674l15 74h132l-15-74q92-4 137.5-50T655 505q0-47-16-129-16-81-32.5-128.5T559 159q-31-41-80.5-59.5T353 78L336-6H204m-30 280q0-40 16-57.5t58-18.5l71 356q-53-2-82-40.5T188 376q-14-72-14-102m200-76q53 2 82 40.5T505 376q14 72 14 102 0 40-16 57.5T445 554l-71-356z" horiz-adv-x="650" vert-adv-y="1000"/><glyph glyph-name="uni0425" unicode="Х" d="M-41 0l202 372-58 340h145l17-208 97 208h152L313 364 381 0H236l-27 222L110 0H-41z" horiz-adv-x="442" vert-adv-y="1000"/><glyph glyph-name="uni0426" unicode="Ц" d="M-1 0l142 712h134L157 120h113l118 592h134L404 120h60l-53-264H283L312 0H-1z" horiz-adv-x="516" vert-adv-y="1000"/><glyph glyph-name="uni0427" unicode="Ч" d="M233 0l47 235q-35-4-60-4-157 0-157 120 0 24 13 85l55 276h134l-56-280q-5-24-5-41 0-40 49-40 26 0 50 3l72 358h134L367 0H233z" horiz-adv-x="472" vert-adv-y="1000"/><glyph glyph-name="uni0428" unicode="Ш" d="M-1 0l142 712h134L157 120h96l118 592h134L387 120h96l118 592h134L593 0H-1z" horiz-adv-x="698" vert-adv-y="1000"/><glyph glyph-name="uni0429" unicode="Щ" d="M-1 0l142 712h134L157 120h96l118 592h134L387 120h96l118 592h134L617 120h59l-53-264H495L524 0H-1z" horiz-adv-x="728" vert-adv-y="1000"/><glyph glyph-name="uni042A" unicode="Ъ" d="M84 592l24 120h232l-52-258h47q86 0 127-41 36-36 36-101 0-45-8-85-26-130-79-178.5T263 0H64l118 592H84m138-472h48q39 0 56.5 24.5T356 227q7 35 7 56 0 26-12 38.5T310 334h-46l-42-214z" horiz-adv-x="529" vert-adv-y="1000"/><glyph glyph-name="uni042B" unicode="Ы" d="M434 0l142 712h134L568 0H434M-1 0l142 712h134l-52-258h47q86 0 127-41 36-36 36-101 0-45-8-85-26-130-79-178.5T198 0H-1m158 120h48q39 0 56.5 24.5T291 227q7 35 7 56 0 26-12 38.5T245 334h-46l-42-214z" horiz-adv-x="673" vert-adv-y="1000"/><glyph glyph-name="uni042C" unicode="Ь" d="M-1 0l142 712h134l-52-258h47q86 0 127-41 36-36 36-101 0-45-8-85-26-130-79-178.5T198 0H-1m158 120h48q39 0 56.5 24.5T291 227q7 35 7 56 0 26-12 38.5T245 334h-46l-42-214z" horiz-adv-x="464" vert-adv-y="1000"/><glyph glyph-name="uni042D" unicode="Э" d="M169 299l24 120h119q15 92 15 127 0 54-45 54-31 0-47-19-17-19-27-69H75q23 114 75 161 51 47 145 47 104 0 143-69 23-41 23-103 0-63-27-192-31-152-52.5-212.5T325 48Q269-8 180-8T50 33Q7 76 7 152q0 27 4 47h136q-4-20-4-36 0-27 13-40 11-11 33-11 24 0 43 19 27 27 56 168H169z" horiz-adv-x="450" vert-adv-y="1000"/><glyph glyph-name="uni042E" unicode="Ю" d="M-1 0l142 712h134l-58-290h60q24 112 44 161.5t51 80.5q56 56 149 56 103 0 142-69 23-41 23-103 0-63-27-192-31-152-52.5-212.5T550 48Q494-8 401-8 298-8 259 61q-23 41-23 103 0 55 16 138h-59L133 0H-1m398 356q-27-135-27-190 0-54 44-54 24 0 43 19 17 17 31 64t37 161q27 135 27 190 0 54-44 54-24 0-43-19-17-17-31-64t-37-161z" horiz-adv-x="673" vert-adv-y="1000"/><glyph glyph-name="uni042F" unicode="Я" d="M-37 0l170 314q-50 36-50 115 0 24 9 66 26 131 74.5 174T325 712h190L372 0H238l57 283h-39L110 0H-37m263 495q-6-30-6-47 0-28 12-39.5t40-11.5h47l38 195h-48q-39 0-55.5-22T226 495z" horiz-adv-x="478" vert-adv-y="1000"/><glyph glyph-name="uni0430" unicode="а" d="M8 43Q-7 70-7 112q0 26 6 56 15 74 71 117 45 34 131 34h44l11 55q3 15 3 26 0 32-31 32-18 0-30-12t-18-40H52q17 83 66 126 45 40 125 40 84 0 119-45 25-32 25-86 0-27-6-57L310 0H190l9 45q-20-25-40-37-25-16-57-16Q38-8 8 43m118 103q0-40 37-40 40 0 52 61l13 63h-22q-35 0-52-13-28-23-28-71z" horiz-adv-x="404" vert-adv-y="1000"/><glyph glyph-name="uni0431" unicode="б" d="M34 269q37 183 58 248.5T149 627q40 47 106 68.5T438 720l-23-114q-113 0-159-33-26-19-45-59 34 21 74 21 66 0 94-53 16-29 16-79 0-39-19-134-20-99-36-144t-42-76Q250-8 158-8 65-8 32 55q-17 33-17 80 0 36 19 134m128 0q-21-101-21-128 0-18 9-27 8-8 22-8 24 0 37 21 15 23 39 142 21 101 21 128 0 18-9 27-8 8-22 8-24 0-37-21-15-23-39-142z" horiz-adv-x="405" vert-adv-y="1000"/><glyph glyph-name="uni0432" unicode="в" d="M-9 0L98 538h168q87 0 118-38 23-28 23-66 0-22-3-37-8-40-16-59t-28-39q-18-18-39-24 18-8 29-23 16-21 16-57 0-15-4-38-9-52-23-77.5T301 34Q260 0 169 0H-9m189 327h38q26 0 39 10t18 36q2 10 2 20 0 33-40 33h-37l-20-99m-43-215h35q52 0 62 51 3 15 3 23 0 37-43 37h-35l-22-111z" horiz-adv-x="415" vert-adv-y="1000"/><glyph glyph-name="uni0433" unicode="г" d="M-9 0L98 538h292l-23-114H203L119 0H-9z" horiz-adv-x="353" vert-adv-y="1000"/><glyph glyph-name="uni0434" unicode="д" d="M-71-140l51 254h44q40 72 58.5 121T119 376l32 162h325l-85-424h50l-51-254H276L304 0H71L43-140H-71m225 254h109l62 310h-73l-15-75q-25-130-83-235z" horiz-adv-x="491" vert-adv-y="1000"/><glyph glyph-name="uni0435" unicode="е" d="M27 55q-17 33-17 80 0 36 19 134 20 99 36 144t42 76q47 57 143 57 80 0 115-50 23-33 23-90 0-54-25-179H148q-12-65-12-86 0-18 9-27 8-8 22-8 18 0 29 11 14 14 23 48h128q-18-73-53-116Q247-8 153-8 60-8 27 55m141 267h86q10 47 10 74 0 36-31 36-24 0-37-21-12-19-28-89z" horiz-adv-x="399" vert-adv-y="1000"/><glyph glyph-name="uni0436" unicode="ж" d="M-56 0l191 296-58 242h133l52-255L92 0H-56m506 0l-58 279 154 259h148L522 272 588 0H450M207 0l107 538h128L335 0H207z" horiz-adv-x="648" vert-adv-y="1000"/><glyph glyph-name="uni0437" unicode="з" d="M0 170h128q-3-17-3-30 0-34 32-34 26 0 41 25 14 22 14 56 0 13-7 24-10 12-38 12h-24l20 99h21q29 0 42 11 24 21 24 66 0 17-8 25t-24 8q-17 0-29-12-13-14-21-51H41q20 87 65 132t126 45q82 0 119-40 28-31 28-75 0-18-4-41-12-60-40-88-12-12-40-27 21-16 30-29 15-22 15-53 0-22-5-47-16-80-70-121Q221-8 141-8 69-8 33 28T-3 128q0 23 3 42z" horiz-adv-x="387" vert-adv-y="1000"/><glyph glyph-name="uni0438" unicode="и" d="M-9 0L98 538h128l-49-244 149 244h108L327 0H199l48 244L99 0H-9z" horiz-adv-x="424" vert-adv-y="1000"/><glyph glyph-name="uni0439" unicode="й" d="M-9 0L98 538h128l-49-244 149 244h108L327 0H199l48 244L99 0H-9m178 706h83v-5q0-33 40-33 45 0 55 38h84q-12-61-46.5-90T284 587q-54 0-86 24.5T166 678q0 13 3 28z" horiz-adv-x="424" vert-adv-y="1000"/><glyph glyph-name="uni043A" unicode="к" d="M236 0l-60 280 153 258h144L305 273 371 0H236M-9 0L98 538h128L119 0H-9z" horiz-adv-x="432" vert-adv-y="1000"/><glyph glyph-name="uni043B" unicode="л" d="M-41 0l22 114H0q20 0 32.5 6.5T60 157q15 30 27 89l58 292h324L362 0H234l84 424h-73l-39-195q-15-77-34-124.5T125.5 35Q98 13 71.5 6.5T1 0h-42z" horiz-adv-x="459" vert-adv-y="1000"/><glyph glyph-name="uni043C" unicode="м" d="M-9 0L98 538h111l49-236 147 236h111L409 0H285l50 250-78-122h-64l-27 128L115 0H-9z" horiz-adv-x="506" vert-adv-y="1000"/><glyph glyph-name="uni043D" unicode="н" d="M-9 0L98 538h128l-41-207h80l41 207h128L327 0H199l43 217h-80L119 0H-9z" horiz-adv-x="424" vert-adv-y="1000"/><glyph glyph-name="uni043E" unicode="о" d="M157 269q-21-101-21-128 0-18 9-27 8-8 22-8 24 0 37 21 15 23 39 142 21 101 21 128 0 18-9 27-8 8-22 8-24 0-37-21-15-23-39-142m-128 0q20 99 36 144t42 76q47 57 140 57t126-63q17-33 17-80 0-36-19-134-20-99-36-144t-42-76Q245-8 153-8 60-8 27 55q-17 33-17 80 0 36 19 134z" horiz-adv-x="400" vert-adv-y="1000"/><glyph glyph-name="uni043F" unicode="п" d="M-9 0L98 538h336L327 0H199l84 424h-80L119 0H-9z" horiz-adv-x="424" vert-adv-y="1000"/><glyph glyph-name="uni0440" unicode="р" d="M98 538h122l-7-39q19 23 40 34 24 13 51 13 63 0 87-44 16-31 16-71 0-43-23-162-24-119-40-165.5T306 35Q263-8 201-8q-29 0-49 14-16 12-27 26L84-174H-44L98 538m96-161l-43-216q-3-15-3-23 0-16 9-25 7-7 22-7 18 0 32 14 19 19 45 149 19 95 19 125 0 21-9 30-8 8-22 8-18 0-30-12-14-14-20-43z" horiz-adv-x="411" vert-adv-y="1000"/><glyph glyph-name="uni0441" unicode="с" d="M29 269q20 99 36 144t42 76q47 57 140 57t126-63q17-33 17-78 0-18-2-32H261q2 12 2 24 0 18-9 27-8 8-21 8-24 0-37-21-15-23-39-142-21-101-21-128 0-18 9-27 8-8 22-8 18 0 29 11 14 14 23 48h128q-18-73-53-116Q247-8 153-8 60-8 27 55q-17 33-17 80 0 36 19 134z" horiz-adv-x="389" vert-adv-y="1000"/><glyph glyph-name="uni0442" unicode="т" d="M54 0l84 424H49l23 114h306l-23-114h-89L182 0H54z" horiz-adv-x="342" vert-adv-y="1000"/><glyph glyph-name="uni0443" unicode="у" d="M-23-60q44 2 60 8Q63-42 81 0L58 538h134l-6-343 127 343h146L199-49q-19-43-42.5-69T100-155.5q-33-11.5-63.5-15T-46-174l23 114z" horiz-adv-x="404" vert-adv-y="1000"/><glyph glyph-name="uni0444" unicode="ф" d="M37 70q-20 37-20 84 0 50 12 115 29 154 81 208 32 34 65.5 47T276 541l34 171h126l-34-171q94-4 130-73 20-37 20-84 0-50-12-115-29-154-81-208-32-34-65.5-47T293-3l-34-171H133L167-3Q73 1 37 70m277 40q27 0 52 25 24 25 46 133 13 68 13 102 0 23-5 33-10 22-43 24l-63-317m-165 24q10-22 43-24l63 317q-27 0-52-25-24-25-46-133-13-68-13-102 0-23 5-33z" horiz-adv-x="568" vert-adv-y="1000"/><glyph glyph-name="uni0445" unicode="х" d="M-42 0l171 276-64 262h136l28-148 81 148h143L276 266 353 0H217l-32 148L101 0H-42z" horiz-adv-x="412" vert-adv-y="1000"/><glyph glyph-name="uni0446" unicode="ц" d="M-9 0L98 538h128l-85-424h76l85 424h128l-85-424h50l-51-254H230L258 0H-9z" horiz-adv-x="445" vert-adv-y="1000"/><glyph glyph-name="uni0447" unicode="ч" d="M178 0l34 170q-23-3-47-3-61 0-95 26.5T36 263q0 23 9 68l41 207h128l-40-202q-3-15-3-25 0-30 35-30 16 0 28 3l51 254h128L306 0H178z" horiz-adv-x="403" vert-adv-y="1000"/><glyph glyph-name="uni0448" unicode="ш" d="M-9 0L98 538h128l-85-424h67l85 424h128l-85-424h67l85 424h128L509 0H-9z" horiz-adv-x="606" vert-adv-y="1000"/><glyph glyph-name="uni0449" unicode="щ" d="M-9 0L98 538h128l-85-424h67l85 424h128l-85-424h67l85 424h128l-85-424h49l-51-254H415L443 0H-9z" horiz-adv-x="628" vert-adv-y="1000"/><glyph glyph-name="uni044A" unicode="ъ" d="M47 420l24 118h204l-35-174h46q69 0 102-33 28-28 28-81 0-38-6-68-21-104-63.5-143T228 0H40l83 420H47m143-306h37q25 0 36 15.5t19 52.5q4 20 4 36 0 32-33 32h-35l-28-136z" horiz-adv-x="451" vert-adv-y="1000"/><glyph glyph-name="uni044B" unicode="ы" d="M380 0l107 538h128L508 0H380M-9 0L98 538h128l-35-174h46q69 0 102-33 28-28 28-81 0-38-6-68-21-104-63.5-143T179 0H-9m150 114h37q25 0 36 15.5t19 52.5q4 20 4 36 0 32-33 32h-35l-28-136z" horiz-adv-x="605" vert-adv-y="1000"/><glyph glyph-name="uni044C" unicode="ь" d="M-9 0L98 538h128l-35-174h46q69 0 102-33 28-28 28-81 0-38-6-68-21-104-63.5-143T179 0H-9m150 114h37q25 0 36 15.5t19 52.5q4 20 4 36 0 32-33 32h-35l-28-136z" horiz-adv-x="402" vert-adv-y="1000"/><glyph glyph-name="uni044D" unicode="э" d="M360 269q-20-99-35.5-144.5T284 49Q237-8 142-8T14 55Q-3 88-3 133q0 18 2 32h128q-2-12-2-24 0-18 9-27 8-8 22-8 24 0 37 21 12 18 28 91h-83l22 108h83q10 52 10 71 0 18-9 27-8 8-21 8-18 0-29-11-14-14-23-48H44q18 73 53 116 47 57 139 57t125-63q17-33 17-80 0-44-18-134z" horiz-adv-x="389" vert-adv-y="1000"/><glyph glyph-name="uni044E" unicode="ю" d="M-9 0L98 538h128l-41-207h73q26 110 65 158 47 57 140 57t126-63q17-33 17-80 0-36-19-134-20-99-36-144t-42-76Q462-8 369-8T243 55q-17 33-17 80 0 30 9 82h-73L119 0H-9m382 269q-21-101-21-128 0-18 9-27 8-8 22-8 24 0 37 21 15 23 39 142 21 101 21 128 0 18-9 27-8 8-22 8-24 0-37-21-15-23-39-142z" horiz-adv-x="616" vert-adv-y="1000"/><glyph glyph-name="uni044F" unicode="я" d="M-41 0L83 225q-33 26-33 83 0 37 5 62 19 97 58 132.5T223 538h198L314 0H186l39 194h-24L97 0H-41m287 304l25 122h-39q-23 0-33-14t-17-47q-4-18-4-32 0-29 32-29h36z" horiz-adv-x="410" vert-adv-y="1000"/><glyph glyph-name="uni0450" unicode="ѐ" d="M27 55q-17 33-17 80 0 36 19 134 20 99 36 144t42 76q47 57 143 57 80 0 115-50 23-33 23-90 0-54-25-179H148q-12-65-12-86 0-18 9-27 8-8 22-8 18 0 29 11 14 14 23 48h128q-18-73-53-116Q247-8 153-8 60-8 27 55m141 267h86q10 47 10 74 0 36-31 36-24 0-37-21-12-19-28-89m53 264l-57 143h100l43-143h-86z" horiz-adv-x="399" vert-adv-y="1000"/><glyph glyph-name="uni0451" unicode="ё" d="M27 55q-17 33-17 80 0 36 19 134 20 99 36 144t42 76q47 57 143 57 80 0 115-50 23-33 23-90 0-54-25-179H148q-12-65-12-86 0-18 9-27 8-8 22-8 18 0 29 11 14 14 23 48h128q-18-73-53-116Q247-8 153-8 60-8 27 55m141 267h86q10 47 10 74 0 36-31 36-24 0-37-21-12-19-28-89m-59 268l24 120h115l-24-120H109m187 0l24 120h115l-24-120H296z" horiz-adv-x="399" vert-adv-y="1000"/><glyph glyph-name="uni0452" unicode="ђ" d="M68 590l15 79h41l9 43h128l-9-43h144l-15-79H237l-17-83q23 21 35 27 24 12 51 12 62 0 89-45 15-26 15-66 0-15-9-61L327 0q-21-103-82-144-28-19-57.5-24.5T101-174l23 114q35 0 52.5 17.5T201 10l72 363q4 20 4 27 0 15-9 23.5t-23 8.5q-40 0-52-59L119 0H-9l118 590H68z" horiz-adv-x="422" vert-adv-y="1000"/><glyph glyph-name="uni0453" unicode="ѓ" d="M-9 0L98 538h292l-23-114H203L119 0H-9m200 586l100 143h108L281 586h-90z" horiz-adv-x="353" vert-adv-y="1000"/><glyph glyph-name="uni0454" unicode="є" d="M29 269q20 99 36 144t42 76q47 57 140 57t126-63q17-33 17-78 0-18-2-32H261q2 12 2 24 0 18-9 27-8 8-21 8-24 0-37-21-12-17-28-85h84l-22-108h-84q-10-57-10-77 0-18 9-27 8-8 22-8 18 0 29 11 14 14 23 48h128q-18-73-53-116Q247-8 153-8 60-8 27 55q-17 33-17 80 0 36 19 134z" horiz-adv-x="389" vert-adv-y="1000"/><glyph glyph-name="uni0455" unicode="ѕ" d="M29 36Q-3 68-3 124q0 17 4 37h126q-1-6-1-16 0-17 9-27 10-12 31-12 23 0 35 16t12 38q0 34-42 54l-49 23q-75 35-75 119 0 92 61 148 45 42 126 42 83 0 120-47 27-33 27-80 0-17-4-37H255q1 7 1 16 0 15-10 25-9 9-27 9t-30-12q-14-14-14-39 0-29 35-45l48-22q84-39 84-132 0-45-17.5-84T281 36Q231-8 152-8 72-8 29 36z" horiz-adv-x="386" vert-adv-y="1000"/><glyph glyph-name="uni0456" unicode="і" d="M-9 0L94 517h128L119 0H-9m115 578l27 134h128l-27-134H106z" horiz-adv-x="216" vert-adv-y="1000"/><glyph glyph-name="uni0457" unicode="ї" d="M-9 0L94 517h128L119 0H-9m29 590l24 120h115l-24-120H20m187 0l24 120h115l-24-120H207z" horiz-adv-x="216" vert-adv-y="1000"/><glyph glyph-name="uni0458" unicode="ј" d="M-8 10L94 517h128L118 0Q97-103 36-144q-28-19-57.5-24.5T-108-174l23 114q35 0 52.5 17.5T-8 10m114 568l27 134h128l-27-134H106z" horiz-adv-x="216" vert-adv-y="1000"/><glyph glyph-name="uni0459" unicode="љ" d="M232 0l84 424h-72l-39-195Q177 88 137.5 44T5 0h-47l22 114h19q15 0 24.5 3.5T45 133q12 12 21.5 39T85 243l59 295h323l-35-174h46q69 0 102-33 28-28 28-81 0-38-6-68-21-104-63.5-143T420 0H232m150 114h37q25 0 36 15.5t19 52.5q4 20 4 36 0 32-33 32h-35l-28-136z" horiz-adv-x="643" vert-adv-y="1000"/><glyph glyph-name="uni045A" unicode="њ" d="M195 0l49 250h-75L119 0H-9L98 538h128l-35-174h76l35 174h128l-35-174h46q69 0 102-33 28-28 28-81 0-38-6-68-21-104-63.5-143T383 0H195m150 114h37q25 0 36 15.5t19 52.5q4 20 4 36 0 32-33 32h-35l-28-136z" horiz-adv-x="606" vert-adv-y="1000"/><glyph glyph-name="uni045B" unicode="ћ" d="M68 590l15 79h41l9 43h128l-9-43h144l-15-79H237l-17-83q23 21 35 27 24 12 51 12 62 0 89-45 15-26 15-66 0-15-9-61L327 0H199l74 373q4 20 4 27 0 15-9 23.5t-23 8.5q-40 0-52-59L119 0H-9l118 590H68z" horiz-adv-x="422" vert-adv-y="1000"/><glyph glyph-name="uni045C" unicode="ќ" d="M236 0l-60 280 153 258h144L305 273 371 0H236M-9 0L98 538h128L119 0H-9m256 586l100 143h108L337 586h-90z" horiz-adv-x="432" vert-adv-y="1000"/><glyph glyph-name="uni045D" unicode="ѝ" d="M-9 0L98 538h128l-49-244 149 244h108L327 0H199l48 244L99 0H-9m245 586l-57 143h100l43-143h-86z" horiz-adv-x="424" vert-adv-y="1000"/><glyph glyph-name="uni045E" unicode="ў" d="M-23-60q44 2 60 8Q63-42 81 0L58 538h134l-6-343 127 343h146L199-49q-19-43-42.5-69T100-155.5q-33-11.5-63.5-15T-46-174l23 114m182 766h83v-5q0-33 40-33 45 0 55 38h84q-12-61-46.5-90T274 587q-54 0-86 24.5T156 678q0 13 3 28z" horiz-adv-x="404" vert-adv-y="1000"/><glyph glyph-name="uni045F" unicode="џ" d="M-9 0L98 538h128l-85-424h76l85 424h128L323 0H214l-29-140H71L100 0H-9z" horiz-adv-x="420" vert-adv-y="1000"/><glyph glyph-name="uni0462" unicode="Ѣ" d="M105 545l21 105h46l13 62h134l-13-62h58l-21-105h-58l-18-91h47q86 0 127-41 36-36 36-101 0-45-8-85-26-130-79-178.5T242 0H43l108 545h-46m96-425h48q39 0 56.5 24.5T335 227q7 35 7 56 0 26-12 38.5T289 334h-46l-42-214z" horiz-adv-x="508" vert-adv-y="1000"/><glyph glyph-name="uni0463" unicode="ѣ" d="M5 0l83 419H47l17 83h41l7 36h128l-8-36h81l-17-83h-80l-11-55h46q69 0 102-33 28-28 28-81 0-38-6-68-21-104-63.5-143T193 0H5m150 114h37q25 0 36 15.5t19 52.5q4 20 4 36 0 32-33 32h-35l-28-136z" horiz-adv-x="416" vert-adv-y="1000"/><glyph glyph-name="uni0472" unicode="Ѳ" d="M50 356q31 152 52.5 212.5T159 664q56 56 149 56 103 0 142-69 23-41 23-103 0-63-27-192-31-152-52.5-212.5T337 48Q281-8 188-8 85-8 46 61q-23 41-23 103 0 63 27 192m194-225q27 27 56 168H173q-16-92-16-133 0-54 44-54 24 0 43 19m8 450q-26-26-55-162h127q15 92 15 127 0 54-44 54-24 0-43-19z" horiz-adv-x="460" vert-adv-y="1000"/><glyph glyph-name="uni0473" unicode="ѳ" d="M29 269q20 99 36 144t42 76q47 57 140 57t126-63q17-33 17-80 0-36-19-134-20-99-36-144t-42-76Q245-8 153-8 60-8 27 55q-17 33-17 80 0 36 19 134m119-42q-12-65-12-86 0-18 9-27 8-8 22-8 24 0 37 21 15 25 30 100h-86m48 184q-12-19-28-89h85q11 61 11 75 0 18-9 27-8 8-22 8-24 0-37-21z" horiz-adv-x="400" vert-adv-y="1000"/><glyph glyph-name="uni0474" unicode="Ѵ" d="M102 0l-9 712h148l-29-507 129 370q25 73 75 105t152 32h15l-24-120q-41 0-62-13.5T462 532L242 0H102z" horiz-adv-x="508" vert-adv-y="1000"/><glyph glyph-name="uni0475" unicode="ѵ" d="M471 424h-3q-36 0-55-10.5T380 371L217 0H81L58 538h136l-6-337 80 212q28 75 71.5 100T478 538h16l-23-114z" horiz-adv-x="457" vert-adv-y="1000"/><glyph glyph-name="uni0490" unicode="Ґ" d="M-1 0l142 712h180l29 144h127l-53-264H251L133 0H-1z" horiz-adv-x="378" vert-adv-y="1000"/><glyph glyph-name="uni0491" unicode="ґ" d="M-9 0L98 538h177l28 140h115l-51-254H203L119 0H-9z" horiz-adv-x="353" vert-adv-y="1000"/><glyph glyph-name="uni0492" unicode="Ғ" d="M59 306l21 105h47l60 301h307l-24-120H297l-36-181h59l-21-105h-59L179 0H45l61 306H59z" horiz-adv-x="423" vert-adv-y="1000"/><glyph glyph-name="uni0493" unicode="ғ" d="M404 538l-23-114H217l-22-108h81l-17-83h-80L133 0H5l46 233H10l17 83h41l44 222h292z" horiz-adv-x="367" vert-adv-y="1000"/><glyph glyph-name="uni0496" unicode="Җ" d="M519 0l-68 369 197 343h151L588 362l49-242h48l-53-264H504L533 0h-14M-58 0l237 391-63 321h136l61-341L97 0H-58m299 0l142 712h134L375 0H241z" horiz-adv-x="726" vert-adv-y="1000"/><glyph glyph-name="uni0497" unicode="җ" d="M450 0l-58 279 154 259h148L522 272l38-158h51l-51-254H446L474 0h-24M-56 0l191 296-58 242h133l52-255L92 0H-56m263 0l107 538h128L335 0H207z" horiz-adv-x="648" vert-adv-y="1000"/><glyph glyph-name="uni049A" unicode="Қ" d="M272 0l-66 362 198 350h148L345 365l50-245h50l-53-264H264L293 0h-21M-1 0l142 712h134L133 0H-1z" horiz-adv-x="480" vert-adv-y="1000"/><glyph glyph-name="uni049B" unicode="қ" d="M236 0l-60 280 153 258h144L305 273l38-159h51l-51-254H229L257 0h-21M-9 0L98 538h128L119 0H-9z" horiz-adv-x="432" vert-adv-y="1000"/><glyph glyph-name="uni049C" unicode="Ҝ" d="M-1 0l142 712h134l-56-280h32l21 106h90l-21-106h23l129 280h148L479 378 518 0H380l-23 312h-40l-21-106h-90l21 106h-32L133 0H-1z" horiz-adv-x="574" vert-adv-y="1000"/><glyph glyph-name="uni049D" unicode="ҝ" d="M-9 0L98 538h128l-40-200h30l23 113h71l-23-113h22l87 200h143L418 285 449 0H312l-14 224h-34l-22-113h-71l22 113h-30L119 0H-9z" horiz-adv-x="504" vert-adv-y="1000"/><glyph glyph-name="uni04A2" unicode="Ң" d="M284-144L313 0h-66l60 302H193L133 0H-1l142 712h134l-58-290h114l58 290h134L405 120h60l-53-264H284z" horiz-adv-x="486" vert-adv-y="1000"/><glyph glyph-name="uni04A3" unicode="ң" d="M234-140L262 0h-63l43 217h-80L119 0H-9L98 538h128l-41-207h80l41 207h128l-85-424h50l-51-254H234z" horiz-adv-x="424" vert-adv-y="1000"/><glyph glyph-name="uni04AE" unicode="Ү" d="M84 0l54 273-45 439h139l7-264 107 264h146L270 263 218 0H84z" horiz-adv-x="408" vert-adv-y="1000"/><glyph glyph-name="uni04AF" unicode="ү" d="M50-174L81-16 58 538h138l-7-310 119 310h146L209-16l-31-158H50z" horiz-adv-x="404" vert-adv-y="1000"/><glyph glyph-name="uni04B0" unicode="Ұ" d="M66 184l16 79h54l2 10-45 439h139l7-264 107 264h146L270 263h50l-16-79h-50L218 0H84l36 184H66z" horiz-adv-x="408" vert-adv-y="1000"/><glyph glyph-name="uni04B1" unicode="ұ" d="M50-174l14 75H7l17 83h57L58 538h138l-7-310 119 310h146L209-16h59l-17-83h-59l-14-75H50z" horiz-adv-x="404" vert-adv-y="1000"/><glyph glyph-name="uni04B2" unicode="Ҳ" d="M224-144L253 0h-17l-27 222L110 0H-41l202 372-58 340h145l17-208 97 208h152L313 364l45-244h47l-53-264H224z" horiz-adv-x="442" vert-adv-y="1000"/><glyph glyph-name="uni04B3" unicode="ҳ" d="M211-140L239 0h-22l-32 148L101 0H-42l171 276-64 262h136l28-148 81 148h143L276 266l44-152h56l-51-254H211z" horiz-adv-x="412" vert-adv-y="1000"/><glyph glyph-name="uni04B6" unicode="Ҷ" d="M233 0l47 235q-35-4-60-4-157 0-157 120 0 24 13 85l55 276h134l-56-280q-5-24-5-41 0-40 49-40 26 0 50 3l72 358h134L391 120h60l-53-264H270L299 0h-66z" horiz-adv-x="472" vert-adv-y="1000"/><glyph glyph-name="uni04B7" unicode="ҷ" d="M178 0l34 170q-23-3-47-3-61 0-95 26.5T36 263q0 23 9 68l41 207h128l-40-202q-3-15-3-25 0-30 35-30 16 0 28 3l51 254h128l-85-424h51l-51-254H214L242 0h-64z" horiz-adv-x="403" vert-adv-y="1000"/><glyph glyph-name="uni04B8" unicode="Ҹ" d="M414 0H280l47 235q-19-3-35-3l-20-102h-89l20 103q-73 7-105.5 36T65 354q0 31 7 63l59 295h134l-58-288q-2-10-2-21 0-31 23-42l19 93h89l-20-103q14 0 34 3l72 358h134L414 0z" horiz-adv-x="520" vert-adv-y="1000"/><glyph glyph-name="uni04B9" unicode="ҹ" d="M225 0l34 170-23-3-21-107h-71l21 108q-66 5-97 30t-31 73q0 18 5 45l44 222h128l-40-202q-3-20 2-30t14-14l20 100h71l-22-109q15 0 23 3l50 252h128L353 0H225z" horiz-adv-x="450" vert-adv-y="1000"/><glyph glyph-name="uni04BA" unicode="Һ" d="M-11 0l142 712h134l-47-235q35 4 65 4 151 0 151-124 0-20-10-70L367 0H232l57 288q4 17 4 33 0 22-11.5 31t-38.5 9q-23 0-49-3L123 0H-11z" horiz-adv-x="472" vert-adv-y="1000"/><glyph glyph-name="uni04BB" unicode="һ" d="M-9 0L98 538h128l-34-170q23 3 45 3 131 0 131-102 0-17-10-68L318 0H190l40 202q3 15 3 25 0 17-8 23.5t-27 6.5q-16 0-29-3L119 0H-9z" horiz-adv-x="403" vert-adv-y="1000"/><glyph glyph-name="uni04C0" unicode="Ӏ" d="M-1 0l142 712h134L133 0H-1z" horiz-adv-x="238" vert-adv-y="1000"/><glyph glyph-name="uni04CF" unicode="ӏ" d="M-9 0l142 712h128L119 0H-9z" horiz-adv-x="216" vert-adv-y="1000"/><glyph glyph-name="uni04D8" unicode="Ә" d="M53 392h262q20 107 20 154 0 54-48 54-25 0-43-18t-29-70H81q24 114 76 161 51 47 145 47 54 0 86.5-15t55.5-50q24-37 24-107 0-62-26-192-30-151-52-212t-57-96Q277-8 184-8 81-8 42 61q-23 41-23 103t34 228m240-107H167q-14-76-14-119 0-54 44-54 24 0 43 19 26 26 53 154z" horiz-adv-x="459" vert-adv-y="1000"/><glyph glyph-name="uni04D9" unicode="ә" d="M36 311h214q11 53 11 85 0 19-9 28-8 8-22 8-23 0-37-20-11-18-15-38H52q21 84 69 129 46 43 128 43 77 0 113-50 25-34 25-91 0-56-16-136-22-104-44.5-157.5T272 31Q226-8 146-8 73-8 34 42q-23 33-23 90 0 54 25 179m195-95h-86q-10-47-10-74 0-36 31-36 23 0 37 20 14 21 28 90z" horiz-adv-x="399" vert-adv-y="1000"/><glyph glyph-name="uni04E2" unicode="Ӣ" d="M-1 0l142 712h134l-72-358 211 358h113L385 0H251l71 357L115 0H-1m217 769l16 81h252l-16-81H216z" horiz-adv-x="490" vert-adv-y="1000"/><glyph glyph-name="uni04E3" unicode="ӣ" d="M-9 0L98 538h128l-49-244 149 244h108L327 0H199l48 244L99 0H-9m155 600l16 81h252l-16-81H146z" horiz-adv-x="424" vert-adv-y="1000"/><glyph glyph-name="uni04E8" unicode="Ө" d="M50 356q31 152 52.5 212.5T159 664q56 56 149 56 103 0 142-69 23-41 23-103 0-63-27-192-31-152-52.5-212.5T337 48Q281-8 188-8 85-8 46 61q-23 41-23 103 0 63 27 192m194-225q27 27 56 168H173q-16-92-16-133 0-54 44-54 24 0 43 19m8 450q-26-26-55-162h127q15 92 15 127 0 54-44 54-24 0-43-19z" horiz-adv-x="460" vert-adv-y="1000"/><glyph glyph-name="uni04E9" unicode="ө" d="M29 269q20 99 36 144t42 76q47 57 140 57t126-63q17-33 17-80 0-36-19-134-20-99-36-144t-42-76Q245-8 153-8 60-8 27 55q-17 33-17 80 0 36 19 134m119-42q-12-65-12-86 0-18 9-27 8-8 22-8 24 0 37 21 15 25 30 100h-86m48 184q-12-19-28-89h85q11 61 11 75 0 18-9 27-8 8-22 8-24 0-37-21z" horiz-adv-x="400" vert-adv-y="1000"/><glyph glyph-name="uni04EE" unicode="Ӯ" d="M-2 0l24 120q47 0 71 15.5t40 55.5l16 42-56 479h137l14-299 135 299h142L236 154q-22-42-34-62.5T171 49q-19-22-40.5-30T77 5.5Q45 0-2 0m188 769l16 81h252l-16-81H186z" horiz-adv-x="436" vert-adv-y="1000"/><glyph glyph-name="uni04EF" unicode="ӯ" d="M-23-60q44 2 60 8Q63-42 81 0L58 538h134l-6-343 127 343h146L199-49q-19-43-42.5-69T100-155.5q-33-11.5-63.5-15T-46-174l23 114m159 660l16 81h252l-16-81H136z" horiz-adv-x="404" vert-adv-y="1000"/><glyph glyph-name="uni1E80" unicode="Ẁ" d="M85 0l8 712h143l-31-513 182 513h149l-12-513 164 513h143L564 0H412l8 504L237 0H85m338 755l-57 143h100l43-143h-86z" horiz-adv-x="746" vert-adv-y="1000"/><glyph glyph-name="uni1E81" unicode="ẁ" d="M65 0l-7 538h133l-19-331 134 331h100l3-332 109 332h137L431 0H317l-5 310L182 0H65m261 586l-57 143h100l43-143h-86z" horiz-adv-x="605" vert-adv-y="1000"/><glyph glyph-name="uni1E82" unicode="Ẃ" d="M85 0l8 712h143l-31-513 182 513h149l-12-513 164 513h143L564 0H412l8 504L237 0H85m328 755l100 143h108L503 755h-90z" horiz-adv-x="746" vert-adv-y="1000"/><glyph glyph-name="uni1E83" unicode="ẃ" d="M65 0l-7 538h133l-19-331 134 331h100l3-332 109 332h137L431 0H317l-5 310L182 0H65m251 586l100 143h108L406 586h-90z" horiz-adv-x="605" vert-adv-y="1000"/><glyph glyph-name="uni1E84" unicode="Ẅ" d="M85 0l8 712h143l-31-513 182 513h149l-12-513 164 513h143L564 0H412l8 504L237 0H85m226 759l24 120h115l-24-120H311m187 0l24 120h115l-24-120H498z" horiz-adv-x="746" vert-adv-y="1000"/><glyph glyph-name="uni1E85" unicode="ẅ" d="M65 0l-7 538h133l-19-331 134 331h100l3-332 109 332h137L431 0H317l-5 310L182 0H65m149 590l24 120h115l-24-120H214m187 0l24 120h115l-24-120H401z" horiz-adv-x="605" vert-adv-y="1000"/><glyph glyph-name="uni1E8A" unicode="Ẋ" d="M-41 0l202 372-58 340h145l17-208 97 208h152L313 364 381 0H236l-27 222L110 0H-41m298 759l24 120h114l-24-120H257z" horiz-adv-x="442" vert-adv-y="1000"/><glyph glyph-name="uni1E8B" unicode="ẋ" d="M-42 0l171 276-64 262h136l28-148 81 148h143L276 266 353 0H217l-32 148L101 0H-42m253 590l24 120h114l-24-120H211z" horiz-adv-x="412" vert-adv-y="1000"/><glyph glyph-name="uni1EF2" unicode="Ỳ" d="M84 0l54 273-45 439h139l7-264 107 264h146L270 263 218 0H84m170 755l-57 143h100l43-143h-86z" horiz-adv-x="408" vert-adv-y="1000"/><glyph glyph-name="uni1EF3" unicode="ỳ" d="M-23-60q44 2 60 8Q63-42 81 0L58 538h134l-6-343 127 343h146L199-49q-19-43-42.5-69T100-155.5q-33-11.5-63.5-15T-46-174l23 114m249 646l-57 143h100l43-143h-86z" horiz-adv-x="404" vert-adv-y="1000"/><glyph glyph-name="uni2013" unicode="–" d="M34 235l24 120h368l-24-120H34z" horiz-adv-x="448" vert-adv-y="1000"/><glyph glyph-name="uni2014" unicode="—" d="M34 235l24 120h616l-24-120H34z" horiz-adv-x="696" vert-adv-y="1000"/><glyph glyph-name="uni2015" unicode="―" d="M34 235l24 120h616l-24-120H34z" horiz-adv-x="696" vert-adv-y="1000"/><glyph glyph-name="uni2018" unicode="‘" d="M114 570l28 142 155 105-49-247H114z" horiz-adv-x="240" vert-adv-y="1000"/><glyph glyph-name="uni2019" unicode="’" d="M93 465l49 247h134l-28-142L93 465z" horiz-adv-x="240" vert-adv-y="1000"/><glyph glyph-name="uni201A" unicode="‚" d="M-21-105l49 247h134L134 0-21-105z" horiz-adv-x="240" vert-adv-y="1000"/><glyph glyph-name="uni201C" unicode="“" d="M114 570l28 142 155 105-49-247H114m203 0l28 142 155 105-49-247H317z" horiz-adv-x="444" vert-adv-y="1000"/><glyph glyph-name="uni201D" unicode="”" d="M93 465l49 247h134l-28-142L93 465m203 0l49 247h134l-28-142-155-105z" horiz-adv-x="444" vert-adv-y="1000"/><glyph glyph-name="uni201E" unicode="„" d="M-21-105l49 247h134L134 0-21-105m203 0l49 247h134L337 0 182-105z" horiz-adv-x="444" vert-adv-y="1000"/><glyph glyph-name="uni2020" unicode="†" d="M105 0l86 431H73l21 107h118l35 174h118l-35-174h118l-21-107H309L223 0H105z" horiz-adv-x="434" vert-adv-y="1000"/><glyph glyph-name="uni2021" unicode="‡" d="M-13 0L8 106h118l65 326H73l21 106h118l35 174h118l-35-174h118l-21-106H309l-65-326h118L341 0H223l-35-174H70L105 0H-13z" horiz-adv-x="434" vert-adv-y="1000"/><glyph glyph-name="uni2022" unicode="•" d="M112.5 227.5l-22.25 22.25Q68 272 68 334t44.5 106.5Q157 485 219 485t106.5-44.5Q370 396 370 334t-44.5-106.5Q281 183 219 183t-106.5 44.5z" horiz-adv-x="416" vert-adv-y="1000"/><glyph glyph-name="uni2026" unicode="…" d="M-3 0l28 140h142L139 0H-3m219 0l28 140h142L358 0H216m219 0l28 140h142L577 0H435z" horiz-adv-x="680" vert-adv-y="1000"/><glyph glyph-name="uni2030" unicode="‰" d="M847 130q-4-18-4-27 0-27 30-27 33 0 42 44l22 107q4 18 4 27 0 27-30 27-33 0-42-44l-22-107m-101-1l21 104q15 73 54 102.5T921 365q55 0 88-29t33-73q0-17-4-35l-21-104q-14-71-52-101.5T863-8q-55 0-88 29t-33 73q0 17 4 35M184 485q-4-18-4-27 0-27 30-27 33 0 42 44l22 107q4 18 4 27 0 27-30 27-33 0-42-44l-22-107m-101-1l21 104q15 73 54 102.5T258 720q55 0 88-29t33-73q0-17-4-35l-21-104q-14-71-52-101.5T200 347q-55 0-88 29t-33 73q0 17 4 35m436-354q-4-18-4-27 0-27 30-27 33 0 42 44l22 107q4 18 4 27 0 27-30 27-33 0-42-44l-22-107m-101-1l21 104q15 73 54 102.5T593 365q55 0 88-29t33-73q0-17-4-35l-21-104q-14-71-52-101.5T535-8q-55 0-88 29t-33 73q0 17 4 35M160 0l378 712h98L257 0h-97z" horiz-adv-x="1086" vert-adv-y="1000"/><glyph glyph-name="uni2039" unicode="‹" d="M134 9L23 280l220 270-38-187-77-90 41-90L134 9z" horiz-adv-x="225" vert-adv-y="1000"/><glyph glyph-name="uni203A" unicode="›" d="M97 550l111-271L-12 9l38 187 77 90-41 90 35 174z" horiz-adv-x="225" vert-adv-y="1000"/><glyph glyph-name="uni2044" unicode="⁄" d="M-156 0l376 712h89L-67 0h-89z" horiz-adv-x="117" vert-adv-y="1000"/><glyph glyph-name="uni2070" unicode="⁰" d="M124 613q11 55 41 79 31 25 84 25 50 0 73-21t25-57q0-16-4-33l-44-222q-11-55-41-79-31-25-84-25-50 0-73 21t-25 57q0 13 4 33l44 222m84-2l-45-222q-2-10-2-17 0-9 6.5-14.5T183 352q25 0 32 34l45 222q2 10 2 17 0 9-6.5 14.5T240 645q-25 0-32-34z" horiz-adv-x="330" vert-adv-y="1000"/><glyph glyph-name="uni2074" unicode="⁴" d="M58 347l14 69 164 296h84L162 419h41l10 50h83l-9-50h30l-15-72h-29l-13-62h-84l12 62H58z" horiz-adv-x="330" vert-adv-y="1000"/><glyph glyph-name="uni2075" unicode="⁵" d="M81 401h84l-2-9q-2-9-2-19 0-21 22-21 13 0 21 8 10 10 21 66 9 48 9 58 0 22-22 22t-33-33l-1-3H99l49 242h213l-15-72H209l-17-88q10 8 23 15 15 7 38 7 33 0 49-18 16-16 18-42 0-32-11-88-12-61-20-82t-27-37q-28-27-86-27-55 0-80 28-20 20-20 50 0 19 3 34l2 9z" horiz-adv-x="330" vert-adv-y="1000"/><glyph glyph-name="uni2076" unicode="⁶" d="M77 363q0 22 6 53 10 52 34 93l115 203h91L223 546q9 4 23 4 32 0 49.5-20.5T314 480q0-27-8-64-14-72-37-98-35-38-96-38-50 0-75 28-19 22-21 55m90 53q-6-28-6-42 0-23 20-23 15 0 22 10 8 10 19 55 6 28 6 42 0 23-20 23-15 0-22-10-8-10-19-55z" horiz-adv-x="330" vert-adv-y="1000"/><glyph glyph-name="uni2077" unicode="⁷" d="M94 285l176 355h-68l-9-47h-79l24 119h233l-12-63-179-364H94z" horiz-adv-x="330" vert-adv-y="1000"/><glyph glyph-name="uni2078" unicode="⁸" d="M123 598q14 68 40 92 28 27 82 27 55 0 79-27 20-20 20-52 0-22-4-40-10-48-23-66-15-21-32-31 7-6 14-16 8-12 8-40 0-22-3-38-8-45-15.5-63.5T264 309q-32-29-88-29-55 0-80 28-20 20-20 50 0 26 5 49 11 52 24 71 16 21 35 33-8 7-13 15-8 13-8 40 0 16 4 32m97-191q6 29 6 39 0 12-7 18-7 5-15 5-13 0-22-9t-17-53q-5-23-5-32 0-12 7-18 7-5 15-5 14 0 22 9 9 9 16 46m-16 186q-4-24-4-30 0-10 6-16 5-5 14-5 11 0 20 9 7 7 14 42 4 25 4 31 0 10-6 16-5 5-14 5-11 0-20-9-7-7-14-43z" horiz-adv-x="330" vert-adv-y="1000"/><glyph glyph-name="uni2079" unicode="⁹" d="M345 634q0-22-6-53-10-52-34-93L190 285H99l100 166q-9-4-23-4-32 0-49.5 20.5T108 517q0 27 8 64 14 72 37 98 35 38 96 38 50 0 75-28 19-22 21-55m-90-53q6 28 6 42 0 23-20 23-15 0-22-10-8-10-19-55-6-28-6-42 0-23 20-23 15 0 22 10 8 10 19 55z" horiz-adv-x="330" vert-adv-y="1000"/><glyph glyph-name="uni2080" unicode="₀" d="M37 178q11 55 41 79 31 25 84 25 50 0 73-21t25-57q0-16-4-33L212-51q-11-55-41-79-31-25-84-25-50 0-73 21t-25 57q0 13 4 33l44 222m84-2L76-46q-2-10-2-17 0-9 6.5-14.5T96-83q25 0 32 34l45 222q2 10 2 17 0 9-6.5 14.5T153 210q-25 0-32-34z" horiz-adv-x="330" vert-adv-y="1000"/><glyph glyph-name="uni2081" unicode="₁" d="M61-150l67 334-65-45 18 92 65 46h84l-85-427H61z" horiz-adv-x="330" vert-adv-y="1000"/><glyph glyph-name="uni2082" unicode="₂" d="M-24-150l13 65 152 196q13 16 23.5 40t10.5 37q0 22-22 22-25 0-31-29l-5-24H33l4 21q12 62 48 84 28 20 74 20 53 0 77-27 23-25 23-57 0-9-2-21-12-51-47-95L83-78h126l-14-72H-24z" horiz-adv-x="330" vert-adv-y="1000"/><glyph glyph-name="uni2083" unicode="₃" d="M32 155l4 24q11 57 48 83 26 20 76 20 52 0 75-26 19-20 19-56 0-14-4-38-8-40-25-61-12-16-30-25 30-17 30-58 0-18-6-44-10-49-18-67.5T175-128q-29-27-86-27-55 0-80 28-20 20-20 50 0 17 4 37l2 12h84l-3-15q-2-10-2-19 0-21 22-21 13 0 21 8 9 9 18 49 6 29 6 46 0 21-22 21h-19l14 67h16q12 0 19 7 11 11 17 45 4 20 4 31 0 19-18 19-24 0-30-26l-6-29H32z" horiz-adv-x="330" vert-adv-y="1000"/><glyph glyph-name="uni2084" unicode="₄" d="M-30-88l14 69 164 296h84L74-16h41l10 50h83l-9-50h30l-15-72h-29l-13-62H88l12 62H-30z" horiz-adv-x="330" vert-adv-y="1000"/><glyph glyph-name="uni2085" unicode="₅" d="M-6-34h84l-2-9q-2-9-2-19 0-21 22-21 13 0 21 8 10 10 21 66 9 48 9 58 0 22-22 22T92 38l-1-3H12l49 242h213l-15-72H122l-17-88q10 8 23 15 15 7 38 7 32 0 49-18 17-17 18-42 0-32-11-88-12-61-20-82t-27-37q-29-27-86-27-55 0-80 28-20 20-20 50 0 19 3 34l2 9z" horiz-adv-x="330" vert-adv-y="1000"/><glyph glyph-name="uni2086" unicode="₆" d="M-10-72q0 22 6 53Q6 33 30 74l115 203h91L136 111q9 4 23 4 32 0 49.5-20.5T227 45q0-27-8-64-14-72-37-98-35-38-96-38-50 0-75 28-19 22-21 55m90 53q-6-28-6-42 0-23 20-23 15 0 22 10 8 10 19 55 6 28 6 42 0 23-20 23-15 0-22-10-8-10-19-55z" horiz-adv-x="330" vert-adv-y="1000"/><glyph glyph-name="uni2087" unicode="₇" d="M6-150l176 355h-68l-9-47H26l24 119h233l-12-63L92-150H6z" horiz-adv-x="330" vert-adv-y="1000"/><glyph glyph-name="uni2088" unicode="₈" d="M36 163q14 68 40 92 28 27 82 27 55 0 79-27 20-20 20-52 0-22-4-40-10-48-23-66-15-21-32-31 8-6 14-16 8-12 8-40 0-22-3-38-8-45-15.5-63.5T177-126q-32-29-88-29-55 0-80 28-20 20-20 50 0 27 5 49Q5 24 18 43q16 21 35 33-8 7-13 15-8 13-8 40 0 16 4 32m97-191q6 29 6 39 0 12-7 18-7 5-15 5-13 0-22-9T78-28q-5-23-5-32 0-12 7-18 7-5 15-5 14 0 22 9 9 9 16 46m-16 186q-4-24-4-30 0-10 6-16 5-5 14-5 11 0 20 9 7 7 14 42 4 25 4 31 0 10-6 16-5 5-14 5-11 0-20-9-7-7-14-43z" horiz-adv-x="330" vert-adv-y="1000"/><glyph glyph-name="uni2089" unicode="₉" d="M258 199q0-21-6-53-10-52-34-93L103-150H12L112 16q-9-4-23-4-32 0-49.5 20.5T21 82q0 27 8 64 14 72 37 98 35 38 96 38 50 0 75-28 19-22 21-55m-90-53q6 28 6 42 0 23-20 23-15 0-22-10-8-10-19-55-6-28-6-42 0-23 20-23 15 0 22 10 8 10 19 55z" horiz-adv-x="330" vert-adv-y="1000"/><glyph glyph-name="uni20AC" unicode="€" d="M64 391l19 96h51q18 74 36 112.5t44 64.5q56 56 148 56 90 0 132-52 34-42 34-110 0-28-2-45H392q2 15 2 37 0 50-43 50-25 0-44-19-21-21-40-94h91l-19-96h-93l-14-70h92l-19-96h-89q-4-31-4-59 0-54 43-54 32 0 51 27 16 23 25 61h136Q444 90 385 38 333-8 243-8 140-8 101 61q-23 41-23 103 0 29 4 61H30l19 96h49l14 70H64z" horiz-adv-x="511" vert-adv-y="1000"/><glyph glyph-name="uni20B4" unicode="₴" d="M475 261H216q-17-21-25-58-3-15-3-39 0-27 12-39 13-13 35-13 26 0 44 18 15 15 26 70h134q-13-67-27-98.5T371 43Q320-8 224-8q-50 0-79 9.5T92 35Q50 77 50 159q0 32 5 57 5 26 13 45H31l15 74h78q29 22 68 42l12 6H55l15 74h266q21 21 29 58 3 15 3 38t-12 35q-12 12-30 12-24 0-40-18-16-19-26-69H127q25 119 79 163 55 44 131 44 80 0 124-44 40-40 40-118 0-33-4-53-7-31-13-48h30l-15-74h-77q-19-12-49-28l-39-20h156l-15-74z" horiz-adv-x="508" vert-adv-y="1000"/><glyph glyph-name="uni2116" unicode="№" d="M-1 0l142 712h118l71-350 70 350h134L392 0H277l-74 350L133 0H-1m542 539q22 109 51 141 32 37 95 37 68 0 90-40 13-23 13-60 0-27-11-78-22-109-51-141-32-37-95-37-68 0-90 40-13 23-13 60 0 27 11 78m95 0q-11-58-11-82 0-19 15-19 10 0 19 13 13 21 25 88 11 58 11 82 0 19-15 19-10 0-19-13-13-21-25-88M494 258l14 72h220l-14-72H494z" horiz-adv-x="767" vert-adv-y="1000"/><glyph glyph-name="uni2122" unicode="™" d="M281 271l88 441h72l32-216 117 216h73l-88-441h-82l46 229-73-146h-45l-12 146-46-229h-82m-193 0l72 364H92l16 77h218l-16-77h-68l-72-364H88z" horiz-adv-x="616" vert-adv-y="1000"/><glyph glyph-name="uni2126" unicode="Ω" d="M446 356q-34-161-63-211-11-18-26-30h46L380 0H206l20 101q20 14 33 47 23 60 53 208 27 135 27 190 0 54-44 54-24 0-43-19-17-17-31-64t-37-161q-30-150-30-212 0-31 14-43L148 0H-26l23 115h53q-21 23-21 76 0 64 21 165 31 152 52.5 212.5T159 664q56 56 149 56 103 0 142-69 23-41 23-103 0-63-27-192z" horiz-adv-x="460" vert-adv-y="1000"/><glyph glyph-name="uni2150" unicode="⅐" d="M149 285l67 334-65-45 18 92 65 46h84l-85-427h-84M174 0l376 712h89L263 0h-89m309 0l176 355h-68l-9-47h-79l24 119h233l-12-63L569 0h-86z" horiz-adv-x="777" vert-adv-y="1000"/><glyph glyph-name="uni2151" unicode="⅑" d="M149 285l67 334-65-45 18 92 65 46h84l-85-427h-84M174 0l376 712h89L263 0h-89m561 349q0-21-6-53-10-52-34-93L580 0h-91l100 166q-9-4-23-4-32 0-49.5 20.5T498 232q0 27 8 64 14 72 37 98 35 38 96 38 50 0 75-28 19-22 21-55m-90-53q6 28 6 42 0 23-20 23-15 0-22-10-8-10-19-55-6-28-6-42 0-23 20-23 15 0 22 10 8 10 19 55z" horiz-adv-x="777" vert-adv-y="1000"/><glyph glyph-name="uni2152" unicode="⅒" d="M149 285l67 334-65-45 18 92 65 46h84l-85-427h-84M174 0l376 712h89L263 0h-89m364 0l67 334-65-45 18 92 65 46h84L622 0h-84m306 328q11 55 41 79 31 25 84 25 50 0 73-21t25-57q0-16-4-33l-44-222q-11-55-41-79-31-25-84-25-50 0-73 21t-25 57q0 13 4 33l44 222m84-2l-45-222q-2-10-2-17 0-9 6.5-14.5T903 67q25 0 32 34l45 222q2 10 2 17 0 9-6.5 14.5T960 360q-25 0-32-34z" horiz-adv-x="1107" vert-adv-y="1000"/><glyph glyph-name="uni2153" unicode="⅓" d="M149 285l67 334-65-45 18 92 65 46h84l-85-427h-84M174 0l376 712h89L263 0h-89m335 305l4 24q11 57 48 83 26 20 76 20 52 0 75-26 19-20 19-56 0-14-4-38-8-40-25-61-12-16-30-25 30-17 30-58 0-18-6-44-10-49-18-67.5T652 22Q624-5 566-5q-55 0-80 28-20 20-20 50 0 17 4 37l2 12h84l-3-15q-2-10-2-19 0-21 22-21 13 0 21 8 9 9 18 49 6 29 6 46 0 21-22 21h-19l14 67h16q12 0 19 7 11 11 17 45 4 20 4 31 0 19-18 19-24 0-30-26l-6-29h-84z" horiz-adv-x="777" vert-adv-y="1000"/><glyph glyph-name="uni2154" unicode="⅔" d="M63 285l13 65 152 196q13 16 23.5 40t10.5 37q0 22-22 22-25 0-31-29l-5-24h-84l4 21q12 62 48 84 28 20 74 20 53 0 77-27 23-25 23-57 0-9-2-21-12-51-47-95L170 357h126l-14-72H63M174 0l376 712h89L263 0h-89m335 305l4 24q11 57 48 83 26 20 76 20 52 0 75-26 19-20 19-56 0-14-4-38-8-40-25-61-12-16-30-25 30-17 30-58 0-18-6-44-10-49-18-67.5T652 22Q624-5 566-5q-55 0-80 28-20 20-20 50 0 17 4 37l2 12h84l-3-15q-2-10-2-19 0-21 22-21 13 0 21 8 9 9 18 49 6 29 6 46 0 21-22 21h-19l14 67h16q12 0 19 7 11 11 17 45 4 20 4 31 0 19-18 19-24 0-30-26l-6-29h-84z" horiz-adv-x="777" vert-adv-y="1000"/><glyph glyph-name="uni2155" unicode="⅕" d="M149 285l67 334-65-45 18 92 65 46h84l-85-427h-84M174 0l376 712h89L263 0h-89m297 116h84l-2-9q-2-9-2-19 0-21 22-21 13 0 21 8 10 10 21 66 9 48 9 58 0 22-22 22t-33-33l-1-3h-79l49 242h213l-15-72H599l-17-88q10 8 23 15 15 7 38 7 33 0 49-18 16-17 18-42 0-32-11-88-12-61-20-82t-27-37Q624-5 566-5q-55 0-80 28-20 20-20 50 0 19 3 34l2 9z" horiz-adv-x="777" vert-adv-y="1000"/><glyph glyph-name="uni2156" unicode="⅖" d="M63 285l13 65 152 196q13 16 23.5 40t10.5 37q0 22-22 22-25 0-31-29l-5-24h-84l4 21q12 62 48 84 28 20 74 20 53 0 77-27 23-25 23-57 0-9-2-21-12-51-47-95L170 357h126l-14-72H63M174 0l376 712h89L263 0h-89m297 116h84l-2-9q-2-9-2-19 0-21 22-21 13 0 21 8 10 10 21 66 9 48 9 58 0 22-22 22t-33-33l-1-3h-79l49 242h213l-15-72H599l-17-88q10 8 23 15 15 7 38 7 33 0 49-18 16-17 18-42 0-32-11-88-12-61-20-82t-27-37Q624-5 566-5q-55 0-80 28-20 20-20 50 0 19 3 34l2 9z" horiz-adv-x="777" vert-adv-y="1000"/><glyph glyph-name="uni2157" unicode="⅗" d="M119 590l4 24q11 57 48 83 26 20 76 20 52 0 75-26 19-20 19-56 0-14-4-38-8-40-25-61-12-16-30-25 30-17 30-58 0-18-6-44-10-49-18-67.5T262 307q-28-27-86-27-55 0-80 28-20 20-20 50 0 17 4 37l2 12h84l-3-15q-2-10-2-19 0-21 22-21 13 0 21 8 9 9 18 49 6 29 6 46 0 21-22 21h-19l14 67h16q12 0 19 7 11 11 17 45 4 20 4 31 0 19-18 19-24 0-30-26l-6-29h-84M174 0l376 712h89L263 0h-89m297 116h84l-2-9q-2-9-2-19 0-21 22-21 13 0 21 8 10 10 21 66 9 48 9 58 0 22-22 22t-33-33l-1-3h-79l49 242h213l-15-72H599l-17-88q10 8 23 15 15 7 38 7 33 0 49-18 16-17 18-42 0-32-11-88-12-61-20-82t-27-37Q624-5 566-5q-55 0-80 28-20 20-20 50 0 19 3 34l2 9z" horiz-adv-x="777" vert-adv-y="1000"/><glyph glyph-name="uni2158" unicode="⅘" d="M58 347l14 69 164 296h84L162 419h41l10 50h83l-9-50h30l-15-72h-29l-13-62h-84l12 62H58M174 0l376 712h89L263 0h-89m297 116h84l-2-9q-2-9-2-19 0-21 22-21 13 0 21 8 10 10 21 66 9 48 9 58 0 22-22 22t-33-33l-1-3h-79l49 242h213l-15-72H599l-17-88q10 8 23 15 15 7 38 7 33 0 49-18 16-17 18-42 0-32-11-88-12-61-20-82t-27-37Q624-5 566-5q-55 0-80 28-20 20-20 50 0 19 3 34l2 9z" horiz-adv-x="777" vert-adv-y="1000"/><glyph glyph-name="uni2159" unicode="⅙" d="M149 285l67 334-65-45 18 92 65 46h84l-85-427h-84M174 0l376 712h89L263 0h-89m293 78q0 22 6 53 10 52 34 93l115 203h91L613 261q9 4 23 4 32 0 49.5-20.5T704 195q0-27-8-64-14-72-37-98-35-38-96-38-50 0-75 28-19 22-21 55m90 53q-6-28-6-42 0-23 20-23 15 0 22 10 8 10 19 55 6 28 6 42 0 23-20 23-15 0-22-10-8-10-19-55z" horiz-adv-x="777" vert-adv-y="1000"/><glyph glyph-name="uni215A" unicode="⅚" d="M81 401h84l-2-9q-2-9-2-19 0-21 22-21 13 0 21 8 10 10 21 66 9 48 9 58 0 22-22 22t-33-33l-1-3H99l49 242h213l-15-72H209l-17-88q10 8 23 15 15 7 38 7 33 0 49-18 16-16 18-42 0-32-11-88-12-61-20-82t-27-37q-28-27-86-27-55 0-80 28-20 20-20 50 0 19 3 34l2 9M174 0l376 712h89L263 0h-89m293 78q0 22 6 53 10 52 34 93l115 203h91L613 261q9 4 23 4 32 0 49.5-20.5T704 195q0-27-8-64-14-72-37-98-35-38-96-38-50 0-75 28-19 22-21 55m90 53q-6-28-6-42 0-23 20-23 15 0 22 10 8 10 19 55 6 28 6 42 0 23-20 23-15 0-22-10-8-10-19-55z" horiz-adv-x="777" vert-adv-y="1000"/><glyph glyph-name="uni215B" unicode="⅛" d="M149 285l67 334-65-45 18 92 65 46h84l-85-427h-84M174 0l376 712h89L263 0h-89m339 313q9 42 17 59.5t23 32.5q28 27 82 27 55 0 79-27 20-20 20-52 0-22-4-40-10-48-23-66-15-21-32-31 7-6 14-16 8-12 8-40 0-22-3-38-8-45-15.5-63.5T654 24Q622-5 566-5q-55 0-80 28-20 20-20 50 0 27 5 49 11 52 24 71 16 21 35 33-8 7-13 15-8 13-8 40 0 16 4 32m97-191q6 29 6 39 0 12-7 18-7 5-15 5-13 0-22-9t-17-53q-5-23-5-32 0-12 7-18 7-5 15-5 14 0 22 9 9 9 16 46m-16 186q-4-24-4-30 0-10 6-16 5-5 14-5 11 0 20 9 7 7 14 42 4 25 4 31 0 10-6 16-5 5-14 5-11 0-20-9-7-7-14-43z" horiz-adv-x="777" vert-adv-y="1000"/><glyph glyph-name="uni215C" unicode="⅜" d="M119 590l4 24q11 57 48 83 26 20 76 20 52 0 75-26 19-20 19-56 0-14-4-38-8-40-25-61-12-16-30-25 30-17 30-58 0-18-6-44-10-49-18-67.5T262 307q-28-27-86-27-55 0-80 28-20 20-20 50 0 17 4 37l2 12h84l-3-15q-2-10-2-19 0-21 22-21 13 0 21 8 9 9 18 49 6 29 6 46 0 21-22 21h-19l14 67h16q12 0 19 7 11 11 17 45 4 20 4 31 0 19-18 19-24 0-30-26l-6-29h-84M174 0l376 712h89L263 0h-89m339 313q9 42 17 59.5t23 32.5q28 27 82 27 55 0 79-27 20-20 20-52 0-22-4-40-10-48-23-66-15-21-32-31 7-6 14-16 8-12 8-40 0-22-3-38-8-45-15.5-63.5T654 24Q622-5 566-5q-55 0-80 28-20 20-20 50 0 27 5 49 11 52 24 71 16 21 35 33-8 7-13 15-8 13-8 40 0 16 4 32m97-191q6 29 6 39 0 12-7 18-7 5-15 5-13 0-22-9t-17-53q-5-23-5-32 0-12 7-18 7-5 15-5 14 0 22 9 9 9 16 46m-16 186q-4-24-4-30 0-10 6-16 5-5 14-5 11 0 20 9 7 7 14 42 4 25 4 31 0 10-6 16-5 5-14 5-11 0-20-9-7-7-14-43z" horiz-adv-x="777" vert-adv-y="1000"/><glyph glyph-name="uni215D" unicode="⅝" d="M81 401h84l-2-9q-2-9-2-19 0-21 22-21 13 0 21 8 10 10 21 66 9 48 9 58 0 22-22 22t-33-33l-1-3H99l49 242h213l-15-72H209l-17-88q10 8 23 15 15 7 38 7 33 0 49-18 16-16 18-42 0-32-11-88-12-61-20-82t-27-37q-28-27-86-27-55 0-80 28-20 20-20 50 0 19 3 34l2 9M174 0l376 712h89L263 0h-89m339 313q9 42 17 59.5t23 32.5q28 27 82 27 55 0 79-27 20-20 20-52 0-22-4-40-10-48-23-66-15-21-32-31 7-6 14-16 8-12 8-40 0-22-3-38-8-45-15.5-63.5T654 24Q622-5 566-5q-55 0-80 28-20 20-20 50 0 27 5 49 11 52 24 71 16 21 35 33-8 7-13 15-8 13-8 40 0 16 4 32m97-191q6 29 6 39 0 12-7 18-7 5-15 5-13 0-22-9t-17-53q-5-23-5-32 0-12 7-18 7-5 15-5 14 0 22 9 9 9 16 46m-16 186q-4-24-4-30 0-10 6-16 5-5 14-5 11 0 20 9 7 7 14 42 4 25 4 31 0 10-6 16-5 5-14 5-11 0-20-9-7-7-14-43z" horiz-adv-x="777" vert-adv-y="1000"/><glyph glyph-name="uni215E" unicode="⅞" d="M94 285l176 355h-68l-9-47h-79l24 119h233l-12-63-179-364H94M174 0l376 712h89L263 0h-89m339 313q9 42 17 59.5t23 32.5q28 27 82 27 55 0 79-27 20-20 20-52 0-22-4-40-10-48-23-66-15-21-32-31 7-6 14-16 8-12 8-40 0-22-3-38-8-45-15.5-63.5T654 24Q622-5 566-5q-55 0-80 28-20 20-20 50 0 27 5 49 11 52 24 71 16 21 35 33-8 7-13 15-8 13-8 40 0 16 4 32m97-191q6 29 6 39 0 12-7 18-7 5-15 5-13 0-22-9t-17-53q-5-23-5-32 0-12 7-18 7-5 15-5 14 0 22 9 9 9 16 46m-16 186q-4-24-4-30 0-10 6-16 5-5 14-5 11 0 20 9 7 7 14 42 4 25 4 31 0 10-6 16-5 5-14 5-11 0-20-9-7-7-14-43z" horiz-adv-x="777" vert-adv-y="1000"/><glyph glyph-name="uni215F" unicode="⅟" d="M149 285l67 334-65-45 18 92 65 46h84l-85-427h-84M174 0l376 712h89L263 0h-89z" horiz-adv-x="447" vert-adv-y="1000"/><glyph glyph-name="uni2189" unicode="↉" d="M124 613q11 55 41 79 31 25 84 25 50 0 73-21t25-57q0-16-4-33l-44-222q-11-55-41-79-31-25-84-25-50 0-73 21t-25 57q0 13 4 33l44 222m84-2l-45-222q-2-10-2-17 0-9 6.5-14.5T183 352q25 0 32 34l45 222q2 10 2 17 0 9-6.5 14.5T240 645q-25 0-32-34M174 0l376 712h89L263 0h-89m335 305l4 24q11 57 48 83 26 20 76 20 52 0 75-26 19-20 19-56 0-14-4-38-8-40-25-61-12-16-30-25 30-17 30-58 0-18-6-44-10-49-18-67.5T652 22Q624-5 566-5q-55 0-80 28-20 20-20 50 0 17 4 37l2 12h84l-3-15q-2-10-2-19 0-21 22-21 13 0 21 8 9 9 18 49 6 29 6 46 0 21-22 21h-19l14 67h16q12 0 19 7 11 11 17 45 4 20 4 31 0 19-18 19-24 0-30-26l-6-29h-84z" horiz-adv-x="777" vert-adv-y="1000"/><glyph glyph-name="uni2190" unicode="←" d="M291 27L23 295l268 268h170L254 359h473V231H254L461 27H291z" horiz-adv-x="768" vert-adv-y="1000"/><glyph glyph-name="uni2191" unicode="↑" d="M117 219v170l268 268 268-268V219L449 426V-47H321v473L117 219z" horiz-adv-x="768" vert-adv-y="1000"/><glyph glyph-name="uni2192" unicode="→" d="M43 231v128h473L309 563h170l268-268L479 27H309l207 204H43z" horiz-adv-x="768" vert-adv-y="1000"/><glyph glyph-name="uni2193" unicode="↓" d="M117 201v170l204-207v473h128V164l204 207V201L385-67 117 201z" horiz-adv-x="768" vert-adv-y="1000"/><glyph glyph-name="uni2196" unicode="↖" d="M136 175v379h379l120-120-290 2 334-335-90-90-335 334 2-290-120 120z" horiz-adv-x="768" vert-adv-y="1000"/><glyph glyph-name="uni2197" unicode="↗" d="M91 101l334 335-290-2 120 120h379V175L514 55l2 290L181 11l-90 90z" horiz-adv-x="768" vert-adv-y="1000"/><glyph glyph-name="uni2198" unicode="↘" d="M134 157l292-3L91 489l91 90 334-334-2 290 120-120-1-379H254L134 157z" horiz-adv-x="768" vert-adv-y="1000"/><glyph glyph-name="uni2199" unicode="↙" d="M136 36v379l120 120-2-290 335 334 90-90-334-335 290 2L515 36H136z" horiz-adv-x="768" vert-adv-y="1000"/><glyph glyph-name="uni2202" unicode="∂" d="M27 56q-16 29-16 78 0 36 15 109 22 107 35.5 148.5T101 458q37 36 100 36 30 0 52-14 19-12 29-26l7 37q11 60 11 75 0 18-8 27-10 13-30 13-31 0-60-27l-62 82q56 59 149 59 75 0 113-46 28-34 28-85 0-40-16-116l-41-204Q339 96 297 47 251-8 152-8 62-8 27 56m111 84q0-16 6-23 8-11 26-11 25 0 37 18 13 20 33 119 16 77 16 103 0 14-4 21-7 13-27 13-25 0-37-18-14-18-34-119-16-75-16-103z" horiz-adv-x="418" vert-adv-y="1000"/><glyph glyph-name="uni2206" unicode="∆" d="M-47 0l316 712h132L433 0H-47m196 120h151l3 395-154-395z" horiz-adv-x="492" vert-adv-y="1000"/><glyph glyph-name="uni220F" unicode="∏" d="M-36-174l187 934h382L346-174H212l163 814H261L98-174H-36z" horiz-adv-x="486" vert-adv-y="1000"/><glyph glyph-name="uni2211" unicode="∑" d="M-39-79l209 389-61 353 20 97h333l-24-120H245l41-269-25-136L108-56h190l-24-120H-58l19 97z" horiz-adv-x="393" vert-adv-y="1000"/><glyph glyph-name="uni2212" unicode="−" d="M34 235l24 120h368l-24-120H34z" horiz-adv-x="448" vert-adv-y="1000"/><glyph glyph-name="uni2219" unicode="∙" d="M120.5 188.5l-22.25 22.25Q76 233 76 295t44.5 106.5Q165 446 227 446t106.5-44.5Q378 357 378 295t-44.5-106.5Q289 144 227 144t-106.5 44.5z" horiz-adv-x="448" vert-adv-y="1000"/><glyph glyph-name="uni221A" unicode="√" d="M69 0L58 538h138l-16-337 190 511h194l-24-120h-79L210 0H69z" horiz-adv-x="494" vert-adv-y="1000"/><glyph glyph-name="uni221E" unicode="∞" d="M88.5 185l-20.25 21.5Q48 228 48 295t40.5 110Q129 448 204 448q74 0 139-70 65 70 139 70 75 0 115.5-43T638 295q0-67-40.5-110T482 142q-74 0-139 70-65-70-139-70-75 0-115.5 43M177 319l-5.5-5q-5.5-5-5.5-23t11-27.5q11-9.5 26-9.5 22 0 53 37-32 38-53 38-15 0-26-10m253-28q31-37 53-37 15 0 26 9.5t11 27.5q0 18-11 28t-26 10q-21 0-53-38z" horiz-adv-x="678" vert-adv-y="1000"/><glyph glyph-name="uni222B" unicode="∫" d="M372 722l-23-114q-35 0-52.5-17.5T272 538L164 0q-21-103-82-144-28-19-57.5-24.5T-62-174l23 114q35 0 52.5 17.5T38 10l108 538q21 103 82 144 28 19 57.5 24.5T372 722z" horiz-adv-x="310" vert-adv-y="1000"/><glyph glyph-name="uni2248" unicode="≈" d="M62 119l-63 83q83 73 148 73 44 0 84-28 28-20 61-20 38 0 78 40l64-83q-83-73-148-73-44 0-84 28-28 20-61 20-39 0-79-40m40 203l-63 83q83 73 148 73 44 0 84-28 28-20 61-20 38 0 78 40l64-83q-83-73-148-73-44 0-84 28-28 20-61 20-39 0-79-40z" horiz-adv-x="448" vert-adv-y="1000"/><glyph glyph-name="uni2260" unicode="≠" d="M-16 75l51 63H0l24 120h109l60 74H39l24 120h227l104 127 82-64-52-63h37l-24-120H327l-61-74h156l-24-120H168L65 11l-81 64z" horiz-adv-x="448" vert-adv-y="1000"/><glyph glyph-name="uni2264" unicode="≤" d="M17 193l28 139 296-208-28-139L17 193m44 219l19 93 379 208-31-156-204-108 161-109-28-136L61 412z" horiz-adv-x="402" vert-adv-y="1000"/><glyph glyph-name="uni2265" unicode="≥" d="M-25-15L3 124l380 208-28-139L-25-15m443 515l-19-93L20 199l31 156 204 108L94 572l28 136 296-208z" horiz-adv-x="402" vert-adv-y="1000"/><glyph glyph-name="uni22C5" unicode="⋅" d="M126 210l34 170h172l-34-170H126z" horiz-adv-x="448" vert-adv-y="1000"/><glyph glyph-name="uni25CA" unicode="◊" d="M196 52L51 344l246 272 144-292L196 52m33 196l77 86-42 86-78-86 43-86z" horiz-adv-x="466" vert-adv-y="1000"/><glyph glyph-name="uniFB01" unicode="ﬁ" d="M13 0l84 421H50l19 96h47l6 29q21 103 82 144 28 19 57.5 24.5T348 720l-23-114q-35 0-52.5-17.5T248 536l-4-19h63l-19-96h-63L141 0H13m238 0l103 517h128L379 0H251m115 578l27 134h128l-27-134H366z" horiz-adv-x="476" vert-adv-y="1000"/><glyph glyph-name="uniFB02" unicode="ﬂ" d="M13 0l84 421H50l19 96h47l6 29q21 103 82 144 28 19 57.5 24.5T348 720l-23-114q-35 0-52.5-17.5T248 536l-4-19h63l-19-96h-63L141 0H13m305 35q-37 34-37 93 0 25 5 50l107 534h128L416 187q-3-15-3-30 0-43 50-43L441 0q-83 0-123 35z" horiz-adv-x="511" vert-adv-y="1000"/></font>
</defs>
</svg>
