<svg><defs><font id="DINPro-CondensedItalic" horiz-adv-x="963" vert-adv-y="963"><font-face font-family="DIN Pro Cond" font-weight="400" ascent="931" descent="-210"/><glyph glyph-name="uni21" unicode="!" d="M80 182l104 530h55L132 182H80M35 0l14 74h69L104 0H35z" horiz-adv-x="212" vert-adv-y="1000"/><glyph glyph-name="uni22" unicode="&quot;" d="M113 530l36 182h60l-36-182h-60m153 0l36 182h60l-36-182h-60z" horiz-adv-x="328" vert-adv-y="1000"/><glyph glyph-name="uni23" unicode="#" d="M34 0l81 231H48l10 50h74l57 162h-74l11 50h81l76 219h52l-77-219h95l76 219h52l-76-219h61l-10-50h-68l-57-162h68l-11-50h-75L232 0h-52l81 231h-95L86 0H34m150 281h95l56 162h-95l-56-162z" horiz-adv-x="471" vert-adv-y="1000"/><glyph glyph-name="uni24" unicode="$" d="M23 179h56q-8-37-8-66t13-46q13-18 38-22l61 305-25 12q-36 18-51.5 41.5T91 468q0 26 7 64 12 58 27 91t39 56q35 35 89 38l18 89h50l-19-91q38-7 62-35 22-28 22-74 0-28-9-72h-55q8 37 8 66t-13 46q-12 15-29 19l-55-275 19-9q42-20 58.5-45t16.5-62q0-38-11-91-13-63-27-96t-39-55Q215 1 161-5l-22-109H88L110-4Q63 1 38 31q-23 28-23 76 0 24 8 72m246 85q0 44-47 67L165 46q28 5 46 23 19 19 29.5 43t19.5 71q9 42 9 81M148 479q0-29 11-44t33-26l3-1 52 258q-23-4-44-22-33-30-49-112-6-30-6-53z" horiz-adv-x="372" vert-adv-y="1000"/><glyph glyph-name="uni25" unicode="%" d="M135 446q-3-15-3-24 0-38 41-38 43 0 55 57l36 179q3 15 3 25 0 37-41 37-43 0-55-57l-36-179m-45 0l35 175q11 51 36 75t70 24q39 0 60-20.5t21-52.5q0-12-3-27l-35-175q-11-51-36-75t-71-24q-39 0-59.5 20.5T87 419q0 12 3 27M362 92q-3-15-3-25 0-37 40-37 44 0 56 57l36 179q3 15 3 24 0 38-41 38-43 0-55-57L362 92m-45 0l35 175q11 51 36 75t70 24q39 0 60-20.5t21-52.5q0-7-4-27L500 91Q481-8 394-8q-39 0-59.5 20.5T314 65q0 12 3 27M101 0l378 712h44L144 0h-43z" horiz-adv-x="585" vert-adv-y="1000"/><glyph glyph-name="uni26" unicode="&amp;" d="M14 129q0 132 165 259-30 71-41.5 105T126 557q0 67 38.5 114T272 718q54 0 83.5-30.5T385 603q0-57-28.5-103.5T273 406l-33-28 86-201q52 66 76 173h49q-30-133-104-224L401 0h-58l-35 82Q223-8 143-8 81-8 47.5 28T14 129m54 5q0-41 20.5-66.5T148 42q33 0 64.5 20t75.5 68l-91 213q-61-54-95-102T68 134m154 289l27 23q82 68 82 153 0 35-17 52.5T270 669q-38 0-63.5-31.5T181 560q0-46 41-137z" horiz-adv-x="456" vert-adv-y="1000"/><glyph glyph-name="uni27" unicode="'" d="M113 530l36 182h60l-36-182h-60z" horiz-adv-x="175" vert-adv-y="1000"/><glyph glyph-name="uni28" unicode="(" d="M14 27q0 24 7 56l109 547q12 65 36 100 25 37 73 76l31-39q-44-38-60-61-18-28-29-82L72 82q-6-31-6-50 0-42 40-92L66-94Q14-28 14 27z" horiz-adv-x="207" vert-adv-y="1000"/><glyph glyph-name="uni29" unicode=")" d="M234 685q0-25-7-56L118 82Q106 17 82-18 57-55 9-94l-31 39Q22-17 38 6q18 28 29 82l109 542q6 32 6 50 0 42-40 92l40 34q52-66 52-121z" horiz-adv-x="207" vert-adv-y="1000"/><glyph glyph-name="uni2a" unicode="*" d="M383 592l-117-43 93-83-27-29-89 83-22-120-39 7 25 120-112-45-14 37 117 43-93 83 27 29 89-83 22 120 39-7-25-120 112 45 14-37z" horiz-adv-x="344" vert-adv-y="1000"/><glyph glyph-name="uni2b" unicode="+" d="M149 110l29 142H46l10 50h132l28 142h50l-27-142h131l-10-50H228l-28-142h-51z" horiz-adv-x="406" vert-adv-y="1000"/><glyph glyph-name="uni2c" unicode="," d="M-16-97L19 76h63L57-48l-73-49z" horiz-adv-x="171" vert-adv-y="1000"/><glyph glyph-name="uni2d" unicode="-" d="M46 252l10 50h179l-10-50H46z" horiz-adv-x="271" vert-adv-y="1000"/><glyph glyph-name="uni2e" unicode="." d="M8 0l15 74h70L78 0H8z" horiz-adv-x="186" vert-adv-y="1000"/><glyph glyph-name="uni2f" unicode="/" d="M-63-74l348 860h52L-11-74h-52z" horiz-adv-x="236" vert-adv-y="1000"/><glyph glyph-name="uni30" unicode="0" d="M116 585q15 74 55 107 34 28 82 28 57 0 85-37 18-24 18-65 0-21-4-42l-90-449q-15-74-55-107-34-28-82-28-57 0-85 37-18 24-18 65 0 21 4 42l90 449m52 1L78 133q-4-19-4-36 0-28 14.5-43.5T129 38q27 0 49 20.5t32 67.5l90 453q4 19 4 36 0 28-14.5 43.5T249 674q-27 0-49-20.5T168 586z" horiz-adv-x="336" vert-adv-y="1000"/><glyph glyph-name="uni31" unicode="1" d="M103 0l129 644-113-88 15 69 111 87h52L155 0h-52z" horiz-adv-x="336" vert-adv-y="1000"/><glyph glyph-name="uni32" unicode="2" d="M-2 0l8 43 233 392q66 111 66 177 0 62-50 62-59 0-76-87l-10-48h-52l10 47q15 74 52 106 33 28 80 28 51 0 77-33 21-29 21-73 0-74-75-199L63 46h186l-8-46H-2z" horiz-adv-x="336" vert-adv-y="1000"/><glyph glyph-name="uni33" unicode="3" d="M106 539l10 48q15 74 52 105 31 28 80 28 55 0 78-32 17-25 17-60 0-31-11-89-18-92-41-123-14-21-41-35 42-26 42-76 0-24-16-109-15-73-29.5-111T209 25Q174-8 118-8T37 27Q17 52 17 91q0 17 4 38l9 45h52l-9-45q-4-20-4-32 0-28 15-43.5T122 38q30 0 51 21 16 16 26.5 43t24.5 94q16 83 16 106 0 24-14.5 40T186 358h-38l9 46h33q27 0 46 19 16 17 24.5 39.5T280 538q11 58 11 85 0 51-47 51-59 0-76-86l-10-49h-52z" horiz-adv-x="336" vert-adv-y="1000"/><glyph glyph-name="uni34" unicode="4" d="M5 124l9 46 278 542h53L69 170h123l40 204h51l-40-204h47l-10-46h-47L209 0h-51l24 124H5z" horiz-adv-x="336" vert-adv-y="1000"/><glyph glyph-name="uni35" unicode="5" d="M32 173h52l-8-40q-4-24-4-38 0-24 13.5-40.5T124 38q31 0 53 25 31 32 56 161 17 86 17 120 0 66-51 66-29 0-53-23.5T115 325l-7-34H60l84 421h229l-9-46H182l-51-252q17 20 36 30 23 12 50 12 46 0 67-30 20-28 20-68 0-44-19-134-19-94-32.5-130T212 29Q177-8 121-8 66-8 40 26 20 51 20 90q0 20 4 43l8 40z" horiz-adv-x="336" vert-adv-y="1000"/><glyph glyph-name="uni36" unicode="6" d="M22 98q0 31 15 112 21 111 65 191l168 311h55L158 409q20 17 55 17 41 0 63.5-26.5T299 330q0-26-17-120-17-85-31.5-122.5T212 28Q176-8 121-8 67-8 41 28 22 56 22 98m51 2q0-62 51-62 31 0 52 21 17 17 27.5 47T230 210q16 82 16 114 0 24-12.5 40.5T195 381q-31 0-52-21-17-17-27.5-47T90 210q-17-82-17-110z" horiz-adv-x="336" vert-adv-y="1000"/><glyph glyph-name="uni37" unicode="7" d="M30 0l297 666H180l-24-118h-49l33 164h249l-8-43L87 0H30z" horiz-adv-x="336" vert-adv-y="1000"/><glyph glyph-name="uni38" unicode="8" d="M108 539q14 68 27 99t36 52q32 30 84 30 53 0 79-33 19-23 19-64 0-29-11-86-18-89-42-121-19-25-47-39 18-11 29-28 11-20 11-49 0-35-14-104-16-81-30-115.5T212 25Q174-8 123-8 67-8 40 28 21 55 21 93q0 42 13 103 15 74 26 104t28 50q19 22 46 34-19 13-27 32-8 18-8 41 0 34 9 82m119-342q15 78 15 101 0 24-12 41-14 18-41 18-31 0-51-20-16-14-26.5-41.5T87 197Q72 119 72 97q0-25 12-41 14-18 41-18 31 0 51 20 16 14 26.5 41t24.5 98m63 341q11 53 11 76 0 28-11 43-12 17-39 17-25 0-46-19-26-26-45-117-11-53-11-76 0-27 11-42 12-17 39-17t46 18q26 26 45 117z" horiz-adv-x="336" vert-adv-y="1000"/><glyph glyph-name="uni39" unicode="9" d="M356 614q0-31-15-112-21-111-65-191L108 0H53l167 303q-20-17-55-17-41 0-63.5 26.5T79 382q0 26 17 120 17 85 31.5 122.5T166 684q36 36 91 36 54 0 80-36 19-28 19-70m-51-2q0 62-51 62-31 0-52-21-17-17-27.5-47T148 502q-16-82-16-114 0-24 12.5-40.5T183 331q31 0 52 21 17 17 27.5 47T288 502q17 82 17 110z" horiz-adv-x="336" vert-adv-y="1000"/><glyph glyph-name="uni3a" unicode=":" d="M35 0l14 74h69L104 0H35m68 340l14 74h69l-14-74h-69z" horiz-adv-x="212" vert-adv-y="1000"/><glyph glyph-name="uni3b" unicode=";" d="M18-97L53 76h63L91-48 18-97m84 437l15 74h70l-15-74h-70z" horiz-adv-x="212" vert-adv-y="1000"/><glyph glyph-name="uni3c" unicode="&lt;" d="M34 259l10 50 308 170-13-67L97 281l188-134-11-57L34 259z" horiz-adv-x="339" vert-adv-y="1000"/><glyph glyph-name="uni3d" unicode="=" d="M30 172l10 50h314l-9-50H30m29 144l10 50h314l-10-50H59z" horiz-adv-x="406" vert-adv-y="1000"/><glyph glyph-name="uni3e" unicode="&gt;" d="M318 307l-10-50L0 87l13 67 242 131L67 419l11 57 240-169z" horiz-adv-x="339" vert-adv-y="1000"/><glyph glyph-name="uni3f" unicode="?" d="M143 183l18 89q10 48 47 93l71 90q29 37 40 93 6 30 6 57t-13 46q-15 21-49 21-30 0-54-21-28-23-41-87h-52q16 86 57 121 40 33 95 33 62 0 89-38 20-29 20-68 0-26-7-65-14-68-53-118l-70-90q-28-35-36-74l-16-82h-52M101 0l15 74h69L171 0h-70z" horiz-adv-x="351" vert-adv-y="1000"/><glyph glyph-name="uni40" unicode="@" d="M40-9Q16 18 16 60q0 19 5 42l93 467q15 75 55 110 38 33 103 33h110q59 0 89-37 21-28 21-67 0-14-5-41L374 0h-49l7 35q-13-15-32-27-25-16-58-16-44 0-69 36-16 24-16 56 0 20 5 42l45 224q14 70 47 102 35 32 86 32 29 0 50-15 13-10 21-30l26 128q3 19 3 34 0 65-67 65H273q-90 0-109-98L69 100q-3-14-3-31 0-23 15-43L40-9M211 94q0-26 13.5-41T258 38q32 0 57 23.5t32 62.5l46 228q3 15 3 27 0 29-14.5 44T342 438q-28 0-51.5-22.5T259 352l-45-228q-3-15-3-30z" horiz-adv-x="481" vert-adv-y="1000"/><glyph glyph-name="uni41" unicode="A" d="M304 0h-55l1 196H91L12 0h-58l291 712h54l5-712m-54 246l3 366-142-366h139z" horiz-adv-x="356" vert-adv-y="1000"/><glyph glyph-name="uni42" unicode="B" d="M14 0l142 712h112q68 0 97-35 26-32 26-77 0-32-7-68-19-97-65-137-21-18-43-25 25-8 40-28 23-30 23-74 0-30-8-72-13-65-29-99.5T261 39Q219 0 135 0H14m66 50h65q52 0 82.5 32.5T275 197q8 38 8 63 0 84-84 84h-60L80 50m69 343h58q93 0 120 135 7 38 7 61 0 37-17.5 55T261 662h-59l-53-269z" horiz-adv-x="391" vert-adv-y="1000"/><glyph glyph-name="uni43" unicode="C" d="M34 117q0 51 37 239 35 176 55.5 235.5T181 682q40 38 105 38 62 0 93-39 22-29 22-82 0-23-5-48h-55q5 28 5 46 0 73-64 73-38 0-64-24-26-25-42.5-76T127 356Q89 169 89 117q0-75 67-75 37 0 62 25 34 32 46 95h57q-19-95-72-138-40-32-99-32T61 28q-27 35-27 89z" horiz-adv-x="375" vert-adv-y="1000"/><glyph glyph-name="uni44" unicode="D" d="M80 50h78q43 0 67 24 26 25 42 76.5T314 356q37 184 37 233 0 31-16 52t-54 21h-79L80 50M14 0l142 712h135q64 0 92-41 24-33 24-82 0-48-37-233-35-173-54.5-230.5T261 37Q220 0 157 0H14z" horiz-adv-x="399" vert-adv-y="1000"/><glyph glyph-name="uni45" unicode="E" d="M14 0l142 712h234l-10-50H202l-55-278h152l-10-50H136L80 50h178L248 0H14z" horiz-adv-x="342" vert-adv-y="1000"/><glyph glyph-name="uni46" unicode="F" d="M14 0l142 712h234l-10-50H202l-56-280h153l-10-50H136L70 0H14z" horiz-adv-x="337" vert-adv-y="1000"/><glyph glyph-name="uni47" unicode="G" d="M361 377l-45-225q-15-80-59-120T148-8Q91-8 61 28q-27 35-27 89 0 51 37 239 35 176 55.5 235.5T181 682q40 38 105 38 62 0 93-39 22-29 22-82 0-23-5-48h-55q5 28 5 46 0 73-64 73-38 0-64-24-26-25-42.5-76T127 356Q89 169 89 117q0-75 65-75 39 0 68.5 29t39.5 80l35 179h-83l9 47h138z" horiz-adv-x="388" vert-adv-y="1000"/><glyph glyph-name="uni48" unicode="H" d="M14 0l142 712h56l-65-325h166l65 325h56L292 0h-56l67 337H137L70 0H14z" horiz-adv-x="406" vert-adv-y="1000"/><glyph glyph-name="uni49" unicode="I" d="M14 0l142 712h56L70 0H14z" horiz-adv-x="184" vert-adv-y="1000"/><glyph glyph-name="uni4a" unicode="J" d="M-28 44l43 32q25-34 64-34 80 0 104 120l110 550h56L237 154q-17-83-56-121Q140-8 77-8 4-8-28 44z" horiz-adv-x="314" vert-adv-y="1000"/><glyph glyph-name="uni4b" unicode="K" d="M14 0l142 712h56l-75-378 249 378h63L255 419 326 0h-56l-62 357-95-141L70 0H14z" horiz-adv-x="384" vert-adv-y="1000"/><glyph glyph-name="uni4c" unicode="L" d="M14 0l142 712h56L80 50h178L248 0H14z" horiz-adv-x="319" vert-adv-y="1000"/><glyph glyph-name="uni4d" unicode="M" d="M14 0l142 712h56l58-410 224 410h57L409 0h-56l111 562-191-356h-41l-49 361L70 0H14z" horiz-adv-x="523" vert-adv-y="1000"/><glyph glyph-name="uni4e" unicode="N" d="M14 0l142 712h51l72-557 109 557h56L302 0h-49l-72 557L70 0H14z" horiz-adv-x="416" vert-adv-y="1000"/><glyph glyph-name="uni4f" unicode="O" d="M71 356q36 179 55.5 237t55.5 91q40 36 101 36 66 0 96-41 24-33 24-80 0-55-37-243-36-179-55.5-237T255 28Q215-8 154-8 88-8 58 33q-24 33-24 80 0 55 37 243m239 0q37 181 37 237 0 77-69 77-36 0-61-24t-41.5-76.5Q159 517 127 356 90 175 90 119q0-77 69-77 35 0 61 24 25 24 41.5 76.5T310 356z" horiz-adv-x="395" vert-adv-y="1000"/><glyph glyph-name="uni50" unicode="P" d="M14 0l142 712h124q63 0 93-30 30-31 30-91 0-35-8-78-23-114-66-156t-114-42h-82L70 0H14m129 365h72q46 0 76.5 31T339 513q7 35 7 73 0 39-17 57.5T272 662h-70l-59-297z" horiz-adv-x="385" vert-adv-y="1000"/><glyph glyph-name="uni51" unicode="Q" d="M366 356q-31-156-49-216t-42-90l40-43-32-32-40 43Q205-8 154-8 88-8 58 33q-24 33-24 80 0 55 37 243 36 179 55.5 237t55.5 91q40 36 101 36 66 0 96-41 24-33 24-80 0-55-37-243M159 42q28 0 49 14l-45 50 30 31 44-47q17 24 31 75t42 191q37 181 37 237 0 77-69 77-36 0-61-24t-41.5-76.5Q159 517 127 356 90 175 90 119q0-77 69-77z" horiz-adv-x="395" vert-adv-y="1000"/><glyph glyph-name="uni52" unicode="R" d="M14 0l142 712h127q120 0 120-119 0-37-8-78-19-90-47.5-131.5T274 328L313 0h-57l-35 319h-88L70 0H14m129 369h75q45 0 74 31t47 115q7 35 7 71 0 39-16.5 57.5T274 662h-72l-59-293z" horiz-adv-x="406" vert-adv-y="1000"/><glyph glyph-name="uni53" unicode="S" d="M23 179h56q-8-37-8-66t13-46q17-23 58-23 44 0 69 25 19 19 29.5 43t19.5 71q9 42 9 81 0 45-49 68l-62 30q-36 18-51.5 41.5T91 468q0 26 7 64 12 58 27 91t39 56q39 39 105 39 65 0 95-38 22-28 22-74 0-28-9-72h-55q8 37 8 66t-13 46q-16 22-51 22-36 0-63-24-33-30-49-112-6-30-6-53 0-29 11-44t33-26l60-28q42-20 58.5-45t16.5-62q0-38-11-91-13-63-27-96t-39-55Q207-6 138-6T38 31q-23 28-23 76 0 24 8 72z" horiz-adv-x="372" vert-adv-y="1000"/><glyph glyph-name="uni54" unicode="T" d="M82 0l132 662H102l11 50h279l-10-50H270L138 0H82z" horiz-adv-x="320" vert-adv-y="1000"/><glyph glyph-name="uni55" unicode="U" d="M39 160l111 552h56L93 152q-4-20-4-37 0-73 66-73 35 0 64 27t38 74l115 569h56L313 142q-14-74-60-113Q211-8 146-8 88-8 57 32q-24 30-24 76 0 22 6 52z" horiz-adv-x="393" vert-adv-y="1000"/><glyph glyph-name="uni56" unicode="V" d="M96 0v712h59l-10-606 232 606h59L153 0H96z" horiz-adv-x="348" vert-adv-y="1000"/><glyph glyph-name="uni57" unicode="W" d="M64 0l40 712h58l-45-606 230 606h59l-7-606 192 606h58L409 0h-60l7 606L123 0H64z" horiz-adv-x="569" vert-adv-y="1000"/><glyph glyph-name="uni58" unicode="X" d="M-31 0l194 375-46 337h60l30-280 141 280h63L227 369 280 0h-60l-36 309L31 0h-62z" horiz-adv-x="348" vert-adv-y="1000"/><glyph glyph-name="uni59" unicode="Y" d="M70 0l60 303-34 409h58l20-330 148 330h62L184 292 126 0H70z" horiz-adv-x="297" vert-adv-y="1000"/><glyph glyph-name="uni5a" unicode="Z" d="M-24 0l9 43 313 619H117l10 50h241l-9-43L46 50h192L228 0H-24z" horiz-adv-x="304" vert-adv-y="1000"/><glyph glyph-name="uni5b" unicode="[" d="M-7-74l172 860h134l-9-46h-81L55-28h81l-9-46H-7z" horiz-adv-x="220" vert-adv-y="1000"/><glyph glyph-name="uni5c" unicode="\" d="M124-74l-17 860h53l17-860h-53z" horiz-adv-x="242" vert-adv-y="1000"/><glyph glyph-name="uni5d" unicode="]" d="M269 786L97-74H-37l9 46h81l154 768h-81l9 46h134z" horiz-adv-x="220" vert-adv-y="1000"/><glyph glyph-name="uni5e" unicode="^" d="M97 439l174 279h49l64-279h-48l-49 225-136-225H97z" horiz-adv-x="405" vert-adv-y="1000"/><glyph glyph-name="uni5f" unicode="_" d="M-68-90h403l-8-43H-76l8 43z" horiz-adv-x="404" vert-adv-y="1000"/><glyph glyph-name="uni60" unicode="`" d="M212 584l-43 128h50l38-128h-45z" horiz-adv-x="330" vert-adv-y="1000"/><glyph glyph-name="uni61" unicode="a" d="M23 27Q7 51 7 95q0 25 5 47 15 76 63 117 35 29 97 29h59l18 92q4 19 4 33 0 57-53 57-28 0-47-18-24-20-35-74H66q15 75 52 107 35 31 88 31 57 0 81-32 18-25 18-67 0-17-4-39L225 0h-50l8 43q-15-21-32-33Q128-8 93-8 48-8 23 27m37 74q0-63 48-63 35 0 59.5 29t32.5 66l23 115h-49q-42 0-67-23-22-19-34.5-54T60 101z" horiz-adv-x="329" vert-adv-y="1000"/><glyph glyph-name="uni62" unicode="b" d="M301 254q-22-110-38-157t-41-71Q187-8 141-8q-35 0-54 18-15 15-20 29L59 0H8l142 712h52l-48-238q13 16 29 27 23 15 55 15 48 0 70-35 16-24 16-67 0-48-23-160m-52 0q22 109 22 153 0 29-9 43-13 20-41 20-27 0-49-19-27-24-37-73L86 130q-3-18-3-32 0-28 13-44t39-16q25 0 50 22 19 17 32.5 60T249 254z" horiz-adv-x="342" vert-adv-y="1000"/><glyph glyph-name="uni63" unicode="c" d="M42 254q20 102 37 150.5t43 75.5q34 36 92 36 59 0 82-35 17-26 17-62 0-16-5-44h-51q5 23 5 39 0 29-12 41-15 15-40 15-30 0-53-23-19-18-32-60T94 254Q70 136 70 101q0-38 19-52 12-11 36-11 28 0 49 19 25 24 36 77h52q-16-74-50-106-37-36-93-36-45 0-72 27T20 99q0 48 22 155z" horiz-adv-x="317" vert-adv-y="1000"/><glyph glyph-name="uni64" unicode="d" d="M42 254q22 110 38 157t41 71q35 34 81 34 36 0 54-18 14-14 19-28l49 242h52L234 0h-51l7 36q-13-18-31-29-24-15-54-15-47 0-70 36-16 23-16 66 0 48 23 160m52 0Q71 141 71 101q0-28 10-42 16-21 40-21 27 0 49 19 28 25 38 73l49 248q3 18 3 32 0 28-14 44-13 16-38 16-28 0-50-21-19-18-32.5-61T94 254z" horiz-adv-x="342" vert-adv-y="1000"/><glyph glyph-name="uni65" unicode="e" d="M35 34Q20 60 20 99q0 43 23 155 20 101 37.5 152t41.5 74q36 36 93 36 55 0 79-37 17-26 17-69 0-41-23-163H93Q71 130 71 101t14-46q15-17 39-17 29 0 51 19 25 22 37 77h51q-14-72-52-109-36-33-92-33-59 0-84 42m67 256h142q16 77 16 118 0 62-51 62-30 0-51-22-19-21-30-53t-26-105z" horiz-adv-x="326" vert-adv-y="1000"/><glyph glyph-name="uni66" unicode="f" d="M23 0l93 466H58l8 42h58l14 70q16 76 54 105 39 30 106 30l-9-46q-82 0-99-89l-14-70h81l-8-42h-81L75 0H23z" horiz-adv-x="221" vert-adv-y="1000"/><glyph glyph-name="uni67" unicode="g" d="M42 257q22 108 38 154.5t41 70.5q35 34 81 34 34 0 54-18 15-15 20-29l8 39h51L230-20q-12-63-25-97t-36-56q-35-32-92-32-44 0-71.5 26.5T-22-108q0 22 3 42h51q-3-19-3-38 0-25 13.5-40T82-159q31 0 52 20 6 5 10 10t7.5 13q3.5 8 6 13.5T163-85q3 12 4.5 18.5t5 24Q176-25 178-16l12 57q-13-17-29-27-25-16-55-16-45 0-70 36-16 26-16 66 0 44 22 157m52 0Q73 149 73 107q0-28 10-42 13-20 40-20 28 0 49 18 27 24 37 74l48 241q3 18 3 32 0 27-14 44-15 16-38 16-28 0-50-21-19-18-32-59T94 257z" horiz-adv-x="342" vert-adv-y="1000"/><glyph glyph-name="uni68" unicode="h" d="M8 0l142 712h52l-48-241q12 17 30 29 21 16 56 16 48 0 70-36 15-23 15-58 0-16-6-48L245 0h-52l74 374q5 28 5 41 0 23-13 39t-40 16q-66 0-85-96L60 0H8z" horiz-adv-x="348" vert-adv-y="1000"/><glyph glyph-name="uni69" unicode="i" d="M8 0l102 508h52L60 0H8m118 623l12 66h65l-12-66h-65z" horiz-adv-x="168" vert-adv-y="1000"/><glyph glyph-name="uni6a" unicode="j" d="M-5-64l115 572h52L47-69Q33-142-7-174q-38-30-104-30l10 47q77 0 96 93m131 687l12 66h65l-12-66h-65z" horiz-adv-x="168" vert-adv-y="1000"/><glyph glyph-name="uni6b" unicode="k" d="M8 0l142 712h52l-93-464 201 260h59L218 312 283 0h-52l-55 266-85-108L60 0H8z" horiz-adv-x="350" vert-adv-y="1000"/><glyph glyph-name="uni6c" unicode="l" d="M46 34Q26 62 26 96q0 20 3 36l117 580h52L83 135q-3-18-3-34 0-55 62-55l-9-46Q72 0 46 34z" horiz-adv-x="198" vert-adv-y="1000"/><glyph glyph-name="uni6d" unicode="m" d="M9 0l101 508h51l-8-39q13 18 31 31 22 16 56 16 49 0 71-36 6-9 9-20 17 23 44 40 26 16 60 16 49 0 71-36 14-22 14-58 0-16-6-48L429 0h-52l74 374q5 22 5 41 0 23-13 39t-39 16q-67 0-85-96L245 0h-52l74 374q5 22 5 41 0 23-13 39t-39 16q-66 0-85-96L61 0H9z" horiz-adv-x="533" vert-adv-y="1000"/><glyph glyph-name="uni6e" unicode="n" d="M8 0l101 508h51l-8-39q13 17 32 31 22 16 55 16 48 0 70-36 15-23 15-58 0-16-6-48L244 0h-52l74 374q5 22 5 41 0 23-13 39t-40 16q-65 0-84-96L60 0H8z" horiz-adv-x="348" vert-adv-y="1000"/><glyph glyph-name="uni6f" unicode="o" d="M95 254Q72 137 72 102q0-30 11-45 14-19 39-19 30 0 52 22 19 19 32 60.5T237 254q23 117 23 152 0 30-11 45-14 19-39 19-30 0-52-22-19-19-32-60.5T95 254m194 0q-21-108-38-155t-42-72Q174-8 118-8 60-8 36 32q-14 23-14 69 0 43 21 153 21 108 38 155t42 72q35 35 91 35 58 0 82-40 14-23 14-69 0-43-21-153z" horiz-adv-x="331" vert-adv-y="1000"/><glyph glyph-name="uni70" unicode="p" d="M301 254q-22-110-38-157t-41-71Q187-8 140-8q-33 0-53 18-13 13-19 28L19-204h-52l142 712h51l-7-35q13 16 30 28 23 15 55 15 46 0 70-35 16-27 16-67 0-47-23-160m-52 0q22 109 22 153 0 29-9 43-13 20-41 20-27 0-49-19-27-24-37-73L86 130q-3-18-3-32 0-26 13-44 15-16 39-16 25 0 50 22 19 17 32.5 60T249 254z" horiz-adv-x="342" vert-adv-y="1000"/><glyph glyph-name="uni71" unicode="q" d="M42 254q22 110 38 157t41 71q35 34 81 34 34 0 54-18 15-15 20-29l8 39h51L193-204h-52l47 238q-13-18-28-27-24-15-55-15-47 0-70 36-16 23-16 66 0 48 23 160m52 0Q71 141 71 101q0-28 10-42 16-21 40-21 27 0 49 19 29 26 38 73l49 248q3 18 3 32 0 28-14 44-13 16-38 16-28 0-50-21-19-18-32.5-61T94 254z" horiz-adv-x="342" vert-adv-y="1000"/><glyph glyph-name="uni72" unicode="r" d="M8 0l101 508h51l-11-53q14 24 41 42 29 19 77 19l-10-48h-12q-42 0-72.5-27.5T132 366L60 0H8z" horiz-adv-x="228" vert-adv-y="1000"/><glyph glyph-name="uni73" unicode="s" d="M24 29Q2 55 2 98q0 20 4 40h52q-3-14-3-35 0-28 13-44 16-21 48-21 35 0 58 22 35 34 35 92 0 45-45 78l-46 33q-60 42-60 99 0 77 53 124 36 30 89 30 58 0 85-36 20-27 20-64 0-18-5-43h-50q4 28 4 37 0 25-12 40-15 20-46 20-30 0-52-19-34-31-34-82 0-39 39-66l48-33q35-24 49.5-49.5T261 158q0-86-54-133-39-33-96-33-56 0-87 37z" horiz-adv-x="313" vert-adv-y="1000"/><glyph glyph-name="uni74" unicode="t" d="M45 97q0 18 5 43l66 326H58l8 42h58l30 149h52l-30-149h82l-8-42h-82l-65-326q-4-19-4-37 0-57 70-57l-9-46Q92 0 65 34 45 61 45 97z" horiz-adv-x="229" vert-adv-y="1000"/><glyph glyph-name="uni75" unicode="u" d="M341 508L240 0h-51l8 39q-13-17-32-31-22-16-55-16-48 0-70 36-15 23-15 58 0 16 6 48l74 374h52L83 134q-5-22-5-41 0-23 13-39t40-16q65 0 84 96l74 374h52z" horiz-adv-x="348" vert-adv-y="1000"/><glyph glyph-name="uni76" unicode="v" d="M66 0L55 508h54V89l170 419h53L119 0H66z" horiz-adv-x="285" vert-adv-y="1000"/><glyph glyph-name="uni77" unicode="w" d="M51 0l12 508h53L97 91l162 417h48l-7-418 149 418h54L310 0h-52l7 417L104 0H51z" horiz-adv-x="465" vert-adv-y="1000"/><glyph glyph-name="uni78" unicode="x" d="M-30 0l152 261-49 247h53l35-200 114 200h55L179 256 235 0h-54l-40 207L25 0h-55z" horiz-adv-x="300" vert-adv-y="1000"/><glyph glyph-name="uni79" unicode="y" d="M-73-157q66 0 95 61L67 2 55 508h53l2-420 168 420h58L78-99q-26-61-63-83t-98-22l10 47z" horiz-adv-x="287" vert-adv-y="1000"/><glyph glyph-name="uni7a" unicode="z" d="M-31 0l8 39 244 423H67l9 46h213l-7-38L36 46h166l-9-46H-31z" horiz-adv-x="264" vert-adv-y="1000"/><glyph glyph-name="uni7b" unicode="{" d="M64 22q0 13 4 37l37 185q5 22 5 35 0 26-14 40.5T58 334H44l9 46h14q65 0 84 93l37 183q15 73 48 102 32 28 91 28h20l-9-46h-12q-32 0-55-22.5T239 649l-37-185q-14-66-45-93-10-9-30-16 11-6 21-17 15-20 15-52 0-16-5-41L121 62q-3-18-3-34 0-56 54-56h12l-9-46h-17q-49 0-76 35-18 25-18 61z" horiz-adv-x="268" vert-adv-y="1000"/><glyph glyph-name="uni7c" unicode="|" d="M26-74l172 860h52L78-74H26z" horiz-adv-x="234" vert-adv-y="1000"/><glyph glyph-name="uni7d" unicode="}" d="M246 690q0-13-4-37l-37-185q-5-22-5-35 0-26 14-40.5t38-14.5h14l-9-46h-14q-65 0-84-93L122 56Q107-17 74-46 42-74-17-74h-20l9 46h12q32 0 55 22.5T71 63l37 185q14 66 45 93 10 9 30 16-11 6-21 17-15 20-15 52 0 16 5 41l37 183q3 18 3 34 0 56-54 56h-12l9 46h17q49 0 76-35 18-25 18-61z" horiz-adv-x="268" vert-adv-y="1000"/><glyph glyph-name="uni7e" unicode="~" d="M71 235l-28 36q36 31 57.5 42t45.5 11q27 0 71-25 35-19 52-19 16 0 30 7t39 30l28-36q-58-51-101-51-25 0-70 25-34 19-52 19-30 0-72-39z" horiz-adv-x="404" vert-adv-y="1000"/><glyph glyph-name="unia1" unicode="¡" d="M133 326L29-204h-55L81 326h52m45 182l-14-74H95l14 74h69z" horiz-adv-x="212" vert-adv-y="1000"/><glyph glyph-name="unia2" unicode="¢" d="M44 211q0 39 21 146 19 99 35 145t40 70q31 30 76 34l21 106h43l-21-106q33-4 54-30 19-26 19-64 0-20-4-40h-50q3 16 3 33 0 23-10 37-8 12-22 17l-81-404q19 5 31 17 23 21 34 70h50q-17-74-50-103-31-28-74-32L138 0H95l21 108q-36 6-56 38-16 24-16 65m60-38q8-11 22-17l82 402q-17-4-32-19-19-19-30.5-57T116 357Q95 250 95 215q0-29 9-42z" horiz-adv-x="319" vert-adv-y="1000"/><glyph glyph-name="unia3" unicode="£" d="M153 557q16 83 61 125 42 38 104 38 72 0 105-52l-44-33q-25 35-64 35-83 0-107-121l-31-154h85l-8-43h-85L109 50h191l-9-50H43l70 352H52l9 43h60l32 162z" horiz-adv-x="370" vert-adv-y="1000"/><glyph glyph-name="unia4" unicode="¤" d="M142 184.5l17.5-17.75Q177 149 227 149t85 35.5q35 35.5 35 85.5t-35 85.5Q277 391 227 391t-85-35.5Q107 320 107 270t35-85.5M328 136q-46-35-101-35t-101 35L69 80l-32 32 57 56q-35 46-35 102t35 102l-57 56 32 32 57-56q46 35 101 35t101-35l57 56 32-32-57-56q35-46 35-102t-35-102l57-56-32-32-57 56z" horiz-adv-x="446" vert-adv-y="1000"/><glyph glyph-name="unia5" unicode="¥" d="M70 0l43 218H36l9 41h76l9 44-5 56H65l8 42h49L96 712h58l20-330 148 330h62L236 401h45l-9-42h-56l-32-67-7-33h76l-9-41h-75L126 0H70z" horiz-adv-x="295" vert-adv-y="1000"/><glyph glyph-name="unia6" unicode="¦" d="M26-74l70 349h52L78-74H26m102 511l70 349h52l-70-349h-52z" horiz-adv-x="234" vert-adv-y="1000"/><glyph glyph-name="unia7" unicode="§" d="M46 178q0 26 13 93t27 99.5q14 32.5 36 54.5 23 21 63 31-57 42-57 100 0 80 49 124 35 32 89 32 56 0 82-33 20-27 20-67 0-12-3-29h-51q3 13 3 24 0 26-11 40-12 19-43 19-29 0-50-20-31-27-31-83 0-44 39-70l48-31q22-15 37-34 20-26 20-62 0-25-14-95-13-66-27-99t-35-54q-23-21-63-31 29-22 42.5-45T243-16q0-88-48-130-40-34-94-34-56 0-84 32-22 27-22 68 0 14 3 31h51q-3-15-3-26 0-25 12-40 17-19 46-19 31 0 55 21 31 28 31 89 0 42-42 72l-46 32q-28 21-38 35-18 25-18 63m65 93q-13-67-13-87 0-24 12-40 15-22 45-22t55 22q17 16 27.5 42.5T260 271q13 67 13 87 0 23-12 40-15 22-45 22t-55-22q-17-16-27.5-42.5T111 271z" horiz-adv-x="364" vert-adv-y="1000"/><glyph glyph-name="unia8" unicode="¨" d="M141 602l12 62h58l-12-62h-58m128 0l13 62h58l-13-62h-58z" horiz-adv-x="331" vert-adv-y="1000"/><glyph glyph-name="unia9" unicode="©" d="M516 261q-2-54-28-83-25-26-65-26-43 0-68 30-17 20-23.5 58.5T325 356q0 77 6.5 115.5T355 530q25 30 68 30 42 0 65-26 26-28 28-83h-40q-2 44-16 58-14 15-37 15-24 0-38-18-13-15-16-46t-3-104q0-73 3-104t16-46q14-18 38-18 23 0 37 15 14 14 16 58h40M206.5 575l-44.75-45.5Q117 484 117 356t89.5-218.5Q296 47 423 47t217 90.5Q730 228 730 356t-90 219q-90 91-217 91t-216.5-91m-28-463.5l-50.75 50.75Q77 213 77 356t101.5 245Q280 703 423 703t245-102q102-102 102-245T668 111.5Q566 10 423 10T178.5 111.5z" horiz-adv-x="806" vert-adv-y="1000"/><glyph glyph-name="uniaa" unicode="ª" d="M62 400q0 79 50 120 30 25 84 25h48l12 57q4 20 4 34 0 44-43 44-24 0-39-15-20-18-28-59h-44q14 64 43 88 28 25 73 25 44 0 65-26 17-20 17-55 0-12-5-39l-55-276h-43l7 32q-13-16-27-25-18-13-43-13-40 0-62 30-14 21-14 53m45 8q0-51 44-51 26 0 45 21.5t26 56.5l16 76h-37q-37 0-58-16-36-27-36-87z" horiz-adv-x="277" vert-adv-y="1000"/><glyph glyph-name="uniab" unicode="«" d="M115 58L30 268l170 210-20-99-96-117 49-116-18-88m143 0l-85 210 170 210-20-99-96-117 49-116-18-88z" horiz-adv-x="348" vert-adv-y="1000"/><glyph glyph-name="uniac" unicode="¬" d="M48 257l11 50h314l-32-156h-51l22 106H48z" horiz-adv-x="406" vert-adv-y="1000"/><glyph glyph-name="uniad" unicode="­" d="M46 252l10 50h179l-10-50H46z" horiz-adv-x="271" vert-adv-y="1000"/><glyph glyph-name="uniae" unicode="®" d="M519 444q0-35-5.5-53T493 356q-7-9-21-14l59-184h-42l-54 175h-62V158h-40v397h97q41 0 63-22 26-25 26-89m-55-62q15 16 15 62t-15 62q-13 13-33 13h-58V369h58q20 0 33 13M206.5 575l-44.75-45.5Q117 484 117 356t89.5-218.5Q296 47 423 47t217 90.5Q730 228 730 356t-90 219q-90 91-217 91t-216.5-91m-28-463.5l-50.75 50.75Q77 213 77 356t101.5 245Q280 703 423 703t245-102q102-102 102-245T668 111.5Q566 10 423 10T178.5 111.5z" horiz-adv-x="806" vert-adv-y="1000"/><glyph glyph-name="uniaf" unicode="¯" d="M136 612l9 42h198l-9-42H136z" horiz-adv-x="331" vert-adv-y="1000"/><glyph glyph-name="unib0" unicode="°" d="M151 490.5l-19.5 19.75Q112 530 112 585t39 94.5q39 39.5 95 39.5 55 0 94-39t39-95q0-56-39-95t-94-39q-56 0-95 39.5m156.5 31l12.25 12.75Q332 547 332 585t-24.5 63.5Q283 674 246 674t-62-25.5Q159 623 159 585t25-63.5q25-25.5 62-25.5t61.5 25.5z" horiz-adv-x="358" vert-adv-y="1000"/><glyph glyph-name="unib1" unicode="±" d="M156 144l29 142H53l10 50h132l28 142h50l-27-142h131l-10-50H235l-28-142h-51M3 36l10 50h314l-10-50H3z" horiz-adv-x="406" vert-adv-y="1000"/><glyph glyph-name="unib2" unicode="²" d="M65 285l6 32 151 227q42 63 42 98 0 40-37 40-41 0-51-52l-7-33h-38l6 33q8 46 37 70 22 17 56 17 33 0 53-20 19-19 19-52 0-29-10-52.5T255 529L115 320h130l-7-35H65z" horiz-adv-x="286" vert-adv-y="1000"/><glyph glyph-name="unib3" unicode="³" d="M129 597l5 33q7 46 37 70 22 17 57 17 37 0 55-21 14-16 14-50 0-8-7-47-10-46-25-65-10-13-28-21 30-16 30-53 0-16-8-56-14-80-43-103-24-21-64-21-41 0-59 23-14 19-14 44 0 17 2 27l6 31h39l-6-33q-2-12-2-21 0-36 37-36 22 0 35 13 20 18 31 76 8 43 8 57 0 15-10 25t-28 10h-27l7 33h23q17 0 31 12 16 15 26 58 7 28 7 44 0 39-34 39-41 0-51-51l-6-34h-38z" horiz-adv-x="286" vert-adv-y="1000"/><glyph glyph-name="unib4" unicode="´" d="M203 582l90 129h55l-94-129h-51z" horiz-adv-x="330" vert-adv-y="1000"/><glyph glyph-name="unib5" unicode="µ" d="M105 508h52L83 134q-5-22-5-41 0-23 13-39t40-16q65 0 84 96l74 374h52L240 0h-51l8 39q-13-17-32-31-22-16-55-16-32 0-53 21L14-205h-52l143 713z" horiz-adv-x="348" vert-adv-y="1000"/><glyph glyph-name="unib6" unicode="¶" d="M135-205l102 512h-40Q73 307 73 436q0 26 10 76 23 114 63 157t115 43h274L352-205h-52l175 871H362L187-205h-52z" horiz-adv-x="502" vert-adv-y="1000"/><glyph glyph-name="unib7" unicode="·" d="M64 250l22 112h114l-22-112H64z" horiz-adv-x="243" vert-adv-y="1000"/><glyph glyph-name="unib8" unicode="¸" d="M18-169L95-37h43L70-169H18z" horiz-adv-x="331" vert-adv-y="1000"/><glyph glyph-name="unib9" unicode="¹" d="M134 285l75 376-75-51 9 49 79 53h36l-85-427h-39z" horiz-adv-x="286" vert-adv-y="1000"/><glyph glyph-name="uniba" unicode="º" d="M92 515q28 139 61 172 28 28 75 28 44 0 63-27 16-20 16-59 0-31-16-114-28-139-61-172-29-29-76-29-43 0-63 28-16 20-16 59 0 32 17 114m44 0q-17-79-17-112 0-49 40-49 25 0 40 18 25 30 48 143 16 82 16 111 0 50-40 50-24 0-40-18-24-26-47-143z" horiz-adv-x="277" vert-adv-y="1000"/><glyph glyph-name="unibb" unicode="»" d="M240 478l85-210L155 58l20 99 96 117-49 116 18 88m-143 0l85-210L12 58l20 99 96 117-49 116 18 88z" horiz-adv-x="348" vert-adv-y="1000"/><glyph glyph-name="unibc" unicode="¼" d="M134 285l75 376-75-51 9 49 79 53h36l-85-427h-39M150 0l378 712h42L192 0h-42m249 73l8 34 180 320h41L448 108h83l22 108h38l-21-108h32l-7-35h-33L549 0h-40l15 73H399z" horiz-adv-x="677" vert-adv-y="1000"/><glyph glyph-name="unibd" unicode="½" d="M134 285l75 376-75-51 9 49 79 53h36l-85-427h-39M150 0l378 712h42L192 0h-42m249 0l6 32 151 227q42 63 42 98 0 40-37 40-41 0-51-52l-7-33h-38l6 33q8 46 37 70 22 17 56 17 33 0 53-20 19-19 19-52 0-29-10-52.5T589 244L449 35h130l-7-35H399z" horiz-adv-x="677" vert-adv-y="1000"/><glyph glyph-name="unibe" unicode="¾" d="M129 597l5 33q7 46 37 70 22 17 57 17 37 0 55-21 14-16 14-50 0-8-7-47-10-46-25-65-10-13-28-21 30-16 30-53 0-16-8-56-14-80-43-103-24-21-64-21-41 0-59 23-14 19-14 44 0 17 2 27l6 31h39l-6-33q-2-12-2-21 0-36 37-36 22 0 35 13 20 18 31 76 8 43 8 57 0 15-10 25t-28 10h-27l7 33h23q17 0 31 12 16 15 26 58 7 28 7 44 0 39-34 39-41 0-51-51l-6-34h-38M150 0l378 712h42L192 0h-42m249 73l8 34 180 320h41L448 108h83l22 108h38l-21-108h32l-7-35h-33L549 0h-40l15 73H399z" horiz-adv-x="677" vert-adv-y="1000"/><glyph glyph-name="unibf" unicode="¿" d="M207 325l-18-89q-10-48-47-93L71 53Q42 16 31-40q-6-30-6-57t13-46q15-21 49-21 30 0 54 21 28 23 41 87h52q-16-86-57-121-40-33-95-33-62 0-89 38-20 29-20 68 0 26 7 65Q-6 29 33 79l70 90q28 35 36 74l16 82h52m42 183l-15-74h-69l14 74h70z" horiz-adv-x="351" vert-adv-y="1000"/><glyph glyph-name="unic0" unicode="À" d="M304 0h-55l1 196H91L12 0h-58l291 712h54l5-712m-54 246l3 366-142-366h139m11 517l-43 128h50l38-128h-45z" horiz-adv-x="356" vert-adv-y="1000"/><glyph glyph-name="unic1" unicode="Á" d="M304 0h-55l1 196H91L12 0h-58l291 712h54l5-712m-54 246l3 366-142-366h139m2 514l90 129h55l-94-129h-51z" horiz-adv-x="356" vert-adv-y="1000"/><glyph glyph-name="unic2" unicode="Â" d="M304 0h-55l1 196H91L12 0h-58l291 712h54l5-712m-54 246l3 366-142-366h139m78 643l54-129h-44l-38 92-76-92h-48l106 129h46z" horiz-adv-x="356" vert-adv-y="1000"/><glyph glyph-name="unic3" unicode="Ã" d="M304 0h-55l1 196H91L12 0h-58l291 712h54l5-712m-54 246l3 366-142-366h139m-52 535l-22 29q41 36 69 36 25 0 50-18 22-16 39-16 19 0 44 24l23-28q-41-36-70-36-25 0-50 18-23 15-38 15-20 0-45-24z" horiz-adv-x="356" vert-adv-y="1000"/><glyph glyph-name="unic4" unicode="Ä" d="M304 0h-55l1 196H91L12 0h-58l291 712h54l5-712m-54 246l3 366-142-366h139m-61 534l12 62h58l-12-62h-58m128 0l13 62h58l-13-62h-58z" horiz-adv-x="356" vert-adv-y="1000"/><glyph glyph-name="unic5" unicode="Å" d="M304 0h-55l1 196H91L12 0h-58l291 712h54l5-712m-54 246l3 366-142-366h139m0 633.5l-8-7.75q-8-7.75-8-30.75t16-39q16-16 38-16t38 16q16 16 16 39t-16 38.5Q310 895 288 895t-38-15.5m-26-102l-13 13.25Q198 804 198 841t26.5 63.5Q251 931 288 931q38 0 64-26.5t26-63.5q0-37-26.5-63.5T288 751q-38 0-64 26.5z" horiz-adv-x="356" vert-adv-y="1000"/><glyph glyph-name="unic6" unicode="Æ" d="M-47 0l392 712h271l-10-50H428l-55-278h152l-10-50H362L306 50h178L474 0H240l39 198H121L15 0h-62m196 248h140l83 417-223-417z" horiz-adv-x="568" vert-adv-y="1000"/><glyph glyph-name="unic7" unicode="Ç" d="M34 117q0 51 37 239 35 176 55.5 235.5T181 682q40 38 105 38 62 0 93-39 22-29 22-82 0-23-5-48h-55q5 28 5 46 0 73-64 73-38 0-64-24-26-25-42.5-76T127 356Q89 169 89 117q0-75 67-75 37 0 62 25 34 32 46 95h57q-19-95-72-138-40-32-99-32T61 28q-27 35-27 89m10-286l77 132h43L96-169H44z" horiz-adv-x="375" vert-adv-y="1000"/><glyph glyph-name="unic8" unicode="È" d="M14 0l142 712h234l-10-50H202l-55-278h152l-10-50H136L80 50h178L248 0H14m253 763l-43 128h50l38-128h-45z" horiz-adv-x="342" vert-adv-y="1000"/><glyph glyph-name="unic9" unicode="É" d="M14 0l142 712h234l-10-50H202l-55-278h152l-10-50H136L80 50h178L248 0H14m244 760l90 129h55l-94-129h-51z" horiz-adv-x="342" vert-adv-y="1000"/><glyph glyph-name="unica" unicode="Ê" d="M14 0l142 712h234l-10-50H202l-55-278h152l-10-50H136L80 50h178L248 0H14m320 889l54-129h-44l-38 92-76-92h-48l106 129h46z" horiz-adv-x="342" vert-adv-y="1000"/><glyph glyph-name="unicb" unicode="Ë" d="M14 0l142 712h234l-10-50H202l-55-278h152l-10-50H136L80 50h178L248 0H14m181 780l12 62h58l-12-62h-58m128 0l13 62h58l-13-62h-58z" horiz-adv-x="342" vert-adv-y="1000"/><glyph glyph-name="unicc" unicode="Ì" d="M14 0l142 712h56L70 0H14m160 763l-43 128h50l38-128h-45z" horiz-adv-x="184" vert-adv-y="1000"/><glyph glyph-name="unicd" unicode="Í" d="M14 0l142 712h56L70 0H14m151 760l90 129h55l-94-129h-51z" horiz-adv-x="184" vert-adv-y="1000"/><glyph glyph-name="unice" unicode="Î" d="M14 0l142 712h56L70 0H14m227 889l54-129h-44l-38 92-76-92H89l106 129h46z" horiz-adv-x="184" vert-adv-y="1000"/><glyph glyph-name="unicf" unicode="Ï" d="M14 0l142 712h56L70 0H14m88 780l12 62h58l-12-62h-58m128 0l13 62h58l-13-62h-58z" horiz-adv-x="184" vert-adv-y="1000"/><glyph glyph-name="unid0" unicode="Ð" d="M59 336l9 46h49l66 330h135q64 0 92-41 24-33 24-82 0-48-37-233-35-173-54.5-230.5T288 37Q247 0 184 0H41l67 336H59m48-286h78q43 0 67 24 26 25 42 76.5T341 356q37 184 37 233 0 31-16 52t-54 21h-79l-56-280h84l-9-46h-84L107 50z" horiz-adv-x="426" vert-adv-y="1000"/><glyph glyph-name="unid1" unicode="Ñ" d="M14 0l142 712h51l72-557 109 557h56L302 0h-49l-72 557L70 0H14m214 781l-22 29q41 36 69 36 25 0 50-18 22-16 39-16 19 0 44 24l23-28q-41-36-70-36-25 0-50 18-23 15-38 15-20 0-45-24z" horiz-adv-x="416" vert-adv-y="1000"/><glyph glyph-name="unid2" unicode="Ò" d="M71 356q36 179 55.5 237t55.5 91q40 36 101 36 66 0 96-41 24-33 24-80 0-55-37-243-36-179-55.5-237T255 28Q215-8 154-8 88-8 58 33q-24 33-24 80 0 55 37 243m239 0q37 181 37 237 0 77-69 77-36 0-61-24t-41.5-76.5Q159 517 127 356 90 175 90 119q0-77 69-77 35 0 61 24 25 24 41.5 76.5T310 356m-31 407l-43 128h50l38-128h-45z" horiz-adv-x="395" vert-adv-y="1000"/><glyph glyph-name="unid3" unicode="Ó" d="M71 356q36 179 55.5 237t55.5 91q40 36 101 36 66 0 96-41 24-33 24-80 0-55-37-243-36-179-55.5-237T255 28Q215-8 154-8 88-8 58 33q-24 33-24 80 0 55 37 243m239 0q37 181 37 237 0 77-69 77-36 0-61-24t-41.5-76.5Q159 517 127 356 90 175 90 119q0-77 69-77 35 0 61 24 25 24 41.5 76.5T310 356m-40 404l90 129h55l-94-129h-51z" horiz-adv-x="395" vert-adv-y="1000"/><glyph glyph-name="unid4" unicode="Ô" d="M71 356q36 179 55.5 237t55.5 91q40 36 101 36 66 0 96-41 24-33 24-80 0-55-37-243-36-179-55.5-237T255 28Q215-8 154-8 88-8 58 33q-24 33-24 80 0 55 37 243m239 0q37 181 37 237 0 77-69 77-36 0-61-24t-41.5-76.5Q159 517 127 356 90 175 90 119q0-77 69-77 35 0 61 24 25 24 41.5 76.5T310 356m36 533l54-129h-44l-38 92-76-92h-48l106 129h46z" horiz-adv-x="395" vert-adv-y="1000"/><glyph glyph-name="unid5" unicode="Õ" d="M71 356q36 179 55.5 237t55.5 91q40 36 101 36 66 0 96-41 24-33 24-80 0-55-37-243-36-179-55.5-237T255 28Q215-8 154-8 88-8 58 33q-24 33-24 80 0 55 37 243m239 0q37 181 37 237 0 77-69 77-36 0-61-24t-41.5-76.5Q159 517 127 356 90 175 90 119q0-77 69-77 35 0 61 24 25 24 41.5 76.5T310 356m-94 425l-22 29q41 36 69 36 25 0 50-18 22-16 39-16 19 0 44 24l23-28q-41-36-70-36-25 0-50 18-23 15-38 15-20 0-45-24z" horiz-adv-x="395" vert-adv-y="1000"/><glyph glyph-name="unid6" unicode="Ö" d="M71 356q36 179 55.5 237t55.5 91q40 36 101 36 66 0 96-41 24-33 24-80 0-55-37-243-36-179-55.5-237T255 28Q215-8 154-8 88-8 58 33q-24 33-24 80 0 55 37 243m239 0q37 181 37 237 0 77-69 77-36 0-61-24t-41.5-76.5Q159 517 127 356 90 175 90 119q0-77 69-77 35 0 61 24 25 24 41.5 76.5T310 356M207 780l12 62h58l-12-62h-58m128 0l13 62h58l-13-62h-58z" horiz-adv-x="395" vert-adv-y="1000"/><glyph glyph-name="unid7" unicode="×" d="M240 266l85-116-38-33-85 115L71 116l-30 41 131 115-85 116 38 33 85-115 131 116 30-41-131-115z" horiz-adv-x="406" vert-adv-y="1000"/><glyph glyph-name="unid8" unicode="Ø" d="M71 356q36 179 55.5 237t55.5 91q40 36 101 36 50 0 78-23l29 59h46l-47-93q14-28 14-64 0-55-37-243-36-179-55.5-237T255 28Q215-8 154-8q-49 0-79 22L47-44H1l47 92q-14 28-14 65 0 55 37 243m239 0q34 169 37 229L101 69q16-27 57-27 36 0 62 24 25 24 41.5 76.5T310 356m-183 0Q91 180 90 128l245 516q-16 26-57 26-36 0-61-24t-41.5-76.5Q159 517 127 356z" horiz-adv-x="395" vert-adv-y="1000"/><glyph glyph-name="unid9" unicode="Ù" d="M39 160l111 552h56L93 152q-4-20-4-37 0-73 66-73 35 0 64 27t38 74l115 569h56L313 142q-14-74-60-113Q211-8 146-8 88-8 57 32q-24 30-24 76 0 22 6 52m239 603l-43 128h50l38-128h-45z" horiz-adv-x="393" vert-adv-y="1000"/><glyph glyph-name="unida" unicode="Ú" d="M39 160l111 552h56L93 152q-4-20-4-37 0-73 66-73 35 0 64 27t38 74l115 569h56L313 142q-14-74-60-113Q211-8 146-8 88-8 57 32q-24 30-24 76 0 22 6 52m230 600l90 129h55l-94-129h-51z" horiz-adv-x="393" vert-adv-y="1000"/><glyph glyph-name="unidb" unicode="Û" d="M39 160l111 552h56L93 152q-4-20-4-37 0-73 66-73 35 0 64 27t38 74l115 569h56L313 142q-14-74-60-113Q211-8 146-8 88-8 57 32q-24 30-24 76 0 22 6 52m306 729l54-129h-44l-38 92-76-92h-48l106 129h46z" horiz-adv-x="393" vert-adv-y="1000"/><glyph glyph-name="unidc" unicode="Ü" d="M39 160l111 552h56L93 152q-4-20-4-37 0-73 66-73 35 0 64 27t38 74l115 569h56L313 142q-14-74-60-113Q211-8 146-8 88-8 57 32q-24 30-24 76 0 22 6 52m167 620l12 62h58l-12-62h-58m128 0l13 62h58l-13-62h-58z" horiz-adv-x="393" vert-adv-y="1000"/><glyph glyph-name="unidd" unicode="Ý" d="M70 0l60 303-34 409h58l20-330 148 330h62L184 292 126 0H70m152 760l90 129h55l-94-129h-51z" horiz-adv-x="297" vert-adv-y="1000"/><glyph glyph-name="unide" unicode="Þ" d="M156 712h56l-31-154h68q63 0 93-30 30-31 30-91 0-35-8-78-23-114-66-156t-114-42h-82L70 0H14l142 712m-44-501h72q46 0 76.5 31T308 359q7 35 7 73 0 39-17 57.5T241 508h-70l-59-297z" horiz-adv-x="384" vert-adv-y="1000"/><glyph glyph-name="unidf" unicode="ß" d="M8 0l116 587q14 70 54 103 35 30 86 30 56 0 82-36 20-27 20-72 0-36-12-78.5T323 465q-16-22-41-38 37-24 37-83 0-29-20-123-19-97-33-134t-38-57Q193 0 126 0l9 46q37 0 60 22 17 15 28 48t26 111q17 83 17 117 0 61-51 61h-8l8 44h7q23 0 50 31 19 22 30 60.5t11 69.5q0 64-53 64-32 0-53-23.5T177 587L60 0H8z" horiz-adv-x="348" vert-adv-y="1000"/><glyph glyph-name="unie0" unicode="à" d="M23 27Q7 51 7 95q0 25 5 47 15 76 63 117 35 29 97 29h59l18 92q4 19 4 33 0 57-53 57-28 0-47-18-24-20-35-74H66q15 75 52 107 35 31 88 31 57 0 81-32 18-25 18-67 0-17-4-39L225 0h-50l8 43q-15-21-32-33Q128-8 93-8 48-8 23 27m37 74q0-63 48-63 35 0 59.5 29t32.5 66l23 115h-49q-42 0-67-23-22-19-34.5-54T60 101m147 483l-43 128h50l38-128h-45z" horiz-adv-x="329" vert-adv-y="1000"/><glyph glyph-name="unie1" unicode="á" d="M23 27Q7 51 7 95q0 25 5 47 15 76 63 117 35 29 97 29h59l18 92q4 19 4 33 0 57-53 57-28 0-47-18-24-20-35-74H66q15 75 52 107 35 31 88 31 57 0 81-32 18-25 18-67 0-17-4-39L225 0h-50l8 43q-15-21-32-33Q128-8 93-8 48-8 23 27m37 74q0-63 48-63 35 0 59.5 29t32.5 66l23 115h-49q-42 0-67-23-22-19-34.5-54T60 101m137 481l90 129h55l-94-129h-51z" horiz-adv-x="329" vert-adv-y="1000"/><glyph glyph-name="unie2" unicode="â" d="M23 27Q7 51 7 95q0 25 5 47 15 76 63 117 35 29 97 29h59l18 92q4 19 4 33 0 57-53 57-28 0-47-18-24-20-35-74H66q15 75 52 107 35 31 88 31 57 0 81-32 18-25 18-67 0-17-4-39L225 0h-50l8 43q-15-21-32-33Q128-8 93-8 48-8 23 27m37 74q0-63 48-63 35 0 59.5 29t32.5 66l23 115h-49q-42 0-67-23-22-19-34.5-54T60 101m213 610l54-129h-44l-38 92-76-92h-48l106 129h46z" horiz-adv-x="329" vert-adv-y="1000"/><glyph glyph-name="unie3" unicode="ã" d="M23 27Q7 51 7 95q0 25 5 47 15 76 63 117 35 29 97 29h59l18 92q4 19 4 33 0 57-53 57-28 0-47-18-24-20-35-74H66q15 75 52 107 35 31 88 31 57 0 81-32 18-25 18-67 0-17-4-39L225 0h-50l8 43q-15-21-32-33Q128-8 93-8 48-8 23 27m37 74q0-63 48-63 35 0 59.5 29t32.5 66l23 115h-49q-42 0-67-23-22-19-34.5-54T60 101m84 502l-22 29q41 36 69 36 25 0 50-18 22-16 39-16 19 0 44 24l23-28q-41-36-70-36-25 0-50 18-23 15-38 15-20 0-45-24z" horiz-adv-x="329" vert-adv-y="1000"/><glyph glyph-name="unie4" unicode="ä" d="M23 27Q7 51 7 95q0 25 5 47 15 76 63 117 35 29 97 29h59l18 92q4 19 4 33 0 57-53 57-28 0-47-18-24-20-35-74H66q15 75 52 107 35 31 88 31 57 0 81-32 18-25 18-67 0-17-4-39L225 0h-50l8 43q-15-21-32-33Q128-8 93-8 48-8 23 27m37 74q0-63 48-63 35 0 59.5 29t32.5 66l23 115h-49q-42 0-67-23-22-19-34.5-54T60 101m75 501l12 62h58l-12-62h-58m128 0l13 62h58l-13-62h-58z" horiz-adv-x="329" vert-adv-y="1000"/><glyph glyph-name="unie5" unicode="å" d="M23 27Q7 51 7 95q0 25 5 47 15 76 63 117 35 29 97 29h59l18 92q4 19 4 33 0 57-53 57-28 0-47-18-24-20-35-74H66q15 75 52 107 35 31 88 31 57 0 81-32 18-25 18-67 0-17-4-39L225 0h-50l8 43q-15-21-32-33Q128-8 93-8 48-8 23 27m37 74q0-63 48-63 35 0 59.5 29t32.5 66l23 115h-49q-42 0-67-23-22-19-34.5-54T60 101m126 571q0-23 16-39t38-16q22 0 38 16t16 39q0 22-16 38t-38 16q-22 0-38-16t-16-38m-10-64l-13 13q-13 13-13 51t26 64q26 26 64 26t64-26q26-26 26-64t-26-64q-26-26-64-26t-64 26z" horiz-adv-x="329" vert-adv-y="1000"/><glyph glyph-name="unie6" unicode="æ" d="M206 516q66 0 87-50 36 50 103 50 55 0 79-37 17-26 17-69 0-41-23-163H274q-22-117-22-146t14-46q15-17 39-17 29 0 51 19 25 22 37 77h51q-14-72-52-109-36-33-92-33-49 0-75 31-14 17-20 41-17-31-34-43Q135-8 93-8 48-8 23 27 7 51 7 95q0 25 5 47 15 76 63 117 35 29 97 29h59l18 92q4 19 4 33 0 57-53 57-28 0-47-18-24-20-35-74H66q15 75 52 107 35 31 88 31M60 101q0-63 48-63 35 0 59.5 29t32.5 66l23 115h-49q-42 0-67-23-22-19-34.5-54T60 101m223 189h142q16 77 16 118 0 62-51 62-30 0-51-22-19-21-30-53t-26-105z" horiz-adv-x="507" vert-adv-y="1000"/><glyph glyph-name="unie7" unicode="ç" d="M42 254q20 102 37 150.5t43 75.5q34 36 92 36 59 0 82-35 17-26 17-62 0-16-5-44h-51q5 23 5 39 0 29-12 41-15 15-40 15-30 0-53-23-19-18-32-60T94 254Q70 136 70 101q0-38 19-52 12-11 36-11 28 0 49 19 25 24 36 77h52q-16-74-50-106-37-36-93-36-45 0-72 27T20 99q0 48 22 155M18-169L95-37h43L70-169H18z" horiz-adv-x="317" vert-adv-y="1000"/><glyph glyph-name="unie8" unicode="è" d="M35 34Q20 60 20 99q0 43 23 155 20 101 37.5 152t41.5 74q36 36 93 36 55 0 79-37 17-26 17-69 0-41-23-163H93Q71 130 71 101t14-46q15-17 39-17 29 0 51 19 25 22 37 77h51q-14-72-52-109-36-33-92-33-59 0-84 42m67 256h142q16 77 16 118 0 62-51 62-30 0-51-22-19-21-30-53t-26-105m111 294l-43 128h50l38-128h-45z" horiz-adv-x="326" vert-adv-y="1000"/><glyph glyph-name="unie9" unicode="é" d="M35 34Q20 60 20 99q0 43 23 155 20 101 37.5 152t41.5 74q36 36 93 36 55 0 79-37 17-26 17-69 0-41-23-163H93Q71 130 71 101t14-46q15-17 39-17 29 0 51 19 25 22 37 77h51q-14-72-52-109-36-33-92-33-59 0-84 42m67 256h142q16 77 16 118 0 62-51 62-30 0-51-22-19-21-30-53t-26-105m101 292l90 129h55l-94-129h-51z" horiz-adv-x="326" vert-adv-y="1000"/><glyph glyph-name="uniea" unicode="ê" d="M35 34Q20 60 20 99q0 43 23 155 20 101 37.5 152t41.5 74q36 36 93 36 55 0 79-37 17-26 17-69 0-41-23-163H93Q71 130 71 101t14-46q15-17 39-17 29 0 51 19 25 22 37 77h51q-14-72-52-109-36-33-92-33-59 0-84 42m67 256h142q16 77 16 118 0 62-51 62-30 0-51-22-19-21-30-53t-26-105m177 421l54-129h-44l-38 92-76-92h-48l106 129h46z" horiz-adv-x="326" vert-adv-y="1000"/><glyph glyph-name="unieb" unicode="ë" d="M35 34Q20 60 20 99q0 43 23 155 20 101 37.5 152t41.5 74q36 36 93 36 55 0 79-37 17-26 17-69 0-41-23-163H93Q71 130 71 101t14-46q15-17 39-17 29 0 51 19 25 22 37 77h51q-14-72-52-109-36-33-92-33-59 0-84 42m67 256h142q16 77 16 118 0 62-51 62-30 0-51-22-19-21-30-53t-26-105m39 312l12 62h58l-12-62h-58m128 0l13 62h58l-13-62h-58z" horiz-adv-x="326" vert-adv-y="1000"/><glyph glyph-name="uniec" unicode="ì" d="M8 0l102 508h52L60 0H8m126 584L91 712h50l38-128h-45z" horiz-adv-x="168" vert-adv-y="1000"/><glyph glyph-name="unied" unicode="í" d="M8 0l102 508h52L60 0H8m116 582l90 129h55l-94-129h-51z" horiz-adv-x="168" vert-adv-y="1000"/><glyph glyph-name="uniee" unicode="î" d="M8 0l102 508h52L60 0H8m192 711l54-129h-44l-38 92-76-92H48l106 129h46z" horiz-adv-x="168" vert-adv-y="1000"/><glyph glyph-name="unief" unicode="ï" d="M8 0l102 508h52L60 0H8m54 602l12 62h58l-12-62H62m128 0l13 62h58l-13-62h-58z" horiz-adv-x="168" vert-adv-y="1000"/><glyph glyph-name="unif0" unicode="ð" d="M42 250q21 105 37.5 152t41.5 71q35 32 84 32 32 0 53-16l-13 95h-77l7 39h65l-14 89h49l13-89h69l-7-39h-56l14-118q3-23 3-45 0-60-22-171-21-106-38-153t-42-71Q173-8 118-8 66-8 41 27q-19 24-19 73 0 44 20 150m52 0Q72 142 72 103q0-29 10-45 13-20 41-20 31 0 51 22 20 21 32 59.5T236 250q22 108 22 145 0 29-10 45-14 19-40 19-29 0-52-21-31-29-62-188z" horiz-adv-x="332" vert-adv-y="1000"/><glyph glyph-name="unif1" unicode="ñ" d="M8 0l101 508h51l-8-39q13 17 32 31 22 16 55 16 48 0 70-36 15-23 15-58 0-16-6-48L244 0h-52l74 374q5 22 5 41 0 23-13 39t-40 16q-65 0-84-96L60 0H8m153 603l-22 29q41 36 69 36 24 0 50-18 22-16 39-16 19 0 44 24l23-28q-41-36-70-36-25 0-50 18-23 15-38 15-20 0-45-24z" horiz-adv-x="348" vert-adv-y="1000"/><glyph glyph-name="unif2" unicode="ò" d="M95 254Q72 137 72 102q0-30 11-45 14-19 39-19 30 0 52 22 19 19 32 60.5T237 254q23 117 23 152 0 30-11 45-14 19-39 19-30 0-52-22-19-19-32-60.5T95 254m194 0q-21-108-38-155t-42-72Q174-8 118-8 60-8 36 32q-14 23-14 69 0 43 21 153 21 108 38 155t42 72q35 35 91 35 58 0 82-40 14-23 14-69 0-43-21-153m-76 330l-43 128h50l38-128h-45z" horiz-adv-x="331" vert-adv-y="1000"/><glyph glyph-name="unif3" unicode="ó" d="M95 254Q72 137 72 102q0-30 11-45 14-19 39-19 30 0 52 22 19 19 32 60.5T237 254q23 117 23 152 0 30-11 45-14 19-39 19-30 0-52-22-19-19-32-60.5T95 254m194 0q-21-108-38-155t-42-72Q174-8 118-8 60-8 36 32q-14 23-14 69 0 43 21 153 21 108 38 155t42 72q35 35 91 35 58 0 82-40 14-23 14-69 0-43-21-153m-86 328l90 129h55l-94-129h-51z" horiz-adv-x="331" vert-adv-y="1000"/><glyph glyph-name="unif4" unicode="ô" d="M95 254Q72 137 72 102q0-30 11-45 14-19 39-19 30 0 52 22 19 19 32 60.5T237 254q23 117 23 152 0 30-11 45-14 19-39 19-30 0-52-22-19-19-32-60.5T95 254m194 0q-21-108-38-155t-42-72Q174-8 118-8 60-8 36 32q-14 23-14 69 0 43 21 153 21 108 38 155t42 72q35 35 91 35 58 0 82-40 14-23 14-69 0-43-21-153m-10 457l54-129h-44l-38 92-76-92h-48l106 129h46z" horiz-adv-x="331" vert-adv-y="1000"/><glyph glyph-name="unif5" unicode="õ" d="M95 254Q72 137 72 102q0-30 11-45 14-19 39-19 30 0 52 22 19 19 32 60.5T237 254q23 117 23 152 0 30-11 45-14 19-39 19-30 0-52-22-19-19-32-60.5T95 254m194 0q-21-108-38-155t-42-72Q174-8 118-8 60-8 36 32q-14 23-14 69 0 43 21 153 21 108 38 155t42 72q35 35 91 35 58 0 82-40 14-23 14-69 0-43-21-153M150 603l-22 29q41 36 69 36 25 0 50-18 22-16 39-16 19 0 44 24l23-28q-41-36-70-36-25 0-50 18-23 15-38 15-20 0-45-24z" horiz-adv-x="331" vert-adv-y="1000"/><glyph glyph-name="unif6" unicode="ö" d="M95 254Q72 137 72 102q0-30 11-45 14-19 39-19 30 0 52 22 19 19 32 60.5T237 254q23 117 23 152 0 30-11 45-14 19-39 19-30 0-52-22-19-19-32-60.5T95 254m194 0q-21-108-38-155t-42-72Q174-8 118-8 60-8 36 32q-14 23-14 69 0 43 21 153 21 108 38 155t42 72q35 35 91 35 58 0 82-40 14-23 14-69 0-43-21-153M141 602l12 62h58l-12-62h-58m128 0l13 62h58l-13-62h-58z" horiz-adv-x="331" vert-adv-y="1000"/><glyph glyph-name="unif7" unicode="÷" d="M137 96l13 69h71l-14-69h-70M46 252l10 50h314l-10-50H46m149 138l14 68h70l-13-68h-71z" horiz-adv-x="406" vert-adv-y="1000"/><glyph glyph-name="unif8" unicode="ø" d="M289 254q-21-108-38-155t-42-72Q174-8 118-8 76-8 53 12L24-44h-43l48 89q-7 18-7 56 0 43 21 153 21 108 38 155t42 72q35 35 91 35 41 0 64-20l30 56h43l-49-90q8-21 8-55 0-43-21-153m-52 0q21 111 23 142L81 59q11-21 41-21t52 22q19 19 32 60.5T237 254m-142 0q-20-98-23-141l179 335q-2 2-2 3-14 19-39 19-30 0-52-22-19-19-32-60.5T95 254z" horiz-adv-x="331" vert-adv-y="1000"/><glyph glyph-name="unif9" unicode="ù" d="M341 508L240 0h-51l8 39q-13-17-32-31-22-16-55-16-48 0-70 36-15 23-15 58 0 16 6 48l74 374h52L83 134q-5-22-5-41 0-23 13-39t40-16q65 0 84 96l74 374h52m-123 76l-43 128h50l38-128h-45z" horiz-adv-x="348" vert-adv-y="1000"/><glyph glyph-name="unifa" unicode="ú" d="M341 508L240 0h-51l8 39q-13-17-32-31-22-16-55-16-48 0-70 36-15 23-15 58 0 16 6 48l74 374h52L83 134q-5-22-5-41 0-23 13-39t40-16q65 0 84 96l74 374h52m-133 74l90 129h55l-94-129h-51z" horiz-adv-x="348" vert-adv-y="1000"/><glyph glyph-name="unifb" unicode="û" d="M341 508L240 0h-51l8 39q-13-17-32-31-22-16-55-16-48 0-70 36-15 23-15 58 0 16 6 48l74 374h52L83 134q-5-22-5-41 0-23 13-39t40-16q65 0 84 96l74 374h52m-57 203l54-129h-44l-38 92-76-92h-48l106 129h46z" horiz-adv-x="348" vert-adv-y="1000"/><glyph glyph-name="unifc" unicode="ü" d="M341 508L240 0h-51l8 39q-13-17-32-31-22-16-55-16-48 0-70 36-15 23-15 58 0 16 6 48l74 374h52L83 134q-5-22-5-41 0-23 13-39t40-16q65 0 84 96l74 374h52m-195 94l12 62h58l-12-62h-58m128 0l13 62h58l-13-62h-58z" horiz-adv-x="348" vert-adv-y="1000"/><glyph glyph-name="unifd" unicode="ý" d="M-73-157q66 0 95 61L67 2 55 508h53l2-420 168 420h58L78-99q-26-61-63-83t-98-22l10 47m256 739l90 129h55l-94-129h-51z" horiz-adv-x="287" vert-adv-y="1000"/><glyph glyph-name="unife" unicode="þ" d="M-33-204l183 916h52l-48-238q11 13 29 26 23 16 54 16 47 0 71-35 16-27 16-67 0-45-23-160-22-110-38-157t-41-71Q187-8 140-8 106-8 87 9 72 24 68 38L19-204h-52m168 582L86 130q-3-15-3-32 0-27 12-42 15-18 40-18t50 22q31 28 64 194 22 109 22 153 0 27-10 43-15 20-40 20-27 0-49-19-28-24-37-73z" horiz-adv-x="342" vert-adv-y="1000"/><glyph glyph-name="uniff" unicode="ÿ" d="M-73-157q66 0 95 61L67 2 55 508h53l2-420 168 420h58L78-99q-26-61-63-83t-98-22l10 47m191 759l12 62h58l-12-62h-58m128 0l13 62h58l-13-62h-58z" horiz-adv-x="287" vert-adv-y="1000"/><glyph glyph-name="uni0100" unicode="Ā" d="M304 0h-55l1 196H91L12 0h-58l291 712h54l5-712m-54 246l3 366-142-366h139m-64 544l9 42h198l-9-42H186z" horiz-adv-x="356" vert-adv-y="1000"/><glyph glyph-name="uni0101" unicode="ā" d="M23 27Q7 51 7 95q0 25 5 47 15 76 63 117 35 29 97 29h59l18 92q4 19 4 33 0 57-53 57-28 0-47-18-24-20-35-74H66q15 75 52 107 35 31 88 31 57 0 81-32 18-25 18-67 0-17-4-39L225 0h-50l8 43q-15-21-32-33Q128-8 93-8 48-8 23 27m37 74q0-63 48-63 35 0 59.5 29t32.5 66l23 115h-49q-42 0-67-23-22-19-34.5-54T60 101m70 511l9 42h198l-9-42H130z" horiz-adv-x="329" vert-adv-y="1000"/><glyph glyph-name="uni0102" unicode="Ă" d="M304 0h-55l1 196H91L12 0h-58l291 712h54l5-712m-54 246l3 366-142-366h139m150 610q-15-54-43.5-77.5T281 755q-42 0-64 22.5T195 837q0 8 1 19h40v-9q0-51 49-51 55 0 73 60h42z" horiz-adv-x="356" vert-adv-y="1000"/><glyph glyph-name="uni0103" unicode="ă" d="M23 27Q7 51 7 95q0 25 5 47 15 76 63 117 35 29 97 29h59l18 92q4 19 4 33 0 57-53 57-28 0-47-18-24-20-35-74H66q15 75 52 107 35 31 88 31 57 0 81-32 18-25 18-67 0-17-4-39L225 0h-50l8 43q-15-21-32-33Q128-8 93-8 48-8 23 27m37 74q0-63 48-63 35 0 59.5 29t32.5 66l23 115h-49q-42 0-67-23-22-19-34.5-54T60 101m285 577q-15-54-43.5-77.5T226 577q-42 0-64 22.5T140 659q0 8 1 19h40v-9q0-51 49-51 55 0 73 60h42z" horiz-adv-x="329" vert-adv-y="1000"/><glyph glyph-name="uni0104" unicode="Ą" d="M304 0h-55l1 196H91L12 0h-58l291 712h54l5-712m-54 246l3 366-142-366h139m-82-415l77 132h43l-68-132h-52z" horiz-adv-x="356" vert-adv-y="1000"/><glyph glyph-name="uni0105" unicode="ą" d="M23 27Q7 51 7 95q0 25 5 47 15 76 63 117 35 29 97 29h59l18 92q4 19 4 33 0 57-53 57-28 0-47-18-24-20-35-74H66q15 75 52 107 35 31 88 31 57 0 81-32 18-25 18-67 0-17-4-39L225 0h-50l8 43q-15-21-32-33Q128-8 93-8 48-8 23 27m37 74q0-63 48-63 35 0 59.5 29t32.5 66l23 115h-49q-42 0-67-23-22-19-34.5-54T60 101m35-270l77 132h43l-68-132H95z" horiz-adv-x="329" vert-adv-y="1000"/><glyph glyph-name="uni0106" unicode="Ć" d="M34 117q0 51 37 239 35 176 55.5 235.5T181 682q40 38 105 38 62 0 93-39 22-29 22-82 0-23-5-48h-55q5 28 5 46 0 73-64 73-38 0-64-24-26-25-42.5-76T127 356Q89 169 89 117q0-75 67-75 37 0 62 25 34 32 46 95h57q-19-95-72-138-40-32-99-32T61 28q-27 35-27 89m236 643l90 129h55l-94-129h-51z" horiz-adv-x="375" vert-adv-y="1000"/><glyph glyph-name="uni0107" unicode="ć" d="M42 254q20 102 37 150.5t43 75.5q34 36 92 36 59 0 82-35 17-26 17-62 0-16-5-44h-51q5 23 5 39 0 29-12 41-15 15-40 15-30 0-53-23-19-18-32-60T94 254Q70 136 70 101q0-38 19-52 12-11 36-11 28 0 49 19 25 24 36 77h52q-16-74-50-106-37-36-93-36-45 0-72 27T20 99q0 48 22 155m161 328l90 129h55l-94-129h-51z" horiz-adv-x="317" vert-adv-y="1000"/><glyph glyph-name="uni0108" unicode="Ĉ" d="M34 117q0 51 37 239 35 176 55.5 235.5T181 682q40 38 105 38 62 0 93-39 22-29 22-82 0-23-5-48h-55q5 28 5 46 0 73-64 73-38 0-64-24-26-25-42.5-76T127 356Q89 169 89 117q0-75 67-75 37 0 62 25 34 32 46 95h57q-19-95-72-138-40-32-99-32T61 28q-27 35-27 89m312 772l54-129h-44l-38 92-76-92h-48l106 129h46z" horiz-adv-x="375" vert-adv-y="1000"/><glyph glyph-name="uni0109" unicode="ĉ" d="M42 254q20 102 37 150.5t43 75.5q34 36 92 36 59 0 82-35 17-26 17-62 0-16-5-44h-51q5 23 5 39 0 29-12 41-15 15-40 15-30 0-53-23-19-18-32-60T94 254Q70 136 70 101q0-38 19-52 12-11 36-11 28 0 49 19 25 24 36 77h52q-16-74-50-106-37-36-93-36-45 0-72 27T20 99q0 48 22 155m237 457l54-129h-44l-38 92-76-92h-48l106 129h46z" horiz-adv-x="317" vert-adv-y="1000"/><glyph glyph-name="uni010A" unicode="Ċ" d="M34 117q0 51 37 239 35 176 55.5 235.5T181 682q40 38 105 38 62 0 93-39 22-29 22-82 0-23-5-48h-55q5 28 5 46 0 73-64 73-38 0-64-24-26-25-42.5-76T127 356Q89 169 89 117q0-75 67-75 37 0 62 25 34 32 46 95h57q-19-95-72-138-40-32-99-32T61 28q-27 35-27 89m239 667l13 62h58l-13-62h-58z" horiz-adv-x="375" vert-adv-y="1000"/><glyph glyph-name="uni010B" unicode="ċ" d="M42 254q20 102 37 150.5t43 75.5q34 36 92 36 59 0 82-35 17-26 17-62 0-16-5-44h-51q5 23 5 39 0 29-12 41-15 15-40 15-30 0-53-23-19-18-32-60T94 254Q70 136 70 101q0-38 19-52 12-11 36-11 28 0 49 19 25 24 36 77h52q-16-74-50-106-37-36-93-36-45 0-72 27T20 99q0 48 22 155m164 352l13 62h58l-13-62h-58z" horiz-adv-x="317" vert-adv-y="1000"/><glyph glyph-name="uni010C" unicode="Č" d="M34 117q0 51 37 239 35 176 55.5 235.5T181 682q40 38 105 38 62 0 93-39 22-29 22-82 0-23-5-48h-55q5 28 5 46 0 73-64 73-38 0-64-24-26-25-42.5-76T127 356Q89 169 89 117q0-75 67-75 37 0 62 25 34 32 46 95h57q-19-95-72-138-40-32-99-32T61 28q-27 35-27 89m239 636l-55 130h45l38-92 75 92h48L318 753h-45z" horiz-adv-x="375" vert-adv-y="1000"/><glyph glyph-name="uni010D" unicode="č" d="M42 254q20 102 37 150.5t43 75.5q34 36 92 36 59 0 82-35 17-26 17-62 0-16-5-44h-51q5 23 5 39 0 29-12 41-15 15-40 15-30 0-53-23-19-18-32-60T94 254Q70 136 70 101q0-38 19-52 12-11 36-11 28 0 49 19 25 24 36 77h52q-16-74-50-106-37-36-93-36-45 0-72 27T20 99q0 48 22 155m165 320l-55 130h45l38-92 75 92h48L252 574h-45z" horiz-adv-x="317" vert-adv-y="1000"/><glyph glyph-name="uni010E" unicode="Ď" d="M80 50h78q43 0 67 24 26 25 42 76.5T314 356q37 184 37 233 0 31-16 52t-54 21h-79L80 50M14 0l142 712h135q64 0 92-41 24-33 24-82 0-48-37-233-35-173-54.5-230.5T261 37Q220 0 157 0H14m248 753l-55 130h45l38-92 75 92h48L307 753h-45z" horiz-adv-x="399" vert-adv-y="1000"/><glyph glyph-name="uni010F" unicode="ď" d="M42 254q22 110 38 157t41 71q35 34 81 34 36 0 54-18 14-14 19-28l49 242h52L234 0h-51l7 36q-13-18-31-29-24-15-54-15-47 0-70 36-16 23-16 66 0 48 23 160m52 0Q71 141 71 101q0-28 10-42 16-21 40-21 27 0 49 19 28 25 38 73l49 248q3 18 3 32 0 28-14 44-13 16-38 16-28 0-50-21-19-18-32.5-61T94 254m299 332l47 133h48l-54-133h-41z" horiz-adv-x="342" vert-adv-y="1000"/><glyph glyph-name="uni0110" unicode="Đ" d="M59 336l9 46h49l66 330h135q64 0 92-41 24-33 24-82 0-48-37-233-35-173-54.5-230.5T288 37Q247 0 184 0H41l67 336H59m48-286h78q43 0 67 24 26 25 42 76.5T341 356q37 184 37 233 0 31-16 52t-54 21h-79l-56-280h84l-9-46h-84L107 50z" horiz-adv-x="426" vert-adv-y="1000"/><glyph glyph-name="uni0111" unicode="đ" d="M42 254q22 110 38 157t41 71q35 34 81 34 36 0 54-18 14-14 19-28l23 116h-84l8 39h84l18 87h52l-18-87h54l-8-39h-53L234 0h-51l7 36q-13-18-31-29-24-15-54-15-47 0-70 36-16 23-16 66 0 48 23 160m52 0Q71 141 71 101q0-28 10-42 16-21 40-21 27 0 49 19 28 25 38 73l49 248q3 18 3 32 0 28-14 44-13 16-38 16-28 0-50-21-19-18-32.5-61T94 254z" horiz-adv-x="358" vert-adv-y="1000"/><glyph glyph-name="uni0112" unicode="Ē" d="M14 0l142 712h234l-10-50H202l-55-278h152l-10-50H136L80 50h178L248 0H14m178 790l9 42h198l-9-42H192z" horiz-adv-x="342" vert-adv-y="1000"/><glyph glyph-name="uni0113" unicode="ē" d="M35 34Q20 60 20 99q0 43 23 155 20 101 37.5 152t41.5 74q36 36 93 36 55 0 79-37 17-26 17-69 0-41-23-163H93Q71 130 71 101t14-46q15-17 39-17 29 0 51 19 25 22 37 77h51q-14-72-52-109-36-33-92-33-59 0-84 42m67 256h142q16 77 16 118 0 62-51 62-30 0-51-22-19-21-30-53t-26-105m34 322l9 42h198l-9-42H136z" horiz-adv-x="326" vert-adv-y="1000"/><glyph glyph-name="uni0114" unicode="Ĕ" d="M14 0l142 712h234l-10-50H202l-55-278h152l-10-50H136L80 50h178L248 0H14m392 856q-15-54-43.5-77.5T287 755q-42 0-64 22.5T201 837q0 8 1 19h40v-9q0-51 49-51 55 0 73 60h42z" horiz-adv-x="342" vert-adv-y="1000"/><glyph glyph-name="uni0115" unicode="ĕ" d="M35 34Q20 60 20 99q0 43 23 155 20 101 37.5 152t41.5 74q36 36 93 36 55 0 79-37 17-26 17-69 0-41-23-163H93Q71 130 71 101t14-46q15-17 39-17 29 0 51 19 25 22 37 77h51q-14-72-52-109-36-33-92-33-59 0-84 42m67 256h142q16 77 16 118 0 62-51 62-30 0-51-22-19-21-30-53t-26-105m249 388q-15-54-43.5-77.5T232 577q-42 0-64 22.5T146 659q0 8 1 19h40v-9q0-51 49-51 55 0 73 60h42z" horiz-adv-x="326" vert-adv-y="1000"/><glyph glyph-name="uni0116" unicode="Ė" d="M14 0l142 712h234l-10-50H202l-55-278h152l-10-50H136L80 50h178L248 0H14m247 784l13 62h58l-13-62h-58z" horiz-adv-x="342" vert-adv-y="1000"/><glyph glyph-name="uni0117" unicode="ė" d="M35 34Q20 60 20 99q0 43 23 155 20 101 37.5 152t41.5 74q36 36 93 36 55 0 79-37 17-26 17-69 0-41-23-163H93Q71 130 71 101t14-46q15-17 39-17 29 0 51 19 25 22 37 77h51q-14-72-52-109-36-33-92-33-59 0-84 42m67 256h142q16 77 16 118 0 62-51 62-30 0-51-22-19-21-30-53t-26-105m104 316l13 62h58l-13-62h-58z" horiz-adv-x="326" vert-adv-y="1000"/><glyph glyph-name="uni0118" unicode="Ę" d="M14 0l142 712h234l-10-50H202l-55-278h152l-10-50H136L80 50h178L248 0H14m96-169l77 132h43l-68-132h-52z" horiz-adv-x="342" vert-adv-y="1000"/><glyph glyph-name="uni0119" unicode="ę" d="M35 34Q20 60 20 99q0 43 23 155 20 101 37.5 152t41.5 74q36 36 93 36 55 0 79-37 17-26 17-69 0-41-23-163H93Q71 130 71 101t14-46q15-17 39-17 29 0 51 19 25 22 37 77h51q-14-72-52-109-36-33-92-33-59 0-84 42m67 256h142q16 77 16 118 0 62-51 62-30 0-51-22-19-21-30-53t-26-105M55-169l77 132h43l-68-132H55z" horiz-adv-x="326" vert-adv-y="1000"/><glyph glyph-name="uni011A" unicode="Ě" d="M14 0l142 712h234l-10-50H202l-55-278h152l-10-50H136L80 50h178L248 0H14m247 753l-55 130h45l38-92 75 92h48L306 753h-45z" horiz-adv-x="342" vert-adv-y="1000"/><glyph glyph-name="uni011B" unicode="ě" d="M35 34Q20 60 20 99q0 43 23 155 20 101 37.5 152t41.5 74q36 36 93 36 55 0 79-37 17-26 17-69 0-41-23-163H93Q71 130 71 101t14-46q15-17 39-17 29 0 51 19 25 22 37 77h51q-14-72-52-109-36-33-92-33-59 0-84 42m67 256h142q16 77 16 118 0 62-51 62-30 0-51-22-19-21-30-53t-26-105m105 284l-55 130h45l38-92 75 92h48L252 574h-45z" horiz-adv-x="326" vert-adv-y="1000"/><glyph glyph-name="uni011C" unicode="Ĝ" d="M361 377l-45-225q-15-80-59-120T148-8Q91-8 61 28q-27 35-27 89 0 51 37 239 35 176 55.5 235.5T181 682q40 38 105 38 62 0 93-39 22-29 22-82 0-23-5-48h-55q5 28 5 46 0 73-64 73-38 0-64-24-26-25-42.5-76T127 356Q89 169 89 117q0-75 65-75 39 0 68.5 29t39.5 80l35 179h-83l9 47h138m-15 512l54-129h-44l-38 92-76-92h-48l106 129h46z" horiz-adv-x="388" vert-adv-y="1000"/><glyph glyph-name="uni011D" unicode="ĝ" d="M42 257q22 108 38 154.5t41 70.5q35 34 81 34 34 0 54-18 15-15 20-29l8 39h51L230-20q-12-63-25-97t-36-56q-35-32-92-32-44 0-71.5 26.5T-22-108q0 22 3 42h51q-3-19-3-38 0-25 13.5-40T82-159q31 0 52 20 6 5 10 10t7.5 13q3.5 8 6 13.5T163-85q3 12 4.5 18.5t5 24Q176-25 178-16l12 57q-13-17-29-27-25-16-55-16-45 0-70 36-16 26-16 66 0 44 22 157m52 0Q73 149 73 107q0-28 10-42 13-20 40-20 28 0 49 18 27 24 37 74l48 241q3 18 3 32 0 27-14 44-15 16-38 16-28 0-50-21-19-18-32-59T94 257m184 454l54-129h-44l-38 92-76-92h-48l106 129h46z" horiz-adv-x="342" vert-adv-y="1000"/><glyph glyph-name="uni011E" unicode="Ğ" d="M361 377l-45-225q-15-80-59-120T148-8Q91-8 61 28q-27 35-27 89 0 51 37 239 35 176 55.5 235.5T181 682q40 38 105 38 62 0 93-39 22-29 22-82 0-23-5-48h-55q5 28 5 46 0 73-64 73-38 0-64-24-26-25-42.5-76T127 356Q89 169 89 117q0-75 65-75 39 0 68.5 29t39.5 80l35 179h-83l9 47h138m57 479q-15-54-43.5-77.5T299 755q-42 0-64 22.5T213 837q0 8 1 19h40v-9q0-51 49-51 55 0 73 60h42z" horiz-adv-x="388" vert-adv-y="1000"/><glyph glyph-name="uni011F" unicode="ğ" d="M42 257q22 108 38 154.5t41 70.5q35 34 81 34 34 0 54-18 15-15 20-29l8 39h51L230-20q-12-63-25-97t-36-56q-35-32-92-32-44 0-71.5 26.5T-22-108q0 22 3 42h51q-3-19-3-38 0-25 13.5-40T82-159q31 0 52 20 6 5 10 10t7.5 13q3.5 8 6 13.5T163-85q3 12 4.5 18.5t5 24Q176-25 178-16l12 57q-13-17-29-27-25-16-55-16-45 0-70 36-16 26-16 66 0 44 22 157m52 0Q73 149 73 107q0-28 10-42 13-20 40-20 28 0 49 18 27 24 37 74l48 241q3 18 3 32 0 27-14 44-15 16-38 16-28 0-50-21-19-18-32-59T94 257m256 421q-15-54-43.5-77.5T231 577q-42 0-64 22.5T145 659q0 8 1 19h40v-9q0-51 49-51 55 0 73 60h42z" horiz-adv-x="342" vert-adv-y="1000"/><glyph glyph-name="uni0120" unicode="Ġ" d="M361 377l-45-225q-15-80-59-120T148-8Q91-8 61 28q-27 35-27 89 0 51 37 239 35 176 55.5 235.5T181 682q40 38 105 38 62 0 93-39 22-29 22-82 0-23-5-48h-55q5 28 5 46 0 73-64 73-38 0-64-24-26-25-42.5-76T127 356Q89 169 89 117q0-75 65-75 39 0 68.5 29t39.5 80l35 179h-83l9 47h138m-88 407l13 62h58l-13-62h-58z" horiz-adv-x="388" vert-adv-y="1000"/><glyph glyph-name="uni0121" unicode="ġ" d="M42 257q22 108 38 154.5t41 70.5q35 34 81 34 34 0 54-18 15-15 20-29l8 39h51L230-20q-12-63-25-97t-36-56q-35-32-92-32-44 0-71.5 26.5T-22-108q0 22 3 42h51q-3-19-3-38 0-25 13.5-40T82-159q31 0 52 20 6 5 10 10t7.5 13q3.5 8 6 13.5T163-85q3 12 4.5 18.5t5 24Q176-25 178-16l12 57q-13-17-29-27-25-16-55-16-45 0-70 36-16 26-16 66 0 44 22 157m52 0Q73 149 73 107q0-28 10-42 13-20 40-20 28 0 49 18 27 24 37 74l48 241q3 18 3 32 0 27-14 44-15 16-38 16-28 0-50-21-19-18-32-59T94 257m111 349l13 62h58l-13-62h-58z" horiz-adv-x="342" vert-adv-y="1000"/><glyph glyph-name="uni0122" unicode="Ģ" d="M361 377l-45-225q-15-80-59-120T148-8Q91-8 61 28q-27 35-27 89 0 51 37 239 35 176 55.5 235.5T181 682q40 38 105 38 62 0 93-39 22-29 22-82 0-23-5-48h-55q5 28 5 46 0 73-64 73-38 0-64-24-26-25-42.5-76T127 356Q89 169 89 117q0-75 65-75 39 0 68.5 29t39.5 80l35 179h-83l9 47h138M44-169l77 132h43L96-169H44z" horiz-adv-x="388" vert-adv-y="1000"/><glyph glyph-name="uni0123" unicode="ģ" d="M42 257q22 108 38 154.5t41 70.5q35 34 81 34 34 0 54-18 15-15 20-29l8 39h51L230-20q-12-63-25-97t-36-56q-35-32-92-32-44 0-71.5 26.5T-22-108q0 22 3 42h51q-3-19-3-38 0-25 13.5-40T82-159q31 0 52 20 6 5 10 10t7.5 13q3.5 8 6 13.5T163-85q3 12 4.5 18.5t5 24Q176-25 178-16l12 57q-13-17-29-27-25-16-55-16-45 0-70 36-16 26-16 66 0 44 22 157m52 0Q73 149 73 107q0-28 10-42 13-20 40-20 28 0 49 18 27 24 37 74l48 241q3 18 3 32 0 27-14 44-15 16-38 16-28 0-50-21-19-18-32-59T94 257m232 457l-77-132h-43l68 132h52z" horiz-adv-x="342" vert-adv-y="1000"/><glyph glyph-name="uni0124" unicode="Ĥ" d="M14 0l142 712h56l-65-325h166l65 325h56L292 0h-56l67 337H137L70 0H14m337 889l54-129h-44l-38 92-76-92h-48l106 129h46z" horiz-adv-x="406" vert-adv-y="1000"/><glyph glyph-name="uni0125" unicode="ĥ" d="M8 0l142 712h52l-48-241q12 17 30 29 21 16 56 16 48 0 70-36 15-23 15-58 0-16-6-48L245 0h-52l74 374q5 28 5 41 0 23-13 39t-40 16q-66 0-85-96L60 0H8m224 885l54-129h-44l-38 92-76-92H80l106 129h46z" horiz-adv-x="348" vert-adv-y="1000"/><glyph glyph-name="uni0126" unicode="Ħ" d="M80 521l8 46h47l29 145h56l-29-145h166l29 145h56l-29-145h47l-8-46h-48L300 0h-56l67 337H145L78 0H22l104 521H80m75-134h166l27 134H182l-27-134z" horiz-adv-x="423" vert-adv-y="1000"/><glyph glyph-name="uni0127" unicode="ħ" d="M88 586l8 38h56l18 88h52l-18-88h81l-8-38h-80l-23-115q12 17 30 29 21 16 56 16 48 0 70-36 15-23 15-58 0-16-6-48L265 0h-52l74 374q5 28 5 41 0 23-13 39t-40 16q-66 0-85-96L80 0H28l117 586H88z" horiz-adv-x="368" vert-adv-y="1000"/><glyph glyph-name="uni0128" unicode="Ĩ" d="M14 0l142 712h56L70 0H14m97 781l-22 29q41 36 69 36 25 0 50-18 22-16 39-16 19 0 44 24l23-28q-41-36-70-36-25 0-50 18-23 15-38 15-20 0-45-24z" horiz-adv-x="184" vert-adv-y="1000"/><glyph glyph-name="uni0129" unicode="ĩ" d="M8 0l102 508h52L60 0H8m63 603l-22 29q41 36 69 36 24 0 50-18 22-16 39-16 19 0 44 24l23-28q-41-36-70-36-25 0-50 18-23 15-38 15-20 0-45-24z" horiz-adv-x="168" vert-adv-y="1000"/><glyph glyph-name="uni012A" unicode="Ī" d="M14 0l142 712h56L70 0H14m85 790l9 42h198l-9-42H99z" horiz-adv-x="184" vert-adv-y="1000"/><glyph glyph-name="uni012B" unicode="ī" d="M8 0l102 508h52L60 0H8m49 612l9 42h198l-9-42H57z" horiz-adv-x="168" vert-adv-y="1000"/><glyph glyph-name="uni012C" unicode="Ĭ" d="M14 0l142 712h56L70 0H14m299 856q-15-54-43.5-77.5T194 755q-42 0-64 22.5T108 837q0 8 1 19h40v-9q0-51 49-51 55 0 73 60h42z" horiz-adv-x="184" vert-adv-y="1000"/><glyph glyph-name="uni012D" unicode="ĭ" d="M8 0l102 508h52L60 0H8m264 678q-15-54-43.5-77.5T153 577q-42 0-64 22.5T67 659q0 8 1 19h40v-9q0-51 49-51 55 0 73 60h42z" horiz-adv-x="168" vert-adv-y="1000"/><glyph glyph-name="uni012E" unicode="Į" d="M14 0l142 712h56L70 0H14m-72-169L19-37h43L-6-169h-52z" horiz-adv-x="184" vert-adv-y="1000"/><glyph glyph-name="uni012F" unicode="į" d="M8 0l102 508h52L60 0H8m118 623l12 66h65l-12-66h-65M-68-169L9-37h43l-68-132h-52z" horiz-adv-x="168" vert-adv-y="1000"/><glyph glyph-name="uni0130" unicode="İ" d="M14 0l142 712h56L70 0H14m154 784l13 62h58l-13-62h-58z" horiz-adv-x="184" vert-adv-y="1000"/><glyph glyph-name="uni0131" unicode="ı" d="M8 0l102 508h52L60 0H8z" horiz-adv-x="168" vert-adv-y="1000"/><glyph glyph-name="uni0132" unicode="Ĳ" d="M14 0l142 712h56L70 0H14m142 44l43 32q25-34 64-34 80 0 104 120l110 550h56L421 154q-17-83-56-121Q324-8 261-8q-73 0-105 52z" horiz-adv-x="498" vert-adv-y="1000"/><glyph glyph-name="uni0133" unicode="ĳ" d="M8 0l102 508h52L60 0H8m118 623l12 66h65l-12-66h-65m37-687l115 572h52L215-69q-14-73-54-105-38-30-104-30l10 47q77 0 96 93m131 687l12 66h65l-12-66h-65z" horiz-adv-x="336" vert-adv-y="1000"/><glyph glyph-name="uni0134" unicode="Ĵ" d="M-28 44l43 32q25-34 64-34 80 0 104 120l110 550h56L237 154q-17-83-56-121Q140-8 77-8 4-8-28 44m403 845l54-129h-44l-38 92-76-92h-48l106 129h46z" horiz-adv-x="314" vert-adv-y="1000"/><glyph glyph-name="uni0135" unicode="ĵ" d="M-5-64l115 572h52L47-69Q33-142-7-174q-38-30-104-30l10 47q77 0 96 93m205 775l54-129h-44l-38 92-76-92H48l106 129h46z" horiz-adv-x="168" vert-adv-y="1000"/><glyph glyph-name="uni0136" unicode="Ķ" d="M14 0l142 712h56l-75-378 249 378h63L255 419 326 0h-56l-62 357-95-141L70 0H14m40-169l77 132h43l-68-132H54z" horiz-adv-x="384" vert-adv-y="1000"/><glyph glyph-name="uni0137" unicode="ķ" d="M8 0l142 712h52l-93-464 201 260h59L218 312 283 0h-52l-55 266-85-108L60 0H8m26-169l77 132h43L86-169H34z" horiz-adv-x="350" vert-adv-y="1000"/><glyph glyph-name="uni0138" unicode="ĸ" d="M8 0l101 508h52l-52-260 201 260h59L218 312 283 0h-50l-56 268-86-110L60 0H8z" horiz-adv-x="350" vert-adv-y="1000"/><glyph glyph-name="uni0139" unicode="Ĺ" d="M14 0l142 712h56L80 50h178L248 0H14m151 760l90 129h55l-94-129h-51z" horiz-adv-x="319" vert-adv-y="1000"/><glyph glyph-name="uni013A" unicode="ĺ" d="M46 34Q26 62 26 96q0 20 3 36l117 580h52L83 135q-3-18-3-34 0-55 62-55l-9-46Q72 0 46 34m106 722l90 129h55l-94-129h-51z" horiz-adv-x="198" vert-adv-y="1000"/><glyph glyph-name="uni013B" unicode="Ļ" d="M14 0l142 712h56L80 50h178L248 0H14m22-169l77 132h43L88-169H36z" horiz-adv-x="319" vert-adv-y="1000"/><glyph glyph-name="uni013C" unicode="ļ" d="M46 34Q26 62 26 96q0 20 3 36l117 580h52L83 135q-3-18-3-34 0-55 62-55l-9-46Q72 0 46 34m-71-203L52-37h43L27-169h-52z" horiz-adv-x="198" vert-adv-y="1000"/><glyph glyph-name="uni013D" unicode="Ľ" d="M14 0l142 712h56L80 50h178L248 0H14m230 579l47 133h48l-54-133h-41z" horiz-adv-x="319" vert-adv-y="1000"/><glyph glyph-name="uni013E" unicode="ľ" d="M46 34Q26 62 26 96q0 20 3 36l117 580h52L83 135q-3-18-3-34 0-55 62-55l-9-46Q72 0 46 34m169 552l47 133h48l-54-133h-41z" horiz-adv-x="198" vert-adv-y="1000"/><glyph glyph-name="uni013F" unicode="Ŀ" d="M14 0l142 712h56L80 50h178L248 0H14m229 326l13 62h58l-13-62h-58z" horiz-adv-x="340" vert-adv-y="1000"/><glyph glyph-name="uni0140" unicode="ŀ" d="M46 34Q26 62 26 96q0 20 3 36l117 580h52L83 135q-3-18-3-34 0-55 62-55l-9-46Q72 0 46 34m124 242l13 62h58l-13-62h-58z" horiz-adv-x="235" vert-adv-y="1000"/><glyph glyph-name="uni0141" unicode="Ł" d="M17 0l59 295-55-47 12 61 55 47 71 356h56l-60-302 107 90-12-61-108-90L83 50h178L251 0H17z" horiz-adv-x="323" vert-adv-y="1000"/><glyph glyph-name="uni0142" unicode="ł" d="M17 257l11 60 70 63 67 332h52l-56-278 73 67-12-60-73-68-47-238q-3-18-3-34 0-55 62-55l-9-46Q91 0 65 34 45 62 45 96q0 20 3 36l38 189-69-64z" horiz-adv-x="222" vert-adv-y="1000"/><glyph glyph-name="uni0143" unicode="Ń" d="M14 0l142 712h51l72-557 109 557h56L302 0h-49l-72 557L70 0H14m268 760l90 129h55l-94-129h-51z" horiz-adv-x="416" vert-adv-y="1000"/><glyph glyph-name="uni0144" unicode="ń" d="M8 0l101 508h51l-8-39q13 17 32 31 22 16 55 16 48 0 70-36 15-23 15-58 0-16-6-48L244 0h-52l74 374q5 22 5 41 0 23-13 39t-40 16q-65 0-84-96L60 0H8m206 582l90 129h55l-94-129h-51z" horiz-adv-x="348" vert-adv-y="1000"/><glyph glyph-name="uni0145" unicode="Ņ" d="M14 0l142 712h51l72-557 109 557h56L302 0h-49l-72 557L70 0H14m40-169l77 132h43l-68-132H54z" horiz-adv-x="416" vert-adv-y="1000"/><glyph glyph-name="uni0146" unicode="ņ" d="M8 0l101 508h51l-8-39q13 17 32 31 22 16 55 16 48 0 70-36 15-23 15-58 0-16-6-48L244 0h-52l74 374q5 22 5 41 0 23-13 39t-40 16q-65 0-84-96L60 0H8m22-169l77 132h43L82-169H30z" horiz-adv-x="348" vert-adv-y="1000"/><glyph glyph-name="uni0147" unicode="Ň" d="M14 0l142 712h51l72-557 109 557h56L302 0h-49l-72 557L70 0H14m271 753l-55 130h45l38-92 75 92h48L330 753h-45z" horiz-adv-x="416" vert-adv-y="1000"/><glyph glyph-name="uni0148" unicode="ň" d="M8 0l101 508h51l-8-39q13 17 32 31 22 16 55 16 48 0 70-36 15-23 15-58 0-16-6-48L244 0h-52l74 374q5 22 5 41 0 23-13 39t-40 16q-65 0-84-96L60 0H8m210 574l-55 130h45l38-92 75 92h48L263 574h-45z" horiz-adv-x="348" vert-adv-y="1000"/><glyph glyph-name="uni0149" unicode="ŉ" d="M17 0l101 508h51l-8-39q13 17 32 31 22 16 55 16 48 0 70-36 15-23 15-58 0-16-6-48L253 0h-52l74 374q5 22 5 41 0 23-13 39t-40 16q-65 0-84-96L69 0H17m55 570l30 150h49l-22-111-57-39z" horiz-adv-x="358" vert-adv-y="1000"/><glyph glyph-name="uni014A" unicode="Ŋ" d="M14 0l142 712h51l72-557 109 557h56L295-35q-13-67-56-103-38-32-99-32l10 50q32 0 57 21.5T240-36l9 46-68 547L70 0H14z" horiz-adv-x="416" vert-adv-y="1000"/><glyph glyph-name="uni014B" unicode="ŋ" d="M8 0l101 508h51l-8-39q13 17 32 31 22 16 55 16 48 0 70-36 15-23 15-58 0-16-6-48L237-35q-13-66-57-103-40-32-100-32l9 46q35 0 61 22.5T185-35l81 409q5 22 5 41 0 23-13 39t-40 16q-65 0-84-96L60 0H8z" horiz-adv-x="348" vert-adv-y="1000"/><glyph glyph-name="uni014C" unicode="Ō" d="M71 356q36 179 55.5 237t55.5 91q40 36 101 36 66 0 96-41 24-33 24-80 0-55-37-243-36-179-55.5-237T255 28Q215-8 154-8 88-8 58 33q-24 33-24 80 0 55 37 243m239 0q37 181 37 237 0 77-69 77-36 0-61-24t-41.5-76.5Q159 517 127 356 90 175 90 119q0-77 69-77 35 0 61 24 25 24 41.5 76.5T310 356M204 790l9 42h198l-9-42H204z" horiz-adv-x="395" vert-adv-y="1000"/><glyph glyph-name="uni014D" unicode="ō" d="M95 254Q72 137 72 102q0-30 11-45 14-19 39-19 30 0 52 22 19 19 32 60.5T237 254q23 117 23 152 0 30-11 45-14 19-39 19-30 0-52-22-19-19-32-60.5T95 254m194 0q-21-108-38-155t-42-72Q174-8 118-8 60-8 36 32q-14 23-14 69 0 43 21 153 21 108 38 155t42 72q35 35 91 35 58 0 82-40 14-23 14-69 0-43-21-153M136 612l9 42h198l-9-42H136z" horiz-adv-x="331" vert-adv-y="1000"/><glyph glyph-name="uni014E" unicode="Ŏ" d="M71 356q36 179 55.5 237t55.5 91q40 36 101 36 66 0 96-41 24-33 24-80 0-55-37-243-36-179-55.5-237T255 28Q215-8 154-8 88-8 58 33q-24 33-24 80 0 55 37 243m239 0q37 181 37 237 0 77-69 77-36 0-61-24t-41.5-76.5Q159 517 127 356 90 175 90 119q0-77 69-77 35 0 61 24 25 24 41.5 76.5T310 356m108 500q-15-54-43.5-77.5T299 755q-42 0-64 22.5T213 837q0 8 1 19h40v-9q0-51 49-51 55 0 73 60h42z" horiz-adv-x="395" vert-adv-y="1000"/><glyph glyph-name="uni014F" unicode="ŏ" d="M95 254Q72 137 72 102q0-30 11-45 14-19 39-19 30 0 52 22 19 19 32 60.5T237 254q23 117 23 152 0 30-11 45-14 19-39 19-30 0-52-22-19-19-32-60.5T95 254m194 0q-21-108-38-155t-42-72Q174-8 118-8 60-8 36 32q-14 23-14 69 0 43 21 153 21 108 38 155t42 72q35 35 91 35 58 0 82-40 14-23 14-69 0-43-21-153m62 424q-15-54-43.5-77.5T232 577q-42 0-64 22.5T146 659q0 8 1 19h40v-9q0-51 49-51 55 0 73 60h42z" horiz-adv-x="331" vert-adv-y="1000"/><glyph glyph-name="uni0150" unicode="Ő" d="M71 356q36 179 55.5 237t55.5 91q40 36 101 36 66 0 96-41 24-33 24-80 0-55-37-243-36-179-55.5-237T255 28Q215-8 154-8 88-8 58 33q-24 33-24 80 0 55 37 243m239 0q37 181 37 237 0 77-69 77-36 0-61-24t-41.5-76.5Q159 517 127 356 90 175 90 119q0-77 69-77 35 0 61 24 25 24 41.5 76.5T310 356m-97 404l80 129h53l-85-129h-48m117 0l80 129h54l-85-129h-49z" horiz-adv-x="395" vert-adv-y="1000"/><glyph glyph-name="uni0151" unicode="ő" d="M95 254Q72 137 72 102q0-30 11-45 14-19 39-19 30 0 52 22 19 19 32 60.5T237 254q23 117 23 152 0 30-11 45-14 19-39 19-30 0-52-22-19-19-32-60.5T95 254m194 0q-21-108-38-155t-42-72Q174-8 118-8 60-8 36 32q-14 23-14 69 0 43 21 153 21 108 38 155t42 72q35 35 91 35 58 0 82-40 14-23 14-69 0-43-21-153M147 582l80 129h53l-85-129h-48m117 0l80 129h54l-85-129h-49z" horiz-adv-x="331" vert-adv-y="1000"/><glyph glyph-name="uni0152" unicode="Œ" d="M71 356q35 176 55.5 235.5T182 684q40 36 101 36 64 0 89-54l10 46h233l-10-50H427l-56-280h153l-10-50H361L305 50h178L473 0H242l8 35Q212-8 152-8 88-8 58 34q-24 32-24 79 0 55 37 243m56 0Q90 168 90 119q0-77 68-77 39 0 64 26 24 24 41 79.5T310 356q37 181 37 237 0 77-68 77-38 0-63-26-24-24-41.5-79T127 356z" horiz-adv-x="567" vert-adv-y="1000"/><glyph glyph-name="uni0153" unicode="œ" d="M95 254Q72 137 72 102q0-30 11-45 14-19 39-19 30 0 52 22 19 19 32 60.5T237 254q23 117 23 152 0 30-11 45-14 19-39 19-30 0-52-22-19-19-32-60.5T95 254M313-8q-54 0-79 36-7 11-10 22-9-16-21-27-34-31-85-31-58 0-82 40-14 23-14 69 0 43 21 153 21 108 38 155t42 72q35 35 91 35 53 0 77-34 6-10 10-25 8 16 20 28 37 31 88 31 55 0 79-37 17-26 17-69 0-41-23-163H287q-22-117-22-146t14-46q15-17 39-17 29 0 51 19 25 22 37 77h51q-14-72-52-109-36-33-92-33m-17 298h142q16 77 16 118 0 62-51 62-30 0-51-22-19-21-30-53t-26-105z" horiz-adv-x="520" vert-adv-y="1000"/><glyph glyph-name="uni0154" unicode="Ŕ" d="M14 0l142 712h127q120 0 120-119 0-37-8-78-19-90-47.5-131.5T274 328L313 0h-57l-35 319h-88L70 0H14m129 369h75q45 0 74 31t47 115q7 35 7 71 0 39-16.5 57.5T274 662h-72l-59-293m112 391l90 129h55l-94-129h-51z" horiz-adv-x="406" vert-adv-y="1000"/><glyph glyph-name="uni0155" unicode="ŕ" d="M8 0l101 508h51l-11-53q14 24 41 42 29 19 77 19l-10-48h-12q-42 0-72.5-27.5T132 366L60 0H8m149 582l90 129h55l-94-129h-51z" horiz-adv-x="228" vert-adv-y="1000"/><glyph glyph-name="uni0156" unicode="Ŗ" d="M14 0l142 712h127q120 0 120-119 0-37-8-78-19-90-47.5-131.5T274 328L313 0h-57l-35 319h-88L70 0H14m129 369h75q45 0 74 31t47 115q7 35 7 71 0 39-16.5 57.5T274 662h-72l-59-293M54-169l77 132h43l-68-132H54z" horiz-adv-x="406" vert-adv-y="1000"/><glyph glyph-name="uni0157" unicode="ŗ" d="M8 0l101 508h51l-11-53q14 24 41 42 29 19 77 19l-10-48h-12q-42 0-72.5-27.5T132 366L60 0H8m-76-169L9-37h43l-68-132h-52z" horiz-adv-x="228" vert-adv-y="1000"/><glyph glyph-name="uni0158" unicode="Ř" d="M14 0l142 712h127q120 0 120-119 0-37-8-78-19-90-47.5-131.5T274 328L313 0h-57l-35 319h-88L70 0H14m129 369h75q45 0 74 31t47 115q7 35 7 71 0 39-16.5 57.5T274 662h-72l-59-293m115 384l-55 130h45l38-92 75 92h48L303 753h-45z" horiz-adv-x="406" vert-adv-y="1000"/><glyph glyph-name="uni0159" unicode="ř" d="M8 0l101 508h51l-11-53q14 24 41 42 29 19 77 19l-10-48h-12q-42 0-72.5-27.5T132 366L60 0H8m153 574l-55 130h45l38-92 75 92h48L206 574h-45z" horiz-adv-x="228" vert-adv-y="1000"/><glyph glyph-name="uni015A" unicode="Ś" d="M23 179h56q-8-37-8-66t13-46q17-23 58-23 44 0 69 25 19 19 29.5 43t19.5 71q9 42 9 81 0 45-49 68l-62 30q-36 18-51.5 41.5T91 468q0 26 7 64 12 58 27 91t39 56q39 39 105 39 65 0 95-38 22-28 22-74 0-28-9-72h-55q8 37 8 66t-13 46q-16 22-51 22-36 0-63-24-33-30-49-112-6-30-6-53 0-29 11-44t33-26l60-28q42-20 58.5-45t16.5-62q0-38-11-91-13-63-27-96t-39-55Q207-6 138-6T38 31q-23 28-23 76 0 24 8 72m235 581l90 129h55l-94-129h-51z" horiz-adv-x="372" vert-adv-y="1000"/><glyph glyph-name="uni015B" unicode="ś" d="M24 29Q2 55 2 98q0 20 4 40h52q-3-14-3-35 0-28 13-44 16-21 48-21 35 0 58 22 35 34 35 92 0 45-45 78l-46 33q-60 42-60 99 0 77 53 124 36 30 89 30 58 0 85-36 20-27 20-64 0-18-5-43h-50q4 28 4 37 0 25-12 40-15 20-46 20-30 0-52-19-34-31-34-82 0-39 39-66l48-33q35-24 49.5-49.5T261 158q0-86-54-133-39-33-96-33-56 0-87 37m174 553l90 129h55l-94-129h-51z" horiz-adv-x="313" vert-adv-y="1000"/><glyph glyph-name="uni015C" unicode="Ŝ" d="M23 179h56q-8-37-8-66t13-46q17-23 58-23 44 0 69 25 19 19 29.5 43t19.5 71q9 42 9 81 0 45-49 68l-62 30q-36 18-51.5 41.5T91 468q0 26 7 64 12 58 27 91t39 56q39 39 105 39 65 0 95-38 22-28 22-74 0-28-9-72h-55q8 37 8 66t-13 46q-16 22-51 22-36 0-63-24-33-30-49-112-6-30-6-53 0-29 11-44t33-26l60-28q42-20 58.5-45t16.5-62q0-38-11-91-13-63-27-96t-39-55Q207-6 138-6T38 31q-23 28-23 76 0 24 8 72m311 710l54-129h-44l-38 92-76-92h-48l106 129h46z" horiz-adv-x="372" vert-adv-y="1000"/><glyph glyph-name="uni015D" unicode="ŝ" d="M24 29Q2 55 2 98q0 20 4 40h52q-3-14-3-35 0-28 13-44 16-21 48-21 35 0 58 22 35 34 35 92 0 45-45 78l-46 33q-60 42-60 99 0 77 53 124 36 30 89 30 58 0 85-36 20-27 20-64 0-18-5-43h-50q4 28 4 37 0 25-12 40-15 20-46 20-30 0-52-19-34-31-34-82 0-39 39-66l48-33q35-24 49.5-49.5T261 158q0-86-54-133-39-33-96-33-56 0-87 37m249 682l54-129h-44l-38 92-76-92h-48l106 129h46z" horiz-adv-x="313" vert-adv-y="1000"/><glyph glyph-name="uni015E" unicode="Ş" d="M23 179h56q-8-37-8-66t13-46q17-23 58-23 44 0 69 25 19 19 29.5 43t19.5 71q9 42 9 81 0 45-49 68l-62 30q-36 18-51.5 41.5T91 468q0 26 7 64 12 58 27 91t39 56q39 39 105 39 65 0 95-38 22-28 22-74 0-28-9-72h-55q8 37 8 66t-13 46q-16 22-51 22-36 0-63-24-33-30-49-112-6-30-6-53 0-29 11-44t33-26l60-28q42-20 58.5-45t16.5-62q0-38-11-91-13-63-27-96t-39-55Q207-6 138-6T38 31q-23 28-23 76 0 24 8 72m14-348l77 132h43L89-169H37z" horiz-adv-x="372" vert-adv-y="1000"/><glyph glyph-name="uni015F" unicode="ş" d="M24 29Q2 55 2 98q0 20 4 40h52q-3-14-3-35 0-28 13-44 16-21 48-21 35 0 58 22 35 34 35 92 0 45-45 78l-46 33q-60 42-60 99 0 77 53 124 36 30 89 30 58 0 85-36 20-27 20-64 0-18-5-43h-50q4 28 4 37 0 25-12 40-15 20-46 20-30 0-52-19-34-31-34-82 0-39 39-66l48-33q35-24 49.5-49.5T261 158q0-86-54-133-39-33-96-33-56 0-87 37M12-169L89-37h43L64-169H12z" horiz-adv-x="313" vert-adv-y="1000"/><glyph glyph-name="uni0160" unicode="Š" d="M23 179h56q-8-37-8-66t13-46q17-23 58-23 44 0 69 25 19 19 29.5 43t19.5 71q9 42 9 81 0 45-49 68l-62 30q-36 18-51.5 41.5T91 468q0 26 7 64 12 58 27 91t39 56q39 39 105 39 65 0 95-38 22-28 22-74 0-28-9-72h-55q8 37 8 66t-13 46q-16 22-51 22-36 0-63-24-33-30-49-112-6-30-6-53 0-29 11-44t33-26l60-28q42-20 58.5-45t16.5-62q0-38-11-91-13-63-27-96t-39-55Q207-6 138-6T38 31q-23 28-23 76 0 24 8 72m238 574l-55 130h45l38-92 75 92h48L306 753h-45z" horiz-adv-x="372" vert-adv-y="1000"/><glyph glyph-name="uni0161" unicode="š" d="M24 29Q2 55 2 98q0 20 4 40h52q-3-14-3-35 0-28 13-44 16-21 48-21 35 0 58 22 35 34 35 92 0 45-45 78l-46 33q-60 42-60 99 0 77 53 124 36 30 89 30 58 0 85-36 20-27 20-64 0-18-5-43h-50q4 28 4 37 0 25-12 40-15 20-46 20-30 0-52-19-34-31-34-82 0-39 39-66l48-33q35-24 49.5-49.5T261 158q0-86-54-133-39-33-96-33-56 0-87 37m178 545l-55 130h45l38-92 75 92h48L247 574h-45z" horiz-adv-x="313" vert-adv-y="1000"/><glyph glyph-name="uni0162" unicode="Ţ" d="M82 0l132 662H102l11 50h279l-10-50H270L138 0H82M5-169L82-37h43L57-169H5z" horiz-adv-x="320" vert-adv-y="1000"/><glyph glyph-name="uni0163" unicode="ţ" d="M45 97q0 18 5 43l66 326H58l8 42h58l30 149h52l-30-149h82l-8-42h-82l-65-326q-4-19-4-37 0-57 70-57l-9-46Q92 0 65 34 45 61 45 97m-55-266L67-37h43L42-169h-52z" horiz-adv-x="229" vert-adv-y="1000"/><glyph glyph-name="uni0164" unicode="Ť" d="M82 0l132 662H102l11 50h279l-10-50H270L138 0H82m153 753l-55 130h45l38-92 75 92h48L280 753h-45z" horiz-adv-x="320" vert-adv-y="1000"/><glyph glyph-name="uni0165" unicode="ť" d="M45 97q0 18 5 43l66 326H58l8 42h58l30 149h52l-30-149h82l-8-42h-82l-65-326q-4-19-4-37 0-57 70-57l-9-46Q92 0 65 34 45 61 45 97m190 489l47 133h48l-54-133h-41z" horiz-adv-x="229" vert-adv-y="1000"/><glyph glyph-name="uni0166" unicode="Ŧ" d="M102 662l11 50h279l-10-50H270l-56-280h66l-8-46h-67L138 0H82l67 336H82l9 46h67l56 280H102z" horiz-adv-x="320" vert-adv-y="1000"/><glyph glyph-name="uni0167" unicode="ŧ" d="M33 286l8 39h57l29 141H69l8 42h58l30 149h52l-30-149h82l-8-42h-82l-28-141h82l-8-39h-82l-29-146q-4-19-4-37 0-57 70-57l-9-46q-68 0-95 34-20 27-20 63 0 18 5 43l29 146H33z" horiz-adv-x="252" vert-adv-y="1000"/><glyph glyph-name="uni0168" unicode="Ũ" d="M39 160l111 552h56L93 152q-4-20-4-37 0-73 66-73 35 0 64 27t38 74l115 569h56L313 142q-14-74-60-113Q211-8 146-8 88-8 57 32q-24 30-24 76 0 22 6 52m176 621l-22 29q41 36 69 36 24 0 50-18 22-16 39-16 19 0 44 24l23-28q-41-36-70-36-25 0-50 18-23 15-38 15-20 0-45-24z" horiz-adv-x="393" vert-adv-y="1000"/><glyph glyph-name="uni0169" unicode="ũ" d="M341 508L240 0h-51l8 39q-13-17-32-31-22-16-55-16-48 0-70 36-15 23-15 58 0 16 6 48l74 374h52L83 134q-5-22-5-41 0-23 13-39t40-16q65 0 84 96l74 374h52m-186 95l-22 29q41 36 69 36 25 0 50-18 22-16 39-16 19 0 44 24l23-28q-41-36-70-36-25 0-50 18-23 15-38 15-20 0-45-24z" horiz-adv-x="348" vert-adv-y="1000"/><glyph glyph-name="uni016A" unicode="Ū" d="M39 160l111 552h56L93 152q-4-20-4-37 0-73 66-73 35 0 64 27t38 74l115 569h56L313 142q-14-74-60-113Q211-8 146-8 88-8 57 32q-24 30-24 76 0 22 6 52m164 630l9 42h198l-9-42H203z" horiz-adv-x="393" vert-adv-y="1000"/><glyph glyph-name="uni016B" unicode="ū" d="M341 508L240 0h-51l8 39q-13-17-32-31-22-16-55-16-48 0-70 36-15 23-15 58 0 16 6 48l74 374h52L83 134q-5-22-5-41 0-23 13-39t40-16q65 0 84 96l74 374h52M141 612l9 42h198l-9-42H141z" horiz-adv-x="348" vert-adv-y="1000"/><glyph glyph-name="uni016C" unicode="Ŭ" d="M39 160l111 552h56L93 152q-4-20-4-37 0-73 66-73 35 0 64 27t38 74l115 569h56L313 142q-14-74-60-113Q211-8 146-8 88-8 57 32q-24 30-24 76 0 22 6 52m378 696q-15-54-43.5-77.5T298 755q-42 0-64 22.5T212 837q0 8 1 19h40v-9q0-51 49-51 55 0 73 60h42z" horiz-adv-x="393" vert-adv-y="1000"/><glyph glyph-name="uni016D" unicode="ŭ" d="M341 508L240 0h-51l8 39q-13-17-32-31-22-16-55-16-48 0-70 36-15 23-15 58 0 16 6 48l74 374h52L83 134q-5-22-5-41 0-23 13-39t40-16q65 0 84 96l74 374h52m15 170q-15-54-43.5-77.5T237 577q-42 0-64 22.5T151 659q0 8 1 19h40v-9q0-51 49-51 55 0 73 60h42z" horiz-adv-x="348" vert-adv-y="1000"/><glyph glyph-name="uni016E" unicode="Ů" d="M39 160l111 552h56L93 152q-4-20-4-37 0-73 66-73 35 0 64 27t38 74l115 569h56L313 142q-14-74-60-113Q211-8 146-8 88-8 57 32q-24 30-24 76 0 22 6 52m227.5 719.5l-7.75-7.75Q251 864 251 841t16-39q16-16 38-16t38 16q16 16 16 39t-15.5 38.5Q328 895 305 895t-38.5-15.5m-25-102l-13.25 13.25Q215 804 215 841t26.5 63.5Q268 931 305 931t63.5-26.5Q395 878 395 841t-26.5-63.5Q342 751 305 751t-63.5 26.5z" horiz-adv-x="393" vert-adv-y="1000"/><glyph glyph-name="uni016F" unicode="ů" d="M341 508L240 0h-51l8 39q-13-17-32-31-22-16-55-16-48 0-70 36-15 23-15 58 0 16 6 48l74 374h52L83 134q-5-22-5-41 0-23 13-39t40-16q65 0 84 96l74 374h52M197 672q0-23 16-39t38-16q22 0 38 16t16 39q0 22-15.5 38T251 726q-23 0-38.5-16T197 672m-9.5-64l-13.25 13Q161 634 161 672t26.5 64q26.5 26 63.5 26t63.5-26q26.5-26 26.5-64t-26.5-64Q288 582 251 582t-63.5 26z" horiz-adv-x="348" vert-adv-y="1000"/><glyph glyph-name="uni0170" unicode="Ű" d="M39 160l111 552h56L93 152q-4-20-4-37 0-73 66-73 35 0 64 27t38 74l115 569h56L313 142q-14-74-60-113Q211-8 146-8 88-8 57 32q-24 30-24 76 0 22 6 52m173 600l80 129h53l-85-129h-48m117 0l80 129h54l-85-129h-49z" horiz-adv-x="393" vert-adv-y="1000"/><glyph glyph-name="uni0171" unicode="ű" d="M341 508L240 0h-51l8 39q-13-17-32-31-22-16-55-16-48 0-70 36-15 23-15 58 0 16 6 48l74 374h52L83 134q-5-22-5-41 0-23 13-39t40-16q65 0 84 96l74 374h52m-189 74l80 129h53l-85-129h-48m117 0l80 129h54l-85-129h-49z" horiz-adv-x="348" vert-adv-y="1000"/><glyph glyph-name="uni0172" unicode="Ų" d="M39 160l111 552h56L93 152q-4-20-4-37 0-73 66-73 35 0 64 27t38 74l115 569h56L313 142q-14-74-60-113Q211-8 146-8 88-8 57 32q-24 30-24 76 0 22 6 52m71-329l77 132h43l-68-132h-52z" horiz-adv-x="393" vert-adv-y="1000"/><glyph glyph-name="uni0173" unicode="ų" d="M341 508L240 0h-51l8 39q-13-17-32-31-22-16-55-16-48 0-70 36-15 23-15 58 0 16 6 48l74 374h52L83 134q-5-22-5-41 0-23 13-39t40-16q65 0 84 96l74 374h52M112-169l77 132h43l-68-132h-52z" horiz-adv-x="348" vert-adv-y="1000"/><glyph glyph-name="uni0174" unicode="Ŵ" d="M64 0l40 712h58l-45-606 230 606h59l-7-606 192 606h58L409 0h-60l7 606L123 0H64m367 889l54-129h-44l-38 92-76-92h-48l106 129h46z" horiz-adv-x="569" vert-adv-y="1000"/><glyph glyph-name="uni0175" unicode="ŵ" d="M51 0l12 508h53L97 91l162 417h48l-7-418 149 418h54L310 0h-52l7 417L104 0H51m285 711l54-129h-44l-38 92-76-92h-48l106 129h46z" horiz-adv-x="465" vert-adv-y="1000"/><glyph glyph-name="uni0176" unicode="Ŷ" d="M70 0l60 303-34 409h58l20-330 148 330h62L184 292 126 0H70m228 889l54-129h-44l-38 92-76-92h-48l106 129h46z" horiz-adv-x="297" vert-adv-y="1000"/><glyph glyph-name="uni0177" unicode="ŷ" d="M-73-157q66 0 95 61L67 2 55 508h53l2-420 168 420h58L78-99q-26-61-63-83t-98-22l10 47m332 868l54-129h-44l-38 92-76-92h-48l106 129h46z" horiz-adv-x="287" vert-adv-y="1000"/><glyph glyph-name="uni0178" unicode="Ÿ" d="M70 0l60 303-34 409h58l20-330 148 330h62L184 292 126 0H70m89 780l12 62h58l-12-62h-58m128 0l13 62h58l-13-62h-58z" horiz-adv-x="297" vert-adv-y="1000"/><glyph glyph-name="uni0179" unicode="Ź" d="M-24 0l9 43 313 619H117l10 50h241l-9-43L46 50h192L228 0H-24m252 760l90 129h55l-94-129h-51z" horiz-adv-x="304" vert-adv-y="1000"/><glyph glyph-name="uni017A" unicode="ź" d="M-31 0l8 39 244 423H67l9 46h213l-7-38L36 46h166l-9-46H-31m201 582l90 129h55l-94-129h-51z" horiz-adv-x="264" vert-adv-y="1000"/><glyph glyph-name="uni017B" unicode="Ż" d="M-24 0l9 43 313 619H117l10 50h241l-9-43L46 50h192L228 0H-24m255 784l13 62h58l-13-62h-58z" horiz-adv-x="304" vert-adv-y="1000"/><glyph glyph-name="uni017C" unicode="ż" d="M-31 0l8 39 244 423H67l9 46h213l-7-38L36 46h166l-9-46H-31m204 606l13 62h58l-13-62h-58z" horiz-adv-x="264" vert-adv-y="1000"/><glyph glyph-name="uni017D" unicode="Ž" d="M-24 0l9 43 313 619H117l10 50h241l-9-43L46 50h192L228 0H-24m255 753l-55 130h45l38-92 75 92h48L276 753h-45z" horiz-adv-x="304" vert-adv-y="1000"/><glyph glyph-name="uni017E" unicode="ž" d="M-31 0l8 39 244 423H67l9 46h213l-7-38L36 46h166l-9-46H-31m205 574l-55 130h45l38-92 75 92h48L219 574h-45z" horiz-adv-x="264" vert-adv-y="1000"/><glyph glyph-name="uni017F" unicode="ſ" d="M8 0l116 578q14 72 54 105 38 30 106 30l-9-46q-82 0-100-89L60 0H8z" horiz-adv-x="168" vert-adv-y="1000"/><glyph glyph-name="uni018F" unicode="Ə" d="M71 379h240q32 166 32 214 0 77-70 77-39 0-63-24-32-28-46-95h-56q22 96 71 137 40 32 98 32 65 0 97-41 25-31 25-80 0-55-37-243-36-179-55.5-237T251 28Q211-8 150-8 84-8 54 33q-24 33-24 80 0 54 41 266m230-48H118Q86 170 86 119q0-77 68-77 36 0 62 24 24 23 40 71.5T301 331z" horiz-adv-x="392" vert-adv-y="1000"/><glyph glyph-name="uni0192" unicode="ƒ" d="M71 382h63l79 203q26 69 65.5 99T384 714h18l-10-47h-19q-77 0-108-82l-79-203h86l-9-42h-92L-40-205h-53l212 545H62l9 42z" horiz-adv-x="320" vert-adv-y="1000"/><glyph glyph-name="uni01B5" unicode="Ƶ" d="M71 336l9 46h76l142 280H117l10 50h241l-9-43-146-287h62l-9-46h-77L46 50h192L228 0H-24l9 43 147 293H71z" horiz-adv-x="304" vert-adv-y="1000"/><glyph glyph-name="uni01B6" unicode="ƶ" d="M38 248l8 39h74l101 175H67l9 46h213l-7-38-106-183h59l-7-39h-75L36 46h166l-9-46H-31l8 39L97 248H38z" horiz-adv-x="264" vert-adv-y="1000"/><glyph glyph-name="uni01C4" unicode="Ǆ" d="M80 50h78q43 0 67 24 26 25 42 76.5T314 356q37 184 37 233 0 31-16 52t-54 21h-79L80 50M14 0l142 712h135q64 0 92-41 24-33 24-82 0-48-37-233-35-173-54.5-230.5T261 37Q220 0 157 0H14m361 0l9 43 313 619H516l10 50h241l-9-43L445 50h192L627 0H375m254 753l-55 130h45l38-92 75 92h48L674 753h-45z" horiz-adv-x="703" vert-adv-y="1000"/><glyph glyph-name="uni01C5" unicode="ǅ" d="M80 50h78q43 0 67 24 26 25 42 76.5T314 356q37 184 37 233 0 31-16 52t-54 21h-79L80 50M14 0l142 712h135q64 0 92-41 24-33 24-82 0-48-37-233-35-173-54.5-230.5T261 37Q220 0 157 0H14m355 0l8 39 244 423H467l9 46h213l-7-38L436 46h166l-9-46H369m204 574l-55 130h45l38-92 75 92h48L618 574h-45z" horiz-adv-x="663" vert-adv-y="1000"/><glyph glyph-name="uni01C6" unicode="ǆ" d="M42 254q22 110 38 157t41 71q35 34 81 34 36 0 54-18 14-14 19-28l49 242h52L234 0h-51l7 36q-13-18-31-29-24-15-54-15-47 0-70 36-16 23-16 66 0 48 23 160m52 0Q71 141 71 101q0-28 10-42 16-21 40-21 27 0 49 19 28 25 38 73l49 248q3 18 3 32 0 28-14 44-13 16-38 16-28 0-50-21-19-18-32.5-61T94 254M312 0l8 39 244 423H410l9 46h213l-7-38L379 46h166l-9-46H312m204 574l-55 130h45l38-92 75 92h48L561 574h-45z" horiz-adv-x="606" vert-adv-y="1000"/><glyph glyph-name="uni01C7" unicode="Ǉ" d="M14 0l142 712h56L80 50h178L248 0H14m277 44l43 32q25-34 64-34 80 0 104 120l110 550h56L556 154q-17-83-56-121Q459-8 396-8q-73 0-105 52z" horiz-adv-x="633" vert-adv-y="1000"/><glyph glyph-name="uni01C8" unicode="ǈ" d="M14 0l142 712h56L80 50h178L248 0H14m300-64l115 572h52L366-69q-14-73-54-105-38-30-104-30l10 47q77 0 96 93m131 687l12 66h65l-12-66h-65z" horiz-adv-x="487" vert-adv-y="1000"/><glyph glyph-name="uni01C9" unicode="ǉ" d="M46 34Q26 62 26 96q0 20 3 36l117 580h52L83 135q-3-18-3-34 0-55 62-55l-9-46Q72 0 46 34m147-98l115 572h52L245-69q-14-73-54-105-38-30-104-30l10 47q77 0 96 93m131 687l12 66h65l-12-66h-65z" horiz-adv-x="366" vert-adv-y="1000"/><glyph glyph-name="uni01CA" unicode="Ǌ" d="M14 0l142 712h51l72-557 109 557h56L302 0h-49l-72 557L70 0H14m374 44l43 32q25-34 64-34 80 0 104 120l110 550h56L653 154q-17-83-56-121Q556-8 493-8q-73 0-105 52z" horiz-adv-x="730" vert-adv-y="1000"/><glyph glyph-name="uni01CB" unicode="ǋ" d="M14 0l142 712h51l72-557 109 557h56L302 0h-49l-72 557L70 0H14m397-64l115 572h52L463-69q-14-73-54-105-38-30-104-30l10 47q77 0 96 93m131 687l12 66h65l-12-66h-65z" horiz-adv-x="584" vert-adv-y="1000"/><glyph glyph-name="uni01CC" unicode="ǌ" d="M8 0l101 508h51l-8-39q13 17 32 31 22 16 55 16 48 0 70-36 15-23 15-58 0-16-6-48L244 0h-52l74 374q5 22 5 41 0 23-13 39t-40 16q-65 0-84-96L60 0H8m335-64l115 572h52L395-69q-14-73-54-105-38-30-104-30l10 47q77 0 96 93m131 687l12 66h65l-12-66h-65z" horiz-adv-x="516" vert-adv-y="1000"/><glyph glyph-name="uni01F1" unicode="Ǳ" d="M80 50h78q43 0 67 24 26 25 42 76.5T314 356q37 184 37 233 0 31-16 52t-54 21h-79L80 50M14 0l142 712h135q64 0 92-41 24-33 24-82 0-48-37-233-35-173-54.5-230.5T261 37Q220 0 157 0H14m361 0l9 43 313 619H516l10 50h241l-9-43L445 50h192L627 0H375z" horiz-adv-x="703" vert-adv-y="1000"/><glyph glyph-name="uni01F2" unicode="ǲ" d="M80 50h78q43 0 67 24 26 25 42 76.5T314 356q37 184 37 233 0 31-16 52t-54 21h-79L80 50M14 0l142 712h135q64 0 92-41 24-33 24-82 0-48-37-233-35-173-54.5-230.5T261 37Q220 0 157 0H14m354 0l8 39 244 423H466l9 46h213l-7-38L435 46h166l-9-46H368z" horiz-adv-x="663" vert-adv-y="1000"/><glyph glyph-name="uni01F3" unicode="ǳ" d="M42 254q22 110 38 157t41 71q35 34 81 34 36 0 54-18 14-14 19-28l49 242h52L234 0h-51l7 36q-13-18-31-29-24-15-54-15-47 0-70 36-16 23-16 66 0 48 23 160m52 0Q71 141 71 101q0-28 10-42 16-21 40-21 27 0 49 19 28 25 38 73l49 248q3 18 3 32 0 28-14 44-13 16-38 16-28 0-50-21-19-18-32.5-61T94 254M311 0l8 39 244 423H409l9 46h213l-7-38L378 46h166l-9-46H311z" horiz-adv-x="606" vert-adv-y="1000"/><glyph glyph-name="uni01FA" unicode="Ǻ" d="M304 0h-55l1 196H91L12 0h-58l291 712h54l5-712m-54 246l3 366-142-366h139m38 697l90 129h55l-94-129h-51m-38-63.5l-8-7.75q-8-7.75-8-30.75t16-39q16-16 38-16t38 16q16 16 16 39t-16 38.5Q310 895 288 895t-38-15.5m-26-102l-13 13.25Q198 804 198 841t26.5 63.5Q251 931 288 931q38 0 64-26.5t26-63.5q0-37-26.5-63.5T288 751q-38 0-64 26.5z" horiz-adv-x="356" vert-adv-y="1000"/><glyph glyph-name="uni01FB" unicode="ǻ" d="M23 27Q7 51 7 95q0 25 5 47 15 76 63 117 35 29 97 29h59l18 92q4 19 4 33 0 57-53 57-28 0-47-18-24-20-35-74H66q15 75 52 107 35 31 88 31 57 0 81-32 18-25 18-67 0-17-4-39L225 0h-50l8 43q-15-21-32-33Q128-8 93-8 48-8 23 27m37 74q0-63 48-63 35 0 59.5 29t32.5 66l23 115h-49q-42 0-67-23-22-19-34.5-54T60 101m128 571q0-23 16-39t38-16q22 0 38 16t16 39q0 22-16 38t-38 16q-22 0-38-16t-16-38m-10-64l-13 13q-13 13-13 51t26 64q26 26 64 26t64-26q26-26 26-64t-26-64q-26-26-64-26t-64 26m53 164l90 129h55l-94-129h-51z" horiz-adv-x="329" vert-adv-y="1000"/><glyph glyph-name="uni01FC" unicode="Ǽ" d="M-47 0l392 712h271l-10-50H428l-55-278h152l-10-50H362L306 50h178L474 0H240l39 198H121L15 0h-62m196 248h140l83 417-223-417m242 512l90 129h55l-94-129h-51z" horiz-adv-x="568" vert-adv-y="1000"/><glyph glyph-name="uni01FD" unicode="ǽ" d="M206 516q66 0 87-50 36 50 103 50 55 0 79-37 17-26 17-69 0-41-23-163H274q-22-117-22-146t14-46q15-17 39-17 29 0 51 19 25 22 37 77h51q-14-72-52-109-36-33-92-33-49 0-75 31-14 17-20 41-17-31-34-43Q135-8 93-8 48-8 23 27 7 51 7 95q0 25 5 47 15 76 63 117 35 29 97 29h59l18 92q4 19 4 33 0 57-53 57-28 0-47-18-24-20-35-74H66q15 75 52 107 35 31 88 31M60 101q0-63 48-63 35 0 59.5 29t32.5 66l23 115h-49q-42 0-67-23-22-19-34.5-54T60 101m223 189h142q16 77 16 118 0 62-51 62-30 0-51-22-19-21-30-53t-26-105m3 292l90 129h55l-94-129h-51z" horiz-adv-x="507" vert-adv-y="1000"/><glyph glyph-name="uni01FE" unicode="Ǿ" d="M71 356q36 179 55.5 237t55.5 91q40 36 101 36 50 0 78-23l29 59h46l-47-93q14-28 14-64 0-55-37-243-36-179-55.5-237T255 28Q215-8 154-8q-49 0-79 22L47-44H1l47 92q-14 28-14 65 0 55 37 243m239 0q34 169 37 229L101 69q16-27 57-27 36 0 62 24 25 24 41.5 76.5T310 356m-183 0Q91 180 90 128l245 516q-16 26-57 26-36 0-61-24t-41.5-76.5Q159 517 127 356m143 404l90 129h55l-94-129h-51z" horiz-adv-x="395" vert-adv-y="1000"/><glyph glyph-name="uni01FF" unicode="ǿ" d="M289 254q-21-108-38-155t-42-72Q174-8 118-8 76-8 53 12L24-44h-43l48 89q-7 18-7 56 0 43 21 153 21 108 38 155t42 72q35 35 91 35 41 0 64-20l30 56h43l-49-90q8-21 8-55 0-43-21-153m-52 0q21 111 23 142L81 59q11-21 41-21t52 22q19 19 32 60.5T237 254m-142 0q-20-98-23-141l179 335q-2 2-2 3-14 19-39 19-30 0-52-22-19-19-32-60.5T95 254m108 328l90 129h55l-94-129h-51z" horiz-adv-x="331" vert-adv-y="1000"/><glyph glyph-name="uni0218" unicode="Ș" d="M23 179h56q-8-37-8-66t13-46q17-23 58-23 44 0 69 25 19 19 29.5 43t19.5 71q9 42 9 81 0 45-49 68l-62 30q-36 18-51.5 41.5T91 468q0 26 7 64 12 58 27 91t39 56q39 39 105 39 65 0 95-38 22-28 22-74 0-28-9-72h-55q8 37 8 66t-13 46q-16 22-51 22-36 0-63-24-33-30-49-112-6-30-6-53 0-29 11-44t33-26l60-28q42-20 58.5-45t16.5-62q0-38-11-91-13-63-27-96t-39-55Q207-6 138-6T38 31q-23 28-23 76 0 24 8 72m14-348l77 132h43L89-169H37z" horiz-adv-x="372" vert-adv-y="1000"/><glyph glyph-name="uni0219" unicode="ș" d="M24 29Q2 55 2 98q0 20 4 40h52q-3-14-3-35 0-28 13-44 16-21 48-21 35 0 58 22 35 34 35 92 0 45-45 78l-46 33q-60 42-60 99 0 77 53 124 36 30 89 30 58 0 85-36 20-27 20-64 0-18-5-43h-50q4 28 4 37 0 25-12 40-15 20-46 20-30 0-52-19-34-31-34-82 0-39 39-66l48-33q35-24 49.5-49.5T261 158q0-86-54-133-39-33-96-33-56 0-87 37M12-169L89-37h43L64-169H12z" horiz-adv-x="313" vert-adv-y="1000"/><glyph glyph-name="uni021A" unicode="Ț" d="M82 0l132 662H102l11 50h279l-10-50H270L138 0H82M5-169L82-37h43L57-169H5z" horiz-adv-x="320" vert-adv-y="1000"/><glyph glyph-name="uni021B" unicode="ț" d="M45 97q0 18 5 43l66 326H58l8 42h58l30 149h52l-30-149h82l-8-42h-82l-65-326q-4-19-4-37 0-57 70-57l-9-46Q92 0 65 34 45 61 45 97M-9-169L68-37h43L43-169H-9z" horiz-adv-x="229" vert-adv-y="1000"/><glyph glyph-name="uni0237" unicode="ȷ" d="M-5-64l115 572h52L47-69Q33-142-7-174q-38-30-104-30l10 47q77 0 96 93z" horiz-adv-x="168" vert-adv-y="1000"/><glyph glyph-name="uni0259" unicode="ə" d="M39 261h194q22 105 22 146 0 29-14 47-13 16-39 16-30 0-53-21-25-24-36-74H63q15 75 56 111 33 30 88 30 56 0 83-39 16-25 16-67 0-46-22-156-21-101-39.5-153.5T201 25Q167-8 111-8 57-8 32 30 16 55 16 98q0 50 23 163m186-43H83q-17-82-17-117 0-63 52-63 29 0 51 22 18 17 29.5 50T225 218z" horiz-adv-x="326" vert-adv-y="1000"/><glyph glyph-name="uni02BB" unicode="ʻ" d="M128 620l19 92 74 51-29-143h-64z" horiz-adv-x="173" vert-adv-y="1000"/><glyph glyph-name="uni02BC" unicode="ʼ" d="M118 570l29 142h64l-19-92-74-50z" horiz-adv-x="173" vert-adv-y="1000"/><glyph glyph-name="uni02C6" unicode="ˆ" d="M278 711l54-129h-44l-38 92-76-92h-48l106 129h46z" horiz-adv-x="331" vert-adv-y="1000"/><glyph glyph-name="uni02C7" unicode="ˇ" d="M207 574l-55 130h45l38-92 75 92h48L252 574h-45z" horiz-adv-x="331" vert-adv-y="1000"/><glyph glyph-name="uni02D8" unicode="˘" d="M351 678q-15-54-43.5-77.5T232 577q-42 0-64 22.5T146 659q0 8 1 19h40v-9q0-51 49-51 55 0 73 60h42z" horiz-adv-x="331" vert-adv-y="1000"/><glyph glyph-name="uni02D9" unicode="˙" d="M206 606l13 62h58l-13-62h-58z" horiz-adv-x="331" vert-adv-y="1000"/><glyph glyph-name="uni02DA" unicode="˚" d="M192 672q0-23 16-39t38-16q22 0 38 16t16 39q0 22-16 38t-38 16q-22 0-38-16t-16-38m-10-64l-13 13q-13 13-13 51t26 64q26 26 64 26t64-26q26-26 26-64t-26-64q-26-26-64-26t-64 26z" horiz-adv-x="331" vert-adv-y="1000"/><glyph glyph-name="uni02DB" unicode="˛" d="M18-169L95-37h43L70-169H18z" horiz-adv-x="331" vert-adv-y="1000"/><glyph glyph-name="uni02DC" unicode="˜" d="M150 603l-22 29q41 36 69 36 25 0 50-18 22-16 39-16 19 0 44 24l23-28q-41-36-70-36-25 0-50 18-23 15-38 15-20 0-45-24z" horiz-adv-x="331" vert-adv-y="1000"/><glyph glyph-name="uni02DD" unicode="˝" d="M147 582l80 129h53l-85-129h-48m117 0l80 129h54l-85-129h-49z" horiz-adv-x="330" vert-adv-y="1000"/><glyph glyph-name="uni0394" unicode="Δ" d="M-46 0l291 712h53l4-712H-46m83 50h208l8 559L37 50z" horiz-adv-x="356" vert-adv-y="1000"/><glyph glyph-name="uni03A9" unicode="Ω" d="M127 356Q88 166 88 122q0-54 45-78l-8-44H-5l9 50h72Q54 66 44 83.5T34 132q0 39 37 224 36 179 55.5 237t55.5 91q40 36 101 36 66 0 96-41 24-33 24-80 0-55-37-243-24-123-37-175.5T301 103q-20-33-58-53h67L300 0H170l9 44q47 20 70 64 19 38 61 248 37 188 37 237 0 77-69 77-36 0-61-24t-41.5-76.5Q159 517 127 356z" horiz-adv-x="395" vert-adv-y="1000"/><glyph glyph-name="uni03BC" unicode="μ" d="M105 508h52L83 134q-5-22-5-41 0-23 13-39t40-16q65 0 84 96l74 374h52L240 0h-51l8 39q-13-17-32-31-22-16-55-16-32 0-53 21L14-205h-52l143 713z" horiz-adv-x="348" vert-adv-y="1000"/><glyph glyph-name="uni03C0" unicode="π" d="M8 0l101 508h237L245 0h-52l93 462H153L60 0H8z" horiz-adv-x="353" vert-adv-y="1000"/><glyph glyph-name="uni0400" unicode="Ѐ" d="M14 0l142 712h234l-10-50H202l-55-278h152l-10-50H136L80 50h178L248 0H14m253 763l-43 128h50l38-128h-45z" horiz-adv-x="342" vert-adv-y="1000"/><glyph glyph-name="uni0401" unicode="Ё" d="M14 0l142 712h234l-10-50H202l-55-278h152l-10-50H136L80 50h178L248 0H14m181 780l12 62h58l-12-62h-58m128 0l13 62h58l-13-62h-58z" horiz-adv-x="342" vert-adv-y="1000"/><glyph glyph-name="uni0402" unicode="Ђ" d="M69 0l133 662h-99l10 50h278l-9-50H257l-50-249h64q65 0 95-33 28-32 28-90 0-38-8-78-24-118-64-165T202 0h-18l9 50h13q51 1 78.5 35.5T330 212q7 32 7 73 0 39-17.5 58.5T263 363h-66L125 0H69z" horiz-adv-x="437" vert-adv-y="1000"/><glyph glyph-name="uni0403" unicode="Ѓ" d="M14 0l142 712h229l-10-50H202L70 0H14m219 760l90 129h55l-94-129h-51z" horiz-adv-x="317" vert-adv-y="1000"/><glyph glyph-name="uni0404" unicode="Є" d="M34 117q0 51 37 239 35 176 55.5 235.5T181 682q40 38 105 38 62 0 93-39 22-29 22-82 0-23-5-48h-55q5 28 5 46 0 73-64 73-38 0-64-24-25-24-40.5-70.5T133 384h140l-10-50H122Q89 160 89 117q0-75 67-75 37 0 62 25 34 32 46 95h57q-19-95-72-138-40-32-99-32T61 28q-27 35-27 89z" horiz-adv-x="375" vert-adv-y="1000"/><glyph glyph-name="uni0405" unicode="Ѕ" d="M23 179h56q-8-37-8-66t13-46q17-23 58-23 44 0 69 25 19 19 29.5 43t19.5 71q9 42 9 81 0 45-49 68l-62 30q-36 18-51.5 41.5T91 468q0 26 7 64 12 58 27 91t39 56q39 39 105 39 65 0 95-38 22-28 22-74 0-28-9-72h-55q8 37 8 66t-13 46q-16 22-51 22-36 0-63-24-33-30-49-112-6-30-6-53 0-29 11-44t33-26l60-28q42-20 58.5-45t16.5-62q0-38-11-91-13-63-27-96t-39-55Q207-6 138-6T38 31q-23 28-23 76 0 24 8 72z" horiz-adv-x="372" vert-adv-y="1000"/><glyph glyph-name="uni0406" unicode="І" d="M14 0l142 712h56L70 0H14z" horiz-adv-x="184" vert-adv-y="1000"/><glyph glyph-name="uni0407" unicode="Ї" d="M14 0l142 712h56L70 0H14m88 780l12 62h58l-12-62h-58m128 0l13 62h58l-13-62h-58z" horiz-adv-x="184" vert-adv-y="1000"/><glyph glyph-name="uni0408" unicode="Ј" d="M-28 44l43 32q25-34 64-34 80 0 104 120l110 550h56L237 154q-17-83-56-121Q140-8 77-8 4-8-28 44z" horiz-adv-x="314" vert-adv-y="1000"/><glyph glyph-name="uni0409" unicode="Љ" d="M264 0l132 662H254l-65-326q-18-90-38.5-153.5t-40-98.5Q91 49 67 29.5T24 5Q5 0-21 0h-16l10 50h8q19 0 31.5 3.5t30 20Q60 90 74 120.5t31 88Q122 266 139 349l72 363h251l-62-312h72q65 0 94-32 28-29 28-89 0-41-8-80-23-115-65.5-157T406 0H264m66 50h77q46 0 76 30.5T530 199q8 36 8 75t-17 57.5Q504 350 464 350h-74L330 50z" horiz-adv-x="639" vert-adv-y="1000"/><glyph glyph-name="uni040A" unicode="Њ" d="M236 0l70 350H140L70 0H14l142 712h56l-62-312h166l62 312h56l-62-312h72q65 0 94-32 28-29 28-89 0-41-8-80-23-115-65.5-157T378 0H236m66 50h77q46 0 76 30.5T502 199q8 36 8 75t-17 57.5Q476 350 436 350h-74L302 50z" horiz-adv-x="612" vert-adv-y="1000"/><glyph glyph-name="uni040B" unicode="Ћ" d="M69 0l132 662h-99l11 50h278l-10-50H257l-50-248h60q69 0 100.5-27t31.5-85q0-22-8-62L343 0h-56l47 239q7 35 7 57 0 35-18.5 51T261 363h-63L125 0H69z" horiz-adv-x="441" vert-adv-y="1000"/><glyph glyph-name="uni040C" unicode="Ќ" d="M277 0L148 372l253 340h64L205 370 337 0h-60M14 0l142 712h56L70 0H14m268 760l90 129h55l-94-129h-51z" horiz-adv-x="398" vert-adv-y="1000"/><glyph glyph-name="uni040D" unicode="Ѝ" d="M14 0l142 712h56L101 159l296 553h49L304 0h-56l110 553L64 0H14m278 763l-43 128h50l38-128h-45z" horiz-adv-x="418" vert-adv-y="1000"/><glyph glyph-name="uni040E" unicode="Ў" d="M-25 0l9 50q40 0 62.5 15T90 126l48 103-43 483h57l28-403 185 403h61L134 106q-33-68-62-87T-25 0m211 856h41q-1-6-1-12 0-48 50-48 55 0 73 60h42q-15-54-43.5-77.5T271 755q-42 0-64.5 22.5T184 836q0 8 2 20z" horiz-adv-x="338" vert-adv-y="1000"/><glyph glyph-name="uni040F" unicode="Џ" d="M14 0l142 712h56L80 50h166l132 662h56L292 0H179l-29-141H98L127 0H14z" horiz-adv-x="406" vert-adv-y="1000"/><glyph glyph-name="uni0410" unicode="А" d="M304 0h-55l1 196H91L12 0h-58l291 712h54l5-712m-54 246l3 366-142-366h139z" horiz-adv-x="356" vert-adv-y="1000"/><glyph glyph-name="uni0411" unicode="Б" d="M14 0l142 712h255l-11-50H202l-52-262h72q65 0 94-32 28-29 28-89 0-41-8-80-23-115-65.5-157T156 0H14m66 50h77q46 0 76 30.5T280 199q8 36 8 75t-17 57.5Q254 350 214 350h-74L80 50z" horiz-adv-x="391" vert-adv-y="1000"/><glyph glyph-name="uni0412" unicode="В" d="M14 0l142 712h112q68 0 97-35 26-32 26-77 0-32-7-68-19-97-65-137-21-18-43-25 25-8 40-28 23-30 23-74 0-30-8-72-13-65-29-99.5T261 39Q219 0 135 0H14m66 50h65q52 0 82.5 32.5T275 197q8 38 8 63 0 84-84 84h-60L80 50m69 343h58q93 0 120 135 7 38 7 61 0 37-17.5 55T261 662h-59l-53-269z" horiz-adv-x="391" vert-adv-y="1000"/><glyph glyph-name="uni0413" unicode="Г" d="M14 0l142 712h229l-10-50H202L70 0H14z" horiz-adv-x="317" vert-adv-y="1000"/><glyph glyph-name="uni0414" unicode="Д" d="M-28 50h40q87 155 127 358l60 304h254L320 50h50l-34-169h-54L306 0H17L-7-119h-53l32 169m100 0h192l123 612H245l-54-266Q152 198 72 50z" horiz-adv-x="437" vert-adv-y="1000"/><glyph glyph-name="uni0415" unicode="Е" d="M14 0l142 712h234l-10-50H202l-55-278h152l-10-50H136L80 50h178L248 0H14z" horiz-adv-x="342" vert-adv-y="1000"/><glyph glyph-name="uni0416" unicode="Ж" d="M-45 0l280 380-119 332h59l119-341L20 0h-65m519 0L354 370l248 342h67L414 367 532 0h-58M222 0l142 712h56L278 0h-56z" horiz-adv-x="594" vert-adv-y="1000"/><glyph glyph-name="uni0417" unicode="З" d="M41 26q-26 27-26 89 0 23 4 47h57q-5-27-5-45 0-36 14-54 16-21 52-21 41 0 66 25 21 22 31 49.5t20 77.5q9 45 9 68 0 33-14 52-18 25-52 25h-62l10 49h56q36 0 60 25 17 18 27.5 42t21.5 75q10 46 10 71 0 30-12 47-16 22-47 22-36 0-58-22-29-30-43-97h-56q19 94 61 133 37 36 100 36 60 0 88-37 23-29 23-75 0-30-10-77-12-57-23-84.5T311 394q-17-19-44-32 52-29 52-97 0-27-9-74-13-64-28-99t-44-63Q200-8 133-8 72-8 41 26z" horiz-adv-x="370" vert-adv-y="1000"/><glyph glyph-name="uni0418" unicode="И" d="M14 0l142 712h56L101 159l296 553h49L304 0h-56l110 553L64 0H14z" horiz-adv-x="418" vert-adv-y="1000"/><glyph glyph-name="uni0419" unicode="Й" d="M14 0l142 712h56L101 159l296 553h49L304 0h-56l110 553L64 0H14m213 856h41q-1-6-1-12 0-48 50-48 55 0 73 60h42q-15-54-43.5-77.5T312 755q-42 0-64.5 22.5T225 836q0 8 2 20z" horiz-adv-x="418" vert-adv-y="1000"/><glyph glyph-name="uni041A" unicode="К" d="M277 0L148 372l253 340h64L205 370 337 0h-60M14 0l142 712h56L70 0H14z" horiz-adv-x="398" vert-adv-y="1000"/><glyph glyph-name="uni041B" unicode="Л" d="M-37 0l11 50h7q24 0 41.5 10T60 100q20 30 39 91.5T137 349l73 363h253L321 0h-57l132 662H254l-65-323q-22-112-45-181T94.5 55Q68 21 42.5 10.5T-21 0h-16z" horiz-adv-x="435" vert-adv-y="1000"/><glyph glyph-name="uni041C" unicode="М" d="M14 0l142 712h56l58-410 224 410h57L409 0h-56l111 562-191-356h-41l-49 361L70 0H14z" horiz-adv-x="523" vert-adv-y="1000"/><glyph glyph-name="uni041D" unicode="Н" d="M14 0l142 712h56l-65-325h166l65 325h56L292 0h-56l67 337H137L70 0H14z" horiz-adv-x="406" vert-adv-y="1000"/><glyph glyph-name="uni041E" unicode="О" d="M71 356q36 179 55.5 237t55.5 91q40 36 101 36 66 0 96-41 24-33 24-80 0-55-37-243-36-179-55.5-237T255 28Q215-8 154-8 88-8 58 33q-24 33-24 80 0 55 37 243m239 0q37 181 37 237 0 77-69 77-36 0-61-24t-41.5-76.5Q159 517 127 356 90 175 90 119q0-77 69-77 35 0 61 24 25 24 41.5 76.5T310 356z" horiz-adv-x="395" vert-adv-y="1000"/><glyph glyph-name="uni041F" unicode="П" d="M14 0l142 712h278L292 0h-56l132 662H202L70 0H14z" horiz-adv-x="406" vert-adv-y="1000"/><glyph glyph-name="uni0420" unicode="Р" d="M14 0l142 712h124q63 0 93-30 30-31 30-91 0-35-8-78-23-114-66-156t-114-42h-82L70 0H14m129 365h72q46 0 76.5 31T339 513q7 35 7 73 0 39-17 57.5T272 662h-70l-59-297z" horiz-adv-x="385" vert-adv-y="1000"/><glyph glyph-name="uni0421" unicode="С" d="M34 117q0 51 37 239 35 176 55.5 235.5T181 682q40 38 105 38 62 0 93-39 22-29 22-82 0-23-5-48h-55q5 28 5 46 0 73-64 73-38 0-64-24-26-25-42.5-76T127 356Q89 169 89 117q0-75 67-75 37 0 62 25 34 32 46 95h57q-19-95-72-138-40-32-99-32T61 28q-27 35-27 89z" horiz-adv-x="375" vert-adv-y="1000"/><glyph glyph-name="uni0422" unicode="Т" d="M82 0l132 662H102l11 50h279l-10-50H270L138 0H82z" horiz-adv-x="320" vert-adv-y="1000"/><glyph glyph-name="uni0423" unicode="У" d="M-25 0l9 50q40 0 62.5 15T90 126l48 103-43 483h57l28-403 185 403h61L134 106q-33-68-62-87T-25 0z" horiz-adv-x="338" vert-adv-y="1000"/><glyph glyph-name="uni0424" unicode="Ф" d="M165-4l18 85Q49 88 49 229q0 55 19 150 24 119 53 181t70 88q41 26 110 29l12 60h53l-12-60q134-7 134-148 0-53-19-150-35-169-83-231T235 81L218-4h-53m-41 383q-19-95-19-145t20-75q20-25 68-28l99 496q-70-4-105-58t-63-190m121-248q70 4 105 58.5T413 379q19 97 19 145 0 51-20.5 76T343 627l-98-496z" horiz-adv-x="486" vert-adv-y="1000"/><glyph glyph-name="uni0425" unicode="Х" d="M-31 0l194 375-46 337h60l30-280 141 280h63L227 369 280 0h-60l-36 309L31 0h-62z" horiz-adv-x="348" vert-adv-y="1000"/><glyph glyph-name="uni0426" unicode="Ц" d="M14 0l142 712h56L80 50h166l133 662h56L303 50h48l-38-187h-55L286 0H14z" horiz-adv-x="418" vert-adv-y="1000"/><glyph glyph-name="uni0427" unicode="Ч" d="M229 0l53 265q-44-8-86-8-109 0-109 101 0 21 7 54l60 300h56l-59-295q-6-30-6-50 0-60 63-60 38 0 84 8l79 397h56L285 0h-56z" horiz-adv-x="400" vert-adv-y="1000"/><glyph glyph-name="uni0428" unicode="Ш" d="M14 0l142 712h56L80 50h154l133 662h56L290 50h156l132 662h56L492 0H14z" horiz-adv-x="606" vert-adv-y="1000"/><glyph glyph-name="uni0429" unicode="Щ" d="M13 0l142 712h56L79 50h154l133 662h56L289 50h156l132 662h56L501 50h48l-38-187h-54L485 0H13z" horiz-adv-x="617" vert-adv-y="1000"/><glyph glyph-name="uni042A" unicode="Ъ" d="M71 0l132 662H102l11 50h156l-62-312h72q65 0 94-32 28-29 28-89 0-41-8-80-23-115-65.5-157T213 0H71m66 50h77q46 0 76 30.5T337 199q8 36 8 75t-17 57.5Q311 350 271 350h-74L137 50z" horiz-adv-x="447" vert-adv-y="1000"/><glyph glyph-name="uni042B" unicode="Ы" d="M14 0l142 712h56l-62-312h72q65 0 94-32 28-29 28-89 0-41-8-80-23-115-65.5-157T156 0H14m66 50h77q46 0 76 30.5T280 199q8 36 8 75t-17 57.5Q254 350 214 350h-74L80 50M361 0l142 712h56L417 0h-56z" horiz-adv-x="531" vert-adv-y="1000"/><glyph glyph-name="uni042C" unicode="Ь" d="M14 0l142 712h56l-62-312h72q65 0 94-32 28-29 28-89 0-41-8-80-23-115-65.5-157T156 0H14m66 50h77q46 0 76 30.5T280 199q8 36 8 75t-17 57.5Q254 350 214 350h-74L80 50z" horiz-adv-x="389" vert-adv-y="1000"/><glyph glyph-name="uni042D" unicode="Э" d="M147 334l10 50h140q32 163 32 211 0 75-67 75-37 0-61-24-33-31-47-95H99q20 96 70 137 40 32 99 32t89-36q27-34 27-89 0-56-36-239-35-175-55.5-235T239 30Q198-8 133-8 70-8 39 29q-25 31-25 84 0 21 6 49h56q-6-26-6-47 0-34 16-53 17-20 51-20 37 0 63 24 25 24 40.5 70.5T287 334H147z" horiz-adv-x="375" vert-adv-y="1000"/><glyph glyph-name="uni042E" unicode="Ю" d="M14 0l142 712h56l-65-325h88q32 157 51.5 211.5T340 684q40 36 101 36 66 0 96-41 24-33 24-80 0-55-37-243-36-179-55.5-237T413 28Q373-8 312-8q-66 0-96 41-24 33-24 80 0 59 33 224h-88L70 0H14m454 356q37 181 37 237 0 77-69 77-36 0-61-24t-41.5-76.5Q317 517 285 356q-37-181-37-237 0-77 69-77 35 0 61 24 25 24 41.5 76.5T468 356z" horiz-adv-x="557" vert-adv-y="1000"/><glyph glyph-name="uni042F" unicode="Я" d="M-9 0l173 331q-56 27-56 110 0 27 9 74 24 117 65 157t117 40h134L291 0h-56l65 320h-86L50 0H-9m182 515q-9-41-9-70 0-41 17-58.5t57-17.5h71l59 293h-72q-46 0-76-30t-47-117z" horiz-adv-x="405" vert-adv-y="1000"/><glyph glyph-name="uni0430" unicode="а" d="M23 27Q7 51 7 95q0 25 5 47 15 76 63 117 35 29 97 29h59l18 92q4 19 4 33 0 57-53 57-28 0-47-18-24-20-35-74H66q15 75 52 107 35 31 88 31 57 0 81-32 18-25 18-67 0-17-4-39L225 0h-50l8 43q-15-21-32-33Q128-8 93-8 48-8 23 27m37 74q0-63 48-63 35 0 59.5 29t32.5 66l23 115h-49q-42 0-67-23-22-19-34.5-54T60 101z" horiz-adv-x="329" vert-adv-y="1000"/><glyph glyph-name="uni0431" unicode="б" d="M47 254q41 205 61 275.5T157 638q30 38 78.5 56T367 713l-9-46q-60-2-97.5-14T199 610q-33-43-58-141 37 45 89 45 46 0 70-39 15-25 15-68 0-46-22-153-21-109-38-155.5T213 28Q177-8 122-8 64-8 40 32q-15 22-15 69 0 46 22 153m52 0Q76 137 76 102q0-30 11-45 12-19 39-19 30 0 52 22 19 19 32 60.5T241 254q23 117 23 152 0 30-11 45-12 19-39 19-30 0-52-22-19-19-32-60.5T99 254z" horiz-adv-x="335" vert-adv-y="1000"/><glyph glyph-name="uni0432" unicode="в" d="M8 0l101 508h104q64 0 87-30 17-23 17-60 0-20-3-41-14-66-49-95-17-13-31-17 17-6 30-21 17-20 17-60 0-22-4-42-15-80-52-115-32-27-99-27H8m108 285h59q70 0 87 89 4 19 4 35 0 30-14 41.5T209 462h-57l-36-177M68 46h62q40 0 61.5 21t33.5 76q4 19 4 37 0 63-62 63h-60L68 46z" horiz-adv-x="333" vert-adv-y="1000"/><glyph glyph-name="uni0433" unicode="г" d="M8 0l101 508h196l-9-46H152L60 0H8z" horiz-adv-x="269" vert-adv-y="1000"/><glyph glyph-name="uni0434" unicode="д" d="M-60-119l33 165h41q37 66 57.5 124T114 338l33 170h216L271 46h42l-34-165h-49L254 0H13l-24-119h-49M68 46h151l83 416H190l-26-129q-23-110-43-168.5T68 46z" horiz-adv-x="377" vert-adv-y="1000"/><glyph glyph-name="uni0435" unicode="е" d="M35 34Q20 60 20 99q0 43 23 155 20 101 37.5 152t41.5 74q36 36 93 36 55 0 79-37 17-26 17-69 0-41-23-163H93Q71 130 71 101t14-46q15-17 39-17 29 0 51 19 25 22 37 77h51q-14-72-52-109-36-33-92-33-59 0-84 42m67 256h142q16 77 16 118 0 62-51 62-30 0-51-22-19-21-30-53t-26-105z" horiz-adv-x="326" vert-adv-y="1000"/><glyph glyph-name="uni0436" unicode="ж" d="M-46 0l214 272-96 236h54l95-243L16 0h-62m423 0l-99 262 192 246h61L332 260 432 0h-55M171 0l101 508h52L223 0h-52z" horiz-adv-x="494" vert-adv-y="1000"/><glyph glyph-name="uni0437" unicode="з" d="M6 129h51q-3-18-3-30 0-61 54-61 72 0 91 94 7 35 7 48 0 26-16 43-16 16-51 16h-38l9 43h37q34 0 55 17 30 23 38 79 3 21 3 40-2 24-15.5 38T191 470q-28 0-47-17-29-26-37-74H56q17 74 52 105 35 32 88 32 50 0 77-30 22-23 22-63 0-23-5-48-11-54-40-85-18-18-41-28 20-10 30-23 19-26 19-55 0-25-5-50-10-49-24-74.5T190 16Q156-8 103-8 51-8 25 20 2 46 2 94q0 15 4 35z" horiz-adv-x="311" vert-adv-y="1000"/><glyph glyph-name="uni0438" unicode="и" d="M8 0l101 508h52L84 124l227 384h47L256 0h-52l77 384L55 0H8z" horiz-adv-x="365" vert-adv-y="1000"/><glyph glyph-name="uni0439" unicode="й" d="M8 0l101 508h52L84 124l227 384h47L256 0h-52l77 384L55 0H8m152 678h42q-1-6-1-12 0-48 49-48 55 0 73 60h42q-14-54-42.5-77.5T245 577q-42 0-64 22t-22 59q0 8 1 20z" horiz-adv-x="365" vert-adv-y="1000"/><glyph glyph-name="uni043A" unicode="к" d="M217 0L115 263l191 245h58L169 261 272 0h-55M8 0l101 508h52L60 0H8z" horiz-adv-x="334" vert-adv-y="1000"/><glyph glyph-name="uni043B" unicode="л" d="M-36 0l8 46h7q39 0 63.5 36T85 210l60 298h215L259 0h-52l92 462H186l-53-266Q112 86 77 43T-22 0h-14z" horiz-adv-x="367" vert-adv-y="1000"/><glyph glyph-name="uni043C" unicode="м" d="M8 0l101 508h50l55-292 176 292h50L339 0h-52l77 386-143-234h-37l-45 240L60 0H8z" horiz-adv-x="447" vert-adv-y="1000"/><glyph glyph-name="uni043D" unicode="н" d="M8 0l101 508h52l-45-224h130l45 224h52L242 0h-52l47 238H107L60 0H8z" horiz-adv-x="350" vert-adv-y="1000"/><glyph glyph-name="uni043E" unicode="о" d="M95 254Q72 137 72 102q0-30 11-45 14-19 39-19 30 0 52 22 19 19 32 60.5T237 254q23 117 23 152 0 30-11 45-14 19-39 19-30 0-52-22-19-19-32-60.5T95 254m194 0q-21-108-38-155t-42-72Q174-8 118-8 60-8 36 32q-14 23-14 69 0 43 21 153 21 108 38 155t42 72q35 35 91 35 58 0 82-40 14-23 14-69 0-43-21-153z" horiz-adv-x="331" vert-adv-y="1000"/><glyph glyph-name="uni043F" unicode="п" d="M8 0l101 508h234L242 0h-52l92 462H152L60 0H8z" horiz-adv-x="350" vert-adv-y="1000"/><glyph glyph-name="uni0440" unicode="р" d="M301 254q-22-110-38-157t-41-71Q187-8 140-8q-33 0-53 18-13 13-19 28L19-204h-52l142 712h51l-7-35q13 16 30 28 23 15 55 15 46 0 70-35 16-27 16-67 0-47-23-160m-52 0q22 109 22 153 0 29-9 43-13 20-41 20-27 0-49-19-27-24-37-73L86 130q-3-18-3-32 0-26 13-44 15-16 39-16 25 0 50 22 19 17 32.5 60T249 254z" horiz-adv-x="342" vert-adv-y="1000"/><glyph glyph-name="uni0441" unicode="с" d="M42 254q20 102 37 150.5t43 75.5q34 36 92 36 59 0 82-35 17-26 17-62 0-16-5-44h-51q5 23 5 39 0 29-12 41-15 15-40 15-30 0-53-23-19-18-32-60T94 254Q70 136 70 101q0-38 19-52 12-11 36-11 28 0 49 19 25 24 36 77h52q-16-74-50-106-37-36-93-36-45 0-72 27T20 99q0 48 22 155z" horiz-adv-x="317" vert-adv-y="1000"/><glyph glyph-name="uni0442" unicode="т" d="M59 0l92 462H57l9 46h240l-9-46h-94L111 0H59z" horiz-adv-x="269" vert-adv-y="1000"/><glyph glyph-name="uni0443" unicode="у" d="M-73-157q66 0 95 61L67 2 55 508h53l2-420 168 420h58L78-99q-26-61-63-83t-98-22l10 47z" horiz-adv-x="287" vert-adv-y="1000"/><glyph glyph-name="uni0444" unicode="ф" d="M47 40q-23 29-23 80 0 47 18 134 19 97 37.5 144t50.5 75q44 38 120 41l40 198h52l-40-198q63-2 98-45 24-30 24-83 0-42-17-132-19-98-38.5-145T317 34Q274-4 198-5l-40-199h-52L146-5Q79-4 47 40m160 1q42 0 74 25 26 23 41.5 63T355 254q18 93 18 128 0 38-18 59-19 25-63 26L207 41M93 66q20-25 63-25l85 426q-42 0-74-26-26-21-41-60.5T94 254q-18-95-18-130 0-38 17-58z" horiz-adv-x="447" vert-adv-y="1000"/><glyph glyph-name="uni0445" unicode="х" d="M-30 0l152 261-49 247h53l35-200 114 200h55L179 256 235 0h-54l-40 207L25 0h-55z" horiz-adv-x="300" vert-adv-y="1000"/><glyph glyph-name="uni0446" unicode="ц" d="M8 0l101 508h52L69 46h129l92 462h52L250 46h42l-33-165h-50L233 0H8z" horiz-adv-x="356" vert-adv-y="1000"/><glyph glyph-name="uni0447" unicode="ч" d="M155 0l36 178q-35-7-66-7-41 0-62.5 21T41 249q0 17 5 40l43 219h52L97 289q-3-17-3-28 0-44 43-44 31 0 63 7l57 284h52L207 0h-52z" horiz-adv-x="316" vert-adv-y="1000"/><glyph glyph-name="uni0448" unicode="ш" d="M8 0l101 508h52L69 46h111l93 462h52L232 46h113l92 462h52L388 0H8z" horiz-adv-x="496" vert-adv-y="1000"/><glyph glyph-name="uni0449" unicode="щ" d="M8 0l101 508h52L69 46h111l93 462h52L232 46h113l92 462h52L397 46h42l-34-165h-50L379 0H8z" horiz-adv-x="503" vert-adv-y="1000"/><glyph glyph-name="uni044A" unicode="ъ" d="M57 462l9 46h131l-42-211h61q51 0 75-27 23-24 23-73 0-24-5-51-16-79-49.5-112.5T164 0H44l92 462H57m48-416h60q38 0 59.5 24t32.5 76q5 25 5 42 0 63-56 63h-60L105 46z" horiz-adv-x="358" vert-adv-y="1000"/><glyph glyph-name="uni044B" unicode="ы" d="M8 0l101 508h52l-42-211h61q51 0 75-27 23-24 23-73 0-24-5-51-16-79-49.5-112.5T128 0H8m61 46h60q38 0 59.5 24t32.5 76q5 25 5 42 0 63-56 63h-60L69 46M297 0l102 508h52L349 0h-52z" horiz-adv-x="457" vert-adv-y="1000"/><glyph glyph-name="uni044C" unicode="ь" d="M8 0l101 508h52l-42-211h61q51 0 75-27 23-24 23-73 0-24-5-51-16-79-49.5-112.5T128 0H8m61 46h60q38 0 59.5 24t32.5 76q5 25 5 42 0 63-56 63h-60L69 46z" horiz-adv-x="322" vert-adv-y="1000"/><glyph glyph-name="uni044D" unicode="э" d="M275 254q-20-101-37.5-151.5T196 28Q160-8 102-8 49-8 25 21 2 47 2 89q0 16 4 39h51q-3-18-3-34 0-27 13-40 14-16 40-16 28 0 53 23 18 17 30 55t29 122H98l9 45h121q18 93 18 125 0 36-19 52-13 10-35 10-30 0-49-18-25-22-36-72H57q16 70 49 101 37 35 92 35 46 0 71-26 28-28 28-80 0-41-22-156z" horiz-adv-x="317" vert-adv-y="1000"/><glyph glyph-name="uni044E" unicode="ю" d="M8 0l102 508h52l-45-224h74q18 90 34 131.5t40 65.5q35 35 91 35 58 0 82-40 14-23 14-69 0-43-21-153-21-108-38-155t-42-72Q316-8 260-8q-58 0-82 40-14 23-14 69 0 41 18 137h-74L60 0H8m229 254q-23-117-23-152 0-30 11-45 14-19 39-19 30 0 52 22 19 19 32 60.5T379 254q23 117 23 152 0 30-11 45-14 19-39 19-30 0-52-22-19-19-32-60.5T237 254z" horiz-adv-x="473" vert-adv-y="1000"/><glyph glyph-name="uni044F" unicode="я" d="M-26 0L98 233q-41 23-41 82 0 22 5 49 16 80 49 112t94 32h114L218 0h-52l44 220h-64L31 0h-57m244 265l40 197h-53q-39 0-59.5-23T114 363q-5-20-5-39 0-59 57-59h52z" horiz-adv-x="326" vert-adv-y="1000"/><glyph glyph-name="uni0450" unicode="ѐ" d="M35 34Q20 60 20 99q0 43 23 155 20 101 37.5 152t41.5 74q36 36 93 36 55 0 79-37 17-26 17-69 0-41-23-163H93Q71 130 71 101t14-46q15-17 39-17 29 0 51 19 25 22 37 77h51q-14-72-52-109-36-33-92-33-59 0-84 42m67 256h142q16 77 16 118 0 62-51 62-30 0-51-22-19-21-30-53t-26-105m111 294l-43 128h50l38-128h-45z" horiz-adv-x="326" vert-adv-y="1000"/><glyph glyph-name="uni0451" unicode="ё" d="M35 34Q20 60 20 99q0 43 23 155 20 101 37.5 152t41.5 74q36 36 93 36 55 0 79-37 17-26 17-69 0-41-23-163H93Q71 130 71 101t14-46q15-17 39-17 29 0 51 19 25 22 37 77h51q-14-72-52-109-36-33-92-33-59 0-84 42m67 256h142q16 77 16 118 0 62-51 62-30 0-51-22-19-21-30-53t-26-105m39 312l12 62h58l-12-62h-58m128 0l13 62h58l-13-62h-58z" horiz-adv-x="326" vert-adv-y="1000"/><glyph glyph-name="uni0452" unicode="ђ" d="M72 588l7 39h54l17 85h52l-17-85h136l-7-39H177l-23-117q14 18 29 29 22 16 56 16 49 0 71-36 15-23 15-58 0-16-6-48L234-56q-14-68-51-99-34-28-97-28l10 46q69 0 86 81l85 430q5 27 5 41 0 23-13 39t-40 16q-66 0-85-96L60 0H8l117 588H72z" horiz-adv-x="348" vert-adv-y="1000"/><glyph glyph-name="uni0453" unicode="ѓ" d="M8 0l101 508h196l-9-46H152L60 0H8m173 582l90 129h55l-94-129h-51z" horiz-adv-x="269" vert-adv-y="1000"/><glyph glyph-name="uni0454" unicode="є" d="M42 254q20 100 37.5 150t42.5 76q34 36 92 36 59 0 82-35 17-26 17-62 0-16-5-44h-51q5 23 5 39 0 27-12 41-13 15-40 15-30 0-53-23-29-27-58-164h121l-8-45H90Q70 130 70 101q0-38 19-52 14-11 36-11 28 0 49 19 25 24 36 77h52q-17-75-49-106-39-36-94-36-45 0-72 27T20 99q0 48 22 155z" horiz-adv-x="317" vert-adv-y="1000"/><glyph glyph-name="uni0455" unicode="ѕ" d="M24 29Q2 55 2 98q0 20 4 40h52q-3-14-3-35 0-28 13-44 16-21 48-21 35 0 58 22 35 34 35 92 0 45-45 78l-46 33q-60 42-60 99 0 77 53 124 36 30 89 30 58 0 85-36 20-27 20-64 0-18-5-43h-50q4 28 4 37 0 25-12 40-15 20-46 20-30 0-52-19-34-31-34-82 0-39 39-66l48-33q35-24 49.5-49.5T261 158q0-86-54-133-39-33-96-33-56 0-87 37z" horiz-adv-x="313" vert-adv-y="1000"/><glyph glyph-name="uni0456" unicode="і" d="M8 0l102 508h52L60 0H8m118 623l12 66h65l-12-66h-65z" horiz-adv-x="168" vert-adv-y="1000"/><glyph glyph-name="uni0457" unicode="ї" d="M8 0l102 508h52L60 0H8m54 602l12 62h58l-12-62H62m128 0l13 62h58l-13-62h-58z" horiz-adv-x="168" vert-adv-y="1000"/><glyph glyph-name="uni0458" unicode="ј" d="M-5-64l115 572h52L47-69Q33-142-7-174q-38-30-104-30l10 47q77 0 96 93m131 687l12 66h65l-12-66h-65z" horiz-adv-x="168" vert-adv-y="1000"/><glyph glyph-name="uni0459" unicode="љ" d="M206 0l92 462H188l-54-266Q111 83 74.5 41.5T-21 0h-16l9 46h9q14 0 25 5t26.5 19.5q15.5 14.5 29 50T86 210l59 298h214l-42-211h61q51 0 75-27 23-24 23-73 0-24-5-51-16-79-49.5-112.5T326 0H206m61 46h60q38 0 59.5 24t32.5 76q5 25 5 42 0 63-56 63h-60L267 46z" horiz-adv-x="521" vert-adv-y="1000"/><glyph glyph-name="uni045A" unicode="њ" d="M189 0l50 251H110L60 0H8l101 508h52l-42-211h129l42 211h52l-42-211h61q51 0 75-27 23-24 23-73 0-24-5-51-16-79-49.5-112.5T309 0H189m61 46h60q38 0 59.5 24t32.5 76q5 25 5 42 0 63-56 63h-60L250 46z" horiz-adv-x="504" vert-adv-y="1000"/><glyph glyph-name="uni045B" unicode="ћ" d="M72 588l7 39h54l17 85h52l-17-85h136l-7-39H177l-24-117q13 17 30 29 22 16 56 16 49 0 71-36 15-23 15-58 0-16-6-48L245 0h-52l74 374q5 27 5 41 0 23-13 39t-40 16q-66 0-85-96L60 0H8l117 588H72z" horiz-adv-x="348" vert-adv-y="1000"/><glyph glyph-name="uni045C" unicode="ќ" d="M217 0L115 263l191 245h58L169 261 272 0h-55M8 0l101 508h52L60 0H8m201 582l90 129h55l-94-129h-51z" horiz-adv-x="334" vert-adv-y="1000"/><glyph glyph-name="uni045D" unicode="ѝ" d="M8 0l101 508h52L84 124l227 384h47L256 0h-52l77 384L55 0H8m218 584l-43 128h50l38-128h-45z" horiz-adv-x="365" vert-adv-y="1000"/><glyph glyph-name="uni045E" unicode="ў" d="M-73-157q66 0 95 61L67 2 55 508h53l2-420 168 420h58L78-99q-26-61-63-83t-98-22l10 47m200 835h42q-1-6-1-12 0-48 49-48 55 0 73 60h42q-14-54-42.5-77.5T212 577q-42 0-64 22t-22 59q0 8 1 20z" horiz-adv-x="287" vert-adv-y="1000"/><glyph glyph-name="uni045F" unicode="џ" d="M8 0l101 508h52L69 46h129l92 462h52L241 0h-92l-25-123H74L100 0H8z" horiz-adv-x="349" vert-adv-y="1000"/><glyph glyph-name="uni0462" unicode="Ѣ" d="M103 560l9 46h48l22 106h56l-21-106h87l-9-46h-87l-32-160h72q65 0 94-32 28-29 28-89 0-41-8-80-23-115-65.5-157T182 0H40l111 560h-48m3-510h77q46 0 76 30.5T306 199q8 36 8 75t-17 57.5Q280 350 240 350h-74L106 50z" horiz-adv-x="416" vert-adv-y="1000"/><glyph glyph-name="uni0463" unicode="ѣ" d="M24 0l79 398H50l8 39h53l14 71h52l-14-71h84l-7-39h-85l-20-101h61q51 0 75-27 23-24 23-73 0-24-5-51-16-79-49.5-112.5T144 0H24m61 46h60q38 0 59.5 24t32.5 76q5 25 5 42 0 63-56 63h-60L85 46z" horiz-adv-x="338" vert-adv-y="1000"/><glyph glyph-name="uni0472" unicode="Ѳ" d="M71 356q36 179 55.5 237t55.5 91q40 36 101 36 66 0 96-41 24-33 24-80 0-55-37-243-36-179-55.5-237T255 28Q215-8 154-8 88-8 58 33q-24 33-24 80 0 55 37 243M220 66q24 23 40 72t45 196H122Q90 177 90 119q0-77 69-77 35 0 61 24m-3 580q-24-23-40-71t-45-191h184q31 154 31 209 0 77-69 77-36 0-61-24z" horiz-adv-x="395" vert-adv-y="1000"/><glyph glyph-name="uni0473" unicode="ѳ" d="M289 254q-21-108-38-155t-42-72Q174-8 118-8 60-8 36 32q-14 23-14 69 0 43 21 153 21 108 38 155t42 72q35 35 91 35 58 0 82-40 14-23 14-69 0-43-21-153M174 60q18 18 31.5 59T236 247H93Q72 139 72 102q0-30 11-45 14-19 39-19 30 0 52 22m-16 388q-30-30-56-158h142q16 83 16 116 0 30-11 45-14 19-39 19-30 0-52-22z" horiz-adv-x="331" vert-adv-y="1000"/><glyph glyph-name="uni0474" unicode="Ѵ" d="M96 0v712h59l-11-608 193 503q21 56 56 80.5t96 24.5h7l-10-50q-38 0-60.5-17T387 588L153 0H96z" horiz-adv-x="415" vert-adv-y="1000"/><glyph glyph-name="uni0475" unicode="ѵ" d="M380 462h-2q-36 0-57.5-15.5T285 396L119 0H66L55 508h54l-1-421 132 325q21 51 53 73.5t90 22.5h6l-9-46z" horiz-adv-x="352" vert-adv-y="1000"/><glyph glyph-name="uni0490" unicode="Ґ" d="M14 0l142 712h175l17 85h54l-27-135H202L70 0H14z" horiz-adv-x="317" vert-adv-y="1000"/><glyph glyph-name="uni0491" unicode="ґ" d="M8 0l101 508h147l22 112h50l-32-158H152L60 0H8z" horiz-adv-x="269" vert-adv-y="1000"/><glyph glyph-name="uni0492" unicode="Ғ" d="M60 336l8 46h50l65 330h229l-10-50H229l-56-280h87l-8-46h-88L97 0H41l67 336H60z" horiz-adv-x="346" vert-adv-y="1000"/><glyph glyph-name="uni0493" unicode="ғ" d="M25 0l47 241H18l8 39h54l46 228h196l-9-46H169l-37-182h84l-8-39h-84L77 0H25z" horiz-adv-x="285" vert-adv-y="1000"/><glyph glyph-name="uni0496" unicode="Җ" d="M474 0L354 370l248 342h67L414 367 516 49h26l-38-186h-53L478 0h-4M-45 0l280 380-119 332h59l119-341L20 0h-65m267 0l142 712h56L278 0h-56z" horiz-adv-x="594" vert-adv-y="1000"/><glyph glyph-name="uni0497" unicode="җ" d="M377 0l-99 262 192 246h61L332 260l83-214h28l-34-165h-49L384 0h-7M-46 0l214 272-96 236h54l95-243L16 0h-62m217 0l101 508h52L223 0h-52z" horiz-adv-x="494" vert-adv-y="1000"/><glyph glyph-name="uni049A" unicode="Қ" d="M277 0L148 372l253 340h64L205 370 319 49h28l-38-186h-53L283 0h-6M14 0l142 712h56L70 0H14z" horiz-adv-x="398" vert-adv-y="1000"/><glyph glyph-name="uni049B" unicode="қ" d="M217 0L115 263l191 245h58L169 261l85-215h28l-34-165h-49L223 0h-6M8 0l101 508h52L60 0H8z" horiz-adv-x="334" vert-adv-y="1000"/><glyph glyph-name="uni049C" unicode="Ҝ" d="M14 0l142 712h56l-62-314h32l21 108h45l-21-108h22l201 314h66L293 374 390 0h-61l-84 348h-28l-22-109h-45l22 109h-33L70 0H14z" horiz-adv-x="450" vert-adv-y="1000"/><glyph glyph-name="uni049D" unicode="ҝ" d="M8 0l101 508h52l-44-221h28l22 109h39l-23-109h21l147 221h61L248 267 321 0h-55l-65 241h-27l-22-110h-38l21 110h-28L60 0H8z" horiz-adv-x="382" vert-adv-y="1000"/><glyph glyph-name="uni04A2" unicode="Ң" d="M14 0l142 712h56l-65-325h166l65 325h56L302 49h26l-38-186h-53L264 0h-28l67 337H137L70 0H14z" horiz-adv-x="406" vert-adv-y="1000"/><glyph glyph-name="uni04A3" unicode="ң" d="M8 0l101 508h52l-45-224h130l45 224h52L251 46h24l-34-165h-49L216 0h-26l47 238H107L60 0H8z" horiz-adv-x="350" vert-adv-y="1000"/><glyph glyph-name="uni04AE" unicode="Ү" d="M70 0l60 303-34 409h58l20-330 148 330h62L184 292 126 0H70z" horiz-adv-x="297" vert-adv-y="1000"/><glyph glyph-name="uni04AF" unicode="ү" d="M25-204L66-1 55 508h55l-1-416 165 416h58L118 0 77-204H25z" horiz-adv-x="288" vert-adv-y="1000"/><glyph glyph-name="uni04B0" unicode="Ұ" d="M54 260l8 41h68L96 712h58l20-330 148 330h62L188 301h65l-8-41h-68L126 0H70l51 260H54z" horiz-adv-x="297" vert-adv-y="1000"/><glyph glyph-name="uni04B1" unicode="ұ" d="M-11-40l8 40h69L55 508h55l-1-416 165 416h58L118 0h69l-8-40h-69L77-204H25L58-40h-69z" horiz-adv-x="288" vert-adv-y="1000"/><glyph glyph-name="uni04B2" unicode="Ҳ" d="M199-137L226 0h-6l-36 309L31 0h-62l194 375-46 337h60l30-280 141 280h63L227 369l46-320h17l-38-186h-53z" horiz-adv-x="348" vert-adv-y="1000"/><glyph glyph-name="uni04B3" unicode="ҳ" d="M162-119L186 0h-5l-40 207L25 0h-55l152 261-49 247h53l35-200 114 200h55L179 256l46-210h20l-34-165h-49z" horiz-adv-x="300" vert-adv-y="1000"/><glyph glyph-name="uni04B6" unicode="Ҷ" d="M229 0l53 265q-44-8-86-8-109 0-109 101 0 21 7 54l60 300h56l-59-295q-6-30-6-50 0-60 63-60 38 0 84 8l79 397h56L295 49h26l-38-186h-53L257 0h-28z" horiz-adv-x="400" vert-adv-y="1000"/><glyph glyph-name="uni04B7" unicode="ҷ" d="M155 0l36 178q-35-7-66-7-41 0-62.5 21T41 249q0 17 5 40l43 219h52L97 289q-3-17-3-28 0-44 43-44 31 0 63 7l57 284h52L216 46h24l-34-165h-49L181 0h-26z" horiz-adv-x="316" vert-adv-y="1000"/><glyph glyph-name="uni04B8" unicode="Ҹ" d="M295 0h-56l53 265q-32-6-65-8l-20-103h-44l20 103q-95 8-95 101 0 18 7 51l60 303h56l-60-297q-5-27-5-46 0-53 48-60l20 103h44l-21-105q26 1 65 8l79 397h56L295 0z" horiz-adv-x="409" vert-adv-y="1000"/><glyph glyph-name="uni04B9" unicode="ҹ" d="M163 0l36 178q-31-6-45-7L132 63H94l22 108q-75 7-75 79 0 14 4 36l44 222h52L97 289q-3-17-3-29 0-37 31-41l22 107h38l-22-108q29 2 45 6l57 284h52L215 0h-52z" horiz-adv-x="324" vert-adv-y="1000"/><glyph glyph-name="uni04BA" unicode="Һ" d="M12 0l142 712h56l-53-266q44 9 88 9 107 0 107-100 0-19-7-57L285 0h-56l60 299q5 23 5 46 0 34-16.5 47T231 405q-36 0-84-8L68 0H12z" horiz-adv-x="400" vert-adv-y="1000"/><glyph glyph-name="uni04BB" unicode="һ" d="M8 0l101 508h52l-36-178q35 7 65 7 39 0 62.5-19.5T276 258q0-12-5-40L227 0h-52l44 219q3 16 3 29 0 25-11 34t-32 9q-27 0-63-6L60 0H8z" horiz-adv-x="316" vert-adv-y="1000"/><glyph glyph-name="uni04C0" unicode="Ӏ" d="M14 0l142 712h56L70 0H14z" horiz-adv-x="184" vert-adv-y="1000"/><glyph glyph-name="uni04CF" unicode="ӏ" d="M8 0l142 712h52L60 0H8z" horiz-adv-x="168" vert-adv-y="1000"/><glyph glyph-name="uni04D8" unicode="Ә" d="M71 379h240q32 166 32 214 0 77-70 77-39 0-63-24-32-28-46-95h-56q22 96 71 137 40 32 98 32 65 0 97-41 25-31 25-80 0-55-37-243-36-179-55.5-237T251 28Q211-8 150-8 84-8 54 33q-24 33-24 80 0 54 41 266m230-48H118Q86 170 86 119q0-77 68-77 36 0 62 24 24 23 40 71.5T301 331z" horiz-adv-x="392" vert-adv-y="1000"/><glyph glyph-name="uni04D9" unicode="ә" d="M39 261h194q22 105 22 146 0 29-14 47-13 16-39 16-30 0-53-21-25-24-36-74H63q15 75 56 111 33 30 88 30 56 0 83-39 16-25 16-67 0-46-22-156-21-101-39.5-153.5T201 25Q167-8 111-8 57-8 32 30 16 55 16 98q0 50 23 163m186-43H83q-17-82-17-117 0-63 52-63 29 0 51 22 18 17 29.5 50T225 218z" horiz-adv-x="326" vert-adv-y="1000"/><glyph glyph-name="uni04E2" unicode="Ӣ" d="M14 0l142 712h56L101 159l296 553h49L304 0h-56l110 553L64 0H14m202 790l9 42h198l-9-42H216z" horiz-adv-x="418" vert-adv-y="1000"/><glyph glyph-name="uni04E3" unicode="ӣ" d="M8 0l101 508h52L84 124l227 384h47L256 0h-52l77 384L55 0H8m145 612l9 42h198l-9-42H153z" horiz-adv-x="365" vert-adv-y="1000"/><glyph glyph-name="uni04E8" unicode="Ө" d="M71 356q36 179 55.5 237t55.5 91q40 36 101 36 66 0 96-41 24-33 24-80 0-55-37-243-36-179-55.5-237T255 28Q215-8 154-8 88-8 58 33q-24 33-24 80 0 55 37 243M220 66q24 23 40 72t45 196H122Q90 177 90 119q0-77 69-77 35 0 61 24m-3 580q-24-23-40-71t-45-191h184q31 154 31 209 0 77-69 77-36 0-61-24z" horiz-adv-x="395" vert-adv-y="1000"/><glyph glyph-name="uni04E9" unicode="ө" d="M289 254q-21-108-38-155t-42-72Q174-8 118-8 60-8 36 32q-14 23-14 69 0 43 21 153 21 108 38 155t42 72q35 35 91 35 58 0 82-40 14-23 14-69 0-43-21-153M174 60q18 18 31.5 59T236 247H93Q72 139 72 102q0-30 11-45 14-19 39-19 30 0 52 22m-16 388q-30-30-56-158h142q16 83 16 116 0 30-11 45-14 19-39 19-30 0-52-22z" horiz-adv-x="331" vert-adv-y="1000"/><glyph glyph-name="uni04EE" unicode="Ӯ" d="M-25 0l9 50q40 0 62.5 15T90 126l48 103-43 483h57l28-403 185 403h61L134 106q-33-68-62-87T-25 0m201 790l9 42h198l-9-42H176z" horiz-adv-x="338" vert-adv-y="1000"/><glyph glyph-name="uni04EF" unicode="ӯ" d="M-73-157q66 0 95 61L67 2 55 508h53l2-420 168 420h58L78-99q-26-61-63-83t-98-22l10 47m189 769l9 42h198l-9-42H116z" horiz-adv-x="287" vert-adv-y="1000"/><glyph glyph-name="uni1E80" unicode="Ẁ" d="M64 0l40 712h58l-45-606 230 606h59l-7-606 192 606h58L409 0h-60l7 606L123 0H64m300 763l-43 128h50l38-128h-45z" horiz-adv-x="569" vert-adv-y="1000"/><glyph glyph-name="uni1E81" unicode="ẁ" d="M51 0l12 508h53L97 91l162 417h48l-7-418 149 418h54L310 0h-52l7 417L104 0H51m219 584l-43 128h50l38-128h-45z" horiz-adv-x="465" vert-adv-y="1000"/><glyph glyph-name="uni1E82" unicode="Ẃ" d="M64 0l40 712h58l-45-606 230 606h59l-7-606 192 606h58L409 0h-60l7 606L123 0H64m291 760l90 129h55l-94-129h-51z" horiz-adv-x="569" vert-adv-y="1000"/><glyph glyph-name="uni1E83" unicode="ẃ" d="M51 0l12 508h53L97 91l162 417h48l-7-418 149 418h54L310 0h-52l7 417L104 0H51m209 582l90 129h55l-94-129h-51z" horiz-adv-x="465" vert-adv-y="1000"/><glyph glyph-name="uni1E84" unicode="Ẅ" d="M64 0l40 712h58l-45-606 230 606h59l-7-606 192 606h58L409 0h-60l7 606L123 0H64m228 780l12 62h58l-12-62h-58m128 0l13 62h58l-13-62h-58z" horiz-adv-x="569" vert-adv-y="1000"/><glyph glyph-name="uni1E85" unicode="ẅ" d="M51 0l12 508h53L97 91l162 417h48l-7-418 149 418h54L310 0h-52l7 417L104 0H51m147 602l12 62h58l-12-62h-58m128 0l13 62h58l-13-62h-58z" horiz-adv-x="465" vert-adv-y="1000"/><glyph glyph-name="uni1E8A" unicode="Ẋ" d="M-31 0l194 375-46 337h60l30-280 141 280h63L227 369 280 0h-60l-36 309L31 0h-62m279 784l13 62h58l-13-62h-58z" horiz-adv-x="348" vert-adv-y="1000"/><glyph glyph-name="uni1E8B" unicode="ẋ" d="M-30 0l152 261-49 247h53l35-200 114 200h55L179 256 235 0h-54l-40 207L25 0h-55m219 606l13 62h58l-13-62h-58z" horiz-adv-x="300" vert-adv-y="1000"/><glyph glyph-name="uni1EF2" unicode="Ỳ" d="M70 0l60 303-34 409h58l20-330 148 330h62L184 292 126 0H70m161 763l-43 128h50l38-128h-45z" horiz-adv-x="297" vert-adv-y="1000"/><glyph glyph-name="uni1EF3" unicode="ỳ" d="M-73-157q66 0 95 61L67 2 55 508h53l2-420 168 420h58L78-99q-26-61-63-83t-98-22l10 47m266 741l-43 128h50l38-128h-45z" horiz-adv-x="287" vert-adv-y="1000"/><glyph glyph-name="uni2013" unicode="–" d="M46 252l10 50h314l-10-50H46z" horiz-adv-x="406" vert-adv-y="1000"/><glyph glyph-name="uni2014" unicode="—" d="M46 252l10 50h527l-10-50H46z" horiz-adv-x="618" vert-adv-y="1000"/><glyph glyph-name="uni2015" unicode="―" d="M46 252l10 50h527l-10-50H46z" horiz-adv-x="618" vert-adv-y="1000"/><glyph glyph-name="uni2018" unicode="‘" d="M128 620l19 92 74 51-29-143h-64z" horiz-adv-x="173" vert-adv-y="1000"/><glyph glyph-name="uni2019" unicode="’" d="M118 570l29 142h64l-19-92-74-50z" horiz-adv-x="173" vert-adv-y="1000"/><glyph glyph-name="uni201A" unicode="‚" d="M-5-50L24 92h64L69 0-5-50z" horiz-adv-x="173" vert-adv-y="1000"/><glyph glyph-name="uni201C" unicode="“" d="M128 620l19 92 74 51-29-143h-64m135 0l19 92 74 51-29-143h-64z" horiz-adv-x="309" vert-adv-y="1000"/><glyph glyph-name="uni201D" unicode="”" d="M118 570l29 142h64l-19-92-74-50m135 0l29 142h64l-19-92-74-50z" horiz-adv-x="309" vert-adv-y="1000"/><glyph glyph-name="uni201E" unicode="„" d="M-9-66L20 76h64L65-16-9-66m135 0l29 142h64l-19-92-74-50z" horiz-adv-x="309" vert-adv-y="1000"/><glyph glyph-name="uni2020" unicode="†" d="M129 0l93 463H88l9 45h134l40 204h51l-41-204h134l-9-45H272L180 0h-51z" horiz-adv-x="409" vert-adv-y="1000"/><glyph glyph-name="uni2021" unicode="‡" d="M-4 0l8 45h134l84 418H88l9 45h134l40 204h51l-41-204h134l-9-45H272L189 45h133l-9-45H180l-42-204H88L129 0H-4z" horiz-adv-x="409" vert-adv-y="1000"/><glyph glyph-name="uni2022" unicode="•" d="M122.5 223.5l-22.75 22.75Q77 269 77 334t45.5 110.5Q168 490 233 490t110.5-46Q389 398 389 334t-45.5-110Q298 178 233 178t-110.5 45.5z" horiz-adv-x="434" vert-adv-y="1000"/><glyph glyph-name="uni2026" unicode="…" d="M8 0l14 72h70L78 0H8m326 0l14 72h70L404 0h-70M171 0l14 72h70L241 0h-70z" horiz-adv-x="511" vert-adv-y="1000"/><glyph glyph-name="uni2030" unicode="‰" d="M616 92q-3-15-3-25 0-37 40-37 44 0 56 57l36 179q3 15 3 24 0 38-41 38-43 0-55-57L616 92m-45 0l35 175q11 51 36 75t70 24q39 0 60-20.5t21-52.5q0-7-4-27L754 91Q735-8 648-8q-39 0-59.5 20.5T568 65q0 12 3 27M135 446q-3-15-3-24 0-38 41-38 43 0 55 57l36 179q3 15 3 25 0 37-41 37-43 0-55-57l-36-179m-45 0l35 175q11 51 36 75t70 24q39 0 60-20.5t21-52.5q0-12-3-27l-35-175q-11-51-36-75t-71-24q-39 0-59.5 20.5T87 419q0 12 3 27M362 92q-3-15-3-25 0-37 40-37 44 0 56 57l36 179q3 15 3 24 0 38-41 38-43 0-55-57L362 92m-45 0l35 175q11 51 36 75t70 24q39 0 60-20.5t21-52.5q0-7-4-27L500 91Q481-8 394-8q-39 0-59.5 20.5T314 65q0 12 3 27M101 0l378 712h44L144 0h-43z" horiz-adv-x="839" vert-adv-y="1000"/><glyph glyph-name="uni2039" unicode="‹" d="M115 58L30 268l170 210-20-99-96-117 49-116-18-88z" horiz-adv-x="205" vert-adv-y="1000"/><glyph glyph-name="uni203A" unicode="›" d="M97 478l85-210L12 58l20 99 96 117-49 116 18 88z" horiz-adv-x="205" vert-adv-y="1000"/><glyph glyph-name="uni2044" unicode="⁄" d="M-136 0l378 712h42L-94 0h-42z" horiz-adv-x="105" vert-adv-y="1000"/><glyph glyph-name="uni2070" unicode="⁰" d="M134 631q8 45 38 68 24 18 58 18 41 0 60-23 16-17 16-42 0-14-3-26l-52-260q-10-46-38-68-24-18-59-18-40 0-59 23-16 20-16 42 0 11 3 26l52 260m40 1l-54-263q-2-10-2-17 0-16 11-26.5t30-10.5q18 0 32.5 12t19.5 38l53 263q2 10 2 17 0 16-10.5 26.5T226 682q-41 0-52-50z" horiz-adv-x="286" vert-adv-y="1000"/><glyph glyph-name="uni2074" unicode="⁴" d="M65 358l8 34 180 320h41L114 393h83l22 108h38l-21-108h32l-7-35h-33l-13-73h-40l15 73H65z" horiz-adv-x="286" vert-adv-y="1000"/><glyph glyph-name="uni2075" unicode="⁵" d="M84 391h38l-3-20q-2-16-2-23 0-33 37-33 22 0 36 14 20 17 35 92 9 45 9 69 0 36-38 36-19 0-35.5-13T140 479l-3-17h-35l50 250h163l-8-35H180l-28-140q11 10 24 16 15 7 35 7 30 0 46-18t16-45q0-34-9-76-12-55-21-79t-26-39q-26-23-66-23-39 0-58 22-15 19-15 41 0 18 2 28l4 20z" horiz-adv-x="286" vert-adv-y="1000"/><glyph glyph-name="uni2076" unicode="⁶" d="M87 412q13 67 39 111l114 189h41L171 534q16 9 35 9 29 0 46-17t18-44q0-26-9-70-9-46-18.5-69.5T217 304q-25-24-65-24-38 0-58 23-15 19-15 44 0 21 8 65m39 0q-9-45-9-60 0-37 38-37 20 0 34 11 20 17 33 86 9 45 9 60 0 37-38 37-21 0-34-12-19-16-33-85z" horiz-adv-x="286" vert-adv-y="1000"/><glyph glyph-name="uni2077" unicode="⁷" d="M102 285l175 392H177l-14-67h-37l20 102h178l-6-32-174-395h-42z" horiz-adv-x="286" vert-adv-y="1000"/><glyph glyph-name="uni2078" unicode="⁸" d="M257 404q-9-46-17-66.5T215 302q-27-22-68-22-35 0-54 21-16 16-16 43 0 18 8 60 12 63 30 85 12 14 33 25-13 8-19 20-7 11-7 34 0 13 5 38 14 67 40 91 23 20 60 20 39 0 57-22 16-17 16-42 0-21-5-47-10-50-25-71-9-13-34-26 13-9 19-19 9-14 9-34 0-16-7-52m-39 0q6 31 6 52 0 18-7 25-10 10-29 10-25 0-37-13-16-17-27-74-8-39-8-52 0-15 7-25 9-12 30-12 23 0 36 13 11 10 16.5 24.5T218 404m-53 201q-5-28-5-38 0-17 9-27t27-10q22 0 35 13t25 62q5 23 5 40 0 19-8 27-9 10-28 10-22 0-35-13-16-16-25-64z" horiz-adv-x="286" vert-adv-y="1000"/><glyph glyph-name="uni2079" unicode="⁹" d="M296 585q-13-67-39-111L143 285h-41l110 178q-16-9-35-9-29 0-46 17t-18 44q0 26 9 70 9 46 18.5 69.5T166 693q26 24 65 24 38 0 58-23 15-19 15-44 0-21-8-65m-39 0q9 45 9 60 0 37-38 37-20 0-34-11-20-17-33-86-9-45-9-60 0-37 38-37 21 0 34 12 19 16 33 85z" horiz-adv-x="286" vert-adv-y="1000"/><glyph glyph-name="uni2080" unicode="₀" d="M48 196q8 45 38 68 24 18 58 18 41 0 60-23 16-17 16-42 0-14-3-26L165-69q-10-46-38-68-24-18-59-18-40 0-59 23-16 20-16 42 0 11 3 26l52 260m40 1L34-66q-2-10-2-17 0-16 11-26.5T73-120q18 0 32.5 12T125-70l53 263q2 10 2 17 0 16-10.5 26.5T140 247q-41 0-52-50z" horiz-adv-x="286" vert-adv-y="1000"/><glyph glyph-name="uni2081" unicode="₁" d="M47-150l75 376-75-51 9 49 79 53h36L86-150H47z" horiz-adv-x="286" vert-adv-y="1000"/><glyph glyph-name="uni2082" unicode="₂" d="M-22-150l6 32 151 227q42 63 42 98 0 40-37 40-41 0-51-52l-7-33H44l6 33q8 46 37 70 22 17 56 17 33 0 53-20 19-19 19-52 0-29-10-52.5T168 94L28-115h130l-7-35H-22z" horiz-adv-x="286" vert-adv-y="1000"/><glyph glyph-name="uni2083" unicode="₃" d="M43 162l5 33q7 46 37 70 22 17 57 17 37 0 55-21 14-16 14-50 0-9-7-47-10-46-25-65-10-13-28-21 30-16 30-53 0-16-8-56-14-80-43-103-24-21-64-21-41 0-59 23-14 19-14 44 0 17 2 27l6 31h39l-6-33q-2-12-2-21 0-36 37-36 22 0 35 13 20 18 31 76 8 43 8 57 0 15-10 25t-28 10H78l7 33h23q17 0 31 12 16 15 26 58 7 28 7 44 0 39-34 39-41 0-51-51l-6-34H43z" horiz-adv-x="286" vert-adv-y="1000"/><glyph glyph-name="uni2084" unicode="₄" d="M-22-77l8 34 180 320h41L27-42h83l22 108h38L149-42h32l-7-35h-33l-13-73H88l15 73H-22z" horiz-adv-x="286" vert-adv-y="1000"/><glyph glyph-name="uni2085" unicode="₅" d="M-3-44h38l-3-20q-2-16-2-23 0-33 37-33 22 0 36 14 20 17 35 92 9 45 9 69 0 36-38 36-19 0-35.5-13T53 44l-3-17H15l50 250h163l-8-35H93L65 102q11 10 24 16 15 7 35 7 30 0 46-18t16-45q0-34-9-76-12-55-21-79t-26-39q-26-23-66-23-39 0-58 22-15 19-15 41 0 18 2 28l4 20z" horiz-adv-x="286" vert-adv-y="1000"/><glyph glyph-name="uni2086" unicode="₆" d="M0-23Q13 44 39 88l114 189h41L84 99q16 9 35 9 29 0 46-17t18-44q0-26-9-70-9-46-18.5-69.5T130-131q-26-24-65-24-38 0-58 23-15 19-15 44 0 21 8 65m39 0q-9-45-9-60 0-37 38-37 20 0 34 11 20 17 33 86 9 45 9 60 0 37-38 37-21 0-34-12-19-16-33-85z" horiz-adv-x="286" vert-adv-y="1000"/><glyph glyph-name="uni2087" unicode="₇" d="M15-150l175 392H90l-14-67H39l20 102h178l-6-32L57-150H15z" horiz-adv-x="286" vert-adv-y="1000"/><glyph glyph-name="uni2088" unicode="₈" d="M170-31q-9-46-17-66.5T128-133q-27-22-68-22-34 0-54 21-16 16-16 43 0 18 8 60 12 63 30 85 12 14 33 25-13 8-19 20-7 11-7 34 0 13 5 38 14 67 40 91 23 20 60 20 39 0 57-22 16-17 16-42 0-21-5-47-10-50-25-71-9-13-34-26 13-9 19-19 9-14 9-34 0-16-7-52m-39 0q6 31 6 52 0 18-7 25-10 10-29 10-25 0-37-13-16-17-27-74-8-39-8-52 0-15 7-25 9-12 30-12 23 0 36 13 11 10 16.5 24.5T131-31M78 170q-5-28-5-38 0-16 9-27 9-10 27-10 22 0 35 13t25 62q5 22 5 40 0 19-8 27-9 10-28 10-22 0-35-13-16-16-25-64z" horiz-adv-x="286" vert-adv-y="1000"/><glyph glyph-name="uni2089" unicode="₉" d="M209 150q-13-67-39-111L56-150H15L125 28q-16-9-35-9-29 0-46 17T26 80q0 26 9 70 9 46 18.5 69.5T79 258q26 24 65 24 38 0 58-23 15-19 15-44 0-21-8-65m-39 0q9 45 9 60 0 37-38 37-20 0-34-11-20-17-33-86-9-45-9-60 0-37 38-37 21 0 34 12 19 16 33 85z" horiz-adv-x="286" vert-adv-y="1000"/><glyph glyph-name="uni20AC" unicode="€" d="M76 117q0 42 19 146H37l8 43h58l20 100H65l9 43h58q25 115 43.5 161t47.5 72q42 38 105 38 62 0 93-39 22-29 22-82 0-23-5-48h-55q5 28 5 46 0 73-64 73-38 0-64-24-23-22-37-59t-35-138h126l-9-43H179l-20-100h127l-9-43H150q-19-104-19-146 0-75 67-75 37 0 62 25 34 32 46 95h57q-19-95-72-138-40-32-99-32t-89 36q-27 35-27 89z" horiz-adv-x="423" vert-adv-y="1000"/><glyph glyph-name="uni20B4" unicode="₴" d="M381 270H132q-18-30-28-85-6-29-6-57 0-39 16-60 20-26 57-26 40 0 66 23 32 28 47 105h56q-12-59-26-88.5T273 28Q234-8 168-8q-65 0-98 41-28 33-28 93 0 30 5 62 9 46 24 82H37l8 38h48q28 39 79 62l77 35H64l7 38h243q26 26 39 91 5 32 5 56 0 38-16 57-18 23-54 23-40 0-66-26-31-32-44-102h-55q10 52 22.5 82.5T185 681q42 39 107 39 61 0 94-37 28-33 28-92 0-31-6-60-12-61-28-88h35l-7-38h-62q-17-13-52-30l-95-45q-23-11-36-22h226l-8-38z" horiz-adv-x="410" vert-adv-y="1000"/><glyph glyph-name="uni2116" unicode="№" d="M14 0l142 712h52l59-560 112 560h52L289 0h-51l-60 560L67 0H14m608 541q-24-121-51-148-26-27-64-27-42 0-60 30-10 20-10 49 0 24 14 96 24 121 51 148 26 27 64 27 42 0 60-30 10-20 10-49 0-24-14-96m-129 0q-14-72-14-97 0-41 30-41 19 0 33 17 19 22 38 121 14 72 14 97 0 41-30 41-19 0-33-17-19-22-38-121m-89-250l7 36h164l-7-36H404z" horiz-adv-x="617" vert-adv-y="1000"/><glyph glyph-name="uni2122" unicode="™" d="M269 283l86 429h38l37-242 132 242h39l-86-429h-39l64 319-107-197h-30l-31 203-64-325h-39m-162 0l77 391h-68l7 38h177l-8-38h-68l-78-391h-39z" horiz-adv-x="562" vert-adv-y="1000"/><glyph glyph-name="uni2126" unicode="Ω" d="M127 356Q88 166 88 122q0-54 45-78l-8-44H-5l9 50h72Q54 66 44 83.5T34 132q0 39 37 224 36 179 55.5 237t55.5 91q40 36 101 36 66 0 96-41 24-33 24-80 0-55-37-243-24-123-37-175.5T301 103q-20-33-58-53h67L300 0H170l9 44q47 20 70 64 19 38 61 248 37 188 37 237 0 77-69 77-36 0-61-24t-41.5-76.5Q159 517 127 356z" horiz-adv-x="395" vert-adv-y="1000"/><glyph glyph-name="uni2150" unicode="⅐" d="M134 285l75 376-75-51 9 49 79 53h36l-85-427h-39M150 0l378 712h42L192 0h-42m286 0l175 392H511l-14-67h-37l20 102h178l-6-32L478 0h-42z" horiz-adv-x="677" vert-adv-y="1000"/><glyph glyph-name="uni2151" unicode="⅑" d="M134 285l75 376-75-51 9 49 79 53h36l-85-427h-39M150 0l378 712h42L192 0h-42m480 300q-13-67-39-111L477 0h-41l110 178q-16-9-35-9-29 0-46 17t-18 44q0 26 9 70 9 46 18.5 69.5T500 408q26 24 65 24 38 0 58-23 15-19 15-44 0-21-8-65m-39 0q9 45 9 60 0 37-38 37-20 0-34-11-20-17-33-86-9-45-9-60 0-37 38-37 21 0 34 12 19 16 33 85z" horiz-adv-x="677" vert-adv-y="1000"/><glyph glyph-name="uni2152" unicode="⅒" d="M134 285l75 376-75-51 9 49 79 53h36l-85-427h-39M150 0l378 712h42L192 0h-42m318 0l75 376-75-51 9 49 79 53h36L507 0h-39m286 346q8 45 38 68 24 18 58 18 41 0 60-23 16-17 16-42 0-14-3-26L871 81q-10-46-38-68-24-18-59-18-40 0-59 23-16 20-16 42 0 11 3 26l52 260m40 1L740 84q-2-10-2-17 0-16 11-26.5T779 30q18 0 32.5 12T831 80l53 263q2 10 2 17 0 16-10.5 26.5T846 397q-41 0-52-50z" horiz-adv-x="963" vert-adv-y="1000"/><glyph glyph-name="uni2153" unicode="⅓" d="M134 285l75 376-75-51 9 49 79 53h36l-85-427h-39M150 0l378 712h42L192 0h-42m311 312l5 33q7 46 37 70 22 17 57 17 37 0 55-21 14-16 14-50 0-9-7-47-10-46-25-65-10-13-28-21 30-16 30-53 0-16-8-56-14-80-43-103-24-21-64-21-41 0-59 23-14 19-14 44 0 17 2 27l6 31h39l-6-33q-2-12-2-21 0-36 37-36 22 0 35 13 20 18 31 76 8 43 8 57 0 15-10 25t-28 10h-27l7 33h23q17 0 31 12 16 15 26 58 7 28 7 44 0 39-34 39-41 0-51-51l-6-34h-38z" horiz-adv-x="677" vert-adv-y="1000"/><glyph glyph-name="uni2154" unicode="⅔" d="M65 285l6 32 151 227q42 63 42 98 0 40-37 40-41 0-51-52l-7-33h-38l6 33q8 46 37 70 22 17 56 17 33 0 53-20 19-19 19-52 0-29-10-52.5T255 529L115 320h130l-7-35H65M150 0l378 712h42L192 0h-42m311 312l5 33q7 46 37 70 22 17 57 17 37 0 55-21 14-16 14-50 0-9-7-47-10-46-25-65-10-13-28-21 30-16 30-53 0-16-8-56-14-80-43-103-24-21-64-21-41 0-59 23-14 19-14 44 0 17 2 27l6 31h39l-6-33q-2-12-2-21 0-36 37-36 22 0 35 13 20 18 31 76 8 43 8 57 0 15-10 25t-28 10h-27l7 33h23q17 0 31 12 16 15 26 58 7 28 7 44 0 39-34 39-41 0-51-51l-6-34h-38z" horiz-adv-x="677" vert-adv-y="1000"/><glyph glyph-name="uni2155" unicode="⅕" d="M134 285l75 376-75-51 9 49 79 53h36l-85-427h-39M150 0l378 712h42L192 0h-42m268 106h38l-3-20q-2-16-2-23 0-33 37-33 22 0 36 14 20 17 35 92 9 45 9 69 0 36-38 36-19 0-35.5-13T474 194l-3-17h-35l50 250h163l-8-35H514l-28-140q11 10 24 16 15 7 35 7 30 0 46-18t16-45q0-34-9-76-12-55-21-79t-26-39Q525-5 485-5q-39 0-58 22-15 19-15 41 0 18 2 28l4 20z" horiz-adv-x="677" vert-adv-y="1000"/><glyph glyph-name="uni2156" unicode="⅖" d="M65 285l6 32 151 227q42 63 42 98 0 40-37 40-41 0-51-52l-7-33h-38l6 33q8 46 37 70 22 17 56 17 33 0 53-20 19-19 19-52 0-29-10-52.5T255 529L115 320h130l-7-35H65M150 0l378 712h42L192 0h-42m268 106h38l-3-20q-2-16-2-23 0-33 37-33 22 0 36 14 20 17 35 92 9 45 9 69 0 36-38 36-19 0-35.5-13T474 194l-3-17h-35l50 250h163l-8-35H514l-28-140q11 10 24 16 15 7 35 7 30 0 46-18t16-45q0-34-9-76-12-55-21-79t-26-39Q525-5 485-5q-39 0-58 22-15 19-15 41 0 18 2 28l4 20z" horiz-adv-x="677" vert-adv-y="1000"/><glyph glyph-name="uni2157" unicode="⅗" d="M129 597l5 33q7 46 37 70 22 17 57 17 37 0 55-21 14-16 14-50 0-8-7-47-10-46-25-65-10-13-28-21 30-16 30-53 0-16-8-56-14-80-43-103-24-21-64-21-41 0-59 23-14 19-14 44 0 17 2 27l6 31h39l-6-33q-2-12-2-21 0-36 37-36 22 0 35 13 20 18 31 76 8 43 8 57 0 15-10 25t-28 10h-27l7 33h23q17 0 31 12 16 15 26 58 7 28 7 44 0 39-34 39-41 0-51-51l-6-34h-38M150 0l378 712h42L192 0h-42m268 106h38l-3-20q-2-16-2-23 0-33 37-33 22 0 36 14 20 17 35 92 9 45 9 69 0 36-38 36-19 0-35.5-13T474 194l-3-17h-35l50 250h163l-8-35H514l-28-140q11 10 24 16 15 7 35 7 30 0 46-18t16-45q0-34-9-76-12-55-21-79t-26-39Q525-5 485-5q-39 0-58 22-15 19-15 41 0 18 2 28l4 20z" horiz-adv-x="677" vert-adv-y="1000"/><glyph glyph-name="uni2158" unicode="⅘" d="M65 358l8 34 180 320h41L114 393h83l22 108h38l-21-108h32l-7-35h-33l-13-73h-40l15 73H65M150 0l378 712h42L192 0h-42m268 106h38l-3-20q-2-16-2-23 0-33 37-33 22 0 36 14 20 17 35 92 9 45 9 69 0 36-38 36-19 0-35.5-13T474 194l-3-17h-35l50 250h163l-8-35H514l-28-140q11 10 24 16 15 7 35 7 30 0 46-18t16-45q0-34-9-76-12-55-21-79t-26-39Q525-5 485-5q-39 0-58 22-15 19-15 41 0 18 2 28l4 20z" horiz-adv-x="677" vert-adv-y="1000"/><glyph glyph-name="uni2159" unicode="⅙" d="M134 285l75 376-75-51 9 49 79 53h36l-85-427h-39M150 0l378 712h42L192 0h-42m271 127q13 67 39 111l114 189h41L505 249q16 9 35 9 29 0 46-17t18-44q0-26-9-70-9-46-18.5-69.5T551 19Q526-5 486-5q-38 0-58 23-15 19-15 44 0 21 8 65m39 0q-9-45-9-60 0-37 38-37 20 0 34 11 20 17 33 86 9 45 9 60 0 37-38 37-21 0-34-12-19-16-33-85z" horiz-adv-x="677" vert-adv-y="1000"/><glyph glyph-name="uni215A" unicode="⅚" d="M84 391h38l-3-20q-2-16-2-23 0-33 37-33 22 0 36 14 20 17 35 92 9 45 9 69 0 36-38 36-19 0-35.5-13T140 479l-3-17h-35l50 250h163l-8-35H180l-28-140q11 10 24 16 15 7 35 7 30 0 46-18t16-45q0-34-9-76-12-55-21-79t-26-39q-26-23-66-23-39 0-58 22-15 19-15 41 0 18 2 28l4 20M150 0l378 712h42L192 0h-42m271 127q13 67 39 111l114 189h41L505 249q16 9 35 9 29 0 46-17t18-44q0-26-9-70-9-46-18.5-69.5T551 19Q526-5 486-5q-38 0-58 23-15 19-15 44 0 21 8 65m39 0q-9-45-9-60 0-37 38-37 20 0 34 11 20 17 33 86 9 45 9 60 0 37-38 37-21 0-34-12-19-16-33-85z" horiz-adv-x="677" vert-adv-y="1000"/><glyph glyph-name="uni215B" unicode="⅛" d="M134 285l75 376-75-51 9 49 79 53h36l-85-427h-39M150 0l378 712h42L192 0h-42m441 119q-9-46-17-66.5T549 17Q522-5 481-5q-35 0-54 21-16 16-16 43 0 18 8 60 12 63 30 85 12 14 33 25-13 8-19 20-7 11-7 34 0 13 5 38 14 67 40 91 23 20 60 20 39 0 57-22 16-17 16-42 0-21-5-47-10-50-25-71-9-13-34-26 13-9 19-19 9-14 9-34 0-16-7-52m-39 0q6 31 6 52 0 18-7 25-10 10-29 10-25 0-37-13-16-17-27-74-8-39-8-52 0-15 7-25 9-12 30-12 23 0 36 13 11 10 16.5 24.5T552 119m-53 201q-5-28-5-38 0-16 9-27 9-10 27-10 22 0 35 13t25 62q5 22 5 40 0 19-8 27-9 10-28 10-22 0-35-13-16-16-25-64z" horiz-adv-x="677" vert-adv-y="1000"/><glyph glyph-name="uni215C" unicode="⅜" d="M129 597l5 33q7 46 37 70 22 17 57 17 37 0 55-21 14-16 14-50 0-8-7-47-10-46-25-65-10-13-28-21 30-16 30-53 0-16-8-56-14-80-43-103-24-21-64-21-41 0-59 23-14 19-14 44 0 17 2 27l6 31h39l-6-33q-2-12-2-21 0-36 37-36 22 0 35 13 20 18 31 76 8 43 8 57 0 15-10 25t-28 10h-27l7 33h23q17 0 31 12 16 15 26 58 7 28 7 44 0 39-34 39-41 0-51-51l-6-34h-38M150 0l378 712h42L192 0h-42m441 119q-9-46-17-66.5T549 17Q522-5 481-5q-35 0-54 21-16 16-16 43 0 18 8 60 12 63 30 85 12 14 33 25-13 8-19 20-7 11-7 34 0 13 5 38 14 67 40 91 23 20 60 20 39 0 57-22 16-17 16-42 0-21-5-47-10-50-25-71-9-13-34-26 13-9 19-19 9-14 9-34 0-16-7-52m-39 0q6 31 6 52 0 18-7 25-10 10-29 10-25 0-37-13-16-17-27-74-8-39-8-52 0-15 7-25 9-12 30-12 23 0 36 13 11 10 16.5 24.5T552 119m-53 201q-5-28-5-38 0-16 9-27 9-10 27-10 22 0 35 13t25 62q5 22 5 40 0 19-8 27-9 10-28 10-22 0-35-13-16-16-25-64z" horiz-adv-x="677" vert-adv-y="1000"/><glyph glyph-name="uni215D" unicode="⅝" d="M84 391h38l-3-20q-2-16-2-23 0-33 37-33 22 0 36 14 20 17 35 92 9 45 9 69 0 36-38 36-19 0-35.5-13T140 479l-3-17h-35l50 250h163l-8-35H180l-28-140q11 10 24 16 15 7 35 7 30 0 46-18t16-45q0-34-9-76-12-55-21-79t-26-39q-26-23-66-23-39 0-58 22-15 19-15 41 0 18 2 28l4 20M150 0l378 712h42L192 0h-42m441 119q-9-46-17-66.5T549 17Q522-5 481-5q-35 0-54 21-16 16-16 43 0 18 8 60 12 63 30 85 12 14 33 25-13 8-19 20-7 11-7 34 0 13 5 38 14 67 40 91 23 20 60 20 39 0 57-22 16-17 16-42 0-21-5-47-10-50-25-71-9-13-34-26 13-9 19-19 9-14 9-34 0-16-7-52m-39 0q6 31 6 52 0 18-7 25-10 10-29 10-25 0-37-13-16-17-27-74-8-39-8-52 0-15 7-25 9-12 30-12 23 0 36 13 11 10 16.5 24.5T552 119m-53 201q-5-28-5-38 0-16 9-27 9-10 27-10 22 0 35 13t25 62q5 22 5 40 0 19-8 27-9 10-28 10-22 0-35-13-16-16-25-64z" horiz-adv-x="677" vert-adv-y="1000"/><glyph glyph-name="uni215E" unicode="⅞" d="M102 285l175 392H177l-14-67h-37l20 102h178l-6-32-174-395h-42M150 0l378 712h42L192 0h-42m441 119q-9-46-17-66.5T549 17Q522-5 481-5q-35 0-54 21-16 16-16 43 0 18 8 60 12 63 30 85 12 14 33 25-13 8-19 20-7 11-7 34 0 13 5 38 14 67 40 91 23 20 60 20 39 0 57-22 16-17 16-42 0-21-5-47-10-50-25-71-9-13-34-26 13-9 19-19 9-14 9-34 0-16-7-52m-39 0q6 31 6 52 0 18-7 25-10 10-29 10-25 0-37-13-16-17-27-74-8-39-8-52 0-15 7-25 9-12 30-12 23 0 36 13 11 10 16.5 24.5T552 119m-53 201q-5-28-5-38 0-16 9-27 9-10 27-10 22 0 35 13t25 62q5 22 5 40 0 19-8 27-9 10-28 10-22 0-35-13-16-16-25-64z" horiz-adv-x="677" vert-adv-y="1000"/><glyph glyph-name="uni215F" unicode="⅟" d="M134 285l75 376-75-51 9 49 79 53h36l-85-427h-39M150 0l378 712h42L192 0h-42z" horiz-adv-x="391" vert-adv-y="1000"/><glyph glyph-name="uni2189" unicode="↉" d="M134 631q8 45 38 68 24 18 58 18 41 0 60-23 16-17 16-42 0-14-3-26l-52-260q-10-46-38-68-24-18-59-18-40 0-59 23-16 20-16 42 0 11 3 26l52 260m40 1l-54-263q-2-10-2-17 0-16 11-26.5t30-10.5q18 0 32.5 12t19.5 38l53 263q2 10 2 17 0 16-10.5 26.5T226 682q-41 0-52-50M150 0l378 712h42L192 0h-42m311 312l5 33q7 46 37 70 22 17 57 17 37 0 55-21 14-16 14-50 0-9-7-47-10-46-25-65-10-13-28-21 30-16 30-53 0-16-8-56-14-80-43-103-24-21-64-21-41 0-59 23-14 19-14 44 0 17 2 27l6 31h39l-6-33q-2-12-2-21 0-36 37-36 22 0 35 13 20 18 31 76 8 43 8 57 0 15-10 25t-28 10h-27l7 33h23q17 0 31 12 16 15 26 58 7 28 7 44 0 39-34 39-41 0-51-51l-6-34h-38z" horiz-adv-x="677" vert-adv-y="1000"/><glyph glyph-name="uni2190" unicode="←" d="M274 27L33 268l241 240h75L134 296h446v-55H134L349 27h-75z" horiz-adv-x="631" vert-adv-y="1000"/><glyph glyph-name="uni2191" unicode="↑" d="M79 235v75l241 241 240-241v-75L347 450V4h-55v446L79 235z" horiz-adv-x="631" vert-adv-y="1000"/><glyph glyph-name="uni2192" unicode="→" d="M60 241v55h445L291 508h75l241-240L366 27h-75l214 214H60z" horiz-adv-x="631" vert-adv-y="1000"/><glyph glyph-name="uni2193" unicode="↓" d="M79 225v75L292 86v445h55V86l213 214v-75L320-16 79 225z" horiz-adv-x="631" vert-adv-y="1000"/><glyph glyph-name="uni2196" unicode="↖" d="M126 130v340h341l52-52-302 1 315-316-38-38-316 315 1-302-53 52z" horiz-adv-x="631" vert-adv-y="1000"/><glyph glyph-name="uni2197" unicode="↗" d="M107 103l315 316-302-1 53 53h340V130l-53-52 1 302L146 65l-39 38z" horiz-adv-x="631" vert-adv-y="1000"/><glyph glyph-name="uni2198" unicode="↘" d="M119 118l303-1-315 315 38 38 315-314-1 302 54-54-1-340H172l-53 54z" horiz-adv-x="631" vert-adv-y="1000"/><glyph glyph-name="uni2199" unicode="↙" d="M127 64v340l53 54-1-302 315 314 38-38-314-315 302 1-53-54H127z" horiz-adv-x="631" vert-adv-y="1000"/><glyph glyph-name="uni2202" unicode="∂" d="M35 34q-15 22-15 67 0 38 21 149 37 187 80 225 32 32 82 32 31 0 50-16 16-14 21-30l23 114q4 21 4 41 0 26-12 39-14 17-41 17-40 0-73-36l-29 34q47 48 109 48 55 0 80-32 20-29 20-65 0-15-7-55l-63-312Q247 69 205 27 172-8 119-8 61-8 35 34m196 216q22 116 22 155 0 55-48 55-26 0-42-16-17-16-29.5-46t-19-57Q108 314 95 250 73 134 73 95q0-55 48-55 26 0 42 16 17 16 29.5 46t19 57q6.5 27 19.5 91z" horiz-adv-x="339" vert-adv-y="1000"/><glyph glyph-name="uni2206" unicode="∆" d="M-46 0l291 712h53l4-712H-46m83 50h208l8 559L37 50z" horiz-adv-x="356" vert-adv-y="1000"/><glyph glyph-name="uni220F" unicode="∏" d="M-31-220l197 980h278L247-220h-56l187 930H212L25-220h-56z" horiz-adv-x="406" vert-adv-y="1000"/><glyph glyph-name="uni2211" unicode="∑" d="M-41-177l216 468-42 426 9 43h243l-11-50H193l34-398-11-57L22-170h192l-10-50H-49l8 43z" horiz-adv-x="331" vert-adv-y="1000"/><glyph glyph-name="uni2212" unicode="−" d="M46 252l10 50h314l-10-50H46z" horiz-adv-x="406" vert-adv-y="1000"/><glyph glyph-name="uni2219" unicode="∙" d="M93.5 167.5l-22.75 22.75Q48 213 48 278t45.5 110.5Q139 434 204 434q64 0 110-46t46-110q0-64-46-110t-110-46q-65 0-110.5 45.5z" horiz-adv-x="406" vert-adv-y="1000"/><glyph glyph-name="uni221A" unicode="√" d="M64 0L52 492h54l3-406 253 626h118l-10-50h-76L121 0H64z" horiz-adv-x="414" vert-adv-y="1000"/><glyph glyph-name="uni221E" unicode="∞" d="M91 274q0-32 21-52t53-20q18 0 35.5 10.5T230 235q12 12 34 39-23 28-33.5 40t-29 23.5Q183 349 165 349q-32 0-53-21t-21-54m207-35q-67-82-135-82-53 0-85.5 33.5T45 275q0 51 33 85t85 34q67 0 135-83 68 83 135 83 52 0 85-34t33-85q0-51-32.5-84.5T433 157q-68 0-135 82m207 35q0 33-21 54t-53 21q-18 0-36.5-11.5t-29-23.5Q355 302 332 274q22-27 34-39t29.5-22.5Q413 202 431 202q32 0 53 20t21 52z" horiz-adv-x="584" vert-adv-y="1000"/><glyph glyph-name="uni222B" unicode="∫" d="M331 714l-9-47q-81 0-99-89L94-67q-16-75-55-105-38-31-106-31l9 47q81 0 99 89l129 645q16 73 54 105 39 31 107 31z" horiz-adv-x="265" vert-adv-y="1000"/><glyph glyph-name="uni2248" unicode="≈" d="M85 299l-28 36q36 31 57.5 42t45.5 11q27 0 71-25 35-19 52-19 16 0 30 7t39 30l28-36q-58-51-101-51-25 0-70 25-34 19-52 19-30 0-72-39M56 155l-28 36q36 31 57.5 42t45.5 11q27 0 71-25 35-19 52-19 16 0 30 7t39 30l28-36q-58-51-101-51-25 0-70 25-34 19-52 19-30 0-72-39z" horiz-adv-x="406" vert-adv-y="1000"/><glyph glyph-name="uni2260" unicode="≠" d="M193 222h161l-9-50H148L57 76l-32 30 64 66H30l10 50h94l88 94H59l10 50h198l91 96 32-30-64-66h57l-10-50h-92l-88-94z" horiz-adv-x="406" vert-adv-y="1000"/><glyph glyph-name="uni2264" unicode="≤" d="M15 167l13 62L268 59 256-3 15 167m32 159l10 50 308 170-13-67-242-131 188-134-11-57L47 326z" horiz-adv-x="339" vert-adv-y="1000"/><glyph glyph-name="uni2265" unicode="≥" d="M-19-3l12 62 309 170-12-62L-19-3m350 378l-10-50L13 155l13 67 242 131L80 487l11 57 240-169z" horiz-adv-x="339" vert-adv-y="1000"/><glyph glyph-name="uni22C5" unicode="⋅" d="M139 221l22 112h114l-22-112H139z" horiz-adv-x="406" vert-adv-y="1000"/><glyph glyph-name="uni25CA" unicode="◊" d="M432 328L198 57 67 339l235 271 130-282m-309 6l88-196 167 196-89 195-166-195z" horiz-adv-x="468" vert-adv-y="1000"/><glyph glyph-name="uniFB01" unicode="ﬁ" d="M211 0l102 508h52L263 0h-52m118 623l12 66h65l-12-66h-65M23 0l93 466H58l8 42h58l14 70q16 76 54 105 39 30 106 30l-9-46q-82 0-99-89l-14-70h81l-8-42h-81L75 0H23z" horiz-adv-x="371" vert-adv-y="1000"/><glyph glyph-name="uniFB02" unicode="ﬂ" d="M255 34q-20 28-20 62 0 20 3 36l117 580h52L292 135q-3-18-3-34 0-55 62-55l-9-46q-61 0-87 34M23 0l93 466H58l8 42h58l14 70q16 76 54 105 39 30 106 30l-9-46q-82 0-99-89l-14-70h81l-8-42h-81L75 0H23z" horiz-adv-x="407" vert-adv-y="1000"/></font>
</defs>
</svg>
