<svg><defs><font id="DINPro-CondensedLightItalic" horiz-adv-x="930" vert-adv-y="930"><font-face font-family="DIN Pro Cond Light" font-weight="400" ascent="922" descent="-216"/><glyph glyph-name="uni21" unicode="!" d="M82 177l107 535h36L118 177H82M38 0l11 58h54L92 0H38z" horiz-adv-x="202" vert-adv-y="1000"/><glyph glyph-name="uni22" unicode="&quot;" d="M111 536l35 176h48l-35-176h-48m144 0l35 176h48l-35-176h-48z" horiz-adv-x="300" vert-adv-y="1000"/><glyph glyph-name="uni23" unicode="#" d="M36 0l84 240H52l7 34h73l61 174h-75l7 34h80l80 230h33l-81-230h92l81 230h33l-80-230h60l-7-34h-65l-61-174h68l-7-34h-73L194 0h-33l84 240h-92L69 0H36m129 274h92l60 174h-92l-60-174z" horiz-adv-x="433" vert-adv-y="1000"/><glyph glyph-name="uni24" unicode="$" d="M24 173h37q-8-40-8-71t13-49q15-20 50-25l66 328-24 12q-36 17-50.5 39.5T93 472q0 24 7 59 12 62 27 95t40 56q34 33 87 36l18 88h34l-18-90q39-5 62-35 19-28 19-70 0-27-9-72h-37q8 40 8 71 0 30-13 49-14 19-37 23l-60-301 17-8q38-19 53.5-42.5T307 272q0-38-11-91-13-64-27.5-97T229 29Q195 0 143-5l-21-109H87L109-5Q60-2 35 30q-20 26-20 71 0 27 9 72m194 166l-5 2-63-311q32 6 53 25 22 20 33 46t22 80q10 50 10 87 0 47-50 71m-86 137q0-32 11.5-47.5T178 402l12-6 57 287q-29-4-54-26-21-19-32.5-46T138 531q-6-30-6-55z" horiz-adv-x="356" vert-adv-y="1000"/><glyph glyph-name="uni25" unicode="%" d="M124 438q-3-15-3-24 0-40 43-40 46 0 58 60l39 194q3 15 3 24 0 40-43 40-46 0-58-60l-39-194m-33 0l38 190q18 92 96 92 36 0 54-18.5t18-48.5q0-10-3-25l-38-190q-18-92-96-92-36 0-54 18.5T88 413q0 10 3 25M328 84q-3-15-3-24 0-40 43-40 46 0 58 60l39 194q3 15 3 24 0 40-43 40-46 0-58-60L328 84m-33 0l38 190q18 92 96 92 36 0 54-18.5t18-48.5q0-10-3-25L460 84Q442-8 364-8q-36 0-54 18.5T292 59q0 10 3 25M88 0l378 712h32L120 0H88z" horiz-adv-x="548" vert-adv-y="1000"/><glyph glyph-name="uni26" unicode="&amp;" d="M15 126q0 131 171 262-23 54-32 75.5t-16 48q-7 26.5-7 48.5 0 64 37.5 111T273 718q51 0 79-28.5t28-80.5q0-103-110-195l-40-34 97-225q26 32 49.5 85T411 341h36q-30-132-105-221L394 0h-41l-39 90q-46-50-85.5-74T142-8Q82-8 48.5 26T15 126m39 0q0-44 22.5-72T142 26q37 0 72 22.5t85 76.5L199 357q-69-59-107-112.5T54 126m163 285l32 27q92 75 92 169 0 38-19.5 57.5T271 684q-42 0-71.5-35T170 563q0-46 47-152z" horiz-adv-x="451" vert-adv-y="1000"/><glyph glyph-name="uni27" unicode="'" d="M111 536l35 176h48l-35-176h-48z" horiz-adv-x="156" vert-adv-y="1000"/><glyph glyph-name="uni28" unicode="(" d="M15 18q0 22 6 52l114 572q11 59 33 92 23 35 68 72l22-28q-42-37-58-60-21-33-30-82L57 70q-6-30-6-49 0-44 38-91L61-94Q15-35 15 18z" horiz-adv-x="192" vert-adv-y="1000"/><glyph glyph-name="uni29" unicode=")" d="M219 694q0-22-6-52L99 70Q88 11 66-22 43-57-2-94l-22 28Q18-29 34-6q21 33 30 82l113 566q6 30 6 49 0 44-38 91l28 24q46-59 46-112z" horiz-adv-x="192" vert-adv-y="1000"/><glyph glyph-name="uni2a" unicode="*" d="M185 423l22 117-113-44-10 28 115 45-91 83 20 22 89-82 23 119 29-5-23-119 111 44 11-28-114-44 91-83-20-21-89 80-22-117-29 5z" horiz-adv-x="328" vert-adv-y="1000"/><glyph glyph-name="uni2b" unicode="+" d="M153 112l29 144H48l7 34h134l28 144h34l-28-144h134l-7-34H216l-29-144h-34z" horiz-adv-x="396" vert-adv-y="1000"/><glyph glyph-name="uni2c" unicode="," d="M-13-80L16 60h48L43-42l-56-38z" horiz-adv-x="156" vert-adv-y="1000"/><glyph glyph-name="uni2d" unicode="-" d="M48 255l7 36h175l-7-36H48z" horiz-adv-x="269" vert-adv-y="1000"/><glyph glyph-name="uni2e" unicode="." d="M10 0l11 58h54L64 0H10z" horiz-adv-x="174" vert-adv-y="1000"/><glyph glyph-name="uni2f" unicode="/" d="M-64-74l348 860h39L-26-74h-38z" horiz-adv-x="220" vert-adv-y="1000"/><glyph glyph-name="uni30" unicode="0" d="M121 593q14 71 53 102 31 25 72 25 53 0 80-38 14-22 14-58 0-19-4-39l-93-466q-14-71-53-102-31-25-72-25-53 0-80 38-14 22-14 58 0 19 4 39l93 466m36 0L64 126q-4-20-4-38 0-30 16-47t44-17q29 0 53 22t34 73l93 467q4 20 4 38 0 30-16 47t-44 17q-29 0-53-22t-34-73z" horiz-adv-x="322" vert-adv-y="1000"/><glyph glyph-name="uni31" unicode="1" d="M100 0l132 662-111-89 11 52 110 87h36L136 0h-36z" horiz-adv-x="322" vert-adv-y="1000"/><glyph glyph-name="uni32" unicode="2" d="M-1 0l5 29 233 406q69 121 69 186 0 31-14 49t-40 18q-63 0-82-93l-10-50h-36l10 50q14 69 47 98 30 27 73 27 47 0 69-31 19-27 19-68 0-70-75-200L44 32h185l-6-32H-1z" horiz-adv-x="322" vert-adv-y="1000"/><glyph glyph-name="uni33" unicode="3" d="M111 545l10 50q14 69 47 98 30 27 73 27 49 0 70-30 15-23 15-55t-12-92q-20-102-41-128-15-21-40-33 41-25 41-74 0-24-17-114-26-135-66-171-33-31-82-31-50 0-73 33-18 23-18 59 0 19 3 34l10 50h36l-10-50q-3-15-3-32 0-30 15.5-46T111 24q33 0 55 22 18 18 29.5 47T221 194q17 85 17 112 0 26-15.5 43.5T180 367h-40l6 32h35q29 0 49 20 18 19 27.5 43t20.5 81q12 57 12 90 0 55-51 55-63 0-82-93l-10-50h-36z" horiz-adv-x="322" vert-adv-y="1000"/><glyph glyph-name="uni34" unicode="4" d="M9 128l7 32 278 552h38L54 160h135l45 228h35l-45-228h47l-7-32h-47L192 0h-35l25 128H9z" horiz-adv-x="322" vert-adv-y="1000"/><glyph glyph-name="uni35" unicode="5" d="M34 168h36l-9-45q-4-22-4-39 0-24 14.5-42T113 24q34 0 58 27 18 20 31 55.5T231 222q18 93 18 125 0 72-55 72-31 0-57.5-25.5T102 328l-8-40H62l85 424h208l-6-32H173l-55-272q15 19 36 31t48 12q44 0 65-30 19-27 19-68 0-40-19-131-18-91-32.5-130.5T195 27Q160-8 112-8 63-8 40 23 21 47 21 83q0 19 4 40l9 45z" horiz-adv-x="322" vert-adv-y="1000"/><glyph glyph-name="uni36" unicode="6" d="M23 91q0 27 17 117 24 121 67 199l163 305h37L140 403q24 20 59 20 39 0 61-24.5t22-67.5q0-27-18-123-16-88-31.5-126T193 22Q160-8 113-8 63-8 40 26 23 51 23 91m35 0q0-29 13.5-48T114 24q33 0 56 22 19 18 30.5 50T228 208q18 90 18 122 0 25-14 43t-42 18q-33 0-56-22-19-17-30.5-51T76 208Q58 118 58 91z" horiz-adv-x="322" vert-adv-y="1000"/><glyph glyph-name="uni37" unicode="7" d="M32 0l297 680H173l-25-125h-34l31 157h227l-6-30L71 0H32z" horiz-adv-x="322" vert-adv-y="1000"/><glyph glyph-name="uni38" unicode="8" d="M112 543q13 66 26.5 97.5T174 693q29 27 75 27 49 0 71-30 17-23 17-61 0-29-11-86-18-93-44-126-20-25-46-37 20-11 30-28 11-19 11-47 0-31-16-111-16-81-30-116.5T194 22Q159-8 115-8 65-8 40 26 23 51 23 87q0 37 14 107 17 81 27.5 111T94 356q17 19 44 30-19 12-29 33-7 15-7 38 0 36 10 86m36 0q-11-58-11-82 0-27 11-43 13-19 42-19 31 0 50 19 31 29 50 125 11 55 11 80 0 31-11 46-13 19-43 19-28 0-50-20-29-27-49-125M73 194Q59 127 59 93q0-31 12-47 15-22 46-22 29 0 53 21 18 17 29 45t26 104q16 80 16 109 0 27-12 43-15 21-45 21-33 0-55-21-17-16-28.5-45.5T73 194z" horiz-adv-x="322" vert-adv-y="1000"/><glyph glyph-name="uni39" unicode="9" d="M341 621q0-27-17-117-24-121-67-199L94 0H57l167 309q-24-20-59-20-39 0-61 24.5T82 381q0 27 18 123 16 88 31.5 126t39.5 60q33 30 80 30 50 0 73-34 17-26 17-65m-35 0q0 29-13.5 48T250 688q-33 0-56-22-19-18-30.5-50T136 504q-18-90-18-122 0-25 14-43t42-18q33 0 56 22 19 17 30.5 51T288 504q18 90 18 117z" horiz-adv-x="322" vert-adv-y="1000"/><glyph glyph-name="uni3a" unicode=":" d="M38 0l11 58h54L92 0H38m70 349l11 58h54l-11-58h-54z" horiz-adv-x="202" vert-adv-y="1000"/><glyph glyph-name="uni3b" unicode=";" d="M24-80L53 60h48L80-42 24-80m84 429l11 58h54l-11-58h-54z" horiz-adv-x="202" vert-adv-y="1000"/><glyph glyph-name="uni3c" unicode="&lt;" d="M34 261l8 40 292 161-9-46L75 279l194-140-7-39L34 261z" horiz-adv-x="324" vert-adv-y="1000"/><glyph glyph-name="uni3d" unicode="=" d="M33 180l6 34h302l-6-34H33m26 132l7 34h302l-7-34H59z" horiz-adv-x="396" vert-adv-y="1000"/><glyph glyph-name="uni3e" unicode="&gt;" d="M302 301l-8-40L2 100l9 46 250 137L67 423l7 39 228-161z" horiz-adv-x="324" vert-adv-y="1000"/><glyph glyph-name="uni3f" unicode="?" d="M140 178l19 95q10 46 46 93l72 95q28 38 39 94 6 32 6 60 0 29-13 48-16 23-53 23-32 0-58-21-31-26-44-90h-36q16 80 54 112 37 31 86 31 56 0 81-35 19-27 19-65 0-24-7-63-14-66-50-115l-72-95q-26-34-35-77l-18-90h-36M100 0l11 58h54L154 0h-54z" horiz-adv-x="333" vert-adv-y="1000"/><glyph glyph-name="uni40" unicode="@" d="M38-8Q17 13 17 54q0 22 4 39l97 483q14 72 52 105 34 31 95 31h98q51 0 78-35 19-25 19-64 0-17-4-37L341 0h-34l6 35q-10-14-30-27-26-16-58-16-41 0-65 34-16 23-16 56 0 16 4 37l48 236q13 67 46 97t81 30q31 0 50-15 13-11 20-30l29 143q3 16 3 33 0 67-70 67h-90q-45 0-74-26.5T153 580L54 89q-3-14-3-32 0-25 14-42L38-8m143 93q0-29 14.5-45T231 24q35 0 62 25.5t35 67.5l48 240q3 16 3 29 0 64-58 64-30 0-55-24.5T232 357l-48-240q-3-16-3-32z" horiz-adv-x="450" vert-adv-y="1000"/><glyph glyph-name="uni41" unicode="A" d="M273 0h-36l1 215H78L-8 0h-38l285 712h36L273 0m-35 249l4 385L92 249h146z" horiz-adv-x="325" vert-adv-y="1000"/><glyph glyph-name="uni42" unicode="B" d="M17 0l142 712h96q61 0 89-32 25-29 25-74 0-33-7-68-19-101-67-143-21-19-45-26 26-6 43-28 24-31 24-77 0-31-8-71-22-111-69-155Q199 0 120 0H17m44 34h71q54 0 87.5 35T271 193q8 40 8 67 0 91-90 91h-64L61 34m71 351h63q99 0 128 147 8 40 8 67 0 41-18.5 60T253 678h-63l-58-293z" horiz-adv-x="371" vert-adv-y="1000"/><glyph glyph-name="uni43" unicode="C" d="M36 106q0 52 39 250 36 180 56.5 240t53.5 90q37 34 95 34 57 0 84-36 20-27 20-76 0-18-6-48h-37q6 26 6 48 0 78-69 78-41 0-68-25-28-27-45-78.5T113 356Q73 155 73 106q0-80 72-80 38 0 65 25 37 33 51 102h38q-18-91-69-132-37-29-89-29-50 0-77 29-28 31-28 85z" horiz-adv-x="358" vert-adv-y="1000"/><glyph glyph-name="uni44" unicode="D" d="M61 34h85q44 0 69 22 27 23 44.5 76T311 356q39 191 39 244 0 34-16 55-17 23-59 23h-85L61 34M17 0l142 712h124q55 0 81-34 24-32 24-77 0-50-39-245-36-181-55.5-238T239 31Q202 0 147 0H17z" horiz-adv-x="382" vert-adv-y="1000"/><glyph glyph-name="uni45" unicode="E" d="M17 0l142 712h216l-7-34H190l-60-302h153l-7-34H123L62 34h177l-6-34H17z" horiz-adv-x="330" vert-adv-y="1000"/><glyph glyph-name="uni46" unicode="F" d="M17 0l142 712h216l-7-34H190l-61-305h153l-7-34H122L55 0H17z" horiz-adv-x="326" vert-adv-y="1000"/><glyph glyph-name="uni47" unicode="G" d="M341 374l-47-236q-14-72-55.5-109T139-8Q91-8 64 21q-28 31-28 85 0 52 39 250 36 180 56.5 240t53.5 90q37 34 95 34 57 0 84-36 20-27 20-76 0-18-6-48h-37q6 26 6 48 0 78-69 78-41 0-68-25-28-27-45-78.5T113 356Q73 155 73 106q0-80 70-80 41 0 72.5 30t42.5 84l40 200h-89l6 34h126z" horiz-adv-x="372" vert-adv-y="1000"/><glyph glyph-name="uni48" unicode="H" d="M17 0l142 712h38l-67-333h178l67 333h38L271 0h-38l69 345H124L55 0H17z" horiz-adv-x="388" vert-adv-y="1000"/><glyph glyph-name="uni49" unicode="I" d="M17 0l142 712h38L55 0H17z" horiz-adv-x="172" vert-adv-y="1000"/><glyph glyph-name="uni4a" unicode="J" d="M-28 39L2 61q25-35 66-35 84 0 109 126l112 560h38L213 142q-15-75-53-113Q123-8 66-8 2-8-28 39z" horiz-adv-x="295" vert-adv-y="1000"/><glyph glyph-name="uni4b" unicode="K" d="M17 0l142 712h38l-80-400 267 400h44L233 420 304 0h-38l-65 377-101-149L55 0H17z" horiz-adv-x="363" vert-adv-y="1000"/><glyph glyph-name="uni4c" unicode="L" d="M17 0l142 712h38L61 34h178l-6-34H17z" horiz-adv-x="303" vert-adv-y="1000"/><glyph glyph-name="uni4d" unicode="M" d="M17 0l142 712h42l59-425 231 425h42L391 0h-38l120 605-207-382h-35l-54 388L55 0H17z" horiz-adv-x="508" vert-adv-y="1000"/><glyph glyph-name="uni4e" unicode="N" d="M17 0l142 712h38l72-602 118 602h38L283 0h-38l-70 602L55 0H17z" horiz-adv-x="400" vert-adv-y="1000"/><glyph glyph-name="uni4f" unicode="O" d="M75 356q37 187 56.5 244t55.5 89q35 31 90 31 58 0 85-35 24-30 24-74 0-57-39-255-37-187-56.5-244T235 23Q200-8 145-8 87-8 60 27q-24 30-24 74 0 57 39 255m38 0Q74 161 74 108q0-82 74-82 40 0 66 25 26 26 43.5 79.5T309 356q39 195 39 248 0 82-74 82-40 0-66-25-26-26-43.5-79.5T113 356z" horiz-adv-x="380" vert-adv-y="1000"/><glyph glyph-name="uni50" unicode="P" d="M17 0l142 712h111q57 0 85-28t28-88q0-36-8-76-22-112-62.5-152T206 328h-86L55 0H17m110 362h78q48 0 80.5 31.5T337 520q8 40 8 76 0 42-18.5 62T266 678h-76l-63-316z" horiz-adv-x="367" vert-adv-y="1000"/><glyph glyph-name="uni51" unicode="Q" d="M75 356q37 187 56.5 244t55.5 89q35 31 90 31 58 0 85-35 24-30 24-74 0-57-39-255-34-167-51.5-227T252 40l40-43-23-23-41 44Q193-8 145-8 87-8 60 27q-24 30-24 74 0 57 39 255m38 0Q74 161 74 108q0-82 74-82 33 0 57 17l-49 54 22 23 50-54q19 24 35 81.5T309 356q39 195 39 248 0 82-74 82-40 0-66-25-26-26-43.5-79.5T113 356z" horiz-adv-x="380" vert-adv-y="1000"/><glyph glyph-name="uni52" unicode="R" d="M17 0l142 712h113q111 0 111-116 0-36-8-76-19-91-48.5-133.5T253 333L292 0h-39l-36 328h-97L55 0H17m110 362h78q48 0 80.5 31.5T337 520q8 40 8 76 0 42-18.5 62T266 678h-76l-63-316z" horiz-adv-x="389" vert-adv-y="1000"/><glyph glyph-name="uni53" unicode="S" d="M24 173h37q-8-40-8-71t13-49q19-25 63-25 45 0 74 27 22 20 33 46t22 80q10 50 10 87 0 47-50 71l-60 29q-36 17-50.5 39.5T93 472q0 24 7 59 12 62 27 95t40 56q37 36 97 36 59 0 86-37 19-28 19-70 0-27-9-72h-37q8 40 8 71 0 30-13 49-17 25-56 25t-69-27q-21-19-32.5-46T138 531q-6-30-6-55 0-32 11.5-47.5T178 402l60-29q38-19 53.5-42.5T307 272q0-38-11-91-13-64-27.5-97T229 29Q189-6 127-6 64-6 35 30q-20 26-20 71 0 27 9 72z" horiz-adv-x="356" vert-adv-y="1000"/><glyph glyph-name="uni54" unicode="T" d="M82 0l135 678H106l7 34h260l-7-34H255L120 0H82z" horiz-adv-x="302" vert-adv-y="1000"/><glyph glyph-name="uni55" unicode="U" d="M40 152l112 560h38L76 144q-4-20-4-39 0-77 70-77 37 0 68.5 28t41.5 78l116 578h38L290 133q-13-68-57-106-39-35-98-35-53 0-81 39-20 26-20 69 0 25 6 52z" horiz-adv-x="374" vert-adv-y="1000"/><glyph glyph-name="uni56" unicode="V" d="M94 0l2 712h38l-5-629 245 629h38L132 0H94z" horiz-adv-x="324" vert-adv-y="1000"/><glyph glyph-name="uni57" unicode="W" d="M58 0l48 712h38L96 84l241 628h38l-6-628 199 628h38L372 0h-38l6 630L96 0H58z" horiz-adv-x="528" vert-adv-y="1000"/><glyph glyph-name="uni58" unicode="X" d="M-30 0l193 376-43 336h40l33-297 151 297h42L207 370 256 0h-40l-39 329L12 0h-42z" horiz-adv-x="326" vert-adv-y="1000"/><glyph glyph-name="uni59" unicode="Y" d="M66 0l62 310-32 402h39l23-345 158 345h43L164 299 104 0H66z" horiz-adv-x="271" vert-adv-y="1000"/><glyph glyph-name="uni5a" unicode="Z" d="M-25 0l6 30 322 648H119l7 34h224l-6-30L22 34h195l-6-34H-25z" horiz-adv-x="287" vert-adv-y="1000"/><glyph glyph-name="uni5b" unicode="[" d="M-4-74l172 860h116l-7-32h-79L39-42h79l-6-32H-4z" horiz-adv-x="205" vert-adv-y="1000"/><glyph glyph-name="uni5c" unicode="\" d="M124-74l-17 860h38l17-860h-38z" horiz-adv-x="227" vert-adv-y="1000"/><glyph glyph-name="uni5d" unicode="]" d="M251 786L79-74H-37l7 32h79l159 796h-79l6 32h116z" horiz-adv-x="205" vert-adv-y="1000"/><glyph glyph-name="uni5e" unicode="^" d="M103 440l170 278h36l60-278h-34l-50 240-143-240h-39z" horiz-adv-x="396" vert-adv-y="1000"/><glyph glyph-name="uni5f" unicode="_" d="M-69-95h393l-6-32H-75l6 32z" horiz-adv-x="394" vert-adv-y="1000"/><glyph glyph-name="uni60" unicode="`" d="M208 583l-40 126h39l37-126h-36z" horiz-adv-x="315" vert-adv-y="1000"/><glyph glyph-name="uni61" unicode="a" d="M26 24Q9 48 9 91q0 23 5 45 15 78 61 117 33 29 90 29h62l20 99q4 20 4 35 0 62-57 62-29 0-51-19-27-23-39-81H68q15 73 49 103 33 29 81 29 51 0 72-29 17-23 17-64 0-15-4-35L207 0h-36l8 42q-12-17-30-31Q125-8 90-8 49-8 26 24m19 67q0-67 51-67 39 0 65.5 31.5T196 126l25 126h-54q-42 0-71-25-24-21-37.5-59T45 91z" horiz-adv-x="313" vert-adv-y="1000"/><glyph glyph-name="uni62" unicode="b" d="M153 712h36l-49-245q11 15 28 27 23 16 55 16 43 0 67-34 16-24 16-65 0-45-23-160-21-107-37-155t-42-72Q169-8 127-8 92-8 73 11 59 25 55 39L47 0H11l142 712m94-461q23 115 23 159 0 29-10 45-15 23-44 23-28 0-53-20-30-27-41-80L72 124q-3-19-3-34 0-31 14-48 15-18 42-18 28 0 54 23 21 18 35 62.5T247 251z" horiz-adv-x="327" vert-adv-y="1000"/><glyph glyph-name="uni63" unicode="c" d="M44 251q37 187 80 227 34 32 83 32 51 0 72-29 17-24 17-59 0-20-6-47h-34q5 25 5 43 0 29-13 43-15 17-44 17-30 0-56-23-21-19-35-63T80 251Q56 129 56 92q0-41 21-57 14-11 38-11 32 0 53 20 28 25 40 83h35q-16-75-49-104-34-31-83-31-38 0-61 19-29 24-29 80 0 45 23 160z" horiz-adv-x="302" vert-adv-y="1000"/><glyph glyph-name="uni64" unicode="d" d="M216 0h-36l7 35q-11-15-28-27-23-16-55-16-43 0-67 34-16 24-16 65 0 45 23 160 22 108 37.5 155.5T123 478q35 32 77 32 35 0 54-19 14-14 18-28l50 249h36L216 0M80 251Q57 136 57 92q0-29 10-45 16-23 44-23t53 20q30 27 41 80l50 254q3 20 3 34 0 31-14 48-15 18-42 18-28 0-54-23-21-18-35-62.5T80 251z" horiz-adv-x="327" vert-adv-y="1000"/><glyph glyph-name="uni65" unicode="e" d="M36 29Q22 51 22 91q0 45 23 160 37 188 79 227 33 32 83 32t72-35q15-23 15-64 0-45-23-160H81Q57 131 57 93q0-32 15-51 15-18 42-18 33 0 56 20 28 25 40 83h35q-15-74-53-107-31-28-81-28-51 0-75 37m51 254h154q18 87 18 127 0 68-56 68-31 0-54-22-20-19-32.5-55T87 283z" horiz-adv-x="311" vert-adv-y="1000"/><glyph glyph-name="uni66" unicode="f" d="M24 0l94 472H58l6 30h60l17 83q13 66 48 96 36 31 98 31l-6-32q-86 0-104-93l-17-85h85l-6-30h-85L60 0H24z" horiz-adv-x="209" vert-adv-y="1000"/><glyph glyph-name="uni67" unicode="g" d="M44 251q22 108 37.5 155.5T123 478q35 32 77 32 35 0 54-19 14-14 18-28l8 39h36L212-22q-14-71-25.5-103T152-179q-34-31-85-31-39 0-64 24.5T-22-120q0 22 4 44h35q-4-22-4-43 0-27 15-43t43-16q32 0 56 21 19 18 27.5 44.5T177-15l10 50q-11-15-28-27-23-16-55-16-43 0-67 34-16 24-16 65 0 45 23 160m36 0Q57 136 57 92q0-29 10-45 16-23 44-23t53 20q30 27 41 80l50 254q3 20 3 34 0 31-14 48-15 18-42 18-28 0-54-23-21-18-35-62.5T80 251z" horiz-adv-x="327" vert-adv-y="1000"/><glyph glyph-name="uni68" unicode="h" d="M11 0l142 712h36l-50-249q12 17 29 30 22 17 57 17 45 0 67-35 15-23 15-56 0-17-6-45L227 0h-36l74 374q5 22 5 44 0 25-14 42.5T213 478q-31 0-56-25t-36-79L47 0H11z" horiz-adv-x="333" vert-adv-y="1000"/><glyph glyph-name="uni69" unicode="i" d="M11 0l100 502h36L47 0H11m118 633l10 51h52l-10-51h-52z" horiz-adv-x="158" vert-adv-y="1000"/><glyph glyph-name="uni6a" unicode="j" d="M-5-80l116 582h36L31-84q-14-66-48-96-35-30-95-30l7 32q80 1 100 98m134 713l10 51h52l-10-51h-52z" horiz-adv-x="158" vert-adv-y="1000"/><glyph glyph-name="uni6b" unicode="k" d="M11 0l142 712h36L92 227l212 275h42L200 312 265 0h-36l-58 280-92-119L47 0H11z" horiz-adv-x="334" vert-adv-y="1000"/><glyph glyph-name="uni6c" unicode="l" d="M43 34Q27 59 27 89q0 18 3 33l118 590h36L67 124q-3-15-3-35 0-57 65-57l-6-32Q65 0 43 34z" horiz-adv-x="187" vert-adv-y="1000"/><glyph glyph-name="uni6d" unicode="m" d="M11 0l100 502h36l-8-39q12 17 29 30 22 17 57 17 45 0 67-35 8-14 10-22 14 23 41 40 28 17 61 17 45 0 67-35 14-21 14-56 0-17-6-45L405 0h-36l74 374q5 22 5 44 0 25-13.5 42.5T392 478q-32 0-57-24.5T300 374L226 0h-36l74 374q5 22 5 44 0 25-13.5 42.5T213 478q-31 0-56-25t-36-79L47 0H11z" horiz-adv-x="513" vert-adv-y="1000"/><glyph glyph-name="uni6e" unicode="n" d="M11 0l100 502h36l-8-39q12 17 29 30 22 17 57 17 45 0 67-35 15-23 15-56 0-17-6-45L227 0h-36l74 374q5 22 5 44 0 25-14 42.5T213 478q-31 0-56-25t-36-79L47 0H11z" horiz-adv-x="333" vert-adv-y="1000"/><glyph glyph-name="uni6f" unicode="o" d="M81 251Q58 136 58 94q0-32 11-49 14-21 43-21 31 0 55 22 21 20 35 63t33 142q23 115 23 157 0 32-11 49-14 21-43 21-31 0-55-22-21-20-35-63T81 251m-36 0q22 111 39 157.5t42 70.5q33 31 80 31 51 0 73-35 14-22 14-67 0-47-22-157-22-111-39-157.5T190 23Q157-8 110-8 59-8 37 27 23 49 23 94q0 47 22 157z" horiz-adv-x="316" vert-adv-y="1000"/><glyph glyph-name="uni70" unicode="p" d="M111 502h36l-7-35q11 15 28 27 23 16 55 16 43 0 67-34 16-24 16-65 0-45-23-160-21-107-37-155t-42-72Q169-8 127-8 92-8 73 11 59 25 55 39L5-210h-36l142 712m136-251q23 115 23 159 0 29-10 45-15 23-44 23-28 0-53-20-30-27-41-80L72 124q-3-19-3-34 0-31 14-48 15-18 42-18 28 0 54 23 21 18 35 62.5T247 251z" horiz-adv-x="327" vert-adv-y="1000"/><glyph glyph-name="uni71" unicode="q" d="M174-210h-36l49 245q-11-15-28-27-23-16-55-16-43 0-67 34-16 24-16 65 0 45 23 160 22 108 37.5 155.5T123 478q35 32 77 32 35 0 54-19 14-14 18-28l8 39h36L174-210M80 251Q57 136 57 92q0-29 10-45 16-23 44-23t53 20q30 27 41 80l50 254q3 20 3 34 0 31-14 48-15 18-42 18-28 0-54-23-21-18-35-62.5T80 251z" horiz-adv-x="327" vert-adv-y="1000"/><glyph glyph-name="uni72" unicode="r" d="M11 0l100 502h36l-11-52q11 23 37 41 28 19 75 19l-7-32h-4q-44 0-75-28t-41-76L47 0H11z" horiz-adv-x="210" vert-adv-y="1000"/><glyph glyph-name="uni73" unicode="s" d="M23 27Q3 51 3 92q0 21 4 41h36q-4-20-4-39 0-30 14-47 18-23 52-23 37 0 63 23 39 36 39 103 0 49-45 83l-46 35q-56 43-56 95 0 76 51 119 34 28 81 28 53 0 78-34 18-25 18-61 0-19-5-44h-35q5 25 5 42 0 27-12 43-17 22-51 22-33 0-56-20-38-33-38-92 0-40 40-70l47-35q33-25 46.5-48.5T243 153q0-84-52-130-35-31-89-31-52 0-79 35z" horiz-adv-x="298" vert-adv-y="1000"/><glyph glyph-name="uni74" unicode="t" d="M45 90q0 17 5 42l68 340H58l6 30h60l31 154h36l-31-154h86l-6-30h-86L86 130q-4-20-4-38 0-60 74-60l-6-32Q84 0 61 34 45 58 45 90z" horiz-adv-x="219" vert-adv-y="1000"/><glyph glyph-name="uni75" unicode="u" d="M322 502L222 0h-36l8 39q-12-17-29-30-22-17-57-17-45 0-67 35-15 23-15 56 0 17 6 45l74 374h36L68 128q-5-22-5-44 0-25 14-42.5T120 24q32 0 56.5 25t35.5 79l74 374h36z" horiz-adv-x="333" vert-adv-y="1000"/><glyph glyph-name="uni76" unicode="v" d="M62 0l-8 502h36l2-436 178 436h36L98 0H62z" horiz-adv-x="260" vert-adv-y="1000"/><glyph glyph-name="uni77" unicode="w" d="M48 0l16 502h36L80 66l168 436h38l-9-436 157 436h36L284 0h-39l10 440L87 0H48z" horiz-adv-x="436" vert-adv-y="1000"/><glyph glyph-name="uni78" unicode="x" d="M-28 0l148 258-46 244h36l36-211 121 211h36L158 254 209 0h-36l-42 220L8 0h-36z" horiz-adv-x="276" vert-adv-y="1000"/><glyph glyph-name="uni79" unicode="y" d="M-84-178q70 0 100 71L63 2l-9 500h36l3-436 177 436h39L52-110q-24-56-57-78t-86-22l7 32z" horiz-adv-x="262" vert-adv-y="1000"/><glyph glyph-name="uni7a" unicode="z" d="M-32 0l5 27 255 443H67l6 32h201l-5-27L14 32h171l-6-32H-32z" horiz-adv-x="249" vert-adv-y="1000"/><glyph glyph-name="uni7b" unicode="{" d="M63 19q0 11 4 34l39 195q4 22 4 31 0 29-15 45t-40 16h-9l6 32h9q31 0 55 24t33 69l39 194q15 70 48 99 32 28 86 28h9l-7-32h-7q-33 0-58-24t-34-69l-39-195q-15-70-46-97-11-9-26-14 7-4 17-16 16-21 16-54 0-11-5-39L103 51q-3-16-3-32 0-61 58-61h7l-6-32h-9q-46 0-70 34-17 24-17 59z" horiz-adv-x="252" vert-adv-y="1000"/><glyph glyph-name="uni7c" unicode="|" d="M21-74l172 860h36L57-74H21z" horiz-adv-x="208" vert-adv-y="1000"/><glyph glyph-name="uni7d" unicode="}" d="M231 693q0-11-4-34l-39-195q-4-22-4-31 0-29 15-45t40-16h9l-6-32h-9q-31 0-55-24t-33-69L106 53Q91-17 58-46 26-74-28-74h-9l7 32h7q33 0 58 24t34 69l39 195q15 70 46 97 11 9 26 14-7 4-17 16-16 21-16 54 0 11 5 39l39 195q3 17 3 32 0 61-58 61h-7l6 32h9q46 0 70-34 17-24 17-59z" horiz-adv-x="252" vert-adv-y="1000"/><glyph glyph-name="uni7e" unicode="~" d="M68 237l-20 26q34 30 52.5 39.5T141 312q21 0 68-24 36-19 50-19 16 0 29 6.5t39 29.5l20-26q-53-46-91-46-22 0-68 24-34 19-50 19-27 0-70-39z" horiz-adv-x="394" vert-adv-y="1000"/><glyph glyph-name="unia1" unicode="¡" d="M120 325L13-210h-36L84 325h36m44 177l-11-58H99l11 58h54z" horiz-adv-x="202" vert-adv-y="1000"/><glyph glyph-name="unia2" unicode="¢" d="M44 206q0 45 22 149 20 99 35.5 146t40.5 70q30 28 70 31l22 110h32l-22-110q34-4 53-28 17-24 17-59 0-14-5-41h-34q4 16 4 37 0 24-10 39-12 16-32 20l-86-430q23 3 40 19 27 23 38 77h34q-16-72-46-98-31-28-72-31L124 0H92l21 108q-35 6-54 36-15 23-15 62m45-44q10-17 31-21l85 428q-21-4-39-21-21-20-33.5-60T101 355Q79 243 79 207q0-29 10-45z" horiz-adv-x="302" vert-adv-y="1000"/><glyph glyph-name="unia3" unicode="£" d="M157 569q15 78 58 116 38 35 93 35 64 0 94-47l-30-22q-25 35-66 35-87 0-113-127l-33-167h88l-6-30h-88L89 34h185l-6-34H44l72 362H55l6 30h61l35 177z" horiz-adv-x="346" vert-adv-y="1000"/><glyph glyph-name="unia4" unicode="¤" d="M55 265q0 60 38 106l-57 56 22 22 57-56q45 37 105 37t105-37l57 56 22-22-57-56q38-46 38-106 0-59-38-105l57-57-22-22-57 57q-46-38-105-38t-105 38L58 81l-22 22 57 57q-38 46-38 105m72.5 92.5l-18.75-18.75Q90 320 90 265t37.5-92.5Q165 135 220 135t92.5 37.5Q350 210 350 265t-37.5 92.5Q275 395 220 395t-92.5-37.5z" horiz-adv-x="436" vert-adv-y="1000"/><glyph glyph-name="unia5" unicode="¥" d="M41 235l6 30h72l9 45-5 61H68l6 30h47L96 712h39l23-345 158 345h43L212 401h44l-6-30h-52l-34-72-7-34h72l-6-30h-72L104 0H66l47 235H41z" horiz-adv-x="271" vert-adv-y="1000"/><glyph glyph-name="unia6" unicode="¦" d="M21-74l70 350h36L57-74H21m102 510l70 350h36l-70-350h-36z" horiz-adv-x="208" vert-adv-y="1000"/><glyph glyph-name="unia7" unicode="§" d="M64 272q14 71 28 104.5t38 55.5q23 22 66 30-61 44-61 103 0 76 45 117 33 30 81 30 51 0 73-30 19-25 19-64 0-13-3-28h-36q3 15 3 26 0 27-11 43-14 21-46 21-31 0-55-21-34-31-34-92 0-46 41-75l44-32q21-16 34-32 19-27 19-57 0-21-15-99-14-71-28.5-105T228 112q-25-22-66-30 31-23 46-46.5T223-23q0-86-45-125-38-32-86-32-51 0-75 30-20 25-20 63 0 15 3 30h35q-3-15-3-28 0-27 12-42 17-21 49-21 34 0 60 23 34 30 34 98 0 45-43 78l-42 32q-25 19-35 33-17 25-17 60 0 28 14 96m36 0q-13-68-13-92 0-28 12-44 17-23 48-23 33 0 59 24 19 18 29.5 45t22.5 90q14 68 14 93 0 24-12 42-16 24-49 24-32 0-58-23-18-16-29-43.5T100 272z" horiz-adv-x="350" vert-adv-y="1000"/><glyph glyph-name="unia8" unicode="¨" d="M147 604l10 50h46l-10-50h-46m116 0l10 50h46l-10-50h-46z" horiz-adv-x="316" vert-adv-y="1000"/><glyph glyph-name="unia9" unicode="©" d="M515 259q-2-59-26-83-24-25-64-25t-65 28q-18 20-24 58.5T330 356q0 80 6 118.5t24 58.5q25 28 65 28t64-25q24-26 26-83h-33q-2 48-17 63-15 16-40 16t-41-18q-13-16-17-48.5T363 356q0-77 4-109.5t17-48.5q16-18 41-18t40 16q15 15 17 63h33M204 579l-46-46.5Q112 486 112 356t91.5-222.5Q295 41 425 41t222 92.5Q739 226 739 356t-92 223q-92 93-222 93-129 0-221-93M82 356q0 143 100.5 243.5T425 700q143 0 243.5-101T769 356q0-142-100.5-242.5T425 13q-143 0-243 100.5T82 356z" horiz-adv-x="809" vert-adv-y="1000"/><glyph glyph-name="uniaa" unicode="ª" d="M66 407q0 77 47 115 30 25 79 25h51l12 60q5 25 5 37 0 47-47 47-25 0-42-15-22-20-31-65h-31q12 61 41 85 26 23 66 23 41 0 60-25 15-20 15-50 0-13-5-38l-55-274h-31l7 31q-12-15-26-24-18-13-43-13-37 0-58 28-14 19-14 53m31 2q0-55 47-55 28 0 48.5 23.5T221 438l17 83h-41q-39 0-61-17-39-30-39-95z" horiz-adv-x="265" vert-adv-y="1000"/><glyph glyph-name="uniab" unicode="«" d="M110 69L31 265l158 196-16-78L73 260l51-122-14-69m132 0l-79 196 158 196-16-78-100-123 51-122-14-69z" horiz-adv-x="333" vert-adv-y="1000"/><glyph glyph-name="uniac" unicode="¬" d="M48 257l7 34h306l-28-137h-35l21 103H48z" horiz-adv-x="396" vert-adv-y="1000"/><glyph glyph-name="uniad" unicode="­" d="M48 255l7 36h175l-7-36H48z" horiz-adv-x="269" vert-adv-y="1000"/><glyph glyph-name="uniae" unicode="®" d="M517 446q0-37-5.5-55T490 358q-10-10-21-14l60-187h-35l-56 180h-69V157h-33v399h95q38 0 60-22 26-25 26-88m-49-66q16 17 16 66t-16 66q-14 14-36 14h-63V366h63q22 0 36 14M204 579l-46-46.5Q112 486 112 356t91.5-222.5Q295 41 425 41t222 92.5Q739 226 739 356t-92 223q-92 93-222 93-129 0-221-93M82 356q0 143 100.5 243.5T425 700q143 0 243.5-101T769 356q0-142-100.5-242.5T425 13q-143 0-243 100.5T82 356z" horiz-adv-x="809" vert-adv-y="1000"/><glyph glyph-name="uniaf" unicode="¯" d="M137 614l7 34h186l-7-34H137z" horiz-adv-x="316" vert-adv-y="1000"/><glyph glyph-name="unib0" unicode="°" d="M330.5 680.5l18.25-18.25Q367 644 367 592t-36.5-88.5Q294 467 242 467t-88.5 36.5Q117 540 117 592t36.5 88.5Q190 717 242 717t88.5-36.5M334 592q0 40-26 67t-66 27q-40 0-66-26.5T150 592q0-41 26-67.5t66-26.5q40 0 66 26.5t26 67.5z" horiz-adv-x="348" vert-adv-y="1000"/><glyph glyph-name="unib1" unicode="±" d="M5 44l7 34h302l-7-34H5m152 88l29 144H52l7 34h134l28 144h34l-28-144h134l-7-34H220l-29-144h-34z" horiz-adv-x="396" vert-adv-y="1000"/><glyph glyph-name="unib2" unicode="²" d="M65 285l5 25 150 233q26 41 35 60.5t9 42.5q0 44-40 44-44 0-55-57l-7-35h-29l7 35q10 48 34 67 20 17 53 17 30 0 48-18t18-51q0-30-9-51t-38-65L103 312h131l-5-27H65z" horiz-adv-x="276" vert-adv-y="1000"/><glyph glyph-name="unib3" unicode="³" d="M218 690q-44 0-55-57l-6-35h-29l6 35q10 48 34 67 20 17 53 17 34 0 51-20 13-15 13-49 0-11-8-48-10-50-24-66-9-11-28-21 30-14 30-51 0-16-8-59-15-80-43-103-25-20-60-20-37 0-54 22-13 18-13 43 0 10 2 24l7 35h29l-7-36q-2-10-2-22 0-39 40-39 23 0 39 14 20 17 33 82 9 44 9 59 0 17-11.5 27.5T185 500h-29l6 26h25q16 0 33 13 11 10 16 20.5t12 40.5q8 34 8 46 0 24-8.5 34T218 690z" horiz-adv-x="276" vert-adv-y="1000"/><glyph glyph-name="unib4" unicode="´" d="M201 581l88 126h44l-90-126h-42z" horiz-adv-x="315" vert-adv-y="1000"/><glyph glyph-name="unib5" unicode="µ" d="M-37-211l143 713h36L68 128q-6-29-6-43 0-31 17.5-46.5T116 23q33 0 59 25t36 80l75 374h36L222 0h-36l8 39q-12-17-29-30-22-17-57-17-40 0-63 27L-1-211h-36z" horiz-adv-x="333" vert-adv-y="1000"/><glyph glyph-name="unib6" unicode="¶" d="M135-211l105 525h-41Q76 314 76 442q0 26 10 74 23 113 62.5 154.5T262 712h248L326-211h-36l179 891H350L171-211h-36z" horiz-adv-x="480" vert-adv-y="1000"/><glyph glyph-name="unib7" unicode="·" d="M69 258l20 100h102l-20-100H69z" horiz-adv-x="238" vert-adv-y="1000"/><glyph glyph-name="unib8" unicode="¸" d="M19-162L91-36h35L61-162H19z" horiz-adv-x="316" vert-adv-y="1000"/><glyph glyph-name="unib9" unicode="¹" d="M131 285l76 385-77-53 8 40 81 55h26l-85-427h-29z" horiz-adv-x="276" vert-adv-y="1000"/><glyph glyph-name="uniba" unicode="º" d="M95 519q29 141 61 171 26 25 67 25 39 0 58-27 13-19 13-55 0-31-17-114-29-141-61-171-26-25-67-25-39 0-58 27-13 19-13 55 0 31 17 114m31 0q-17-82-17-114 0-54 43-54 25 0 43 18 26 26 51 150 17 82 17 114 0 54-43 54-25 0-43-18-26-26-51-150z" horiz-adv-x="266" vert-adv-y="1000"/><glyph glyph-name="unibb" unicode="»" d="M97 461l79-196L18 69l16 78 100 123-51 122 14 69m132 0l79-196L150 69l16 78 100 123-51 122 14 69z" horiz-adv-x="333" vert-adv-y="1000"/><glyph glyph-name="unibc" unicode="¼" d="M131 285l76 385-77-53 8 40 81 55h26l-85-427h-29M144 0l378 712h32L176 0h-32m243 75l7 27 184 325h31L425 102h92l24 121h29l-24-121h33l-6-27h-33L526 0h-30l15 75H387z" horiz-adv-x="654" vert-adv-y="1000"/><glyph glyph-name="unibd" unicode="½" d="M131 285l76 385-77-53 8 40 81 55h26l-85-427h-29M144 0l378 712h32L176 0h-32m242 0l5 25 150 233q26 41 35 60.5t9 42.5q0 44-40 44-44 0-55-57l-7-35h-29l7 35q10 48 34 67 20 17 53 17 30 0 48-18t18-51q0-30-9-51t-38-65L424 27h131l-5-27H386z" horiz-adv-x="654" vert-adv-y="1000"/><glyph glyph-name="unibe" unicode="¾" d="M218 690q-44 0-55-57l-6-35h-29l6 35q10 48 34 67 20 17 53 17 34 0 51-20 13-15 13-49 0-11-8-48-10-50-24-66-9-11-28-21 30-14 30-51 0-16-8-59-15-80-43-103-25-20-60-20-37 0-54 22-13 18-13 43 0 10 2 24l7 35h29l-7-36q-2-10-2-22 0-39 40-39 23 0 39 14 20 17 33 82 9 44 9 59 0 17-11.5 27.5T185 500h-29l6 26h25q16 0 33 13 11 10 16 20.5t12 40.5q8 34 8 46 0 24-8.5 34T218 690M144 0l378 712h32L176 0h-32m243 75l7 27 184 325h31L425 102h92l24 121h29l-24-121h33l-6-27h-33L526 0h-30l15 75H387z" horiz-adv-x="654" vert-adv-y="1000"/><glyph glyph-name="unibf" unicode="¿" d="M192 324l-19-95q-10-46-46-93L55 41Q27 3 16-53q-6-32-6-60 0-29 13-48 16-23 53-23 32 0 58 21 31 26 44 90h36q-16-80-54-112-37-31-86-31-56 0-81 35-19 27-19 65 0 24 7 63Q-5 13 31 62l72 95q26 34 35 77l18 90h36m40 178l-11-58h-54l11 58h54z" horiz-adv-x="333" vert-adv-y="1000"/><glyph glyph-name="unic0" unicode="À" d="M273 0h-36l1 215H78L-8 0h-38l285 712h36L273 0m-35 249l4 385L92 249h146m14 514l-40 126h39l37-126h-36z" horiz-adv-x="325" vert-adv-y="1000"/><glyph glyph-name="unic1" unicode="Á" d="M273 0h-36l1 215H78L-8 0h-38l285 712h36L273 0m-35 249l4 385L92 249h146m4 512l88 126h44l-90-126h-42z" horiz-adv-x="325" vert-adv-y="1000"/><glyph glyph-name="unic2" unicode="Â" d="M273 0h-36l1 215H78L-8 0h-38l285 712h36L273 0m-35 249l4 385L92 249h146m69 638l51-126h-36l-37 95-76-95h-38l101 126h35z" horiz-adv-x="325" vert-adv-y="1000"/><glyph glyph-name="unic3" unicode="Ã" d="M273 0h-36l1 215H78L-8 0h-38l285 712h36L273 0m-35 249l4 385L92 249h146m-51 534l-18 22q39 34 64 34 23 0 47-18 22-16 37-16 18 0 43 24l18-22q-39-34-64-34-23 0-47 18-22 16-37 16-18 0-43-24z" horiz-adv-x="325" vert-adv-y="1000"/><glyph glyph-name="unic4" unicode="Ä" d="M273 0h-36l1 215H78L-8 0h-38l285 712h36L273 0m-35 249l4 385L92 249h146m-50 535l10 50h46l-10-50h-46m116 0l10 50h46l-10-50h-46z" horiz-adv-x="325" vert-adv-y="1000"/><glyph glyph-name="unic5" unicode="Å" d="M273 0h-36l1 215H78L-8 0h-38l285 712h36L273 0m-35 249l4 385L92 249h146m-3.5 626.5l-8.25-8.25Q218 859 218 836t16.5-39.5Q251 780 274 780t39.5 16.5Q330 813 330 836t-16.5 39.5Q297 892 274 892t-39.5-16.5m-21-100l-12.75 12.75Q188 801 188 836t25.5 60.5Q239 922 274 922t60.5-25.5Q360 871 360 836t-25.5-60.5Q309 750 274 750t-60.5 25.5z" horiz-adv-x="325" vert-adv-y="1000"/><glyph glyph-name="unic6" unicode="Æ" d="M-47 0l392 712h242l-7-34H402l-60-302h153l-7-34H335L273 34h178l-6-34H229l43 215H111L-6 0h-41m177 249h149l86 432-235-432z" horiz-adv-x="542" vert-adv-y="1000"/><glyph glyph-name="unic7" unicode="Ç" d="M36 106q0 52 39 250 36 180 56.5 240t53.5 90q37 34 95 34 57 0 84-36 20-27 20-76 0-18-6-48h-37q6 26 6 48 0 78-69 78-41 0-68-25-28-27-45-78.5T113 356Q73 155 73 106q0-80 72-80 38 0 65 25 37 33 51 102h38q-18-91-69-132-37-29-89-29-50 0-77 29-28 31-28 85m9-268l72 126h35L87-162H45z" horiz-adv-x="358" vert-adv-y="1000"/><glyph glyph-name="unic8" unicode="È" d="M17 0l142 712h216l-7-34H190l-60-302h153l-7-34H123L62 34h177l-6-34H17m250 763l-40 126h39l37-126h-36z" horiz-adv-x="330" vert-adv-y="1000"/><glyph glyph-name="unic9" unicode="É" d="M17 0l142 712h216l-7-34H190l-60-302h153l-7-34H123L62 34h177l-6-34H17m240 761l88 126h44l-90-126h-42z" horiz-adv-x="330" vert-adv-y="1000"/><glyph glyph-name="unica" unicode="Ê" d="M17 0l142 712h216l-7-34H190l-60-302h153l-7-34H123L62 34h177l-6-34H17m305 887l51-126h-36l-37 95-76-95h-38l101 126h35z" horiz-adv-x="330" vert-adv-y="1000"/><glyph glyph-name="unicb" unicode="Ë" d="M17 0l142 712h216l-7-34H190l-60-302h153l-7-34H123L62 34h177l-6-34H17m186 784l10 50h46l-10-50h-46m116 0l10 50h46l-10-50h-46z" horiz-adv-x="330" vert-adv-y="1000"/><glyph glyph-name="unicc" unicode="Ì" d="M17 0l142 712h38L55 0H17m157 763l-40 126h39l37-126h-36z" horiz-adv-x="172" vert-adv-y="1000"/><glyph glyph-name="unicd" unicode="Í" d="M17 0l142 712h38L55 0H17m147 761l88 126h44l-90-126h-42z" horiz-adv-x="172" vert-adv-y="1000"/><glyph glyph-name="unice" unicode="Î" d="M17 0l142 712h38L55 0H17m212 887l51-126h-36l-37 95-76-95H93l101 126h35z" horiz-adv-x="172" vert-adv-y="1000"/><glyph glyph-name="unicf" unicode="Ï" d="M17 0l142 712h38L55 0H17m93 784l10 50h46l-10-50h-46m116 0l10 50h46l-10-50h-46z" horiz-adv-x="172" vert-adv-y="1000"/><glyph glyph-name="unid0" unicode="Ð" d="M40 0l68 343H59l6 32h50l67 337h124q55 0 81-34 24-32 24-77 0-50-39-245-36-181-55.5-238T262 31Q225 0 170 0H40m44 34h85q44 0 69 22 27 23 44.5 76T334 356q39 191 39 244 0 34-16 55-17 23-59 23h-85l-60-303h90l-6-32h-91L84 34z" horiz-adv-x="405" vert-adv-y="1000"/><glyph glyph-name="unid1" unicode="Ñ" d="M17 0l142 712h38l72-602 118 602h38L283 0h-38l-70 602L55 0H17m207 783l-18 22q39 34 64 34 23 0 47-18 22-16 37-16 18 0 43 24l18-22q-39-34-64-34-23 0-47 18-22 16-37 16-18 0-43-24z" horiz-adv-x="400" vert-adv-y="1000"/><glyph glyph-name="unid2" unicode="Ò" d="M75 356q37 187 56.5 244t55.5 89q35 31 90 31 58 0 85-35 24-30 24-74 0-57-39-255-37-187-56.5-244T235 23Q200-8 145-8 87-8 60 27q-24 30-24 74 0 57 39 255m38 0Q74 161 74 108q0-82 74-82 40 0 66 25 26 26 43.5 79.5T309 356q39 195 39 248 0 82-74 82-40 0-66-25-26-26-43.5-79.5T113 356m165 407l-40 126h39l37-126h-36z" horiz-adv-x="380" vert-adv-y="1000"/><glyph glyph-name="unid3" unicode="Ó" d="M75 356q37 187 56.5 244t55.5 89q35 31 90 31 58 0 85-35 24-30 24-74 0-57-39-255-37-187-56.5-244T235 23Q200-8 145-8 87-8 60 27q-24 30-24 74 0 57 39 255m38 0Q74 161 74 108q0-82 74-82 40 0 66 25 26 26 43.5 79.5T309 356q39 195 39 248 0 82-74 82-40 0-66-25-26-26-43.5-79.5T113 356m155 405l88 126h44l-90-126h-42z" horiz-adv-x="380" vert-adv-y="1000"/><glyph glyph-name="unid4" unicode="Ô" d="M75 356q37 187 56.5 244t55.5 89q35 31 90 31 58 0 85-35 24-30 24-74 0-57-39-255-37-187-56.5-244T235 23Q200-8 145-8 87-8 60 27q-24 30-24 74 0 57 39 255m38 0Q74 161 74 108q0-82 74-82 40 0 66 25 26 26 43.5 79.5T309 356q39 195 39 248 0 82-74 82-40 0-66-25-26-26-43.5-79.5T113 356m220 531l51-126h-36l-37 95-76-95h-38l101 126h35z" horiz-adv-x="380" vert-adv-y="1000"/><glyph glyph-name="unid5" unicode="Õ" d="M75 356q37 187 56.5 244t55.5 89q35 31 90 31 58 0 85-35 24-30 24-74 0-57-39-255-37-187-56.5-244T235 23Q200-8 145-8 87-8 60 27q-24 30-24 74 0 57 39 255m38 0Q74 161 74 108q0-82 74-82 40 0 66 25 26 26 43.5 79.5T309 356q39 195 39 248 0 82-74 82-40 0-66-25-26-26-43.5-79.5T113 356m100 427l-18 22q39 34 64 34 23 0 47-18 22-16 37-16 18 0 43 24l18-22q-39-34-64-34-23 0-47 18-22 16-37 16-18 0-43-24z" horiz-adv-x="380" vert-adv-y="1000"/><glyph glyph-name="unid6" unicode="Ö" d="M75 356q37 187 56.5 244t55.5 89q35 31 90 31 58 0 85-35 24-30 24-74 0-57-39-255-37-187-56.5-244T235 23Q200-8 145-8 87-8 60 27q-24 30-24 74 0 57 39 255m38 0Q74 161 74 108q0-82 74-82 40 0 66 25 26 26 43.5 79.5T309 356q39 195 39 248 0 82-74 82-40 0-66-25-26-26-43.5-79.5T113 356m101 428l10 50h46l-10-50h-46m116 0l10 50h46l-10-50h-46z" horiz-adv-x="380" vert-adv-y="1000"/><glyph glyph-name="unid7" unicode="×" d="M45 150l131 116-85 116 26 23 85-116 131 116 21-29-131-116 85-116-26-23-85 116L66 121l-21 29z" horiz-adv-x="396" vert-adv-y="1000"/><glyph glyph-name="unid8" unicode="Ø" d="M75 356q37 187 56.5 244t55.5 89q35 31 90 31 46 0 74-23l28 59h37l-42-89q12-24 12-56 0-57-39-255-37-187-56.5-244T235 23Q200-8 145-8 97-8 70 16L43-44H6l43 88q-13 22-13 57 0 57 39 255m273 248v12L87 53q18-27 61-27 40 0 66 25 26 26 43.5 79.5T309 356q39 195 39 248M113 356Q74 161 74 108q0-8 1-12l259 564q-18 26-60 26-40 0-66-25-26-26-43.5-79.5T113 356z" horiz-adv-x="380" vert-adv-y="1000"/><glyph glyph-name="unid9" unicode="Ù" d="M40 152l112 560h38L76 144q-4-20-4-39 0-77 70-77 37 0 68.5 28t41.5 78l116 578h38L290 133q-13-68-57-106-39-35-98-35-53 0-81 39-20 26-20 69 0 25 6 52m234 611l-40 126h39l37-126h-36z" horiz-adv-x="374" vert-adv-y="1000"/><glyph glyph-name="unida" unicode="Ú" d="M40 152l112 560h38L76 144q-4-20-4-39 0-77 70-77 37 0 68.5 28t41.5 78l116 578h38L290 133q-13-68-57-106-39-35-98-35-53 0-81 39-20 26-20 69 0 25 6 52m224 609l88 126h44l-90-126h-42z" horiz-adv-x="374" vert-adv-y="1000"/><glyph glyph-name="unidb" unicode="Û" d="M40 152l112 560h38L76 144q-4-20-4-39 0-77 70-77 37 0 68.5 28t41.5 78l116 578h38L290 133q-13-68-57-106-39-35-98-35-53 0-81 39-20 26-20 69 0 25 6 52m289 735l51-126h-36l-37 95-76-95h-38l101 126h35z" horiz-adv-x="374" vert-adv-y="1000"/><glyph glyph-name="unidc" unicode="Ü" d="M40 152l112 560h38L76 144q-4-20-4-39 0-77 70-77 37 0 68.5 28t41.5 78l116 578h38L290 133q-13-68-57-106-39-35-98-35-53 0-81 39-20 26-20 69 0 25 6 52m170 632l10 50h46l-10-50h-46m116 0l10 50h46l-10-50h-46z" horiz-adv-x="374" vert-adv-y="1000"/><glyph glyph-name="unidd" unicode="Ý" d="M66 0l62 310-32 402h39l23-345 158 345h43L164 299 104 0H66m150 761l88 126h44l-90-126h-42z" horiz-adv-x="271" vert-adv-y="1000"/><glyph glyph-name="unide" unicode="Þ" d="M88 167L55 0H17l142 712h38l-32-161h73q57 0 85-28t28-88q0-36-8-76-22-112-62.5-152T174 167H88m7 34h78q48 0 80.5 31.5T305 359q8 40 8 76 0 42-18.5 62T234 517h-76L95 201z" horiz-adv-x="366" vert-adv-y="1000"/><glyph glyph-name="unidf" unicode="ß" d="M11 0l118 595q13 65 50 97 31 28 78 28 50 0 74-34 18-25 18-68 0-35-12.5-77T306 474q-15-21-40-35 37-22 37-83 0-28-22-133-20-102-33-137.5T211 28Q178 0 118 0l6 32q39 0 64 23 18 17 30.5 52.5T247 228q19 95 19 128 0 66-55 66h-9l6 32h7q25 0 47 20 23 22 36.5 64.5T312 618q0 70-57 70-35 0-57.5-25T166 595L47 0H11z" horiz-adv-x="333" vert-adv-y="1000"/><glyph glyph-name="unie0" unicode="à" d="M26 24Q9 48 9 91q0 23 5 45 15 78 61 117 33 29 90 29h62l20 99q4 20 4 35 0 62-57 62-29 0-51-19-27-23-39-81H68q15 73 49 103 33 29 81 29 51 0 72-29 17-23 17-64 0-15-4-35L207 0h-36l8 42q-12-17-30-31Q125-8 90-8 49-8 26 24m19 67q0-67 51-67 39 0 65.5 31.5T196 126l25 126h-54q-42 0-71-25-24-21-37.5-59T45 91m158 492l-40 126h39l37-126h-36z" horiz-adv-x="313" vert-adv-y="1000"/><glyph glyph-name="unie1" unicode="á" d="M26 24Q9 48 9 91q0 23 5 45 15 78 61 117 33 29 90 29h62l20 99q4 20 4 35 0 62-57 62-29 0-51-19-27-23-39-81H68q15 73 49 103 33 29 81 29 51 0 72-29 17-23 17-64 0-15-4-35L207 0h-36l8 42q-12-17-30-31Q125-8 90-8 49-8 26 24m19 67q0-67 51-67 39 0 65.5 31.5T196 126l25 126h-54q-42 0-71-25-24-21-37.5-59T45 91m148 490l88 126h44l-90-126h-42z" horiz-adv-x="313" vert-adv-y="1000"/><glyph glyph-name="unie2" unicode="â" d="M26 24Q9 48 9 91q0 23 5 45 15 78 61 117 33 29 90 29h62l20 99q4 20 4 35 0 62-57 62-29 0-51-19-27-23-39-81H68q15 73 49 103 33 29 81 29 51 0 72-29 17-23 17-64 0-15-4-35L207 0h-36l8 42q-12-17-30-31Q125-8 90-8 49-8 26 24m19 67q0-67 51-67 39 0 65.5 31.5T196 126l25 126h-54q-42 0-71-25-24-21-37.5-59T45 91m213 616l51-126h-36l-37 95-76-95h-38l101 126h35z" horiz-adv-x="313" vert-adv-y="1000"/><glyph glyph-name="unie3" unicode="ã" d="M26 24Q9 48 9 91q0 23 5 45 15 78 61 117 33 29 90 29h62l20 99q4 20 4 35 0 62-57 62-29 0-51-19-27-23-39-81H68q15 73 49 103 33 29 81 29 51 0 72-29 17-23 17-64 0-15-4-35L207 0h-36l8 42q-12-17-30-31Q125-8 90-8 49-8 26 24m19 67q0-67 51-67 39 0 65.5 31.5T196 126l25 126h-54q-42 0-71-25-24-21-37.5-59T45 91m93 512l-18 22q39 34 64 34 23 0 47-18 22-16 37-16 18 0 43 24l18-22q-39-34-64-34-23 0-47 18-22 16-37 16-18 0-43-24z" horiz-adv-x="313" vert-adv-y="1000"/><glyph glyph-name="unie4" unicode="ä" d="M26 24Q9 48 9 91q0 23 5 45 15 78 61 117 33 29 90 29h62l20 99q4 20 4 35 0 62-57 62-29 0-51-19-27-23-39-81H68q15 73 49 103 33 29 81 29 51 0 72-29 17-23 17-64 0-15-4-35L207 0h-36l8 42q-12-17-30-31Q125-8 90-8 49-8 26 24m19 67q0-67 51-67 39 0 65.5 31.5T196 126l25 126h-54q-42 0-71-25-24-21-37.5-59T45 91m94 513l10 50h46l-10-50h-46m116 0l10 50h46l-10-50h-46z" horiz-adv-x="313" vert-adv-y="1000"/><glyph glyph-name="unie5" unicode="å" d="M26 24Q9 48 9 91q0 23 5 45 15 78 61 117 33 29 90 29h62l20 99q4 20 4 35 0 62-57 62-29 0-51-19-27-23-39-81H68q15 73 49 103 33 29 81 29 51 0 72-29 17-23 17-64 0-15-4-35L207 0h-36l8 42q-12-17-30-31Q125-8 90-8 49-8 26 24m19 67q0-67 51-67 39 0 65.5 31.5T196 126l25 126h-54q-42 0-71-25-24-21-37.5-59T45 91m147.5 614.5l-8.25-8.25Q176 689 176 666t16.5-39.5Q209 610 232 610t39.5 16.5Q288 643 288 666t-16.5 39.5Q255 722 232 722t-39.5-16.5m-21-100l-12.75 12.75Q146 631 146 666t25.5 60.5Q197 752 232 752t60.5-25.5Q318 701 318 666t-25.5-60.5Q267 580 232 580t-60.5 25.5z" horiz-adv-x="313" vert-adv-y="1000"/><glyph glyph-name="unie6" unicode="æ" d="M14 136q15 78 61 117 33 29 90 29h62l20 99q4 20 4 35 0 62-57 62-29 0-51-19-27-23-39-81H68q15 73 49 103 33 29 81 29 66 0 84-54 34 54 101 54 50 0 72-35 15-23 15-64 0-45-23-160H257q-24-120-24-158 0-32 15-51 15-18 42-18 33 0 56 20 28 25 40 83h35q-15-74-53-107-31-28-81-28-49 0-70 30-14 19-17 44-20-36-40-50Q126-8 90-8 49-8 26 24 9 48 9 91q0 23 5 45m31-45q0-67 51-67 39 0 65.5 31.5T196 126l25 126h-54q-42 0-71-25-24-21-37.5-59T45 91m218 192h154q18 87 18 127 0 68-56 68-31 0-54-22-20-19-32.5-55T263 283z" horiz-adv-x="487" vert-adv-y="1000"/><glyph glyph-name="unie7" unicode="ç" d="M44 251q37 187 80 227 34 32 83 32 51 0 72-29 17-24 17-59 0-20-6-47h-34q5 25 5 43 0 29-13 43-15 17-44 17-30 0-56-23-21-19-35-63T80 251Q56 129 56 92q0-41 21-57 14-11 38-11 32 0 53 20 28 25 40 83h35q-16-75-49-104-34-31-83-31-38 0-61 19-29 24-29 80 0 45 23 160M19-162L91-36h35L61-162H19z" horiz-adv-x="302" vert-adv-y="1000"/><glyph glyph-name="unie8" unicode="è" d="M36 29Q22 51 22 91q0 45 23 160 37 188 79 227 33 32 83 32t72-35q15-23 15-64 0-45-23-160H81Q57 131 57 93q0-32 15-51 15-18 42-18 33 0 56 20 28 25 40 83h35q-15-74-53-107-31-28-81-28-51 0-75 37m51 254h154q18 87 18 127 0 68-56 68-31 0-54-22-20-19-32.5-55T87 283m124 300l-40 126h39l37-126h-36z" horiz-adv-x="311" vert-adv-y="1000"/><glyph glyph-name="unie9" unicode="é" d="M36 29Q22 51 22 91q0 45 23 160 37 188 79 227 33 32 83 32t72-35q15-23 15-64 0-45-23-160H81Q57 131 57 93q0-32 15-51 15-18 42-18 33 0 56 20 28 25 40 83h35q-15-74-53-107-31-28-81-28-51 0-75 37m51 254h154q18 87 18 127 0 68-56 68-31 0-54-22-20-19-32.5-55T87 283m114 298l88 126h44l-90-126h-42z" horiz-adv-x="311" vert-adv-y="1000"/><glyph glyph-name="uniea" unicode="ê" d="M36 29Q22 51 22 91q0 45 23 160 37 188 79 227 33 32 83 32t72-35q15-23 15-64 0-45-23-160H81Q57 131 57 93q0-32 15-51 15-18 42-18 33 0 56 20 28 25 40 83h35q-15-74-53-107-31-28-81-28-51 0-75 37m51 254h154q18 87 18 127 0 68-56 68-31 0-54-22-20-19-32.5-55T87 283m179 424l51-126h-36l-37 95-76-95h-38l101 126h35z" horiz-adv-x="311" vert-adv-y="1000"/><glyph glyph-name="unieb" unicode="ë" d="M36 29Q22 51 22 91q0 45 23 160 37 188 79 227 33 32 83 32t72-35q15-23 15-64 0-45-23-160H81Q57 131 57 93q0-32 15-51 15-18 42-18 33 0 56 20 28 25 40 83h35q-15-74-53-107-31-28-81-28-51 0-75 37m51 254h154q18 87 18 127 0 68-56 68-31 0-54-22-20-19-32.5-55T87 283m60 321l10 50h46l-10-50h-46m116 0l10 50h46l-10-50h-46z" horiz-adv-x="311" vert-adv-y="1000"/><glyph glyph-name="uniec" unicode="ì" d="M11 0l100 502h36L47 0H11m122 583L93 709h39l37-126h-36z" horiz-adv-x="158" vert-adv-y="1000"/><glyph glyph-name="unied" unicode="í" d="M11 0l100 502h36L47 0H11m112 581l88 126h44l-90-126h-42z" horiz-adv-x="158" vert-adv-y="1000"/><glyph glyph-name="uniee" unicode="î" d="M11 0l100 502h36L47 0H11m177 707l51-126h-36l-37 95-76-95H52l101 126h35z" horiz-adv-x="158" vert-adv-y="1000"/><glyph glyph-name="unief" unicode="ï" d="M11 0l100 502h36L47 0H11m58 604l10 50h46l-10-50H69m116 0l10 50h46l-10-50h-46z" horiz-adv-x="158" vert-adv-y="1000"/><glyph glyph-name="unif0" unicode="ð" d="M23 94q0 47 22 157t39 156.5q17 46.5 42 70.5 33 31 80 31 31 0 50-16l-13 94h-80l6 30h70l-16 95h33l15-95h69l-6-30h-58l15-121q3-21 3-43 0-57-23-172-22-111-39-157.5T190 23Q157-8 110-8 59-8 37 27 23 49 23 94m58 157Q58 136 58 94q0-32 11-49 14-21 43-21 31 0 55 22 20 20 34 62t34 143q23 115 23 156 0 33-11 49-14 21-43 21-31 0-55-22-21-20-35-63T81 251z" horiz-adv-x="316" vert-adv-y="1000"/><glyph glyph-name="unif1" unicode="ñ" d="M11 0l100 502h36l-8-39q12 17 29 30 22 17 57 17 45 0 67-35 15-23 15-56 0-17-6-45L227 0h-36l74 374q5 22 5 44 0 25-14 42.5T213 478q-31 0-56-25t-36-79L47 0H11m147 603l-18 22q39 34 64 34 23 0 47-18 22-16 37-16 18 0 43 24l18-22q-39-34-64-34-23 0-47 18-22 16-37 16-18 0-43-24z" horiz-adv-x="333" vert-adv-y="1000"/><glyph glyph-name="unif2" unicode="ò" d="M81 251Q58 136 58 94q0-32 11-49 14-21 43-21 31 0 55 22 21 20 35 63t33 142q23 115 23 157 0 32-11 49-14 21-43 21-31 0-55-22-21-20-35-63T81 251m-36 0q22 111 39 157.5t42 70.5q33 31 80 31 51 0 73-35 14-22 14-67 0-47-22-157-22-111-39-157.5T190 23Q157-8 110-8 59-8 37 27 23 49 23 94q0 47 22 157m166 332l-40 126h39l37-126h-36z" horiz-adv-x="316" vert-adv-y="1000"/><glyph glyph-name="unif3" unicode="ó" d="M81 251Q58 136 58 94q0-32 11-49 14-21 43-21 31 0 55 22 21 20 35 63t33 142q23 115 23 157 0 32-11 49-14 21-43 21-31 0-55-22-21-20-35-63T81 251m-36 0q22 111 39 157.5t42 70.5q33 31 80 31 51 0 73-35 14-22 14-67 0-47-22-157-22-111-39-157.5T190 23Q157-8 110-8 59-8 37 27 23 49 23 94q0 47 22 157m156 330l88 126h44l-90-126h-42z" horiz-adv-x="316" vert-adv-y="1000"/><glyph glyph-name="unif4" unicode="ô" d="M81 251Q58 136 58 94q0-32 11-49 14-21 43-21 31 0 55 22 21 20 35 63t33 142q23 115 23 157 0 32-11 49-14 21-43 21-31 0-55-22-21-20-35-63T81 251m-36 0q22 111 39 157.5t42 70.5q33 31 80 31 51 0 73-35 14-22 14-67 0-47-22-157-22-111-39-157.5T190 23Q157-8 110-8 59-8 37 27 23 49 23 94q0 47 22 157m221 456l51-126h-36l-37 95-76-95h-38l101 126h35z" horiz-adv-x="316" vert-adv-y="1000"/><glyph glyph-name="unif5" unicode="õ" d="M81 251Q58 136 58 94q0-32 11-49 14-21 43-21 31 0 55 22 21 20 35 63t33 142q23 115 23 157 0 32-11 49-14 21-43 21-31 0-55-22-21-20-35-63T81 251m-36 0q22 111 39 157.5t42 70.5q33 31 80 31 51 0 73-35 14-22 14-67 0-47-22-157-22-111-39-157.5T190 23Q157-8 110-8 59-8 37 27 23 49 23 94q0 47 22 157m101 352l-18 22q39 34 64 34 23 0 47-18 22-16 37-16 18 0 43 24l18-22q-39-34-64-34-23 0-47 18-22 16-37 16-18 0-43-24z" horiz-adv-x="316" vert-adv-y="1000"/><glyph glyph-name="unif6" unicode="ö" d="M81 251Q58 136 58 94q0-32 11-49 14-21 43-21 31 0 55 22 21 20 35 63t33 142q23 115 23 157 0 32-11 49-14 21-43 21-31 0-55-22-21-20-35-63T81 251m-36 0q22 111 39 157.5t42 70.5q33 31 80 31 51 0 73-35 14-22 14-67 0-47-22-157-22-111-39-157.5T190 23Q157-8 110-8 59-8 37 27 23 49 23 94q0 47 22 157m102 353l10 50h46l-10-50h-46m116 0l10 50h46l-10-50h-46z" horiz-adv-x="316" vert-adv-y="1000"/><glyph glyph-name="unif7" unicode="÷" d="M144 114l10 52h54l-10-52h-54M48 256l7 34h302l-7-34H48m149 124l10 52h54l-10-52h-54z" horiz-adv-x="396" vert-adv-y="1000"/><glyph glyph-name="unif8" unicode="ø" d="M296 546h35l-45-87q7-14 7-51 0-47-22-157-22-111-39-157.5T190 23Q157-8 110-8 71-8 48 13L20-44h-35l45 87q-7 18-7 51 0 47 22 157 22 111 39 157.5t42 70.5q33 31 80 31 40 0 61-21l29 57m-61-295q23 115 23 157v5L68 47q12-23 44-23 31 0 55 22 21 20 35 63t33 142m-154 0Q58 136 58 91l190 364q-12 23-44 23-31 0-55-22-21-20-35-63T81 251z" horiz-adv-x="316" vert-adv-y="1000"/><glyph glyph-name="unif9" unicode="ù" d="M322 502L222 0h-36l8 39q-12-17-29-30-22-17-57-17-45 0-67 35-15 23-15 56 0 17 6 45l74 374h36L68 128q-5-22-5-44 0-25 14-42.5T120 24q32 0 56.5 25t35.5 79l74 374h36m-107 81l-40 126h39l37-126h-36z" horiz-adv-x="333" vert-adv-y="1000"/><glyph glyph-name="unifa" unicode="ú" d="M322 502L222 0h-36l8 39q-12-17-29-30-22-17-57-17-45 0-67 35-15 23-15 56 0 17 6 45l74 374h36L68 128q-5-22-5-44 0-25 14-42.5T120 24q32 0 56.5 25t35.5 79l74 374h36m-117 79l88 126h44l-90-126h-42z" horiz-adv-x="333" vert-adv-y="1000"/><glyph glyph-name="unifb" unicode="û" d="M322 502L222 0h-36l8 39q-12-17-29-30-22-17-57-17-45 0-67 35-15 23-15 56 0 17 6 45l74 374h36L68 128q-5-22-5-44 0-25 14-42.5T120 24q32 0 56.5 25t35.5 79l74 374h36m-52 205l51-126h-36l-37 95-76-95h-38l101 126h35z" horiz-adv-x="333" vert-adv-y="1000"/><glyph glyph-name="unifc" unicode="ü" d="M322 502L222 0h-36l8 39q-12-17-29-30-22-17-57-17-45 0-67 35-15 23-15 56 0 17 6 45l74 374h36L68 128q-5-22-5-44 0-25 14-42.5T120 24q32 0 56.5 25t35.5 79l74 374h36M151 604l10 50h46l-10-50h-46m116 0l10 50h46l-10-50h-46z" horiz-adv-x="333" vert-adv-y="1000"/><glyph glyph-name="unifd" unicode="ý" d="M-84-178q70 0 100 71L63 2l-9 500h36l3-436 177 436h39L52-110q-24-56-57-78t-86-22l7 32m259 759l88 126h44l-90-126h-42z" horiz-adv-x="262" vert-adv-y="1000"/><glyph glyph-name="unife" unicode="þ" d="M-31-210l184 922h36l-49-245q9 13 28 26 25 17 55 17 43 0 67-34 16-24 16-65 0-43-23-160-21-107-37-155t-42-72Q169-8 127-8 91-8 73 10 60 23 55 39L5-210h-36m153 588L72 124q-3-15-3-34 0-30 12-46 17-20 44-20 28 0 54 23 20 18 34.5 64T247 251q23 115 23 159 0 29-10 45-16 23-44 23t-53-20q-30-27-41-80z" horiz-adv-x="327" vert-adv-y="1000"/><glyph glyph-name="uniff" unicode="ÿ" d="M-84-178q70 0 100 71L63 2l-9 500h36l3-436 177 436h39L52-110q-24-56-57-78t-86-22l7 32m201 782l10 50h46l-10-50h-46m116 0l10 50h46l-10-50h-46z" horiz-adv-x="262" vert-adv-y="1000"/><glyph glyph-name="uni0100" unicode="Ā" d="M273 0h-36l1 215H78L-8 0h-38l285 712h36L273 0m-35 249l4 385L92 249h146m-60 545l7 34h186l-7-34H178z" horiz-adv-x="325" vert-adv-y="1000"/><glyph glyph-name="uni0101" unicode="ā" d="M26 24Q9 48 9 91q0 23 5 45 15 78 61 117 33 29 90 29h62l20 99q4 20 4 35 0 62-57 62-29 0-51-19-27-23-39-81H68q15 73 49 103 33 29 81 29 51 0 72-29 17-23 17-64 0-15-4-35L207 0h-36l8 42q-12-17-30-31Q125-8 90-8 49-8 26 24m19 67q0-67 51-67 39 0 65.5 31.5T196 126l25 126h-54q-42 0-71-25-24-21-37.5-59T45 91m84 523l7 34h186l-7-34H129z" horiz-adv-x="313" vert-adv-y="1000"/><glyph glyph-name="uni0102" unicode="Ă" d="M273 0h-36l1 215H78L-8 0h-38l285 712h36L273 0m-35 249l4 385L92 249h146m140 603q-15-52-42-74.5T264 755q-39 0-59.5 21.5T184 834q0 6 1 18h32v-10q0-55 51-55 57 0 77 65h33z" horiz-adv-x="325" vert-adv-y="1000"/><glyph glyph-name="uni0103" unicode="ă" d="M26 24Q9 48 9 91q0 23 5 45 15 78 61 117 33 29 90 29h62l20 99q4 20 4 35 0 62-57 62-29 0-51-19-27-23-39-81H68q15 73 49 103 33 29 81 29 51 0 72-29 17-23 17-64 0-15-4-35L207 0h-36l8 42q-12-17-30-31Q125-8 90-8 49-8 26 24m19 67q0-67 51-67 39 0 65.5 31.5T196 126l25 126h-54q-42 0-71-25-24-21-37.5-59T45 91m284 581q-15-52-42-74.5T215 575q-39 0-59.5 21.5T135 654q0 6 1 18h32v-10q0-55 51-55 57 0 77 65h33z" horiz-adv-x="313" vert-adv-y="1000"/><glyph glyph-name="uni0104" unicode="Ą" d="M273 0h-36l1 215H78L-8 0h-38l285 712h36L273 0m-35 249l4 385L92 249h146m-85-411l72 126h35l-65-126h-42z" horiz-adv-x="325" vert-adv-y="1000"/><glyph glyph-name="uni0105" unicode="ą" d="M26 24Q9 48 9 91q0 23 5 45 15 78 61 117 33 29 90 29h62l20 99q4 20 4 35 0 62-57 62-29 0-51-19-27-23-39-81H68q15 73 49 103 33 29 81 29 51 0 72-29 17-23 17-64 0-15-4-35L207 0h-36l8 42q-12-17-30-31Q125-8 90-8 49-8 26 24m19 67q0-67 51-67 39 0 65.5 31.5T196 126l25 126h-54q-42 0-71-25-24-21-37.5-59T45 91m49-253l72 126h35l-65-126H94z" horiz-adv-x="313" vert-adv-y="1000"/><glyph glyph-name="uni0106" unicode="Ć" d="M36 106q0 52 39 250 36 180 56.5 240t53.5 90q37 34 95 34 57 0 84-36 20-27 20-76 0-18-6-48h-37q6 26 6 48 0 78-69 78-41 0-68-25-28-27-45-78.5T113 356Q73 155 73 106q0-80 72-80 38 0 65 25 37 33 51 102h38q-18-91-69-132-37-29-89-29-50 0-77 29-28 31-28 85m232 655l88 126h44l-90-126h-42z" horiz-adv-x="358" vert-adv-y="1000"/><glyph glyph-name="uni0107" unicode="ć" d="M44 251q37 187 80 227 34 32 83 32 51 0 72-29 17-24 17-59 0-20-6-47h-34q5 25 5 43 0 29-13 43-15 17-44 17-30 0-56-23-21-19-35-63T80 251Q56 129 56 92q0-41 21-57 14-11 38-11 32 0 53 20 28 25 40 83h35q-16-75-49-104-34-31-83-31-38 0-61 19-29 24-29 80 0 45 23 160m157 330l88 126h44l-90-126h-42z" horiz-adv-x="302" vert-adv-y="1000"/><glyph glyph-name="uni0108" unicode="Ĉ" d="M36 106q0 52 39 250 36 180 56.5 240t53.5 90q37 34 95 34 57 0 84-36 20-27 20-76 0-18-6-48h-37q6 26 6 48 0 78-69 78-41 0-68-25-28-27-45-78.5T113 356Q73 155 73 106q0-80 72-80 38 0 65 25 37 33 51 102h38q-18-91-69-132-37-29-89-29-50 0-77 29-28 31-28 85m297 781l51-126h-36l-37 95-76-95h-38l101 126h35z" horiz-adv-x="358" vert-adv-y="1000"/><glyph glyph-name="uni0109" unicode="ĉ" d="M44 251q37 187 80 227 34 32 83 32 51 0 72-29 17-24 17-59 0-20-6-47h-34q5 25 5 43 0 29-13 43-15 17-44 17-30 0-56-23-21-19-35-63T80 251Q56 129 56 92q0-41 21-57 14-11 38-11 32 0 53 20 28 25 40 83h35q-16-75-49-104-34-31-83-31-38 0-61 19-29 24-29 80 0 45 23 160m222 456l51-126h-36l-37 95-76-95h-38l101 126h35z" horiz-adv-x="302" vert-adv-y="1000"/><glyph glyph-name="uni010A" unicode="Ċ" d="M36 106q0 52 39 250 36 180 56.5 240t53.5 90q37 34 95 34 57 0 84-36 20-27 20-76 0-18-6-48h-37q6 26 6 48 0 78-69 78-41 0-68-25-28-27-45-78.5T113 356Q73 155 73 106q0-80 72-80 38 0 65 25 37 33 51 102h38q-18-91-69-132-37-29-89-29-50 0-77 29-28 31-28 85m237 683l10 50h46l-10-50h-46z" horiz-adv-x="358" vert-adv-y="1000"/><glyph glyph-name="uni010B" unicode="ċ" d="M44 251q37 187 80 227 34 32 83 32 51 0 72-29 17-24 17-59 0-20-6-47h-34q5 25 5 43 0 29-13 43-15 17-44 17-30 0-56-23-21-19-35-63T80 251Q56 129 56 92q0-41 21-57 14-11 38-11 32 0 53 20 28 25 40 83h35q-16-75-49-104-34-31-83-31-38 0-61 19-29 24-29 80 0 45 23 160m162 358l10 50h46l-10-50h-46z" horiz-adv-x="302" vert-adv-y="1000"/><glyph glyph-name="uni010C" unicode="Č" d="M36 106q0 52 39 250 36 180 56.5 240t53.5 90q37 34 95 34 57 0 84-36 20-27 20-76 0-18-6-48h-37q6 26 6 48 0 78-69 78-41 0-68-25-28-27-45-78.5T113 356Q73 155 73 106q0-80 72-80 38 0 65 25 37 33 51 102h38q-18-91-69-132-37-29-89-29-50 0-77 29-28 31-28 85m236 646l-51 126h36l37-95 76 95h38L307 752h-35z" horiz-adv-x="358" vert-adv-y="1000"/><glyph glyph-name="uni010D" unicode="č" d="M44 251q37 187 80 227 34 32 83 32 51 0 72-29 17-24 17-59 0-20-6-47h-34q5 25 5 43 0 29-13 43-15 17-44 17-30 0-56-23-21-19-35-63T80 251Q56 129 56 92q0-41 21-57 14-11 38-11 32 0 53 20 28 25 40 83h35q-16-75-49-104-34-31-83-31-38 0-61 19-29 24-29 80 0 45 23 160m161 321l-51 126h36l37-95 76 95h38L240 572h-35z" horiz-adv-x="302" vert-adv-y="1000"/><glyph glyph-name="uni010E" unicode="Ď" d="M61 34h85q44 0 69 22 27 23 44.5 76T311 356q39 191 39 244 0 34-16 55-17 23-59 23h-85L61 34M17 0l142 712h124q55 0 81-34 24-32 24-77 0-50-39-245-36-181-55.5-238T239 31Q202 0 147 0H17m242 752l-51 126h36l37-95 76 95h38L294 752h-35z" horiz-adv-x="382" vert-adv-y="1000"/><glyph glyph-name="uni010F" unicode="ď" d="M216 0h-36l7 35q-11-15-28-27-23-16-55-16-43 0-67 34-16 24-16 65 0 45 23 160 22 108 37.5 155.5T123 478q35 32 77 32 35 0 54-19 14-14 18-28l50 249h36L216 0M80 251Q57 136 57 92q0-29 10-45 16-23 44-23t53 20q30 27 41 80l50 254q3 20 3 34 0 31-14 48-15 18-42 18-28 0-54-23-21-18-35-62.5T80 251m297 335l44 126h40l-51-126h-33z" horiz-adv-x="327" vert-adv-y="1000"/><glyph glyph-name="uni0110" unicode="Đ" d="M40 0l68 343H59l6 32h50l67 337h124q55 0 81-34 24-32 24-77 0-50-39-245-36-181-55.5-238T262 31Q225 0 170 0H40m44 34h85q44 0 69 22 27 23 44.5 76T334 356q39 191 39 244 0 34-16 55-17 23-59 23h-85l-60-303h90l-6-32h-91L84 34z" horiz-adv-x="405" vert-adv-y="1000"/><glyph glyph-name="uni0111" unicode="đ" d="M216 0h-36l7 35q-11-15-28-27-23-16-55-16-43 0-67 34-16 24-16 65 0 45 23 160 22 108 37.5 155.5T123 478q35 32 77 32 35 0 54-19 14-14 18-28l25 125h-85l6 30h85l19 94h36l-19-94h56l-6-30h-56L216 0M80 251Q57 136 57 92q0-29 10-45 16-23 44-23t53 20q30 27 41 80l50 254q3 20 3 34 0 31-14 48-15 18-42 18-28 0-54-23-21-18-35-62.5T80 251z" horiz-adv-x="344" vert-adv-y="1000"/><glyph glyph-name="uni0112" unicode="Ē" d="M17 0l142 712h216l-7-34H190l-60-302h153l-7-34H123L62 34h177l-6-34H17m176 794l7 34h186l-7-34H193z" horiz-adv-x="330" vert-adv-y="1000"/><glyph glyph-name="uni0113" unicode="ē" d="M36 29Q22 51 22 91q0 45 23 160 37 188 79 227 33 32 83 32t72-35q15-23 15-64 0-45-23-160H81Q57 131 57 93q0-32 15-51 15-18 42-18 33 0 56 20 28 25 40 83h35q-15-74-53-107-31-28-81-28-51 0-75 37m51 254h154q18 87 18 127 0 68-56 68-31 0-54-22-20-19-32.5-55T87 283m50 331l7 34h186l-7-34H137z" horiz-adv-x="311" vert-adv-y="1000"/><glyph glyph-name="uni0114" unicode="Ĕ" d="M17 0l142 712h216l-7-34H190l-60-302h153l-7-34H123L62 34h177l-6-34H17m376 852q-15-52-42-74.5T279 755q-39 0-59.5 21.5T199 834q0 6 1 18h32v-10q0-55 51-55 57 0 77 65h33z" horiz-adv-x="330" vert-adv-y="1000"/><glyph glyph-name="uni0115" unicode="ĕ" d="M36 29Q22 51 22 91q0 45 23 160 37 188 79 227 33 32 83 32t72-35q15-23 15-64 0-45-23-160H81Q57 131 57 93q0-32 15-51 15-18 42-18 33 0 56 20 28 25 40 83h35q-15-74-53-107-31-28-81-28-51 0-75 37m51 254h154q18 87 18 127 0 68-56 68-31 0-54-22-20-19-32.5-55T87 283m250 389q-15-52-42-74.5T223 575q-39 0-59.5 21.5T143 654q0 6 1 18h32v-10q0-55 51-55 57 0 77 65h33z" horiz-adv-x="311" vert-adv-y="1000"/><glyph glyph-name="uni0116" unicode="Ė" d="M17 0l142 712h216l-7-34H190l-60-302h153l-7-34H123L62 34h177l-6-34H17m245 789l10 50h46l-10-50h-46z" horiz-adv-x="330" vert-adv-y="1000"/><glyph glyph-name="uni0117" unicode="ė" d="M36 29Q22 51 22 91q0 45 23 160 37 188 79 227 33 32 83 32t72-35q15-23 15-64 0-45-23-160H81Q57 131 57 93q0-32 15-51 15-18 42-18 33 0 56 20 28 25 40 83h35q-15-74-53-107-31-28-81-28-51 0-75 37m51 254h154q18 87 18 127 0 68-56 68-31 0-54-22-20-19-32.5-55T87 283m119 326l10 50h46l-10-50h-46z" horiz-adv-x="311" vert-adv-y="1000"/><glyph glyph-name="uni0118" unicode="Ę" d="M17 0l142 712h216l-7-34H190l-60-302h153l-7-34H123L62 34h177l-6-34H17m91-162l72 126h35l-65-126h-42z" horiz-adv-x="330" vert-adv-y="1000"/><glyph glyph-name="uni0119" unicode="ę" d="M36 29Q22 51 22 91q0 45 23 160 37 188 79 227 33 32 83 32t72-35q15-23 15-64 0-45-23-160H81Q57 131 57 93q0-32 15-51 15-18 42-18 33 0 56 20 28 25 40 83h35q-15-74-53-107-31-28-81-28-51 0-75 37m51 254h154q18 87 18 127 0 68-56 68-31 0-54-22-20-19-32.5-55T87 283M56-162l72 126h35L98-162H56z" horiz-adv-x="311" vert-adv-y="1000"/><glyph glyph-name="uni011A" unicode="Ě" d="M17 0l142 712h216l-7-34H190l-60-302h153l-7-34H123L62 34h177l-6-34H17m244 752l-51 126h36l37-95 76 95h38L296 752h-35z" horiz-adv-x="330" vert-adv-y="1000"/><glyph glyph-name="uni011B" unicode="ě" d="M36 29Q22 51 22 91q0 45 23 160 37 188 79 227 33 32 83 32t72-35q15-23 15-64 0-45-23-160H81Q57 131 57 93q0-32 15-51 15-18 42-18 33 0 56 20 28 25 40 83h35q-15-74-53-107-31-28-81-28-51 0-75 37m51 254h154q18 87 18 127 0 68-56 68-31 0-54-22-20-19-32.5-55T87 283m118 289l-51 126h36l37-95 76 95h38L240 572h-35z" horiz-adv-x="311" vert-adv-y="1000"/><glyph glyph-name="uni011C" unicode="Ĝ" d="M341 374l-47-236q-14-72-55.5-109T139-8Q91-8 64 21q-28 31-28 85 0 52 39 250 36 180 56.5 240t53.5 90q37 34 95 34 57 0 84-36 20-27 20-76 0-18-6-48h-37q6 26 6 48 0 78-69 78-41 0-68-25-28-27-45-78.5T113 356Q73 155 73 106q0-80 70-80 41 0 72.5 30t42.5 84l40 200h-89l6 34h126m-8 513l51-126h-36l-37 95-76-95h-38l101 126h35z" horiz-adv-x="372" vert-adv-y="1000"/><glyph glyph-name="uni011D" unicode="ĝ" d="M44 251q22 108 37.5 155.5T123 478q35 32 77 32 35 0 54-19 14-14 18-28l8 39h36L212-22q-14-71-25.5-103T152-179q-34-31-85-31-39 0-64 24.5T-22-120q0 22 4 44h35q-4-22-4-43 0-27 15-43t43-16q32 0 56 21 19 18 27.5 44.5T177-15l10 50q-11-15-28-27-23-16-55-16-43 0-67 34-16 24-16 65 0 45 23 160m36 0Q57 136 57 92q0-29 10-45 16-23 44-23t53 20q30 27 41 80l50 254q3 20 3 34 0 31-14 48-15 18-42 18-28 0-54-23-21-18-35-62.5T80 251m184 456l51-126h-36l-37 95-76-95h-38l101 126h35z" horiz-adv-x="327" vert-adv-y="1000"/><glyph glyph-name="uni011E" unicode="Ğ" d="M341 374l-47-236q-14-72-55.5-109T139-8Q91-8 64 21q-28 31-28 85 0 52 39 250 36 180 56.5 240t53.5 90q37 34 95 34 57 0 84-36 20-27 20-76 0-18-6-48h-37q6 26 6 48 0 78-69 78-41 0-68-25-28-27-45-78.5T113 356Q73 155 73 106q0-80 70-80 41 0 72.5 30t42.5 84l40 200h-89l6 34h126m63 478q-15-52-42-74.5T290 755q-39 0-59.5 21.5T210 834q0 6 1 18h32v-10q0-55 51-55 57 0 77 65h33z" horiz-adv-x="372" vert-adv-y="1000"/><glyph glyph-name="uni011F" unicode="ğ" d="M44 251q22 108 37.5 155.5T123 478q35 32 77 32 35 0 54-19 14-14 18-28l8 39h36L212-22q-14-71-25.5-103T152-179q-34-31-85-31-39 0-64 24.5T-22-120q0 22 4 44h35q-4-22-4-43 0-27 15-43t43-16q32 0 56 21 19 18 27.5 44.5T177-15l10 50q-11-15-28-27-23-16-55-16-43 0-67 34-16 24-16 65 0 45 23 160m36 0Q57 136 57 92q0-29 10-45 16-23 44-23t53 20q30 27 41 80l50 254q3 20 3 34 0 31-14 48-15 18-42 18-28 0-54-23-21-18-35-62.5T80 251m255 421q-15-52-42-74.5T221 575q-39 0-59.5 21.5T141 654q0 6 1 18h32v-10q0-55 51-55 57 0 77 65h33z" horiz-adv-x="327" vert-adv-y="1000"/><glyph glyph-name="uni0120" unicode="Ġ" d="M341 374l-47-236q-14-72-55.5-109T139-8Q91-8 64 21q-28 31-28 85 0 52 39 250 36 180 56.5 240t53.5 90q37 34 95 34 57 0 84-36 20-27 20-76 0-18-6-48h-37q6 26 6 48 0 78-69 78-41 0-68-25-28-27-45-78.5T113 356Q73 155 73 106q0-80 70-80 41 0 72.5 30t42.5 84l40 200h-89l6 34h126m-68 415l10 50h46l-10-50h-46z" horiz-adv-x="372" vert-adv-y="1000"/><glyph glyph-name="uni0121" unicode="ġ" d="M44 251q22 108 37.5 155.5T123 478q35 32 77 32 35 0 54-19 14-14 18-28l8 39h36L212-22q-14-71-25.5-103T152-179q-34-31-85-31-39 0-64 24.5T-22-120q0 22 4 44h35q-4-22-4-43 0-27 15-43t43-16q32 0 56 21 19 18 27.5 44.5T177-15l10 50q-11-15-28-27-23-16-55-16-43 0-67 34-16 24-16 65 0 45 23 160m36 0Q57 136 57 92q0-29 10-45 16-23 44-23t53 20q30 27 41 80l50 254q3 20 3 34 0 31-14 48-15 18-42 18-28 0-54-23-21-18-35-62.5T80 251m124 358l10 50h46l-10-50h-46z" horiz-adv-x="327" vert-adv-y="1000"/><glyph glyph-name="uni0122" unicode="Ģ" d="M341 374l-47-236q-14-72-55.5-109T139-8Q91-8 64 21q-28 31-28 85 0 52 39 250 36 180 56.5 240t53.5 90q37 34 95 34 57 0 84-36 20-27 20-76 0-18-6-48h-37q6 26 6 48 0 78-69 78-41 0-68-25-28-27-45-78.5T113 356Q73 155 73 106q0-80 70-80 41 0 72.5 30t42.5 84l40 200h-89l6 34h126M45-162l72 126h35L87-162H45z" horiz-adv-x="372" vert-adv-y="1000"/><glyph glyph-name="uni0123" unicode="ģ" d="M44 251q22 108 37.5 155.5T123 478q35 32 77 32 35 0 54-19 14-14 18-28l8 39h36L212-22q-14-71-25.5-103T152-179q-34-31-85-31-39 0-64 24.5T-22-120q0 22 4 44h35q-4-22-4-43 0-27 15-43t43-16q32 0 56 21 19 18 27.5 44.5T177-15l10 50q-11-15-28-27-23-16-55-16-43 0-67 34-16 24-16 65 0 45 23 160m36 0Q57 136 57 92q0-29 10-45 16-23 44-23t53 20q30 27 41 80l50 254q3 20 3 34 0 31-14 48-15 18-42 18-28 0-54-23-21-18-35-62.5T80 251m227 456l-72-126h-35l65 126h42z" horiz-adv-x="327" vert-adv-y="1000"/><glyph glyph-name="uni0124" unicode="Ĥ" d="M17 0l142 712h38l-67-333h178l67 333h38L271 0h-38l69 345H124L55 0H17m320 887l51-126h-36l-37 95-76-95h-38l101 126h35z" horiz-adv-x="388" vert-adv-y="1000"/><glyph glyph-name="uni0125" unicode="ĥ" d="M11 0l142 712h36l-50-249q12 17 29 30 22 17 57 17 45 0 67-35 15-23 15-56 0-17-6-45L227 0h-36l74 374q5 22 5 44 0 25-14 42.5T213 478q-31 0-56-25t-36-79L47 0H11m211 881l51-126h-36l-37 95-76-95H86l101 126h35z" horiz-adv-x="333" vert-adv-y="1000"/><glyph glyph-name="uni0126" unicode="Ħ" d="M74 522l6 32h47l32 158h38l-32-158h178l32 158h38l-32-158h47l-6-32h-47L271 0h-38l69 345H124L55 0H17l104 522H74m56-143h178l29 143H159l-29-143z" horiz-adv-x="388" vert-adv-y="1000"/><glyph glyph-name="uni0127" unicode="ħ" d="M89 587l6 30h60l19 95h36l-19-95h81l-6-30h-81l-25-124q12 17 29 30 22 17 57 17 45 0 67-35 15-23 15-56 0-17-6-45L248 0h-36l74 374q5 22 5 44 0 25-14 42.5T234 478q-32 0-56.5-25T142 374L68 0H32l117 587H89z" horiz-adv-x="354" vert-adv-y="1000"/><glyph glyph-name="uni0128" unicode="Ĩ" d="M17 0l142 712h38L55 0H17m92 783l-18 22q39 34 64 34 23 0 47-18 22-16 37-16 18 0 43 24l18-22q-39-34-64-34-23 0-47 18-22 16-37 16-18 0-43-24z" horiz-adv-x="172" vert-adv-y="1000"/><glyph glyph-name="uni0129" unicode="ĩ" d="M11 0l100 502h36L47 0H11m57 603l-18 22q39 34 64 34 23 0 47-18 22-16 37-16 18 0 43 24l18-22q-39-34-64-34-23 0-47 18-22 16-37 16-18 0-43-24z" horiz-adv-x="158" vert-adv-y="1000"/><glyph glyph-name="uni012A" unicode="Ī" d="M17 0l142 712h38L55 0H17m83 794l7 34h186l-7-34H100z" horiz-adv-x="172" vert-adv-y="1000"/><glyph glyph-name="uni012B" unicode="ī" d="M11 0l100 502h36L47 0H11m48 614l7 34h186l-7-34H59z" horiz-adv-x="158" vert-adv-y="1000"/><glyph glyph-name="uni012C" unicode="Ĭ" d="M17 0l142 712h38L55 0H17m282 852q-15-52-42-74.5T185 755q-39 0-59.5 21.5T105 834q0 6 1 18h32v-10q0-55 51-55 57 0 77 65h33z" horiz-adv-x="172" vert-adv-y="1000"/><glyph glyph-name="uni012D" unicode="ĭ" d="M11 0l100 502h36L47 0H11m248 672q-15-52-42-74.5T145 575q-39 0-59.5 21.5T65 654q0 6 1 18h32v-10q0-55 51-55 57 0 77 65h33z" horiz-adv-x="158" vert-adv-y="1000"/><glyph glyph-name="uni012E" unicode="Į" d="M17 0l142 712h38L55 0H17m-74-162L15-36h35l-65-126h-42z" horiz-adv-x="172" vert-adv-y="1000"/><glyph glyph-name="uni012F" unicode="į" d="M11 0l100 502h36L47 0H11m118 633l10 51h52l-10-51h-52M-67-162L5-36h35l-65-126h-42z" horiz-adv-x="158" vert-adv-y="1000"/><glyph glyph-name="uni0130" unicode="İ" d="M17 0l142 712h38L55 0H17m152 789l10 50h46l-10-50h-46z" horiz-adv-x="172" vert-adv-y="1000"/><glyph glyph-name="uni0131" unicode="ı" d="M11 0l100 502h36L47 0H11z" horiz-adv-x="158" vert-adv-y="1000"/><glyph glyph-name="uni0132" unicode="Ĳ" d="M144 39l30 22q25-35 66-35 84 0 109 126l112 560h38L385 142q-15-75-53-113-37-37-94-37-64 0-94 47M17 0l142 712h38L55 0H17z" horiz-adv-x="467" vert-adv-y="1000"/><glyph glyph-name="uni0133" unicode="ĳ" d="M153-80l116 582h36L189-84q-14-66-48-96-35-30-95-30l7 32q80 1 100 98m134 713l10 51h52l-10-51h-52M11 0l100 502h36L47 0H11m118 633l10 51h52l-10-51h-52z" horiz-adv-x="316" vert-adv-y="1000"/><glyph glyph-name="uni0134" unicode="Ĵ" d="M-28 39L2 61q25-35 66-35 84 0 109 126l112 560h38L213 142q-15-75-53-113Q123-8 66-8 2-8-28 39m386 848l51-126h-36l-37 95-76-95h-38l101 126h35z" horiz-adv-x="295" vert-adv-y="1000"/><glyph glyph-name="uni0135" unicode="ĵ" d="M-5-80l116 582h36L31-84q-14-66-48-96-35-30-95-30l7 32q80 1 100 98m193 787l51-126h-36l-37 95-76-95H52l101 126h35z" horiz-adv-x="158" vert-adv-y="1000"/><glyph glyph-name="uni0136" unicode="Ķ" d="M17 0l142 712h38l-80-400 267 400h44L233 420 304 0h-38l-65 377-101-149L55 0H17m38-162l72 126h35L97-162H55z" horiz-adv-x="363" vert-adv-y="1000"/><glyph glyph-name="uni0137" unicode="ķ" d="M11 0l142 712h36L92 227l212 275h42L200 312 265 0h-36l-58 280-92-119L47 0H11m26-162l72 126h35L79-162H37z" horiz-adv-x="334" vert-adv-y="1000"/><glyph glyph-name="uni0138" unicode="ĸ" d="M11 0l100 502h36L92 227l212 275h42L200 312 265 0h-36l-58 280-92-119L47 0H11z" horiz-adv-x="334" vert-adv-y="1000"/><glyph glyph-name="uni0139" unicode="Ĺ" d="M17 0l142 712h38L61 34h178l-6-34H17m147 761l88 126h44l-90-126h-42z" horiz-adv-x="303" vert-adv-y="1000"/><glyph glyph-name="uni013A" unicode="ĺ" d="M43 34Q27 59 27 89q0 18 3 33l118 590h36L67 124q-3-15-3-35 0-57 65-57l-6-32Q65 0 43 34m108 721l88 126h44l-90-126h-42z" horiz-adv-x="187" vert-adv-y="1000"/><glyph glyph-name="uni013B" unicode="Ļ" d="M17 0l142 712h38L61 34h178l-6-34H17m23-162l72 126h35L82-162H40z" horiz-adv-x="303" vert-adv-y="1000"/><glyph glyph-name="uni013C" unicode="ļ" d="M43 34Q27 59 27 89q0 18 3 33l118 590h36L67 124q-3-15-3-35 0-57 65-57l-6-32Q65 0 43 34m-65-196L50-36h35L20-162h-42z" horiz-adv-x="187" vert-adv-y="1000"/><glyph glyph-name="uni013D" unicode="Ľ" d="M17 0l142 712h38L61 34h178l-6-34H17m216 586l44 126h40l-51-126h-33z" horiz-adv-x="303" vert-adv-y="1000"/><glyph glyph-name="uni013E" unicode="ľ" d="M43 34Q27 59 27 89q0 18 3 33l118 590h36L67 124q-3-15-3-35 0-57 65-57l-6-32Q65 0 43 34m160 552l44 126h40l-51-126h-33z" horiz-adv-x="187" vert-adv-y="1000"/><glyph glyph-name="uni013F" unicode="Ŀ" d="M17 0l142 712h38L61 34h178l-6-34H17m222 331l10 50h46l-10-50h-46z" horiz-adv-x="329" vert-adv-y="1000"/><glyph glyph-name="uni0140" unicode="ŀ" d="M43 34Q27 59 27 89q0 18 3 33l118 590h36L67 124q-3-15-3-35 0-57 65-57l-6-32Q65 0 43 34m118 249l10 50h46l-10-50h-46z" horiz-adv-x="210" vert-adv-y="1000"/><glyph glyph-name="uni0141" unicode="Ł" d="M17 0l61 308-57-50 10 48 57 50 71 356h38l-63-315 108 94-10-48-108-94L61 34h178l-6-34H17z" horiz-adv-x="304" vert-adv-y="1000"/><glyph glyph-name="uni0142" unicode="ł" d="M15 258l9 49 75 70 67 335h36l-59-293 77 73-9-49-77-73-49-246q-3-15-3-35 0-57 65-57l-6-32Q83 0 61 34 45 59 45 89q0 18 3 33l41 207-74-71z" horiz-adv-x="210" vert-adv-y="1000"/><glyph glyph-name="uni0143" unicode="Ń" d="M17 0l142 712h38l72-602 118 602h38L283 0h-38l-70 602L55 0H17m262 761l88 126h44l-90-126h-42z" horiz-adv-x="400" vert-adv-y="1000"/><glyph glyph-name="uni0144" unicode="ń" d="M11 0l100 502h36l-8-39q12 17 29 30 22 17 57 17 45 0 67-35 15-23 15-56 0-17-6-45L227 0h-36l74 374q5 22 5 44 0 25-14 42.5T213 478q-31 0-56-25t-36-79L47 0H11m202 581l88 126h44l-90-126h-42z" horiz-adv-x="333" vert-adv-y="1000"/><glyph glyph-name="uni0145" unicode="Ņ" d="M17 0l142 712h38l72-602 118 602h38L283 0h-38l-70 602L55 0H17m38-162l72 126h35L97-162H55z" horiz-adv-x="400" vert-adv-y="1000"/><glyph glyph-name="uni0146" unicode="ņ" d="M11 0l100 502h36l-8-39q12 17 29 30 22 17 57 17 45 0 67-35 15-23 15-56 0-17-6-45L227 0h-36l74 374q5 22 5 44 0 25-14 42.5T213 478q-31 0-56-25t-36-79L47 0H11m23-162l72 126h35L76-162H34z" horiz-adv-x="333" vert-adv-y="1000"/><glyph glyph-name="uni0147" unicode="Ň" d="M17 0l142 712h38l72-602 118 602h38L283 0h-38l-70 602L55 0H17m266 752l-51 126h36l37-95 76 95h38L318 752h-35z" horiz-adv-x="400" vert-adv-y="1000"/><glyph glyph-name="uni0148" unicode="ň" d="M11 0l100 502h36l-8-39q12 17 29 30 22 17 57 17 45 0 67-35 15-23 15-56 0-17-6-45L227 0h-36l74 374q5 22 5 44 0 25-14 42.5T213 478q-31 0-56-25t-36-79L47 0H11m206 572l-51 126h36l37-95 76 95h38L252 572h-35z" horiz-adv-x="333" vert-adv-y="1000"/><glyph glyph-name="uni0149" unicode="ŉ" d="M11 0l100 502h36l-8-39q12 17 29 30 22 17 57 17 45 0 67-35 15-23 15-56 0-17-6-45L227 0h-36l74 374q5 22 5 44 0 25-14 42.5T213 478q-31 0-56-25t-36-79L47 0H11m64 576l27 136h40l-20-102-47-34z" horiz-adv-x="333" vert-adv-y="1000"/><glyph glyph-name="uni014A" unicode="Ŋ" d="M17 0l142 712h38l72-602 118 602h38L276-35q-12-61-51-95-37-32-92-32l7 34q33 0 60.5 23.5T237-37l7 39-69 600L55 0H17z" horiz-adv-x="400" vert-adv-y="1000"/><glyph glyph-name="uni014B" unicode="ŋ" d="M11 0l100 502h36l-8-39q12 17 29 30 22 17 57 17 45 0 67-35 15-23 15-56 0-17-6-45L220-35q-11-60-50-95-37-32-92-32l6 32q35 0 63 24t37 69l81 411q5 22 5 44 0 25-14 42.5T213 478q-31 0-56-25t-36-79L47 0H11z" horiz-adv-x="333" vert-adv-y="1000"/><glyph glyph-name="uni014C" unicode="Ō" d="M75 356q37 187 56.5 244t55.5 89q35 31 90 31 58 0 85-35 24-30 24-74 0-57-39-255-37-187-56.5-244T235 23Q200-8 145-8 87-8 60 27q-24 30-24 74 0 57 39 255m38 0Q74 161 74 108q0-82 74-82 40 0 66 25 26 26 43.5 79.5T309 356q39 195 39 248 0 82-74 82-40 0-66-25-26-26-43.5-79.5T113 356m91 438l7 34h186l-7-34H204z" horiz-adv-x="380" vert-adv-y="1000"/><glyph glyph-name="uni014D" unicode="ō" d="M81 251Q58 136 58 94q0-32 11-49 14-21 43-21 31 0 55 22 21 20 35 63t33 142q23 115 23 157 0 32-11 49-14 21-43 21-31 0-55-22-21-20-35-63T81 251m-36 0q22 111 39 157.5t42 70.5q33 31 80 31 51 0 73-35 14-22 14-67 0-47-22-157-22-111-39-157.5T190 23Q157-8 110-8 59-8 37 27 23 49 23 94q0 47 22 157m92 363l7 34h186l-7-34H137z" horiz-adv-x="316" vert-adv-y="1000"/><glyph glyph-name="uni014E" unicode="Ŏ" d="M75 356q37 187 56.5 244t55.5 89q35 31 90 31 58 0 85-35 24-30 24-74 0-57-39-255-37-187-56.5-244T235 23Q200-8 145-8 87-8 60 27q-24 30-24 74 0 57 39 255m38 0Q74 161 74 108q0-82 74-82 40 0 66 25 26 26 43.5 79.5T309 356q39 195 39 248 0 82-74 82-40 0-66-25-26-26-43.5-79.5T113 356m291 496q-15-52-42-74.5T290 755q-39 0-59.5 21.5T210 834q0 6 1 18h32v-10q0-55 51-55 57 0 77 65h33z" horiz-adv-x="380" vert-adv-y="1000"/><glyph glyph-name="uni014F" unicode="ŏ" d="M81 251Q58 136 58 94q0-32 11-49 14-21 43-21 31 0 55 22 21 20 35 63t33 142q23 115 23 157 0 32-11 49-14 21-43 21-31 0-55-22-21-20-35-63T81 251m-36 0q22 111 39 157.5t42 70.5q33 31 80 31 51 0 73-35 14-22 14-67 0-47-22-157-22-111-39-157.5T190 23Q157-8 110-8 59-8 37 27 23 49 23 94q0 47 22 157m292 421q-15-52-42-74.5T223 575q-39 0-59.5 21.5T143 654q0 6 1 18h32v-10q0-55 51-55 57 0 77 65h33z" horiz-adv-x="316" vert-adv-y="1000"/><glyph glyph-name="uni0150" unicode="Ő" d="M75 356q37 187 56.5 244t55.5 89q35 31 90 31 58 0 85-35 24-30 24-74 0-57-39-255-37-187-56.5-244T235 23Q200-8 145-8 87-8 60 27q-24 30-24 74 0 57 39 255m38 0Q74 161 74 108q0-82 74-82 40 0 66 25 26 26 43.5 79.5T309 356q39 195 39 248 0 82-74 82-40 0-66-25-26-26-43.5-79.5T113 356m101 405l83 126h44l-86-126h-41m110 0l83 126h44l-86-126h-41z" horiz-adv-x="380" vert-adv-y="1000"/><glyph glyph-name="uni0151" unicode="ő" d="M81 251Q58 136 58 94q0-32 11-49 14-21 43-21 31 0 55 22 21 20 35 63t33 142q23 115 23 157 0 32-11 49-14 21-43 21-31 0-55-22-21-20-35-63T81 251m-36 0q22 111 39 157.5t42 70.5q33 31 80 31 51 0 73-35 14-22 14-67 0-47-22-157-22-111-39-157.5T190 23Q157-8 110-8 59-8 37 27 23 49 23 94q0 47 22 157m102 330l83 126h44l-86-126h-41m110 0l83 126h44l-86-126h-41z" horiz-adv-x="316" vert-adv-y="1000"/><glyph glyph-name="uni0152" unicode="Œ" d="M75 356q37 187 56.5 244t55.5 89q35 31 90 31 69 0 93-60l10 52h216l-7-34H411l-60-302h153l-7-34H344L283 34h177l-6-34H238l8 39Q209-8 145-8 87-8 60 27q-24 30-24 74 0 57 39 255m38 0Q74 161 74 108q0-82 74-82 40 0 66 25 26 26 43.5 79.5T309 356q39 195 39 248 0 82-74 82-40 0-66-25-26-26-43.5-79.5T113 356z" horiz-adv-x="551" vert-adv-y="1000"/><glyph glyph-name="uni0153" unicode="œ" d="M45 251q22 111 39 157.5t42 70.5q33 31 80 31 70 0 84-65 33 65 107 65 50 0 72-35 15-23 15-64 0-45-23-160H271q-24-120-24-158 0-32 15-51 15-18 42-18 33 0 56 20 28 25 40 83h35q-15-74-53-107-31-28-81-28-70 0-86 64-14-29-43-46.5T110-8Q59-8 37 27 23 49 23 94q0 47 22 157m36 0Q58 136 58 94q0-32 11-49 14-21 43-21 31 0 55 22 21 20 35 63t33 142q23 115 23 157 0 32-11 49-14 21-43 21-31 0-55-22-21-20-35-63T81 251m196 32h154q18 87 18 127 0 68-56 68-31 0-54-22-20-19-32.5-55T277 283z" horiz-adv-x="501" vert-adv-y="1000"/><glyph glyph-name="uni0154" unicode="Ŕ" d="M17 0l142 712h113q111 0 111-116 0-36-8-76-19-91-48.5-133.5T253 333L292 0h-39l-36 328h-97L55 0H17m110 362h78q48 0 80.5 31.5T337 520q8 40 8 76 0 42-18.5 62T266 678h-76l-63-316m121 399l88 126h44l-90-126h-42z" horiz-adv-x="389" vert-adv-y="1000"/><glyph glyph-name="uni0155" unicode="ŕ" d="M11 0l100 502h36l-11-52q11 23 37 41 28 19 75 19l-7-32h-4q-44 0-75-28t-41-76L47 0H11m144 581l88 126h44l-90-126h-42z" horiz-adv-x="210" vert-adv-y="1000"/><glyph glyph-name="uni0156" unicode="Ŗ" d="M17 0l142 712h113q111 0 111-116 0-36-8-76-19-91-48.5-133.5T253 333L292 0h-39l-36 328h-97L55 0H17m110 362h78q48 0 80.5 31.5T337 520q8 40 8 76 0 42-18.5 62T266 678h-76l-63-316M55-162l72 126h35L97-162H55z" horiz-adv-x="389" vert-adv-y="1000"/><glyph glyph-name="uni0157" unicode="ŗ" d="M11 0l100 502h36l-11-52q11 23 37 41 28 19 75 19l-7-32h-4q-44 0-75-28t-41-76L47 0H11m-78-162L5-36h35l-65-126h-42z" horiz-adv-x="210" vert-adv-y="1000"/><glyph glyph-name="uni0158" unicode="Ř" d="M17 0l142 712h113q111 0 111-116 0-36-8-76-19-91-48.5-133.5T253 333L292 0h-39l-36 328h-97L55 0H17m110 362h78q48 0 80.5 31.5T337 520q8 40 8 76 0 42-18.5 62T266 678h-76l-63-316m125 390l-51 126h36l37-95 76 95h38L287 752h-35z" horiz-adv-x="389" vert-adv-y="1000"/><glyph glyph-name="uni0159" unicode="ř" d="M11 0l100 502h36l-11-52q11 23 37 41 28 19 75 19l-7-32h-4q-44 0-75-28t-41-76L47 0H11m148 572l-51 126h36l37-95 76 95h38L194 572h-35z" horiz-adv-x="210" vert-adv-y="1000"/><glyph glyph-name="uni015A" unicode="Ś" d="M24 173h37q-8-40-8-71t13-49q19-25 63-25 45 0 74 27 22 20 33 46t22 80q10 50 10 87 0 47-50 71l-60 29q-36 17-50.5 39.5T93 472q0 24 7 59 12 62 27 95t40 56q37 36 97 36 59 0 86-37 19-28 19-70 0-27-9-72h-37q8 40 8 71 0 30-13 49-17 25-56 25t-69-27q-21-19-32.5-46T138 531q-6-30-6-55 0-32 11.5-47.5T178 402l60-29q38-19 53.5-42.5T307 272q0-38-11-91-13-64-27.5-97T229 29Q189-6 127-6 64-6 35 30q-20 26-20 71 0 27 9 72m232 588l88 126h44l-90-126h-42z" horiz-adv-x="356" vert-adv-y="1000"/><glyph glyph-name="uni015B" unicode="ś" d="M23 27Q3 51 3 92q0 21 4 41h36q-4-20-4-39 0-30 14-47 18-23 52-23 37 0 63 23 39 36 39 103 0 49-45 83l-46 35q-56 43-56 95 0 76 51 119 34 28 81 28 53 0 78-34 18-25 18-61 0-19-5-44h-35q5 25 5 42 0 27-12 43-17 22-51 22-33 0-56-20-38-33-38-92 0-40 40-70l47-35q33-25 46.5-48.5T243 153q0-84-52-130-35-31-89-31-52 0-79 35m172 554l88 126h44l-90-126h-42z" horiz-adv-x="298" vert-adv-y="1000"/><glyph glyph-name="uni015C" unicode="Ŝ" d="M24 173h37q-8-40-8-71t13-49q19-25 63-25 45 0 74 27 22 20 33 46t22 80q10 50 10 87 0 47-50 71l-60 29q-36 17-50.5 39.5T93 472q0 24 7 59 12 62 27 95t40 56q37 36 97 36 59 0 86-37 19-28 19-70 0-27-9-72h-37q8 40 8 71 0 30-13 49-17 25-56 25t-69-27q-21-19-32.5-46T138 531q-6-30-6-55 0-32 11.5-47.5T178 402l60-29q38-19 53.5-42.5T307 272q0-38-11-91-13-64-27.5-97T229 29Q189-6 127-6 64-6 35 30q-20 26-20 71 0 27 9 72m297 714l51-126h-36l-37 95-76-95h-38l101 126h35z" horiz-adv-x="356" vert-adv-y="1000"/><glyph glyph-name="uni015D" unicode="ŝ" d="M23 27Q3 51 3 92q0 21 4 41h36q-4-20-4-39 0-30 14-47 18-23 52-23 37 0 63 23 39 36 39 103 0 49-45 83l-46 35q-56 43-56 95 0 76 51 119 34 28 81 28 53 0 78-34 18-25 18-61 0-19-5-44h-35q5 25 5 42 0 27-12 43-17 22-51 22-33 0-56-20-38-33-38-92 0-40 40-70l47-35q33-25 46.5-48.5T243 153q0-84-52-130-35-31-89-31-52 0-79 35m236 680l51-126h-36l-37 95-76-95h-38l101 126h35z" horiz-adv-x="298" vert-adv-y="1000"/><glyph glyph-name="uni015E" unicode="Ş" d="M24 173h37q-8-40-8-71t13-49q19-25 63-25 45 0 74 27 22 20 33 46t22 80q10 50 10 87 0 47-50 71l-60 29q-36 17-50.5 39.5T93 472q0 24 7 59 12 62 27 95t40 56q37 36 97 36 59 0 86-37 19-28 19-70 0-27-9-72h-37q8 40 8 71 0 30-13 49-17 25-56 25t-69-27q-21-19-32.5-46T138 531q-6-30-6-55 0-32 11.5-47.5T178 402l60-29q38-19 53.5-42.5T307 272q0-38-11-91-13-64-27.5-97T229 29Q189-6 127-6 64-6 35 30q-20 26-20 71 0 27 9 72m14-335l72 126h35L80-162H38z" horiz-adv-x="356" vert-adv-y="1000"/><glyph glyph-name="uni015F" unicode="ş" d="M23 27Q3 51 3 92q0 21 4 41h36q-4-20-4-39 0-30 14-47 18-23 52-23 37 0 63 23 39 36 39 103 0 49-45 83l-46 35q-56 43-56 95 0 76 51 119 34 28 81 28 53 0 78-34 18-25 18-61 0-19-5-44h-35q5 25 5 42 0 27-12 43-17 22-51 22-33 0-56-20-38-33-38-92 0-40 40-70l47-35q33-25 46.5-48.5T243 153q0-84-52-130-35-31-89-31-52 0-79 35M13-162L85-36h35L55-162H13z" horiz-adv-x="298" vert-adv-y="1000"/><glyph glyph-name="uni0160" unicode="Š" d="M24 173h37q-8-40-8-71t13-49q19-25 63-25 45 0 74 27 22 20 33 46t22 80q10 50 10 87 0 47-50 71l-60 29q-36 17-50.5 39.5T93 472q0 24 7 59 12 62 27 95t40 56q37 36 97 36 59 0 86-37 19-28 19-70 0-27-9-72h-37q8 40 8 71 0 30-13 49-17 25-56 25t-69-27q-21-19-32.5-46T138 531q-6-30-6-55 0-32 11.5-47.5T178 402l60-29q38-19 53.5-42.5T307 272q0-38-11-91-13-64-27.5-97T229 29Q189-6 127-6 64-6 35 30q-20 26-20 71 0 27 9 72m236 579l-51 126h36l37-95 76 95h38L295 752h-35z" horiz-adv-x="356" vert-adv-y="1000"/><glyph glyph-name="uni0161" unicode="š" d="M23 27Q3 51 3 92q0 21 4 41h36q-4-20-4-39 0-30 14-47 18-23 52-23 37 0 63 23 39 36 39 103 0 49-45 83l-46 35q-56 43-56 95 0 76 51 119 34 28 81 28 53 0 78-34 18-25 18-61 0-19-5-44h-35q5 25 5 42 0 27-12 43-17 22-51 22-33 0-56-20-38-33-38-92 0-40 40-70l47-35q33-25 46.5-48.5T243 153q0-84-52-130-35-31-89-31-52 0-79 35m176 545l-51 126h36l37-95 76 95h38L234 572h-35z" horiz-adv-x="298" vert-adv-y="1000"/><glyph glyph-name="uni0162" unicode="Ţ" d="M82 0l135 678H106l7 34h260l-7-34H255L120 0H82M4-162L76-36h35L46-162H4z" horiz-adv-x="302" vert-adv-y="1000"/><glyph glyph-name="uni0163" unicode="ţ" d="M45 90q0 17 5 42l68 340H58l6 30h60l31 154h36l-31-154h86l-6-30h-86L86 130q-4-20-4-38 0-60 74-60l-6-32Q84 0 61 34 45 58 45 90M-6-162L66-36h35L36-162H-6z" horiz-adv-x="219" vert-adv-y="1000"/><glyph glyph-name="uni0164" unicode="Ť" d="M82 0l135 678H106l7 34h260l-7-34H255L120 0H82m149 752l-51 126h36l37-95 76 95h38L266 752h-35z" horiz-adv-x="302" vert-adv-y="1000"/><glyph glyph-name="uni0165" unicode="ť" d="M45 90q0 17 5 42l68 340H58l6 30h60l31 154h36l-31-154h86l-6-30h-86L86 130q-4-20-4-38 0-60 74-60l-6-32Q84 0 61 34 45 58 45 90m178 496l44 126h40l-51-126h-33z" horiz-adv-x="219" vert-adv-y="1000"/><glyph glyph-name="uni0166" unicode="Ŧ" d="M106 678l7 34h260l-7-34H255l-61-303h70l-6-32h-70L120 0H82l68 343H80l6 32h70l61 303H106z" horiz-adv-x="302" vert-adv-y="1000"/><glyph glyph-name="uni0167" unicode="ŧ" d="M34 293l6 30h60l30 149H70l6 30h60l31 154h36l-31-154h86l-6-30h-86l-30-149h86l-6-30h-86L98 130q-4-20-4-38 0-60 74-60l-6-32Q96 0 73 34 57 58 57 90q0 17 5 42l32 161H34z" horiz-adv-x="243" vert-adv-y="1000"/><glyph glyph-name="uni0168" unicode="Ũ" d="M40 152l112 560h38L76 144q-4-20-4-39 0-77 70-77 37 0 68.5 28t41.5 78l116 578h38L290 133q-13-68-57-106-39-35-98-35-53 0-81 39-20 26-20 69 0 25 6 52m169 631l-18 22q39 34 64 34 23 0 47-18 22-16 37-16 18 0 43 24l18-22q-39-34-64-34-23 0-47 18-22 16-37 16-18 0-43-24z" horiz-adv-x="374" vert-adv-y="1000"/><glyph glyph-name="uni0169" unicode="ũ" d="M322 502L222 0h-36l8 39q-12-17-29-30-22-17-57-17-45 0-67 35-15 23-15 56 0 17 6 45l74 374h36L68 128q-5-22-5-44 0-25 14-42.5T120 24q32 0 56.5 25t35.5 79l74 374h36M150 603l-18 22q39 34 64 34 23 0 47-18 22-16 37-16 18 0 43 24l18-22q-39-34-64-34-23 0-47 18-22 16-37 16-18 0-43-24z" horiz-adv-x="333" vert-adv-y="1000"/><glyph glyph-name="uni016A" unicode="Ū" d="M40 152l112 560h38L76 144q-4-20-4-39 0-77 70-77 37 0 68.5 28t41.5 78l116 578h38L290 133q-13-68-57-106-39-35-98-35-53 0-81 39-20 26-20 69 0 25 6 52m160 642l7 34h186l-7-34H200z" horiz-adv-x="374" vert-adv-y="1000"/><glyph glyph-name="uni016B" unicode="ū" d="M322 502L222 0h-36l8 39q-12-17-29-30-22-17-57-17-45 0-67 35-15 23-15 56 0 17 6 45l74 374h36L68 128q-5-22-5-44 0-25 14-42.5T120 24q32 0 56.5 25t35.5 79l74 374h36M141 614l7 34h186l-7-34H141z" horiz-adv-x="333" vert-adv-y="1000"/><glyph glyph-name="uni016C" unicode="Ŭ" d="M40 152l112 560h38L76 144q-4-20-4-39 0-77 70-77 37 0 68.5 28t41.5 78l116 578h38L290 133q-13-68-57-106-39-35-98-35-53 0-81 39-20 26-20 69 0 25 6 52m360 700q-15-52-42-74.5T286 755q-39 0-59.5 21.5T206 834q0 6 1 18h32v-10q0-55 51-55 57 0 77 65h33z" horiz-adv-x="374" vert-adv-y="1000"/><glyph glyph-name="uni016D" unicode="ŭ" d="M322 502L222 0h-36l8 39q-12-17-29-30-22-17-57-17-45 0-67 35-15 23-15 56 0 17 6 45l74 374h36L68 128q-5-22-5-44 0-25 14-42.5T120 24q32 0 56.5 25t35.5 79l74 374h36m19 170q-15-52-42-74.5T227 575q-39 0-59.5 21.5T147 654q0 6 1 18h32v-10q0-55 51-55 57 0 77 65h33z" horiz-adv-x="333" vert-adv-y="1000"/><glyph glyph-name="uni016E" unicode="Ů" d="M40 152l112 560h38L76 144q-4-20-4-39 0-77 70-77 37 0 68.5 28t41.5 78l116 578h38L290 133q-13-68-57-106-39-35-98-35-53 0-81 39-20 26-20 69 0 25 6 52m216.5 723.5l-8.25-8.25Q240 859 240 836t16.5-39.5Q273 780 296 780t39.5 16.5Q352 813 352 836t-16.5 39.5Q319 892 296 892t-39.5-16.5m-21-100l-12.75 12.75Q210 801 210 836t25.5 60.5Q261 922 296 922t60.5-25.5Q382 871 382 836t-25.5-60.5Q331 750 296 750t-60.5 25.5z" horiz-adv-x="374" vert-adv-y="1000"/><glyph glyph-name="uni016F" unicode="ů" d="M322 502L222 0h-36l8 39q-12-17-29-30-22-17-57-17-45 0-67 35-15 23-15 56 0 17 6 45l74 374h36L68 128q-5-22-5-44 0-25 14-42.5T120 24q32 0 56.5 25t35.5 79l74 374h36M204.5 705.5l-8.25-8.25Q188 689 188 666t16.5-39.5Q221 610 244 610t39.5 16.5Q300 643 300 666t-16.5 39.5Q267 722 244 722t-39.5-16.5m-21-100l-12.75 12.75Q158 631 158 666t25.5 60.5Q209 752 244 752t60.5-25.5Q330 701 330 666t-25.5-60.5Q279 580 244 580t-60.5 25.5z" horiz-adv-x="333" vert-adv-y="1000"/><glyph glyph-name="uni0170" unicode="Ű" d="M40 152l112 560h38L76 144q-4-20-4-39 0-77 70-77 37 0 68.5 28t41.5 78l116 578h38L290 133q-13-68-57-106-39-35-98-35-53 0-81 39-20 26-20 69 0 25 6 52m170 609l83 126h44l-86-126h-41m110 0l83 126h44l-86-126h-41z" horiz-adv-x="374" vert-adv-y="1000"/><glyph glyph-name="uni0171" unicode="ű" d="M322 502L222 0h-36l8 39q-12-17-29-30-22-17-57-17-45 0-67 35-15 23-15 56 0 17 6 45l74 374h36L68 128q-5-22-5-44 0-25 14-42.5T120 24q32 0 56.5 25t35.5 79l74 374h36m-171 79l83 126h44l-86-126h-41m110 0l83 126h44l-86-126h-41z" horiz-adv-x="333" vert-adv-y="1000"/><glyph glyph-name="uni0172" unicode="Ų" d="M40 152l112 560h38L76 144q-4-20-4-39 0-77 70-77 37 0 68.5 28t41.5 78l116 578h38L290 133q-13-68-57-106-39-35-98-35-53 0-81 39-20 26-20 69 0 25 6 52m69-314l72 126h35l-65-126h-42z" horiz-adv-x="374" vert-adv-y="1000"/><glyph glyph-name="uni0173" unicode="ų" d="M322 502L222 0h-36l8 39q-12-17-29-30-22-17-57-17-45 0-67 35-15 23-15 56 0 17 6 45l74 374h36L68 128q-5-22-5-44 0-25 14-42.5T120 24q32 0 56.5 25t35.5 79l74 374h36M110-162l72 126h35l-65-126h-42z" horiz-adv-x="333" vert-adv-y="1000"/><glyph glyph-name="uni0174" unicode="Ŵ" d="M58 0l48 712h38L96 84l241 628h38l-6-628 199 628h38L372 0h-38l6 630L96 0H58m349 887l51-126h-36l-37 95-76-95h-38l101 126h35z" horiz-adv-x="528" vert-adv-y="1000"/><glyph glyph-name="uni0175" unicode="ŵ" d="M48 0l16 502h36L80 66l168 436h38l-9-436 157 436h36L284 0h-39l10 440L87 0H48m272 707l51-126h-36l-37 95-76-95h-38l101 126h35z" horiz-adv-x="436" vert-adv-y="1000"/><glyph glyph-name="uni0176" unicode="Ŷ" d="M66 0l62 310-32 402h39l23-345 158 345h43L164 299 104 0H66m215 887l51-126h-36l-37 95-76-95h-38l101 126h35z" horiz-adv-x="271" vert-adv-y="1000"/><glyph glyph-name="uni0177" unicode="ŷ" d="M-84-178q70 0 100 71L63 2l-9 500h36l3-436 177 436h39L52-110q-24-56-57-78t-86-22l7 32m324 885l51-126h-36l-37 95-76-95h-38l101 126h35z" horiz-adv-x="262" vert-adv-y="1000"/><glyph glyph-name="uni0178" unicode="Ÿ" d="M66 0l62 310-32 402h39l23-345 158 345h43L164 299 104 0H66m96 784l10 50h46l-10-50h-46m116 0l10 50h46l-10-50h-46z" horiz-adv-x="271" vert-adv-y="1000"/><glyph glyph-name="uni0179" unicode="Ź" d="M-25 0l6 30 322 648H119l7 34h224l-6-30L22 34h195l-6-34H-25m248 761l88 126h44l-90-126h-42z" horiz-adv-x="287" vert-adv-y="1000"/><glyph glyph-name="uni017A" unicode="ź" d="M-32 0l5 27 255 443H67l6 32h201l-5-27L14 32h171l-6-32H-32m199 581l88 126h44l-90-126h-42z" horiz-adv-x="249" vert-adv-y="1000"/><glyph glyph-name="uni017B" unicode="Ż" d="M-25 0l6 30 322 648H119l7 34h224l-6-30L22 34h195l-6-34H-25m253 789l10 50h46l-10-50h-46z" horiz-adv-x="287" vert-adv-y="1000"/><glyph glyph-name="uni017C" unicode="ż" d="M-32 0l5 27 255 443H67l6 32h201l-5-27L14 32h171l-6-32H-32m204 609l10 50h46l-10-50h-46z" horiz-adv-x="249" vert-adv-y="1000"/><glyph glyph-name="uni017D" unicode="Ž" d="M-25 0l6 30 322 648H119l7 34h224l-6-30L22 34h195l-6-34H-25m252 752l-51 126h36l37-95 76 95h38L262 752h-35z" horiz-adv-x="287" vert-adv-y="1000"/><glyph glyph-name="uni017E" unicode="ž" d="M-32 0l5 27 255 443H67l6 32h201l-5-27L14 32h171l-6-32H-32m203 572l-51 126h36l37-95 76 95h38L206 572h-35z" horiz-adv-x="249" vert-adv-y="1000"/><glyph glyph-name="uni017F" unicode="ſ" d="M11 0l117 585q13 66 48 96 37 31 98 31l-6-32q-86 0-104-93L47 0H11z" horiz-adv-x="158" vert-adv-y="1000"/><glyph glyph-name="uni018F" unicode="Ə" d="M75 376h234q35 178 35 228 0 82-75 82-41 0-68-25-34-31-50-101h-37q20 92 69 131 37 29 88 29 56 0 86-35 25-30 25-74 0-57-39-255-37-187-56.5-244T231 23Q196-8 141-8 83-8 56 27q-24 30-24 74 0 57 43 275m227-34H106Q70 161 70 108q0-82 74-82 40 0 66 25 25 25 42 77t50 214z" horiz-adv-x="376" vert-adv-y="1000"/><glyph glyph-name="uni0192" unicode="ƒ" d="M66 380h63l81 207q26 67 65 96t104 29h9l-7-32h-12q-86 0-121-91l-82-209h89l-6-30h-94L-64-211h-38l220 561H60l6 30z" horiz-adv-x="305" vert-adv-y="1000"/><glyph glyph-name="uni01B5" unicode="Ƶ" d="M70 343l6 32h76l151 303H119l7 34h224l-6-30-153-307h66l-6-32h-76L22 34h195l-6-34H-25l6 30 155 313H70z" horiz-adv-x="287" vert-adv-y="1000"/><glyph glyph-name="uni01B6" unicode="ƶ" d="M38 251l6 30h75l109 189H67l6 32h201l-5-27-112-194h64l-6-30h-75L14 32h171l-6-32H-32l5 27 129 224H38z" horiz-adv-x="249" vert-adv-y="1000"/><glyph glyph-name="uni01C4" unicode="Ǆ" d="M61 34h85q44 0 69 22 27 23 44.5 76T311 356q39 191 39 244 0 34-16 55-17 23-59 23h-85L61 34M17 0l142 712h124q55 0 81-34 24-32 24-77 0-50-39-245-36-181-55.5-238T239 31Q202 0 147 0H17m340 0l6 30 322 648H501l7 34h224l-6-30L404 34h195l-6-34H357m252 752l-51 126h36l37-95 76 95h38L644 752h-35z" horiz-adv-x="669" vert-adv-y="1000"/><glyph glyph-name="uni01C5" unicode="ǅ" d="M61 34h85q44 0 69 22 27 23 44.5 76T311 356q39 191 39 244 0 34-16 55-17 23-59 23h-85L61 34M17 0l142 712h124q55 0 81-34 24-32 24-77 0-50-39-245-36-181-55.5-238T239 31Q202 0 147 0H17m333 0l5 27 255 443H449l6 32h201l-5-27L396 32h171l-6-32H350m203 572l-51 126h36l37-95 76 95h38L588 572h-35z" horiz-adv-x="631" vert-adv-y="1000"/><glyph glyph-name="uni01C6" unicode="ǆ" d="M216 0h-36l7 35q-11-15-28-27-23-16-55-16-43 0-67 34-16 24-16 65 0 45 23 160 22 108 37.5 155.5T123 478q35 32 77 32 35 0 54-19 14-14 18-28l50 249h36L216 0M80 251Q57 136 57 92q0-29 10-45 16-23 44-23t53 20q30 27 41 80l50 254q3 20 3 34 0 31-14 48-15 18-42 18-28 0-54-23-21-18-35-62.5T80 251M295 0l5 27 255 443H394l6 32h201l-5-27L341 32h171l-6-32H295m203 572l-51 126h36l37-95 76 95h38L533 572h-35z" horiz-adv-x="576" vert-adv-y="1000"/><glyph glyph-name="uni01C7" unicode="Ǉ" d="M17 0l142 712h38L61 34h178l-6-34H17m258 39l30 22q25-35 66-35 84 0 109 126l112 560h38L516 142q-15-75-53-113-37-37-94-37-64 0-94 47z" horiz-adv-x="598" vert-adv-y="1000"/><glyph glyph-name="uni01C8" unicode="ǈ" d="M17 0l142 712h38L61 34h178l-6-34H17m282-80l116 582h36L335-84q-14-66-48-96-35-30-95-30l7 32q80 1 100 98m134 713l10 51h52l-10-51h-52z" horiz-adv-x="462" vert-adv-y="1000"/><glyph glyph-name="uni01C9" unicode="ǉ" d="M43 34Q27 59 27 89q0 18 3 33l118 590h36L67 124q-3-15-3-35 0-57 65-57l-6-32Q65 0 43 34M182-80l116 582h36L218-84q-14-66-48-96-35-30-95-30l7 32q80 1 100 98m134 713l10 51h52l-10-51h-52z" horiz-adv-x="345" vert-adv-y="1000"/><glyph glyph-name="uni01CA" unicode="Ǌ" d="M22 0l142 712h38l72-602 118 602h38L288 0h-38l-70 602L60 0H22m350 39l30 22q25-35 66-35 84 0 109 126l112 560h38L613 142q-15-75-53-113-37-37-94-37-64 0-94 47z" horiz-adv-x="695" vert-adv-y="1000"/><glyph glyph-name="uni01CB" unicode="ǋ" d="M22 0l142 712h38l72-602 118 602h38L288 0h-38l-70 602L60 0H22m373-80l116 582h36L431-84q-14-66-48-96-35-30-95-30l7 32q80 1 100 98m134 713l10 51h52l-10-51h-52z" horiz-adv-x="558" vert-adv-y="1000"/><glyph glyph-name="uni01CC" unicode="ǌ" d="M11 0l100 502h36l-8-39q12 17 29 30 22 17 57 17 45 0 67-35 15-23 15-56 0-17-6-45L227 0h-36l74 374q5 22 5 44 0 25-14 42.5T213 478q-31 0-56-25t-36-79L47 0H11m317-80l116 582h36L364-84q-14-66-48-96-35-30-95-30l7 32q80 1 100 98m134 713l10 51h52l-10-51h-52z" horiz-adv-x="491" vert-adv-y="1000"/><glyph glyph-name="uni01F1" unicode="Ǳ" d="M61 34h85q44 0 69 22 27 23 44.5 76T311 356q39 191 39 244 0 34-16 55-17 23-59 23h-85L61 34M17 0l142 712h124q55 0 81-34 24-32 24-77 0-50-39-245-36-181-55.5-238T239 31Q202 0 147 0H17m340 0l6 30 322 648H501l7 34h224l-6-30L404 34h195l-6-34H357z" horiz-adv-x="669" vert-adv-y="1000"/><glyph glyph-name="uni01F2" unicode="ǲ" d="M61 34h85q44 0 69 22 27 23 44.5 76T311 356q39 191 39 244 0 34-16 55-17 23-59 23h-85L61 34M17 0l142 712h124q55 0 81-34 24-32 24-77 0-50-39-245-36-181-55.5-238T239 31Q202 0 147 0H17m333 0l5 27 255 443H449l6 32h201l-5-27L396 32h171l-6-32H350z" horiz-adv-x="631" vert-adv-y="1000"/><glyph glyph-name="uni01F3" unicode="ǳ" d="M295 0l5 27 255 443H394l6 32h201l-5-27L341 32h171l-6-32H295m-79 0h-36l7 35q-11-15-28-27-23-16-55-16-43 0-67 34-16 24-16 65 0 45 23 160 22 108 37.5 155.5T123 478q35 32 77 32 35 0 54-19 14-14 18-28l50 249h36L216 0M80 251Q57 136 57 92q0-29 10-45 16-23 44-23t53 20q30 27 41 80l50 254q3 20 3 34 0 31-14 48-15 18-42 18-28 0-54-23-21-18-35-62.5T80 251z" horiz-adv-x="576" vert-adv-y="1000"/><glyph glyph-name="uni01FA" unicode="Ǻ" d="M273 0h-36l1 215H78L-8 0h-38l285 712h36L273 0m-35 249l4 385L92 249h146m35 684l88 126h44l-90-126h-42m-38.5-57.5l-8.25-8.25Q218 859 218 836t16.5-39.5Q251 780 274 780t39.5 16.5Q330 813 330 836t-16.5 39.5Q297 892 274 892t-39.5-16.5m-21-100l-12.75 12.75Q188 801 188 836t25.5 60.5Q239 922 274 922t60.5-25.5Q360 871 360 836t-25.5-60.5Q309 750 274 750t-60.5 25.5z" horiz-adv-x="325" vert-adv-y="1000"/><glyph glyph-name="uni01FB" unicode="ǻ" d="M26 24Q9 48 9 91q0 23 5 45 15 78 61 117 33 29 90 29h62l20 99q4 20 4 35 0 62-57 62-29 0-51-19-27-23-39-81H68q15 73 49 103 33 29 81 29 51 0 72-29 17-23 17-64 0-15-4-35L207 0h-36l8 42q-12-17-30-31Q125-8 90-8 49-8 26 24m19 67q0-67 51-67 39 0 65.5 31.5T196 126l25 126h-54q-42 0-71-25-24-21-37.5-59T45 91m178 671l88 126h44l-90-126h-42m-30.5-56.5l-8.25-8.25Q176 689 176 666t16.5-39.5Q209 610 232 610t39.5 16.5Q288 643 288 666t-16.5 39.5Q255 722 232 722t-39.5-16.5m-21-100l-12.75 12.75Q146 631 146 666t25.5 60.5Q197 752 232 752t60.5-25.5Q318 701 318 666t-25.5-60.5Q267 580 232 580t-60.5 25.5z" horiz-adv-x="313" vert-adv-y="1000"/><glyph glyph-name="uni01FC" unicode="Ǽ" d="M-47 0l392 712h242l-7-34H402l-60-302h153l-7-34H335L273 34h178l-6-34H229l43 215H111L-6 0h-41m177 249h149l86 432-235-432m248 512l88 126h44l-90-126h-42z" horiz-adv-x="542" vert-adv-y="1000"/><glyph glyph-name="uni01FD" unicode="ǽ" d="M14 136q15 78 61 117 33 29 90 29h62l20 99q4 20 4 35 0 62-57 62-29 0-51-19-27-23-39-81H68q15 73 49 103 33 29 81 29 66 0 84-54 34 54 101 54 50 0 72-35 15-23 15-64 0-45-23-160H257q-24-120-24-158 0-32 15-51 15-18 42-18 33 0 56 20 28 25 40 83h35q-15-74-53-107-31-28-81-28-49 0-70 30-14 19-17 44-20-36-40-50Q126-8 90-8 49-8 26 24 9 48 9 91q0 23 5 45m31-45q0-67 51-67 39 0 65.5 31.5T196 126l25 126h-54q-42 0-71-25-24-21-37.5-59T45 91m218 192h154q18 87 18 127 0 68-56 68-31 0-54-22-20-19-32.5-55T263 283m19 298l88 126h44l-90-126h-42z" horiz-adv-x="487" vert-adv-y="1000"/><glyph glyph-name="uni01FE" unicode="Ǿ" d="M75 356q37 187 56.5 244t55.5 89q35 31 90 31 46 0 74-23l28 59h37l-42-89q12-24 12-56 0-57-39-255-37-187-56.5-244T235 23Q200-8 145-8 97-8 70 16L43-44H6l43 88q-13 22-13 57 0 57 39 255m273 248v12L87 53q18-27 61-27 40 0 66 25 26 26 43.5 79.5T309 356q39 195 39 248M113 356Q74 161 74 108q0-8 1-12l259 564q-18 26-60 26-40 0-66-25-26-26-43.5-79.5T113 356m156 405l88 126h44l-90-126h-42z" horiz-adv-x="380" vert-adv-y="1000"/><glyph glyph-name="uni01FF" unicode="ǿ" d="M296 546h35l-45-87q7-14 7-51 0-47-22-157-22-111-39-157.5T190 23Q157-8 110-8 71-8 48 13L20-44h-35l45 87q-7 18-7 51 0 47 22 157 22 111 39 157.5t42 70.5q33 31 80 31 40 0 61-21l29 57m-61-295q23 115 23 157v5L68 47q12-23 44-23 31 0 55 22 21 20 35 63t33 142m-154 0Q58 136 58 91l190 364q-12 23-44 23-31 0-55-22-21-20-35-63T81 251m120 330l88 126h44l-90-126h-42z" horiz-adv-x="316" vert-adv-y="1000"/><glyph glyph-name="uni0218" unicode="Ș" d="M24 173h37q-8-40-8-71t13-49q19-25 63-25 45 0 74 27 22 20 33 46t22 80q10 50 10 87 0 47-50 71l-60 29q-36 17-50.5 39.5T93 472q0 24 7 59 12 62 27 95t40 56q37 36 97 36 59 0 86-37 19-28 19-70 0-27-9-72h-37q8 40 8 71 0 30-13 49-17 25-56 25t-69-27q-21-19-32.5-46T138 531q-6-30-6-55 0-32 11.5-47.5T178 402l60-29q38-19 53.5-42.5T307 272q0-38-11-91-13-64-27.5-97T229 29Q189-6 127-6 64-6 35 30q-20 26-20 71 0 27 9 72m14-335l72 126h35L80-162H38z" horiz-adv-x="356" vert-adv-y="1000"/><glyph glyph-name="uni0219" unicode="ș" d="M23 27Q3 51 3 92q0 21 4 41h36q-4-20-4-39 0-30 14-47 18-23 52-23 37 0 63 23 39 36 39 103 0 49-45 83l-46 35q-56 43-56 95 0 76 51 119 34 28 81 28 53 0 78-34 18-25 18-61 0-19-5-44h-35q5 25 5 42 0 27-12 43-17 22-51 22-33 0-56-20-38-33-38-92 0-40 40-70l47-35q33-25 46.5-48.5T243 153q0-84-52-130-35-31-89-31-52 0-79 35M13-162L85-36h35L55-162H13z" horiz-adv-x="298" vert-adv-y="1000"/><glyph glyph-name="uni021A" unicode="Ț" d="M82 0l135 678H106l7 34h260l-7-34H255L120 0H82M4-162L76-36h35L46-162H4z" horiz-adv-x="302" vert-adv-y="1000"/><glyph glyph-name="uni021B" unicode="ț" d="M45 90q0 17 5 42l68 340H58l6 30h60l31 154h36l-31-154h86l-6-30h-86L86 130q-4-20-4-38 0-60 74-60l-6-32Q84 0 61 34 45 58 45 90M-6-162L66-36h35L36-162H-6z" horiz-adv-x="219" vert-adv-y="1000"/><glyph glyph-name="uni0237" unicode="ȷ" d="M-5-80l116 582h36L31-84q-14-66-48-96-35-30-95-30l7 32q80 1 100 98z" horiz-adv-x="158" vert-adv-y="1000"/><glyph glyph-name="uni0259" unicode="ə" d="M39 251h190q24 120 24 158 0 32-15 51-15 18-43 18-32 0-56-21-28-25-40-82H65q15 74 53 107 31 28 80 28 52 0 76-37 14-22 14-62 0-45-23-160-37-188-79-227-33-32-83-32T31 27Q16 50 16 91q0 45 23 160m184-32H69Q51 132 51 92q0-68 56-68 31 0 54 22 20 19 32.5 55T223 219z" horiz-adv-x="311" vert-adv-y="1000"/><glyph glyph-name="uni02BB" unicode="ʻ" d="M131 632l16 80 56 38-24-118h-48z" horiz-adv-x="158" vert-adv-y="1000"/><glyph glyph-name="uni02BC" unicode="ʼ" d="M123 594l24 118h48l-16-80-56-38z" horiz-adv-x="158" vert-adv-y="1000"/><glyph glyph-name="uni02C6" unicode="ˆ" d="M263 707l51-126h-36l-37 95-76-95h-38l101 126h35z" horiz-adv-x="316" vert-adv-y="1000"/><glyph glyph-name="uni02C7" unicode="ˇ" d="M205 572l-51 126h36l37-95 76 95h38L240 572h-35z" horiz-adv-x="316" vert-adv-y="1000"/><glyph glyph-name="uni02D8" unicode="˘" d="M337 672q-15-52-42-74.5T223 575q-39 0-59.5 21.5T143 654q0 6 1 18h32v-10q0-55 51-55 57 0 77 65h33z" horiz-adv-x="316" vert-adv-y="1000"/><glyph glyph-name="uni02D9" unicode="˙" d="M206 609l10 50h46l-10-50h-46z" horiz-adv-x="316" vert-adv-y="1000"/><glyph glyph-name="uni02DA" unicode="˚" d="M200.5 705.5l-8.25-8.25Q184 689 184 666t16.5-39.5Q217 610 240 610t39.5 16.5Q296 643 296 666t-16.5 39.5Q263 722 240 722t-39.5-16.5m-21-100l-12.75 12.75Q154 631 154 666t25.5 60.5Q205 752 240 752t60.5-25.5Q326 701 326 666t-25.5-60.5Q275 580 240 580t-60.5 25.5z" horiz-adv-x="316" vert-adv-y="1000"/><glyph glyph-name="uni02DB" unicode="˛" d="M19-162L91-36h35L61-162H19z" horiz-adv-x="316" vert-adv-y="1000"/><glyph glyph-name="uni02DC" unicode="˜" d="M146 603l-18 22q39 34 64 34 23 0 47-18 22-16 37-16 18 0 43 24l18-22q-39-34-64-34-23 0-47 18-22 16-37 16-18 0-43-24z" horiz-adv-x="316" vert-adv-y="1000"/><glyph glyph-name="uni02DD" unicode="˝" d="M147 581l83 126h44l-86-126h-41m110 0l83 126h44l-86-126h-41z" horiz-adv-x="315" vert-adv-y="1000"/><glyph glyph-name="uni0394" unicode="Δ" d="M-46 0l285 712h34L271 0H-46m56 34h222l9 597L10 34z" horiz-adv-x="325" vert-adv-y="1000"/><glyph glyph-name="uni03A9" unicode="Ω" d="M347 356q-28-139-40-189t-26-74q-23-39-65-61h71l-6-32H161l6 28q52 23 78 71 20 36 64 257 39 195 39 248 0 82-74 82-40 0-66-25-26-26-43.5-79.5T113 356Q72 149 72 117q0-60 53-89l-6-28H-1l6 32h76Q56 49 45.5 68T35 119q0 34 40 237 37 187 56.5 244t55.5 89q35 31 90 31 58 0 85-35 24-30 24-74 0-57-39-255z" horiz-adv-x="380" vert-adv-y="1000"/><glyph glyph-name="uni03BC" unicode="μ" d="M-37-211l143 713h36L68 128q-6-29-6-43 0-31 17.5-46.5T116 23q33 0 59 25t36 80l75 374h36L222 0h-36l8 39q-12-17-29-30-22-17-57-17-40 0-63 27L-1-211h-36z" horiz-adv-x="333" vert-adv-y="1000"/><glyph glyph-name="uni03C0" unicode="π" d="M11 0l100 502h216L227 0h-36l94 470H141L47 0H11z" horiz-adv-x="338" vert-adv-y="1000"/><glyph glyph-name="uni0400" unicode="Ѐ" d="M17 0l142 712h216l-7-34H190l-60-302h153l-7-34H123L62 34h177l-6-34H17m250 763l-40 126h39l37-126h-36z" horiz-adv-x="330" vert-adv-y="1000"/><glyph glyph-name="uni0401" unicode="Ё" d="M17 0l142 712h216l-7-34H190l-60-302h153l-7-34H123L62 34h177l-6-34H17m186 784l10 50h46l-10-50h-46m116 0l10 50h46l-10-50h-46z" horiz-adv-x="330" vert-adv-y="1000"/><glyph glyph-name="uni0402" unicode="Ђ" d="M70 0l136 678h-99l6 34h260l-6-34H244l-56-274h68q60 0 87-32 26-30 26-87 0-41-7-76-23-115-60.5-162T187 0h-18l6 34h13q55 0 85 37t51 138q7 35 7 76 0 85-79 85h-70L108 0H70z" horiz-adv-x="416" vert-adv-y="1000"/><glyph glyph-name="uni0403" unicode="Ѓ" d="M17 0l142 712h211l-7-34H190L55 0H17m214 761l88 126h44l-90-126h-42z" horiz-adv-x="303" vert-adv-y="1000"/><glyph glyph-name="uni0404" unicode="Є" d="M36 106q0 52 39 250 36 180 56.5 240t53.5 90q37 34 95 34 57 0 84-36 20-27 20-76 0-18-6-48h-37q6 26 6 48 0 78-69 78-41 0-68-25-28-26-44.5-75.5T117 376h145l-7-34H110Q73 156 73 106q0-80 72-80 38 0 65 25 37 33 51 102h38q-18-91-69-132-37-29-89-29-50 0-77 29-28 31-28 85z" horiz-adv-x="358" vert-adv-y="1000"/><glyph glyph-name="uni0405" unicode="Ѕ" d="M24 173h37q-8-40-8-71t13-49q19-25 63-25 45 0 74 27 22 20 33 46t22 80q10 50 10 87 0 47-50 71l-60 29q-36 17-50.5 39.5T93 472q0 24 7 59 12 62 27 95t40 56q37 36 97 36 59 0 86-37 19-28 19-70 0-27-9-72h-37q8 40 8 71 0 30-13 49-17 25-56 25t-69-27q-21-19-32.5-46T138 531q-6-30-6-55 0-32 11.5-47.5T178 402l60-29q38-19 53.5-42.5T307 272q0-38-11-91-13-64-27.5-97T229 29Q189-6 127-6 64-6 35 30q-20 26-20 71 0 27 9 72z" horiz-adv-x="356" vert-adv-y="1000"/><glyph glyph-name="uni0406" unicode="І" d="M17 0l142 712h38L55 0H17z" horiz-adv-x="172" vert-adv-y="1000"/><glyph glyph-name="uni0407" unicode="Ї" d="M17 0l142 712h38L55 0H17m93 784l10 50h46l-10-50h-46m116 0l10 50h46l-10-50h-46z" horiz-adv-x="172" vert-adv-y="1000"/><glyph glyph-name="uni0408" unicode="Ј" d="M-28 39L2 61q25-35 66-35 84 0 109 126l112 560h38L213 142q-15-75-53-113Q123-8 66-8 2-8-28 39z" horiz-adv-x="295" vert-adv-y="1000"/><glyph glyph-name="uni0409" unicode="Љ" d="M259 0l135 678H242l-66-330q-19-94-39.5-160t-39-102Q79 50 56.5 30t-40-25Q-1 0-26 0h-10l6 34h7q24 0 40.5 8T56 79.5Q78 109 99.5 179T144 361l70 351h225l-65-324h78q60 0 87-30 26-29 26-86 0-40-8-80-23-111-63-151.5T388 0H259m45 34h83q48 0 80.5 31.5T519 192q8 40 8 80 0 42-18 62t-61 20h-80L304 34z" horiz-adv-x="614" vert-adv-y="1000"/><glyph glyph-name="uni040A" unicode="Њ" d="M233 0l70 354H126L55 0H17l142 712h38l-65-324h178l65 324h38l-65-324h78q60 0 87-30 26-29 26-86 0-40-8-80-23-111-63-151.5T362 0H233m45 34h83q48 0 80.5 31.5T493 192q8 40 8 80 0 42-18 62t-61 20h-80L278 34z" horiz-adv-x="588" vert-adv-y="1000"/><glyph glyph-name="uni040B" unicode="Ћ" d="M70 0l135 678h-99l7 34h260l-7-34H243l-55-274h63q66 0 95.5-24.5T376 298q0-22-7-53L320 0h-38l48 244q6 30 6 53 0 38-19.5 55.5T250 370h-68L108 0H70z" horiz-adv-x="422" vert-adv-y="1000"/><glyph glyph-name="uni040C" unicode="Ќ" d="M278 0L134 374l266 338h44L172 371 317 0h-39M17 0l142 712h38L55 0H17m261 761l88 126h44l-90-126h-42z" horiz-adv-x="379" vert-adv-y="1000"/><glyph glyph-name="uni040D" unicode="Ѝ" d="M17 0l142 712h38L77 114l315 598h35L285 0h-38l119 598L52 0H17m273 763l-40 126h39l37-126h-36z" horiz-adv-x="402" vert-adv-y="1000"/><glyph glyph-name="uni040E" unicode="Ў" d="M-31 0l6 34q38 0 60 15t44 62l56 117-40 484h38l32-427 196 427h43L110 95Q81 34 54 17T-31 0m211 852h33q-1-7-1-13 0-52 51-52 57 0 77 65h33q-15-52-42-74.5T259 755q-39 0-59.5 21.5T179 834q0 6 1 18z" horiz-adv-x="315" vert-adv-y="1000"/><glyph glyph-name="uni040F" unicode="Џ" d="M17 0l142 712h38L61 34h178l136 678h38L271 0H162l-29-140H97L126 0H17z" horiz-adv-x="388" vert-adv-y="1000"/><glyph glyph-name="uni0410" unicode="А" d="M273 0h-36l1 215H78L-8 0h-38l285 712h36L273 0m-35 249l4 385L92 249h146z" horiz-adv-x="325" vert-adv-y="1000"/><glyph glyph-name="uni0411" unicode="Б" d="M17 0l142 712h233l-7-34H190l-58-290h78q60 0 87-30 26-29 26-86 0-40-8-80-23-111-63-151.5T146 0H17m45 34h83q48 0 80.5 31.5T277 192q8 40 8 80 0 42-18 62t-61 20h-80L62 34z" horiz-adv-x="375" vert-adv-y="1000"/><glyph glyph-name="uni0412" unicode="В" d="M17 0l142 712h96q61 0 89-32 25-29 25-74 0-33-7-68-19-101-67-143-21-19-45-26 26-6 43-28 24-31 24-77 0-31-8-71-22-111-69-155Q199 0 120 0H17m44 34h71q54 0 87.5 35T271 193q8 40 8 67 0 91-90 91h-64L61 34m71 351h63q99 0 128 147 8 40 8 67 0 41-18.5 60T253 678h-63l-58-293z" horiz-adv-x="371" vert-adv-y="1000"/><glyph glyph-name="uni0413" unicode="Г" d="M17 0l142 712h211l-7-34H190L55 0H17z" horiz-adv-x="303" vert-adv-y="1000"/><glyph glyph-name="uni0414" unicode="Д" d="M-31 34H8q84 150 126 356l64 322h229L291 34h47l-29-147h-38L293 0H1l-23-113h-37l28 147m81 0h203l129 644H229l-58-290Q131 183 50 34z" horiz-adv-x="409" vert-adv-y="1000"/><glyph glyph-name="uni0415" unicode="Е" d="M17 0l142 712h216l-7-34H190l-60-302h153l-7-34H123L62 34h177l-6-34H17z" horiz-adv-x="330" vert-adv-y="1000"/><glyph glyph-name="uni0416" unicode="Ж" d="M-43 0l290 377-132 335h42l132-341L1 0h-44m506 0L331 370l260 342h47L373 368 501 0h-38M217 0l142 712h38L255 0h-38z" horiz-adv-x="565" vert-adv-y="1000"/><glyph glyph-name="uni0417" unicode="З" d="M38 25q-23 26-23 81 0 17 5 47h38q-5-27-5-47 0-37 14-57 18-23 57-23 44 0 71 27 23 24 34 53.5t22 82.5q10 49 10 74 0 35-16 56-19 27-55 27h-64l7 34h57q37 0 64 27 20 21 32 47t23 82q10 50 10 76 0 31-12 50-17 24-50 24-38 0-61-23-33-33-47-103h-38q18 88 58 126 37 34 90 34t79-36q19-26 19-70 0-28-10-78-12-61-24-89.5T289 392q-18-19-42-30 52-30 52-97 0-26-10-76-13-65-27.5-100T217 26Q180-8 120-8 68-8 38 25z" horiz-adv-x="351" vert-adv-y="1000"/><glyph glyph-name="uni0418" unicode="И" d="M17 0l142 712h38L77 114l315 598h35L285 0h-38l119 598L52 0H17z" horiz-adv-x="402" vert-adv-y="1000"/><glyph glyph-name="uni0419" unicode="Й" d="M17 0l142 712h38L77 114l315 598h35L285 0h-38l119 598L52 0H17m207 852h33q-1-7-1-13 0-52 51-52 57 0 77 65h33q-15-52-42-74.5T303 755q-39 0-59.5 21.5T223 834q0 6 1 18z" horiz-adv-x="402" vert-adv-y="1000"/><glyph glyph-name="uni041A" unicode="К" d="M278 0L134 374l266 338h44L172 371 317 0h-39M17 0l142 712h38L55 0H17z" horiz-adv-x="379" vert-adv-y="1000"/><glyph glyph-name="uni041B" unicode="Л" d="M-36 0l7 34h6q24 0 42 10.5T58 87q21 32 42 100t42 174l70 351h228L298 0h-38l135 678H242l-66-330q-23-115-46.5-187T80 55Q54 21 31 10.5T-26 0h-10z" horiz-adv-x="415" vert-adv-y="1000"/><glyph glyph-name="uni041C" unicode="М" d="M17 0l142 712h42l59-425 231 425h42L391 0h-38l120 605-207-382h-35l-54 388L55 0H17z" horiz-adv-x="508" vert-adv-y="1000"/><glyph glyph-name="uni041D" unicode="Н" d="M17 0l142 712h38l-67-333h178l67 333h38L271 0h-38l69 345H124L55 0H17z" horiz-adv-x="388" vert-adv-y="1000"/><glyph glyph-name="uni041E" unicode="О" d="M75 356q37 187 56.5 244t55.5 89q35 31 90 31 58 0 85-35 24-30 24-74 0-57-39-255-37-187-56.5-244T235 23Q200-8 145-8 87-8 60 27q-24 30-24 74 0 57 39 255m38 0Q74 161 74 108q0-82 74-82 40 0 66 25 26 26 43.5 79.5T309 356q39 195 39 248 0 82-74 82-40 0-66-25-26-26-43.5-79.5T113 356z" horiz-adv-x="380" vert-adv-y="1000"/><glyph glyph-name="uni041F" unicode="П" d="M17 0l142 712h254L271 0h-38l135 678H190L55 0H17z" horiz-adv-x="388" vert-adv-y="1000"/><glyph glyph-name="uni0420" unicode="Р" d="M17 0l142 712h111q57 0 85-28t28-88q0-36-8-76-22-112-62.5-152T206 328h-86L55 0H17m110 362h78q48 0 80.5 31.5T337 520q8 40 8 76 0 42-18.5 62T266 678h-76l-63-316z" horiz-adv-x="367" vert-adv-y="1000"/><glyph glyph-name="uni0421" unicode="С" d="M36 106q0 52 39 250 36 180 56.5 240t53.5 90q37 34 95 34 57 0 84-36 20-27 20-76 0-18-6-48h-37q6 26 6 48 0 78-69 78-41 0-68-25-28-27-45-78.5T113 356Q73 155 73 106q0-80 72-80 38 0 65 25 37 33 51 102h38q-18-91-69-132-37-29-89-29-50 0-77 29-28 31-28 85z" horiz-adv-x="358" vert-adv-y="1000"/><glyph glyph-name="uni0422" unicode="Т" d="M82 0l135 678H106l7 34h260l-7-34H255L120 0H82z" horiz-adv-x="302" vert-adv-y="1000"/><glyph glyph-name="uni0423" unicode="У" d="M-31 0l6 34q38 0 60 15t44 62l56 117-40 484h38l32-427 196 427h43L110 95Q81 34 54 17T-31 0z" horiz-adv-x="315" vert-adv-y="1000"/><glyph glyph-name="uni0424" unicode="Ф" d="M155-3l18 85Q51 89 51 225q0 57 20 155 24 121 54 184.5t67 87q37 23.5 99 26.5l12 57h35l-12-57q123-7 123-143 0-57-20-155-24-117-52.5-180T309 111q-39-26-102-29L190-3h-35M89 225q0-53 20.5-79.5T180 116l105 528q-74-4-110-61.5T109 380Q89 280 89 225m125-109q74 4 111 62t66 202q20 100 20 155 0 53-21 79.5T319 644L214 116z" horiz-adv-x="448" vert-adv-y="1000"/><glyph glyph-name="uni0425" unicode="Х" d="M-30 0l193 376-43 336h40l33-297 151 297h42L207 370 256 0h-40l-39 329L12 0h-42z" horiz-adv-x="326" vert-adv-y="1000"/><glyph glyph-name="uni0426" unicode="Ц" d="M17 0l142 712h38L61 34h179l136 678h38L279 34h45l-34-169h-38L279 0H17z" horiz-adv-x="396" vert-adv-y="1000"/><glyph glyph-name="uni0427" unicode="Ч" d="M228 0l54 272q-45-9-92-9-98 0-98 96 0 20 6 48l61 305h38l-60-299q-6-26-6-52 0-64 66-64 44 0 92 9l81 406h38L266 0h-38z" horiz-adv-x="383" vert-adv-y="1000"/><glyph glyph-name="uni0428" unicode="Ш" d="M17 0l142 712h38L61 34h168l136 678h38L267 34h168l136 678h38L467 0H17z" horiz-adv-x="584" vert-adv-y="1000"/><glyph glyph-name="uni0429" unicode="Щ" d="M17 0l142 712h38L61 34h168l136 678h38L267 34h168l136 678h38L474 34h45l-34-169h-38L474 0H17z" horiz-adv-x="592" vert-adv-y="1000"/><glyph glyph-name="uni042A" unicode="Ъ" d="M106 678l7 34h140l-65-324h78q60 0 87-30 26-29 26-86 0-40-8-80-23-111-63-151.5T202 0H73l135 678H106m12-644h83q48 0 80.5 31.5T333 192q8 40 8 80 0 42-18 62t-61 20h-80L118 34z" horiz-adv-x="428" vert-adv-y="1000"/><glyph glyph-name="uni042B" unicode="Ы" d="M17 0l142 712h38l-65-324h78q60 0 87-30 26-29 26-86 0-40-8-80-23-111-63-151.5T146 0H17m45 34h83q48 0 80.5 31.5T277 192q8 40 8 80 0 42-18 62t-61 20h-80L62 34M344 0l142 712h38L382 0h-38z" horiz-adv-x="499" vert-adv-y="1000"/><glyph glyph-name="uni042C" unicode="Ь" d="M17 0l142 712h38l-65-324h78q60 0 87-30 26-29 26-86 0-40-8-80-23-111-63-151.5T146 0H17m45 34h83q48 0 80.5 31.5T277 192q8 40 8 80 0 42-18 62t-61 20h-80L62 34z" horiz-adv-x="372" vert-adv-y="1000"/><glyph glyph-name="uni042D" unicode="Э" d="M141 342l7 34h145q36 183 36 230 0 80-72 80-38 0-65-25-37-33-51-101h-37q18 90 69 131 37 29 88 29 50 0 77-29 28-31 28-85 0-52-39-250-36-181-56-240.5T218 26Q181-8 122-8T36 28q-21 29-21 76 0 19 6 49h38q-6-25-6-49 0-36 16-56 19-22 55-22 41 0 68 25 28 26 44 75.5T286 342H141z" horiz-adv-x="358" vert-adv-y="1000"/><glyph glyph-name="uni042E" unicode="Ю" d="M17 0l142 712h38l-67-333h96q34 171 53 224.5t54 85.5q35 31 90 31 58 0 85-35 24-30 24-74 0-57-39-255-37-187-56.5-244T381 23Q346-8 291-8q-58 0-85 35-24 30-24 74 0 59 37 244h-95L55 0H17m242 356q-39-195-39-248 0-82 74-82 40 0 66 25 26 26 43.5 79.5T455 356q39 195 39 248 0 82-74 82-40 0-66-25-26-26-43.5-79.5T259 356z" horiz-adv-x="530" vert-adv-y="1000"/><glyph glyph-name="uni042F" unicode="Я" d="M-3 0l173 335q-57 25-57 109 0 28 9 76 23 114 62.5 153T292 712h122L272 0h-38l66 328h-96L36 0H-3m163 520q-9-45-9-76 0-43 18-62.5t60-19.5h77l64 316h-78q-48 0-80.5-31.5T160 520z" horiz-adv-x="389" vert-adv-y="1000"/><glyph glyph-name="uni0430" unicode="а" d="M26 24Q9 48 9 91q0 23 5 45 15 78 61 117 33 29 90 29h62l20 99q4 20 4 35 0 62-57 62-29 0-51-19-27-23-39-81H68q15 73 49 103 33 29 81 29 51 0 72-29 17-23 17-64 0-15-4-35L207 0h-36l8 42q-12-17-30-31Q125-8 90-8 49-8 26 24m19 67q0-67 51-67 39 0 65.5 31.5T196 126l25 126h-54q-42 0-71-25-24-21-37.5-59T45 91z" horiz-adv-x="313" vert-adv-y="1000"/><glyph glyph-name="uni0431" unicode="б" d="M49 251q41 209 61 280.5T158 640q28 36 72.5 53.5T351 712l-6-32q-59-2-96.5-15T186 618q-32-45-60-159 37 51 92 51 43 0 65-36 14-22 14-66 0-47-22-157-22-111-39-157.5T194 23Q161-8 114-8 63-8 41 27 27 49 27 94q0 47 22 157m36 0Q62 136 62 94q0-32 11-49 14-21 43-21 31 0 55 22 21 20 35 63t33 142q23 115 23 157 0 32-11 49-14 21-43 21-31 0-55-22-21-20-35-63T85 251z" horiz-adv-x="320" vert-adv-y="1000"/><glyph glyph-name="uni0432" unicode="в" d="M11 0l100 502h90q59 0 81-29 16-22 16-58 0-22-4-42-13-67-50-95-15-11-29-15 17-6 30-21 18-21 18-60 0-23-4-43-16-81-51-113-30-26-92-26H11m91 276h63q74 0 94 98 4 20 4 38 0 32-15 45.5T203 471h-62l-39-195M53 31h67q44 0 67.5 23t35.5 85q4 20 4 40 0 68-66 68H96L53 31z" horiz-adv-x="316" vert-adv-y="1000"/><glyph glyph-name="uni0433" unicode="г" d="M11 0l100 502h176l-6-32H141L47 0H11z" horiz-adv-x="251" vert-adv-y="1000"/><glyph glyph-name="uni0434" unicode="д" d="M-60-115l30 147h41q36 63 57 123t44 175l34 172h193L245 32h40l-30-147h-36L242 0H-1l-23-115h-36M49 32h160l88 438H176l-28-140q-24-118-44-177T49 32z" horiz-adv-x="353" vert-adv-y="1000"/><glyph glyph-name="uni0435" unicode="е" d="M36 29Q22 51 22 91q0 45 23 160 37 188 79 227 33 32 83 32t72-35q15-23 15-64 0-45-23-160H81Q57 131 57 93q0-32 15-51 15-18 42-18 33 0 56 20 28 25 40 83h35q-15-74-53-107-31-28-81-28-51 0-75 37m51 254h154q18 87 18 127 0 68-56 68-31 0-54-22-20-19-32.5-55T87 283z" horiz-adv-x="311" vert-adv-y="1000"/><glyph glyph-name="uni0436" unicode="ж" d="M-43 0l218 267L72 502h37l104-241L1 0h-44m404 0L253 259l200 243h43L291 258 398 0h-37M163 0l100 502h36L199 0h-36z" horiz-adv-x="462" vert-adv-y="1000"/><glyph glyph-name="uni0437" unicode="з" d="M7 120h35q-3-15-3-30 0-66 58-66 80 0 102 108 5 25 5 46 0 29-18 47-17 17-53 17H92l6 32h40q36 0 58 18 29 24 41 81 5 28 5 44 0 28-15.5 44.5T185 478q-31 0-51-18-31-26-41-79H59q14 69 49 99 33 30 80 30 43 0 68-28 21-24 21-61 0-24-5-49-11-54-41-85-16-17-41-28 19-8 30-22 20-23 20-55 0-26-5-51-10-50-24-75t-38-42Q143-8 94-8T24 18Q3 40 3 87q0 14 4 33z" horiz-adv-x="295" vert-adv-y="1000"/><glyph glyph-name="uni0438" unicode="и" d="M11 0l100 502h36L64 88l243 414h34L241 0h-36l83 414L45 0H11z" horiz-adv-x="352" vert-adv-y="1000"/><glyph glyph-name="uni0439" unicode="й" d="M11 0l100 502h36L64 88l243 414h34L241 0h-36l83 414L45 0H11m147 672h33q-1-7-1-13 0-52 51-52 57 0 77 65h33q-15-52-42-74.5T237 575q-39 0-59.5 21.5T157 654q0 6 1 18z" horiz-adv-x="352" vert-adv-y="1000"/><glyph glyph-name="uni043A" unicode="к" d="M212 0L102 260l198 242h40L140 258 250 0h-38M11 0l100 502h36L47 0H11z" horiz-adv-x="313" vert-adv-y="1000"/><glyph glyph-name="uni043B" unicode="л" d="M-36 0l6 31h4q41 0 66 39t44 133l60 299h193L237 0h-36l93 470H173l-56-281Q97 86 64.5 43T-27 0h-9z" horiz-adv-x="348" vert-adv-y="1000"/><glyph glyph-name="uni043C" unicode="м" d="M11 0l100 502h36l56-304 182 304h36L321 0h-36l83 415-157-258h-31l-49 264L47 0H11z" horiz-adv-x="432" vert-adv-y="1000"/><glyph glyph-name="uni043D" unicode="н" d="M11 0l100 502h36l-46-228h140l46 228h36L223 0h-36l48 242H95L47 0H11z" horiz-adv-x="334" vert-adv-y="1000"/><glyph glyph-name="uni043E" unicode="о" d="M81 251Q58 136 58 94q0-32 11-49 14-21 43-21 31 0 55 22 21 20 35 63t33 142q23 115 23 157 0 32-11 49-14 21-43 21-31 0-55-22-21-20-35-63T81 251m-36 0q22 111 39 157.5t42 70.5q33 31 80 31 51 0 73-35 14-22 14-67 0-47-22-157-22-111-39-157.5T190 23Q157-8 110-8 59-8 37 27 23 49 23 94q0 47 22 157z" horiz-adv-x="316" vert-adv-y="1000"/><glyph glyph-name="uni043F" unicode="п" d="M11 0l100 502h212L223 0h-36l94 470H141L47 0H11z" horiz-adv-x="334" vert-adv-y="1000"/><glyph glyph-name="uni0440" unicode="р" d="M111 502h36l-7-35q11 15 28 27 23 16 55 16 43 0 67-34 16-24 16-65 0-45-23-160-21-107-37-155t-42-72Q169-8 127-8 92-8 73 11 59 25 55 39L5-210h-36l142 712m136-251q23 115 23 159 0 29-10 45-15 23-44 23-28 0-53-20-30-27-41-80L72 124q-3-19-3-34 0-31 14-48 15-18 42-18 28 0 54 23 21 18 35 62.5T247 251z" horiz-adv-x="327" vert-adv-y="1000"/><glyph glyph-name="uni0441" unicode="с" d="M44 251q37 187 80 227 34 32 83 32 51 0 72-29 17-24 17-59 0-20-6-47h-34q5 25 5 43 0 29-13 43-15 17-44 17-30 0-56-23-21-19-35-63T80 251Q56 129 56 92q0-41 21-57 14-11 38-11 32 0 53 20 28 25 40 83h35q-16-75-49-104-34-31-83-31-38 0-61 19-29 24-29 80 0 45 23 160z" horiz-adv-x="302" vert-adv-y="1000"/><glyph glyph-name="uni0442" unicode="т" d="M59 0l94 470H58l6 32h226l-6-32h-95L95 0H59z" horiz-adv-x="254" vert-adv-y="1000"/><glyph glyph-name="uni0443" unicode="у" d="M-84-178q70 0 100 71L63 2l-9 500h36l3-436 177 436h39L52-110q-24-56-57-78t-86-22l7 32z" horiz-adv-x="262" vert-adv-y="1000"/><glyph glyph-name="uni0444" unicode="ф" d="M48 34q-23 27-23 79 0 47 19 138 20 102 38.5 148.5T133 472q43 35 111 36l41 204h36l-41-204q57-1 91-39 26-28 26-82 0-38-19-136-20-101-40-149.5T287 28Q247-5 177-6l-41-204h-36L141-6Q81-5 48 34m136-8q46 0 78 26 29 23 45 64.5T342 251q19 95 19 133 0 42-20 65-22 26-67 26L184 26M80 52q22-26 68-26l90 449q-46 0-79-26-28-22-44-63.5T80 251q-19-97-19-136 0-41 19-63z" horiz-adv-x="422" vert-adv-y="1000"/><glyph glyph-name="uni0445" unicode="х" d="M-28 0l148 258-46 244h36l36-211 121 211h36L158 254 209 0h-36l-42 220L8 0h-36z" horiz-adv-x="276" vert-adv-y="1000"/><glyph glyph-name="uni0446" unicode="ц" d="M11 0l100 502h36L53 32h140l94 470h36L229 32h41l-30-147h-36L227 0H11z" horiz-adv-x="337" vert-adv-y="1000"/><glyph glyph-name="uni0447" unicode="ч" d="M151 0l36 180q-36-8-70-8-37 0-56 20t-19 54q0 14 4 34l44 222h36L81 279q-3-17-3-29 0-46 45-46 34 0 70 7l58 291h36L187 0h-36z" horiz-adv-x="298" vert-adv-y="1000"/><glyph glyph-name="uni0448" unicode="ш" d="M11 0l100 502h36L53 32h121l94 470h36L210 32h121l94 470h36L361 0H11z" horiz-adv-x="472" vert-adv-y="1000"/><glyph glyph-name="uni0449" unicode="щ" d="M11 0l100 502h36L53 32h121l94 470h36L210 32h121l94 470h36L367 32h40l-30-147h-36L364 0H11z" horiz-adv-x="475" vert-adv-y="1000"/><glyph glyph-name="uni044A" unicode="ъ" d="M58 470l6 32h117l-44-219h64q47 0 70-26 22-23 22-71 0-22-5-47-15-75-47-107T151 0H45l93 470H58M87 32h65q41 0 65 25.5t35 81.5q5 25 5 43 0 69-61 69h-65L87 32z" horiz-adv-x="339" vert-adv-y="1000"/><glyph glyph-name="uni044B" unicode="ы" d="M279 0l100 502h36L315 0h-36M11 0l100 502h36l-44-219h64q47 0 70-26 22-23 22-71 0-22-5-47-15-75-47-107T117 0H11m42 32h65q41 0 65 25.5t35 81.5q5 25 5 43 0 69-61 69H97L53 32z" horiz-adv-x="426" vert-adv-y="1000"/><glyph glyph-name="uni044C" unicode="ь" d="M11 0l100 502h36l-44-219h64q47 0 70-26 22-23 22-71 0-22-5-47-15-75-47-107T117 0H11m42 32h65q41 0 65 25.5t35 81.5q5 25 5 43 0 69-61 69H97L53 32z" horiz-adv-x="305" vert-adv-y="1000"/><glyph glyph-name="uni044D" unicode="э" d="M256 251q-20-102-37.5-153T177 24Q143-8 93-8 49-8 27 14 3 38 3 80q0 17 4 40h35q-3-18-3-36 0-29 13-43 15-17 44-17 30 0 56 23 20 19 34 61.5T218 242H89l6 32h129q20 105 20 136 0 41-21 57-14 11-38 11-32 0-53-20-28-24-39-77H59q14 68 48 98 34 31 82 31 37 0 60-19 30-25 30-80 0-45-23-160z" horiz-adv-x="302" vert-adv-y="1000"/><glyph glyph-name="uni044E" unicode="ю" d="M11 0l100 502h36l-46-228h75q21 97 37 139.5t40 65.5q33 31 80 31 51 0 73-35 14-22 14-67 0-47-22-157-22-111-39-157.5T317 23Q284-8 237-8q-51 0-73 35-14 22-14 67 0 48 20 148H95L47 0H11m197 251q-23-115-23-157 0-32 11-49 14-21 43-21 31 0 55 22 21 20 35 63t33 142q23 115 23 157 0 32-11 49-14 21-43 21-31 0-55-22-21-20-35-63t-33-142z" horiz-adv-x="443" vert-adv-y="1000"/><glyph glyph-name="uni044F" unicode="я" d="M-23 0l124 235q-43 21-43 81 0 22 5 47 16 76 47.5 107.5T201 502h96L197 0h-36l45 226h-72L17 0h-40m235 257l43 213h-56q-43 0-66-25t-34-82q-5-22-5-41 0-65 62-65h56z" horiz-adv-x="308" vert-adv-y="1000"/><glyph glyph-name="uni0450" unicode="ѐ" d="M36 29Q22 51 22 91q0 45 23 160 37 188 79 227 33 32 83 32t72-35q15-23 15-64 0-45-23-160H81Q57 131 57 93q0-32 15-51 15-18 42-18 33 0 56 20 28 25 40 83h35q-15-74-53-107-31-28-81-28-51 0-75 37m51 254h154q18 87 18 127 0 68-56 68-31 0-54-22-20-19-32.5-55T87 283m124 300l-40 126h39l37-126h-36z" horiz-adv-x="311" vert-adv-y="1000"/><glyph glyph-name="uni0451" unicode="ё" d="M36 29Q22 51 22 91q0 45 23 160 37 188 79 227 33 32 83 32t72-35q15-23 15-64 0-45-23-160H81Q57 131 57 93q0-32 15-51 15-18 42-18 33 0 56 20 28 25 40 83h35q-15-74-53-107-31-28-81-28-51 0-75 37m51 254h154q18 87 18 127 0 68-56 68-31 0-54-22-20-19-32.5-55T87 283m60 321l10 50h46l-10-50h-46m116 0l10 50h46l-10-50h-46z" horiz-adv-x="311" vert-adv-y="1000"/><glyph glyph-name="uni0452" unicode="ђ" d="M72 588l6 30h56l19 94h36l-19-94h135l-6-30H164l-25-125q12 17 29 30 22 17 57 17 45 0 67-35 15-23 15-56 0-17-6-45L214-68q-12-59-45-89-30-28-87-28l7 32q72 0 88 83l88 444q5 22 5 44 0 25-14 42.5T213 478q-31 0-56-25t-36-79L47 0H11l117 588H72z" horiz-adv-x="333" vert-adv-y="1000"/><glyph glyph-name="uni0453" unicode="ѓ" d="M11 0l100 502h176l-6-32H141L47 0H11m167 581l88 126h44l-90-126h-42z" horiz-adv-x="251" vert-adv-y="1000"/><glyph glyph-name="uni0454" unicode="є" d="M44 251q37 187 80 227 34 32 83 32 51 0 72-29 17-24 17-59 0-20-6-47h-34q5 25 5 43 0 29-13 43-15 17-44 17-30 0-56-23-19-18-33-58T84 274h129l-6-32H78Q56 130 56 92q0-41 21-57 14-11 38-11 32 0 53 20 28 25 40 83h35q-16-75-49-104-34-31-83-31-38 0-61 19-29 24-29 80 0 45 23 160z" horiz-adv-x="302" vert-adv-y="1000"/><glyph glyph-name="uni0455" unicode="ѕ" d="M23 27Q3 51 3 92q0 21 4 41h36q-4-20-4-39 0-30 14-47 18-23 52-23 37 0 63 23 39 36 39 103 0 49-45 83l-46 35q-56 43-56 95 0 76 51 119 34 28 81 28 53 0 78-34 18-25 18-61 0-19-5-44h-35q5 25 5 42 0 27-12 43-17 22-51 22-33 0-56-20-38-33-38-92 0-40 40-70l47-35q33-25 46.5-48.5T243 153q0-84-52-130-35-31-89-31-52 0-79 35z" horiz-adv-x="298" vert-adv-y="1000"/><glyph glyph-name="uni0456" unicode="і" d="M11 0l100 502h36L47 0H11m118 633l10 51h52l-10-51h-52z" horiz-adv-x="158" vert-adv-y="1000"/><glyph glyph-name="uni0457" unicode="ї" d="M11 0l100 502h36L47 0H11m58 604l10 50h46l-10-50H69m116 0l10 50h46l-10-50h-46z" horiz-adv-x="158" vert-adv-y="1000"/><glyph glyph-name="uni0458" unicode="ј" d="M-5-80l116 582h36L31-84q-14-66-48-96-35-30-95-30l7 32q80 1 100 98m134 713l10 51h52l-10-51h-52z" horiz-adv-x="158" vert-adv-y="1000"/><glyph glyph-name="uni0459" unicode="љ" d="M201 0l93 470H175l-57-281Q96 82 60.5 41T-27 0h-9l6 32h6q14 0 25.5 5T29 57.5Q45 73 59.5 110T85 203l60 299h192l-44-219h64q47 0 70-26 22-23 22-71 0-22-5-47-15-75-47-107T307 0H201m42 32h65q41 0 65 25.5t35 81.5q5 25 5 43 0 69-61 69h-65L243 32z" horiz-adv-x="495" vert-adv-y="1000"/><glyph glyph-name="uni045A" unicode="њ" d="M187 0l50 251H97L47 0H11l100 502h36l-44-219h140l44 219h36l-44-219h64q47 0 70-26 22-23 22-71 0-22-5-47-15-75-47-107T293 0H187m42 32h65q41 0 65 25.5t35 81.5q5 25 5 43 0 69-61 69h-65L229 32z" horiz-adv-x="481" vert-adv-y="1000"/><glyph glyph-name="uni045B" unicode="ћ" d="M72 588l6 30h56l19 94h36l-19-94h135l-6-30H164l-25-125q12 17 29 30 22 17 57 17 45 0 67-35 15-23 15-56 0-17-6-45L227 0h-36l74 374q5 22 5 44 0 25-14 42.5T213 478q-31 0-56-25t-36-79L47 0H11l117 588H72z" horiz-adv-x="333" vert-adv-y="1000"/><glyph glyph-name="uni045C" unicode="ќ" d="M212 0L102 260l198 242h40L140 258 250 0h-38M11 0l100 502h36L47 0H11m190 581l88 126h44l-90-126h-42z" horiz-adv-x="313" vert-adv-y="1000"/><glyph glyph-name="uni045D" unicode="ѝ" d="M11 0l100 502h36L64 88l243 414h34L241 0h-36l83 414L45 0H11m213 583l-40 126h39l37-126h-36z" horiz-adv-x="352" vert-adv-y="1000"/><glyph glyph-name="uni045E" unicode="ў" d="M-84-178q70 0 100 71L63 2l-9 500h36l3-436 177 436h39L52-110q-24-56-57-78t-86-22l7 32m203 850h33q-1-7-1-13 0-52 51-52 57 0 77 65h33q-15-52-42-74.5T198 575q-39 0-59.5 21.5T118 654q0 6 1 18z" horiz-adv-x="262" vert-adv-y="1000"/><glyph glyph-name="uni045F" unicode="џ" d="M11 0l100 502h36L53 31h140l94 471h36L223 0h-88l-25-120H74L99 0H11z" horiz-adv-x="334" vert-adv-y="1000"/><glyph glyph-name="uni0462" unicode="Ѣ" d="M102 564l6 32h51l23 116h38l-23-116h92l-6-32h-93l-35-176h78q60 0 87-30 26-29 26-86 0-40-8-80-23-111-63-151.5T169 0H40l112 564h-50M85 34h83q48 0 80.5 31.5T300 192q8 40 8 80 0 42-18 62t-61 20h-80L85 34z" horiz-adv-x="395" vert-adv-y="1000"/><glyph glyph-name="uni0463" unicode="ѣ" d="M28 0l78 393H50l6 30h56l16 79h36l-16-79h85l-6-30h-85l-22-110h64q47 0 70-26 22-23 22-71 0-22-5-47-15-75-47-107T134 0H28m42 32h65q41 0 65 25.5t35 81.5q5 25 5 43 0 69-61 69h-65L70 32z" horiz-adv-x="322" vert-adv-y="1000"/><glyph glyph-name="uni0472" unicode="Ѳ" d="M75 356q37 187 56.5 244t55.5 89q35 31 90 31 58 0 85-35 24-30 24-74 0-57-39-255-37-187-56.5-244T235 23Q200-8 145-8 87-8 60 27q-24 30-24 74 0 57 39 255M214 51q25 25 42 77t50 214H110Q74 161 74 108q0-82 74-82 40 0 66 25m60 635q-40 0-66-25t-43-76.5Q148 533 117 376h196q35 176 35 228 0 82-74 82z" horiz-adv-x="380" vert-adv-y="1000"/><glyph glyph-name="uni0473" unicode="ѳ" d="M45 251q22 111 39 157.5t42 70.5q33 31 80 31 51 0 73-35 14-22 14-67 0-47-22-157-22-111-39-157.5T190 23Q157-8 110-8 59-8 37 27 23 49 23 94q0 47 22 157m36 0Q58 136 58 94q0-32 11-49 14-21 43-21 31 0 55 22 21 20 35 63t33 142H81m68 205q-19-19-32.5-56T87 283h154q17 88 17 125 0 32-11 49-14 21-43 21-31 0-55-22z" horiz-adv-x="316" vert-adv-y="1000"/><glyph glyph-name="uni0474" unicode="Ѵ" d="M94 0l2 712h38l-6-631 208 533q20 52 51.5 75t82.5 23h5l-7-34q-37 0-60-17.5T369 601L132 0H94z" horiz-adv-x="393" vert-adv-y="1000"/><glyph glyph-name="uni0475" unicode="ѵ" d="M360 470h-2q-66 0-94-69L98 0H62l-8 502h36l1-439 142 349q36 90 129 90h4l-6-32z" horiz-adv-x="330" vert-adv-y="1000"/><glyph glyph-name="uni0490" unicode="Ґ" d="M17 0l142 712h173l14 72h38l-21-106H190L55 0H17z" horiz-adv-x="303" vert-adv-y="1000"/><glyph glyph-name="uni0491" unicode="ґ" d="M11 0l100 502h140l21 106h36l-27-138H141L47 0H11z" horiz-adv-x="251" vert-adv-y="1000"/><glyph glyph-name="uni0492" unicode="Ғ" d="M59 343l6 32h50l67 337h211l-7-34H213l-61-303h95l-6-32h-95L78 0H40l68 343H59z" horiz-adv-x="328" vert-adv-y="1000"/><glyph glyph-name="uni0493" unicode="ғ" d="M304 502l-6-32H158l-40-197h85l-6-30h-85L64 0H28l48 243H19l6 30h57l46 229h176z" horiz-adv-x="268" vert-adv-y="1000"/><glyph glyph-name="uni0496" unicode="Җ" d="M463 0L331 370l260 342h47L373 368 489 34h20l-34-169h-38L464 0h-1M-43 0l290 377-131 335h41l132-341L1 0h-44m260 0l142 712h38L255 0h-38z" horiz-adv-x="566" vert-adv-y="1000"/><glyph glyph-name="uni0497" unicode="җ" d="M361 0L253 259l200 243h43L291 258l94-226h22l-30-147h-36L364 0h-3M-43 0l218 267L72 502h37l104-241L1 0h-44m206 0l100 502h36L199 0h-36z" horiz-adv-x="464" vert-adv-y="1000"/><glyph glyph-name="uni049A" unicode="Қ" d="M278 0L134 374l266 338h44L172 371 303 34h25l-34-169h-38L283 0h-5M17 0l142 712h38L55 0H17z" horiz-adv-x="384" vert-adv-y="1000"/><glyph glyph-name="uni049B" unicode="қ" d="M212 0L102 260l198 242h40L140 258l97-226h21l-30-147h-36L216 0h-4M11 0l100 502h36L47 0H11z" horiz-adv-x="315" vert-adv-y="1000"/><glyph glyph-name="uni049C" unicode="Ҝ" d="M17 0l142 712h38l-64-322h33l21 109h34l-21-109h22l217 322h47L250 373 360 0h-43l-99 356h-25l-22-109h-34l22 109h-33L55 0H17z" horiz-adv-x="421" vert-adv-y="1000"/><glyph glyph-name="uni049D" unicode="ҝ" d="M11 0l100 502h36l-45-226h27l22 109h32l-22-109h20l160 226h44L211 263 294 0h-38l-76 244h-26l-21-109h-32l21 109H95L47 0H11z" horiz-adv-x="356" vert-adv-y="1000"/><glyph glyph-name="uni04A2" unicode="Ң" d="M17 0l142 712h38l-67-333h178l67 333h38L278 34h17l-34-169h-38L250 0h-17l69 345H124L55 0H17z" horiz-adv-x="388" vert-adv-y="1000"/><glyph glyph-name="uni04A3" unicode="ң" d="M11 0l100 502h36l-46-228h140l46 228h36L229 32h17l-30-147h-36L203 0h-16l48 242H95L47 0H11z" horiz-adv-x="334" vert-adv-y="1000"/><glyph glyph-name="uni04AE" unicode="Ү" d="M66 0l62 310-32 402h39l23-345 158 345h43L164 299 104 0H66z" horiz-adv-x="271" vert-adv-y="1000"/><glyph glyph-name="uni04AF" unicode="ү" d="M19-210L62 2l-8 500h37V63l175 439h40L98 3 55-210H19z" horiz-adv-x="263" vert-adv-y="1000"/><glyph glyph-name="uni04B0" unicode="Ұ" d="M51 278l6 32h71L96 712h39l23-345 158 345h43L166 310h71l-6-32h-71L104 0H66l56 278H51z" horiz-adv-x="271" vert-adv-y="1000"/><glyph glyph-name="uni04B1" unicode="ұ" d="M19-210L56-27h-71l6 30h71l-8 499h37V63l175 439h40L98 3h71l-6-30H92L55-210H19z" horiz-adv-x="263" vert-adv-y="1000"/><glyph glyph-name="uni04B2" unicode="Ҳ" d="M195-135L222 0h-6l-39 329L12 0h-42l193 376-43 336h40l33-297 151 297h42L207 370l44-336h16l-34-169h-38z" horiz-adv-x="326" vert-adv-y="1000"/><glyph glyph-name="uni04B3" unicode="ҳ" d="M153-115L176 0h-3l-42 220L8 0h-36l148 258-46 244h36l36-211 121 211h36L158 254l45-222h16l-30-147h-36z" horiz-adv-x="279" vert-adv-y="1000"/><glyph glyph-name="uni04B6" unicode="Ҷ" d="M228 0l54 272q-45-9-92-9-98 0-98 96 0 20 6 48l61 305h38l-60-299q-6-26-6-52 0-64 66-64 44 0 92 9l81 406h38L273 34h17l-34-169h-38L245 0h-17z" horiz-adv-x="383" vert-adv-y="1000"/><glyph glyph-name="uni04B7" unicode="ҷ" d="M151 0l36 180q-36-8-70-8-37 0-56 20t-19 54q0 14 4 34l44 222h36L81 279q-3-17-3-29 0-46 45-46 34 0 70 7l58 291h36L193 32h18l-30-147h-36L168 0h-17z" horiz-adv-x="298" vert-adv-y="1000"/><glyph glyph-name="uni04B8" unicode="Ҹ" d="M267 0h-38l54 272q-35-7-72-9l-20-103h-33l20 103q-85 7-85 96 0 20 6 48l61 305h38l-60-299q-6-26-6-52 0-58 53-64l21 105h33l-21-105q34 1 72 9l81 406h38L267 0z" horiz-adv-x="383" vert-adv-y="1000"/><glyph glyph-name="uni04B9" unicode="ҹ" d="M151 0l36 180q-32-7-50-8L115 64H84l22 108q-64 6-64 74 0 14 4 34l44 222h36L81 279q-3-17-3-29 0-41 34-46l22 108h31l-22-108q26 2 50 7l58 291h36L187 0h-36z" horiz-adv-x="298" vert-adv-y="1000"/><glyph glyph-name="uni04BA" unicode="Һ" d="M17 0l142 712h38l-55-273q45 10 93 10 43 0 70.5-22.5T333 354q0-20-7-53L266 0h-38l60 302q6 28 6 48 0 65-66 65-44 0-92-9L55 0H17z" horiz-adv-x="383" vert-adv-y="1000"/><glyph glyph-name="uni04BB" unicode="һ" d="M11 0l100 502h36l-36-180q35 8 69 8 33 0 54.5-18t21.5-56q0-10-4-34L208 0h-36l44 223q3 18 3 30 0 45-45 45-33 0-69-7L47 0H11z" horiz-adv-x="298" vert-adv-y="1000"/><glyph glyph-name="uni04C0" unicode="Ӏ" d="M17 0l142 712h38L55 0H17z" horiz-adv-x="172" vert-adv-y="1000"/><glyph glyph-name="uni04CF" unicode="ӏ" d="M11 0l142 712h36L47 0H11z" horiz-adv-x="158" vert-adv-y="1000"/><glyph glyph-name="uni04D8" unicode="Ә" d="M75 376h234q35 178 35 228 0 82-75 82-41 0-68-25-34-31-50-101h-37q20 92 69 131 37 29 88 29 56 0 86-35 25-30 25-74 0-57-39-255-37-187-56.5-244T231 23Q196-8 141-8 83-8 56 27q-24 30-24 74 0 57 43 275m227-34H106Q70 161 70 108q0-82 74-82 40 0 66 25 25 25 42 77t50 214z" horiz-adv-x="376" vert-adv-y="1000"/><glyph glyph-name="uni04D9" unicode="ә" d="M39 251h190q24 120 24 158 0 32-15 51-15 18-43 18-32 0-56-21-28-25-40-82H65q15 74 53 107 31 28 80 28 52 0 76-37 14-22 14-62 0-45-23-160-37-188-79-227-33-32-83-32T31 27Q16 50 16 91q0 45 23 160m184-32H69Q51 132 51 92q0-68 56-68 31 0 54 22 20 19 32.5 55T223 219z" horiz-adv-x="311" vert-adv-y="1000"/><glyph glyph-name="uni04E2" unicode="Ӣ" d="M17 0l142 712h38L77 114l315 598h35L285 0h-38l119 598L52 0H17m199 794l7 34h186l-7-34H216z" horiz-adv-x="402" vert-adv-y="1000"/><glyph glyph-name="uni04E3" unicode="ӣ" d="M11 0l100 502h36L64 88l243 414h34L241 0h-36l83 414L45 0H11m139 614l7 34h186l-7-34H150z" horiz-adv-x="352" vert-adv-y="1000"/><glyph glyph-name="uni04E8" unicode="Ө" d="M75 356q37 187 56.5 244t55.5 89q35 31 90 31 58 0 85-35 24-30 24-74 0-57-39-255-37-187-56.5-244T235 23Q200-8 145-8 87-8 60 27q-24 30-24 74 0 57 39 255M214 51q25 25 42 77t50 214H110Q74 161 74 108q0-82 74-82 40 0 66 25m60 635q-40 0-66-25t-43-76.5Q148 533 117 376h196q35 176 35 228 0 82-74 82z" horiz-adv-x="380" vert-adv-y="1000"/><glyph glyph-name="uni04E9" unicode="ө" d="M45 251q22 111 39 157.5t42 70.5q33 31 80 31 51 0 73-35 14-22 14-67 0-47-22-157-22-111-39-157.5T190 23Q157-8 110-8 59-8 37 27 23 49 23 94q0 47 22 157m36 0Q58 136 58 94q0-32 11-49 14-21 43-21 31 0 55 22 21 20 35 63t33 142H81m68 205q-19-19-32.5-56T87 283h154q17 88 17 125 0 32-11 49-14 21-43 21-31 0-55-22z" horiz-adv-x="316" vert-adv-y="1000"/><glyph glyph-name="uni04EE" unicode="Ӯ" d="M-31 0l6 34q38 0 60 15t44 62l56 117-40 484h38l32-427 196 427h43L110 95Q81 34 54 17T-31 0m203 794l7 34h186l-7-34H172z" horiz-adv-x="315" vert-adv-y="1000"/><glyph glyph-name="uni04EF" unicode="ӯ" d="M-84-178q70 0 100 71L63 2l-9 500h36l3-436 177 436h39L52-110q-24-56-57-78t-86-22l7 32m195 792l7 34h186l-7-34H111z" horiz-adv-x="262" vert-adv-y="1000"/><glyph glyph-name="uni1E80" unicode="Ẁ" d="M58 0l48 712h38L96 84l241 628h38l-6-628 199 628h38L372 0h-38l6 630L96 0H58m294 763l-40 126h39l37-126h-36z" horiz-adv-x="528" vert-adv-y="1000"/><glyph glyph-name="uni1E81" unicode="ẁ" d="M48 0l16 502h36L80 66l168 436h38l-9-436 157 436h36L284 0h-39l10 440L87 0H48m217 583l-40 126h39l37-126h-36z" horiz-adv-x="436" vert-adv-y="1000"/><glyph glyph-name="uni1E82" unicode="Ẃ" d="M58 0l48 712h38L96 84l241 628h38l-6-628 199 628h38L372 0h-38l6 630L96 0H58m284 761l88 126h44l-90-126h-42z" horiz-adv-x="528" vert-adv-y="1000"/><glyph glyph-name="uni1E83" unicode="ẃ" d="M48 0l16 502h36L80 66l168 436h38l-9-436 157 436h36L284 0h-39l10 440L87 0H48m207 581l88 126h44l-90-126h-42z" horiz-adv-x="436" vert-adv-y="1000"/><glyph glyph-name="uni1E84" unicode="Ẅ" d="M58 0l48 712h38L96 84l241 628h38l-6-628 199 628h38L372 0h-38l6 630L96 0H58m230 784l10 50h46l-10-50h-46m116 0l10 50h46l-10-50h-46z" horiz-adv-x="528" vert-adv-y="1000"/><glyph glyph-name="uni1E85" unicode="ẅ" d="M48 0l16 502h36L80 66l168 436h38l-9-436 157 436h36L284 0h-39l10 440L87 0H48m153 604l10 50h46l-10-50h-46m116 0l10 50h46l-10-50h-46z" horiz-adv-x="436" vert-adv-y="1000"/><glyph glyph-name="uni1E8A" unicode="Ẋ" d="M-30 0l193 376-43 336h40l33-297 151 297h42L207 370 256 0h-40l-39 329L12 0h-42m275 789l10 50h46l-10-50h-46z" horiz-adv-x="326" vert-adv-y="1000"/><glyph glyph-name="uni1E8B" unicode="ẋ" d="M-28 0l148 258-46 244h36l36-211 121 211h36L158 254 209 0h-36l-42 220L8 0h-36m212 609l10 50h46l-10-50h-46z" horiz-adv-x="276" vert-adv-y="1000"/><glyph glyph-name="uni1EF2" unicode="Ỳ" d="M66 0l62 310-32 402h39l23-345 158 345h43L164 299 104 0H66m160 763l-40 126h39l37-126h-36z" horiz-adv-x="271" vert-adv-y="1000"/><glyph glyph-name="uni1EF3" unicode="ỳ" d="M-84-178q70 0 100 71L63 2l-9 500h36l3-436 177 436h39L52-110q-24-56-57-78t-86-22l7 32m269 761l-40 126h39l37-126h-36z" horiz-adv-x="262" vert-adv-y="1000"/><glyph glyph-name="uni2013" unicode="–" d="M48 256l7 34h302l-7-34H48z" horiz-adv-x="396" vert-adv-y="1000"/><glyph glyph-name="uni2014" unicode="—" d="M48 256l7 34h506l-7-34H48z" horiz-adv-x="600" vert-adv-y="1000"/><glyph glyph-name="uni2015" unicode="―" d="M48 256l7 34h506l-7-34H48z" horiz-adv-x="600" vert-adv-y="1000"/><glyph glyph-name="uni2018" unicode="‘" d="M131 632l16 80 56 38-24-118h-48z" horiz-adv-x="158" vert-adv-y="1000"/><glyph glyph-name="uni2019" unicode="’" d="M123 594l24 118h48l-16-80-56-38z" horiz-adv-x="158" vert-adv-y="1000"/><glyph glyph-name="uni201A" unicode="‚" d="M-3-38L21 80h48L53 0-3-38z" horiz-adv-x="158" vert-adv-y="1000"/><glyph glyph-name="uni201C" unicode="“" d="M131 632l16 80 56 38-24-118h-48m120 0l16 80 56 38-24-118h-48z" horiz-adv-x="278" vert-adv-y="1000"/><glyph glyph-name="uni201D" unicode="”" d="M123 594l24 118h48l-16-80-56-38m120 0l24 118h48l-16-80-56-38z" horiz-adv-x="278" vert-adv-y="1000"/><glyph glyph-name="uni201E" unicode="„" d="M-7-58L17 60h48L49-20-7-58m120 0l24 118h48l-16-80-56-38z" horiz-adv-x="278" vert-adv-y="1000"/><glyph glyph-name="uni2020" unicode="†" d="M134 0l94 470H91l6 32h137l42 210h36l-42-210h137l-6-32H264L170 0h-36z" horiz-adv-x="404" vert-adv-y="1000"/><glyph glyph-name="uni2021" unicode="‡" d="M-3 0l6 32h137l88 438H91l6 32h137l42 210h36l-42-210h137l-6-32H264L176 32h137l-6-32H170l-43-210H91L134 0H-3z" horiz-adv-x="404" vert-adv-y="1000"/><glyph glyph-name="uni2022" unicode="•" d="M124 223l-23 23q-23 23-23 88t46 111q46 46 111 46t111-46q46-46 46-111t-46-111q-46-46-111-46t-111 46z" horiz-adv-x="438" vert-adv-y="1000"/><glyph glyph-name="uni2026" unicode="…" d="M10 0l11 58h54L64 0H10m151 0l11 58h54L215 0h-54m151 0l11 58h54L366 0h-54z" horiz-adv-x="476" vert-adv-y="1000"/><glyph glyph-name="uni2030" unicode="‰" d="M567 84q-3-15-3-24 0-40 43-40 46 0 58 60l39 194q3 15 3 24 0 40-43 40-46 0-58-60L567 84m-33 0l38 190q18 92 96 92 36 0 54-18.5t18-48.5q0-10-3-25L699 84Q681-8 603-8q-36 0-54 18.5T531 59q0 10 3 25M124 438q-3-15-3-24 0-40 43-40 46 0 58 60l39 194q3 15 3 24 0 40-43 40-46 0-58-60l-39-194m-33 0l38 190q18 92 96 92 36 0 54-18.5t18-48.5q0-10-3-25l-38-190q-18-92-96-92-36 0-54 18.5T88 413q0 10 3 25M328 84q-3-15-3-24 0-40 43-40 46 0 58 60l39 194q3 15 3 24 0 40-43 40-46 0-58-60L328 84m-33 0l38 190q18 92 96 92 36 0 54-18.5t18-48.5q0-10-3-25L460 84Q442-8 364-8q-36 0-54 18.5T292 59q0 10 3 25M88 0l378 712h32L120 0H88z" horiz-adv-x="787" vert-adv-y="1000"/><glyph glyph-name="uni2039" unicode="‹" d="M110 69L31 265l158 196-16-78L73 260l51-122-14-69z" horiz-adv-x="201" vert-adv-y="1000"/><glyph glyph-name="uni203A" unicode="›" d="M18 69l16 78 100 123-51 122 14 69 79-196L18 69z" horiz-adv-x="201" vert-adv-y="1000"/><glyph glyph-name="uni2044" unicode="⁄" d="M-132 0l378 712h32L-100 0h-32z" horiz-adv-x="102" vert-adv-y="1000"/><glyph glyph-name="uni2070" unicode="⁰" d="M81 367l54 268q9 44 37 65 21 17 53 17 40 0 57-23 13-16 13-39 0-11-2-25l-54-268q-9-44-37-65-21-17-53-17-40 0-57 23-13 16-13 39 0 15 2 25m128-6l55 271q2 10 2 17 0 18-11.5 29.5T222 690q-46 0-57-54l-55-271q-2-10-2-17 0-18 11.5-29.5T152 307q46 0 57 54z" horiz-adv-x="276" vert-adv-y="1000"/><glyph glyph-name="uni2074" unicode="⁴" d="M66 360l7 27 184 325h31L104 387h92l24 121h29l-24-121h33l-6-27h-33l-14-75h-30l15 75H66z" horiz-adv-x="276" vert-adv-y="1000"/><glyph glyph-name="uni2075" unicode="⁵" d="M84 389h29l-4-23q-2-14-2-23 2-36 41-36 22 0 39 15 22 19 38 98 9 40 9 71 0 39-41 39-22 0-39.5-13.5T132 480l-4-20h-26l51 252h152l-6-27H174l-30-151q13 11 24 16 15 7 34 7 31 0 45-18 16-18 16-45 0-29-9-74-12-57-21-80t-26-38q-25-22-61-22t-54 21q-14 18-14 39 0 12 2 26l4 23z" horiz-adv-x="276" vert-adv-y="1000"/><glyph glyph-name="uni2076" unicode="⁶" d="M79 344q0 22 9 67 15 74 40 115l113 186h31L160 531q15 10 37 10 29 0 45.5-16t17.5-42q0-27-9-72-17-86-45-110-24-21-59-21t-54 22q-14 18-14 42m143 67q9 45 9 64 0 18-10.5 29T190 515q-22 0-37-12-21-16-36-92-9-45-9-64 0-18 10.5-29t30.5-11q22 0 37 12 21 16 36 92z" horiz-adv-x="276" vert-adv-y="1000"/><glyph glyph-name="uni2077" unicode="⁷" d="M103 285l174 400H171l-15-72h-29l20 99h166l-5-25-173-402h-32z" horiz-adv-x="276" vert-adv-y="1000"/><glyph glyph-name="uni2078" unicode="⁸" d="M247 403q-9-46-17.5-67.5T204 300q-25-20-63-20-31 0-49 19-15 17-15 42 0 19 8 62 14 68 32 88 10 12 33 24-14 7-21 21-6 10-6 32 0 12 5 40 13 66 40 90 20 19 55 19 36 0 53-21 14-17 14-40 0-22-5-48-10-51-25-72-10-14-34-25 11-7 20-20t9-33q0-16-8-55m-30 0q7 38 7 55 0 18-8 26-10 12-31 12-26 0-40-14-12-11-17-25.5T115 403q-8-41-8-56 0-18 6-26 10-14 34-14 23 0 39 14 19 16 31 82m39 205q5 21 5 41 0 21-8 30-10 11-31 11-24 0-38-14-17-17-27-68-5-28-5-40 0-18 9-29 11-12 30-12 24 0 38 14 15 15 27 67z" horiz-adv-x="276" vert-adv-y="1000"/><glyph glyph-name="uni2079" unicode="⁹" d="M295 653q0-22-9-67-15-74-40-115L133 285h-31l112 181q-15-10-37-10-29 0-45.5 16T114 514q0 27 9 72 17 86 45 110 24 21 59 21t54-22q14-18 14-42m-143-67q-9-45-9-64 0-18 10.5-29t30.5-11q22 0 37 12 21 16 36 92 9 45 9 64 0 18-10.5 29T225 690q-22 0-37-12-21-16-36-92z" horiz-adv-x="276" vert-adv-y="1000"/><glyph glyph-name="uni2080" unicode="₀" d="M-6-68l54 268q9 44 37 65 21 17 53 17 40 0 57-23 13-16 13-39 0-11-2-25L152-73q-9-44-37-65-21-17-53-17-40 0-57 23-13 16-13 39 0 15 2 25m128-6l55 271q2 10 2 17 0 18-11.5 29.5T135 255q-46 0-57-54L23-70q-2-10-2-17 0-18 11.5-29.5T65-128q46 0 57 54z" horiz-adv-x="276" vert-adv-y="1000"/><glyph glyph-name="uni2081" unicode="₁" d="M44-150l76 385-77-53 8 40 81 55h26L73-150H44z" horiz-adv-x="276" vert-adv-y="1000"/><glyph glyph-name="uni2082" unicode="₂" d="M-22-152l5 25 150 233q26 41 35 60.5t9 42.5q0 44-40 44-44 0-55-57l-7-35H46l7 35q10 48 34 67 20 17 53 17 30 0 48-18t18-51q0-30-9-51t-38-65L16-125h131l-5-27H-22z" horiz-adv-x="276" vert-adv-y="1000"/><glyph glyph-name="uni2083" unicode="₃" d="M131 255q-44 0-55-57l-6-35H41l6 35q10 48 34 67 20 17 53 17 34 0 51-20 13-15 13-49 0-11-8-48-10-50-24-66-9-11-28-21 30-14 30-51 0-16-8-59-15-80-43-103-25-20-60-20-37 0-54 22-13 18-13 43 0 10 2 24l7 35h29l-7-36q-2-10-2-22 0-39 40-39 23 0 39 14 20 17 33 82 9 44 9 59 0 17-11.5 27.5T98 65H69l6 26h25q16 0 33 13 11 10 16 20.5t12 40.5q8 34 8 46 0 24-8.5 34T131 255z" horiz-adv-x="276" vert-adv-y="1000"/><glyph glyph-name="uni2084" unicode="₄" d="M-21-75l7 27 184 325h31L17-48h92l24 121h29L138-48h33l-6-27h-33l-14-75H88l15 75H-21z" horiz-adv-x="276" vert-adv-y="1000"/><glyph glyph-name="uni2085" unicode="₅" d="M-3-46h29l-4-23q-2-14-2-23 2-36 41-36 23 0 39 15 22 19 38 98 9 40 9 71 0 39-41 39-22 0-39.5-13.5T45 45l-4-20H15l51 252h152l-6-27H87L57 99q13 11 24 16 15 7 34 7 31 0 45-18 16-18 16-45 0-29-9-74-12-57-21-80t-26-38q-25-22-61-22T5-134Q-9-116-9-95q0 12 2 26l4 23z" horiz-adv-x="276" vert-adv-y="1000"/><glyph glyph-name="uni2086" unicode="₆" d="M-8-91q0 22 9 67Q16 50 41 91l113 186h31L73 96q15 10 37 10 29 0 45.5-16T173 48q0-27-9-72-17-86-45-110-24-21-59-21T6-133Q-8-115-8-91m143 67q9 45 9 64 0 18-10.5 29T103 80q-22 0-37-12-21-16-36-92-9-45-9-64 0-18 10.5-29T62-128q22 0 37 12 21 16 36 92z" horiz-adv-x="276" vert-adv-y="1000"/><glyph glyph-name="uni2087" unicode="₇" d="M16-150l174 400H84l-15-72H40l20 99h166l-5-25L48-150H16z" horiz-adv-x="276" vert-adv-y="1000"/><glyph glyph-name="uni2088" unicode="₈" d="M160-32q-9-46-17.5-67.5T117-135q-25-20-63-20-31 0-49 19-15 17-15 42 0 19 8 62 14 68 32 88 10 12 33 24-13 8-21 21-6 11-6 32 0 13 5 40 13 66 40 90 20 19 55 19 36 0 53-21 14-17 14-40 0-22-5-48-10-51-25-72-10-14-34-25 11-7 20-20 9-14 9-33 0-16-8-55m-30 0q7 38 7 55 0 18-8 26-11 12-31 12-26 0-40-14-12-11-17-25.5T28-32q-8-41-8-56 0-18 6-26 10-14 34-14 23 0 39 14 19 16 31 82m39 205q5 21 5 41 0 21-8 30-10 11-31 11-24 0-38-14-17-17-27-68-5-28-5-40 0-19 9-29 10-12 30-12 24 0 38 14 15 15 27 67z" horiz-adv-x="276" vert-adv-y="1000"/><glyph glyph-name="uni2089" unicode="₉" d="M208 218q0-22-9-67-15-74-40-115L46-150H15L127 31q-15-10-37-10-29 0-45.5 16T27 79q0 27 9 72 17 86 45 110 24 21 59 21t54-22q14-18 14-42M65 151q-9-45-9-64 0-18 10.5-29T97 47q22 0 37 12 21 16 36 92 9 45 9 64 0 18-10.5 29T138 255q-22 0-37-12-21-16-36-92z" horiz-adv-x="276" vert-adv-y="1000"/><glyph glyph-name="uni20AC" unicode="€" d="M65 410l6 30h61q26 124 44.5 171.5T225 686q37 34 95 34 57 0 84-36 20-27 20-76 0-18-6-48h-37q6 26 6 48 0 78-69 78-41 0-68-25-25-25-40.5-64.5T170 440h133l-6-30H164l-22-108h134l-6-30H136q-23-122-23-166 0-80 72-80 38 0 65 25 37 33 51 102h38q-18-91-69-132-37-29-89-29-50 0-77 29-28 31-28 85 0 43 22 166H38l6 30h60l22 108H65z" horiz-adv-x="403" vert-adv-y="1000"/><glyph glyph-name="uni20B4" unicode="₴" d="M359 272H112q-20-40-29-91-6-30-6-61 0-43 16-65 22-29 63-29 44 0 71 24 36 32 52 113h37q-11-56-25-85.5T250 24Q213-8 154-8 96-8 64 32q-25 32-25 87 0 33 6 63 9 51 27 90H38l6 30h43q29 45 80 67l94 41H65l6 30h237q26 25 41 98 6 30 6 60 0 43-17 63-20 25-59 25-45 0-73-28-33-33-47-109h-37q9 50 20.5 78.5T180 682q38 38 101 38 57 0 87-36 25-30 25-85 0-32-6-62-14-67-32-97h37l-6-30h-58q-18-15-53-31l-92-42q-27-11-49-35h231l-6-30z" horiz-adv-x="388" vert-adv-y="1000"/><glyph glyph-name="uni2116" unicode="№" d="M17 0l142 712h37l56-608 121 608h34L265 0h-37l-56 608L51 0H17m412 542q24 122 51 149 25 25 57 25 37 0 53-28 10-19 10-47 0-24-15-99-24-122-51-149-25-25-57-25-37 0-53 28-10 19-10 47 0 24 15 99m30 0q-15-77-15-100 0-46 34-46 21 0 36 18 20 24 41 128 15 77 15 100 0 46-34 46-21 0-36-18-20-24-41-128m-77-244l6 28h152l-6-28H382z" horiz-adv-x="583" vert-adv-y="1000"/><glyph glyph-name="uni2122" unicode="™" d="M266 285l85 427h31l38-247 136 247h31l-85-427h-30l67 338-114-207h-26l-35 215-68-346h-30m-156 0l79 398h-69l6 29h168l-6-29h-69l-79-398h-30z" horiz-adv-x="551" vert-adv-y="1000"/><glyph glyph-name="uni2126" unicode="Ω" d="M347 356q-28-139-40-189t-26-74q-23-39-65-61h71l-6-32H161l6 28q52 23 78 71 20 36 64 257 39 195 39 248 0 82-74 82-40 0-66-25-26-26-43.5-79.5T113 356Q72 149 72 117q0-60 53-89l-6-28H-1l6 32h76Q56 49 45.5 68T35 119q0 34 40 237 37 187 56.5 244t55.5 89q35 31 90 31 58 0 85-35 24-30 24-74 0-57-39-255z" horiz-adv-x="380" vert-adv-y="1000"/><glyph glyph-name="uni2150" unicode="⅐" d="M131 285l76 385-77-53 8 40 81 55h26l-85-427h-29M144 0l378 712h32L176 0h-32m280 0l174 400H492l-15-72h-29l20 99h166l-5-25L456 0h-32z" horiz-adv-x="654" vert-adv-y="1000"/><glyph glyph-name="uni2151" unicode="⅑" d="M131 285l76 385-77-53 8 40 81 55h26l-85-427h-29M144 0l378 712h32L176 0h-32m472 368q0-22-9-67-15-74-40-115L454 0h-31l112 181q-15-10-37-10-29 0-45.5 16T435 229q0 27 9 72 17 86 45 110 24 21 59 21t54-22q14-18 14-42m-143-67q-9-45-9-64 0-18 10.5-29t30.5-11q22 0 37 12 21 16 36 92 9 45 9 64 0 18-10.5 29T546 405q-22 0-37-12-21-16-36-92z" horiz-adv-x="654" vert-adv-y="1000"/><glyph glyph-name="uni2152" unicode="⅒" d="M131 285l76 385-77-53 8 40 81 55h26l-85-427h-29M144 0l378 712h32L176 0h-32m308 0l76 385-77-53 8 40 81 55h26L481 0h-29m226 82l54 268q9 44 37 65 21 17 53 17 40 0 57-23 13-16 13-39 0-11-2-25L836 77q-9-44-37-65-21-17-53-17-40 0-57 23-13 16-13 39 0 15 2 25m128-6l55 271q2 10 2 17 0 18-11.5 29.5T819 405q-46 0-57-54L707 80q-2-10-2-17 0-18 11.5-29.5T749 22q46 0 57 54z" horiz-adv-x="930" vert-adv-y="1000"/><glyph glyph-name="uni2153" unicode="⅓" d="M131 285l76 385-77-53 8 40 81 55h26l-85-427h-29M144 0l378 712h32L176 0h-32m395 405q-44 0-55-57l-6-35h-29l6 35q10 48 34 67 20 17 53 17 34 0 51-20 13-15 13-49 0-11-8-48-10-50-24-66-9-11-28-21 30-14 30-51 0-16-8-59-15-80-43-103-25-20-60-20-37 0-54 22-13 18-13 43 0 10 2 24l7 35h29l-7-36q-2-10-2-22 0-39 40-39 23 0 39 14 20 17 33 82 9 44 9 59 0 17-11.5 27.5T506 215h-29l6 26h25q16 0 33 13 11 10 16 20.5t12 40.5q8 34 8 46 0 24-8.5 34T539 405z" horiz-adv-x="654" vert-adv-y="1000"/><glyph glyph-name="uni2154" unicode="⅔" d="M65 285l5 25 150 233q26 41 35 60.5t9 42.5q0 44-40 44-44 0-55-57l-7-35h-29l7 35q10 48 34 67 20 17 53 17 30 0 48-18t18-51q0-30-9-51t-38-65L103 312h131l-5-27H65M144 0l378 712h32L176 0h-32m395 405q-44 0-55-57l-6-35h-29l6 35q10 48 34 67 20 17 53 17 34 0 51-20 13-15 13-49 0-11-8-48-10-50-24-66-9-11-28-21 30-14 30-51 0-16-8-59-15-80-43-103-25-20-60-20-37 0-54 22-13 18-13 43 0 10 2 24l7 35h29l-7-36q-2-10-2-22 0-39 40-39 23 0 39 14 20 17 33 82 9 44 9 59 0 17-11.5 27.5T506 215h-29l6 26h25q16 0 33 13 11 10 16 20.5t12 40.5q8 34 8 46 0 24-8.5 34T539 405z" horiz-adv-x="654" vert-adv-y="1000"/><glyph glyph-name="uni2155" unicode="⅕" d="M131 285l76 385-77-53 8 40 81 55h26l-85-427h-29M144 0l378 712h32L176 0h-32m261 104h29l-4-23q-2-14-2-23 2-36 41-36 23 0 39 15 22 19 38 98 9 41 9 71 0 39-41 39-22 0-39.5-13.5T453 195l-4-20h-26l51 252h152l-6-27H495l-30-151q13 11 24 16 15 7 34 7 31 0 45-18 16-18 16-45 0-29-9-74-12-57-21-80t-26-38Q503-5 467-5t-54 21q-14 18-14 39 0 12 2 26l4 23z" horiz-adv-x="654" vert-adv-y="1000"/><glyph glyph-name="uni2156" unicode="⅖" d="M65 285l5 25 150 233q26 41 35 60.5t9 42.5q0 44-40 44-44 0-55-57l-7-35h-29l7 35q10 48 34 67 20 17 53 17 30 0 48-18t18-51q0-30-9-51t-38-65L103 312h131l-5-27H65M144 0l378 712h32L176 0h-32m261 104h29l-4-23q-2-14-2-23 2-36 41-36 23 0 39 15 22 19 38 98 9 41 9 71 0 39-41 39-22 0-39.5-13.5T453 195l-4-20h-26l51 252h152l-6-27H495l-30-151q13 11 24 16 15 7 34 7 31 0 45-18 16-18 16-45 0-29-9-74-12-57-21-80t-26-38Q503-5 467-5t-54 21q-14 18-14 39 0 12 2 26l4 23z" horiz-adv-x="654" vert-adv-y="1000"/><glyph glyph-name="uni2157" unicode="⅗" d="M218 690q-44 0-55-57l-6-35h-29l6 35q10 48 34 67 20 17 53 17 34 0 51-20 13-15 13-49 0-11-8-48-10-50-24-66-9-11-28-21 30-14 30-51 0-16-8-59-15-80-43-103-25-20-60-20-37 0-54 22-13 18-13 43 0 10 2 24l7 35h29l-7-36q-2-10-2-22 0-39 40-39 23 0 39 14 20 17 33 82 9 44 9 59 0 17-11.5 27.5T185 500h-29l6 26h25q16 0 33 13 11 10 16 20.5t12 40.5q8 34 8 46 0 24-8.5 34T218 690M144 0l378 712h32L176 0h-32m261 104h29l-4-23q-2-14-2-23 2-36 41-36 23 0 39 15 22 19 38 98 9 41 9 71 0 39-41 39-22 0-39.5-13.5T453 195l-4-20h-26l51 252h152l-6-27H495l-30-151q13 11 24 16 15 7 34 7 31 0 45-18 16-18 16-45 0-29-9-74-12-57-21-80t-26-38Q503-5 467-5t-54 21q-14 18-14 39 0 12 2 26l4 23z" horiz-adv-x="654" vert-adv-y="1000"/><glyph glyph-name="uni2158" unicode="⅘" d="M66 360l7 27 184 325h31L104 387h92l24 121h29l-24-121h33l-6-27h-33l-14-75h-30l15 75H66M144 0l378 712h32L176 0h-32m261 104h29l-4-23q-2-14-2-23 2-36 41-36 23 0 39 15 22 19 38 98 9 41 9 71 0 39-41 39-22 0-39.5-13.5T453 195l-4-20h-26l51 252h152l-6-27H495l-30-151q13 11 24 16 15 7 34 7 31 0 45-18 16-18 16-45 0-29-9-74-12-57-21-80t-26-38Q503-5 467-5t-54 21q-14 18-14 39 0 12 2 26l4 23z" horiz-adv-x="654" vert-adv-y="1000"/><glyph glyph-name="uni2159" unicode="⅙" d="M131 285l76 385-77-53 8 40 81 55h26l-85-427h-29M144 0l378 712h32L176 0h-32m256 59q0 22 9 67 15 74 40 115l113 186h31L481 246q15 10 37 10 29 0 45.5-16t17.5-42q0-27-9-72-17-86-45-110-24-21-59-21t-54 22q-14 18-14 42m143 67q9 45 9 64 0 18-10.5 29T511 230q-22 0-37-12-21-16-36-92-9-45-9-64 0-18 10.5-29T470 22q22 0 37 12 21 16 36 92z" horiz-adv-x="654" vert-adv-y="1000"/><glyph glyph-name="uni215A" unicode="⅚" d="M84 389h29l-4-23q-2-14-2-23 2-36 41-36 22 0 39 15 22 19 38 98 9 40 9 71 0 39-41 39-22 0-39.5-13.5T132 480l-4-20h-26l51 252h152l-6-27H174l-30-151q13 11 24 16 15 7 34 7 31 0 45-18 16-18 16-45 0-29-9-74-12-57-21-80t-26-38q-25-22-61-22t-54 21q-14 18-14 39 0 12 2 26l4 23M144 0l378 712h32L176 0h-32m256 59q0 22 9 67 15 74 40 115l113 186h31L481 246q15 10 37 10 29 0 45.5-16t17.5-42q0-27-9-72-17-86-45-110-24-21-59-21t-54 22q-14 18-14 42m143 67q9 45 9 64 0 18-10.5 29T511 230q-22 0-37-12-21-16-36-92-9-45-9-64 0-18 10.5-29T470 22q22 0 37 12 21 16 36 92z" horiz-adv-x="654" vert-adv-y="1000"/><glyph glyph-name="uni215B" unicode="⅛" d="M131 285l76 385-77-53 8 40 81 55h26l-85-427h-29M144 0l378 712h32L176 0h-32m424 118q-9-46-17.5-67.5T525 15Q500-5 462-5q-31 0-49 19-15 17-15 42 0 19 8 62 14 68 32 88 10 12 33 24-13 8-21 21-6 11-6 32 0 13 5 40 13 66 40 90 20 19 55 19 36 0 53-21 14-17 14-40 0-22-5-48-10-51-25-72-10-14-34-25 11-7 20-20 9-14 9-33 0-16-8-55m-30 0q7 38 7 55 0 18-8 26-11 12-31 12-26 0-40-14-12-11-17-25.5T436 118q-8-41-8-56 0-18 6-26 10-14 34-14 23 0 39 14 19 16 31 82m39 205q5 21 5 41 0 21-8 30-10 11-31 11-24 0-38-14-17-17-27-68-5-28-5-40 0-19 9-29 10-12 30-12 24 0 38 14 15 15 27 67z" horiz-adv-x="654" vert-adv-y="1000"/><glyph glyph-name="uni215C" unicode="⅜" d="M218 690q-44 0-55-57l-6-35h-29l6 35q10 48 34 67 20 17 53 17 34 0 51-20 13-15 13-49 0-11-8-48-10-50-24-66-9-11-28-21 30-14 30-51 0-16-8-59-15-80-43-103-25-20-60-20-37 0-54 22-13 18-13 43 0 10 2 24l7 35h29l-7-36q-2-10-2-22 0-39 40-39 23 0 39 14 20 17 33 82 9 44 9 59 0 17-11.5 27.5T185 500h-29l6 26h25q16 0 33 13 11 10 16 20.5t12 40.5q8 34 8 46 0 24-8.5 34T218 690M144 0l378 712h32L176 0h-32m424 118q-9-46-17.5-67.5T525 15Q500-5 462-5q-31 0-49 19-15 17-15 42 0 19 8 62 14 68 32 88 10 12 33 24-13 8-21 21-6 11-6 32 0 13 5 40 13 66 40 90 20 19 55 19 36 0 53-21 14-17 14-40 0-22-5-48-10-51-25-72-10-14-34-25 11-7 20-20 9-14 9-33 0-16-8-55m-30 0q7 38 7 55 0 18-8 26-11 12-31 12-26 0-40-14-12-11-17-25.5T436 118q-8-41-8-56 0-18 6-26 10-14 34-14 23 0 39 14 19 16 31 82m39 205q5 21 5 41 0 21-8 30-10 11-31 11-24 0-38-14-17-17-27-68-5-28-5-40 0-19 9-29 10-12 30-12 24 0 38 14 15 15 27 67z" horiz-adv-x="654" vert-adv-y="1000"/><glyph glyph-name="uni215D" unicode="⅝" d="M84 389h29l-4-23q-2-14-2-23 2-36 41-36 22 0 39 15 22 19 38 98 9 40 9 71 0 39-41 39-22 0-39.5-13.5T132 480l-4-20h-26l51 252h152l-6-27H174l-30-151q13 11 24 16 15 7 34 7 31 0 45-18 16-18 16-45 0-29-9-74-12-57-21-80t-26-38q-25-22-61-22t-54 21q-14 18-14 39 0 12 2 26l4 23M144 0l378 712h32L176 0h-32m424 118q-9-46-17.5-67.5T525 15Q500-5 462-5q-31 0-49 19-15 17-15 42 0 19 8 62 14 68 32 88 10 12 33 24-13 8-21 21-6 11-6 32 0 13 5 40 13 66 40 90 20 19 55 19 36 0 53-21 14-17 14-40 0-22-5-48-10-51-25-72-10-14-34-25 11-7 20-20 9-14 9-33 0-16-8-55m-30 0q7 38 7 55 0 18-8 26-11 12-31 12-26 0-40-14-12-11-17-25.5T436 118q-8-41-8-56 0-18 6-26 10-14 34-14 23 0 39 14 19 16 31 82m39 205q5 21 5 41 0 21-8 30-10 11-31 11-24 0-38-14-17-17-27-68-5-28-5-40 0-19 9-29 10-12 30-12 24 0 38 14 15 15 27 67z" horiz-adv-x="654" vert-adv-y="1000"/><glyph glyph-name="uni215E" unicode="⅞" d="M103 285l174 400H171l-15-72h-29l20 99h166l-5-25-173-402h-32M144 0l378 712h32L176 0h-32m424 118q-9-46-17.5-67.5T525 15Q500-5 462-5q-31 0-49 19-15 17-15 42 0 19 8 62 14 68 32 88 10 12 33 24-13 8-21 21-6 11-6 32 0 13 5 40 13 66 40 90 20 19 55 19 36 0 53-21 14-17 14-40 0-22-5-48-10-51-25-72-10-14-34-25 11-7 20-20 9-14 9-33 0-16-8-55m-30 0q7 38 7 55 0 18-8 26-11 12-31 12-26 0-40-14-12-11-17-25.5T436 118q-8-41-8-56 0-18 6-26 10-14 34-14 23 0 39 14 19 16 31 82m39 205q5 21 5 41 0 21-8 30-10 11-31 11-24 0-38-14-17-17-27-68-5-28-5-40 0-19 9-29 10-12 30-12 24 0 38 14 15 15 27 67z" horiz-adv-x="654" vert-adv-y="1000"/><glyph glyph-name="uni215F" unicode="⅟" d="M131 285l76 385-77-53 8 40 81 55h26l-85-427h-29M144 0l378 712h32L176 0h-32z" horiz-adv-x="378" vert-adv-y="1000"/><glyph glyph-name="uni2189" unicode="↉" d="M81 367l54 268q9 44 37 65 21 17 53 17 40 0 57-23 13-16 13-39 0-11-2-25l-54-268q-9-44-37-65-21-17-53-17-40 0-57 23-13 16-13 39 0 15 2 25m128-6l55 271q2 10 2 17 0 18-11.5 29.5T222 690q-46 0-57-54l-55-271q-2-10-2-17 0-18 11.5-29.5T152 307q46 0 57 54M144 0l378 712h32L176 0h-32m395 405q-44 0-55-57l-6-35h-29l6 35q10 48 34 67 20 17 53 17 34 0 51-20 13-15 13-49 0-11-8-48-10-50-24-66-9-11-28-21 30-14 30-51 0-16-8-59-15-80-43-103-25-20-60-20-37 0-54 22-13 18-13 43 0 10 2 24l7 35h29l-7-36q-2-10-2-22 0-39 40-39 23 0 39 14 20 17 33 82 9 44 9 59 0 17-11.5 27.5T506 215h-29l6 26h25q16 0 33 13 11 10 16 20.5t12 40.5q8 34 8 46 0 24-8.5 34T539 405z" horiz-adv-x="654" vert-adv-y="1000"/><glyph glyph-name="uni2190" unicode="←" d="M269 27L34 262l235 233h53L106 281h439v-38H106L322 27h-53z" horiz-adv-x="600" vert-adv-y="1000"/><glyph glyph-name="uni2191" unicode="↑" d="M70 239v53l234 235 234-235v-53L323 455V16h-38v439L70 239z" horiz-adv-x="600" vert-adv-y="1000"/><glyph glyph-name="uni2192" unicode="→" d="M63 243v38h439L286 495h53l235-233L339 27h-53l216 216H63z" horiz-adv-x="600" vert-adv-y="1000"/><glyph glyph-name="uni2193" unicode="↓" d="M70 231v53L285 68v439h38V68l215 216v-53L304-4 70 231z" horiz-adv-x="600" vert-adv-y="1000"/><glyph glyph-name="uni2196" unicode="↖" d="M123 120v331h332l37-37-305 1 311-311-27-27-311 311 1-305-38 37z" horiz-adv-x="600" vert-adv-y="1000"/><glyph glyph-name="uni2197" unicode="↗" d="M110 104l311 311-305-1 37 38h331V120l-37-37 1 305L137 77l-27 27z" horiz-adv-x="600" vert-adv-y="1000"/><glyph glyph-name="uni2198" unicode="↘" d="M115 109l305-1-310 311 26 26 311-310-1 305 38-38V71H153l-38 38z" horiz-adv-x="600" vert-adv-y="1000"/><glyph glyph-name="uni2199" unicode="↙" d="M124 71v331l38 38-1-305 311 310 26-26-310-311 305 1-38-38H124z" horiz-adv-x="600" vert-adv-y="1000"/><glyph glyph-name="uni2202" unicode="∂" d="M36 29Q21 52 21 94t23 157q37 188 80 228 33 31 79 31 31 0 49-17 15-13 20-31l26 131q3 17 3 33 0 28-13 42-16 18-43 18-43 0-76-38l-22 24q25 26 47 36t53 10q50 0 73-30 18-24 18-60 0-19-5-42l-67-335Q228 63 185 23 154-8 111-8 59-8 36 29m30 18q16-23 45-23 28 0 50 22 21 21 35.5 63T230 251q23 113 23 156 0 30-10 46-16 25-43 25t-52-23q-21-20-34.5-61.5T80 251Q56 129 56 94q0-33 10-47z" horiz-adv-x="322" vert-adv-y="1000"/><glyph glyph-name="uni2206" unicode="∆" d="M-46 0l285 712h34L271 0H-46m56 34h222l9 597L10 34z" horiz-adv-x="325" vert-adv-y="1000"/><glyph glyph-name="uni220F" unicode="∏" d="M-30-230l199 990h254L224-230h-38l192 956H200L8-230h-38z" horiz-adv-x="388" vert-adv-y="1000"/><glyph glyph-name="uni2211" unicode="∑" d="M-42-200l217 487-37 443 6 30h222l-7-34H180l33-427-8-40L1-196h193l-7-34H-48l6 30z" horiz-adv-x="317" vert-adv-y="1000"/><glyph glyph-name="uni2212" unicode="−" d="M48 256l7 34h302l-7-34H48z" horiz-adv-x="396" vert-adv-y="1000"/><glyph glyph-name="uni2219" unicode="∙" d="M91 162l-23 23q-23 23-23 88t46 111q46 46 111 46t111-46q46-46 46-111t-46-111q-46-46-111-46T91 162z" horiz-adv-x="396" vert-adv-y="1000"/><glyph glyph-name="uni221A" unicode="√" d="M62 0L50 482h34l8-423 267 653h101l-7-34h-75L100 0H62z" horiz-adv-x="396" vert-adv-y="1000"/><glyph glyph-name="uni221E" unicode="∞" d="M97 329.5l-11.5-11.75Q74 306 74 270t23-58q23-22 59-22 29 0 51 18t59 62q-26 32-38 45t-32 25.5Q176 353 156 353q-36 0-59-23.5M287 245q-36-46-67-65.5T153 160q-47 0-78 31.5T44 270q0 47 31 79t78 32q36 0 67-20t67-65q36 45 67 65t67 20q47 0 78-32t31-79q0-47-31-78.5T421 160q-36 0-67 19.5T287 245m190-33l11.5 11q11.5 11 11.5 47t-23 59.5Q454 353 418 353q-20 0-40-12.5T346 315q-12-13-38-45 25-30 38.5-44t32.5-25q19-11 39-11 36 0 59 22z" horiz-adv-x="562" vert-adv-y="1000"/><glyph glyph-name="uni222B" unicode="∫" d="M321 712l-6-32q-86 0-104-93L77-83q-13-66-48-96-36-31-98-31l6 32q86 0 104 93l134 670q13 66 48 96 36 31 98 31z" horiz-adv-x="255" vert-adv-y="1000"/><glyph glyph-name="uni2248" unicode="≈" d="M53 162l-20 26q34 30 52.5 39.5T126 237q22 0 68-24 36-19 50-19 28 0 68 36l20-26q-53-46-91-46-22 0-68 24-34 19-50 19-27 0-70-39m26 131l-20 26q34 30 52.5 39.5T152 368q22 0 68-24 36-19 50-19 16 0 29 6.5t39 29.5l20-26q-53-46-91-46-22 0-68 24-34 19-50 19-27 0-70-39z" horiz-adv-x="396" vert-adv-y="1000"/><glyph glyph-name="uni2260" unicode="≠" d="M32 116l66 66H33l7 34h91l95 96H59l7 34h193l88 90 21-22-67-68h67l-7-34h-93l-95-96h169l-7-34H140L53 94l-21 22z" horiz-adv-x="396" vert-adv-y="1000"/><glyph glyph-name="uni2264" unicode="≤" d="M14 161l9 44L250 44l-8-44L14 161m29 146l8 40 292 161-9-46L84 325l194-140-7-39L43 307z" horiz-adv-x="324" vert-adv-y="1000"/><glyph glyph-name="uni2265" unicode="≥" d="M-18 0l8 44 293 161-9-44L-18 0m329 347l-8-40L11 146l9 46 250 137L76 469l7 39 228-161z" horiz-adv-x="324" vert-adv-y="1000"/><glyph glyph-name="uni22C5" unicode="⋅" d="M141 223l20 100h102l-20-100H141z" horiz-adv-x="396" vert-adv-y="1000"/><glyph glyph-name="uni25CA" unicode="◊" d="M199 56L70 338l233 271 127-280L199 56m7 58l186 220-98 218-185-218 97-220z" horiz-adv-x="468" vert-adv-y="1000"/><glyph glyph-name="uniFB01" unicode="ﬁ" d="M203 0l100 502h36L239 0h-36m118 633l10 51h52l-10-51h-52M24 0l94 472H58l6 30h60l17 83q13 66 48 96 36 31 98 31l-6-32q-86 0-104-93l-17-85h85l-6-30h-85L60 0H24z" horiz-adv-x="350" vert-adv-y="1000"/><glyph glyph-name="uniFB02" unicode="ﬂ" d="M241 34q-16 25-16 55 0 18 3 33l118 590h36L265 124q-3-15-3-35 0-57 65-57l-6-32q-58 0-80 34M24 0l94 472H58l6 30h60l17 83q13 66 48 96 36 31 98 31l-6-32q-86 0-104-93l-17-85h85l-6-30h-85L60 0H24z" horiz-adv-x="385" vert-adv-y="1000"/></font>
</defs>
</svg>
