<svg><defs><font id="DINPro-CondensedLight" horiz-adv-x="926" vert-adv-y="926"><font-face font-family="DIN Pro Cond Light" font-weight="400" ascent="922" descent="-216"/><glyph glyph-name="uni21" unicode="!" d="M142 182h-38v530h38V182M152 0H94v58h58V0z" horiz-adv-x="216" vert-adv-y="1000"/><glyph glyph-name="uni22" unicode="&quot;" d="M264 536h-52v176h52V536m-154 0H58v176h52V536z" horiz-adv-x="322" vert-adv-y="1000"/><glyph glyph-name="uni23" unicode="#" d="M402 449h-77l-22-176h74v-33h-78L270 0h-34l29 240H165L136 0h-34l29 240H58v33h77l22 176H84v33h77l28 230h34l-28-230h100l28 230h34l-28-230h73v-33m-111 0H191l-22-176h100l22 176z" horiz-adv-x="461" vert-adv-y="1000"/><glyph glyph-name="uni24" unicode="$" d="M331 182q0-108-44-153-28-28-78-34v-109h-36V-6q-59 3-89 35-23 24-32 54.5T43 173h40q0-85 31-116 22-22 59-25v321l-33 14q-54 22-73 59.5T48 544q0 92 45 137 33 32 80 36v89h36v-89q50-4 82-36 24-25 32-54.5t8-77.5h-40q0 71-30 105-20 21-52 27V382l35-14q52-21 69.5-63.5T331 182m-40-1q0 72-16 104.5T213 337l-4 2V33q30 4 50 24 19 19 25.5 46.5T291 181M173 397v284q-31-5-50-23-35-34-35-113 0-69 15.5-97.5T171 398l2-1z" horiz-adv-x="388" vert-adv-y="1000"/><glyph glyph-name="uni25" unicode="%" d="M234 438q0-41-24-66.5T146 346q-40 0-64 25.5T58 438v190q0 41 24 66.5t64 25.5q40 0 64-25.5t24-66.5V438M518 84q0-41-24-66.5T430-8q-40 0-64 25.5T342 84v190q0 41 24 66.5t64 25.5q40 0 64-25.5t24-66.5V84m-35 0v190q0 28-13.5 44.5T430 335q-26 0-39.5-16.5T377 274V84q0-28 13.5-44.5T430 23q26 0 39.5 16.5T483 84M199 438v190q0 28-13.5 44.5T146 689q-26 0-39.5-16.5T93 628V438q0-28 13.5-44.5T146 377q26 0 39.5 16.5T199 438m230 274L181 0h-34l248 712h34z" horiz-adv-x="576" vert-adv-y="1000"/><glyph glyph-name="uni26" unicode="&amp;" d="M475 0h-47l-61 92q-40-51-77-75.5T195-8Q129-8 84.5 37.5T40 160q0 65 29.5 115T170 388q-61 86-78 119.5T75 581q0 55 33.5 96t96.5 41q62 0 96-35t34-94q0-61-24.5-103T219 383l149-223q21 33 36 84t18 97h40q-11-130-71-215L475 0M345 125L190 358q-58-56-84-100t-26-93q0-57 31.5-97T199 28q41 0 75 25t71 72m-50 462q0 42-25 69t-65 27q-45 0-67.5-31T115 582q0-32 15.5-63T199 413q51 49 73.5 85t22.5 89z" horiz-adv-x="481" vert-adv-y="1000"/><glyph glyph-name="uni27" unicode="'" d="M110 536H58v176h52V536z" horiz-adv-x="168" vert-adv-y="1000"/><glyph glyph-name="uni28" unicode="(" d="M166-68l-26-26Q97-51 80-20 62 16 62 70v572q0 54 18 90 15 29 60 74l26-26q-41-41-51-62-15-30-15-82V76q0-52 15-82 10-21 51-62z" horiz-adv-x="206" vert-adv-y="1000"/><glyph glyph-name="uni29" unicode=")" d="M144 70q0-54-18-90-17-31-60-74L40-68Q81-27 91-6q15 30 15 82v560q0 52-15 82-10 21-51 62l26 26q45-45 60-74 18-36 18-90V70z" horiz-adv-x="206" vert-adv-y="1000"/><glyph glyph-name="uni2a" unicode="*" d="M298 514l-17-30-90 53 2-127h-34l2 127-90-53-17 30 91 50-91 50 17 30 90-53-2 127h34l-2-127 90 53 17-30-91-50 91-50z" horiz-adv-x="352" vert-adv-y="1000"/><glyph glyph-name="uni2b" unicode="+" d="M372 255H229V112h-36v143H50v36h143v143h36V291h143v-36z" horiz-adv-x="422" vert-adv-y="1000"/><glyph glyph-name="uni2c" unicode="," d="M110-42L58-80V60h52V-42z" horiz-adv-x="168" vert-adv-y="1000"/><glyph glyph-name="uni2d" unicode="-" d="M245 255H58v36h187v-36z" horiz-adv-x="303" vert-adv-y="1000"/><glyph glyph-name="uni2e" unicode="." d="M122 0H64v58h58V0z" horiz-adv-x="186" vert-adv-y="1000"/><glyph glyph-name="uni2f" unicode="/" d="M227 786L42-74H0l185 860h42z" horiz-adv-x="227" vert-adv-y="1000"/><glyph glyph-name="uni30" unicode="0" d="M288 119q0-62-33-95-32-32-82-32T91 24q-33 33-33 95v474q0 62 33 95 32 32 82 32t82-32q33-33 33-95V119m-38-2v478q0 44-21.5 67.5T173 686q-34 0-55.5-23.5T96 595V117q0-44 21.5-67.5T173 26q34 0 55.5 23.5T250 117z" horiz-adv-x="346" vert-adv-y="1000"/><glyph glyph-name="uni31" unicode="1" d="M199 0h-38v667L61 577v48l100 87h38V0z" horiz-adv-x="346" vert-adv-y="1000"/><glyph glyph-name="uni32" unicode="2" d="M293 0H53v31l166 407q36 89 36 157 0 44-21.5 67.5T178 686q-34 0-55.5-23.5T101 595v-52H63v52q0 60 33 93 32 32 82 32t82-32q33-33 33-95 0-69-41-169L93 34h200V0z" horiz-adv-x="346" vert-adv-y="1000"/><glyph glyph-name="uni33" unicode="3" d="M287 194q0-78-7.5-112T250 25Q219-8 168-8T86 23q-34 34-34 95v51h38v-51q0-44 22-68t56-24q34 0 53 22 16 18 22 47.5t6 98.5q0 78-5.5 105T221 344q-21 22-53 22h-43v34h43q31 0 49 19 26 27 26 124 0 95-25 123-20 20-50 20-33 0-53-23.5T95 594v-51H57v51q0 63 32 95 31 31 79 31 49 0 79-30 19-19 26.5-50t7.5-97q0-91-20-124-14-23-40-36 25-13 39-31 16-22 21.5-50t5.5-108z" horiz-adv-x="346" vert-adv-y="1000"/><glyph glyph-name="uni34" unicode="4" d="M310 128h-50V0h-38v128H37v34l180 550h38L75 162h147v226h38V162h50v-34z" horiz-adv-x="346" vert-adv-y="1000"/><glyph glyph-name="uni35" unicode="5" d="M285 349.5l3.5-19.25Q292 311 292 222t-7.5-127.5Q277 56 255 30 225-8 173-8T91 22q-35 35-35 96v51h38v-47q0-48 22-72t57-24q35 0 54 27 16 21 21.5 54.5T254 222q0 80-6 114.5T226 392q-19 26-53 26t-56.5-25Q94 368 94 328v-40H59v424h223v-34H94V404q10 18 32 33 22 14 54 14 47 0 76-37 22-26 29-64.5z" horiz-adv-x="346" vert-adv-y="1000"/><glyph glyph-name="uni36" unicode="6" d="M292 208q0-86-7-122t-30-61Q225-8 173-8T91 25Q68 50 61 86t-7 122q0 120 29 199l111 305h37L117 399q29 24 64 24 46 0 76-32 21-22 28-56t7-127M249 98.5l2.5 16.75Q254 132 254 208t-5 109.5q-5 33.5-22 50.5-21 22-54 22t-54-22q-17-17-22-50.5T92 208q0-76 5-109.5T119 48q21-22 54-22t54 22q17 17 22 50.5z" horiz-adv-x="346" vert-adv-y="1000"/><glyph glyph-name="uni37" unicode="7" d="M295 682L105 0H63l192 678H90V555H52v157h243v-30z" horiz-adv-x="346" vert-adv-y="1000"/><glyph glyph-name="uni38" unicode="8" d="M292 194q0-78-7.5-112T255 25Q224-8 173-8T91 25Q69 48 61.5 82T54 194q0 80 5.5 108T81 352q14 18 39 31-26 13-40 36-21 35-21 124 0 66 8 97t27 50q30 30 79 30t79-30q19-19 27-50t8-97q0-89-21-124-14-23-40-36 25-13 39-31 16-22 21.5-50t5.5-108m-38 0q0 78-5.5 105T226 344q-21 22-53 22t-53-22q-17-18-22.5-45T92 194q0-69 6-98.5T120 48q19-22 53-22t53 22q16 18 22 47.5t6 98.5m-5 349q0 94-26 123-20 20-50 20t-50-20q-26-29-26-123 0-96 27-124 18-19 49-19t49 19q27 28 27 124z" horiz-adv-x="346" vert-adv-y="1000"/><glyph glyph-name="uni39" unicode="9" d="M292 504q0-120-29-199L152 0h-37l114 313q-29-24-64-24-46 0-76 32-21 22-28 56t-7 127q0 86 7 122t30 61q30 33 82 33t82-33q23-25 30-61t7-122m-43-109.5l2.5 16.75Q254 428 254 504t-5 109.5q-5 33.5-22 50.5-21 22-54 22t-54-22q-17-17-22-50.5T92 504q0-76 5-109.5t22-50.5q21-22 54-22t54 22q17 17 22 50.5z" horiz-adv-x="346" vert-adv-y="1000"/><glyph glyph-name="uni3a" unicode=":" d="M152 349H94v58h58v-58m0-349H94v58h58V0z" horiz-adv-x="216" vert-adv-y="1000"/><glyph glyph-name="uni3b" unicode=";" d="M149-42L97-80V60h52V-42m3 391H94v58h58v-58z" horiz-adv-x="216" vert-adv-y="1000"/><glyph glyph-name="uni3c" unicode="&lt;" d="M312 100L34 261v40l278 161v-44L74 281l238-137v-44z" horiz-adv-x="346" vert-adv-y="1000"/><glyph glyph-name="uni3d" unicode="=" d="M372 310H50v36h322v-36m0-130H50v36h322v-36z" horiz-adv-x="422" vert-adv-y="1000"/><glyph glyph-name="uni3e" unicode="&gt;" d="M312 261L34 100v44l238 137L34 418v44l278-161v-40z" horiz-adv-x="346" vert-adv-y="1000"/><glyph glyph-name="uni3f" unicode="?" d="M310 555q0-65-27-112l-58-98q-21-35-21-77v-86h-38v91q0 43 22 81l58 98q26 44 26 103 0 73-31 106-23 23-59 23-34 0-58-22-28-28-28-88H58q0 75 36 110 34 34 88 34 57 0 90-34 20-21 29-48.5t9-80.5M214 0h-58v58h58V0z" horiz-adv-x="356" vert-adv-y="1000"/><glyph glyph-name="uni40" unicode="@" d="M418 0h-38v41q-7-16-26-30-27-19-60-19-45 0-75 32-31 31-31 95v236q0 64 31 95 30 32 75 32 34 0 61-17 18-13 25-29v144q0 48-25 74t-67 26H188q-41 0-66.5-26T96 580V89q0-48 26-72L97-8Q58 23 58 93v483q0 65 36 101 35 35 92 35h104q57 0 92-35 36-36 36-101V0m-38 117v240q0 44-21.5 67.5T303 448q-34 0-55.5-23.5T226 357V117q0-44 21.5-67.5T303 26q34 0 55.5 23.5T380 117z" horiz-adv-x="482" vert-adv-y="1000"/><glyph glyph-name="uni41" unicode="A" d="M343 0h-44l-43 214H90L48 0H4l153 712h36L343 0m-94 250l-76 380-75-380h151z" horiz-adv-x="347" vert-adv-y="1000"/><glyph glyph-name="uni42" unicode="B" d="M342 193q0-64-10-96.5T299 40Q260 0 181 0H72v712h110q78 0 114-40 22-24 30-54.5t8-86.5q0-89-44-133-22-22-47-29 29-6 53-28 46-46 46-148m-40 0q0 157-114 157h-76V36h76q57 0 85.5 34T302 193m-8 338q0 82-26.5 113.5T188 676h-76V386h76q106 0 106 145z" horiz-adv-x="396" vert-adv-y="1000"/><glyph glyph-name="uni43" unicode="C" d="M338 154q0-91-47-132-33-30-88-30-62 0-95 35-32 33-41 90t-9 239q0 182 9 239t41 90q33 35 95 35 59 0 94-35 41-42 41-127h-40q0 71-32 103-23 23-63 23-44 0-67-25-25-27-31.5-78T98 356q0-174 6.5-225T136 53q23-25 67-25 40 0 63 23 32 32 32 103h40z" horiz-adv-x="382" vert-adv-y="1000"/><glyph glyph-name="uni44" unicode="D" d="M340.5 590.5l4.25-27.25Q349 536 349 356t-8.5-234.5Q332 67 300 34 266 0 206 0H72v712h134q60 0 94-34 32-33 40.5-87.5m-38-456l3.25 24.75Q309 184 309 356t-6.5 221.5Q296 627 270 653q-23 23-67 23h-91V36h91q44 0 67 23 26 26 32.5 75.5z" horiz-adv-x="407" vert-adv-y="1000"/><glyph glyph-name="uni45" unicode="E" d="M302 0H72v712h230v-36H112V374h164v-36H112V36h190V0z" horiz-adv-x="352" vert-adv-y="1000"/><glyph glyph-name="uni46" unicode="F" d="M302 676H112V374h164v-36H112V0H72v712h230v-36z" horiz-adv-x="348" vert-adv-y="1000"/><glyph glyph-name="uni47" unicode="G" d="M338 138q0-70-39.5-108T203-8q-62 0-95 35-32 33-41 90t-9 239q0 182 9 239t41 90q33 35 95 35 59 0 95-36 40-43 40-126h-40q0 126-95 126-44 0-67-25-25-27-31.5-78T98 356q0-174 6.5-225T136 53q23-25 67-25 41 0 68 29.5t27 82.5v198h-95v36h135V138z" horiz-adv-x="396" vert-adv-y="1000"/><glyph glyph-name="uni48" unicode="H" d="M342 0h-40v344H112V0H72v712h40V380h190v332h40V0z" horiz-adv-x="414" vert-adv-y="1000"/><glyph glyph-name="uni49" unicode="I" d="M112 0H72v712h40V0z" horiz-adv-x="184" vert-adv-y="1000"/><glyph glyph-name="uni4a" unicode="J" d="M248 141q0-73-40-113-36-36-95-36Q50-8 10 40l30 25q29-37 73-37 42 0 68.5 29.5T208 141v571h40V141z" horiz-adv-x="312" vert-adv-y="1000"/><glyph glyph-name="uni4b" unicode="K" d="M377 0h-44L186 373l-74-145V0H72v712h40V306l202 406h44L212 419 377 0z" horiz-adv-x="387" vert-adv-y="1000"/><glyph glyph-name="uni4c" unicode="L" d="M302 0H72v712h40V36h190V0z" horiz-adv-x="324" vert-adv-y="1000"/><glyph glyph-name="uni4d" unicode="M" d="M470 0h-40v619L288 213h-36L112 605V0H72v712h44l155-435 155 435h44V0z" horiz-adv-x="542" vert-adv-y="1000"/><glyph glyph-name="uni4e" unicode="N" d="M366 0h-44L112 602V0H72v712h44l210-602v602h40V0z" horiz-adv-x="438" vert-adv-y="1000"/><glyph glyph-name="uni4f" unicode="O" d="M339 595l4.5-28.5Q348 538 348 356t-9-239q-9-57-41-90-33-35-95-35t-95 35q-32 33-41 90t-9 239q0 182 9 239t41 90q33 35 95 35t95-35q32-33 41-90m-37.5-464l3.25 25.5Q308 182 308 356t-6.5 225q-6.5 51-31.5 78-23 25-67 25t-67-25q-25-27-31.5-78T98 356q0-174 6.5-225T136 53q23-25 67-25t67 25q25 27 31.5 78z" horiz-adv-x="406" vert-adv-y="1000"/><glyph glyph-name="uni50" unicode="P" d="M342 520q0-61-12-101.5t-35-59q-23-18.5-45-25t-52-6.5h-86V0H72v712h126q31 0 53-6t44.5-24.5q22.5-18.5 34.5-59T342 520m-67.5-125l13.75 15.5Q302 426 302 520t-27.5 125Q247 676 195 676h-83V364h83q52 0 79.5 31z" horiz-adv-x="392" vert-adv-y="1000"/><glyph glyph-name="uni51" unicode="Q" d="M368 0l-22-26-55 46Q255-8 203-8q-62 0-95 35-32 33-41 90t-9 239q0 182 9 239t41 90q33 35 95 35t95-35q32-33 41-90t9-239q0-159-6.5-219.5T314 46l54-46m-60 356q0 176-6.5 226.5T270 660q-22 24-67 24t-67-24q-25-27-31.5-77.5T98 356q0-176 6.5-226.5T136 52q22-24 67-24 37 0 59 16l-63 53 22 26 63-53q15 25 19.5 79t4.5 207z" horiz-adv-x="406" vert-adv-y="1000"/><glyph glyph-name="uni52" unicode="R" d="M365 0h-44L214 329H112V0H72v712h126q31 0 53-6t44.5-24.5q22.5-18.5 34.5-59T342 520q0-158-90-185L365 0m-86 402l11.5 19q11.5 19 11.5 99t-23 118q-23 38-78 38h-89V364h89q55 0 78 38z" horiz-adv-x="415" vert-adv-y="1000"/><glyph glyph-name="uni53" unicode="S" d="M331 182q0-108-44-153Q252-6 186-6 119-6 84 29 61 53 52 83.5T43 173h40q0-85 31-116 26-26 72-26 49 0 73 26 19 19 25.5 46.5T291 181q0 72-16 104.5T213 337l-73 30q-54 22-73 59.5T48 544q0 92 45 137 37 37 98 37 63 0 100-37 24-25 32-54.5t8-77.5h-40q0 71-30 105-25 28-71 28-41 0-67-24-35-34-35-113 0-69 15.5-97.5T171 398l73-30q52-21 69.5-63.5T331 182z" horiz-adv-x="380" vert-adv-y="1000"/><glyph glyph-name="uni54" unicode="T" d="M300 676H181V0h-40v676H22v36h278v-36z" horiz-adv-x="322" vert-adv-y="1000"/><glyph glyph-name="uni55" unicode="U" d="M334 138q0-71-40-109-37-37-95-37t-95 37Q64 67 64 138v574h40V134q0-48 27-77t68-29q41 0 68 29t27 77v578h40V138z" horiz-adv-x="398" vert-adv-y="1000"/><glyph glyph-name="uni56" unicode="V" d="M342 712L192 0h-38L4 712h44L173 82l125 630h44z" horiz-adv-x="346" vert-adv-y="1000"/><glyph glyph-name="uni57" unicode="W" d="M538 712L439 0h-42L271 630 147 0h-42L4 712h44l78-630 122 630h46L418 82l76 630h44z" horiz-adv-x="542" vert-adv-y="1000"/><glyph glyph-name="uni58" unicode="X" d="M329 0h-44L175 327 66 0H22l129 372L33 712h44l98-298 99 298h44L197 372 329 0z" horiz-adv-x="351" vert-adv-y="1000"/><glyph glyph-name="uni59" unicode="Y" d="M285 712L164 305V0h-40v305L4 712h44l96-341 97 341h44z" horiz-adv-x="289" vert-adv-y="1000"/><glyph glyph-name="uni5a" unicode="Z" d="M277 0H30v32l206 644H45v36h232v-32L72 36h205V0z" horiz-adv-x="307" vert-adv-y="1000"/><glyph glyph-name="uni5b" unicode="[" d="M190-74H66v860h124v-31h-86V-43h86v-31z" horiz-adv-x="220" vert-adv-y="1000"/><glyph glyph-name="uni5c" unicode="\" d="M227-74h-42L0 786h42L227-74z" horiz-adv-x="227" vert-adv-y="1000"/><glyph glyph-name="uni5d" unicode="]" d="M154-74H30v31h86v798H30v31h124V-74z" horiz-adv-x="220" vert-adv-y="1000"/><glyph glyph-name="uni5e" unicode="^" d="M364 440h-41L221 678 119 440H78l124 278h38l124-278z" horiz-adv-x="442" vert-adv-y="1000"/><glyph glyph-name="uni5f" unicode="_" d="M422-127H0v32h422v-32z" horiz-adv-x="422" vert-adv-y="1000"/><glyph glyph-name="uni60" unicode="`" d="M190 586h-40L80 712h47l63-126z" horiz-adv-x="338" vert-adv-y="1000"/><glyph glyph-name="uni61" unicode="a" d="M274 0h-38v47q-8-19-26-34-26-21-62-21-44 0-74 30-34 36-34 114 0 76 41 114 36 33 93 33h62v98q0 96-77 96-30 0-50-20-25-25-25-79H46q0 67 34 101 31 31 79 31 54 0 83-29 32-32 32-99V0m-38 126v125h-64q-39 0-64-24-30-28-30-91 0-110 77-110 37 0 59 28.5t22 71.5z" horiz-adv-x="335" vert-adv-y="1000"/><glyph glyph-name="uni62" unicode="b" d="M258.5 112l2.75 21Q264 154 264 251t-5.5 139q-5.5 42-23.5 63-21 23-52 23t-53-20q-26-26-26-78V124q0-52 26-78 22-20 53-20t52 23q18 21 23.5 63M104 40V0H66v712h38V462q9 17 26 30 24 18 59 18 44 0 75-34 23-25 30.5-73t7.5-152q0-104-7.5-152T264 26Q233-8 189-8q-35 0-59 18-17 13-26 30z" horiz-adv-x="350" vert-adv-y="1000"/><glyph glyph-name="uni63" unicode="c" d="M284 127q0-71-32-104-31-31-83-31-51 0-83 35-22 24-30 73.5T48 251q0 101 8 150.5T86 475q32 35 83 35 54 0 83-29 32-32 32-106h-37q0 57-22 80-20 21-55 21-34 0-55-23-18-21-23.5-63T86 251q0-97 5.5-139T115 49q21-23 55-23 33 0 53 20 24 24 24 81h37z" horiz-adv-x="324" vert-adv-y="1000"/><glyph glyph-name="uni64" unicode="d" d="M284 0h-38v41q-7-16-26-30-25-19-60-19-43 0-74 34-22 24-30 74t-8 151q0 101 8 151t30 74q30 34 74 34 36 0 60-17 15-10 26-30v249h38V0m-38 124v254q0 52-26 78-22 20-53 20t-52-23q-18-21-23.5-63T86 251q0-97 5.5-139T115 49q21-23 52-23t53 20q26 26 26 78z" horiz-adv-x="350" vert-adv-y="1000"/><glyph glyph-name="uni65" unicode="e" d="M290 251H86q0-96 5.5-138.5T116 49q21-23 55-23 35 0 55 20 26 25 26 81h37q0-67-35-103-32-32-83-32-52 0-84 35-22 24-30.5 74T48 251q0 101 8 150.5T86 475q32 35 83 35t83-35q22-24 30-73.5t8-150.5m-38 32q-1 79-6.5 115T223 453q-21 23-54 23t-54-23q-17-19-22.5-55T86 283h166z" horiz-adv-x="333" vert-adv-y="1000"/><glyph glyph-name="uni66" unicode="f" d="M210 471h-92V0H80v471H15v31h65v83q0 62 33 95 32 32 97 32v-34q-92 0-92-91v-85h92v-31z" horiz-adv-x="225" vert-adv-y="1000"/><glyph glyph-name="uni67" unicode="g" d="M246 124v254q0 52-26 78-22 20-53 20t-52-23q-18-21-23.5-63T86 251q0-97 5.5-139T115 49q21-23 52-23t53 20q26 26 26 78m38 378V-17q0-69-7.5-101.5T248-175q-32-35-82-35-53 0-84 31-32 33-32 104h37q0-57 24-81 20-20 54-20 33 0 54 23 27 30 27 137v56q-9-17-26-30-24-18-59-18-44 0-75 34-23 25-30.5 73T48 251q0 104 7.5 152T86 476q31 34 75 34 35 0 59-18 17-13 26-30v40h38z" horiz-adv-x="350" vert-adv-y="1000"/><glyph glyph-name="uni68" unicode="h" d="M296 0h-38v384q0 44-21.5 67.5T181 475q-34 0-55.5-23.5T104 384V0H66v712h38V461q7 16 26 30 25 19 60 19 45 0 75-32 31-31 31-95V0z" horiz-adv-x="357" vert-adv-y="1000"/><glyph glyph-name="uni69" unicode="i" d="M104 0H66v502h38V0m9 637H57v56h56v-56z" horiz-adv-x="170" vert-adv-y="1000"/><glyph glyph-name="uni6a" unicode="j" d="M104-83q0-62-33-95-32-32-92-32v34q87 0 87 91v587h38V-83m9 720H57v56h56v-56z" horiz-adv-x="170" vert-adv-y="1000"/><glyph glyph-name="uni6b" unicode="k" d="M338 0h-42L178 281l-74-119V0H66v712h38V220l171 282h43L202 312 338 0z" horiz-adv-x="358" vert-adv-y="1000"/><glyph glyph-name="uni6c" unicode="l" d="M185 0q-60 0-92 32-33 33-33 95v585h38V125q0-91 87-91V0z" horiz-adv-x="200" vert-adv-y="1000"/><glyph glyph-name="uni6d" unicode="m" d="M488 0h-38v384q0 44-21.5 67.5T373 475q-34 0-55.5-23.5T296 384V0h-38v384q0 44-21.5 67.5T181 475q-34 0-55.5-23.5T104 384V0H66v502h38v-41q7 16 26 30 27 19 60 19 26 0 51.5-15t40.5-38q12 20 31 34 27 19 63 19 51 0 81-32 31-31 31-95V0z" horiz-adv-x="549" vert-adv-y="1000"/><glyph glyph-name="uni6e" unicode="n" d="M296 0h-38v384q0 44-21.5 67.5T181 475q-34 0-55.5-23.5T104 384V0H66v502h38v-41q7 16 26 30 25 19 60 19 45 0 75-32 31-31 31-95V0z" horiz-adv-x="357" vert-adv-y="1000"/><glyph glyph-name="uni6f" unicode="o" d="M282 401.5l4-24.75Q290 352 290 251t-8-150.5Q274 51 252 27 220-8 169-8T86 27q-22 24-30 73.5T48 251q0 101 8 150.5T86 475q32 35 83 35t83-35q22-24 30-73.5M246.5 112l2.75 21Q252 154 252 251t-5.5 139q-5.5 42-23.5 63-21 23-54 23t-54-23q-18-21-23.5-63T86 251q0-97 5.5-139T115 49q21-23 54-23t54 23q18 21 23.5 63z" horiz-adv-x="338" vert-adv-y="1000"/><glyph glyph-name="uni70" unicode="p" d="M294 402l4-25q4-25 4-126t-8-151q-8-50-30-74-30-34-74-34-36 0-60 17-15 10-26 30v-249H66v712h38v-41q7 16 26 30 25 19 60 19 43 0 74-34 22-24 30-74m-35.5-290l2.75 21Q264 154 264 251t-5.5 139q-5.5 42-23.5 63-21 23-52 23t-53-20q-26-26-26-78V124q0-52 26-78 22-20 53-20t52 23q18 21 23.5 63z" horiz-adv-x="350" vert-adv-y="1000"/><glyph glyph-name="uni71" unicode="q" d="M284-210h-38V39q-11-20-26-30-24-17-60-17-44 0-74 34-22 24-30 74t-8 151q0 101 8 151t30 74q31 34 74 34 35 0 60-19 19-14 26-30v41h38v-712m-38 334v254q0 52-26 78-22 20-53 20t-52-23q-18-21-23.5-63T86 251q0-97 5.5-139T115 49q21-23 52-23t53 20q26 26 26 78z" horiz-adv-x="350" vert-adv-y="1000"/><glyph glyph-name="uni72" unicode="r" d="M210 476h-4q-48 0-75-27.5T104 374V0H66v502h38v-53q6 17 17 28 30 33 89 33v-34z" horiz-adv-x="225" vert-adv-y="1000"/><glyph glyph-name="uni73" unicode="s" d="M285 122q0-56-37-93T157-8q-51 0-85 34-37 37-37 107h38q0-56 29-85 22-22 55-22 39 0 64 25 26 28 26 71 0 36-15 61-13 23-55 48l-61 37q-46 28-62 59-13 23-13 62 0 54 37 89 34 32 83 32 52 0 84-32 34-34 34-107h-38q0 57-25 83-21 22-55 22-36 0-57-21-25-24-25-66 0-30 11-49 11-18 49-42l61-37q48-30 66-61 19-31 19-78z" horiz-adv-x="320" vert-adv-y="1000"/><glyph glyph-name="uni74" unicode="t" d="M215 0q-70 0-102 32-33 33-33 95v344H15v31h65v154h38V502h92v-31h-92V125q0-91 97-91V0z" horiz-adv-x="235" vert-adv-y="1000"/><glyph glyph-name="uni75" unicode="u" d="M291 0h-38v41q-7-16-26-30-25-19-60-19-45 0-75 32-31 31-31 95v383h38V118q0-44 21.5-67.5T176 27q34 0 55.5 23.5T253 118v384h38V0z" horiz-adv-x="357" vert-adv-y="1000"/><glyph glyph-name="uni76" unicode="v" d="M274 502L159 0h-40L4 502h42l93-443 93 443h42z" horiz-adv-x="278" vert-adv-y="1000"/><glyph glyph-name="uni77" unicode="w" d="M433 502L341 0h-44l-82 443L138 0H94L4 502h46l66-443 77 443h44l82-443 68 443h46z" horiz-adv-x="437" vert-adv-y="1000"/><glyph glyph-name="uni78" unicode="x" d="M276 0h-42l-86 226L62 0H20l108 256L26 502h42l80-217 80 217h42L166 256 276 0z" horiz-adv-x="296" vert-adv-y="1000"/><glyph glyph-name="uni79" unicode="y" d="M274 502L131-110Q108-210 1-210v34q76 0 93 69L121 2 4 502h42l93-442 93 442h42z" horiz-adv-x="281" vert-adv-y="1000"/><glyph glyph-name="uni7a" unicode="z" d="M239 0H20v31l179 437H30v34h209v-31L60 34h179V0z" horiz-adv-x="259" vert-adv-y="1000"/><glyph glyph-name="uni7b" unicode="{" d="M240-74h-10q-50 0-82 32-33 33-33 95v195q0 44-20.5 67.5T40 339H30v34h10q34 0 54.5 23.5T115 464v195q0 62 33 95 32 32 82 32h10v-34h-10q-34 0-55.5-23.5T153 661V466q0-64-31-95-8-8-22-15 11-4 22-15 31-31 31-95V51q0-44 21.5-67.5T230-40h10v-34z" horiz-adv-x="270" vert-adv-y="1000"/><glyph glyph-name="uni7c" unicode="|" d="M130-74H92v860h38V-74z" horiz-adv-x="222" vert-adv-y="1000"/><glyph glyph-name="uni7d" unicode="}" d="M240 339h-10q-34 0-54.5-23.5T155 248V53q0-62-33-95-32-32-82-32H30v34h10q34 0 55.5 23.5T117 51v195q0 64 31 95 8 8 22 15-11 4-22 15-31 31-31 95v195q0 44-21.5 67.5T40 752H30v34h10q50 0 82-32 33-33 33-95V464q0-44 20.5-67.5T230 373h10v-34z" horiz-adv-x="270" vert-adv-y="1000"/><glyph glyph-name="uni7e" unicode="~" d="M367 282q-30-30-48-39.5t-41-9.5q-23 0-78 24-41 18-58 18t-29.5-6.5Q100 262 78 240l-23 23q30 30 48 39.5t41 9.5q22 0 78-24 44-18 58-18 17 0 29.5 6.5T344 305l23-23z" horiz-adv-x="422" vert-adv-y="1000"/><glyph glyph-name="unia1" unicode="¡" d="M112-210H74v530h38v-530m10 654H64v58h58v-58z" horiz-adv-x="216" vert-adv-y="1000"/><glyph glyph-name="unia2" unicode="¢" d="M284 236q0-68-32-99-24-24-67-29V0h-32v108q-42 6-67 33-22 23-30 70t-8 144q0 97 8 144t30 70q25 27 67 33v110h32V602q41-3 67-27 32-31 32-101h-37q0 54-22 76-16 16-40 19V141q23 3 38 18 24 23 24 77h37m-131-94v426q-24-5-38-20-18-20-23.5-60T86 355q0-93 5.5-133t23.5-60q14-15 38-20z" horiz-adv-x="324" vert-adv-y="1000"/><glyph glyph-name="unia3" unicode="£" d="M339 0H101v361H36v31h65v182q0 70 39.5 108t95.5 38q64 0 103-47l-30-25q-27 36-73 36-41 0-68-29t-27-77V392h94v-31h-94V36h198V0z" horiz-adv-x="369" vert-adv-y="1000"/><glyph glyph-name="unia4" unicode="¤" d="M420 103l-24-24-57 57q-45-37-105-37t-105 37L72 79l-24 24 57 57q-37 45-37 105 0 61 37 106l-57 56 24 24 57-56q44 36 105 36t105-36l57 56 24-24-57-56q37-45 37-106 0-60-37-105l57-57m-94.5 70.5l18.75 18.75Q363 211 363 265t-37.5 91.5Q288 394 234 394t-91.5-37.5Q105 319 105 265t37.5-91.5Q180 136 234 136t91.5 37.5z" horiz-adv-x="468" vert-adv-y="1000"/><glyph glyph-name="unia5" unicode="¥" d="M285 712l-92-310h49v-31h-58l-20-66v-40h78v-31h-78V0h-40v234H46v31h78v40l-19 66H46v31h49L4 712h44l96-341 97 341h44z" horiz-adv-x="289" vert-adv-y="1000"/><glyph glyph-name="unia6" unicode="¦" d="M130 436H92v350h38V436m0-510H92v350h38V-74z" horiz-adv-x="222" vert-adv-y="1000"/><glyph glyph-name="unia7" unicode="§" d="M310 272q0-71-8-103.5T273 115q-23-23-64-31 3-2 14-9t14.5-9q3.5-2 12-8T262 47.5q4-4.5 9.5-11T282 22q19-30 19-77 0-57-32-90-34-35-85-35-49 0-82 33T69-55h38q0-42 25-70 18-21 52-21 35 0 57 23t22 68q0 39-14 61t-52 46l-63 38q-22 13-33 24-23 23-30 55.5T64 272q0 71 8 103t29 54q22 23 64 31-55 30-75 66-15 30-15 70 0 52 35 85 31 31 80 31t79-30q34-34 34-93h-38q0 41-24 68-20 21-51 21-33 0-53-20-24-23-24-62 0-36 12-57 13-23 46-43l64-38q26-16 38-28 24-24 30.5-54.5T310 272m-38 0q0 64-5 90.5T245 407q-23 24-58 24-34 0-57-23-16-17-22-44t-6-92q0-61 6-90t22-46q23-23 57-23 35 0 58 24 16 18 21.5 45.5T272 272z" horiz-adv-x="374" vert-adv-y="1000"/><glyph glyph-name="unia8" unicode="¨" d="M256 609h-50v50h50v-50m-124 0H82v50h50v-50z" horiz-adv-x="338" vert-adv-y="1000"/><glyph glyph-name="unia9" unicode="©" d="M690 612l53-53q53-53 53-203T690 100Q584-6 434-6T178 100Q72 206 72 356t106 256q106 106 256 106t256-106m-26-488.5l48 48.75Q760 221 760 356t-96 232.5Q568 686 434 686t-230-97.5Q108 491 108 356t96-232.5Q300 26 434 26t230 97.5M525 260q0-58-26-85-24-25-65-25t-66 28q-18 20-24 58.5T338 356q0 81 6 119.5t24 58.5q25 28 66 28t65-25q26-27 26-85h-35q0 46-17 63-15 16-39 16t-40-18q-13-16-17-48.5T373 356q0-76 4-108.5t17-48.5q16-18 40-18t39 16q17 17 17 63h35z" horiz-adv-x="868" vert-adv-y="1000"/><glyph glyph-name="uniaa" unicode="ª" d="M230 329h-31v33q-6-11-22-24-20-15-51-15-34 0-61 25-29 29-29 85 0 53 38 88 27 24 74 24h49v70q0 32-15.5 52T135 687q-25 0-42-17-19-20-19-62H41q0 56 28 83 25 25 66 25 42 0 68-26 27-27 27-77V329m-33 106v82h-52q-30 0-49-17-27-25-27-66 0-35 15-58.5t49-23.5q28 0 46 24t18 59z" horiz-adv-x="284" vert-adv-y="1000"/><glyph glyph-name="uniab" unicode="«" d="M297 69L170 265l127 196v-73l-81-123 81-123V69m-140 0L30 265l127 196v-73L76 265l81-123V69z" horiz-adv-x="355" vert-adv-y="1000"/><glyph glyph-name="uniac" unicode="¬" d="M372 154h-36v101H50v36h322V154z" horiz-adv-x="422" vert-adv-y="1000"/><glyph glyph-name="uniad" unicode="­" d="M245 255H58v36h187v-36z" horiz-adv-x="303" vert-adv-y="1000"/><glyph glyph-name="uniae" unicode="®" d="M690 612l53-53q53-53 53-203T690 100Q584-6 434-6T178 100Q72 206 72 356t106 256q106 106 256 106t256-106m-26-488.5l48 48.75Q760 221 760 356t-96 232.5Q568 686 434 686t-230-97.5Q108 491 108 356t96-232.5Q300 26 434 26t230 97.5M543 156h-37l-56 180h-67V156h-35v401h96q39 0 61-22 26-25 26-89 0-38-5.5-56T504 357q-10-10-21-14l60-187m-63 225q16 17 16 65t-16 65q-14 14-35 14h-62V367h62q21 0 35 14z" horiz-adv-x="868" vert-adv-y="1000"/><glyph glyph-name="uniaf" unicode="¯" d="M269 614H69v35h200v-35z" horiz-adv-x="338" vert-adv-y="1000"/><glyph glyph-name="unib0" unicode="°" d="M275 681l18.5-18.5Q312 644 312 592t-37-89q-37-37-89-37t-89 37q-37 37-37 89t37 89q37 37 89 37t89-37m3-89q0 40-26 67t-66 27q-40 0-66-26.5T94 592q0-41 26-67.5t66-26.5q40 0 66 26.5t26 67.5z" horiz-adv-x="372" vert-adv-y="1000"/><glyph glyph-name="unib1" unicode="±" d="M372 275H229V132h-36v143H50v36h143v143h36V311h143v-36m0-231H50v36h322V44z" horiz-adv-x="422" vert-adv-y="1000"/><glyph glyph-name="unib2" unicode="²" d="M229 285H35v26l138 227q24 40 24 82 0 30-18 48.5T131 687q-64 0-64-79v-13H35v13q0 57 25 82 27 27 71 27 41 0 70-24 28-24 28-73 0-50-30-99L73 312h156v-27z" horiz-adv-x="261" vert-adv-y="1000"/><glyph glyph-name="unib3" unicode="³" d="M231 397q0-63-28-91-24-26-71-26t-74 27q-23 25-23 87v10h33v-10q0-51 18-68 18-16 46-16 30 0 46 16 21 21 21 71 0 51-18 72t-49 21h-30v30h30q25 0 44 17 21 19 21 71 0 46-21 64-15 15-44 15-30 0-47-17t-17-62v-10H35v10q0 58 24 82 27 27 73 27 45 0 71-26 26-27 26-83 0-50-20-74-18-21-41-29 27-6 45-32 18-24 18-76z" horiz-adv-x="261" vert-adv-y="1000"/><glyph glyph-name="unib4" unicode="´" d="M258 712l-70-126h-40l63 126h47z" horiz-adv-x="338" vert-adv-y="1000"/><glyph glyph-name="unib5" unicode="µ" d="M296 0h-38v41q-7-16-26-30-27-19-60-19-22 0-41.5 8T104 18v-229H66v713h38V117q0-44 21.5-67.5T181 26q34 0 55.5 23.5T258 117v385h38V0z" horiz-adv-x="362" vert-adv-y="1000"/><glyph glyph-name="unib6" unicode="¶" d="M449-211h-38v889H283v-889h-38v525h-57Q50 314 50 513t138 199h261v-923z" horiz-adv-x="515" vert-adv-y="1000"/><glyph glyph-name="unib7" unicode="·" d="M182 253H72v110h110V253z" horiz-adv-x="254" vert-adv-y="1000"/><glyph glyph-name="unib8" unicode="¸" d="M196-36l-43-126h-45l50 126h38z" horiz-adv-x="338" vert-adv-y="1000"/><glyph glyph-name="unib9" unicode="¹" d="M157 285h-32v389l-66-47v37l67 48h31V285z" horiz-adv-x="261" vert-adv-y="1000"/><glyph glyph-name="uniba" unicode="º" d="M232.5 633l3.25-19q3.25-19 3.25-95t-6.5-114q-6.5-38-24.5-56-24-26-66-26t-66 26q-18 18-24.5 56T45 519q0 76 6.5 114T76 689q24 26 66 26t66-26q18-18 24.5-56m-31-216.5l2.25 15.75Q206 448 206 519t-4.5 102.5Q197 653 183 669q-15 17-41 17t-41-17q-14-16-18.5-47.5T78 519q0-71 4.5-102.5T101 369q15-17 41-17t41 17q14 16 18.5 47.5z" horiz-adv-x="284" vert-adv-y="1000"/><glyph glyph-name="unibb" unicode="»" d="M325 265L198 69v73l81 123-81 123v73l127-196m-140 0L58 69v73l81 123-81 123v73l127-196z" horiz-adv-x="355" vert-adv-y="1000"/><glyph glyph-name="unibc" unicode="¼" d="M157 285h-32v389l-66-47v37l67 48h31V285m316 427L225 0h-34l248 712h34M642 64h-30V0h-32v64H431v30l131 333h32L463 94h117v115h32V94h30V64z" horiz-adv-x="664" vert-adv-y="1000"/><glyph glyph-name="unibd" unicode="½" d="M157 285h-32v389l-66-47v37l67 48h31V285m316 427L225 0h-34l248 712h34M632 0H438v26l138 227q24 40 24 82 0 30-18 48.5T534 402q-64 0-64-79v-13h-32v13q0 57 25 82 27 27 71 27 42 0 70-24t28-73q0-50-30-99L476 27h156V0z" horiz-adv-x="664" vert-adv-y="1000"/><glyph glyph-name="unibe" unicode="¾" d="M231 397q0-63-28-91-24-26-71-26t-74 27q-23 25-23 87v10h33v-10q0-51 18-68 18-16 46-16 30 0 46 16 21 21 21 71 0 51-18 72t-49 21h-30v30h30q25 0 44 17 21 19 21 71 0 46-21 64-15 15-44 15-30 0-47-17t-17-62v-10H35v10q0 58 24 82 27 27 73 27 45 0 71-26 26-27 26-83 0-50-20-74-18-21-41-29 27-6 45-32 18-24 18-76m242 315L225 0h-34l248 712h34M642 64h-30V0h-32v64H431v30l131 333h32L463 94h117v115h32V94h30V64z" horiz-adv-x="664" vert-adv-y="1000"/><glyph glyph-name="unibf" unicode="¿" d="M298-72q0-75-36-110-34-34-88-34-57 0-90 34-20 21-29 48.5T46-53q0 65 27 112l58 98q21 35 21 77v86h38v-91q0-43-22-81l-58-98Q84 6 84-53q0-73 31-106 23-23 59-23 34 0 58 22 28 28 28 88h38m-98 516h-58v58h58v-58z" horiz-adv-x="356" vert-adv-y="1000"/><glyph glyph-name="unic0" unicode="À" d="M343 0h-44l-43 214H90L48 0H4l153 712h36L343 0m-94 250l-76 380-75-380h151m-53 516h-40L86 892h47l63-126z" horiz-adv-x="347" vert-adv-y="1000"/><glyph glyph-name="unic1" unicode="Á" d="M343 0h-44l-43 214H90L48 0H4l153 712h36L343 0m-94 250l-76 380-75-380h151m15 642l-70-126h-40l63 126h47z" horiz-adv-x="347" vert-adv-y="1000"/><glyph glyph-name="unic2" unicode="Â" d="M343 0h-44l-43 214H90L48 0H4l153 712h36L343 0m-94 250l-76 380-75-380h151m27 516h-41l-60 95-60-95H74l82 126h38l82-126z" horiz-adv-x="347" vert-adv-y="1000"/><glyph glyph-name="unic3" unicode="Ã" d="M343 0h-44l-43 214H90L48 0H4l153 712h36L343 0m-94 250l-76 380-75-380h151m35 563q-35-35-64-35-21 0-51 17-28 16-41 16-18 0-42-24l-22 22q35 35 64 35 25 0 51-17 25-16 41-16 18 0 42 24l22-22z" horiz-adv-x="347" vert-adv-y="1000"/><glyph glyph-name="unic4" unicode="Ä" d="M343 0h-44l-43 214H90L48 0H4l153 712h36L343 0m-94 250l-76 380-75-380h151m13 539h-50v50h50v-50m-124 0H88v50h50v-50z" horiz-adv-x="347" vert-adv-y="1000"/><glyph glyph-name="unic5" unicode="Å" d="M343 0h-44l-43 214H90L48 0H4l153 712h36L343 0m-94 250l-76 380-75-380h151m-13.5 646.5l12.75-12.75Q261 871 261 836t-25.5-60.5Q210 750 175 750t-60.5 25.5Q89 801 89 836t25.5 60.5Q140 922 175 922t60.5-25.5m-21.5-99l8 8.25q8 8.25 8 30.25t-16 38.5Q198 891 175 891t-39-16.5Q120 858 120 836t16-38.5q16-16.5 39-16.5t39 16.5z" horiz-adv-x="347" vert-adv-y="1000"/><glyph glyph-name="unic6" unicode="Æ" d="M529 0H299v214H127L48 0H5l266 712h258v-36H339V374h164v-36H339V36h190V0M299 250v427L141 250h158z" horiz-adv-x="579" vert-adv-y="1000"/><glyph glyph-name="unic7" unicode="Ç" d="M338 154q0-91-47-132-33-30-88-30-62 0-95 35-32 33-41 90t-9 239q0 182 9 239t41 90q33 35 95 35 59 0 94-35 41-42 41-127h-40q0 71-32 103-23 23-63 23-44 0-67-25-25-27-31.5-78T98 356q0-174 6.5-225T136 53q23-25 67-25 40 0 63 23 32 32 32 103h40M225-36l-43-126h-45l50 126h38z" horiz-adv-x="382" vert-adv-y="1000"/><glyph glyph-name="unic8" unicode="È" d="M302 0H72v712h230v-36H112V374h164v-36H112V36h190V0m-90 766h-40l-70 126h47l63-126z" horiz-adv-x="352" vert-adv-y="1000"/><glyph glyph-name="unic9" unicode="É" d="M302 0H72v712h230v-36H112V374h164v-36H112V36h190V0m-22 892l-70-126h-40l63 126h47z" horiz-adv-x="352" vert-adv-y="1000"/><glyph glyph-name="unica" unicode="Ê" d="M302 0H72v712h230v-36H112V374h164v-36H112V36h190V0m-10 766h-41l-60 95-60-95H90l82 126h38l82-126z" horiz-adv-x="352" vert-adv-y="1000"/><glyph glyph-name="unicb" unicode="Ë" d="M302 0H72v712h230v-36H112V374h164v-36H112V36h190V0m-24 789h-50v50h50v-50m-124 0h-50v50h50v-50z" horiz-adv-x="352" vert-adv-y="1000"/><glyph glyph-name="unicc" unicode="Ì" d="M112 0H72v712h40V0m1 766H73L3 892h47l63-126z" horiz-adv-x="184" vert-adv-y="1000"/><glyph glyph-name="unicd" unicode="Í" d="M112 0H72v712h40V0m69 892l-70-126H71l63 126h47z" horiz-adv-x="184" vert-adv-y="1000"/><glyph glyph-name="unice" unicode="Î" d="M112 0H72v712h40V0m81 766h-41l-60 95-60-95H-9l82 126h38l82-126z" horiz-adv-x="184" vert-adv-y="1000"/><glyph glyph-name="unicf" unicode="Ï" d="M112 0H72v712h40V0m67 789h-50v50h50v-50m-124 0H5v50h50v-50z" horiz-adv-x="184" vert-adv-y="1000"/><glyph glyph-name="unid0" unicode="Ð" d="M365.5 590.5l4.25-27.25Q374 536 374 356t-8.5-234.5Q357 67 325 34 291 0 231 0H97v338H43v36h54v338h134q60 0 94-34 32-33 40.5-87.5m-38-456l3.25 24.75Q334 184 334 356t-6.5 221.5Q321 627 295 653q-23 23-67 23h-91V374h98v-36h-98V36h91q44 0 67 23 26 26 32.5 75.5z" horiz-adv-x="432" vert-adv-y="1000"/><glyph glyph-name="unid1" unicode="Ñ" d="M366 0h-44L112 602V0H72v712h44l210-602v602h40V0m-38 813q-35-35-64-35-21 0-51 17-28 16-41 16-18 0-42-24l-22 22q35 35 64 35 25 0 51-17 25-16 41-16 18 0 42 24l22-22z" horiz-adv-x="438" vert-adv-y="1000"/><glyph glyph-name="unid2" unicode="Ò" d="M339 595l4.5-28.5Q348 538 348 356t-9-239q-9-57-41-90-33-35-95-35t-95 35q-32 33-41 90t-9 239q0 182 9 239t41 90q33 35 95 35t95-35q32-33 41-90m-37.5-464l3.25 25.5Q308 182 308 356t-6.5 225q-6.5 51-31.5 78-23 25-67 25t-67-25q-25-27-31.5-78T98 356q0-174 6.5-225T136 53q23-25 67-25t67 25q25 27 31.5 78M224 766h-40l-70 126h47l63-126z" horiz-adv-x="406" vert-adv-y="1000"/><glyph glyph-name="unid3" unicode="Ó" d="M339 595l4.5-28.5Q348 538 348 356t-9-239q-9-57-41-90-33-35-95-35t-95 35q-32 33-41 90t-9 239q0 182 9 239t41 90q33 35 95 35t95-35q32-33 41-90m-37.5-464l3.25 25.5Q308 182 308 356t-6.5 225q-6.5 51-31.5 78-23 25-67 25t-67-25q-25-27-31.5-78T98 356q0-174 6.5-225T136 53q23-25 67-25t67 25q25 27 31.5 78M292 892l-70-126h-40l63 126h47z" horiz-adv-x="406" vert-adv-y="1000"/><glyph glyph-name="unid4" unicode="Ô" d="M339 595l4.5-28.5Q348 538 348 356t-9-239q-9-57-41-90-33-35-95-35t-95 35q-32 33-41 90t-9 239q0 182 9 239t41 90q33 35 95 35t95-35q32-33 41-90m-37.5-464l3.25 25.5Q308 182 308 356t-6.5 225q-6.5 51-31.5 78-23 25-67 25t-67-25q-25-27-31.5-78T98 356q0-174 6.5-225T136 53q23-25 67-25t67 25q25 27 31.5 78m2.5 635h-41l-60 95-60-95h-41l82 126h38l82-126z" horiz-adv-x="406" vert-adv-y="1000"/><glyph glyph-name="unid5" unicode="Õ" d="M339 595l4.5-28.5Q348 538 348 356t-9-239q-9-57-41-90-33-35-95-35t-95 35q-32 33-41 90t-9 239q0 182 9 239t41 90q33 35 95 35t95-35q32-33 41-90m-37.5-464l3.25 25.5Q308 182 308 356t-6.5 225q-6.5 51-31.5 78-23 25-67 25t-67-25q-25-27-31.5-78T98 356q0-174 6.5-225T136 53q23-25 67-25t67 25q25 27 31.5 78M312 813q-35-35-64-35-21 0-51 17-28 16-41 16-18 0-42-24l-22 22q35 35 64 35 25 0 51-17 25-16 41-16 18 0 42 24l22-22z" horiz-adv-x="406" vert-adv-y="1000"/><glyph glyph-name="unid6" unicode="Ö" d="M339 595l4.5-28.5Q348 538 348 356t-9-239q-9-57-41-90-33-35-95-35t-95 35q-32 33-41 90t-9 239q0 182 9 239t41 90q33 35 95 35t95-35q32-33 41-90m-37.5-464l3.25 25.5Q308 182 308 356t-6.5 225q-6.5 51-31.5 78-23 25-67 25t-67-25q-25-27-31.5-78T98 356q0-174 6.5-225T136 53q23-25 67-25t67 25q25 27 31.5 78M290 789h-50v50h50v-50m-124 0h-50v50h50v-50z" horiz-adv-x="406" vert-adv-y="1000"/><glyph glyph-name="unid7" unicode="×" d="M354 145l-25-25-118 118L93 120l-25 25 118 118L68 381l25 25 118-118 118 118 25-25-118-118 118-118z" horiz-adv-x="422" vert-adv-y="1000"/><glyph glyph-name="unid8" unicode="Ø" d="M348 356q0-182-9-239t-41-90Q265-8 203-8q-45 0-77 21l-16-57H69l26 86q-23 30-30 89.5T58 356q0 182 9 239t41 90q33 35 95 35 45 0 77-21l16 57h41l-25-87q22-30 29-90t7-223m-79 304q-23 24-66 24-44 0-67-25-25-27-31.5-78T98 356q0-215 14-262l157 566m39-304q0 211-13 260L137 52q23-24 66-24 44 0 67 25 25 27 31.5 78t6.5 225z" horiz-adv-x="386" vert-adv-y="1000"/><glyph glyph-name="unid9" unicode="Ù" d="M334 138q0-71-40-109-37-37-95-37t-95 37Q64 67 64 138v574h40V134q0-48 27-77t68-29q41 0 68 29t27 77v578h40V138M220 766h-40l-70 126h47l63-126z" horiz-adv-x="398" vert-adv-y="1000"/><glyph glyph-name="unida" unicode="Ú" d="M334 138q0-71-40-109-37-37-95-37t-95 37Q64 67 64 138v574h40V134q0-48 27-77t68-29q41 0 68 29t27 77v578h40V138m-46 754l-70-126h-40l63 126h47z" horiz-adv-x="398" vert-adv-y="1000"/><glyph glyph-name="unidb" unicode="Û" d="M334 138q0-71-40-109-37-37-95-37t-95 37Q64 67 64 138v574h40V134q0-48 27-77t68-29q41 0 68 29t27 77v578h40V138m-34 628h-41l-60 95-60-95H98l82 126h38l82-126z" horiz-adv-x="398" vert-adv-y="1000"/><glyph glyph-name="unidc" unicode="Ü" d="M334 138q0-71-40-109-37-37-95-37t-95 37Q64 67 64 138v574h40V134q0-48 27-77t68-29q41 0 68 29t27 77v578h40V138m-48 651h-50v50h50v-50m-124 0h-50v50h50v-50z" horiz-adv-x="398" vert-adv-y="1000"/><glyph glyph-name="unidd" unicode="Ý" d="M285 712L164 305V0h-40v305L4 712h44l96-341 97 341h44m-49 180l-70-126h-40l63 126h47z" horiz-adv-x="289" vert-adv-y="1000"/><glyph glyph-name="unide" unicode="Þ" d="M342 359q0-61-12-101.5t-35-59q-23-18.5-45-25t-52-6.5h-86V0H72v712h40V551h86q31 0 53-6t44.5-24.5q22.5-18.5 34.5-59T342 359m-67.5-125l13.75 15.5Q302 265 302 359t-27.5 125Q247 515 195 515h-83V203h83q52 0 79.5 31z" horiz-adv-x="391" vert-adv-y="1000"/><glyph glyph-name="unidf" unicode="ß" d="M309 228q0-90-6.5-131T272 32Q240 0 181 0v34q42 0 63 23 16 17 21.5 52t5.5 119q0 78-6 116t-21 55q-21 22-54 22h-9v34h7q27 0 45 20 27 29 27 99 0 62-25 90-21 22-54 22-34 0-55.5-23.5T104 595V0H66v593q0 62 33 95 32 32 82 32t82-32q21-21 28-45t7-69q0-65-20-99-12-20-33-33 15-7 27-19 22-22 29.5-60.5T309 228z" horiz-adv-x="357" vert-adv-y="1000"/><glyph glyph-name="unie0" unicode="à" d="M274 0h-38v47q-8-19-26-34-26-21-62-21-44 0-74 30-34 36-34 114 0 76 41 114 36 33 93 33h62v98q0 96-77 96-30 0-50-20-25-25-25-79H46q0 67 34 101 31 31 79 31 54 0 83-29 32-32 32-99V0m-38 126v125h-64q-39 0-64-24-30-28-30-91 0-110 77-110 37 0 59 28.5t22 71.5m-49 460h-40L77 712h47l63-126z" horiz-adv-x="335" vert-adv-y="1000"/><glyph glyph-name="unie1" unicode="á" d="M274 0h-38v47q-8-19-26-34-26-21-62-21-44 0-74 30-34 36-34 114 0 76 41 114 36 33 93 33h62v98q0 96-77 96-30 0-50-20-25-25-25-79H46q0 67 34 101 31 31 79 31 54 0 83-29 32-32 32-99V0m-38 126v125h-64q-39 0-64-24-30-28-30-91 0-110 77-110 37 0 59 28.5t22 71.5m16 586l-70-126h-40l63 126h47z" horiz-adv-x="335" vert-adv-y="1000"/><glyph glyph-name="unie2" unicode="â" d="M274 0h-38v47q-8-19-26-34-26-21-62-21-44 0-74 30-34 36-34 114 0 76 41 114 36 33 93 33h62v98q0 96-77 96-30 0-50-20-25-25-25-79H46q0 67 34 101 31 31 79 31 54 0 83-29 32-32 32-99V0m-38 126v125h-64q-39 0-64-24-30-28-30-91 0-110 77-110 37 0 59 28.5t22 71.5m28 460h-41l-60 95-60-95H62l82 126h38l82-126z" horiz-adv-x="335" vert-adv-y="1000"/><glyph glyph-name="unie3" unicode="ã" d="M274 0h-38v47q-8-19-26-34-26-21-62-21-44 0-74 30-34 36-34 114 0 76 41 114 36 33 93 33h62v98q0 96-77 96-30 0-50-20-25-25-25-79H46q0 67 34 101 31 31 79 31 54 0 83-29 32-32 32-99V0m-38 126v125h-64q-39 0-64-24-30-28-30-91 0-110 77-110 37 0 59 28.5t22 71.5m37 507q-35-35-64-35-21 0-51 17-28 16-41 16-18 0-42-24l-22 22q35 35 64 35 25 0 51-17 25-16 41-16 18 0 42 24l22-22z" horiz-adv-x="335" vert-adv-y="1000"/><glyph glyph-name="unie4" unicode="ä" d="M274 0h-38v47q-8-19-26-34-26-21-62-21-44 0-74 30-34 36-34 114 0 76 41 114 36 33 93 33h62v98q0 96-77 96-30 0-50-20-25-25-25-79H46q0 67 34 101 31 31 79 31 54 0 83-29 32-32 32-99V0m-38 126v125h-64q-39 0-64-24-30-28-30-91 0-110 77-110 37 0 59 28.5t22 71.5m14 483h-50v50h50v-50m-124 0H76v50h50v-50z" horiz-adv-x="335" vert-adv-y="1000"/><glyph glyph-name="unie5" unicode="å" d="M274 0h-38v47q-8-19-26-34-26-21-62-21-44 0-74 30-34 36-34 114 0 76 41 114 36 33 93 33h62v98q0 96-77 96-30 0-50-20-25-25-25-79H46q0 67 34 101 31 31 79 31 54 0 83-29 32-32 32-99V0m-38 126v125h-64q-39 0-64-24-30-28-30-91 0-110 77-110 37 0 59 28.5t22 71.5m-12.5 600.5l12.75-12.75Q249 701 249 666t-25.5-60.5Q198 580 163 580t-60.5 25.5Q77 631 77 666t25.5 60.5Q128 752 163 752t60.5-25.5m-21.5-99l8 8.25q8 8.25 8 30.25t-16 38.5Q186 721 163 721t-39-16.5Q108 688 108 666t16-38.5q16-16.5 39-16.5t39 16.5z" horiz-adv-x="335" vert-adv-y="1000"/><glyph glyph-name="unie6" unicode="æ" d="M478 251H274q0-96 5.5-138.5T304 49q21-23 55-23 35 0 55 20 26 25 26 81h37q0-67-35-103-32-32-83-32-49 0-80 31-19 21-27 45-11-34-34-52-31-24-70-24-44 0-74 30-34 36-34 114 0 76 41 114 36 33 93 33h62v98q0 96-77 96-30 0-50-20-25-25-25-79H46q0 67 34 101 31 31 79 31 54 0 83-29 12-13 18-26 4 8 14 20 32 35 83 35t83-35q22-24 30-73.5t8-150.5M236 126v125h-64q-39 0-64-24-30-28-30-91 0-110 77-110 37 0 59 28.5t22 71.5m204 157q-1 79-6.5 115T411 453q-21 23-54 23t-54-23q-17-19-22.5-55T274 283h166z" horiz-adv-x="523" vert-adv-y="1000"/><glyph glyph-name="unie7" unicode="ç" d="M284 127q0-71-32-104-31-31-83-31-51 0-83 35-22 24-30 73.5T48 251q0 101 8 150.5T86 475q32 35 83 35 54 0 83-29 32-32 32-106h-37q0 57-22 80-20 21-55 21-34 0-55-23-18-21-23.5-63T86 251q0-97 5.5-139T115 49q21-23 55-23 33 0 53 20 24 24 24 81h37M196-36l-43-126h-45l50 126h38z" horiz-adv-x="324" vert-adv-y="1000"/><glyph glyph-name="unie8" unicode="è" d="M290 251H86q0-96 5.5-138.5T116 49q21-23 55-23 35 0 55 20 26 25 26 81h37q0-67-35-103-32-32-83-32-52 0-84 35-22 24-30.5 74T48 251q0 101 8 150.5T86 475q32 35 83 35t83-35q22-24 30-73.5t8-150.5m-38 32q-1 79-6.5 115T223 453q-21 23-54 23t-54-23q-17-19-22.5-55T86 283h166m-59 303h-40L83 712h47l63-126z" horiz-adv-x="333" vert-adv-y="1000"/><glyph glyph-name="unie9" unicode="é" d="M290 251H86q0-96 5.5-138.5T116 49q21-23 55-23 35 0 55 20 26 25 26 81h37q0-67-35-103-32-32-83-32-52 0-84 35-22 24-30.5 74T48 251q0 101 8 150.5T86 475q32 35 83 35t83-35q22-24 30-73.5t8-150.5m-38 32q-1 79-6.5 115T223 453q-21 23-54 23t-54-23q-17-19-22.5-55T86 283h166m6 429l-70-126h-40l63 126h47z" horiz-adv-x="333" vert-adv-y="1000"/><glyph glyph-name="uniea" unicode="ê" d="M290 251H86q0-96 5.5-138.5T116 49q21-23 55-23 35 0 55 20 26 25 26 81h37q0-67-35-103-32-32-83-32-52 0-84 35-22 24-30.5 74T48 251q0 101 8 150.5T86 475q32 35 83 35t83-35q22-24 30-73.5t8-150.5m-38 32q-1 79-6.5 115T223 453q-21 23-54 23t-54-23q-17-19-22.5-55T86 283h166m18 303h-41l-60 95-60-95H68l82 126h38l82-126z" horiz-adv-x="333" vert-adv-y="1000"/><glyph glyph-name="unieb" unicode="ë" d="M290 251H86q0-96 5.5-138.5T116 49q21-23 55-23 35 0 55 20 26 25 26 81h37q0-67-35-103-32-32-83-32-52 0-84 35-22 24-30.5 74T48 251q0 101 8 150.5T86 475q32 35 83 35t83-35q22-24 30-73.5t8-150.5m-38 32q-1 79-6.5 115T223 453q-21 23-54 23t-54-23q-17-19-22.5-55T86 283h166m4 326h-50v50h50v-50m-124 0H82v50h50v-50z" horiz-adv-x="333" vert-adv-y="1000"/><glyph glyph-name="uniec" unicode="ì" d="M104 0H66v502h38V0m2 586H66L-4 712h47l63-126z" horiz-adv-x="170" vert-adv-y="1000"/><glyph glyph-name="unied" unicode="í" d="M104 0H66v502h38V0m70 712l-70-126H64l63 126h47z" horiz-adv-x="170" vert-adv-y="1000"/><glyph glyph-name="uniee" unicode="î" d="M104 0H66v502h38V0m82 586h-41l-60 95-60-95h-41l82 126h38l82-126z" horiz-adv-x="170" vert-adv-y="1000"/><glyph glyph-name="unief" unicode="ï" d="M104 0H66v502h38V0m68 609h-50v50h50v-50m-124 0H-2v50h50v-50z" horiz-adv-x="170" vert-adv-y="1000"/><glyph glyph-name="unif0" unicode="ð" d="M290 251q0-101-8-150.5T252 27Q220-8 169-8T86 27q-22 24-30 73.5T48 251q0 101 8 150.5T86 475q31 34 81 34 31 0 54-13l-33 90h-84v32h72l-37 94h40l36-94h72v-32h-60l41-120q22-66 22-215m-43.5-139l2.75 21Q252 154 252 251t-5.5 139q-5.5 42-23.5 63-21 23-54 23t-54-23q-18-21-23.5-63T86 251q0-97 5.5-139T115 49q21-23 54-23t54 23q18 21 23.5 63z" horiz-adv-x="338" vert-adv-y="1000"/><glyph glyph-name="unif1" unicode="ñ" d="M296 0h-38v384q0 44-21.5 67.5T181 475q-34 0-55.5-23.5T104 384V0H66v502h38v-41q7 16 26 30 25 19 60 19 45 0 75-32 31-31 31-95V0m-4 633q-35-35-64-35-21 0-51 17-28 16-41 16-18 0-42-24l-22 22q35 35 64 35 25 0 51-17 25-16 41-16 18 0 42 24l22-22z" horiz-adv-x="357" vert-adv-y="1000"/><glyph glyph-name="unif2" unicode="ò" d="M282 401.5l4-24.75Q290 352 290 251t-8-150.5Q274 51 252 27 220-8 169-8T86 27q-22 24-30 73.5T48 251q0 101 8 150.5T86 475q32 35 83 35t83-35q22-24 30-73.5M246.5 112l2.75 21Q252 154 252 251t-5.5 139q-5.5 42-23.5 63-21 23-54 23t-54-23q-18-21-23.5-63T86 251q0-97 5.5-139T115 49q21-23 54-23t54 23q18 21 23.5 63M193 586h-40L83 712h47l63-126z" horiz-adv-x="338" vert-adv-y="1000"/><glyph glyph-name="unif3" unicode="ó" d="M282 401.5l4-24.75Q290 352 290 251t-8-150.5Q274 51 252 27 220-8 169-8T86 27q-22 24-30 73.5T48 251q0 101 8 150.5T86 475q32 35 83 35t83-35q22-24 30-73.5M246.5 112l2.75 21Q252 154 252 251t-5.5 139q-5.5 42-23.5 63-21 23-54 23t-54-23q-18-21-23.5-63T86 251q0-97 5.5-139T115 49q21-23 54-23t54 23q18 21 23.5 63M258 712l-70-126h-40l63 126h47z" horiz-adv-x="338" vert-adv-y="1000"/><glyph glyph-name="unif4" unicode="ô" d="M282 401.5l4-24.75Q290 352 290 251t-8-150.5Q274 51 252 27 220-8 169-8T86 27q-22 24-30 73.5T48 251q0 101 8 150.5T86 475q32 35 83 35t83-35q22-24 30-73.5M246.5 112l2.75 21Q252 154 252 251t-5.5 139q-5.5 42-23.5 63-21 23-54 23t-54-23q-18-21-23.5-63T86 251q0-97 5.5-139T115 49q21-23 54-23t54 23q18 21 23.5 63M270 586h-41l-60 95-60-95H68l82 126h38l82-126z" horiz-adv-x="338" vert-adv-y="1000"/><glyph glyph-name="unif5" unicode="õ" d="M282 401.5l4-24.75Q290 352 290 251t-8-150.5Q274 51 252 27 220-8 169-8T86 27q-22 24-30 73.5T48 251q0 101 8 150.5T86 475q32 35 83 35t83-35q22-24 30-73.5M246.5 112l2.75 21Q252 154 252 251t-5.5 139q-5.5 42-23.5 63-21 23-54 23t-54-23q-18-21-23.5-63T86 251q0-97 5.5-139T115 49q21-23 54-23t54 23q18 21 23.5 63M279 633q-35-35-64-35-21 0-51 17-28 16-41 16-18 0-42-24l-22 22q35 35 64 35 25 0 51-17 25-16 41-16 18 0 42 24l22-22z" horiz-adv-x="338" vert-adv-y="1000"/><glyph glyph-name="unif6" unicode="ö" d="M282 401.5l4-24.75Q290 352 290 251t-8-150.5Q274 51 252 27 220-8 169-8T86 27q-22 24-30 73.5T48 251q0 101 8 150.5T86 475q32 35 83 35t83-35q22-24 30-73.5M246.5 112l2.75 21Q252 154 252 251t-5.5 139q-5.5 42-23.5 63-21 23-54 23t-54-23q-18-21-23.5-63T86 251q0-97 5.5-139T115 49q21-23 54-23t54 23q18 21 23.5 63m9.5 497h-50v50h50v-50m-124 0H82v50h50v-50z" horiz-adv-x="338" vert-adv-y="1000"/><glyph glyph-name="unif7" unicode="÷" d="M372 255H50v36h322v-36M241 110h-58v58h58v-58m0 267h-58v58h58v-58z" horiz-adv-x="422" vert-adv-y="1000"/><glyph glyph-name="unif8" unicode="ø" d="M291 546l-29-84q28-45 28-211 0-101-8-150.5T252 27Q220-8 169-8q-40 0-66 20L84-44H47l29 84Q48 86 48 251q0 101 8 150.5T86 475q32 35 83 35 40 0 66-20l19 56h37m-39-295q0 126-10 164L116 48q20-22 53-22t54 23q18 21 23.5 63t5.5 139m-30 203q-20 22-53 22t-54-23q-18-21-23.5-63T86 251q0-126 10-163l126 366z" horiz-adv-x="330" vert-adv-y="1000"/><glyph glyph-name="unif9" unicode="ù" d="M291 0h-38v41q-7-16-26-30-25-19-60-19-45 0-75 32-31 31-31 95v383h38V118q0-44 21.5-67.5T176 27q34 0 55.5 23.5T253 118v384h38V0m-91 586h-40L90 712h47l63-126z" horiz-adv-x="357" vert-adv-y="1000"/><glyph glyph-name="unifa" unicode="ú" d="M291 0h-38v41q-7-16-26-30-25-19-60-19-45 0-75 32-31 31-31 95v383h38V118q0-44 21.5-67.5T176 27q34 0 55.5 23.5T253 118v384h38V0m-26 712l-70-126h-40l63 126h47z" horiz-adv-x="357" vert-adv-y="1000"/><glyph glyph-name="unifb" unicode="û" d="M291 0h-38v41q-7-16-26-30-25-19-60-19-45 0-75 32-31 31-31 95v383h38V118q0-44 21.5-67.5T176 27q34 0 55.5 23.5T253 118v384h38V0m-14 586h-41l-60 95-60-95H75l82 126h38l82-126z" horiz-adv-x="357" vert-adv-y="1000"/><glyph glyph-name="unifc" unicode="ü" d="M291 0h-38v41q-7-16-26-30-25-19-60-19-45 0-75 32-31 31-31 95v383h38V118q0-44 21.5-67.5T176 27q34 0 55.5 23.5T253 118v384h38V0m-28 609h-50v50h50v-50m-124 0H89v50h50v-50z" horiz-adv-x="357" vert-adv-y="1000"/><glyph glyph-name="unifd" unicode="ý" d="M274 502L131-110Q108-210 1-210v34q76 0 93 69L121 2 4 502h42l93-442 93 442h42m-40 210l-70-126h-40l63 126h47z" horiz-adv-x="281" vert-adv-y="1000"/><glyph glyph-name="unife" unicode="þ" d="M294 402l4-25q4-25 4-126t-8-151q-8-50-30-74-30-34-74-34-36 0-60 17-15 10-26 30v-249H66v922h38V461q7 16 26 30 25 19 60 19 43 0 74-34 22-24 30-74m-35.5-290l2.75 21Q264 154 264 251t-5.5 139q-5.5 42-23.5 63-21 23-52 23t-53-20q-26-26-26-78V124q0-52 26-78 22-20 53-20t52 23q18 21 23.5 63z" horiz-adv-x="350" vert-adv-y="1000"/><glyph glyph-name="uniff" unicode="ÿ" d="M274 502L131-110Q108-210 1-210v34q76 0 93 69L121 2 4 502h42l93-442 93 442h42m-42 107h-50v50h50v-50m-124 0H58v50h50v-50z" horiz-adv-x="281" vert-adv-y="1000"/><glyph glyph-name="uni0100" unicode="Ā" d="M343 0h-44l-43 214H90L48 0H4l153 712h36L343 0m-94 250l-76 380-75-380h151m26 539H75v35h200v-35z" horiz-adv-x="347" vert-adv-y="1000"/><glyph glyph-name="uni0101" unicode="ā" d="M274 0h-38v47q-8-19-26-34-26-21-62-21-44 0-74 30-34 36-34 114 0 76 41 114 36 33 93 33h62v98q0 96-77 96-30 0-50-20-25-25-25-79H46q0 67 34 101 31 31 79 31 54 0 83-29 32-32 32-99V0m-38 126v125h-64q-39 0-64-24-30-28-30-91 0-110 77-110 37 0 59 28.5t22 71.5m27 488H63v35h200v-35z" horiz-adv-x="335" vert-adv-y="1000"/><glyph glyph-name="uni0102" unicode="Ă" d="M343 0h-44l-43 214H90L48 0H4l153 712h36L343 0m-94 250l-76 380-75-380h151m31 602q-5-50-30-74.5T175 753q-50 0-75 24.5T70 852h36q9-65 69-65t69 65h36z" horiz-adv-x="347" vert-adv-y="1000"/><glyph glyph-name="uni0103" unicode="ă" d="M274 0h-38v47q-8-19-26-34-26-21-62-21-44 0-74 30-34 36-34 114 0 76 41 114 36 33 93 33h62v98q0 96-77 96-30 0-50-20-25-25-25-79H46q0 67 34 101 31 31 79 31 54 0 83-29 32-32 32-99V0m-38 126v125h-64q-39 0-64-24-30-28-30-91 0-110 77-110 37 0 59 28.5t22 71.5m32 551q-5-50-30-74.5T163 578q-50 0-75 24.5T58 677h36q9-65 69-65t69 65h36z" horiz-adv-x="335" vert-adv-y="1000"/><glyph glyph-name="uni0104" unicode="Ą" d="M343 0h-44l-43 214H90L48 0H4l153 712h36L343 0m-94 250l-76 380-75-380h151m85-286l-43-126h-45l50 126h38z" horiz-adv-x="347" vert-adv-y="1000"/><glyph glyph-name="uni0105" unicode="ą" d="M274 0h-38v47q-8-19-26-34-26-21-62-21-44 0-74 30-34 36-34 114 0 76 41 114 36 33 93 33h62v98q0 96-77 96-30 0-50-20-25-25-25-79H46q0 67 34 101 31 31 79 31 54 0 83-29 32-32 32-99V0m-38 126v125h-64q-39 0-64-24-30-28-30-91 0-110 77-110 37 0 59 28.5t22 71.5m40-162l-43-126h-45l50 126h38z" horiz-adv-x="335" vert-adv-y="1000"/><glyph glyph-name="uni0106" unicode="Ć" d="M338 154q0-91-47-132-33-30-88-30-62 0-95 35-32 33-41 90t-9 239q0 182 9 239t41 90q33 35 95 35 59 0 94-35 41-42 41-127h-40q0 71-32 103-23 23-63 23-44 0-67-25-25-27-31.5-78T98 356q0-174 6.5-225T136 53q23-25 67-25 40 0 63 23 32 32 32 103h40m-46 738l-70-126h-40l63 126h47z" horiz-adv-x="382" vert-adv-y="1000"/><glyph glyph-name="uni0107" unicode="ć" d="M284 127q0-71-32-104-31-31-83-31-51 0-83 35-22 24-30 73.5T48 251q0 101 8 150.5T86 475q32 35 83 35 54 0 83-29 32-32 32-106h-37q0 57-22 80-20 21-55 21-34 0-55-23-18-21-23.5-63T86 251q0-97 5.5-139T115 49q21-23 55-23 33 0 53 20 24 24 24 81h37m-26 585l-70-126h-40l63 126h47z" horiz-adv-x="324" vert-adv-y="1000"/><glyph glyph-name="uni0108" unicode="Ĉ" d="M338 154q0-91-47-132-33-30-88-30-62 0-95 35-32 33-41 90t-9 239q0 182 9 239t41 90q33 35 95 35 59 0 94-35 41-42 41-127h-40q0 71-32 103-23 23-63 23-44 0-67-25-25-27-31.5-78T98 356q0-174 6.5-225T136 53q23-25 67-25 40 0 63 23 32 32 32 103h40m-34 612h-41l-60 95-60-95h-41l82 126h38l82-126z" horiz-adv-x="382" vert-adv-y="1000"/><glyph glyph-name="uni0109" unicode="ĉ" d="M284 127q0-71-32-104-31-31-83-31-51 0-83 35-22 24-30 73.5T48 251q0 101 8 150.5T86 475q32 35 83 35 54 0 83-29 32-32 32-106h-37q0 57-22 80-20 21-55 21-34 0-55-23-18-21-23.5-63T86 251q0-97 5.5-139T115 49q21-23 55-23 33 0 53 20 24 24 24 81h37m-14 459h-41l-60 95-60-95H68l82 126h38l82-126z" horiz-adv-x="324" vert-adv-y="1000"/><glyph glyph-name="uni010A" unicode="Ċ" d="M338 154q0-91-47-132-33-30-88-30-62 0-95 35-32 33-41 90t-9 239q0 182 9 239t41 90q33 35 95 35 59 0 94-35 41-42 41-127h-40q0 71-32 103-23 23-63 23-44 0-67-25-25-27-31.5-78T98 356q0-174 6.5-225T136 53q23-25 67-25 40 0 63 23 32 32 32 103h40M228 789h-50v50h50v-50z" horiz-adv-x="382" vert-adv-y="1000"/><glyph glyph-name="uni010B" unicode="ċ" d="M284 127q0-71-32-104-31-31-83-31-51 0-83 35-22 24-30 73.5T48 251q0 101 8 150.5T86 475q32 35 83 35 54 0 83-29 32-32 32-106h-37q0 57-22 80-20 21-55 21-34 0-55-23-18-21-23.5-63T86 251q0-97 5.5-139T115 49q21-23 55-23 33 0 53 20 24 24 24 81h37m-90 487h-50v50h50v-50z" horiz-adv-x="324" vert-adv-y="1000"/><glyph glyph-name="uni010C" unicode="Č" d="M338 154q0-91-47-132-33-30-88-30-62 0-95 35-32 33-41 90t-9 239q0 182 9 239t41 90q33 35 95 35 59 0 94-35 41-42 41-127h-40q0 71-32 103-23 23-63 23-44 0-67-25-25-27-31.5-78T98 356q0-174 6.5-225T136 53q23-25 67-25 40 0 63 23 32 32 32 103h40m-34 730l-82-126h-38l-82 126h41l60-95 60 95h41z" horiz-adv-x="382" vert-adv-y="1000"/><glyph glyph-name="uni010D" unicode="č" d="M284 127q0-71-32-104-31-31-83-31-51 0-83 35-22 24-30 73.5T48 251q0 101 8 150.5T86 475q32 35 83 35 54 0 83-29 32-32 32-106h-37q0 57-22 80-20 21-55 21-34 0-55-23-18-21-23.5-63T86 251q0-97 5.5-139T115 49q21-23 55-23 33 0 53 20 24 24 24 81h37m-14 577l-82-126h-38L68 704h41l60-95 60 95h41z" horiz-adv-x="324" vert-adv-y="1000"/><glyph glyph-name="uni010E" unicode="Ď" d="M340.5 590.5l4.25-27.25Q349 536 349 356t-8.5-234.5Q332 67 300 34 266 0 206 0H72v712h134q60 0 94-34 32-33 40.5-87.5m-38-456l3.25 24.75Q309 184 309 356t-6.5 221.5Q296 627 270 653q-23 23-67 23h-91V36h91q44 0 67 23 26 26 32.5 75.5M301 884l-82-126h-38L99 884h41l60-95 60 95h41z" horiz-adv-x="407" vert-adv-y="1000"/><glyph glyph-name="uni010F" unicode="ď" d="M395 712l-28-126h-35l20 126h43M284 0h-38v41q-7-16-26-30-25-19-60-19-43 0-74 34-22 24-30 74t-8 151q0 101 8 151t30 74q30 34 74 34 36 0 60-17 15-10 26-30v249h38V0m-38 124v254q0 52-26 78-22 20-53 20t-52-23q-18-21-23.5-63T86 251q0-97 5.5-139T115 49q21-23 52-23t53 20q26 26 26 78z" horiz-adv-x="350" vert-adv-y="1000"/><glyph glyph-name="uni0110" unicode="Đ" d="M365.5 590.5l4.25-27.25Q374 536 374 356t-8.5-234.5Q357 67 325 34 291 0 231 0H97v338H43v36h54v338h134q60 0 94-34 32-33 40.5-87.5m-38-456l3.25 24.75Q334 184 334 356t-6.5 221.5Q321 627 295 653q-23 23-67 23h-91V374h98v-36h-98V36h91q44 0 67 23 26 26 32.5 75.5z" horiz-adv-x="432" vert-adv-y="1000"/><glyph glyph-name="uni0111" unicode="đ" d="M345 586h-61V0h-38v41q-7-16-26-30-25-19-60-19-43 0-74 34-22 24-30 74t-8 151q0 101 8 151t30 74q30 34 74 34 36 0 60-17 15-10 26-30v123h-91v32h91v94h38v-94h61v-32m-99-462v254q0 52-26 78-22 20-53 20t-52-23q-18-21-23.5-63T86 251q0-97 5.5-139T115 49q21-23 52-23t53 20q26 26 26 78z" horiz-adv-x="368" vert-adv-y="1000"/><glyph glyph-name="uni0112" unicode="Ē" d="M302 0H72v712h230v-36H112V374h164v-36H112V36h190V0m-11 789H91v35h200v-35z" horiz-adv-x="352" vert-adv-y="1000"/><glyph glyph-name="uni0113" unicode="ē" d="M290 251H86q0-96 5.5-138.5T116 49q21-23 55-23 35 0 55 20 26 25 26 81h37q0-67-35-103-32-32-83-32-52 0-84 35-22 24-30.5 74T48 251q0 101 8 150.5T86 475q32 35 83 35t83-35q22-24 30-73.5t8-150.5m-38 32q-1 79-6.5 115T223 453q-21 23-54 23t-54-23q-17-19-22.5-55T86 283h166m17 331H69v35h200v-35z" horiz-adv-x="333" vert-adv-y="1000"/><glyph glyph-name="uni0114" unicode="Ĕ" d="M302 0H72v712h230v-36H112V374h164v-36H112V36h190V0m-7 852q-5-50-30-74.5T190 753q-50 0-75 24.5T85 852h36q9-65 69-65t69 65h36z" horiz-adv-x="352" vert-adv-y="1000"/><glyph glyph-name="uni0115" unicode="ĕ" d="M290 251H86q0-96 5.5-138.5T116 49q21-23 55-23 35 0 55 20 26 25 26 81h37q0-67-35-103-32-32-83-32-52 0-84 35-22 24-30.5 74T48 251q0 101 8 150.5T86 475q32 35 83 35t83-35q22-24 30-73.5t8-150.5m-38 32q-1 79-6.5 115T223 453q-21 23-54 23t-54-23q-17-19-22.5-55T86 283h166m22 394q-5-50-30-74.5T169 578q-50 0-75 24.5T64 677h36q9-65 69-65t69 65h36z" horiz-adv-x="333" vert-adv-y="1000"/><glyph glyph-name="uni0116" unicode="Ė" d="M302 0H72v712h230v-36H112V374h164v-36H112V36h190V0m-86 789h-50v50h50v-50z" horiz-adv-x="352" vert-adv-y="1000"/><glyph glyph-name="uni0117" unicode="ė" d="M290 251H86q0-96 5.5-138.5T116 49q21-23 55-23 35 0 55 20 26 25 26 81h37q0-67-35-103-32-32-83-32-52 0-84 35-22 24-30.5 74T48 251q0 101 8 150.5T86 475q32 35 83 35t83-35q22-24 30-73.5t8-150.5m-38 32q-1 79-6.5 115T223 453q-21 23-54 23t-54-23q-17-19-22.5-55T86 283h166m-58 331h-50v50h50v-50z" horiz-adv-x="333" vert-adv-y="1000"/><glyph glyph-name="uni0118" unicode="Ę" d="M302 0H72v712h230v-36H112V374h164v-36H112V36h190V0m-21-36l-43-126h-45l50 126h38z" horiz-adv-x="352" vert-adv-y="1000"/><glyph glyph-name="uni0119" unicode="ę" d="M290 251H86q0-96 5.5-138.5T116 49q21-23 55-23 35 0 55 20 26 25 26 81h37q0-67-35-103-32-32-83-32-52 0-84 35-22 24-30.5 74T48 251q0 101 8 150.5T86 475q32 35 83 35t83-35q22-24 30-73.5t8-150.5m-38 32q-1 79-6.5 115T223 453q-21 23-54 23t-54-23q-17-19-22.5-55T86 283h166M236-36l-43-126h-45l50 126h38z" horiz-adv-x="333" vert-adv-y="1000"/><glyph glyph-name="uni011A" unicode="Ě" d="M302 0H72v712h230v-36H112V374h164v-36H112V36h190V0m-10 884l-82-126h-38L90 884h41l60-95 60 95h41z" horiz-adv-x="352" vert-adv-y="1000"/><glyph glyph-name="uni011B" unicode="ě" d="M290 251H86q0-96 5.5-138.5T116 49q21-23 55-23 35 0 55 20 26 25 26 81h37q0-67-35-103-32-32-83-32-52 0-84 35-22 24-30.5 74T48 251q0 101 8 150.5T86 475q32 35 83 35t83-35q22-24 30-73.5t8-150.5m-38 32q-1 79-6.5 115T223 453q-21 23-54 23t-54-23q-17-19-22.5-55T86 283h166m18 421l-82-126h-38L68 704h41l60-95 60 95h41z" horiz-adv-x="333" vert-adv-y="1000"/><glyph glyph-name="uni011C" unicode="Ĝ" d="M338 138q0-70-39.5-108T203-8q-62 0-95 35-32 33-41 90t-9 239q0 182 9 239t41 90q33 35 95 35 59 0 95-36 40-43 40-126h-40q0 126-95 126-44 0-67-25-25-27-31.5-78T98 356q0-174 6.5-225T136 53q23-25 67-25 41 0 68 29.5t27 82.5v198h-95v36h135V138m-34 628h-41l-60 95-60-95h-41l82 126h38l82-126z" horiz-adv-x="396" vert-adv-y="1000"/><glyph glyph-name="uni011D" unicode="ĝ" d="M246 124v254q0 52-26 78-22 20-53 20t-52-23q-18-21-23.5-63T86 251q0-97 5.5-139T115 49q21-23 52-23t53 20q26 26 26 78m38 378V-17q0-69-7.5-101.5T248-175q-32-35-82-35-53 0-84 31-32 33-32 104h37q0-57 24-81 20-20 54-20 33 0 54 23 27 30 27 137v56q-9-17-26-30-24-18-59-18-44 0-75 34-23 25-30.5 73T48 251q0 104 7.5 152T86 476q31 34 75 34 35 0 59-18 17-13 26-30v40h38m-16 84h-41l-60 95-60-95H66l82 126h38l82-126z" horiz-adv-x="350" vert-adv-y="1000"/><glyph glyph-name="uni011E" unicode="Ğ" d="M338 138q0-70-39.5-108T203-8q-62 0-95 35-32 33-41 90t-9 239q0 182 9 239t41 90q33 35 95 35 59 0 95-36 40-43 40-126h-40q0 126-95 126-44 0-67-25-25-27-31.5-78T98 356q0-174 6.5-225T136 53q23-25 67-25 41 0 68 29.5t27 82.5v198h-95v36h135V138m-30 714q-5-50-30-74.5T203 753q-50 0-75 24.5T98 852h36q9-65 69-65t69 65h36z" horiz-adv-x="396" vert-adv-y="1000"/><glyph glyph-name="uni011F" unicode="ğ" d="M246 124v254q0 52-26 78-22 20-53 20t-52-23q-18-21-23.5-63T86 251q0-97 5.5-139T115 49q21-23 52-23t53 20q26 26 26 78m38 378V-17q0-69-7.5-101.5T248-175q-32-35-82-35-53 0-84 31-32 33-32 104h37q0-57 24-81 20-20 54-20 33 0 54 23 27 30 27 137v56q-9-17-26-30-24-18-59-18-44 0-75 34-23 25-30.5 73T48 251q0 104 7.5 152T86 476q31 34 75 34 35 0 59-18 17-13 26-30v40h38m-12 175q-5-50-30-74.5T167 578q-50 0-75 24.5T62 677h36q9-65 69-65t69 65h36z" horiz-adv-x="350" vert-adv-y="1000"/><glyph glyph-name="uni0120" unicode="Ġ" d="M338 138q0-70-39.5-108T203-8q-62 0-95 35-32 33-41 90t-9 239q0 182 9 239t41 90q33 35 95 35 59 0 95-36 40-43 40-126h-40q0 126-95 126-44 0-67-25-25-27-31.5-78T98 356q0-174 6.5-225T136 53q23-25 67-25 41 0 68 29.5t27 82.5v198h-95v36h135V138M228 789h-50v50h50v-50z" horiz-adv-x="396" vert-adv-y="1000"/><glyph glyph-name="uni0121" unicode="ġ" d="M246 124v254q0 52-26 78-22 20-53 20t-52-23q-18-21-23.5-63T86 251q0-97 5.5-139T115 49q21-23 52-23t53 20q26 26 26 78m38 378V-17q0-69-7.5-101.5T248-175q-32-35-82-35-53 0-84 31-32 33-32 104h37q0-57 24-81 20-20 54-20 33 0 54 23 27 30 27 137v56q-9-17-26-30-24-18-59-18-44 0-75 34-23 25-30.5 73T48 251q0 104 7.5 152T86 476q31 34 75 34 35 0 59-18 17-13 26-30v40h38m-92 112h-50v50h50v-50z" horiz-adv-x="350" vert-adv-y="1000"/><glyph glyph-name="uni0122" unicode="Ģ" d="M338 138q0-70-39.5-108T203-8q-62 0-95 35-32 33-41 90t-9 239q0 182 9 239t41 90q33 35 95 35 59 0 95-36 40-43 40-126h-40q0 126-95 126-44 0-67-25-25-27-31.5-78T98 356q0-174 6.5-225T136 53q23-25 67-25 41 0 68 29.5t27 82.5v198h-95v36h135V138M225-36l-43-126h-45l50 126h38z" horiz-adv-x="396" vert-adv-y="1000"/><glyph glyph-name="uni0123" unicode="ģ" d="M246 124v254q0 52-26 78-22 20-53 20t-52-23q-18-21-23.5-63T86 251q0-97 5.5-139T115 49q21-23 52-23t53 20q26 26 26 78m38 378V-17q0-69-7.5-101.5T248-175q-32-35-82-35-53 0-84 31-32 33-32 104h37q0-57 24-81 20-20 54-20 33 0 54 23 27 30 27 137v56q-9-17-26-30-24-18-59-18-44 0-75 34-23 25-30.5 73T48 251q0 104 7.5 152T86 476q31 34 75 34 35 0 59-18 17-13 26-30v40h38m-138 84l43 126h45l-50-126h-38z" horiz-adv-x="350" vert-adv-y="1000"/><glyph glyph-name="uni0124" unicode="Ĥ" d="M342 0h-40v344H112V0H72v712h40V380h190v332h40V0m-34 766h-41l-60 95-60-95h-41l82 126h38l82-126z" horiz-adv-x="414" vert-adv-y="1000"/><glyph glyph-name="uni0125" unicode="ĥ" d="M296 0h-38v384q0 44-21.5 67.5T181 475q-34 0-55.5-23.5T104 384V0H66v712h38V461q7 16 26 30 25 19 60 19 45 0 75-32 31-31 31-95V0M186 766h-41l-60 95-60-95h-41l82 126h38l82-126z" horiz-adv-x="357" vert-adv-y="1000"/><glyph glyph-name="uni0126" unicode="Ħ" d="M393 521h-51V0h-40v344H112V0H72v521H21v34h51v157h40V555h190v157h40V555h51v-34m-91-141v141H112V380h190z" horiz-adv-x="414" vert-adv-y="1000"/><glyph glyph-name="uni0127" unicode="ħ" d="M318 0h-38v384q0 44-21.5 67.5T203 475q-34 0-55.5-23.5T126 384V0H88v586H23v32h65v94h38v-94h87v-32h-87V461q7 16 26 30 25 19 60 19 45 0 75-32 31-31 31-95V0z" horiz-adv-x="379" vert-adv-y="1000"/><glyph glyph-name="uni0128" unicode="Ĩ" d="M112 0H72v712h40V0m90 813q-35-35-64-35-21 0-51 17-28 16-41 16-18 0-42-24l-22 22q35 35 64 35 25 0 51-17 25-16 41-16 18 0 42 24l22-22z" horiz-adv-x="184" vert-adv-y="1000"/><glyph glyph-name="uni0129" unicode="ĩ" d="M104 0H66v502h38V0m91 633q-35-35-64-35-21 0-51 17-28 16-41 16-18 0-42-24l-22 22q35 35 64 35 25 0 51-17 25-16 41-16 18 0 42 24l22-22z" horiz-adv-x="170" vert-adv-y="1000"/><glyph glyph-name="uni012A" unicode="Ī" d="M112 0H72v712h40V0m80 789H-8v35h200v-35z" horiz-adv-x="184" vert-adv-y="1000"/><glyph glyph-name="uni012B" unicode="ī" d="M104 0H66v502h38V0m81 614H-15v35h200v-35z" horiz-adv-x="170" vert-adv-y="1000"/><glyph glyph-name="uni012C" unicode="Ĭ" d="M112 0H72v712h40V0m85 852q-5-50-30-74.5T92 753q-50 0-75 24.5T-13 852h36q9-65 69-65t69 65h36z" horiz-adv-x="184" vert-adv-y="1000"/><glyph glyph-name="uni012D" unicode="ĭ" d="M104 0H66v502h38V0m86 677q-5-50-30-74.5T85 578q-50 0-75 24.5T-20 677h36q9-65 69-65t69 65h36z" horiz-adv-x="170" vert-adv-y="1000"/><glyph glyph-name="uni012E" unicode="Į" d="M112 0H72v712h40V0m2-36L71-162H26L76-36h38z" horiz-adv-x="184" vert-adv-y="1000"/><glyph glyph-name="uni012F" unicode="į" d="M104 0H66v502h38V0m9 637H57v56h56v-56m-7-673L63-162H18L68-36h38z" horiz-adv-x="170" vert-adv-y="1000"/><glyph glyph-name="uni0130" unicode="İ" d="M112 0H72v712h40V0m5 789H67v50h50v-50z" horiz-adv-x="184" vert-adv-y="1000"/><glyph glyph-name="uni0131" unicode="ı" d="M104 0H66v502h38V0z" horiz-adv-x="170" vert-adv-y="1000"/><glyph glyph-name="uni0132" unicode="Ĳ" d="M112 0H72v712h40V0m320 141q0-73-40-113-36-36-95-36-63 0-103 48l30 25q29-37 73-37 42 0 68.5 29.5T392 141v571h40V141z" horiz-adv-x="496" vert-adv-y="1000"/><glyph glyph-name="uni0133" unicode="ĳ" d="M104 0H66v502h38V0m9 637H57v56h56v-56M274-83q0-62-33-95-32-32-92-32v34q87 0 87 91v587h38V-83m9 720h-56v56h56v-56z" horiz-adv-x="340" vert-adv-y="1000"/><glyph glyph-name="uni0134" unicode="Ĵ" d="M248 141q0-73-40-113-36-36-95-36Q50-8 10 40l30 25q29-37 73-37 42 0 68.5 29.5T208 141v571h40V141m81 625h-41l-60 95-60-95h-41l82 126h38l82-126z" horiz-adv-x="312" vert-adv-y="1000"/><glyph glyph-name="uni0135" unicode="ĵ" d="M104-83q0-62-33-95-32-32-92-32v34q87 0 87 91v587h38V-83m82 669h-41l-60 95-60-95h-41l82 126h38l82-126z" horiz-adv-x="170" vert-adv-y="1000"/><glyph glyph-name="uni0136" unicode="Ķ" d="M377 0h-44L186 373l-74-145V0H72v712h40V306l202 406h44L212 419 377 0M234-36l-43-126h-45l50 126h38z" horiz-adv-x="387" vert-adv-y="1000"/><glyph glyph-name="uni0137" unicode="ķ" d="M338 0h-42L178 281l-74-119V0H66v712h38V220l171 282h43L202 312 338 0M217-36l-43-126h-45l50 126h38z" horiz-adv-x="358" vert-adv-y="1000"/><glyph glyph-name="uni0138" unicode="ĸ" d="M338 0h-42L178 281l-74-119V0H66v502h38V220l171 282h43L202 312 338 0z" horiz-adv-x="358" vert-adv-y="1000"/><glyph glyph-name="uni0139" unicode="Ĺ" d="M302 0H72v712h40V36h190V0M181 892l-70-126H71l63 126h47z" horiz-adv-x="324" vert-adv-y="1000"/><glyph glyph-name="uni013A" unicode="ĺ" d="M185 0q-60 0-92 32-33 33-33 95v585h38V125q0-91 87-91V0m-17 887L98 761H58l63 126h47z" horiz-adv-x="200" vert-adv-y="1000"/><glyph glyph-name="uni013B" unicode="Ļ" d="M302 0H72v712h40V36h190V0m-84-36l-43-126h-45l50 126h38z" horiz-adv-x="324" vert-adv-y="1000"/><glyph glyph-name="uni013C" unicode="ļ" d="M185 0q-60 0-92 32-33 33-33 95v585h38V125q0-91 87-91V0m-33-36l-43-126H64l50 126h38z" horiz-adv-x="200" vert-adv-y="1000"/><glyph glyph-name="uni013D" unicode="Ľ" d="M241 712l-28-126h-35l20 126h43M302 0H72v712h40V36h190V0z" horiz-adv-x="324" vert-adv-y="1000"/><glyph glyph-name="uni013E" unicode="ľ" d="M209 712l-28-126h-35l20 126h43M185 0q-60 0-92 32-33 33-33 95v585h38V125q0-91 87-91V0z" horiz-adv-x="200" vert-adv-y="1000"/><glyph glyph-name="uni013F" unicode="Ŀ" d="M302 0H72v712h40V36h190V0m-22 331h-50v50h50v-50z" horiz-adv-x="324" vert-adv-y="1000"/><glyph glyph-name="uni0140" unicode="ŀ" d="M185 0q-60 0-92 32-33 33-33 95v585h38V125q0-91 87-91V0m20 283h-50v50h50v-50z" horiz-adv-x="200" vert-adv-y="1000"/><glyph glyph-name="uni0141" unicode="Ł" d="M302 0H72v308l-51-51v50l51 51v354h40V398l95 94v-50l-95-94V36h190V0z" horiz-adv-x="324" vert-adv-y="1000"/><glyph glyph-name="uni0142" unicode="ł" d="M205 0q-60 0-92 32-33 33-33 95v201l-65-71v50l65 71v334h38V419l67 73v-50l-67-73V125q0-91 87-91V0z" horiz-adv-x="225" vert-adv-y="1000"/><glyph glyph-name="uni0143" unicode="Ń" d="M366 0h-44L112 602V0H72v712h44l210-602v602h40V0m-58 892l-70-126h-40l63 126h47z" horiz-adv-x="438" vert-adv-y="1000"/><glyph glyph-name="uni0144" unicode="ń" d="M296 0h-38v384q0 44-21.5 67.5T181 475q-34 0-55.5-23.5T104 384V0H66v502h38v-41q7 16 26 30 25 19 60 19 45 0 75-32 31-31 31-95V0m-25 712l-70-126h-40l63 126h47z" horiz-adv-x="357" vert-adv-y="1000"/><glyph glyph-name="uni0145" unicode="Ņ" d="M366 0h-44L112 602V0H72v712h44l210-602v602h40V0M234-36l-43-126h-45l50 126h38z" horiz-adv-x="438" vert-adv-y="1000"/><glyph glyph-name="uni0146" unicode="ņ" d="M296 0h-38v384q0 44-21.5 67.5T181 475q-34 0-55.5-23.5T104 384V0H66v502h38v-41q7 16 26 30 25 19 60 19 45 0 75-32 31-31 31-95V0m-87-36l-43-126h-45l50 126h38z" horiz-adv-x="357" vert-adv-y="1000"/><glyph glyph-name="uni0147" unicode="Ň" d="M366 0h-44L112 602V0H72v712h44l210-602v602h40V0m-46 884l-82-126h-38l-82 126h41l60-95 60 95h41z" horiz-adv-x="438" vert-adv-y="1000"/><glyph glyph-name="uni0148" unicode="ň" d="M296 0h-38v384q0 44-21.5 67.5T181 475q-34 0-55.5-23.5T104 384V0H66v502h38v-41q7 16 26 30 25 19 60 19 45 0 75-32 31-31 31-95V0m-13 704l-82-126h-38L81 704h41l60-95 60 95h41z" horiz-adv-x="357" vert-adv-y="1000"/><glyph glyph-name="uni0149" unicode="ŉ" d="M296 0h-38v384q0 44-21.5 67.5T181 475q-34 0-55.5-23.5T104 384V0H66v502h38v-41q7 16 26 30 25 19 60 19 45 0 75-32 31-31 31-95V0M54 610l-42-34v136h42V610z" horiz-adv-x="357" vert-adv-y="1000"/><glyph glyph-name="uni014A" unicode="Ŋ" d="M366-35q0-62-33-95-32-32-92-32v34q85 0 85 91V4L112 602V0H72v712h44l210-585v585h40V-35z" horiz-adv-x="438" vert-adv-y="1000"/><glyph glyph-name="uni014B" unicode="ŋ" d="M258 384q0 44-21.5 67.5T181 475q-34 0-55.5-23.5T104 384V0H66v502h38v-41q7 16 26 30 25 19 60 19 45 0 75-32 31-31 31-95V-35q0-62-33-95-32-32-92-32v34q87 0 87 91v421z" horiz-adv-x="357" vert-adv-y="1000"/><glyph glyph-name="uni014C" unicode="Ō" d="M339 595l4.5-28.5Q348 538 348 356t-9-239q-9-57-41-90-33-35-95-35t-95 35q-32 33-41 90t-9 239q0 182 9 239t41 90q33 35 95 35t95-35q32-33 41-90m-37.5-464l3.25 25.5Q308 182 308 356t-6.5 225q-6.5 51-31.5 78-23 25-67 25t-67-25q-25-27-31.5-78T98 356q0-174 6.5-225T136 53q23-25 67-25t67 25q25 27 31.5 78m1.5 658H103v35h200v-35z" horiz-adv-x="406" vert-adv-y="1000"/><glyph glyph-name="uni014D" unicode="ō" d="M282 401.5l4-24.75Q290 352 290 251t-8-150.5Q274 51 252 27 220-8 169-8T86 27q-22 24-30 73.5T48 251q0 101 8 150.5T86 475q32 35 83 35t83-35q22-24 30-73.5M246.5 112l2.75 21Q252 154 252 251t-5.5 139q-5.5 42-23.5 63-21 23-54 23t-54-23q-18-21-23.5-63T86 251q0-97 5.5-139T115 49q21-23 54-23t54 23q18 21 23.5 63M269 614H69v35h200v-35z" horiz-adv-x="338" vert-adv-y="1000"/><glyph glyph-name="uni014E" unicode="Ŏ" d="M339 595l4.5-28.5Q348 538 348 356t-9-239q-9-57-41-90-33-35-95-35t-95 35q-32 33-41 90t-9 239q0 182 9 239t41 90q33 35 95 35t95-35q32-33 41-90m-37.5-464l3.25 25.5Q308 182 308 356t-6.5 225q-6.5 51-31.5 78-23 25-67 25t-67-25q-25-27-31.5-78T98 356q0-174 6.5-225T136 53q23-25 67-25t67 25q25 27 31.5 78m6.5 721q-5-50-30-74.5T203 753q-50 0-75 24.5T98 852h36q9-65 69-65t69 65h36z" horiz-adv-x="406" vert-adv-y="1000"/><glyph glyph-name="uni014F" unicode="ŏ" d="M282 401.5l4-24.75Q290 352 290 251t-8-150.5Q274 51 252 27 220-8 169-8T86 27q-22 24-30 73.5T48 251q0 101 8 150.5T86 475q32 35 83 35t83-35q22-24 30-73.5M246.5 112l2.75 21Q252 154 252 251t-5.5 139q-5.5 42-23.5 63-21 23-54 23t-54-23q-18-21-23.5-63T86 251q0-97 5.5-139T115 49q21-23 54-23t54 23q18 21 23.5 63M274 677q-5-50-30-74.5T169 578q-50 0-75 24.5T64 677h36q9-65 69-65t69 65h36z" horiz-adv-x="338" vert-adv-y="1000"/><glyph glyph-name="uni0150" unicode="Ő" d="M339 595l4.5-28.5Q348 538 348 356t-9-239q-9-57-41-90-33-35-95-35t-95 35q-32 33-41 90t-9 239q0 182 9 239t41 90q33 35 95 35t95-35q32-33 41-90m-37.5-464l3.25 25.5Q308 182 308 356t-6.5 225q-6.5 51-31.5 78-23 25-67 25t-67-25q-25-27-31.5-78T98 356q0-174 6.5-225T136 53q23-25 67-25t67 25q25 27 31.5 78M353 892l-70-126h-40l63 126h47m-118 0l-70-126h-40l63 126h47z" horiz-adv-x="406" vert-adv-y="1000"/><glyph glyph-name="uni0151" unicode="ő" d="M282 401.5l4-24.75Q290 352 290 251t-8-150.5Q274 51 252 27 220-8 169-8T86 27q-22 24-30 73.5T48 251q0 101 8 150.5T86 475q32 35 83 35t83-35q22-24 30-73.5M246.5 112l2.75 21Q252 154 252 251t-5.5 139q-5.5 42-23.5 63-21 23-54 23t-54-23q-18-21-23.5-63T86 251q0-97 5.5-139T115 49q21-23 54-23t54 23q18 21 23.5 63M317 712l-70-126h-40l63 126h47m-118 0l-70-126H89l63 126h47z" horiz-adv-x="338" vert-adv-y="1000"/><glyph glyph-name="uni0152" unicode="Œ" d="M538 0H308v44Q275-8 203-8q-62 0-95 35-32 33-41 90t-9 239q0 182 9 239t41 90q33 35 95 35 72 0 105-52v44h230v-36H348V374h164v-36H348V36h190V0M301.5 131l3.25 25.5Q308 182 308 356t-6.5 225q-6.5 51-31.5 78-23 25-67 25t-67-25q-25-27-31.5-78T98 356q0-174 6.5-225T136 53q23-25 67-25t67 25q25 27 31.5 78z" horiz-adv-x="588" vert-adv-y="1000"/><glyph glyph-name="uni0153" unicode="œ" d="M494 251H290q0-96 5.5-138.5T320 49q21-23 55-23 35 0 55 20 26 25 26 81h37q0-67-35-103-32-32-83-32-52 0-84 35-11 13-20 33-7-19-19-33-32-35-83-35T86 27q-22 24-30 73.5T48 251q0 101 8 150.5T86 475q32 35 83 35t83-35q12-13 19-32 7 19 19 32 32 35 83 35t83-35q22-24 30-73.5t8-150.5M246.5 112l2.75 21Q252 154 252 251t-5.5 139q-5.5 42-23.5 63-21 23-54 23t-54-23q-18-21-23.5-63T86 251q0-97 5.5-139T115 49q21-23 54-23t54 23q18 21 23.5 63M456 283q-1 79-6.5 115T427 453q-21 23-54 23t-54-23q-17-19-22.5-55T290 283h166z" horiz-adv-x="539" vert-adv-y="1000"/><glyph glyph-name="uni0154" unicode="Ŕ" d="M365 0h-44L214 329H112V0H72v712h126q31 0 53-6t44.5-24.5q22.5-18.5 34.5-59T342 520q0-158-90-185L365 0m-86 402l11.5 19q11.5 19 11.5 99t-23 118q-23 38-78 38h-89V364h89q55 0 78 38m1 490l-70-126h-40l63 126h47z" horiz-adv-x="415" vert-adv-y="1000"/><glyph glyph-name="uni0155" unicode="ŕ" d="M210 476h-4q-48 0-75-27.5T104 374V0H66v502h38v-53q6 17 17 28 30 33 89 33v-34m0 236l-70-126h-40l63 126h47z" horiz-adv-x="225" vert-adv-y="1000"/><glyph glyph-name="uni0156" unicode="Ŗ" d="M365 0h-44L214 329H112V0H72v712h126q31 0 53-6t44.5-24.5q22.5-18.5 34.5-59T342 520q0-158-90-185L365 0m-86 402l11.5 19q11.5 19 11.5 99t-23 118q-23 38-78 38h-89V364h89q55 0 78 38M230-36l-43-126h-45l50 126h38z" horiz-adv-x="415" vert-adv-y="1000"/><glyph glyph-name="uni0157" unicode="ŗ" d="M210 476h-4q-48 0-75-27.5T104 374V0H66v502h38v-53q6 17 17 28 30 33 89 33v-34M104-36L61-162H16L66-36h38z" horiz-adv-x="225" vert-adv-y="1000"/><glyph glyph-name="uni0158" unicode="Ř" d="M365 0h-44L214 329H112V0H72v712h126q31 0 53-6t44.5-24.5q22.5-18.5 34.5-59T342 520q0-158-90-185L365 0m-86 402l11.5 19q11.5 19 11.5 99t-23 118q-23 38-78 38h-89V364h89q55 0 78 38m13 482l-82-126h-38L90 884h41l60-95 60 95h41z" horiz-adv-x="415" vert-adv-y="1000"/><glyph glyph-name="uni0159" unicode="ř" d="M210 476h-4q-48 0-75-27.5T104 374V0H66v502h38v-53q6 17 17 28 30 33 89 33v-34m12 228l-82-126h-38L20 704h41l60-95 60 95h41z" horiz-adv-x="225" vert-adv-y="1000"/><glyph glyph-name="uni015A" unicode="Ś" d="M331 182q0-108-44-153Q252-6 186-6 119-6 84 29 61 53 52 83.5T43 173h40q0-85 31-116 26-26 72-26 49 0 73 26 19 19 25.5 46.5T291 181q0 72-16 104.5T213 337l-73 30q-54 22-73 59.5T48 544q0 92 45 137 37 37 98 37 63 0 100-37 24-25 32-54.5t8-77.5h-40q0 71-30 105-25 28-71 28-41 0-67-24-35-34-35-113 0-69 15.5-97.5T171 398l73-30q52-21 69.5-63.5T331 182m-51 710l-70-126h-40l63 126h47z" horiz-adv-x="380" vert-adv-y="1000"/><glyph glyph-name="uni015B" unicode="ś" d="M285 122q0-56-37-93T157-8q-51 0-85 34-37 37-37 107h38q0-56 29-85 22-22 55-22 39 0 64 25 26 28 26 71 0 36-15 61-13 23-55 48l-61 37q-46 28-62 59-13 23-13 62 0 54 37 89 34 32 83 32 52 0 84-32 34-34 34-107h-38q0 57-25 83-21 22-55 22-36 0-57-21-25-24-25-66 0-30 11-49 11-18 49-42l61-37q48-30 66-61 19-31 19-78m-31 590l-70-126h-40l63 126h47z" horiz-adv-x="320" vert-adv-y="1000"/><glyph glyph-name="uni015C" unicode="Ŝ" d="M331 182q0-108-44-153Q252-6 186-6 119-6 84 29 61 53 52 83.5T43 173h40q0-85 31-116 26-26 72-26 49 0 73 26 19 19 25.5 46.5T291 181q0 72-16 104.5T213 337l-73 30q-54 22-73 59.5T48 544q0 92 45 137 37 37 98 37 63 0 100-37 24-25 32-54.5t8-77.5h-40q0 71-30 105-25 28-71 28-41 0-67-24-35-34-35-113 0-69 15.5-97.5T171 398l73-30q52-21 69.5-63.5T331 182m-38 584h-41l-60 95-60-95H91l82 126h38l82-126z" horiz-adv-x="380" vert-adv-y="1000"/><glyph glyph-name="uni015D" unicode="ŝ" d="M285 122q0-56-37-93T157-8q-51 0-85 34-37 37-37 107h38q0-56 29-85 22-22 55-22 39 0 64 25 26 28 26 71 0 36-15 61-13 23-55 48l-61 37q-46 28-62 59-13 23-13 62 0 54 37 89 34 32 83 32 52 0 84-32 34-34 34-107h-38q0 57-25 83-21 22-55 22-36 0-57-21-25-24-25-66 0-30 11-49 11-18 49-42l61-37q48-30 66-61 19-31 19-78m-19 464h-41l-60 95-60-95H64l82 126h38l82-126z" horiz-adv-x="320" vert-adv-y="1000"/><glyph glyph-name="uni015E" unicode="Ş" d="M331 182q0-108-44-153Q252-6 186-6 119-6 84 29 61 53 52 83.5T43 173h40q0-85 31-116 26-26 72-26 49 0 73 26 19 19 25.5 46.5T291 181q0 72-16 104.5T213 337l-73 30q-54 22-73 59.5T48 544q0 92 45 137 37 37 98 37 63 0 100-37 24-25 32-54.5t8-77.5h-40q0 71-30 105-25 28-71 28-41 0-67-24-35-34-35-113 0-69 15.5-97.5T171 398l73-30q52-21 69.5-63.5T331 182M205-36l-43-126h-45l50 126h38z" horiz-adv-x="380" vert-adv-y="1000"/><glyph glyph-name="uni015F" unicode="ş" d="M285 122q0-56-37-93T157-8q-51 0-85 34-37 37-37 107h38q0-56 29-85 22-22 55-22 39 0 64 25 26 28 26 71 0 36-15 61-13 23-55 48l-61 37q-46 28-62 59-13 23-13 62 0 54 37 89 34 32 83 32 52 0 84-32 34-34 34-107h-38q0 57-25 83-21 22-55 22-36 0-57-21-25-24-25-66 0-30 11-49 11-18 49-42l61-37q48-30 66-61 19-31 19-78M176-36l-43-126H88l50 126h38z" horiz-adv-x="320" vert-adv-y="1000"/><glyph glyph-name="uni0160" unicode="Š" d="M331 182q0-108-44-153Q252-6 186-6 119-6 84 29 61 53 52 83.5T43 173h40q0-85 31-116 26-26 72-26 49 0 73 26 19 19 25.5 46.5T291 181q0 72-16 104.5T213 337l-73 30q-54 22-73 59.5T48 544q0 92 45 137 37 37 98 37 63 0 100-37 24-25 32-54.5t8-77.5h-40q0 71-30 105-25 28-71 28-41 0-67-24-35-34-35-113 0-69 15.5-97.5T171 398l73-30q52-21 69.5-63.5T331 182m-33 702l-82-126h-38L96 884h41l60-95 60 95h41z" horiz-adv-x="380" vert-adv-y="1000"/><glyph glyph-name="uni0161" unicode="š" d="M285 122q0-56-37-93T157-8q-51 0-85 34-37 37-37 107h38q0-56 29-85 22-22 55-22 39 0 64 25 26 28 26 71 0 36-15 61-13 23-55 48l-61 37q-46 28-62 59-13 23-13 62 0 54 37 89 34 32 83 32 52 0 84-32 34-34 34-107h-38q0 57-25 83-21 22-55 22-36 0-57-21-25-24-25-66 0-30 11-49 11-18 49-42l61-37q48-30 66-61 19-31 19-78m-19 582l-82-126h-38L64 704h41l60-95 60 95h41z" horiz-adv-x="320" vert-adv-y="1000"/><glyph glyph-name="uni0162" unicode="Ţ" d="M300 676H181V0h-40v676H22v36h278v-36M180-36l-43-126H92l50 126h38z" horiz-adv-x="322" vert-adv-y="1000"/><glyph glyph-name="uni0163" unicode="ţ" d="M215 0q-70 0-102 32-33 33-33 95v344H15v31h65v154h38V502h92v-31h-92V125q0-91 97-91V0m-44-36l-43-126H83l50 126h38z" horiz-adv-x="235" vert-adv-y="1000"/><glyph glyph-name="uni0164" unicode="Ť" d="M300 676H181V0h-40v676H22v36h278v-36m-41 208l-82-126h-38L57 884h41l60-95 60 95h41z" horiz-adv-x="322" vert-adv-y="1000"/><glyph glyph-name="uni0165" unicode="ť" d="M230 712l-28-126h-35l20 126h43M215 0q-70 0-102 32-33 33-33 95v344H15v31h65v154h38V502h92v-31h-92V125q0-91 97-91V0z" horiz-adv-x="235" vert-adv-y="1000"/><glyph glyph-name="uni0166" unicode="Ŧ" d="M300 676H181V374h76v-36h-76V0h-40v338H65v36h76v302H22v36h278v-36z" horiz-adv-x="322" vert-adv-y="1000"/><glyph glyph-name="uni0167" unicode="ŧ" d="M215 0q-70 0-102 32-33 33-33 95v166H15v31h65v147H15v31h65v154h38V502h92v-31h-92V324h92v-31h-92V125q0-91 97-91V0z" horiz-adv-x="235" vert-adv-y="1000"/><glyph glyph-name="uni0168" unicode="Ũ" d="M334 138q0-71-40-109-37-37-95-37t-95 37Q64 67 64 138v574h40V134q0-48 27-77t68-29q41 0 68 29t27 77v578h40V138m-26 675q-35-35-64-35-21 0-51 17-28 16-41 16-18 0-42-24l-22 22q35 35 64 35 25 0 51-17 25-16 41-16 18 0 42 24l22-22z" horiz-adv-x="398" vert-adv-y="1000"/><glyph glyph-name="uni0169" unicode="ũ" d="M291 0h-38v41q-7-16-26-30-25-19-60-19-45 0-75 32-31 31-31 95v383h38V118q0-44 21.5-67.5T176 27q34 0 55.5 23.5T253 118v384h38V0m-5 633q-35-35-64-35-21 0-51 17-28 16-41 16-18 0-42-24l-22 22q35 35 64 35 25 0 51-17 25-16 41-16 18 0 42 24l22-22z" horiz-adv-x="357" vert-adv-y="1000"/><glyph glyph-name="uni016A" unicode="Ū" d="M334 138q0-71-40-109-37-37-95-37t-95 37Q64 67 64 138v574h40V134q0-48 27-77t68-29q41 0 68 29t27 77v578h40V138m-35 651H99v35h200v-35z" horiz-adv-x="398" vert-adv-y="1000"/><glyph glyph-name="uni016B" unicode="ū" d="M291 0h-38v41q-7-16-26-30-25-19-60-19-45 0-75 32-31 31-31 95v383h38V118q0-44 21.5-67.5T176 27q34 0 55.5 23.5T253 118v384h38V0m-15 614H76v35h200v-35z" horiz-adv-x="357" vert-adv-y="1000"/><glyph glyph-name="uni016C" unicode="Ŭ" d="M334 138q0-71-40-109-37-37-95-37t-95 37Q64 67 64 138v574h40V134q0-48 27-77t68-29q41 0 68 29t27 77v578h40V138m-30 714q-5-50-30-74.5T199 753q-50 0-75 24.5T94 852h36q9-65 69-65t69 65h36z" horiz-adv-x="398" vert-adv-y="1000"/><glyph glyph-name="uni016D" unicode="ŭ" d="M291 0h-38v41q-7-16-26-30-25-19-60-19-45 0-75 32-31 31-31 95v383h38V118q0-44 21.5-67.5T176 27q34 0 55.5 23.5T253 118v384h38V0m-10 677q-5-50-30-74.5T176 578q-50 0-75 24.5T71 677h36q9-65 69-65t69 65h36z" horiz-adv-x="357" vert-adv-y="1000"/><glyph glyph-name="uni016E" unicode="Ů" d="M334 138q0-71-40-109-37-37-95-37t-95 37Q64 67 64 138v574h40V134q0-48 27-77t68-29q41 0 68 29t27 77v578h40V138m-74.5 758.5l12.75-12.75Q285 871 285 836t-25.5-60.5Q234 750 199 750t-60.5 25.5Q113 801 113 836t25.5 60.5Q164 922 199 922t60.5-25.5m-21.5-99l8 8.25q8 8.25 8 30.25t-16 38.5Q222 891 199 891t-39-16.5Q144 858 144 836t16-38.5q16-16.5 39-16.5t39 16.5z" horiz-adv-x="398" vert-adv-y="1000"/><glyph glyph-name="uni016F" unicode="ů" d="M291 0h-38v41q-7-16-26-30-25-19-60-19-45 0-75 32-31 31-31 95v383h38V118q0-44 21.5-67.5T176 27q34 0 55.5 23.5T253 118v384h38V0m-54.5 726.5l12.75-12.75Q262 701 262 666t-25.5-60.5Q211 580 176 580t-60.5 25.5Q90 631 90 666t25.5 60.5Q141 752 176 752t60.5-25.5m-22-99l8.25 8.25Q231 644 231 666t-16.5 38.5Q198 721 176 721t-38.5-16.5Q121 688 121 666t16.5-38.5Q154 611 176 611t38.5 16.5z" horiz-adv-x="357" vert-adv-y="1000"/><glyph glyph-name="uni0170" unicode="Ű" d="M334 138q0-71-40-109-37-37-95-37t-95 37Q64 67 64 138v574h40V134q0-48 27-77t68-29q41 0 68 29t27 77v578h40V138m15 754l-70-126h-40l63 126h47m-118 0l-70-126h-40l63 126h47z" horiz-adv-x="398" vert-adv-y="1000"/><glyph glyph-name="uni0171" unicode="ű" d="M291 0h-38v41q-7-16-26-30-25-19-60-19-45 0-75 32-31 31-31 95v383h38V118q0-44 21.5-67.5T176 27q34 0 55.5 23.5T253 118v384h38V0m33 712l-70-126h-40l63 126h47m-118 0l-70-126H96l63 126h47z" horiz-adv-x="357" vert-adv-y="1000"/><glyph glyph-name="uni0172" unicode="Ų" d="M334 138q0-71-40-109-37-37-95-37t-95 37Q64 67 64 138v574h40V134q0-48 27-77t68-29q41 0 68 29t27 77v578h40V138M292-36l-43-126h-45l50 126h38z" horiz-adv-x="398" vert-adv-y="1000"/><glyph glyph-name="uni0173" unicode="ų" d="M291 0h-38v41q-7-16-26-30-25-19-60-19-45 0-75 32-31 31-31 95v383h38V118q0-44 21.5-67.5T176 27q34 0 55.5 23.5T253 118v384h38V0m3-36l-43-126h-45l50 126h38z" horiz-adv-x="357" vert-adv-y="1000"/><glyph glyph-name="uni0174" unicode="Ŵ" d="M538 712L439 0h-42L271 630 147 0h-42L4 712h44l78-630 122 630h46L418 82l76 630h44m-166 54h-41l-60 95-60-95h-41l82 126h38l82-126z" horiz-adv-x="542" vert-adv-y="1000"/><glyph glyph-name="uni0175" unicode="ŵ" d="M433 502L341 0h-44l-82 443L138 0H94L4 502h46l66-443 77 443h44l82-443 68 443h46m-117 84h-41l-60 95-60-95h-41l82 126h38l82-126z" horiz-adv-x="437" vert-adv-y="1000"/><glyph glyph-name="uni0176" unicode="Ŷ" d="M285 712L164 305V0h-40v305L4 712h44l96-341 97 341h44m-40 54h-41l-60 95-60-95H43l82 126h38l82-126z" horiz-adv-x="289" vert-adv-y="1000"/><glyph glyph-name="uni0177" unicode="ŷ" d="M274 502L131-110Q108-210 1-210v34q76 0 93 69L121 2 4 502h42l93-442 93 442h42m-28 84h-41l-60 95-60-95H44l82 126h38l82-126z" horiz-adv-x="281" vert-adv-y="1000"/><glyph glyph-name="uni0178" unicode="Ÿ" d="M285 712L164 305V0h-40v305L4 712h44l96-341 97 341h44m-54 77h-50v50h50v-50m-124 0H57v50h50v-50z" horiz-adv-x="289" vert-adv-y="1000"/><glyph glyph-name="uni0179" unicode="Ź" d="M277 0H30v32l206 644H45v36h232v-32L72 36h205V0m-31 892l-70-126h-40l63 126h47z" horiz-adv-x="307" vert-adv-y="1000"/><glyph glyph-name="uni017A" unicode="ź" d="M239 0H20v31l179 437H30v34h209v-31L60 34h179V0m-16 712l-70-126h-40l63 126h47z" horiz-adv-x="259" vert-adv-y="1000"/><glyph glyph-name="uni017B" unicode="Ż" d="M277 0H30v32l206 644H45v36h232v-32L72 36h205V0m-95 789h-50v50h50v-50z" horiz-adv-x="307" vert-adv-y="1000"/><glyph glyph-name="uni017C" unicode="ż" d="M239 0H20v31l179 437H30v34h209v-31L60 34h179V0m-80 614h-50v50h50v-50z" horiz-adv-x="259" vert-adv-y="1000"/><glyph glyph-name="uni017D" unicode="Ž" d="M277 0H30v32l206 644H45v36h232v-32L72 36h205V0m-19 884l-82-126h-38L56 884h41l60-95 60 95h41z" horiz-adv-x="307" vert-adv-y="1000"/><glyph glyph-name="uni017E" unicode="ž" d="M239 0H20v31l179 437H30v34h209v-31L60 34h179V0m-4 704l-82-126h-38L33 704h41l60-95 60 95h41z" horiz-adv-x="259" vert-adv-y="1000"/><glyph glyph-name="uni017F" unicode="ſ" d="M191 712v-34q-87 0-87-91V0H66v585q0 62 33 95 32 32 92 32z" horiz-adv-x="170" vert-adv-y="1000"/><glyph glyph-name="uni018F" unicode="Ə" d="M58 138v236h240q-1 161-7.5 210T260 659q-23 25-67 25-95 0-95-126H58q0 83 40 126 36 36 95 36 62 0 95-35 32-33 41-90t9-239q0-182-9-239t-41-90Q255-8 193-8q-56 0-95.5 38T58 138m40 200V140q0-53 27-82.5T193 28q44 0 67 25 24 26 30.5 74.5T298 338H98z" horiz-adv-x="396" vert-adv-y="1000"/><glyph glyph-name="uni0192" unicode="ƒ" d="M307 678h-12q-40 0-68-23t-36-68l-38-207h86v-31h-92L38-211H0l109 560H50v31h65l38 205q11 61 49.5 94t99.5 33h5v-34z" horiz-adv-x="327" vert-adv-y="1000"/><glyph glyph-name="uni01B5" unicode="Ƶ" d="M277 0H30v32l98 306H58v36h81l97 302H45v36h232v-32l-98-306h70v-36h-81L72 36h205V0z" horiz-adv-x="307" vert-adv-y="1000"/><glyph glyph-name="uni01B6" unicode="ƶ" d="M239 0H20v31l83 204H35v32h82l82 201H30v34h209v-31l-84-204h69v-32h-82L60 34h179V0z" horiz-adv-x="259" vert-adv-y="1000"/><glyph glyph-name="uni01C4" unicode="Ǆ" d="M340.5 590.5l4.25-27.25Q349 536 349 356t-8.5-234.5Q332 67 300 34 266 0 206 0H72v712h134q60 0 94-34 32-33 40.5-87.5m-38-456l3.25 24.75Q309 184 309 356t-6.5 221.5Q296 627 270 653q-23 23-67 23h-91V36h91q44 0 67 23 26 26 32.5 75.5M684 0H437v32l206 644H452v36h232v-32L479 36h205V0m-19 884l-82-126h-38l-82 126h41l60-95 60 95h41z" horiz-adv-x="714" vert-adv-y="1000"/><glyph glyph-name="uni01C5" unicode="ǅ" d="M340.5 590.5l4.25-27.25Q349 536 349 356t-8.5-234.5Q332 67 300 34 266 0 206 0H72v712h134q60 0 94-34 32-33 40.5-87.5m-38-456l3.25 24.75Q309 184 309 356t-6.5 221.5Q296 627 270 653q-23 23-67 23h-91V36h91q44 0 67 23 26 26 32.5 75.5M646 0H427v31l179 437H437v34h209v-31L467 34h179V0m-4 704l-82-126h-38l-82 126h41l60-95 60 95h41z" horiz-adv-x="666" vert-adv-y="1000"/><glyph glyph-name="uni01C6" unicode="ǆ" d="M284 0h-38v41q-7-16-26-30-25-19-60-19-43 0-74 34-22 24-30 74t-8 151q0 101 8 151t30 74q30 34 74 34 36 0 60-17 15-10 26-30v249h38V0m-38 124v254q0 52-26 78-22 20-53 20t-52-23q-18-21-23.5-63T86 251q0-97 5.5-139T115 49q21-23 52-23t53 20q26 26 26 78M589 0H370v31l179 437H380v34h209v-31L410 34h179V0m-4 704l-82-126h-38l-82 126h41l60-95 60 95h41z" horiz-adv-x="609" vert-adv-y="1000"/><glyph glyph-name="uni01C7" unicode="Ǉ" d="M302 0H72v712h40V36h190V0m270 141q0-73-40-113-36-36-95-36-63 0-103 48l30 25q29-37 73-37 42 0 68.5 29.5T532 141v571h40V141z" horiz-adv-x="636" vert-adv-y="1000"/><glyph glyph-name="uni01C8" unicode="ǈ" d="M302 0H72v712h40V36h190V0m126-83q0-62-33-95-32-32-92-32v34q87 0 87 91v587h38V-83m9 720h-56v56h56v-56z" horiz-adv-x="494" vert-adv-y="1000"/><glyph glyph-name="uni01C9" unicode="ǉ" d="M185 0q-60 0-92 32-33 33-33 95v585h38V125q0-91 87-91V0m119-83q0-62-33-95-32-32-92-32v34q87 0 87 91v587h38V-83m9 720h-56v56h56v-56z" horiz-adv-x="370" vert-adv-y="1000"/><glyph glyph-name="uni01CA" unicode="Ǌ" d="M366 0h-44L112 602V0H72v712h44l210-602v602h40V0m320 141q0-73-40-113-36-36-95-36-63 0-103 48l30 25q29-37 73-37 42 0 68.5 29.5T646 141v571h40V141z" horiz-adv-x="750" vert-adv-y="1000"/><glyph glyph-name="uni01CB" unicode="ǋ" d="M366 0h-44L112 602V0H72v712h44l210-602v602h40V0m176-83q0-62-33-95-32-32-92-32v34q87 0 87 91v587h38V-83m9 720h-56v56h56v-56z" horiz-adv-x="608" vert-adv-y="1000"/><glyph glyph-name="uni01CC" unicode="ǌ" d="M296 0h-38v384q0 44-21.5 67.5T181 475q-34 0-55.5-23.5T104 384V0H66v502h38v-41q7 16 26 30 25 19 60 19 45 0 75-32 31-31 31-95V0m165-83q0-62-33-95-32-32-92-32v34q87 0 87 91v587h38V-83m9 720h-56v56h56v-56z" horiz-adv-x="527" vert-adv-y="1000"/><glyph glyph-name="uni01F1" unicode="Ǳ" d="M340.5 590.5l4.25-27.25Q349 536 349 356t-8.5-234.5Q332 67 300 34 266 0 206 0H72v712h134q60 0 94-34 32-33 40.5-87.5m-38-456l3.25 24.75Q309 184 309 356t-6.5 221.5Q296 627 270 653q-23 23-67 23h-91V36h91q44 0 67 23 26 26 32.5 75.5M684 0H437v32l206 644H452v36h232v-32L479 36h205V0z" horiz-adv-x="714" vert-adv-y="1000"/><glyph glyph-name="uni01F2" unicode="ǲ" d="M340.5 590.5l4.25-27.25Q349 536 349 356t-8.5-234.5Q332 67 300 34 266 0 206 0H72v712h134q60 0 94-34 32-33 40.5-87.5m-38-456l3.25 24.75Q309 184 309 356t-6.5 221.5Q296 627 270 653q-23 23-67 23h-91V36h91q44 0 67 23 26 26 32.5 75.5M646 0H427v31l179 437H437v34h209v-31L467 34h179V0z" horiz-adv-x="666" vert-adv-y="1000"/><glyph glyph-name="uni01F3" unicode="ǳ" d="M284 0h-38v41q-7-16-26-30-25-19-60-19-43 0-74 34-22 24-30 74t-8 151q0 101 8 151t30 74q30 34 74 34 36 0 60-17 15-10 26-30v249h38V0m-38 124v254q0 52-26 78-22 20-53 20t-52-23q-18-21-23.5-63T86 251q0-97 5.5-139T115 49q21-23 52-23t53 20q26 26 26 78M589 0H370v31l179 437H380v34h209v-31L410 34h179V0z" horiz-adv-x="609" vert-adv-y="1000"/><glyph glyph-name="uni01FA" unicode="Ǻ" d="M343 0h-44l-43 214H90L48 0H4l153 712h36L343 0m-94 250l-76 380-75-380h151m-13.5 646.5l12.75-12.75Q261 871 261 836t-25.5-60.5Q210 750 175 750t-60.5 25.5Q89 801 89 836t25.5 60.5Q140 922 175 922t60.5-25.5m-21.5-99l8 8.25q8 8.25 8 30.25t-16 38.5Q198 891 175 891t-39-16.5Q120 858 120 836t16-38.5q16-16.5 39-16.5t39 16.5m50 260.5l-70-126h-40l63 126h47z" horiz-adv-x="347" vert-adv-y="1000"/><glyph glyph-name="uni01FB" unicode="ǻ" d="M274 0h-38v47q-8-19-26-34-26-21-62-21-44 0-74 30-34 36-34 114 0 76 41 114 36 33 93 33h62v98q0 96-77 96-30 0-50-20-25-25-25-79H46q0 67 34 101 31 31 79 31 54 0 83-29 32-32 32-99V0m-38 126v125h-64q-39 0-64-24-30-28-30-91 0-110 77-110 37 0 59 28.5t22 71.5m-12.5 600.5l12.75-12.75Q249 701 249 666t-25.5-60.5Q198 580 163 580t-60.5 25.5Q77 631 77 666t25.5 60.5Q128 752 163 752t60.5-25.5m-21.5-99l8 8.25q8 8.25 8 30.25t-16 38.5Q186 721 163 721t-39-16.5Q108 688 108 666t16-38.5q16-16.5 39-16.5t39 16.5M252 888l-70-126h-40l63 126h47z" horiz-adv-x="335" vert-adv-y="1000"/><glyph glyph-name="uni01FC" unicode="Ǽ" d="M529 0H299v214H127L48 0H5l266 712h258v-36H339V374h164v-36H339V36h190V0M299 250v427L141 250h158m109 642l-70-126h-40l63 126h47z" horiz-adv-x="579" vert-adv-y="1000"/><glyph glyph-name="uni01FD" unicode="ǽ" d="M478 251H274q0-96 5.5-138.5T304 49q21-23 55-23 35 0 55 20 26 25 26 81h37q0-67-35-103-32-32-83-32-49 0-80 31-19 21-27 45-11-34-34-52-31-24-70-24-44 0-74 30-34 36-34 114 0 76 41 114 36 33 93 33h62v98q0 96-77 96-30 0-50-20-25-25-25-79H46q0 67 34 101 31 31 79 31 54 0 83-29 12-13 18-26 4 8 14 20 32 35 83 35t83-35q22-24 30-73.5t8-150.5M236 126v125h-64q-39 0-64-24-30-28-30-91 0-110 77-110 37 0 59 28.5t22 71.5m204 157q-1 79-6.5 115T411 453q-21 23-54 23t-54-23q-17-19-22.5-55T274 283h166m-96 429l-70-126h-40l63 126h47z" horiz-adv-x="523" vert-adv-y="1000"/><glyph glyph-name="uni01FE" unicode="Ǿ" d="M348 356q0-182-9-239t-41-90Q265-8 203-8q-45 0-77 21l-16-57H69l26 86q-23 30-30 89.5T58 356q0 182 9 239t41 90q33 35 95 35 45 0 77-21l16 57h41l-25-87q22-30 29-90t7-223m-79 304q-23 24-66 24-44 0-67-25-25-27-31.5-78T98 356q0-215 14-262l157 566m39-304q0 211-13 260L137 52q23-24 66-24 44 0 67 25 25 27 31.5 78t6.5 225m-16 536l-70-126h-40l63 126h47z" horiz-adv-x="386" vert-adv-y="1000"/><glyph glyph-name="uni01FF" unicode="ǿ" d="M291 546l-29-84q28-45 28-211 0-101-8-150.5T252 27Q220-8 169-8q-40 0-66 20L84-44H47l29 84Q48 86 48 251q0 101 8 150.5T86 475q32 35 83 35 40 0 66-20l19 56h37m-39-295q0 126-10 164L116 48q20-22 53-22t54 23q18 21 23.5 63t5.5 139m-30 203q-20 22-53 22t-54-23q-18-21-23.5-63T86 251q0-126 10-163l126 366m36 258l-70-126h-40l63 126h47z" horiz-adv-x="330" vert-adv-y="1000"/><glyph glyph-name="uni0218" unicode="Ș" d="M331 182q0-108-44-153Q252-6 186-6 119-6 84 29 61 53 52 83.5T43 173h40q0-85 31-116 26-26 72-26 49 0 73 26 19 19 25.5 46.5T291 181q0 72-16 104.5T213 337l-73 30q-54 22-73 59.5T48 544q0 92 45 137 37 37 98 37 63 0 100-37 24-25 32-54.5t8-77.5h-40q0 71-30 105-25 28-71 28-41 0-67-24-35-34-35-113 0-69 15.5-97.5T171 398l73-30q52-21 69.5-63.5T331 182M205-36l-43-126h-45l50 126h38z" horiz-adv-x="380" vert-adv-y="1000"/><glyph glyph-name="uni0219" unicode="ș" d="M285 122q0-56-37-93T157-8q-51 0-85 34-37 37-37 107h38q0-56 29-85 22-22 55-22 39 0 64 25 26 28 26 71 0 36-15 61-13 23-55 48l-61 37q-46 28-62 59-13 23-13 62 0 54 37 89 34 32 83 32 52 0 84-32 34-34 34-107h-38q0 57-25 83-21 22-55 22-36 0-57-21-25-24-25-66 0-30 11-49 11-18 49-42l61-37q48-30 66-61 19-31 19-78M176-36l-43-126H88l50 126h38z" horiz-adv-x="320" vert-adv-y="1000"/><glyph glyph-name="uni021A" unicode="Ț" d="M300 676H181V0h-40v676H22v36h278v-36M180-36l-43-126H92l50 126h38z" horiz-adv-x="322" vert-adv-y="1000"/><glyph glyph-name="uni021B" unicode="ț" d="M215 0q-70 0-102 32-33 33-33 95v344H15v31h65v154h38V502h92v-31h-92V125q0-91 97-91V0m-53-36l-43-126H74l50 126h38z" horiz-adv-x="235" vert-adv-y="1000"/><glyph glyph-name="uni0237" unicode="ȷ" d="M104-83q0-62-33-95-32-32-92-32v34q87 0 87 91v587h38V-83z" horiz-adv-x="170" vert-adv-y="1000"/><glyph glyph-name="uni0259" unicode="ə" d="M48 251h204q0 96-5.5 138.5T222 453q-21 23-55 23-35 0-55-20-26-25-26-81H49q0 67 35 103 32 32 83 32 52 0 84-35 22-24 30.5-74t8.5-150q0-101-8-150.5T252 27Q220-8 169-8T86 27q-22 24-30 73.5T48 251m38-32q1-79 6.5-115T115 49q21-23 54-23t54 23q17 19 22.5 55t6.5 115H86z" horiz-adv-x="333" vert-adv-y="1000"/><glyph glyph-name="uni02BB" unicode="ʻ" d="M110 632H58v80l52 38V632z" horiz-adv-x="168" vert-adv-y="1000"/><glyph glyph-name="uni02BC" unicode="ʼ" d="M110 632l-52-38v118h52v-80z" horiz-adv-x="168" vert-adv-y="1000"/><glyph glyph-name="uni02C6" unicode="ˆ" d="M270 586h-41l-60 95-60-95H68l82 126h38l82-126z" horiz-adv-x="338" vert-adv-y="1000"/><glyph glyph-name="uni02C7" unicode="ˇ" d="M270 704l-82-126h-38L68 704h41l60-95 60 95h41z" horiz-adv-x="338" vert-adv-y="1000"/><glyph glyph-name="uni02D8" unicode="˘" d="M274 677q-5-50-30-74.5T169 578q-50 0-75 24.5T64 677h36q9-65 69-65t69 65h36z" horiz-adv-x="338" vert-adv-y="1000"/><glyph glyph-name="uni02D9" unicode="˙" d="M194 614h-50v50h50v-50z" horiz-adv-x="338" vert-adv-y="1000"/><glyph glyph-name="uni02DA" unicode="˚" d="M229.5 726.5l12.75-12.75Q255 701 255 666t-25.5-60.5Q204 580 169 580t-60.5 25.5Q83 631 83 666t25.5 60.5Q134 752 169 752t60.5-25.5m-21.5-99l8 8.25q8 8.25 8 30.25t-16 38.5Q192 721 169 721t-39-16.5Q114 688 114 666t16-38.5q16-16.5 39-16.5t39 16.5z" horiz-adv-x="338" vert-adv-y="1000"/><glyph glyph-name="uni02DB" unicode="˛" d="M196-36l-43-126h-45l50 126h38z" horiz-adv-x="338" vert-adv-y="1000"/><glyph glyph-name="uni02DC" unicode="˜" d="M279 633q-35-35-64-35-21 0-51 17-28 16-41 16-18 0-42-24l-22 22q35 35 64 35 25 0 51-17 25-16 41-16 18 0 42 24l22-22z" horiz-adv-x="338" vert-adv-y="1000"/><glyph glyph-name="uni02DD" unicode="˝" d="M317 712l-70-126h-40l63 126h47m-118 0l-70-126H89l63 126h47z" horiz-adv-x="338" vert-adv-y="1000"/><glyph glyph-name="uni0394" unicode="Δ" d="M343 0H4l153 712h36L343 0m-51 36L173 630 55 36h237z" horiz-adv-x="347" vert-adv-y="1000"/><glyph glyph-name="uni03A9" unicode="Ω" d="M353 0H225v30q53 23 70 69 13 35 13 257 0 174-6.5 225T270 659q-23 25-67 25t-67-25q-25-27-31.5-78T98 356q0-222 13-257 17-46 70-69V0H53v33h79Q89 56 73 96q-10 24-12.5 75T58 356q0 182 9 239t41 90q33 35 95 35t95-35q32-33 41-90t9-239q0-134-2.5-185T333 96q-16-40-59-63h79V0z" horiz-adv-x="406" vert-adv-y="1000"/><glyph glyph-name="uni03BC" unicode="μ" d="M296 0h-38v41q-7-16-26-30-27-19-60-19-22 0-41.5 8T104 18v-229H66v713h38V117q0-44 21.5-67.5T181 26q34 0 55.5 23.5T258 117v385h38V0z" horiz-adv-x="362" vert-adv-y="1000"/><glyph glyph-name="uni03C0" unicode="π" d="M296 502V0h-38v469H104V0H66v502h230z" horiz-adv-x="362" vert-adv-y="1000"/><glyph glyph-name="uni0400" unicode="Ѐ" d="M302 0H72v712h230v-36H112V374h164v-36H112V36h190V0m-90 766h-40l-70 126h47l63-126z" horiz-adv-x="352" vert-adv-y="1000"/><glyph glyph-name="uni0401" unicode="Ё" d="M302 0H72v712h230v-36H112V374h164v-36H112V36h190V0m-24 789h-50v50h50v-50m-124 0h-50v50h50v-50z" horiz-adv-x="352" vert-adv-y="1000"/><glyph glyph-name="uni0402" unicode="Ђ" d="M394 202q0-112-36.5-157T250 0h-16v36h13q57 0 82 38.5T354 202q0 89-25 127.5T247 368h-78V0h-40v676H22v36h278v-36H169V404h81q72 0 108-44t36-158z" horiz-adv-x="444" vert-adv-y="1000"/><glyph glyph-name="uni0403" unicode="Ѓ" d="M297 676H112V0H72v712h225v-36m-46 216l-70-126h-40l63 126h47z" horiz-adv-x="324" vert-adv-y="1000"/><glyph glyph-name="uni0404" unicode="Є" d="M338 154q0-91-47-132-33-30-88-30-62 0-95 35-32 33-41 90t-9 239q0 182 9 239t41 90q33 35 95 35 59 0 94-35 41-42 41-127h-40q0 71-32 103-23 23-63 23-44 0-67-25-24-26-31-75.5T98 374h154v-36H98q0-160 7-209.5T136 53q23-25 67-25 40 0 63 23 32 32 32 103h40z" horiz-adv-x="382" vert-adv-y="1000"/><glyph glyph-name="uni0405" unicode="Ѕ" d="M331 182q0-108-44-153Q252-6 186-6 119-6 84 29 61 53 52 83.5T43 173h40q0-85 31-116 26-26 72-26 49 0 73 26 19 19 25.5 46.5T291 181q0 72-16 104.5T213 337l-73 30q-54 22-73 59.5T48 544q0 92 45 137 37 37 98 37 63 0 100-37 24-25 32-54.5t8-77.5h-40q0 71-30 105-25 28-71 28-41 0-67-24-35-34-35-113 0-69 15.5-97.5T171 398l73-30q52-21 69.5-63.5T331 182z" horiz-adv-x="380" vert-adv-y="1000"/><glyph glyph-name="uni0406" unicode="І" d="M112 0H72v712h40V0z" horiz-adv-x="184" vert-adv-y="1000"/><glyph glyph-name="uni0407" unicode="Ї" d="M112 0H72v712h40V0m67 789h-50v50h50v-50m-124 0H5v50h50v-50z" horiz-adv-x="184" vert-adv-y="1000"/><glyph glyph-name="uni0408" unicode="Ј" d="M248 141q0-73-40-113-36-36-95-36Q50-8 10 40l30 25q29-37 73-37 42 0 68.5 29.5T208 141v571h40V141z" horiz-adv-x="312" vert-adv-y="1000"/><glyph glyph-name="uni0409" unicode="Љ" d="M590 192q0-61-12-101.5t-35-59q-23-18.5-45-25T446 0H320v676H168V348q0-94-8-160T140 86q-12-36-32.5-56t-38-25Q52 0 26 0H15v36h7q20 0 32.5 3.5T83 61q16 18 25 51t15.5 96q6.5 63 6.5 153v351h230V384h86q31 0 53-6t44.5-24.5q22.5-18.5 34.5-59T590 192M522.5 67l13.75 15.5Q550 98 550 192t-27.5 125Q495 348 443 348h-83V36h83q52 0 79.5 31z" horiz-adv-x="640" vert-adv-y="1000"/><glyph glyph-name="uni040A" unicode="Њ" d="M572 192q0-61-12-101.5t-35-59q-23-18.5-45-25T428 0H302v348H112V0H72v712h40V384h190v328h40V384h86q31 0 53-6t44.5-24.5q22.5-18.5 34.5-59T572 192M504.5 67l13.75 15.5Q532 98 532 192t-27.5 125Q477 348 425 348h-83V36h83q52 0 79.5 31z" horiz-adv-x="622" vert-adv-y="1000"/><glyph glyph-name="uni040B" unicode="Ћ" d="M394 0h-40v244q0 72-27.5 98T241 368h-72V0h-40v676H22v36h278v-36H169V404h76q73 0 111-33.5T394 250V0z" horiz-adv-x="450" vert-adv-y="1000"/><glyph glyph-name="uni040C" unicode="Ќ" d="M392 0h-49L114 371l214 341h47L156 373 392 0M112 0H72v712h40V0m188 892l-70-126h-40l63 126h47z" horiz-adv-x="404" vert-adv-y="1000"/><glyph glyph-name="uni040D" unicode="Ѝ" d="M356 0h-40v598L112 0H72v712h40V114l204 598h40V0M235 766h-40l-70 126h47l63-126z" horiz-adv-x="428" vert-adv-y="1000"/><glyph glyph-name="uni040E" unicode="Ў" d="M333 712L151 95q-17-60-46-77.5T21 0v36q41 0 60.5 14.5T115 111l34 117L4 712h44l122-425 119 425h44m-56 140q-5-49-30.5-73.5T170 754q-51 0-76.5 24.5T63 852h38q8-66 69-66t69 66h38z" horiz-adv-x="337" vert-adv-y="1000"/><glyph glyph-name="uni040F" unicode="Џ" d="M342 0H227v-140h-40V0H72v712h40V36h190v676h40V0z" horiz-adv-x="414" vert-adv-y="1000"/><glyph glyph-name="uni0410" unicode="А" d="M343 0h-44l-43 214H90L48 0H4l153 712h36L343 0m-94 250l-76 380-75-380h151z" horiz-adv-x="347" vert-adv-y="1000"/><glyph glyph-name="uni0411" unicode="Б" d="M348 194q0-61-12.5-102T300 32q-23-19-45.5-25.5T202 0H72v712h248v-36H112V388h90q31 0 53-6.5t45.5-25Q324 338 336 297t12-103M279.5 68l14.25 16Q308 100 308 194t-28.5 126Q251 352 199 352h-87V36h87q52 0 80.5 32z" horiz-adv-x="400" vert-adv-y="1000"/><glyph glyph-name="uni0412" unicode="В" d="M342 193q0-64-10-96.5T299 40Q260 0 181 0H72v712h110q78 0 114-40 22-24 30-54.5t8-86.5q0-89-44-133-22-22-47-29 29-6 53-28 46-46 46-148m-40 0q0 157-114 157h-76V36h76q57 0 85.5 34T302 193m-8 338q0 82-26.5 113.5T188 676h-76V386h76q106 0 106 145z" horiz-adv-x="396" vert-adv-y="1000"/><glyph glyph-name="uni0413" unicode="Г" d="M297 676H112V0H72v712h225v-36z" horiz-adv-x="324" vert-adv-y="1000"/><glyph glyph-name="uni0414" unicode="Д" d="M396-113h-40V0H55v-113H15V36h43q57 149 57 354v322h231V36h50v-149M306 36v640H154V388q0-207-54-352h206z" horiz-adv-x="426" vert-adv-y="1000"/><glyph glyph-name="uni0415" unicode="Е" d="M302 0H72v712h230v-36H112V374h164v-36H112V36h190V0z" horiz-adv-x="352" vert-adv-y="1000"/><glyph glyph-name="uni0416" unicode="Ж" d="M591 0h-44L328 371l204 341h47L374 373 591 0M326 0h-40v712h40V0m-42 371L56 0H12l226 373L24 712h47l213-341z" horiz-adv-x="603" vert-adv-y="1000"/><glyph glyph-name="uni0417" unicode="З" d="M320 182q0-57-9-91t-37-64Q241-8 179-8q-55 0-88 30-47 41-47 132h40q0-71 32-103 23-23 63-23 45 0 68 26 33 37 33 128 0 56-8 82.5T245 312q-25 26-63 26h-60v36h60q39 0 62 26 18 19 25 45.5t7 83.5q0 37-1 54.5t-8 38.5q-7 21-21 37-23 25-67 25-40 0-63-23-32-32-32-103H44q0 84 41 126 36 36 94 36 62 0 95-35 28-28 35-63t7-93q0-57-7-84.5T285 394q-18-23-45-37 30-16 46-36 18-22 26-50.5t8-88.5z" horiz-adv-x="374" vert-adv-y="1000"/><glyph glyph-name="uni0418" unicode="И" d="M356 0h-40v598L112 0H72v712h40V114l204 598h40V0z" horiz-adv-x="428" vert-adv-y="1000"/><glyph glyph-name="uni0419" unicode="Й" d="M321 852q-5-49-30.5-73.5T214 754q-51 0-76.5 24.5T107 852h38q8-66 69-66t69 66h38M356 0h-40v598L112 0H72v712h40V114l204 598h40V0z" horiz-adv-x="428" vert-adv-y="1000"/><glyph glyph-name="uni041A" unicode="К" d="M392 0h-49L114 371l214 341h47L156 373 392 0M112 0H72v712h40V0z" horiz-adv-x="404" vert-adv-y="1000"/><glyph glyph-name="uni041B" unicode="Л" d="M360 0h-40v676H168V348q0-94-8-160T140 86q-12-36-32.5-56t-38-25Q52 0 26 0H15v36h7q20 0 32.5 3.5T83 61q16 18 25 51t15.5 96q6.5 63 6.5 153v351h230V0z" horiz-adv-x="432" vert-adv-y="1000"/><glyph glyph-name="uni041C" unicode="М" d="M470 0h-40v619L288 213h-36L112 605V0H72v712h44l155-435 155 435h44V0z" horiz-adv-x="542" vert-adv-y="1000"/><glyph glyph-name="uni041D" unicode="Н" d="M342 0h-40v344H112V0H72v712h40V380h190v332h40V0z" horiz-adv-x="414" vert-adv-y="1000"/><glyph glyph-name="uni041E" unicode="О" d="M339 595l4.5-28.5Q348 538 348 356t-9-239q-9-57-41-90-33-35-95-35t-95 35q-32 33-41 90t-9 239q0 182 9 239t41 90q33 35 95 35t95-35q32-33 41-90m-37.5-464l3.25 25.5Q308 182 308 356t-6.5 225q-6.5 51-31.5 78-23 25-67 25t-67-25q-25-27-31.5-78T98 356q0-174 6.5-225T136 53q23-25 67-25t67 25q25 27 31.5 78z" horiz-adv-x="406" vert-adv-y="1000"/><glyph glyph-name="uni041F" unicode="П" d="M342 0h-40v676H112V0H72v712h270V0z" horiz-adv-x="414" vert-adv-y="1000"/><glyph glyph-name="uni0420" unicode="Р" d="M342 520q0-61-12-101.5t-35-59q-23-18.5-45-25t-52-6.5h-86V0H72v712h126q31 0 53-6t44.5-24.5q22.5-18.5 34.5-59T342 520m-67.5-125l13.75 15.5Q302 426 302 520t-27.5 125Q247 676 195 676h-83V364h83q52 0 79.5 31z" horiz-adv-x="392" vert-adv-y="1000"/><glyph glyph-name="uni0421" unicode="С" d="M338 154q0-91-47-132-33-30-88-30-62 0-95 35-32 33-41 90t-9 239q0 182 9 239t41 90q33 35 95 35 59 0 94-35 41-42 41-127h-40q0 71-32 103-23 23-63 23-44 0-67-25-25-27-31.5-78T98 356q0-174 6.5-225T136 53q23-25 67-25 40 0 63 23 32 32 32 103h40z" horiz-adv-x="382" vert-adv-y="1000"/><glyph glyph-name="uni0422" unicode="Т" d="M300 676H181V0h-40v676H22v36h278v-36z" horiz-adv-x="322" vert-adv-y="1000"/><glyph glyph-name="uni0423" unicode="У" d="M333 712L151 95q-17-60-46-77.5T21 0v36q41 0 60.5 14.5T115 111l34 117L4 712h44l122-425 119 425h44z" horiz-adv-x="337" vert-adv-y="1000"/><glyph glyph-name="uni0424" unicode="Ф" d="M393 606l18-33.5Q429 539 429 380t-36-226q-36-67-134-72V-3h-40v85q-98 5-134 72T49 380q0 159 36 226t134 72v57h40v-57q98-5 134-72m-30-427l13 28.5Q389 236 389 380t-26 201q-26 57-104 61V118q78 4 104 61m-144-61v524q-78-4-104-61T89 380q0-144 26-201t104-61z" horiz-adv-x="478" vert-adv-y="1000"/><glyph glyph-name="uni0425" unicode="Х" d="M329 0h-44L175 327 66 0H22l129 372L33 712h44l98-298 99 298h44L197 372 329 0z" horiz-adv-x="351" vert-adv-y="1000"/><glyph glyph-name="uni0426" unicode="Ц" d="M392-140h-40V0H72v712h40V36h190v676h40V36h50v-176z" horiz-adv-x="422" vert-adv-y="1000"/><glyph glyph-name="uni0427" unicode="Ч" d="M337 0h-40v273q-51-10-101-10-124 0-124 143v306h40V410q0-65 24-88t65-23q47 0 96 9v404h40V0z" horiz-adv-x="409" vert-adv-y="1000"/><glyph glyph-name="uni0428" unicode="Ш" d="M552 0H72v712h40V36h180v676h40V36h180v676h40V0z" horiz-adv-x="624" vert-adv-y="1000"/><glyph glyph-name="uni0429" unicode="Щ" d="M602-140h-40V0H72v712h40V36h180v676h40V36h180v676h40V36h50v-176z" horiz-adv-x="632" vert-adv-y="1000"/><glyph glyph-name="uni042A" unicode="Ъ" d="M401 192q0-61-12-101.5t-35-59q-23-18.5-45-25T257 0H131v676H22v36h149V384h86q31 0 53-6t44.5-24.5q22.5-18.5 34.5-59T401 192M333.5 67l13.75 15.5Q361 98 361 192t-27.5 125Q306 348 254 348h-83V36h83q52 0 79.5 31z" horiz-adv-x="451" vert-adv-y="1000"/><glyph glyph-name="uni042B" unicode="Ы" d="M454 0h-40v712h40V0M342 192q0-61-12-101.5t-35-59q-23-18.5-45-25T198 0H72v712h40V384h86q31 0 53-6t44.5-24.5q22.5-18.5 34.5-59T342 192M274.5 67l13.75 15.5Q302 98 302 192t-27.5 125Q247 348 195 348h-83V36h83q52 0 79.5 31z" horiz-adv-x="526" vert-adv-y="1000"/><glyph glyph-name="uni042C" unicode="Ь" d="M342 192q0-61-12-101.5t-35-59q-23-18.5-45-25T198 0H72v712h40V384h86q31 0 53-6t44.5-24.5q22.5-18.5 34.5-59T342 192M274.5 67l13.75 15.5Q302 98 302 192t-27.5 125Q247 348 195 348h-83V36h83q52 0 79.5 31z" horiz-adv-x="392" vert-adv-y="1000"/><glyph glyph-name="uni042D" unicode="Э" d="M315 595l4.5-28.5Q324 538 324 356t-9-239q-9-57-41-90-33-35-95-35-55 0-88 30-47 41-47 132h40q0-71 32-103 23-23 63-23 44 0 67 25 24 26 31 75.5t7 209.5H125v36h159q0 160-7 209.5T246 659q-23 25-67 25-40 0-63-23-32-32-32-103H44q0 85 41 127 35 35 94 35 62 0 95-35 32-33 41-90z" horiz-adv-x="382" vert-adv-y="1000"/><glyph glyph-name="uni042E" unicode="Ю" d="M495 595l4.5-28.5Q504 538 504 356t-9-239q-9-57-41-90-33-35-95-35t-95 35q-32 32-41 87.5T214 344H112V0H72v712h40V380h102q0 165 9.5 219t40.5 86q33 35 95 35t95-35q32-33 41-90m-37.5-464l3.25 25.5Q464 182 464 356t-6.5 225q-6.5 51-31.5 78-23 25-67 25t-67-25q-25-27-31.5-78T254 356q0-174 6.5-225T292 53q23-25 67-25t67 25q25 27 31.5 78z" horiz-adv-x="562" vert-adv-y="1000"/><glyph glyph-name="uni042F" unicode="Я" d="M94 0H50l113 335q-90 27-90 185 0 62 12 102.5t34.5 59Q142 700 164 706t53 6h126V0h-40v329H201L94 0m42 638l-11.5-19Q113 600 113 520t23-118q23-38 78-38h89v312h-89q-55 0-78-38z" horiz-adv-x="415" vert-adv-y="1000"/><glyph glyph-name="uni0430" unicode="а" d="M274 0h-38v47q-8-19-26-34-26-21-62-21-44 0-74 30-34 36-34 114 0 76 41 114 36 33 93 33h62v98q0 96-77 96-30 0-50-20-25-25-25-79H46q0 67 34 101 31 31 79 31 54 0 83-29 32-32 32-99V0m-38 126v125h-64q-39 0-64-24-30-28-30-91 0-110 77-110 37 0 59 28.5t22 71.5z" horiz-adv-x="335" vert-adv-y="1000"/><glyph glyph-name="uni0431" unicode="б" d="M287 402l4-25q4-25 4-126t-8-150.5Q279 51 257 27 225-8 174-8T91 27q-22 24-30 73.5T53 251q0 213 5.5 279.5T88 635q45 74 190 77v-35q-63-2-100.5-14T121 618q-12-20-18.5-47.5t-8-49.5Q93 499 91 453q28 57 91 57 44 0 75-34 22-24 30-74m-35.5-290l2.75 21Q257 154 257 251t-5.5 139q-5.5 42-23.5 63-21 23-54 23t-54-23q-18-21-23.5-63T91 251q0-97 5.5-139T120 49q21-23 54-23t54 23q18 21 23.5 63z" horiz-adv-x="343" vert-adv-y="1000"/><glyph glyph-name="uni0432" unicode="в" d="M297 139q0-73-36-109-30-30-95-30H66v502h99q64 0 93-28 32-31 32-100 0-62-35-92-11-10-29-18 19-6 34-18 37-30 37-107m-38 0q0 107-90 107h-65V32h65q45 0 67.5 23.5T259 139m-7 235q0 53-21 74.5T169 470h-65V277h65q83 0 83 97z" horiz-adv-x="342" vert-adv-y="1000"/><glyph glyph-name="uni0433" unicode="г" d="M254 502v-33H104V0H66v502h188z" horiz-adv-x="269" vert-adv-y="1000"/><glyph glyph-name="uni0434" unicode="д" d="M346-120h-38V0H53v-120H15V33h45q25 63 34.5 122.5T104 330v172h199V33h43v-153M265 33v436H141V330q0-118-8.5-176.5T100 33h165z" horiz-adv-x="372" vert-adv-y="1000"/><glyph glyph-name="uni0435" unicode="е" d="M290 251H86q0-96 5.5-138.5T116 49q21-23 55-23 35 0 55 20 26 25 26 81h37q0-67-35-103-32-32-83-32-52 0-84 35-22 24-30.5 74T48 251q0 101 8 150.5T86 475q32 35 83 35t83-35q22-24 30-73.5t8-150.5m-38 32q-1 79-6.5 115T223 453q-21 23-54 23t-54-23q-17-19-22.5-55T86 283h166z" horiz-adv-x="333" vert-adv-y="1000"/><glyph glyph-name="uni0436" unicode="ж" d="M484 0h-44L268 260l163 242h43L310 263 484 0M266 0h-38v502h38V0m-40 260L54 0H10l174 263L20 502h43l163-242z" horiz-adv-x="494" vert-adv-y="1000"/><glyph glyph-name="uni0437" unicode="з" d="M278 132q0-45-8.5-69T239 18Q210-8 158-8q-51 0-78 24-40 34-40 104h37q0-52 28-78 18-16 53-16t55 17q27 23 27 89 0 40-6.5 59T212 223q-21 17-56 17h-40v33h40q33 0 54 18 26 24 26 84t-26 85q-17 16-52 16-37 0-55-18-26-25-26-77H40q0 64 35 99 32 30 83 30t79-24q37-32 37-111 0-58-26-89-15-18-38-28 21-8 36-21 32-27 32-105z" horiz-adv-x="323" vert-adv-y="1000"/><glyph glyph-name="uni0438" unicode="и" d="M312 0h-38v420L104 0H66v502h38V82l170 420h38V0z" horiz-adv-x="378" vert-adv-y="1000"/><glyph glyph-name="uni0439" unicode="й" d="M312 0h-38v420L104 0H66v502h38V82l170 420h38V0m-17 677q-5-49-30.5-73.5T188 579q-51 0-76.5 24.5T81 677h38q8-66 69-66t69 66h38z" horiz-adv-x="378" vert-adv-y="1000"/><glyph glyph-name="uni043A" unicode="к" d="M322 0h-44L106 260l163 242h43L148 263 322 0M104 0H66v502h38V0z" horiz-adv-x="335" vert-adv-y="1000"/><glyph glyph-name="uni043B" unicode="л" d="M301 0h-38v469H140V189Q140 0 25 0H15v32h6q15 0 27 5t26 20.5Q88 73 95.5 110t7.5 93v299h198V0z" horiz-adv-x="367" vert-adv-y="1000"/><glyph glyph-name="uni043C" unicode="м" d="M396 0h-38v416L247 149h-33L104 416V0H66v504h38l127-312 127 312h38V0z" horiz-adv-x="462" vert-adv-y="1000"/><glyph glyph-name="uni043D" unicode="н" d="M292 0h-38v242H104V0H66v502h38V275h150v227h38V0z" horiz-adv-x="358" vert-adv-y="1000"/><glyph glyph-name="uni043E" unicode="о" d="M282 401.5l4-24.75Q290 352 290 251t-8-150.5Q274 51 252 27 220-8 169-8T86 27q-22 24-30 73.5T48 251q0 101 8 150.5T86 475q32 35 83 35t83-35q22-24 30-73.5M246.5 112l2.75 21Q252 154 252 251t-5.5 139q-5.5 42-23.5 63-21 23-54 23t-54-23q-18-21-23.5-63T86 251q0-97 5.5-139T115 49q21-23 54-23t54 23q18 21 23.5 63z" horiz-adv-x="338" vert-adv-y="1000"/><glyph glyph-name="uni043F" unicode="п" d="M292 0h-38v469H104V0H66v502h226V0z" horiz-adv-x="358" vert-adv-y="1000"/><glyph glyph-name="uni0440" unicode="р" d="M294 402l4-25q4-25 4-126t-8-151q-8-50-30-74-30-34-74-34-36 0-60 17-15 10-26 30v-249H66v712h38v-41q7 16 26 30 25 19 60 19 43 0 74-34 22-24 30-74m-35.5-290l2.75 21Q264 154 264 251t-5.5 139q-5.5 42-23.5 63-21 23-52 23t-53-20q-26-26-26-78V124q0-52 26-78 22-20 53-20t52 23q18 21 23.5 63z" horiz-adv-x="350" vert-adv-y="1000"/><glyph glyph-name="uni0441" unicode="с" d="M284 127q0-71-32-104-31-31-83-31-51 0-83 35-22 24-30 73.5T48 251q0 101 8 150.5T86 475q32 35 83 35 54 0 83-29 32-32 32-106h-37q0 57-22 80-20 21-55 21-34 0-55-23-18-21-23.5-63T86 251q0-97 5.5-139T115 49q21-23 55-23 33 0 53 20 24 24 24 81h37z" horiz-adv-x="324" vert-adv-y="1000"/><glyph glyph-name="uni0442" unicode="т" d="M257 469H155V0h-38v469H15v33h242v-33z" horiz-adv-x="272" vert-adv-y="1000"/><glyph glyph-name="uni0443" unicode="у" d="M274 502L131-110Q108-210 1-210v34q76 0 93 69L121 2 4 502h42l93-442 93 442h42z" horiz-adv-x="281" vert-adv-y="1000"/><glyph glyph-name="uni0444" unicode="ф" d="M393.5 396l5.25-23.5Q404 349 404 251t-10.5-145Q383 59 353 32 313-5 245-6v-204h-38V-6Q139-5 99 32q-30 27-40.5 74T48 251q0 98 10.5 145T99 470q40 37 108 38v204h38V508q68-1 108-38 30-27 40.5-74m-36-278.5l4.25 20.75Q366 159 366 251t-8.5 133.5Q349 426 324 448q-32 26-79 26V28q47 0 79 26 25 22 33.5 63.5M207 28v446q-47 0-79-26-25-22-33.5-63.5T86 251q0-92 8.5-133.5T128 54q32-26 79-26z" horiz-adv-x="452" vert-adv-y="1000"/><glyph glyph-name="uni0445" unicode="х" d="M276 0h-42l-86 226L62 0H20l108 256L26 502h42l80-217 80 217h42L166 256 276 0z" horiz-adv-x="296" vert-adv-y="1000"/><glyph glyph-name="uni0446" unicode="ц" d="M335-120h-38V0H66v502h38V33h150v469h38V33h43v-153z" horiz-adv-x="361" vert-adv-y="1000"/><glyph glyph-name="uni0447" unicode="ч" d="M253 0h-38v180q-36-8-77-8-40 0-68 24t-28 79v227h38V279q0-74 62-74 35 0 73 7v290h38V0z" horiz-adv-x="319" vert-adv-y="1000"/><glyph glyph-name="uni0448" unicode="ш" d="M440 0H66v502h38V33h130v469h38V33h130v469h38V0z" horiz-adv-x="506" vert-adv-y="1000"/><glyph glyph-name="uni0449" unicode="щ" d="M483-120h-38V0H66v502h38V33h130v469h38V33h130v469h38V33h43v-153z" horiz-adv-x="509" vert-adv-y="1000"/><glyph glyph-name="uni044A" unicode="ъ" d="M305 244l14.5-17q14.5-17 14.5-88T305 34Q276 0 214 0H103v469H15v33h126V278h73q62 0 91-34M211 32q85 0 85 107t-85 107h-70V32h70z" horiz-adv-x="370" vert-adv-y="1000"/><glyph glyph-name="uni044B" unicode="ы" d="M390 0h-38v502h38V0M268 244l14.5-17q14.5-17 14.5-88T268 34Q239 0 177 0H66v502h38V278h73q62 0 91-34M174 32q85 0 85 107t-85 107h-70V32h70z" horiz-adv-x="456" vert-adv-y="1000"/><glyph glyph-name="uni044C" unicode="ь" d="M268 244l14.5-17q14.5-17 14.5-88T268 34Q239 0 177 0H66v502h38V278h73q62 0 91-34M174 32q85 0 85 107t-85 107h-70V32h70z" horiz-adv-x="333" vert-adv-y="1000"/><glyph glyph-name="uni044D" unicode="э" d="M272 401.5l4-24.75Q280 352 280 251t-8-150.5Q264 51 242 27 210-8 158-8q-51 0-78 24-40 34-40 104h37q0-52 28-78 18-16 53-16 34 0 55 23 18 20 23.5 61t5.5 132H103v33h139q0 81-5.5 119.5T213 453q-21 23-55 23-37 0-55-18-26-25-26-77H40q0 64 35 99 32 30 83 30 52 0 84-35 22-24 30-73.5z" horiz-adv-x="328" vert-adv-y="1000"/><glyph glyph-name="uni044E" unicode="ю" d="M412 401.5l4-24.75Q420 352 420 251t-8-150.5Q404 51 382 27 350-8 299-8t-83 35q-22 23-30 71t-8 144h-74V0H66v502h38V275h74q1 87 9 132t29 68q32 35 83 35t83-35q22-24 30-73.5M376.5 112l2.75 21Q382 154 382 251t-5.5 139q-5.5 42-23.5 63-21 23-54 23t-54-23q-18-21-23.5-63T216 251q0-97 5.5-139T245 49q21-23 54-23t54 23q18 21 23.5 63z" horiz-adv-x="468" vert-adv-y="1000"/><glyph glyph-name="uni044F" unicode="я" d="M264 0h-38v226h-77L72 0H31q54 154 82 231-68 27-68 133 0 138 115 138h104V0m-38 258v212h-64q-41 0-60-25t-19-81q0-106 79-106h64z" horiz-adv-x="330" vert-adv-y="1000"/><glyph glyph-name="uni0450" unicode="ѐ" d="M290 251H86q0-96 5.5-138.5T116 49q21-23 55-23 35 0 55 20 26 25 26 81h37q0-67-35-103-32-32-83-32-52 0-84 35-22 24-30.5 74T48 251q0 101 8 150.5T86 475q32 35 83 35t83-35q22-24 30-73.5t8-150.5m-38 32q-1 79-6.5 115T223 453q-21 23-54 23t-54-23q-17-19-22.5-55T86 283h166m-59 303h-40L83 712h47l63-126z" horiz-adv-x="333" vert-adv-y="1000"/><glyph glyph-name="uni0451" unicode="ё" d="M290 251H86q0-96 5.5-138.5T116 49q21-23 55-23 35 0 55 20 26 25 26 81h37q0-67-35-103-32-32-83-32-52 0-84 35-22 24-30.5 74T48 251q0 101 8 150.5T86 475q32 35 83 35t83-35q22-24 30-73.5t8-150.5m-38 32q-1 79-6.5 115T223 453q-21 23-54 23t-54-23q-17-19-22.5-55T86 283h166m2 326h-50v50h50v-50m-124 0H80v50h50v-50z" horiz-adv-x="333" vert-adv-y="1000"/><glyph glyph-name="uni0452" unicode="ђ" d="M310-68q0-56-30-88-29-29-85-29v34q77 0 77 81v454q0 44-21.5 67.5T195 475q-34 0-55.5-23.5T118 384V0H80v586H19v32h61v94h38v-94h145v-32H118V461q7 16 26 30 25 19 60 19 45 0 75-32 31-31 31-95V-68z" horiz-adv-x="371" vert-adv-y="1000"/><glyph glyph-name="uni0453" unicode="ѓ" d="M254 502v-33H104V0H66v502h188m-21 210l-70-126h-40l63 126h47z" horiz-adv-x="269" vert-adv-y="1000"/><glyph glyph-name="uni0454" unicode="є" d="M288 120q0-70-40-104-27-24-78-24-52 0-84 35-22 24-30 73.5T48 251q0 101 8 150.5T86 475q32 35 84 35 51 0 83-30 35-35 35-99h-37q0 52-26 77-18 18-55 18-34 0-55-23-18-20-23.5-58.5T86 275h139v-33H86q0-91 5.5-132T115 49q21-23 55-23 35 0 53 16 28 26 28 78h37z" horiz-adv-x="328" vert-adv-y="1000"/><glyph glyph-name="uni0455" unicode="ѕ" d="M285 122q0-56-37-93T157-8q-51 0-85 34-37 37-37 107h38q0-56 29-85 22-22 55-22 39 0 64 25 26 28 26 71 0 36-15 61-13 23-55 48l-61 37q-46 28-62 59-13 23-13 62 0 54 37 89 34 32 83 32 52 0 84-32 34-34 34-107h-38q0 57-25 83-21 22-55 22-36 0-57-21-25-24-25-66 0-30 11-49 11-18 49-42l61-37q48-30 66-61 19-31 19-78z" horiz-adv-x="320" vert-adv-y="1000"/><glyph glyph-name="uni0456" unicode="і" d="M104 0H66v502h38V0m9 637H57v56h56v-56z" horiz-adv-x="170" vert-adv-y="1000"/><glyph glyph-name="uni0457" unicode="ї" d="M104 0H66v502h38V0m68 609h-50v50h50v-50m-124 0H-2v50h50v-50z" horiz-adv-x="170" vert-adv-y="1000"/><glyph glyph-name="uni0458" unicode="ј" d="M104-83q0-62-33-95-32-32-92-32v34q87 0 87 91v587h38V-83m9 720H57v56h56v-56z" horiz-adv-x="170" vert-adv-y="1000"/><glyph glyph-name="uni0459" unicode="љ" d="M465 244l14.5-17q14.5-17 14.5-88T465 34Q436 0 374 0H263v469H140V189Q140 0 25 0H15v32h6q15 0 27 5t26 20.5Q88 73 95.5 110t7.5 93v299h198V278h73q62 0 91-34M371 32q85 0 85 107t-85 107h-70V32h70z" horiz-adv-x="530" vert-adv-y="1000"/><glyph glyph-name="uni045A" unicode="њ" d="M456 244l14.5-17q14.5-17 14.5-88T456 34Q427 0 365 0H254v246H104V0H66v502h38V278h150v224h38V278h73q62 0 91-34M362 32q85 0 85 107t-85 107h-70V32h70z" horiz-adv-x="521" vert-adv-y="1000"/><glyph glyph-name="uni045B" unicode="ћ" d="M310 0h-38v384q0 44-21.5 67.5T195 475q-34 0-55.5-23.5T118 384V0H80v586H19v32h61v94h38v-94h145v-32H118V461q7 16 26 30 25 19 60 19 45 0 75-32 31-31 31-95V0z" horiz-adv-x="371" vert-adv-y="1000"/><glyph glyph-name="uni045C" unicode="ќ" d="M322 0h-44L106 260l163 242h43L148 263 322 0M104 0H66v502h38V0m152 712l-70-126h-40l63 126h47z" horiz-adv-x="335" vert-adv-y="1000"/><glyph glyph-name="uni045D" unicode="ѝ" d="M312 0h-38v420L104 0H66v502h38V82l170 420h38V0M209 586h-40L99 712h47l63-126z" horiz-adv-x="378" vert-adv-y="1000"/><glyph glyph-name="uni045E" unicode="ў" d="M274 502L131-110Q108-210 1-210v34q76 0 93 69L121 2 4 502h42l93-442 93 442h42m-26 175q-5-49-30.5-73.5T141 579q-51 0-76.5 24.5T34 677h38q8-66 69-66t69 66h38z" horiz-adv-x="281" vert-adv-y="1000"/><glyph glyph-name="uni045F" unicode="џ" d="M292 0h-94v-120h-38V0H66v502h38V32h150v470h38V0z" horiz-adv-x="358" vert-adv-y="1000"/><glyph glyph-name="uni0462" unicode="Ѣ" d="M367 192q0-61-12-101.5t-35-59q-23-18.5-45-25T223 0H97v562H43v36h54v114h40V598h98v-36h-98V384h86q31 0 53-6t44.5-24.5q22.5-18.5 34.5-59T367 192M299.5 67l13.75 15.5Q327 98 327 192t-27.5 125Q272 348 220 348h-83V36h83q52 0 79.5 31z" horiz-adv-x="417" vert-adv-y="1000"/><glyph glyph-name="uni0463" unicode="ѣ" d="M213 392h-91V278h73q62 0 91-34t29-105q0-71-29-105T195 0H84v392H23v32h61v78h38v-78h91v-32M192 32q85 0 85 107t-85 107h-70V32h70z" horiz-adv-x="351" vert-adv-y="1000"/><glyph glyph-name="uni0472" unicode="Ѳ" d="M339 595l4.5-28.5Q348 538 348 356t-9-239q-9-57-41-90-33-35-95-35t-95 35q-32 33-41 90t-9 239q0 182 9 239t41 90q33 35 95 35t95-35q32-33 41-90m-203 64q-24-26-31-75.5T98 374h210q-1 161-7.5 210T270 659q-23 25-67 25t-67-25M270 53q24 26 30.5 74.5T308 338H98q0-160 7-209.5T136 53q23-25 67-25t67 25z" horiz-adv-x="406" vert-adv-y="1000"/><glyph glyph-name="uni0473" unicode="ѳ" d="M282 401.5l4-24.75Q290 352 290 251t-8-150.5Q274 51 252 27 220-8 169-8T86 27q-22 24-30 73.5T48 251q0 101 8 150.5T86 475q32 35 83 35t83-35q22-24 30-73.5M252 251H86q0-97 5.5-139T115 49q21-23 54-23t54 23q18 21 23.5 63t5.5 139M115 453q-17-19-23-56t-6-114h166q-1 77-6.5 114T223 453q-21 23-54 23t-54-23z" horiz-adv-x="338" vert-adv-y="1000"/><glyph glyph-name="uni0474" unicode="Ѵ" d="M319 601L192 0h-38L4 712h44L173 82l106 535q11 54 38.5 74.5T409 712v-36q-40 0-60.5-16.5T319 601z" horiz-adv-x="421" vert-adv-y="1000"/><glyph glyph-name="uni0475" unicode="ѵ" d="M139 59l72 343q22 100 130 100v-34q-75 0-90-67L159 0h-40L4 502h42l93-443z" horiz-adv-x="356" vert-adv-y="1000"/><glyph glyph-name="uni0490" unicode="Ґ" d="M297 676H112V0H72v712h185v77h40V676z" horiz-adv-x="324" vert-adv-y="1000"/><glyph glyph-name="uni0491" unicode="ґ" d="M254 469H104V0H66v502h150v112h38V469z" horiz-adv-x="269" vert-adv-y="1000"/><glyph glyph-name="uni0492" unicode="Ғ" d="M322 676H137V374h98v-36h-98V0H97v338H43v36h54v338h225v-36z" horiz-adv-x="349" vert-adv-y="1000"/><glyph glyph-name="uni0493" unicode="ғ" d="M272 469H122V324h91v-32h-91V0H84v292H23v32h61v178h188v-33z" horiz-adv-x="287" vert-adv-y="1000"/><glyph glyph-name="uni0496" unicode="Җ" d="M579 712L374 373 570 36h21v-176h-40V0h-4L328 371l204 341h47M284 371L56 0H12l226 373L24 712h47l213-341M326 0h-40v712h40V0z" horiz-adv-x="603" vert-adv-y="1000"/><glyph glyph-name="uni0497" unicode="җ" d="M474 502L310 263 462 33h22v-153h-38V0h-6L268 260l163 242h43M226 260L54 0H10l174 263L20 502h43l163-242M266 0h-38v502h38V0z" horiz-adv-x="494" vert-adv-y="1000"/><glyph glyph-name="uni049A" unicode="Қ" d="M375 712L156 373 369 36h23v-176h-40V0h-9L114 371l214 341h47M112 0H72v712h40V0z" horiz-adv-x="404" vert-adv-y="1000"/><glyph glyph-name="uni049B" unicode="қ" d="M312 502L148 263 300 33h22v-153h-38V0h-6L106 260l163 242h43M104 0H66v502h38V0z" horiz-adv-x="335" vert-adv-y="1000"/><glyph glyph-name="uni049C" unicode="Ҝ" d="M147 247v108h-35V0H72v712h40V391h35v108h37V391h26l163 321h47L241 373 437 0h-49L207 355h-23V247h-37z" horiz-adv-x="449" vert-adv-y="1000"/><glyph glyph-name="uni049D" unicode="ҝ" d="M369 0h-44L192 244h-24V135h-35v109h-29V0H66v502h38V276h29v109h35V276h24l124 226h43L225 263 369 0z" horiz-adv-x="382" vert-adv-y="1000"/><glyph glyph-name="uni04A2" unicode="Ң" d="M342 712V36h20v-176h-40V0h-20v344H112V0H72v712h40V380h190v332h40z" horiz-adv-x="414" vert-adv-y="1000"/><glyph glyph-name="uni04A3" unicode="ң" d="M292 502V33h19v-153h-38V0h-19v242H104V0H66v502h38V275h150v227h38z" horiz-adv-x="358" vert-adv-y="1000"/><glyph glyph-name="uni04AE" unicode="Ү" d="M285 712L164 305V0h-40v305L4 712h44l96-341 97 341h44z" horiz-adv-x="289" vert-adv-y="1000"/><glyph glyph-name="uni04AF" unicode="ү" d="M274 502L158 3v-213h-38V2L4 502h42l93-442 93 442h42z" horiz-adv-x="281" vert-adv-y="1000"/><glyph glyph-name="uni04B0" unicode="Ұ" d="M285 712L164 305h78v-36h-78V0h-40v269H50v36h74L4 712h44l96-341 97 341h44z" horiz-adv-x="289" vert-adv-y="1000"/><glyph glyph-name="uni04B1" unicode="ұ" d="M274 502L158 3h76v-32h-76v-181h-38v181H44V3h76L4 502h42l93-442 93 442h42z" horiz-adv-x="281" vert-adv-y="1000"/><glyph glyph-name="uni04B2" unicode="Ҳ" d="M318 712L197 372 316 36h13v-176h-40V0h-4L175 327 66 0H22l129 372L33 712h44l98-298 99 298h44z" horiz-adv-x="351" vert-adv-y="1000"/><glyph glyph-name="uni04B3" unicode="ҳ" d="M270 502L166 256l96-223h14v-153h-38V0h-4l-86 226L62 0H20l108 256L26 502h42l80-217 80 217h42z" horiz-adv-x="296" vert-adv-y="1000"/><glyph glyph-name="uni04B6" unicode="Ҷ" d="M337 712V36h20v-176h-40V0h-20v273q-51-10-101-10-124 0-124 143v306h40V410q0-65 24-88t65-23q47 0 96 9v404h40z" horiz-adv-x="409" vert-adv-y="1000"/><glyph glyph-name="uni04B7" unicode="ҷ" d="M253 502V33h19v-153h-38V0h-19v180q-36-8-77-8-40 0-68 24t-28 79v227h38V279q0-74 62-74 35 0 73 7v290h38z" horiz-adv-x="319" vert-adv-y="1000"/><glyph glyph-name="uni04B8" unicode="Ҹ" d="M187 155v108Q72 267 72 406v306h40V410q0-59 20-83.5t55-27.5v108h37V299q35 1 73 9v404h40V0h-40v273q-35-7-73-10V155h-37z" horiz-adv-x="409" vert-adv-y="1000"/><glyph glyph-name="uni04B9" unicode="ҹ" d="M165 313V205q26 2 50 7v290h38V0h-38v180q-31-7-50-8V63h-35v109q-38 2-63 26t-25 77v227h38V279q0-68 50-74v108h35z" horiz-adv-x="319" vert-adv-y="1000"/><glyph glyph-name="uni04BA" unicode="Һ" d="M72 712h40V439q51 10 101 10 124 0 124-143V0h-40v302q0 65-24 88t-65 23q-46 0-96-9V0H72v712z" horiz-adv-x="409" vert-adv-y="1000"/><glyph glyph-name="uni04BB" unicode="һ" d="M66 502h38V322q36 8 77 8 40 0 68-24t28-79V0h-38v223q0 74-62 74-35 0-73-7V0H66v502z" horiz-adv-x="319" vert-adv-y="1000"/><glyph glyph-name="uni04C0" unicode="Ӏ" d="M112 0H72v712h40V0z" horiz-adv-x="184" vert-adv-y="1000"/><glyph glyph-name="uni04CF" unicode="ӏ" d="M98 0H60v712h38V0z" horiz-adv-x="158" vert-adv-y="1000"/><glyph glyph-name="uni04D8" unicode="Ә" d="M58 138v236h240q-1 161-7.5 210T260 659q-23 25-67 25-95 0-95-126H58q0 83 40 126 36 36 95 36 62 0 95-35 32-33 41-90t9-239q0-182-9-239t-41-90Q255-8 193-8q-56 0-95.5 38T58 138m40 200V140q0-53 27-82.5T193 28q44 0 67 25 24 26 30.5 74.5T298 338H98z" horiz-adv-x="396" vert-adv-y="1000"/><glyph glyph-name="uni04D9" unicode="ә" d="M48 251h204q0 96-5.5 138.5T222 453q-21 23-55 23-35 0-55-20-26-25-26-81H49q0 67 35 103 32 32 83 32 52 0 84-35 22-24 30.5-74t8.5-150q0-101-8-150.5T252 27Q220-8 169-8T86 27q-22 24-30 73.5T48 251m38-32q1-79 6.5-115T115 49q21-23 54-23t54 23q17 19 22.5 55t6.5 115H86z" horiz-adv-x="333" vert-adv-y="1000"/><glyph glyph-name="uni04E2" unicode="Ӣ" d="M356 0h-40v598L112 0H72v712h40V114l204 598h40V0m-42 789H114v35h200v-35z" horiz-adv-x="428" vert-adv-y="1000"/><glyph glyph-name="uni04E3" unicode="ӣ" d="M312 0h-38v420L104 0H66v502h38V82l170 420h38V0m-23 614H89v35h200v-35z" horiz-adv-x="378" vert-adv-y="1000"/><glyph glyph-name="uni04E8" unicode="Ө" d="M339 595l4.5-28.5Q348 538 348 356t-9-239q-9-57-41-90-33-35-95-35t-95 35q-32 33-41 90t-9 239q0 182 9 239t41 90q33 35 95 35t95-35q32-33 41-90m-203 64q-24-26-31-75.5T98 374h210q-1 161-7.5 210T270 659q-23 25-67 25t-67-25M270 53q24 26 30.5 74.5T308 338H98q0-160 7-209.5T136 53q23-25 67-25t67 25z" horiz-adv-x="406" vert-adv-y="1000"/><glyph glyph-name="uni04E9" unicode="ө" d="M282 401.5l4-24.75Q290 352 290 251t-8-150.5Q274 51 252 27 220-8 169-8T86 27q-22 24-30 73.5T48 251q0 101 8 150.5T86 475q32 35 83 35t83-35q22-24 30-73.5M252 251H86q0-97 5.5-139T115 49q21-23 54-23t54 23q18 21 23.5 63t5.5 139M115 453q-17-19-23-56t-6-114h166q-1 77-6.5 114T223 453q-21 23-54 23t-54-23z" horiz-adv-x="338" vert-adv-y="1000"/><glyph glyph-name="uni04EE" unicode="Ӯ" d="M333 712L151 95q-17-60-46-77.5T21 0v36q41 0 60.5 14.5T115 111l34 117L4 712h44l122-425 119 425h44m-63 77H70v35h200v-35z" horiz-adv-x="337" vert-adv-y="1000"/><glyph glyph-name="uni04EF" unicode="ӯ" d="M274 502L131-110Q108-210 1-210v34q76 0 93 69L121 2 4 502h42l93-442 93 442h42m-35 112H39v35h200v-35z" horiz-adv-x="281" vert-adv-y="1000"/><glyph glyph-name="uni1E80" unicode="Ẁ" d="M538 712L439 0h-42L271 630 147 0h-42L4 712h44l78-630 122 630h46L418 82l76 630h44m-246 54h-40l-70 126h47l63-126z" horiz-adv-x="542" vert-adv-y="1000"/><glyph glyph-name="uni1E81" unicode="ẁ" d="M433 502L341 0h-44l-82 443L138 0H94L4 502h46l66-443 77 443h44l82-443 68 443h46m-196 84h-40l-70 126h47l63-126z" horiz-adv-x="437" vert-adv-y="1000"/><glyph glyph-name="uni1E82" unicode="Ẃ" d="M538 712L439 0h-42L271 630 147 0h-42L4 712h44l78-630 122 630h46L418 82l76 630h44M359 892l-70-126h-40l63 126h47z" horiz-adv-x="542" vert-adv-y="1000"/><glyph glyph-name="uni1E83" unicode="ẃ" d="M433 502L341 0h-44l-82 443L138 0H94L4 502h46l66-443 77 443h44l82-443 68 443h46M304 712l-70-126h-40l63 126h47z" horiz-adv-x="437" vert-adv-y="1000"/><glyph glyph-name="uni1E84" unicode="Ẅ" d="M538 712L439 0h-42L271 630 147 0h-42L4 712h44l78-630 122 630h46L418 82l76 630h44m-180 77h-50v50h50v-50m-124 0h-50v50h50v-50z" horiz-adv-x="542" vert-adv-y="1000"/><glyph glyph-name="uni1E85" unicode="ẅ" d="M433 502L341 0h-44l-82 443L138 0H94L4 502h46l66-443 77 443h44l82-443 68 443h46M302 609h-50v50h50v-50m-124 0h-50v50h50v-50z" horiz-adv-x="437" vert-adv-y="1000"/><glyph glyph-name="uni1E8A" unicode="Ẋ" d="M329 0h-44L175 327 66 0H22l129 372L33 712h44l98-298 99 298h44L197 372 329 0M199 789h-50v50h50v-50z" horiz-adv-x="351" vert-adv-y="1000"/><glyph glyph-name="uni1E8B" unicode="ẋ" d="M276 0h-42l-86 226L62 0H20l108 256L26 502h42l80-217 80 217h42L166 256 276 0M173 614h-50v50h50v-50z" horiz-adv-x="296" vert-adv-y="1000"/><glyph glyph-name="uni1EF2" unicode="Ỳ" d="M285 712L164 305V0h-40v305L4 712h44l96-341 97 341h44m-121 54h-40L54 892h47l63-126z" horiz-adv-x="289" vert-adv-y="1000"/><glyph glyph-name="uni1EF3" unicode="ỳ" d="M274 502L131-110Q108-210 1-210v34q76 0 93 69L121 2 4 502h42l93-442 93 442h42m-109 84h-40L55 712h47l63-126z" horiz-adv-x="281" vert-adv-y="1000"/><glyph glyph-name="uni2013" unicode="–" d="M372 255H50v36h322v-36z" horiz-adv-x="422" vert-adv-y="1000"/><glyph glyph-name="uni2014" unicode="—" d="M598 255H58v36h540v-36z" horiz-adv-x="656" vert-adv-y="1000"/><glyph glyph-name="uni2015" unicode="―" d="M598 255H58v36h540v-36z" horiz-adv-x="656" vert-adv-y="1000"/><glyph glyph-name="uni2018" unicode="‘" d="M110 632H58v80l52 38V632z" horiz-adv-x="168" vert-adv-y="1000"/><glyph glyph-name="uni2019" unicode="’" d="M110 632l-52-38v118h52v-80z" horiz-adv-x="168" vert-adv-y="1000"/><glyph glyph-name="uni201A" unicode="‚" d="M110 0L58-38V80h52V0z" horiz-adv-x="168" vert-adv-y="1000"/><glyph glyph-name="uni201C" unicode="“" d="M238 632h-52v80l52 38V632m-128 0H58v80l52 38V632z" horiz-adv-x="296" vert-adv-y="1000"/><glyph glyph-name="uni201D" unicode="”" d="M238 632l-52-38v118h52v-80m-128 0l-52-38v118h52v-80z" horiz-adv-x="296" vert-adv-y="1000"/><glyph glyph-name="uni201E" unicode="„" d="M238-20l-52-38V60h52v-80m-128 0L58-58V60h52v-80z" horiz-adv-x="296" vert-adv-y="1000"/><glyph glyph-name="uni2020" unicode="†" d="M382 468H235V0h-38v468H50v34h147v210h38V502h147v-34z" horiz-adv-x="432" vert-adv-y="1000"/><glyph glyph-name="uni2021" unicode="‡" d="M382 0H235v-210h-38V0H50v34h147v434H50v34h147v210h38V502h147v-34H235V34h147V0z" horiz-adv-x="432" vert-adv-y="1000"/><glyph glyph-name="uni2022" unicode="•" d="M350 449.5l24-23.75Q398 402 398 334t-48-115.5Q302 171 235 171t-115 47.5Q72 266 72 334t48 115.5Q168 497 235 497t115-47.5z" horiz-adv-x="470" vert-adv-y="1000"/><glyph glyph-name="uni2026" unicode="…" d="M446 0h-58v58h58V0M284 0h-58v58h58V0M122 0H64v58h58V0z" horiz-adv-x="510" vert-adv-y="1000"/><glyph glyph-name="uni2030" unicode="‰" d="M234 438q0-41-24-66.5T146 346q-40 0-64 25.5T58 438v190q0 41 24 66.5t64 25.5q40 0 64-25.5t24-66.5V438M518 84q0-41-24-66.5T430-8q-40 0-64 25.5T342 84v190q0 41 24 66.5t64 25.5q40 0 64-25.5t24-66.5V84m256 0q0-41-24-66.5T686-8q-40 0-64 25.5T598 84v190q0 41 24 66.5t64 25.5q40 0 64-25.5t24-66.5V84M199 438v190q0 28-13.5 44.5T146 689q-26 0-39.5-16.5T93 628V438q0-28 13.5-44.5T146 377q26 0 39.5 16.5T199 438M483 84v190q0 28-13.5 44.5T430 335q-26 0-39.5-16.5T377 274V84q0-28 13.5-44.5T430 23q26 0 39.5 16.5T483 84m256 0v190q0 28-13.5 44.5T686 335q-26 0-39.5-16.5T633 274V84q0-28 13.5-44.5T686 23q26 0 39.5 16.5T739 84M429 712L181 0h-34l248 712h34z" horiz-adv-x="832" vert-adv-y="1000"/><glyph glyph-name="uni2039" unicode="‹" d="M157 69L30 265l127 196v-73L76 265l81-123V69z" horiz-adv-x="215" vert-adv-y="1000"/><glyph glyph-name="uni203A" unicode="›" d="M185 265L58 69v73l81 123-81 123v73l127-196z" horiz-adv-x="215" vert-adv-y="1000"/><glyph glyph-name="uni2044" unicode="⁄" d="M212 712L-36 0h-34l248 712h34z" horiz-adv-x="142" vert-adv-y="1000"/><glyph glyph-name="uni2070" unicode="⁰" d="M222 363q0-39-25-62-24-21-66-21-43 0-66 21-25 22-25 62v271q0 42 25 62 23 21 66 21 41 0 67-21 24-22 24-62V363m-32-2v275q0 24-16 37.5T131 687q-27 0-43-13.5T72 636V361q0-24 16-37.5t43-13.5q27 0 43 13.5t16 37.5z" horiz-adv-x="262" vert-adv-y="1000"/><glyph glyph-name="uni2074" unicode="⁴" d="M239 349h-30v-64h-32v64H28v30l131 333h32L60 379h117v115h32V379h30v-30z" horiz-adv-x="261" vert-adv-y="1000"/><glyph glyph-name="uni2075" unicode="⁵" d="M218 420q0-86-27-116-22-24-61-24-36 0-58 20-24 22-24 62v28h35v-27q0-25 13-38t34-13q29 0 41 15 15 19 15 93t-15 93q-12 15-39 15-21 0-35-13.5T83 480v-19H50v251h161v-30H82V532q12 14 22 20 15 8 35 8 34 0 55-23 14-15 19-39.5t5-77.5z" horiz-adv-x="261" vert-adv-y="1000"/><glyph glyph-name="uni2076" unicode="⁶" d="M193 305q-22-25-63-25t-63 25q-14 17-19 38.5T43 411q0 70 18 114l76 187h32L93 528q18 13 43 13 36 0 56-21 14-14 19.5-35t5.5-74q0-46-5-67.5T193 305m-12.5 42l2.25 9.5Q185 366 185 411t-4.5 64q-4.5 19-15.5 27-14 10-35 10t-35-10q-11-8-15.5-27T75 411q0-45 4.5-64T95 320q14-10 35-10t35 10q11 8 15.5 27z" horiz-adv-x="261" vert-adv-y="1000"/><glyph glyph-name="uni2077" unicode="⁷" d="M219 683l-99-398H86l98 397H72v-75H38v105h181v-29z" horiz-adv-x="261" vert-adv-y="1000"/><glyph glyph-name="uni2078" unicode="⁸" d="M215 463l1-8q1-8 1-52t-5.5-65q-5.5-21-21.5-36-24-22-60-22-39 0-61 22-16 15-21 35.5T43 403q0 67 15 88 9 12 28 22-18 8-27 23-13 20-13 72 0 65 25 89 23 20 59 20t58-20q26-22 26-89 0-51-14-72-9-15-25-23 21-11 29-22 9-12 11-28m-46-139q16 16 16 79t-16 79q-16 14-39 14-24 0-40-14-10-10-12.5-25T75 403q0-39 2.5-54T90 324q16-14 40-14 23 0 39 14m13 284q0 51-16 67-12 12-36 12t-36-12q-16-16-16-67 0-52 16-68 12-12 36-12t36 12q16 16 16 68z" horiz-adv-x="261" vert-adv-y="1000"/><glyph glyph-name="uni2079" unicode="⁹" d="M66 692q22 25 63 25t63-25q14-17 19-38.5t5-67.5q0-70-18-114l-76-187H90l76 184q-18-13-43-13-37 0-56 21-14 14-19.5 35T42 586q0 46 5 67.5T66 692m12.5-42l-2.25-9.5Q74 631 74 586t4.5-64Q83 503 94 495q14-10 35-10t35 10q11 8 15.5 27t4.5 64q0 45-4.5 64T164 677q-14 10-35 10t-35-10q-11-8-15.5-27z" horiz-adv-x="261" vert-adv-y="1000"/><glyph glyph-name="uni2080" unicode="₀" d="M222-72q0-39-25-62-24-21-66-21-43 0-66 21-25 22-25 62v271q0 42 25 62 23 21 66 21 41 0 67-21 24-22 24-62V-72m-32-2v275q0 24-16 37.5T131 252q-27 0-43-13.5T72 201V-74q0-24 16-37.5t43-13.5q27 0 43 13.5T190-74z" horiz-adv-x="262" vert-adv-y="1000"/><glyph glyph-name="uni2081" unicode="₁" d="M157-150h-32v389l-66-47v37l67 48h31v-427z" horiz-adv-x="261" vert-adv-y="1000"/><glyph glyph-name="uni2082" unicode="₂" d="M229-150H35v26l138 227q24 40 24 82 0 30-18 48.5T131 252q-64 0-64-79v-13H35v13q0 57 25 82 27 27 71 27 41 0 70-24 28-24 28-73 0-50-30-99L73-123h156v-27z" horiz-adv-x="261" vert-adv-y="1000"/><glyph glyph-name="uni2083" unicode="₃" d="M231-38q0-63-28-91-24-26-71-26t-74 27q-23 25-23 87v10h33v-10q0-51 18-68 18-16 46-16 30 0 46 16 21 21 21 71 0 51-18 72t-49 21h-30v30h30q25 0 44 17 21 19 21 71 0 46-21 64-15 15-44 15-30 0-47-17t-17-62v-10H35v10q0 58 24 82 27 27 73 27 45 0 71-26 26-27 26-83 0-50-20-74-18-21-41-29 27-6 45-32 18-24 18-76z" horiz-adv-x="261" vert-adv-y="1000"/><glyph glyph-name="uni2084" unicode="₄" d="M239-86h-30v-64h-32v64H28v30l131 333h32L60-56h117V59h32V-56h30v-30z" horiz-adv-x="261" vert-adv-y="1000"/><glyph glyph-name="uni2085" unicode="₅" d="M218-15q0-86-27-116-22-24-61-24-36 0-58 20-24 22-24 62v28h35v-27q0-25 13-38t34-13q29 0 41 15 15 19 15 93t-15 93q-12 15-39 15-21 0-35-13.5T83 45V26H50v251h161v-30H82V97q12 14 22 20 15 8 35 8 34 0 55-23 14-15 19-39.5t5-77.5z" horiz-adv-x="261" vert-adv-y="1000"/><glyph glyph-name="uni2086" unicode="₆" d="M193-130q-22-25-63-25t-63 25q-14 17-19 38.5T43-24q0 70 18 114l76 187h32L93 93q18 13 43 13 36 0 56-21 14-14 19.5-35t5.5-74q0-46-5-67.5T193-130m-12.5 42l2.25 9.5Q185-69 185-24t-4.5 64Q176 59 165 67q-14 10-35 10T95 67q-11-8-15.5-27T75-24q0-45 4.5-64T95-115q14-10 35-10t35 10q11 8 15.5 27z" horiz-adv-x="261" vert-adv-y="1000"/><glyph glyph-name="uni2087" unicode="₇" d="M219 248l-99-398H86l98 397H72v-75H38v105h181v-29z" horiz-adv-x="261" vert-adv-y="1000"/><glyph glyph-name="uni2088" unicode="₈" d="M215 28l1-8q1-8 1-52t-5.5-65q-5.5-21-21.5-36-24-22-60-22-39 0-61 22-16 15-21 35.5T43-32q0 67 15 88 9 12 28 22-18 8-27 23-13 19-13 72 0 65 25 89 23 20 59 20t58-20q26-22 26-89 0-51-14-72-9-15-25-23 21-11 29-22 9-12 11-28m-46-139q16 16 16 79t-16 79q-16 14-39 14-24 0-40-14-10-10-12.5-25T75-32q0-39 2.5-54T90-111q16-14 40-14 23 0 39 14m13 284q0 51-16 67-12 12-36 12t-36-12q-16-16-16-67 0-52 16-68 12-12 36-12t36 12q16 16 16 68z" horiz-adv-x="261" vert-adv-y="1000"/><glyph glyph-name="uni2089" unicode="₉" d="M66 257q22 25 63 25t63-25q14-17 19-38.5t5-67.5q0-70-18-114l-76-187H90l76 184q-18-13-43-13-37 0-56 21-14 14-19.5 35T42 151q0 46 5 67.5T66 257m12.5-42l-2.25-9.5Q74 196 74 151t4.5-64Q83 68 94 60q14-10 35-10t35 10q11 8 15.5 27t4.5 64q0 45-4.5 64T164 242q-14 10-35 10t-35-10q-11-8-15.5-27z" horiz-adv-x="261" vert-adv-y="1000"/><glyph glyph-name="uni20AC" unicode="€" d="M381 154q0-91-47-132-33-30-88-30-62 0-95 35-29 29-38.5 74T101 272H36v31h65v106H36v31h65q2 126 11.5 171t38.5 74q33 35 95 35 59 0 94-35 41-42 41-127h-40q0 126-95 126-44 0-67-25-22-23-29.5-62.5T141 440h143v-31H141V303h143v-31H141q1-117 8.5-156.5T179 53q23-25 67-25 95 0 95 126h40z" horiz-adv-x="430" vert-adv-y="1000"/><glyph glyph-name="uni20B4" unicode="₴" d="M313 440h43v-31h-60q-20-25-62-42l-73-30q-35-15-51-34h246v-31H93q-10-29-10-91 0-50 6.5-77.5T115 57q24-26 73-26 46 0 72 26 31 31 31 116h40q0-59-9-89.5T290 29Q255-6 188-6 122-6 87 29 43 74 43 182q0 54 7 90H13v31h47q18 43 70 65l73 30q16 6 24 11H13v31h253q20 28 20 105 0 79-35 113-26 24-67 24-46 0-71-28-30-34-30-105H43q0 48 8 77.5T83 681q37 37 100 37 61 0 98-37 45-45 45-137 0-68-13-104z" horiz-adv-x="380" vert-adv-y="1000"/><glyph glyph-name="uni2116" unicode="№" d="M557.5 640.5l2.25-14.75Q562 611 562 542t-4.5-98.5Q553 414 538 395q-22-27-59-27t-59 27q-15 19-19.5 48.5T396 542q0 69 4.5 98.5T420 689q22 27 59 27t59-27q15-19 19.5-48.5M512 413q18 23 18 129t-18 129q-12 15-33 15t-33-15q-18-23-18-129t18-129q12-15 33-15t33 15m48-117H398v32h162v-32M336 0h-39L108 602V0H72v712h39l189-602v602h36V0z" horiz-adv-x="622" vert-adv-y="1000"/><glyph glyph-name="uni2122" unicode="™" d="M531 285h-33v344l-80-218h-28l-80 210V285h-33v427h34l93-247 93 247h34V285M217 682h-74V285h-33v397H36v30h181v-30z" horiz-adv-x="591" vert-adv-y="1000"/><glyph glyph-name="uni2126" unicode="Ω" d="M353 0H225v30q53 23 70 69 13 35 13 257 0 174-6.5 225T270 659q-23 25-67 25t-67-25q-25-27-31.5-78T98 356q0-222 13-257 17-46 70-69V0H53v33h79Q89 56 73 96q-10 24-12.5 75T58 356q0 182 9 239t41 90q33 35 95 35t95-35q32-33 41-90t9-239q0-134-2.5-185T333 96q-16-40-59-63h79V0z" horiz-adv-x="406" vert-adv-y="1000"/><glyph glyph-name="uni2150" unicode="⅐" d="M157 285h-32v389l-66-47v37l67 48h31V285m316 427L225 0h-34l248 712h34m149-314L523 0h-34l98 397H475v-75h-34v105h181v-29z" horiz-adv-x="664" vert-adv-y="1000"/><glyph glyph-name="uni2151" unicode="⅑" d="M157 285h-32v389l-66-47v37l67 48h31V285m316 427L225 0h-34l248 712h34m-4-305q22 25 63 25t63-25q14-17 19-38.5t5-67.5q0-70-18-114L525 0h-32l76 184q-18-13-43-13-36 0-56 21-14 14-19.5 35t-5.5 74q0 46 5 67.5t19 38.5m12.5-42l-2.25-9.5Q477 346 477 301t4.5-64q4.5-19 15.5-27 14-10 35-10t35 10q11 8 15.5 27t4.5 64q0 45-4.5 64T567 392q-14 10-35 10t-35-10q-11-8-15.5-27z" horiz-adv-x="664" vert-adv-y="1000"/><glyph glyph-name="uni2152" unicode="⅒" d="M157 285h-32v389l-66-47v37l67 48h31V285m316 427L225 0h-34l248 712h34M560 0h-32v389l-66-47v37l67 48h31V0m326 78q0-39-25-62-24-21-66-21-43 0-66 21-25 22-25 62v271q0 42 25 62 23 21 66 21 41 0 67-21 24-22 24-62V78m-32-2v275q0 24-16 37.5T795 402q-27 0-43-13.5T736 351V76q0-24 16-37.5T795 25q27 0 43 13.5T854 76z" horiz-adv-x="926" vert-adv-y="1000"/><glyph glyph-name="uni2153" unicode="⅓" d="M157 285h-32v389l-66-47v37l67 48h31V285m316 427L225 0h-34l248 712h34m161-600q0-63-28-91-24-26-71-26t-74 27q-23 25-23 87v10h33v-10q0-51 18-68 18-16 46-16 30 0 46 16 21 21 21 71 0 51-18 72t-49 21h-30v30h30q25 0 44 17 21 19 21 71 0 46-21 64-15 15-44 15-30 0-47-17t-17-62v-10h-33v10q0 58 24 82 27 27 73 27 45 0 71-26 26-27 26-83 0-50-20-74-18-21-41-29 27-6 45-32 18-24 18-76z" horiz-adv-x="664" vert-adv-y="1000"/><glyph glyph-name="uni2154" unicode="⅔" d="M229 285H35v26l138 227q24 40 24 82 0 30-18 48.5T131 687q-64 0-64-79v-13H35v13q0 57 25 82 27 27 71 27 41 0 70-24 28-24 28-73 0-50-30-99L73 312h156v-27m244 427L225 0h-34l248 712h34m161-600q0-63-28-91-24-26-71-26t-74 27q-23 25-23 87v10h33v-10q0-51 18-68 18-16 46-16 30 0 46 16 21 21 21 71 0 51-18 72t-49 21h-30v30h30q25 0 44 17 21 19 21 71 0 46-21 64-15 15-44 15-30 0-47-17t-17-62v-10h-33v10q0 58 24 82 27 27 73 27 45 0 71-26 26-27 26-83 0-50-20-74-18-21-41-29 27-6 45-32 18-24 18-76z" horiz-adv-x="664" vert-adv-y="1000"/><glyph glyph-name="uni2155" unicode="⅕" d="M157 285h-32v389l-66-47v37l67 48h31V285m316 427L225 0h-34l248 712h34m148-577q0-86-27-116-22-24-61-24-36 0-58 20-24 22-24 62v28h35V78q0-25 13-38t34-13q29 0 41 15 15 19 15 93t-15 93q-12 15-39 15-21 0-35-13.5T486 195v-19h-33v251h161v-30H485V247q12 14 22 20 15 8 35 8 34 0 55-23 14-15 19-39.5t5-77.5z" horiz-adv-x="664" vert-adv-y="1000"/><glyph glyph-name="uni2156" unicode="⅖" d="M229 285H35v26l138 227q24 40 24 82 0 30-18 48.5T131 687q-64 0-64-79v-13H35v13q0 57 25 82 27 27 71 27 41 0 70-24 28-24 28-73 0-50-30-99L73 312h156v-27m244 427L225 0h-34l248 712h34m148-577q0-86-27-116-22-24-61-24-36 0-58 20-24 22-24 62v28h35V78q0-25 13-38t34-13q29 0 41 15 15 19 15 93t-15 93q-12 15-39 15-21 0-35-13.5T486 195v-19h-33v251h161v-30H485V247q12 14 22 20 15 8 35 8 34 0 55-23 14-15 19-39.5t5-77.5z" horiz-adv-x="664" vert-adv-y="1000"/><glyph glyph-name="uni2157" unicode="⅗" d="M231 397q0-63-28-91-24-26-71-26t-74 27q-23 25-23 87v10h33v-10q0-51 18-68 18-16 46-16 30 0 46 16 21 21 21 71 0 51-18 72t-49 21h-30v30h30q25 0 44 17 21 19 21 71 0 46-21 64-15 15-44 15-30 0-47-17t-17-62v-10H35v10q0 58 24 82 27 27 73 27 45 0 71-26 26-27 26-83 0-50-20-74-18-21-41-29 27-6 45-32 18-24 18-76m242 315L225 0h-34l248 712h34m148-577q0-86-27-116-22-24-61-24-36 0-58 20-24 22-24 62v28h35V78q0-25 13-38t34-13q29 0 41 15 15 19 15 93t-15 93q-12 15-39 15-21 0-35-13.5T486 195v-19h-33v251h161v-30H485V247q12 14 22 20 15 8 35 8 34 0 55-23 14-15 19-39.5t5-77.5z" horiz-adv-x="664" vert-adv-y="1000"/><glyph glyph-name="uni2158" unicode="⅘" d="M239 349h-30v-64h-32v64H28v30l131 333h32L60 379h117v115h32V379h30v-30m234 363L225 0h-34l248 712h34m148-577q0-86-27-116-22-24-61-24-36 0-58 20-24 22-24 62v28h35V78q0-25 13-38t34-13q29 0 41 15 15 19 15 93t-15 93q-12 15-39 15-21 0-35-13.5T486 195v-19h-33v251h161v-30H485V247q12 14 22 20 15 8 35 8 34 0 55-23 14-15 19-39.5t5-77.5z" horiz-adv-x="664" vert-adv-y="1000"/><glyph glyph-name="uni2159" unicode="⅙" d="M157 285h-32v389l-66-47v37l67 48h31V285m316 427L225 0h-34l248 712h34M596 20Q574-5 533-5t-63 25q-14 17-19 38.5t-5 67.5q0 70 18 114l76 187h32l-76-184q18 13 43 13 37 0 56-21 14-14 19.5-35t5.5-74q0-46-5-67.5T596 20m-12.5 42l2.25 9.5Q588 81 588 126t-4.5 64q-4.5 19-15.5 27-14 10-35 10t-35-10q-11-8-15.5-27t-4.5-64q0-45 4.5-64T498 35q14-10 35-10t35 10q11 8 15.5 27z" horiz-adv-x="664" vert-adv-y="1000"/><glyph glyph-name="uni215A" unicode="⅚" d="M218 420q0-86-27-116-22-24-61-24-36 0-58 20-24 22-24 62v28h35v-27q0-25 13-38t34-13q29 0 41 15 15 19 15 93t-15 93q-12 15-39 15-21 0-35-13.5T83 480v-19H50v251h161v-30H82V532q12 14 22 20 15 8 35 8 34 0 55-23 14-15 19-39.5t5-77.5m255 292L225 0h-34l248 712h34M596 20Q574-5 533-5t-63 25q-14 17-19 38.5t-5 67.5q0 70 18 114l76 187h32l-76-184q18 13 43 13 37 0 56-21 14-14 19.5-35t5.5-74q0-46-5-67.5T596 20m-12.5 42l2.25 9.5Q588 81 588 126t-4.5 64q-4.5 19-15.5 27-14 10-35 10t-35-10q-11-8-15.5-27t-4.5-64q0-45 4.5-64T498 35q14-10 35-10t35 10q11 8 15.5 27z" horiz-adv-x="664" vert-adv-y="1000"/><glyph glyph-name="uni215B" unicode="⅛" d="M157 285h-32v389l-66-47v37l67 48h31V285m316 427L225 0h-34l248 712h34m145-534l1-8q1-8 1-52t-5.5-65Q609 32 593 17 569-5 533-5q-39 0-61 22-16 15-21 35.5t-5 65.5q0 67 15 88 9 12 28 22-18 8-27 23-13 19-13 72 0 65 25 89 23 20 59 20t58-20q26-22 26-89 0-51-14-72-9-15-25-23 21-11 29-22 9-12 11-28M572 39q16 16 16 79t-16 79q-16 14-39 14-24 0-40-14-10-10-12.5-25t-2.5-54q0-39 2.5-54T493 39q16-14 40-14 23 0 39 14m13 284q0 51-16 67-12 12-36 12t-36-12q-16-16-16-67 0-52 16-68 12-12 36-12t36 12q16 16 16 68z" horiz-adv-x="664" vert-adv-y="1000"/><glyph glyph-name="uni215C" unicode="⅜" d="M231 397q0-63-28-91-24-26-71-26t-74 27q-23 25-23 87v10h33v-10q0-51 18-68 18-16 46-16 30 0 46 16 21 21 21 71 0 51-18 72t-49 21h-30v30h30q25 0 44 17 21 19 21 71 0 46-21 64-15 15-44 15-30 0-47-17t-17-62v-10H35v10q0 58 24 82 27 27 73 27 45 0 71-26 26-27 26-83 0-50-20-74-18-21-41-29 27-6 45-32 18-24 18-76m242 315L225 0h-34l248 712h34m145-534l1-8q1-8 1-52t-5.5-65Q609 32 593 17 569-5 533-5q-39 0-61 22-16 15-21 35.5t-5 65.5q0 67 15 88 9 12 28 22-18 8-27 23-13 19-13 72 0 65 25 89 23 20 59 20t58-20q26-22 26-89 0-51-14-72-9-15-25-23 21-11 29-22 9-12 11-28M572 39q16 16 16 79t-16 79q-16 14-39 14-24 0-40-14-10-10-12.5-25t-2.5-54q0-39 2.5-54T493 39q16-14 40-14 23 0 39 14m13 284q0 51-16 67-12 12-36 12t-36-12q-16-16-16-67 0-52 16-68 12-12 36-12t36 12q16 16 16 68z" horiz-adv-x="664" vert-adv-y="1000"/><glyph glyph-name="uni215D" unicode="⅝" d="M218 420q0-86-27-116-22-24-61-24-36 0-58 20-24 22-24 62v28h35v-27q0-25 13-38t34-13q29 0 41 15 15 19 15 93t-15 93q-12 15-39 15-21 0-35-13.5T83 480v-19H50v251h161v-30H82V532q12 14 22 20 15 8 35 8 34 0 55-23 14-15 19-39.5t5-77.5m255 292L225 0h-34l248 712h34m145-534l1-8q1-8 1-52t-5.5-65Q609 32 593 17 569-5 533-5q-39 0-61 22-16 15-21 35.5t-5 65.5q0 67 15 88 9 12 28 22-18 8-27 23-13 19-13 72 0 65 25 89 23 20 59 20t58-20q26-22 26-89 0-51-14-72-9-15-25-23 21-11 29-22 9-12 11-28M572 39q16 16 16 79t-16 79q-16 14-39 14-24 0-40-14-10-10-12.5-25t-2.5-54q0-39 2.5-54T493 39q16-14 40-14 23 0 39 14m13 284q0 51-16 67-12 12-36 12t-36-12q-16-16-16-67 0-52 16-68 12-12 36-12t36 12q16 16 16 68z" horiz-adv-x="664" vert-adv-y="1000"/><glyph glyph-name="uni215E" unicode="⅞" d="M219 683l-99-398H86l98 397H72v-75H38v105h181v-29m254 29L225 0h-34l248 712h34m145-534l1-8q1-8 1-52t-5.5-65Q609 32 593 17 569-5 533-5q-39 0-61 22-16 15-21 35.5t-5 65.5q0 67 15 88 9 12 28 22-18 8-27 23-13 19-13 72 0 65 25 89 23 20 59 20t58-20q26-22 26-89 0-51-14-72-9-15-25-23 21-11 29-22 9-12 11-28M572 39q16 16 16 79t-16 79q-16 14-39 14-24 0-40-14-10-10-12.5-25t-2.5-54q0-39 2.5-54T493 39q16-14 40-14 23 0 39 14m13 284q0 51-16 67-12 12-36 12t-36-12q-16-16-16-67 0-52 16-68 12-12 36-12t36 12q16 16 16 68z" horiz-adv-x="664" vert-adv-y="1000"/><glyph glyph-name="uni215F" unicode="⅟" d="M157 285h-32v389l-66-47v37l67 48h31V285m316 427L225 0h-34l248 712h34z" horiz-adv-x="403" vert-adv-y="1000"/><glyph glyph-name="uni2189" unicode="↉" d="M222 363q0-39-25-62-24-21-66-21-43 0-66 21-25 22-25 62v271q0 42 25 62 23 21 66 21 41 0 67-21 24-22 24-62V363m-32-2v275q0 24-16 37.5T131 687q-27 0-43-13.5T72 636V361q0-24 16-37.5t43-13.5q27 0 43 13.5t16 37.5m284 351L226 0h-34l248 712h34m161-600q0-63-28-91-24-26-71-26t-74 27q-23 25-23 87v10h33v-10q0-51 18-68 18-16 46-16 30 0 46 16 21 21 21 71 0 51-18 72t-49 21h-30v30h30q25 0 44 17 21 19 21 71 0 46-21 64-15 15-44 15-30 0-47-17t-17-62v-10h-33v10q0 58 24 82 27 27 73 27 45 0 71-26 26-27 26-83 0-50-20-74-18-21-41-29 27-6 45-32 18-24 18-76z" horiz-adv-x="665" vert-adv-y="1000"/><glyph glyph-name="uni2190" unicode="←" d="M541 243H102L318 27h-53L30 262l235 233h53L102 281h439v-38z" horiz-adv-x="600" vert-adv-y="1000"/><glyph glyph-name="uni2191" unicode="↑" d="M534 239L319 455V16h-38v439L66 239v53l234 235 234-235v-53z" horiz-adv-x="600" vert-adv-y="1000"/><glyph glyph-name="uni2192" unicode="→" d="M570 262L335 27h-53l216 216H59v38h439L282 495h53l235-233z" horiz-adv-x="600" vert-adv-y="1000"/><glyph glyph-name="uni2193" unicode="↓" d="M534 231L300-4 66 231v53L281 68v439h38V68l215 216v-53z" horiz-adv-x="600" vert-adv-y="1000"/><glyph glyph-name="uni2196" unicode="↖" d="M488 414l-305 1 311-311-27-27-311 311 1-305-38 37v331h332l37-37z" horiz-adv-x="600" vert-adv-y="1000"/><glyph glyph-name="uni2197" unicode="↗" d="M443 83l1 305L133 77l-27 27 311 311-305-1 37 38h331V120l-37-37z" horiz-adv-x="600" vert-adv-y="1000"/><glyph glyph-name="uni2198" unicode="↘" d="M480 402V71H149l-38 38 305-1-310 311 26 26 311-310-1 305 38-38z" horiz-adv-x="600" vert-adv-y="1000"/><glyph glyph-name="uni2199" unicode="↙" d="M451 71H120v331l38 38-1-305 311 310 26-26-310-311 305 1-38-38z" horiz-adv-x="600" vert-adv-y="1000"/><glyph glyph-name="uni2202" unicode="∂" d="M284 251q0-102-8.5-151.5T244 26Q212-8 166-8T88 26Q65 50 56.5 99.5T48 251q0 101 8 151t30 74q31 34 76 34 34 0 58-17 19-13 26-30v130q0 44-21 68-21 23-56 23-45 0-73-36l-29 24q39 46 102 46 54 0 82-28 33-33 33-99V251m-43.5-139l2.75 21Q246 154 246 251t-5.5 139q-5.5 42-23.5 63-21 23-51 23t-51-23q-18-21-23.5-63T86 251q0-97 5.5-139T115 49q21-23 51-23t51 23q18 21 23.5 63z" horiz-adv-x="345" vert-adv-y="1000"/><glyph glyph-name="uni2206" unicode="∆" d="M343 0H4l153 712h36L343 0m-51 36L173 630 55 36h237z" horiz-adv-x="347" vert-adv-y="1000"/><glyph glyph-name="uni220F" unicode="∏" d="M342-230h-40v954H112v-954H72v990h270v-990z" horiz-adv-x="414" vert-adv-y="1000"/><glyph glyph-name="uni2211" unicode="∑" d="M282-230H30v32l142 478L45 728v32h237v-36H91l116-425v-40L76-194h206v-36z" horiz-adv-x="338" vert-adv-y="1000"/><glyph glyph-name="uni2212" unicode="−" d="M372 255H50v36h322v-36z" horiz-adv-x="422" vert-adv-y="1000"/><glyph glyph-name="uni2219" unicode="∙" d="M326 388l24-24q24-24 24-91t-48-115q-48-48-115-48T96 158q-48 48-48 115t48 115q48 48 115 48t115-48z" horiz-adv-x="422" vert-adv-y="1000"/><glyph glyph-name="uni221A" unicode="√" d="M392 677h-76L160 0h-41L4 482h42l93-423 145 653h108v-35z" horiz-adv-x="422" vert-adv-y="1000"/><glyph glyph-name="uni221E" unicode="∞" d="M514.5 351.5l15.75-16.25Q546 319 546 270t-31-80.5Q484 158 435 158q-39 0-69 18.5T300 240q-36-45-66-64t-68-19q-49 0-80.5 32T54 270q0 49 31.5 81.5T166 384q37 0 68-19.5t66-63.5q36 45 66 64t69 19q48 0 79.5-32.5M277 270q-25 30-38 43.5t-32 25Q188 350 169 350q-34 0-56.5-22.5T90 270q0-34 22-55.5t57-21.5q28 0 50.5 17.5T277 270m211-55.5l11 10.75Q510 236 510 270t-22 56q-22 22-57 22-28 0-50.5-18T323 270q35-42 57.5-59.5T431 193q35 0 57 21.5z" horiz-adv-x="600" vert-adv-y="1000"/><glyph glyph-name="uni222B" unicode="∫" d="M242 678h-10q-34 0-55.5-23.5T155 587V-84q0-62-33-95-32-32-82-32H30v34h10q34 0 55.5 23.5T117-86v671q0 62 33 95 32 32 82 32h10v-34z" horiz-adv-x="272" vert-adv-y="1000"/><glyph glyph-name="uni2248" unicode="≈" d="M367 338q-30-30-48-39.5t-41-9.5q-23 0-78 24-41 18-58 18t-29.5-6.5Q100 318 78 296l-23 23q30 30 48 39.5t41 9.5q22 0 78-24 44-18 58-18 17 0 29.5 6.5T344 361l23-23m0-131q-30-30-48-39.5t-41-9.5q-23 0-78 24-41 18-58 18t-29.5-6.5Q100 187 78 165l-23 23q30 30 48 39.5t41 9.5q22 0 78-24 44-18 58-18 17 0 29.5 6.5T344 230l23-23z" horiz-adv-x="422" vert-adv-y="1000"/><glyph glyph-name="uni2260" unicode="≠" d="M372 190H164l-74-88-26 22 55 66H50v36h99l79 94H50v36h208l74 88 26-22-55-66h69v-36h-99l-79-94h178v-36z" horiz-adv-x="422" vert-adv-y="1000"/><glyph glyph-name="uni2264" unicode="≤" d="M312 146L34 307v40l278 161v-44L74 327l238-137v-44m0-146L34 161v44L312 44V0z" horiz-adv-x="346" vert-adv-y="1000"/><glyph glyph-name="uni2265" unicode="≥" d="M312 307L34 146v44l238 137L34 464v44l278-161v-40m0-146L34 0v44l278 161v-44z" horiz-adv-x="346" vert-adv-y="1000"/><glyph glyph-name="uni22C5" unicode="⋅" d="M266 218H156v110h110V218z" horiz-adv-x="422" vert-adv-y="1000"/><glyph glyph-name="uni25CA" unicode="◊" d="M446 334L251 56 56 334l195 278 195-278m-43 0L251 552 99 334l152-220 152 220z" horiz-adv-x="502" vert-adv-y="1000"/><glyph glyph-name="uniFB01" unicode="ﬁ" d="M210 471h-92V0H80v471H15v31h65v83q0 62 33 95 32 32 97 32v-34q-92 0-92-91v-85h92v-31M310 0h-38v502h38V0m9 637h-56v56h56v-56z" horiz-adv-x="376" vert-adv-y="1000"/><glyph glyph-name="uniFB02" unicode="ﬂ" d="M210 471h-92V0H80v471H15v31h65v83q0 62 33 95 32 32 97 32v-34q-92 0-92-91v-85h92v-31M397 0q-60 0-92 32-33 33-33 95v585h38V125q0-91 87-91V0z" horiz-adv-x="412" vert-adv-y="1000"/></font>
</defs>
</svg>
