<svg><defs><font id="DINPro-CondensedRegular" horiz-adv-x="986" vert-adv-y="986"><font-face font-family="DIN Pro Cond" font-weight="400" ascent="933" descent="-209"/><glyph glyph-name="uni21" unicode="!" d="M156 187h-56v525h56V187m9-187H90v75h75V0z" horiz-adv-x="227" vert-adv-y="1000"/><glyph glyph-name="uni22" unicode="&quot;" d="M127 529H62v183h65V529m163 0h-64v183h64V529z" horiz-adv-x="352" vert-adv-y="1000"/><glyph glyph-name="uni23" unicode="#" d="M444 444h-79l-20-163h73v-51h-81L308 0h-54l29 230H181L152 0H98l29 230H55v51h79l21 163H82v50h80l28 218h54l-28-218h102l28 218h54l-28-218h72v-50m-133 0H209l-21-163h102l21 163z" horiz-adv-x="500" vert-adv-y="1000"/><glyph glyph-name="uni24" unicode="$" d="M351 186q0-110-44-154-30-30-81-36v-110h-53V-5q-57 5-89 37-24 25-33 56t-9 90h59q0-78 28-106 18-18 44-22v298l-32 13q-55 22-74.5 59.5T47 539q0 95 49 141 32 30 77 36v90h53v-90q50-6 81-37 25-25 34-56.5t9-81.5h-59q0 67-27 98-16 17-38 23V389l33-13q55-22 73.5-64.5T351 186m-59-2q0 65-13.5 94.5T226 326V51q25 6 38 21 28 30 28 112M173 411v251q-22-6-36-20-31-31-31-102 0-60 13-85.5t54-43.5z" horiz-adv-x="404" vert-adv-y="1000"/><glyph glyph-name="uni25" unicode="%" d="M252 446q0-45-28-72.5T153 346q-43 0-70.5 27.5T55 446v175q0 45 27.5 72t70.5 27q43 0 71-27t28-72V446M562 92q0-45-27.5-72.5T464-8q-43 0-70.5 27.5T366 92v174q0 45 27.5 72.5T464 366q43 0 70.5-27.5T562 266V92M456 712L208 0h-47l248 712h47m58-620v174q0 27-13 42t-37 15q-24 0-37-15t-13-42V92q0-27 13-42t37-15q24 0 37 15t13 42M203 446v174q0 27-13 42t-37 15q-49 0-49-57V446q0-57 49-57 24 0 37 15t13 42z" horiz-adv-x="617" vert-adv-y="1000"/><glyph glyph-name="uni26" unicode="&amp;" d="M481 0h-64l-55 84q-37-46-74-69T196-8Q128-8 83 38.5T38 164q0 63 29 113t95 111q-55 78-72.5 112.5T72 575q0 60 35 101.5t98 41.5q64 0 99-37t35-97q0-60-24-102.5T230 381l132-199q40 65 47 168h54q-10-129-69-218L481 0M332 130L191 344q-51-50-74-90.5T94 169q0-53 29-89t79-36q63 0 130 86m-47 452q0 37-22 61t-57 24q-39 0-59-27t-20-63q0-30 14.5-59.5T201 425q45 44 64.5 76.5T285 582z" horiz-adv-x="486" vert-adv-y="1000"/><glyph glyph-name="uni27" unicode="'" d="M127 529H62v183h65V529z" horiz-adv-x="189" vert-adv-y="1000"/><glyph glyph-name="uni28" unicode="(" d="M181-56l-38-38Q94-45 78-14 58 24 58 83v546q0 59 20 97 16 31 65 80l38-38q-42-42-52-63-15-29-15-82V89q0-53 15-82 10-21 52-63z" horiz-adv-x="222" vert-adv-y="1000"/><glyph glyph-name="uni29" unicode=")" d="M164 83q0-59-20-97-15-29-66-80L40-56Q84-12 93 7q15 29 15 82v534q0 53-15 82-9 19-53 63l38 38q51-51 66-80 20-38 20-97V83z" horiz-adv-x="222" vert-adv-y="1000"/><glyph glyph-name="uni2a" unicode="*" d="M318 505l-22-40-91 55 2-127h-45l3 127-92-55-22 40 93 50-93 50 22 40 92-55-3 127h45l-2-127 91 55 22-40-93-50 93-50z" horiz-adv-x="369" vert-adv-y="1000"/><glyph glyph-name="uni2b" unicode="+" d="M383 251H242V110h-53v141H49v53h140v140h53V304h141v-53z" horiz-adv-x="431" vert-adv-y="1000"/><glyph glyph-name="uni2c" unicode="," d="M127-48L58-99V77h69V-48z" horiz-adv-x="184" vert-adv-y="1000"/><glyph glyph-name="uni2d" unicode="-" d="M246 251H55v53h191v-53z" horiz-adv-x="301" vert-adv-y="1000"/><glyph glyph-name="uni2e" unicode="." d="M137 0H62v75h75V0z" horiz-adv-x="199" vert-adv-y="1000"/><glyph glyph-name="uni2f" unicode="/" d="M244 786L59-74H2l185 860h57z" horiz-adv-x="246" vert-adv-y="1000"/><glyph glyph-name="uni30" unicode="0" d="M307 128q0-65-36-101-35-35-91-35-55 0-90 35-36 36-36 101v456q0 65 36 101 35 35 90 35 56 0 91-35 36-36 36-101V128m-56-3v462q0 40-20 61.5T180 670q-31 0-50.5-21.5T110 587V125q0-40 19.5-61.5T180 42q31 0 51 21.5t20 61.5z" horiz-adv-x="361" vert-adv-y="1000"/><glyph glyph-name="uni31" unicode="1" d="M221 0h-56v646L63 558v67l102 87h56V0z" horiz-adv-x="361" vert-adv-y="1000"/><glyph glyph-name="uni32" unicode="2" d="M311 0H51v47l170 390q34 78 34 150 0 40-19.5 61.5T185 670q-31 0-51-21.5T114 587v-51H58v50q0 63 36 99 35 35 91 35 55 0 89-34 37-37 37-102 0-69-41-165L111 50h200V0z" horiz-adv-x="361" vert-adv-y="1000"/><glyph glyph-name="uni33" unicode="3" d="M307 196q0-75-8-109.5T267 27Q232-8 176-8T86 26Q49 63 49 127v49h56v-50q0-40 20-62t51-22q32 0 49 21 14 17 20 44t6 89q0 72-5 97.5T226 336q-20 21-50 21h-41v49h41q31 0 45 17 24 25 24 115 0 87-22 113-16 19-47 19-30 0-48-21.5T110 587v-51H54v49q0 68 35 101 34 34 87 34 55 0 88-33 20-20 28.5-52.5T301 540q0-88-20-121-13-24-40-38 26-14 40-34 16-23 21-51t5-100z" horiz-adv-x="361" vert-adv-y="1000"/><glyph glyph-name="uni34" unicode="4" d="M328 124h-50V0h-56v124H34v50l180 538h55L90 174h132v199h56V174h50v-50z" horiz-adv-x="361" vert-adv-y="1000"/><glyph glyph-name="uni35" unicode="5" d="M311 224q0-85-8-125t-32-67Q237-8 180-8T90 25Q52 63 52 127v47h56v-45q0-43 20-65t53-22q31 0 49 25 14 19 19.5 50.5T255 224q0 73-5.5 105.5T230 382q-17 26-50 26-31 0-51.5-23T108 325v-33H56v420h245v-50H107V410q11 19 33 33 24 14 54 14 50 0 81-39 21-25 28.5-64.5T311 224z" horiz-adv-x="361" vert-adv-y="1000"/><glyph glyph-name="uni36" unicode="6" d="M310 210q0-81-7-116.5T274 31Q242-8 180-8T87 31Q65 58 57.5 94T50 210q0 113 29 191l115 311h56L136 406q26 21 58 21 50 0 81-36 21-23 28-57.5t7-123.5m-56 1q0 67-5 99t-19 48q-18 21-50 21t-50-21q-14-16-19-48t-5-99q0-120 24-148 18-21 50-21t50 21q24 28 24 148z" horiz-adv-x="361" vert-adv-y="1000"/><glyph glyph-name="uni37" unicode="7" d="M314 667L124 0H65l191 662H102V546H47v166h267v-45z" horiz-adv-x="361" vert-adv-y="1000"/><glyph glyph-name="uni38" unicode="8" d="M310 196q0-75-7.5-109.5T271 27Q236-8 180-8q-55 0-90 35-24 25-32 60t-8 109q0 70 5.5 98.5T76 345q13 21 40 35-25 13-40 38-21 38-21 121 0 62 8.5 94.5T93 687q35 33 87 33 54 0 87-33 21-21 29.5-53.5T305 539q0-85-20-121-14-23-40-38 27-14 40-35 15-22 20-50t5-99m-56 1q0 69-5 95t-20 43q-18 21-49 21t-49-21q-15-17-20-43t-5-95q0-62 5.5-89.5T131 63q18-21 49-21t49 21q14 17 19.5 44.5T254 197m-5 340q0 91-23 115-18 18-46 18-27 0-45-18-24-25-24-115 0-89 25-115 16-17 44-17 29 0 45 17 24 25 24 115z" horiz-adv-x="361" vert-adv-y="1000"/><glyph glyph-name="uni39" unicode="9" d="M310 502q0-113-29-191L167 0h-57l115 306q-26-21-58-21-50 0-81 36-21 23-28.5 58T50 502q0 81 7.5 117T87 681q33 39 94 39 60 0 93-39 22-27 29-62.5t7-116.5m-61-100.5l2.5 15.75Q254 433 254 501t-5 100q-5 32-19 48-20 21-50 21t-50-21q-14-16-19-48t-5-100q0-68 5-99.5t19-47.5q20-21 50-21t50 21q14 16 19 47.5z" horiz-adv-x="361" vert-adv-y="1000"/><glyph glyph-name="uni3a" unicode=":" d="M165 339H90v76h75v-76m0-339H90v75h75V0z" horiz-adv-x="227" vert-adv-y="1000"/><glyph glyph-name="uni3b" unicode=";" d="M162-48L93-99V77h69V-48m3 387H90v76h75v-76z" horiz-adv-x="227" vert-adv-y="1000"/><glyph glyph-name="uni3c" unicode="&lt;" d="M327 90L34 259v49l293 170v-63L98 284l229-131V90z" horiz-adv-x="361" vert-adv-y="1000"/><glyph glyph-name="uni3d" unicode="=" d="M383 314H49v53h334v-53m0-143H49v53h334v-53z" horiz-adv-x="431" vert-adv-y="1000"/><glyph glyph-name="uni3e" unicode="&gt;" d="M327 259L34 90v63l229 131L34 415v63l293-170v-49z" horiz-adv-x="361" vert-adv-y="1000"/><glyph glyph-name="uni3f" unicode="?" d="M332 547q0-69-29-115l-58-93q-22-34-22-74v-78h-56v85q0 42 25 82l58 93q26 41 26 101 0 68-28 98-20 22-55 22-33 0-54-21-26-26-26-86H57q0 82 39 120 37 37 97 37 62 0 98-37 22-22 31.5-51.5T332 547M233 0h-75v75h75V0z" horiz-adv-x="375" vert-adv-y="1000"/><glyph glyph-name="uni40" unicode="@" d="M454 0h-55v41q-11-19-28-31-26-18-59-18-48 0-80 34-31 33-31 101v223q0 67 31 100 32 34 80 34 34 0 60-16 17-10 26-29v128q0 47-24 72t-66 25H201q-41 0-65.5-25T111 567V101q0-47 27-72L99-9Q55 29 55 103v466q0 67 39 106 37 37 99 37h123q62 0 99-37 39-39 39-106V0m-56 125v226q0 40-19.5 61.5T328 434q-31 0-51-21.5T257 351V125q0-40 20-61.5T328 42q31 0 50.5 21.5T398 125z" horiz-adv-x="515" vert-adv-y="1000"/><glyph glyph-name="uni41" unicode="A" d="M374 0h-63l-39 195H106L68 0H4l159 712h55L374 0M261 248l-72 358-71-358h143z" horiz-adv-x="379" vert-adv-y="1000"/><glyph glyph-name="uni42" unicode="B" d="M363 196q0-64-10-97t-34-58Q279 0 196 0H69v712h128q82 0 120-41 23-24 31.5-55t8.5-87q0-87-43-131-22-22-45-28 30-8 50-28 44-44 44-146m-59 2q0 145-106 145h-70V53h70q54 0 80 31.5T304 198m-6 329q0 74-24.5 103T198 659h-70V395h70q100 0 100 132z" horiz-adv-x="416" vert-adv-y="1000"/><glyph glyph-name="uni43" unicode="C" d="M358 163q-2-93-50-137-37-34-98-34-67 0-106 42-32 34-41 92.5T54 356q0 171 9 229.5t41 92.5q39 42 106 42 64 0 102-38 44-44 46-133h-59q0 65-28 94-22 24-61 24-40 0-63-26-22-25-28-76.5T113 356q0-157 6-208.5T147 71q23-26 63-26 39 0 61 24 28 29 28 94h59z" horiz-adv-x="399" vert-adv-y="1000"/><glyph glyph-name="uni44" unicode="D" d="M362 580l4.5-28.5Q371 523 371 356t-9-224q-9-57-41-91Q282 0 215 0H69v712h146q67 0 106-41 32-34 41-91m-56-428.5l3 24.75Q312 201 312 356t-6 204.5q-6 49.5-29 73.5-22 25-65 25h-84V53h84q43 0 65 25 23 24 29 73.5z" horiz-adv-x="424" vert-adv-y="1000"/><glyph glyph-name="uni45" unicode="E" d="M317 0H69v712h248v-53H128V383h163v-53H128V53h189V0z" horiz-adv-x="364" vert-adv-y="1000"/><glyph glyph-name="uni46" unicode="F" d="M317 659H128V383h163v-53H128V0H69v712h248v-53z" horiz-adv-x="359" vert-adv-y="1000"/><glyph glyph-name="uni47" unicode="G" d="M358 152q0-77-42.5-118.5T210-8q-67 0-106 42-32 34-41 92.5T54 356q0 171 9 229.5t41 92.5q39 42 106 42 65 0 104-39 42-45 44-132h-59q0 118-89 118-40 0-63-26-22-25-28-76.5T113 356q0-157 6-208.5T147 71q23-26 63-26t64.5 28.5Q299 102 299 152v175h-89v50h148V152z" horiz-adv-x="412" vert-adv-y="1000"/><glyph glyph-name="uni48" unicode="H" d="M363 0h-59v336H128V0H69v712h59V389h176v323h59V0z" horiz-adv-x="432" vert-adv-y="1000"/><glyph glyph-name="uni49" unicode="I" d="M128 0H69v712h59V0z" horiz-adv-x="197" vert-adv-y="1000"/><glyph glyph-name="uni4a" unicode="J" d="M271 153q0-78-42-120Q188-8 121-8 50-8 8 42l43 39q26-36 70-36 40 0 65.5 28.5T212 153v559h59V153z" horiz-adv-x="332" vert-adv-y="1000"/><glyph glyph-name="uni4b" unicode="K" d="M399 0h-64L197 352l-69-136V0H69v712h59V325l189 387h63L234 418 399 0z" horiz-adv-x="409" vert-adv-y="1000"/><glyph glyph-name="uni4c" unicode="L" d="M317 0H69v712h59V53h189V0z" horiz-adv-x="339" vert-adv-y="1000"/><glyph glyph-name="uni4d" unicode="M" d="M488 0h-59v573L299 197h-43L128 561V0H69v712h59l150-419 151 419h59V0z" horiz-adv-x="557" vert-adv-y="1000"/><glyph glyph-name="uni4e" unicode="N" d="M385 0h-58L128 555V0H69v712h59l198-555v555h59V0z" horiz-adv-x="454" vert-adv-y="1000"/><glyph glyph-name="uni4f" unicode="O" d="M358 585.5l4.5-29.25Q367 527 367 356t-9-229.5Q349 68 317 34 278-8 210-8q-67 0-106 42-32 34-41 92.5T54 356q0 171 9 229.5t41 92.5q39 42 106 42 68 0 107-42 32-34 41-92.5m-56-438l3 25.75Q308 199 308 356t-6 208.5q-6 51.5-28 76.5-23 26-64 26-40 0-63-26-22-25-28-76.5T113 356q0-157 6-208.5T147 71q23-26 63-26 41 0 64 26 22 25 28 76.5z" horiz-adv-x="421" vert-adv-y="1000"/><glyph glyph-name="uni50" unicode="P" d="M322.5 670l20.25-21Q363 628 363 513t-40.5-156.5Q282 315 209 315h-81V0H69v712h140q73 0 113.5-42M279 398.5l12.5 15.25Q304 429 304 513t-25 115q-25 31-73 31h-78V368h78q48 0 73 30.5z" horiz-adv-x="410" vert-adv-y="1000"/><glyph glyph-name="uni51" unicode="Q" d="M390 10l-30-35-56 46Q265-8 210-8q-67 0-106 42-32 34-41 92.5T54 356q0 171 9 229.5t41 92.5q39 42 106 42 68 0 107-42 32-34 41-92.5t9-229.5q0-151-6-209.5T335 57l55-47m-82 346q0 159-6 209.5T274 642q-22 25-64 25-41 0-63-25-22-26-28-76.5T113 356q0-159 6-209.5T147 70q22-25 63-25 31 0 50 13l-56 48 30 35 54-45q13 25 16.5 75t3.5 185z" horiz-adv-x="421" vert-adv-y="1000"/><glyph glyph-name="uni52" unicode="R" d="M386 0h-63L220 319h-92V0H69v712h140q74 0 114-41t40-156q0-152-88-185L386 0M283.5 407l10.25 17.5Q304 442 304 515t-20.5 108.5Q263 659 211 659h-83V372h83q52 0 72.5 35z" horiz-adv-x="432" vert-adv-y="1000"/><glyph glyph-name="uni53" unicode="S" d="M350 186q0-110-44-154Q268-6 195-6 121-6 83 32 59 57 50 88t-9 90h59q0-79 28-107 24-24 67-24 46 0 68 24 28 30 28 113 0 68-15 98t-60 48l-76 31q-55 22-74.5 59.5T46 539q0 95 49 141 40 38 104 38 68 0 107-39 25-25 34-56.5t9-81.5h-59q0 67-27 98-23 26-65 26-39 0-62-23-31-31-31-102 0-62 14.5-87.5T182 407l76-31q55-22 73.5-64.5T350 186z" horiz-adv-x="396" vert-adv-y="1000"/><glyph glyph-name="uni54" unicode="T" d="M319 659H200V0h-59v659H22v53h297v-53z" horiz-adv-x="341" vert-adv-y="1000"/><glyph glyph-name="uni55" unicode="U" d="M356 148q0-73-42-115Q271-8 209-8T104 33Q61 76 61 148v564h59V143q0-45 25.5-71.5T209 45q38 0 63 26.5t25 71.5v569h59V148z" horiz-adv-x="417" vert-adv-y="1000"/><glyph glyph-name="uni56" unicode="V" d="M366 712L214 0h-58L4 712h65l116-606 116 606h65z" horiz-adv-x="370" vert-adv-y="1000"/><glyph glyph-name="uni57" unicode="W" d="M583 712L475 0h-62L294 607 176 0h-62L4 712h65l76-606 115 606h67l117-606 75 606h64z" horiz-adv-x="587" vert-adv-y="1000"/><glyph glyph-name="uni58" unicode="X" d="M353 0h-64L186 308 84 0H19l132 371L30 712h65l91-282 92 282h64L218 371 353 0z" horiz-adv-x="372" vert-adv-y="1000"/><glyph glyph-name="uni59" unicode="Y" d="M312 712L187 298V0h-59v298L3 712h65l89-326 90 326h65z" horiz-adv-x="315" vert-adv-y="1000"/><glyph glyph-name="uni5a" unicode="Z" d="M294 0H30v46l203 613H44v53h250v-46L92 53h202V0z" horiz-adv-x="324" vert-adv-y="1000"/><glyph glyph-name="uni5b" unicode="[" d="M206-74H62v860h144v-48h-88V-26h88v-48z" horiz-adv-x="236" vert-adv-y="1000"/><glyph glyph-name="uni5c" unicode="\" d="M244-74h-57L2 786h57L244-74z" horiz-adv-x="246" vert-adv-y="1000"/><glyph glyph-name="uni5d" unicode="]" d="M174-74H30v48h88v764H30v48h144V-74z" horiz-adv-x="236" vert-adv-y="1000"/><glyph glyph-name="uni5e" unicode="^" d="M378 439h-57l-97 221-97-221H69l129 279h52l128-279z" horiz-adv-x="448" vert-adv-y="1000"/><glyph glyph-name="uni5f" unicode="_" d="M431-134H0v44h431v-44z" horiz-adv-x="431" vert-adv-y="1000"/><glyph glyph-name="uni60" unicode="`" d="M204 586h-49L81 716h58l65-130z" horiz-adv-x="354" vert-adv-y="1000"/><glyph glyph-name="uni61" unicode="a" d="M294 0h-54v46q-10-20-28-34-27-20-61-20-48 0-81 34-33 35-33 115 0 76 43 115 37 34 100 34h58v91q0 87-70 87-27 0-46-19-23-24-23-71H43q0 68 37 105 34 34 88 34 61 0 91-32 35-37 35-106V0m-56 134v112h-56q-39 0-62-22-27-27-27-82 0-100 71-100 33 0 53.5 26t20.5 66z" horiz-adv-x="352" vert-adv-y="1000"/><glyph glyph-name="uni62" unicode="b" d="M313.5 405.5l3.75-24.75Q321 356 321 254t-7.5-151Q306 54 283 28 251-8 203-8q-34 0-57 17-20 14-29 31V0H62v712h56V470q12 19 28 30 23 17 57 17 48 0 80-36 23-26 30.5-75.5m-53.5-283l2.5 19.75Q265 162 265 254t-5 131.5q-5 39.5-21 58.5-19 23-49 23-29 0-48-19-24-22-24-70V131q0-47 24-70 19-19 48-19 30 0 49 22 16 19 21 58.5z" horiz-adv-x="365" vert-adv-y="1000"/><glyph glyph-name="uni63" unicode="c" d="M303 134q-2-75-36-109-33-33-90-33-60 0-94 40-22 26-30 76.5T45 254q0 95 8 145.5T83 476q33 41 94 41 58 0 90-32 34-33 36-111h-55q0 51-20 72-18 21-50 21-34 0-52-23-16-20-20.5-61T101 254q0-88 4.5-128.5T126 65q18-23 52-23 29 0 49 20 21 22 21 72h55z" horiz-adv-x="340" vert-adv-y="1000"/><glyph glyph-name="uni64" unicode="d" d="M303 0h-55v41q-8-18-28-31-26-18-58-18-48 0-79 36-22 25-30 75.5T45 254q0 100 8 150t30 77q29 36 79 36 36 0 58-16 16-12 27-30v241h56V0m-56 131v247q0 47-23 70-21 19-49 19-29 0-48-23-16-19-21-58.5T101 254q0-92 5-131.5T127 64q19-22 48-22 28 0 49 19 23 23 23 70z" horiz-adv-x="365" vert-adv-y="1000"/><glyph glyph-name="uni65" unicode="e" d="M309 246H101q0-85 5-124t21-57q19-23 51-23 33 0 52 20 22 23 22 72h55q0-69-37-107-34-35-92-35-57 0-92 37-24 26-32.5 77.5T45 254q0 98 8.5 149T86 480q34 37 91 37t91-37q24-27 32.5-79t8.5-155m-56 45q-1 125-26 153-19 23-50 23-32 0-51-23-24-27-25-153h152z" horiz-adv-x="349" vert-adv-y="1000"/><glyph glyph-name="uni66" unicode="f" d="M221 465h-87V0H78v465H16v44h62v69q0 68 38 103 37 33 105 33v-51q-87 0-87-85v-69h87v-44z" horiz-adv-x="237" vert-adv-y="1000"/><glyph glyph-name="uni67" unicode="g" d="M303 509V-15q0-64-8-96.5T265-168q-35-37-91-37-58 0-92 34-35 36-35 107h55q0-51 22-73 18-19 49-19t50 22q24 25 24 118v65q-9-16-27-29-25-17-57-17-48 0-79 35-23 26-31 74.5T45 260q0 100 8 148t31 73q32 36 79 36 33 0 58-17 17-12 27-30v39h55m-56-368v237q0 47-23 70-21 19-49 19-29 0-48-23-16-19-21-57t-5-128q0-90 5-128t21-57q19-22 48-22 32 0 49 18 23 26 23 71z" horiz-adv-x="365" vert-adv-y="1000"/><glyph glyph-name="uni68" unicode="h" d="M315 0h-56v383q0 40-19.5 61.5T189 466q-31 0-51-21.5T118 383V0H62v712h56V469q6 14 28 30 26 18 58 18 47 0 80-35 31-33 31-100V0z" horiz-adv-x="373" vert-adv-y="1000"/><glyph glyph-name="uni69" unicode="i" d="M118 0H62v509h56V0m8 626H54v72h72v-72z" horiz-adv-x="181" vert-adv-y="1000"/><glyph glyph-name="uni6a" unicode="j" d="M118-68q0-68-38-103-34-32-101-32v50q83 0 83 86v576h56V-68m8 694H54v72h72v-72z" horiz-adv-x="181" vert-adv-y="1000"/><glyph glyph-name="uni6b" unicode="k" d="M357 0h-62L185 265l-67-106V0H62v712h56V242l161 267h61L220 314 357 0z" horiz-adv-x="373" vert-adv-y="1000"/><glyph glyph-name="uni6c" unicode="l" d="M196 0Q129 0 95 32 57 67 57 136v576h56V136q0-86 83-86V0z" horiz-adv-x="212" vert-adv-y="1000"/><glyph glyph-name="uni6d" unicode="m" d="M512 0h-56v383q0 40-19.5 61.5T386 466q-31 0-51-21.5T315 383V0h-56v383q0 40-19.5 61.5T189 466q-31 0-51-21.5T118 383V0H62v509h55v-41q10 18 29 31 26 18 58 18 28 0 54-15t41-39q17 25 35 36 28 18 61 18 53 0 86-35 31-33 31-100V0z" horiz-adv-x="570" vert-adv-y="1000"/><glyph glyph-name="uni6e" unicode="n" d="M315 0h-56v383q0 40-19.5 61.5T189 466q-31 0-51-21.5T118 383V0H62v509h55v-41q10 18 29 31 26 18 58 18 47 0 80-35 31-33 31-100V0z" horiz-adv-x="373" vert-adv-y="1000"/><glyph glyph-name="uni6f" unicode="o" d="M301 399l4-25q4-25 4-120t-8-145q-8-50-30-77-33-40-94-40T83 32q-22 27-30 77t-8 145q0 95 8 145t30 77q33 41 94 41t94-41q22-27 30-77m-53-274l2.5 20q2.5 20 2.5 109t-5 129.5q-5 40.5-21 60.5-19 23-50 23-32 0-51-23-16-20-20.5-60T101 254q0-90 4.5-129.5T126 65q19-23 51-23 31 0 50 23 16 20 21 60z" horiz-adv-x="353" vert-adv-y="1000"/><glyph glyph-name="uni70" unicode="p" d="M313 404.5l4-25.25Q321 354 321 254t-8-150q-8-50-30-76-32-36-79-36-35 0-58 16-15 10-28 30v-241H62v712h55v-41q8 17 29 31 26 18 58 18 47 0 79-36 22-26 30-76.5m-53-282l2.5 19.75Q265 162 265 254t-5 131.5q-5 39.5-21 58.5-19 23-49 23-29 0-48-19-24-22-24-70V131q0-47 24-70 19-19 48-19 30 0 49 22 16 19 21 58.5z" horiz-adv-x="366" vert-adv-y="1000"/><glyph glyph-name="uni71" unicode="q" d="M303-203h-56V38q-13-21-27-30-25-16-58-16-46 0-79 36-23 26-30.5 75.5T45 254q0 101 7.5 151T83 481q31 36 79 36 32 0 58-18 20-13 28-31v41h55v-712m-56 334v247q0 47-23 70-21 19-49 19-29 0-48-23-16-19-21-58.5T101 254q0-92 5-131.5T127 64q19-22 48-22 28 0 49 19 23 23 23 70z" horiz-adv-x="365" vert-adv-y="1000"/><glyph glyph-name="uni72" unicode="r" d="M229 464h-12q-45 0-72-26.5T118 365V0H62v509h55v-54q8 17 25 32 33 30 87 30v-53z" horiz-adv-x="245" vert-adv-y="1000"/><glyph glyph-name="uni73" unicode="s" d="M303 130q0-59-40-99-39-39-97-39-57 0-93 36-40 41-40 110h56q0-49 26-75 21-21 51-21 35 0 58 23t23 63q0 33-14 55-16 25-51 44l-64 35q-46 26-66 60-14 27-14 64 0 56 40 96 35 35 91 35 57 0 91-34 37-37 37-110h-56q0 51-22 74-19 20-50 20-34 0-53-19-22-21-22-60 0-27 10-44 9-16 47-38l63-36q49-27 69-60t20-80z" horiz-adv-x="336" vert-adv-y="1000"/><glyph glyph-name="uni74" unicode="t" d="M225 0q-75 0-109 32-38 35-38 104v329H16v44h62v149h56V509h87v-44h-87V136q0-86 91-86V0z" horiz-adv-x="245" vert-adv-y="1000"/><glyph glyph-name="uni75" unicode="u" d="M311 0h-55v41q-10-18-29-31-26-18-58-18-48 0-80 34-31 33-31 101v382h56V126q0-40 19.5-61.5T184 43q31 0 51 21.5t20 61.5v383h56V0z" horiz-adv-x="373" vert-adv-y="1000"/><glyph glyph-name="uni76" unicode="v" d="M301 509L182 0h-59L4 509h62l87-421 87 421h61z" horiz-adv-x="305" vert-adv-y="1000"/><glyph glyph-name="uni77" unicode="w" d="M470 509L371 0h-60l-77 416L161 0h-60L4 509h65l63-421 74 421h56l78-421 65 421h65z" horiz-adv-x="474" vert-adv-y="1000"/><glyph glyph-name="uni78" unicode="x" d="M304 0h-62l-81 210L79 0H17l112 259L23 509h62l76-202 75 202h62L190 259 304 0z" horiz-adv-x="321" vert-adv-y="1000"/><glyph glyph-name="uni79" unicode="y" d="M301 509L157-99q-14-57-50.5-80.5T9-203v50q76 0 93 65l23 90L4 509h62l87-420 87 420h61z" horiz-adv-x="308" vert-adv-y="1000"/><glyph glyph-name="uni7a" unicode="z" d="M255 0H22v44l172 415H32v50h223v-44L83 50h172V0z" horiz-adv-x="276" vert-adv-y="1000"/><glyph glyph-name="uni7b" unicode="{" d="M258-74h-24q-52 0-85 33-34 34-34 97v194q0 39-19 60t-49 21H30v50h17q30 0 49 21t19 60v194q0 63 34 97 33 33 85 33h24v-50h-18q-30 0-49.5-21.5T171 655V464q0-61-30-91-10-10-27-17 14-4 27-17 30-32 30-91V57q0-38 19.5-59.5T240-24h18v-50z" horiz-adv-x="287" vert-adv-y="1000"/><glyph glyph-name="uni7c" unicode="|" d="M153-74H97v860h56V-74z" horiz-adv-x="251" vert-adv-y="1000"/><glyph glyph-name="uni7d" unicode="}" d="M258 331h-18q-30 0-49-21t-19-60V56q0-63-34-97-33-33-85-33H30v50h17q30 0 49.5 21.5T116 57v191q0 60 31 91 11 11 26 17-15 5-26 17-31 31-31 91v191q0 38-19.5 59.5T47 736H30v50h23q52 0 85-33 34-34 34-97V462q0-39 19-60t49-21h18v-50z" horiz-adv-x="287" vert-adv-y="1000"/><glyph glyph-name="uni7e" unicode="~" d="M385 283q-31-31-52-42t-47-11q-26 0-81 24-41 19-60 19-17 0-30-7t-34-28l-34 34q32 32 52 43t46 11q23 0 81-25 38-18 60-18 18 0 31 6.5t34 27.5l34-34z" horiz-adv-x="431" vert-adv-y="1000"/><glyph glyph-name="unia1" unicode="¡" d="M127-203H71v525h56v-525m10 637H62v75h75v-75z" horiz-adv-x="227" vert-adv-y="1000"/><glyph glyph-name="unia2" unicode="¢" d="M304 242q-2-71-35-104-26-25-68-31V0h-45v108q-44 6-72 37-22 25-30 73t-8 139q0 91 8 139t30 73q28 31 72 37v106h45V607q41-5 67-29 34-33 36-106h-55q0 48-19 68-11 12-29 17V157q16 5 27 16 21 21 21 69h55m-148-84v398q-17-6-28-18-16-19-21-57.5T102 357q0-85 5-123.5t21-57.5q11-12 28-18z" horiz-adv-x="342" vert-adv-y="1000"/><glyph glyph-name="unia3" unicode="£" d="M362 0H99v351H35v44h64v167q0 74 43.5 116T249 720q71 0 113-50l-42-38q-25 35-71 35-39 0-65-28t-26-74V395h91v-44h-91V53h204V0z" horiz-adv-x="393" vert-adv-y="1000"/><glyph glyph-name="unia4" unicode="¤" d="M432 113l-35-35-57 57q-45-34-101-34t-101 34L82 78l-36 35 57 57q-34 45-34 101 0 57 34 101l-57 56 36 35 56-56q44 33 101 33t101-33l57 56 35-35-57-56q34-44 34-101 0-56-34-101l57-57m-109 74l17.5 17.5Q358 222 358 271t-34.5 83.5Q289 389 239 389q-49 0-83.5-34.5T121 271q0-50 34.5-84.5T239 152q49 0 84 35z" horiz-adv-x="478" vert-adv-y="1000"/><glyph glyph-name="unia5" unicode="¥" d="M310 712l-92-309h51v-44h-64l-19-61v-40h83v-44h-83V0h-58v214H45v44h83v40l-17 61H45v44h52L5 712h63l89-326 90 326h63z" horiz-adv-x="315" vert-adv-y="1000"/><glyph glyph-name="unia6" unicode="¦" d="M153 437H97v348h56V437m0-510H97v348h56V-73z" horiz-adv-x="251" vert-adv-y="1000"/><glyph glyph-name="unia7" unicode="§" d="M330 271q0-68-8.5-100.5T290 116q-23-21-55-27 19-11 27.5-17t20-17Q294 44 302 31q19-32 19-77 0-60-36-97t-94-37q-54 0-90 36-37 36-37 97h56q0-37 23-63 17-20 48-20 34 0 53 21 20 20 20 61 0 36-13 55-14 22-49 41l-66 37q-24 13-37 26-25 25-32.5 58.5T59 271q0 67 9 100t32 55q21 21 54 27-50 28-69 61-16 29-16 71 0 57 38 93 34 34 90 34 52 0 86-31 37-36 39-100h-56q0 37-22 62-19 19-47 19-31 0-49-18-22-21-22-56 0-34 11-51 12-22 44-40l66-36q30-16 44-30 25-25 32-56t7-104m-56 0q0 59-5 84.5T248 397q-21 22-54 22-31 0-52-21-15-15-21-41t-6-86q0-57 6-84t21-42q21-21 52-21 33 0 54 21 15 17 20.5 43t5.5 83z" horiz-adv-x="389" vert-adv-y="1000"/><glyph glyph-name="unia8" unicode="¨" d="M278 606h-64v63h64v-63m-138 0H77v63h63v-63z" horiz-adv-x="354" vert-adv-y="1000"/><glyph glyph-name="unia9" unicode="©" d="M687 612l53-53q53-53 53-203T687 100Q581-6 431-6T175 100Q69 206 69 356t106 256q106 106 256 106t256-106m-32.5-483l46.25 47Q747 223 747 356t-92.5 227Q562 677 431 677t-224-94q-93-94-93-227t93-227q93-94 224-94t223.5 94M525 262q0-58-27-85-25-26-67-26t-69 30q-17 20-23 58t-6 117q0 79 6 117t23 58q27 30 69 30t67-26q27-28 27-86h-42q0 42-16 58-15 15-36 15-22 0-37-17-19-23-19-149 0-72 3.5-103.5T394 207q15-17 37-17 21 0 36 15 16 16 16 57h42z" horiz-adv-x="862" vert-adv-y="1000"/><glyph glyph-name="uniaa" unicode="ª" d="M246 320h-45v33q-7-12-23-25-21-14-50-14-39 0-67 28-28 30-28 87 0 55 39 89 28 25 80 25h46v66q0 29-14.5 47.5T142 675q-23 0-39-16-17-18-17-56H39q0 56 30 86 27 27 73 27t74-28q30-30 30-82V320m-48 111v75h-45q-31 0-48-15-24-24-24-61 0-75 58-75 26 0 42.5 21.5T198 431z" horiz-adv-x="297" vert-adv-y="1000"/><glyph glyph-name="uniab" unicode="«" d="M316 58L180 268l136 210v-96l-76-114 76-115V58m-152 0L29 268l135 210v-96L89 268l75-115V58z" horiz-adv-x="371" vert-adv-y="1000"/><glyph glyph-name="uniac" unicode="¬" d="M381 151h-53v104H50v53h331V151z" horiz-adv-x="431" vert-adv-y="1000"/><glyph glyph-name="uniad" unicode="­" d="M246 251H55v53h191v-53z" horiz-adv-x="301" vert-adv-y="1000"/><glyph glyph-name="uniae" unicode="®" d="M687 612l53-53q53-53 53-203T687 100Q581-6 431-6T175 100Q69 206 69 356t106 256q106 106 256 106t256-106m-32.5-483l46.25 47Q747 223 747 356t-92.5 227Q562 677 431 677t-224-94q-93-94-93-227t93-227q93-94 224-94t223.5 94M543 157h-45l-54 174h-58V157h-43v399h98q39 0 64-23 26-26 26-90 0-37-5.5-55.5T505 354q-7-7-21-14l59-183m-69 226q15 16 15 60t-15 60q-13 13-32 13h-56V370h56q19 0 32 13z" horiz-adv-x="862" vert-adv-y="1000"/><glyph glyph-name="uniaf" unicode="¯" d="M283 611H71v45h212v-45z" horiz-adv-x="354" vert-adv-y="1000"/><glyph glyph-name="unib0" unicode="°" d="M287 680.5l20-19.75Q327 641 327 585t-40-96q-40-40-96-40t-95.5 40Q56 529 56 585t39.5 95.5Q135 720 191 720t96-39.5M277 585q0 37-24.5 62T191 672q-37 0-61.5-25T105 585q0-38 24.5-63t61.5-25q37 0 61.5 25t24.5 63z" horiz-adv-x="382" vert-adv-y="1000"/><glyph glyph-name="unib1" unicode="±" d="M383 286H242V145h-53v141H49v53h140v141h53V339h141v-53m0-250H49v53h334V36z" horiz-adv-x="431" vert-adv-y="1000"/><glyph glyph-name="unib2" unicode="²" d="M242 285H38v37l137 218q24 39 24 79 0 27-16.5 43.5T139 679q-59 0-59-69v-18H37v17q0 55 27 81 29 27 75 27 43 0 73-24t30-74q0-49-30-98L88 323h154v-38z" horiz-adv-x="277" vert-adv-y="1000"/><glyph glyph-name="unib3" unicode="³" d="M245 399q0-37-6.5-57T215 306q-26-26-75-26-48 0-77 27-25 27-25 85v13h43v-13q0-44 18-59 15-15 41-15 27 0 42 15 20 20 20 67 0 48-17 68-16 19-45 19h-29v38h29q23 0 40 14 19 18 19 68 0 42-19 58-13 14-40 14t-42-15q-16-16-16-54v-13H39v12q0 57 25 81 30 27 76 27t74-26q28-27 28-84 0-48-18-72-16-20-39-29 27-8 42-31 18-26 18-76z" horiz-adv-x="277" vert-adv-y="1000"/><glyph glyph-name="unib4" unicode="´" d="M273 716l-75-130h-49l66 130h58z" horiz-adv-x="354" vert-adv-y="1000"/><glyph glyph-name="unib5" unicode="µ" d="M315 0h-55v41q-10-18-29-31-26-18-58-18-41 0-56 21v-217H62v713h56V125q0-40 19.5-61.5T188 42q31 0 51 21.5t20 61.5v384h56V0z" horiz-adv-x="378" vert-adv-y="1000"/><glyph glyph-name="unib6" unicode="¶" d="M475-204h-56v864H299v-864h-56v511h-56Q46 307 46 509q0 203 141 203h288v-916z" horiz-adv-x="538" vert-adv-y="1000"/><glyph glyph-name="unib7" unicode="·" d="M191 245H68v123h123V245z" horiz-adv-x="259" vert-adv-y="1000"/><glyph glyph-name="unib8" unicode="¸" d="M209-37l-46-134h-53l53 134h46z" horiz-adv-x="354" vert-adv-y="1000"/><glyph glyph-name="unib9" unicode="¹" d="M174 285h-43v379l-69-47v47l69 48h43V285z" horiz-adv-x="277" vert-adv-y="1000"/><glyph glyph-name="uniba" unicode="º" d="M223 685q31-33 31-170t-31-170q-28-31-75-31-48 0-76 31-18 19-24 58t-6 112q0 73 6 112t24 58q27 30 76 30 48 0 75-30m-16-170q0 116-21 142-13 16-38 16-26 0-39-16-20-25-20-142 0-119 20-143 13-16 39-16 25 0 38 16 21 26 21 143z" horiz-adv-x="296" vert-adv-y="1000"/><glyph glyph-name="unibb" unicode="»" d="M342 268L206 58v95l76 115-76 114v96l136-210m-151 0L55 58v95l76 115-76 114v96l136-210z" horiz-adv-x="371" vert-adv-y="1000"/><glyph glyph-name="unibc" unicode="¼" d="M174 285h-43v379l-69-47v47l69 48h43V285m327 427L254 0h-47l247 712h47M682 64h-32V0h-43v64H459v38l125 325h43L503 102h104v103h43V102h32V64z" horiz-adv-x="708" vert-adv-y="1000"/><glyph glyph-name="unibd" unicode="½" d="M174 285h-43v379l-69-47v47l69 48h43V285m327 427L254 0h-47l247 712h47M673 0H469v37l137 218q24 39 24 79 0 27-16.5 43.5T570 394q-59 0-59-69v-18h-43v17q0 55 27 81 29 27 75 27 43 0 73-24t30-74q0-49-30-98L519 38h154V0z" horiz-adv-x="708" vert-adv-y="1000"/><glyph glyph-name="unibe" unicode="¾" d="M245 399q0-37-6.5-57T215 306q-26-26-75-26-48 0-77 27-25 27-25 85v13h43v-13q0-44 18-59 15-15 41-15 27 0 42 15 20 20 20 67 0 48-17 68-16 19-45 19h-29v38h29q23 0 40 14 19 18 19 68 0 42-19 58-13 14-40 14t-42-15q-16-16-16-54v-13H39v12q0 57 25 81 30 27 76 27t74-26q28-27 28-84 0-48-18-72-16-20-39-29 27-8 42-31 18-26 18-76m256 313L254 0h-47l247 712h47M682 64h-32V0h-43v64H459v38l125 325h43L503 102h104v103h43V102h32V64z" horiz-adv-x="708" vert-adv-y="1000"/><glyph glyph-name="unibf" unicode="¿" d="M317-53q0-81-39-119-37-37-96-37-63 0-99 37-40 41-40 134 0 69 29 115l58 93q21 32 21 74v78h56v-85q0-45-24-83l-58-92Q99 21 99-39q0-68 28-98 20-22 55-22 32 0 53 21 26 26 26 85h56M217 434h-75v75h75v-75z" horiz-adv-x="375" vert-adv-y="1000"/><glyph glyph-name="unic0" unicode="À" d="M374 0h-63l-39 195H106L68 0H4l159 712h55L374 0M261 248l-72 358-71-358h143m-42 516h-49L95 894h59l65-130z" horiz-adv-x="379" vert-adv-y="1000"/><glyph glyph-name="unic1" unicode="Á" d="M374 0h-63l-39 195H106L68 0H4l159 712h55L374 0M261 248l-72 358-71-358h143m27 646l-75-130h-49l65 130h59z" horiz-adv-x="379" vert-adv-y="1000"/><glyph glyph-name="unic2" unicode="Â" d="M374 0h-63l-39 195H106L68 0H4l159 712h55L374 0M261 248l-72 358-71-358h143m42 516h-52l-59 92-60-92H80l87 130h50l86-130z" horiz-adv-x="379" vert-adv-y="1000"/><glyph glyph-name="unic3" unicode="Ã" d="M374 0h-63l-39 195H106L68 0H4l159 712h55L374 0M261 248l-72 358-71-358h143m50 565q-39-38-71-38-23 0-54 17-25 16-42 16-19 0-43-24l-28 29q38 38 70 38 26 0 54-17 27-16 42-16 19 0 43 24l29-29z" horiz-adv-x="379" vert-adv-y="1000"/><glyph glyph-name="unic4" unicode="Ä" d="M374 0h-63l-39 195H106L68 0H4l159 712h55L374 0M261 248l-72 358-71-358h143m31 536h-63v63h63v-63m-138 0H91v63h63v-63z" horiz-adv-x="379" vert-adv-y="1000"/><glyph glyph-name="unic5" unicode="Å" d="M374 0h-63l-39 195H106L68 0H4l159 712h55L374 0M261 248l-72 358-71-358h143m-5 658l13.5-13.5Q283 879 283 842t-27-64q-27-27-64-27-38 0-64.5 26.5T101 842q0 38 26.5 64.5T192 933q37 0 64-27m-27.5-101.5l7.75 7.75Q244 820 244 842t-15.5 37Q213 894 192 894q-22 0-37.5-15T139 842q0-22 15.5-37.5T192 789q21 0 36.5 15.5z" horiz-adv-x="379" vert-adv-y="1000"/><glyph glyph-name="unic6" unicode="Æ" d="M558 0H309v197H141L69 0H5l265 712h288v-53H368V383h164v-53H368V53h190V0M309 250v410L160 250h149z" horiz-adv-x="604" vert-adv-y="1000"/><glyph glyph-name="unic7" unicode="Ç" d="M358 163q-2-93-50-137-37-34-98-34-67 0-106 42-32 34-41 92.5T54 356q0 171 9 229.5t41 92.5q39 42 106 42 64 0 102-38 44-44 46-133h-59q0 65-28 94-22 24-61 24-40 0-63-26-22-25-28-76.5T113 356q0-157 6-208.5T147 71q23-26 63-26 39 0 61 24 28 29 28 94h59M236-37l-46-134h-53l53 134h46z" horiz-adv-x="399" vert-adv-y="1000"/><glyph glyph-name="unic8" unicode="È" d="M317 0H69v712h248v-53H128V383h163v-53H128V53h189V0m-92 764h-49l-75 130h59l65-130z" horiz-adv-x="364" vert-adv-y="1000"/><glyph glyph-name="unic9" unicode="É" d="M317 0H69v712h248v-53H128V383h163v-53H128V53h189V0m-23 894l-75-130h-49l65 130h59z" horiz-adv-x="364" vert-adv-y="1000"/><glyph glyph-name="unica" unicode="Ê" d="M317 0H69v712h248v-53H128V383h163v-53H128V53h189V0m-8 764h-52l-59 92-60-92H86l87 130h50l86-130z" horiz-adv-x="364" vert-adv-y="1000"/><glyph glyph-name="unicb" unicode="Ë" d="M317 0H69v712h248v-53H128V383h163v-53H128V53h189V0m-19 784h-63v63h63v-63m-138 0H97v63h63v-63z" horiz-adv-x="364" vert-adv-y="1000"/><glyph glyph-name="unicc" unicode="Ì" d="M128 0H69v712h59V0m-2 764H77L2 894h59l65-130z" horiz-adv-x="197" vert-adv-y="1000"/><glyph glyph-name="unicd" unicode="Í" d="M128 0H69v712h59V0m67 894l-75-130H71l65 130h59z" horiz-adv-x="197" vert-adv-y="1000"/><glyph glyph-name="unice" unicode="Î" d="M128 0H69v712h59V0m82 764h-52l-59 92-60-92h-52l87 130h50l86-130z" horiz-adv-x="197" vert-adv-y="1000"/><glyph glyph-name="unicf" unicode="Ï" d="M128 0H69v712h59V0m71 784h-63v63h63v-63m-138 0H-2v63h63v-63z" horiz-adv-x="197" vert-adv-y="1000"/><glyph glyph-name="unid0" unicode="Ð" d="M366.5 579.5l4.25-28.75Q375 522 375 356t-8.5-223.5Q358 75 325 41 286 0 220 0H73v332H20v49h53v331h147q66 0 105-41 33-34 41.5-91.5M310 152l3 24.5q3 24.5 3 179.5t-6 204q-6 49-29 74t-64 25h-85V381h91v-49h-91V53h85q41 0 64 25t29 74z" horiz-adv-x="429" vert-adv-y="1000"/><glyph glyph-name="unid1" unicode="Ñ" d="M385 0h-58L128 555V0H69v712h59l198-555v555h59V0m-39 813q-39-38-71-38-23 0-54 17-25 16-42 16-19 0-43-24l-28 29q38 38 70 38 26 0 54-17 27-16 42-16 19 0 43 24l29-29z" horiz-adv-x="454" vert-adv-y="1000"/><glyph glyph-name="unid2" unicode="Ò" d="M358 585.5l4.5-29.25Q367 527 367 356t-9-229.5Q349 68 317 34 278-8 210-8q-67 0-106 42-32 34-41 92.5T54 356q0 171 9 229.5t41 92.5q39 42 106 42 68 0 107-42 32-34 41-92.5m-56-438l3 25.75Q308 199 308 356t-6 208.5q-6 51.5-28 76.5-23 26-64 26-40 0-63-26-22-25-28-76.5T113 356q0-157 6-208.5T147 71q23-26 63-26 41 0 64 26 22 25 28 76.5M238 764h-49l-75 130h59l65-130z" horiz-adv-x="421" vert-adv-y="1000"/><glyph glyph-name="unid3" unicode="Ó" d="M358 585.5l4.5-29.25Q367 527 367 356t-9-229.5Q349 68 317 34 278-8 210-8q-67 0-106 42-32 34-41 92.5T54 356q0 171 9 229.5t41 92.5q39 42 106 42 68 0 107-42 32-34 41-92.5m-56-438l3 25.75Q308 199 308 356t-6 208.5q-6 51.5-28 76.5-23 26-64 26-40 0-63-26-22-25-28-76.5T113 356q0-157 6-208.5T147 71q23-26 63-26 41 0 64 26 22 25 28 76.5m5 746.5l-75-130h-49l65 130h59z" horiz-adv-x="421" vert-adv-y="1000"/><glyph glyph-name="unid4" unicode="Ô" d="M358 585.5l4.5-29.25Q367 527 367 356t-9-229.5Q349 68 317 34 278-8 210-8q-67 0-106 42-32 34-41 92.5T54 356q0 171 9 229.5t41 92.5q39 42 106 42 68 0 107-42 32-34 41-92.5m-56-438l3 25.75Q308 199 308 356t-6 208.5q-6 51.5-28 76.5-23 26-64 26-40 0-63-26-22-25-28-76.5T113 356q0-157 6-208.5T147 71q23-26 63-26 41 0 64 26 22 25 28 76.5M322 764h-52l-59 92-60-92H99l87 130h50l86-130z" horiz-adv-x="421" vert-adv-y="1000"/><glyph glyph-name="unid5" unicode="Õ" d="M358 585.5l4.5-29.25Q367 527 367 356t-9-229.5Q349 68 317 34 278-8 210-8q-67 0-106 42-32 34-41 92.5T54 356q0 171 9 229.5t41 92.5q39 42 106 42 68 0 107-42 32-34 41-92.5m-56-438l3 25.75Q308 199 308 356t-6 208.5q-6 51.5-28 76.5-23 26-64 26-40 0-63-26-22-25-28-76.5T113 356q0-157 6-208.5T147 71q23-26 63-26 41 0 64 26 22 25 28 76.5M330 813q-39-38-71-38-23 0-54 17-25 16-42 16-19 0-43-24l-28 29q38 38 70 38 26 0 54-17 27-16 42-16 19 0 43 24l29-29z" horiz-adv-x="421" vert-adv-y="1000"/><glyph glyph-name="unid6" unicode="Ö" d="M358 585.5l4.5-29.25Q367 527 367 356t-9-229.5Q349 68 317 34 278-8 210-8q-67 0-106 42-32 34-41 92.5T54 356q0 171 9 229.5t41 92.5q39 42 106 42 68 0 107-42 32-34 41-92.5m-56-438l3 25.75Q308 199 308 356t-6 208.5q-6 51.5-28 76.5-23 26-64 26-40 0-63-26-22-25-28-76.5T113 356q0-157 6-208.5T147 71q23-26 63-26 41 0 64 26 22 25 28 76.5m9 636.5h-63v63h63v-63m-138 0h-63v63h63v-63z" horiz-adv-x="421" vert-adv-y="1000"/><glyph glyph-name="unid7" unicode="×" d="M370 152l-37-37-117 118L98 115l-36 37 117 117L62 387l36 36 118-117 117 117 37-36-118-118 118-117z" horiz-adv-x="431" vert-adv-y="1000"/><glyph glyph-name="unid8" unicode="Ø" d="M367 356q0-171-9-229.5T317 34Q278-8 210-8q-45 0-79 20l-17-56H64l29 90q-25 32-32 92.5T54 356q0 171 9 229.5t41 92.5q39 42 106 42 47 0 80-21l17 57h50l-28-91q24-32 31-92.5t7-216.5m-95 288q-21 23-62 23-40 0-63-26-22-25-28-76.5T113 356q0-184 11-226l148 514m36-288q0 181-10 225L149 68q20-23 61-23t64 26q22 25 28 76.5t6 208.5z" horiz-adv-x="405" vert-adv-y="1000"/><glyph glyph-name="unid9" unicode="Ù" d="M356 148q0-73-42-115Q271-8 209-8T104 33Q61 76 61 148v564h59V143q0-45 25.5-71.5T209 45q38 0 63 26.5t25 71.5v569h59V148M237 764h-49l-75 130h59l65-130z" horiz-adv-x="417" vert-adv-y="1000"/><glyph glyph-name="unida" unicode="Ú" d="M356 148q0-73-42-115Q271-8 209-8T104 33Q61 76 61 148v564h59V143q0-45 25.5-71.5T209 45q38 0 63 26.5t25 71.5v569h59V148m-50 746l-75-130h-49l65 130h59z" horiz-adv-x="417" vert-adv-y="1000"/><glyph glyph-name="unidb" unicode="Û" d="M356 148q0-73-42-115Q271-8 209-8T104 33Q61 76 61 148v564h59V143q0-45 25.5-71.5T209 45q38 0 63 26.5t25 71.5v569h59V148m-35 616h-52l-59 92-60-92H98l87 130h50l86-130z" horiz-adv-x="417" vert-adv-y="1000"/><glyph glyph-name="unidc" unicode="Ü" d="M356 148q0-73-42-115Q271-8 209-8T104 33Q61 76 61 148v564h59V143q0-45 25.5-71.5T209 45q38 0 63 26.5t25 71.5v569h59V148m-46 636h-63v63h63v-63m-138 0h-63v63h63v-63z" horiz-adv-x="417" vert-adv-y="1000"/><glyph glyph-name="unidd" unicode="Ý" d="M312 712L187 298V0h-59v298L3 712h65l89-326 90 326h65m-55 182l-75-130h-49l65 130h59z" horiz-adv-x="315" vert-adv-y="1000"/><glyph glyph-name="unide" unicode="Þ" d="M322.5 516.5l20.25-20.75Q363 475 363 360t-40.5-157Q282 161 209 161h-81V0H69v712h59V558h81q73 0 113.5-41.5m-43-272l12.25 15.25Q304 275 304 359t-24.5 115Q255 505 207 505h-79V214h79q48 0 72.5 30.5z" horiz-adv-x="409" vert-adv-y="1000"/><glyph glyph-name="unidf" unicode="ß" d="M328 224q0-83-7-123.5T288 34Q254 0 189 0v50q38 0 59 21 24 24 24 156 0 126-24 153-18 22-50 22h-9v48h7q26 0 42 19 24 27 24 93 0 61-22 87-20 21-51 21t-51-22q-20-22-20-62V0H62v584q0 65 36 101 37 35 91 35 57 0 91-34 22-23 30-49.5t8-72.5q0-65-19-99-13-22-34-36 17-8 30-25 20-22 26.5-58t6.5-122z" horiz-adv-x="373" vert-adv-y="1000"/><glyph glyph-name="unie0" unicode="à" d="M294 0h-54v46q-10-20-28-34-27-20-61-20-48 0-81 34-33 35-33 115 0 76 43 115 37 34 100 34h58v91q0 87-70 87-27 0-46-19-23-24-23-71H43q0 68 37 105 34 34 88 34 61 0 91-32 35-37 35-106V0m-56 134v112h-56q-39 0-62-22-27-27-27-82 0-100 71-100 33 0 53.5 26t20.5 66m-36 452h-49L78 716h58l66-130z" horiz-adv-x="352" vert-adv-y="1000"/><glyph glyph-name="unie1" unicode="á" d="M294 0h-54v46q-10-20-28-34-27-20-61-20-48 0-81 34-33 35-33 115 0 76 43 115 37 34 100 34h58v91q0 87-70 87-27 0-46-19-23-24-23-71H43q0 68 37 105 34 34 88 34 61 0 91-32 35-37 35-106V0m-56 134v112h-56q-39 0-62-22-27-27-27-82 0-100 71-100 33 0 53.5 26t20.5 66m30 582l-74-130h-49l65 130h58z" horiz-adv-x="352" vert-adv-y="1000"/><glyph glyph-name="unie2" unicode="â" d="M294 0h-54v46q-10-20-28-34-27-20-61-20-48 0-81 34-33 35-33 115 0 76 43 115 37 34 100 34h58v91q0 87-70 87-27 0-46-19-23-24-23-71H43q0 68 37 105 34 34 88 34 61 0 91-32 35-37 35-106V0m-56 134v112h-56q-39 0-62-22-27-27-27-82 0-100 71-100 33 0 53.5 26t20.5 66m45 452h-51l-60 92-60-92H60l87 130h50l86-130z" horiz-adv-x="352" vert-adv-y="1000"/><glyph glyph-name="unie3" unicode="ã" d="M294 0h-54v46q-10-20-28-34-27-20-61-20-48 0-81 34-33 35-33 115 0 76 43 115 37 34 100 34h58v91q0 87-70 87-27 0-46-19-23-24-23-71H43q0 68 37 105 34 34 88 34 61 0 91-32 35-37 35-106V0m-56 134v112h-56q-39 0-62-22-27-27-27-82 0-100 71-100 33 0 53.5 26t20.5 66m54 501q-39-38-71-38-23 0-54 17-25 16-42 16-19 0-43-24l-28 29q38 38 70 38 26 0 54-17 27-16 42-16 19 0 43 24l29-29z" horiz-adv-x="352" vert-adv-y="1000"/><glyph glyph-name="unie4" unicode="ä" d="M294 0h-54v46q-10-20-28-34-27-20-61-20-48 0-81 34-33 35-33 115 0 76 43 115 37 34 100 34h58v91q0 87-70 87-27 0-46-19-23-24-23-71H43q0 68 37 105 34 34 88 34 61 0 91-32 35-37 35-106V0m-56 134v112h-56q-39 0-62-22-27-27-27-82 0-100 71-100 33 0 53.5 26t20.5 66m34 472h-63v63h63v-63m-137 0H71v63h64v-63z" horiz-adv-x="352" vert-adv-y="1000"/><glyph glyph-name="unie5" unicode="å" d="M294 0h-54v46q-10-20-28-34-27-20-61-20-48 0-81 34-33 35-33 115 0 76 43 115 37 34 100 34h58v91q0 87-70 87-27 0-46-19-23-24-23-71H43q0 68 37 105 34 34 88 34 61 0 91-32 35-37 35-106V0m-56 134v112h-56q-39 0-62-22-27-27-27-82 0-100 71-100 33 0 53.5 26t20.5 66m-1.5 602.5l13.25-13.25Q263 710 263 672t-26.5-64.5Q210 581 172 581t-64.5 26.5Q81 634 81 672t26.5 64.5Q134 763 172 763t64.5-26.5M224 672q0 22-15.5 37.5T172 725q-22 0-37.5-15.5T119 672q0-21 15.5-36.5T172 620q21 0 36.5 15.5T224 672z" horiz-adv-x="352" vert-adv-y="1000"/><glyph glyph-name="unie6" unicode="æ" d="M502 246H294q0-83 5-122.5T320 65q19-23 52-23 31 0 51 20 22 22 22 72h55q0-69-37-107-34-35-91-35-51 0-83 30-20 20-31 45-14-36-36-52-30-23-71-23-48 0-81 34-33 35-33 115 0 76 43 115 37 34 100 34h58v91q0 87-70 87-29 0-46-19-23-23-23-71H43q0 68 37 105 34 34 88 34t84-28q11-11 18-25 7 11 15 19 32 34 85 34 57 0 91-37 24-27 32.5-79t8.5-155M238 134v112h-56q-40 0-62-22-27-25-27-82 0-100 71-100 33 0 53.5 26t20.5 66m208 157q-1 70-6 103.5T420 444q-19 23-50 23-32 0-51-23-24-27-25-153h152z" horiz-adv-x="544" vert-adv-y="1000"/><glyph glyph-name="unie7" unicode="ç" d="M303 134q-2-75-36-109-33-33-90-33-60 0-94 40-22 26-30 76.5T45 254q0 95 8 145.5T83 476q33 41 94 41 58 0 90-32 34-33 36-111h-55q0 51-20 72-18 21-50 21-34 0-52-23-16-20-20.5-61T101 254q0-88 4.5-128.5T126 65q18-23 52-23 29 0 49 20 21 22 21 72h55M209-37l-46-134h-53l53 134h46z" horiz-adv-x="340" vert-adv-y="1000"/><glyph glyph-name="unie8" unicode="è" d="M309 246H101q0-85 5-124t21-57q19-23 51-23 33 0 52 20 22 23 22 72h55q0-69-37-107-34-35-92-35-57 0-92 37-24 26-32.5 77.5T45 254q0 98 8.5 149T86 480q34 37 91 37t91-37q24-27 32.5-79t8.5-155m-56 45q-1 125-26 153-19 23-50 23-32 0-51-23-24-27-25-153h152m-46 295h-49L83 716h58l66-130z" horiz-adv-x="349" vert-adv-y="1000"/><glyph glyph-name="unie9" unicode="é" d="M309 246H101q0-85 5-124t21-57q19-23 51-23 33 0 52 20 22 23 22 72h55q0-69-37-107-34-35-92-35-57 0-92 37-24 26-32.5 77.5T45 254q0 98 8.5 149T86 480q34 37 91 37t91-37q24-27 32.5-79t8.5-155m-56 45q-1 125-26 153-19 23-50 23-32 0-51-23-24-27-25-153h152m20 425l-74-130h-49l65 130h58z" horiz-adv-x="349" vert-adv-y="1000"/><glyph glyph-name="uniea" unicode="ê" d="M309 246H101q0-85 5-124t21-57q19-23 51-23 33 0 52 20 22 23 22 72h55q0-69-37-107-34-35-92-35-57 0-92 37-24 26-32.5 77.5T45 254q0 98 8.5 149T86 480q34 37 91 37t91-37q24-27 32.5-79t8.5-155m-56 45q-1 125-26 153-19 23-50 23-32 0-51-23-24-27-25-153h152m35 295h-51l-60 92-60-92H65l87 130h50l86-130z" horiz-adv-x="349" vert-adv-y="1000"/><glyph glyph-name="unieb" unicode="ë" d="M309 246H101q0-85 5-124t21-57q19-23 51-23 33 0 52 20 22 23 22 72h55q0-69-37-107-34-35-92-35-57 0-92 37-24 26-32.5 77.5T45 254q0 98 8.5 149T86 480q34 37 91 37t91-37q24-27 32.5-79t8.5-155m-56 45q-1 125-26 153-19 23-50 23-32 0-51-23-24-27-25-153h152m24 315h-63v63h63v-63m-137 0H76v63h64v-63z" horiz-adv-x="349" vert-adv-y="1000"/><glyph glyph-name="uniec" unicode="ì" d="M119 0H63v509h56V0m0 586H70L-5 716h58l66-130z" horiz-adv-x="181" vert-adv-y="1000"/><glyph glyph-name="unied" unicode="í" d="M119 0H63v509h56V0m68 716l-74-130H64l65 130h58z" horiz-adv-x="181" vert-adv-y="1000"/><glyph glyph-name="uniee" unicode="î" d="M119 0H63v509h56V0m83 586h-51l-60 92-60-92h-52l87 130h50l86-130z" horiz-adv-x="181" vert-adv-y="1000"/><glyph glyph-name="unief" unicode="ï" d="M119 0H63v509h56V0m72 606h-63v63h63v-63m-137 0h-64v63h64v-63z" horiz-adv-x="181" vert-adv-y="1000"/><glyph glyph-name="unif0" unicode="ð" d="M309 249q0-94-8-143t-30-75Q238-8 177-8T83 31q-22 26-30 75t-8 143q0 98 8 147t30 74q32 35 85 35 33 0 55-14l-32 91h-82v44h67l-33 86h57l32-86h72v-44h-57l39-115q23-70 23-218m-60.5-127l2.25 19.5Q253 161 253 250t-4.5 127.5Q244 416 228 435q-19 22-51 22-31 0-50-22-16-19-21-58.5T101 250q0-87 5-127t21-59q19-22 50-22 32 0 51 22 16 19 20.5 58z" horiz-adv-x="355" vert-adv-y="1000"/><glyph glyph-name="unif1" unicode="ñ" d="M315 0h-56v383q0 40-19.5 61.5T189 466q-31 0-51-21.5T118 383V0H62v509h55v-41q10 18 29 31 26 18 58 18 47 0 80-35 31-33 31-100V0m-5 635q-39-38-71-38-23 0-54 17-25 16-42 16-19 0-43-24l-28 29q38 38 70 38 26 0 54-17 27-16 42-16 19 0 43 24l29-29z" horiz-adv-x="373" vert-adv-y="1000"/><glyph glyph-name="unif2" unicode="ò" d="M301 399l4-25q4-25 4-120t-8-145q-8-50-30-77-33-40-94-40T83 32q-22 27-30 77t-8 145q0 95 8 145t30 77q33 41 94 41t94-41q22-27 30-77m-53-274l2.5 20q2.5 20 2.5 109t-5 129.5q-5 40.5-21 60.5-19 23-50 23-32 0-51-23-16-20-20.5-60T101 254q0-90 4.5-129.5T126 65q19-23 51-23 31 0 50 23 16 20 21 60m-41 461h-49L83 716h58l66-130z" horiz-adv-x="353" vert-adv-y="1000"/><glyph glyph-name="unif3" unicode="ó" d="M301 399l4-25q4-25 4-120t-8-145q-8-50-30-77-33-40-94-40T83 32q-22 27-30 77t-8 145q0 95 8 145t30 77q33 41 94 41t94-41q22-27 30-77m-53-274l2.5 20q2.5 20 2.5 109t-5 129.5q-5 40.5-21 60.5-19 23-50 23-32 0-51-23-16-20-20.5-60T101 254q0-90 4.5-129.5T126 65q19-23 51-23 31 0 50 23 16 20 21 60m25 591l-74-130h-49l65 130h58z" horiz-adv-x="353" vert-adv-y="1000"/><glyph glyph-name="unif4" unicode="ô" d="M301 399l4-25q4-25 4-120t-8-145q-8-50-30-77-33-40-94-40T83 32q-22 27-30 77t-8 145q0 95 8 145t30 77q33 41 94 41t94-41q22-27 30-77m-53-274l2.5 20q2.5 20 2.5 109t-5 129.5q-5 40.5-21 60.5-19 23-50 23-32 0-51-23-16-20-20.5-60T101 254q0-90 4.5-129.5T126 65q19-23 51-23 31 0 50 23 16 20 21 60m40 461h-51l-60 92-60-92H65l87 130h50l86-130z" horiz-adv-x="353" vert-adv-y="1000"/><glyph glyph-name="unif5" unicode="õ" d="M301 399l4-25q4-25 4-120t-8-145q-8-50-30-77-33-40-94-40T83 32q-22 27-30 77t-8 145q0 95 8 145t30 77q33 41 94 41t94-41q22-27 30-77m-53-274l2.5 20q2.5 20 2.5 109t-5 129.5q-5 40.5-21 60.5-19 23-50 23-32 0-51-23-16-20-20.5-60T101 254q0-90 4.5-129.5T126 65q19-23 51-23 31 0 50 23 16 20 21 60m49 510q-39-38-71-38-23 0-54 17-25 16-42 16-19 0-43-24l-28 29q38 38 70 38 26 0 54-17 27-16 42-16 19 0 43 24l29-29z" horiz-adv-x="353" vert-adv-y="1000"/><glyph glyph-name="unif6" unicode="ö" d="M301 399l4-25q4-25 4-120t-8-145q-8-50-30-77-33-40-94-40T83 32q-22 27-30 77t-8 145q0 95 8 145t30 77q33 41 94 41t94-41q22-27 30-77m-53-274l2.5 20q2.5 20 2.5 109t-5 129.5q-5 40.5-21 60.5-19 23-50 23-32 0-51-23-16-20-20.5-60T101 254q0-90 4.5-129.5T126 65q19-23 51-23 31 0 50 23 16 20 21 60m29 481h-63v63h63v-63m-137 0H76v63h64v-63z" horiz-adv-x="353" vert-adv-y="1000"/><glyph glyph-name="unif7" unicode="÷" d="M383 248H49v53h334v-53M254 89h-75v76h75V89m0 295h-75v75h75v-75z" horiz-adv-x="431" vert-adv-y="1000"/><glyph glyph-name="unif8" unicode="ø" d="M311 553l-32-87q30-48 30-212 0-95-8-145t-30-77Q238-8 177-8q-42 0-69 18L88-44H42l33 87Q45 91 45 254q0 95 8 145t30 77q33 41 94 41 39 0 68-19l20 55h46m-85-106q-19 21-49 21-33 0-51-23-16-20-20.5-60T101 254q0-104 8-135l117 328m27-193q0 105-8 136L128 61q18-20 49-20 32 0 50 23 16 20 21 60.5t5 129.5z" horiz-adv-x="347" vert-adv-y="1000"/><glyph glyph-name="unif9" unicode="ù" d="M311 0h-55v41q-10-18-29-31-26-18-58-18-48 0-80 34-31 33-31 101v382h56V126q0-40 19.5-61.5T184 43q31 0 51 21.5t20 61.5v383h56V0m-97 586h-49L90 716h58l66-130z" horiz-adv-x="373" vert-adv-y="1000"/><glyph glyph-name="unifa" unicode="ú" d="M311 0h-55v41q-10-18-29-31-26-18-58-18-48 0-80 34-31 33-31 101v382h56V126q0-40 19.5-61.5T184 43q31 0 51 21.5t20 61.5v383h56V0m-31 716l-74-130h-49l65 130h58z" horiz-adv-x="373" vert-adv-y="1000"/><glyph glyph-name="unifb" unicode="û" d="M311 0h-55v41q-10-18-29-31-26-18-58-18-48 0-80 34-31 33-31 101v382h56V126q0-40 19.5-61.5T184 43q31 0 51 21.5t20 61.5v383h56V0m-16 586h-51l-60 92-60-92H72l87 130h50l86-130z" horiz-adv-x="373" vert-adv-y="1000"/><glyph glyph-name="unifc" unicode="ü" d="M311 0h-55v41q-10-18-29-31-26-18-58-18-48 0-80 34-31 33-31 101v382h56V126q0-40 19.5-61.5T184 43q31 0 51 21.5t20 61.5v383h56V0m-27 606h-63v63h63v-63m-137 0H83v63h64v-63z" horiz-adv-x="373" vert-adv-y="1000"/><glyph glyph-name="unifd" unicode="ý" d="M301 509L157-99q-14-57-50.5-80.5T9-203v50q76 0 93 65l23 90L4 509h62l87-420 87 420h61m-47 207l-74-130h-49l65 130h58z" horiz-adv-x="308" vert-adv-y="1000"/><glyph glyph-name="unife" unicode="þ" d="M321 254q0-99-8-150t-30-76Q252-8 204-8q-33 0-58 16-16 9-27 30v-241H63v915h55V468q8 18 28 31 26 18 58 18 47 0 79-36 22-26 30-76.5t8-150.5m-61-131.5l2.5 19.75Q265 162 265 254t-5 131.5q-5 39.5-21 58.5-19 23-48 23-28 0-49-19-23-23-23-70V131q0-47 23-70 21-19 49-19 29 0 48 22 16 19 21 58.5z" horiz-adv-x="366" vert-adv-y="1000"/><glyph glyph-name="uniff" unicode="ÿ" d="M301 509L157-99q-14-57-50.5-80.5T9-203v50q76 0 93 65l23 90L4 509h62l87-420 87 420h61m-43 97h-63v63h63v-63m-137 0H57v63h64v-63z" horiz-adv-x="308" vert-adv-y="1000"/><glyph glyph-name="uni0100" unicode="Ā" d="M374 0h-63l-39 195H106L68 0H4l159 712h55L374 0M261 248l-72 358-71-358h143m37 537H86v45h212v-45z" horiz-adv-x="379" vert-adv-y="1000"/><glyph glyph-name="uni0101" unicode="ā" d="M294 0h-54v46q-10-20-28-34-27-20-61-20-48 0-81 34-33 35-33 115 0 76 43 115 37 34 100 34h58v91q0 87-70 87-27 0-46-19-23-24-23-71H43q0 68 37 105 34 34 88 34 61 0 91-32 35-37 35-106V0m-56 134v112h-56q-39 0-62-22-27-27-27-82 0-100 71-100 33 0 53.5 26t20.5 66m40 477H66v45h212v-45z" horiz-adv-x="352" vert-adv-y="1000"/><glyph glyph-name="uni0102" unicode="Ă" d="M374 0h-63l-39 195H106L68 0H4l159 712h55L374 0M261 248l-72 358-71-358h143m41 610q-9-104-110-104-102 0-111 104h46q7-60 65-60 56 0 64 60h46z" horiz-adv-x="379" vert-adv-y="1000"/><glyph glyph-name="uni0103" unicode="ă" d="M294 0h-54v46q-10-20-28-34-27-20-61-20-48 0-81 34-33 35-33 115 0 76 43 115 37 34 100 34h58v91q0 87-70 87-27 0-46-19-23-24-23-71H43q0 68 37 105 34 34 88 34 61 0 91-32 35-37 35-106V0m-56 134v112h-56q-39 0-62-22-27-27-27-82 0-100 71-100 33 0 53.5 26t20.5 66m44 550q-9-104-110-104T61 684h46q7-60 65-60 56 0 65 60h45z" horiz-adv-x="352" vert-adv-y="1000"/><glyph glyph-name="uni0104" unicode="Ą" d="M374 0h-63l-39 195H106L68 0H4l159 712h55L374 0M261 248l-72 358-71-358h143M365-37l-46-134h-53l53 134h46z" horiz-adv-x="379" vert-adv-y="1000"/><glyph glyph-name="uni0105" unicode="ą" d="M294 0h-54v46q-10-20-28-34-27-20-61-20-48 0-81 34-33 35-33 115 0 76 43 115 37 34 100 34h58v91q0 87-70 87-27 0-46-19-23-24-23-71H43q0 68 37 105 34 34 88 34 61 0 91-32 35-37 35-106V0m-56 134v112h-56q-39 0-62-22-27-27-27-82 0-100 71-100 33 0 53.5 26t20.5 66m53-171l-46-134h-53l53 134h46z" horiz-adv-x="352" vert-adv-y="1000"/><glyph glyph-name="uni0106" unicode="Ć" d="M358 163q-2-93-50-137-37-34-98-34-67 0-106 42-32 34-41 92.5T54 356q0 171 9 229.5t41 92.5q39 42 106 42 64 0 102-38 44-44 46-133h-59q0 65-28 94-22 24-61 24-40 0-63-26-22-25-28-76.5T113 356q0-157 6-208.5T147 71q23-26 63-26 39 0 61 24 28 29 28 94h59m-51 731l-75-130h-49l65 130h59z" horiz-adv-x="399" vert-adv-y="1000"/><glyph glyph-name="uni0107" unicode="ć" d="M303 134q-2-75-36-109-33-33-90-33-60 0-94 40-22 26-30 76.5T45 254q0 95 8 145.5T83 476q33 41 94 41 58 0 90-32 34-33 36-111h-55q0 51-20 72-18 21-50 21-34 0-52-23-16-20-20.5-61T101 254q0-88 4.5-128.5T126 65q18-23 52-23 29 0 49 20 21 22 21 72h55m-30 582l-74-130h-49l65 130h58z" horiz-adv-x="340" vert-adv-y="1000"/><glyph glyph-name="uni0108" unicode="Ĉ" d="M358 163q-2-93-50-137-37-34-98-34-67 0-106 42-32 34-41 92.5T54 356q0 171 9 229.5t41 92.5q39 42 106 42 64 0 102-38 44-44 46-133h-59q0 65-28 94-22 24-61 24-40 0-63-26-22-25-28-76.5T113 356q0-157 6-208.5T147 71q23-26 63-26 39 0 61 24 28 29 28 94h59m-36 601h-52l-59 92-60-92H99l87 130h50l86-130z" horiz-adv-x="399" vert-adv-y="1000"/><glyph glyph-name="uni0109" unicode="ĉ" d="M303 134q-2-75-36-109-33-33-90-33-60 0-94 40-22 26-30 76.5T45 254q0 95 8 145.5T83 476q33 41 94 41 58 0 90-32 34-33 36-111h-55q0 51-20 72-18 21-50 21-34 0-52-23-16-20-20.5-61T101 254q0-88 4.5-128.5T126 65q18-23 52-23 29 0 49 20 21 22 21 72h55m-15 452h-51l-60 92-60-92H65l87 130h50l86-130z" horiz-adv-x="340" vert-adv-y="1000"/><glyph glyph-name="uni010A" unicode="Ċ" d="M358 163q-2-93-50-137-37-34-98-34-67 0-106 42-32 34-41 92.5T54 356q0 171 9 229.5t41 92.5q39 42 106 42 64 0 102-38 44-44 46-133h-59q0 65-28 94-22 24-61 24-40 0-63-26-22-25-28-76.5T113 356q0-157 6-208.5T147 71q23-26 63-26 39 0 61 24 28 29 28 94h59M242 784h-63v63h63v-63z" horiz-adv-x="399" vert-adv-y="1000"/><glyph glyph-name="uni010B" unicode="ċ" d="M303 134q-2-75-36-109-33-33-90-33-60 0-94 40-22 26-30 76.5T45 254q0 95 8 145.5T83 476q33 41 94 41 58 0 90-32 34-33 36-111h-55q0 51-20 72-18 21-50 21-34 0-52-23-16-20-20.5-61T101 254q0-88 4.5-128.5T126 65q18-23 52-23 29 0 49 20 21 22 21 72h55m-95 476h-63v63h63v-63z" horiz-adv-x="340" vert-adv-y="1000"/><glyph glyph-name="uni010C" unicode="Č" d="M358 163q-2-93-50-137-37-34-98-34-67 0-106 42-32 34-41 92.5T54 356q0 171 9 229.5t41 92.5q39 42 106 42 64 0 102-38 44-44 46-133h-59q0 65-28 94-22 24-61 24-40 0-63-26-22-25-28-76.5T113 356q0-157 6-208.5T147 71q23-26 63-26 39 0 61 24 28 29 28 94h59m-36 724l-86-129h-50L99 887h52l60-91 59 91h52z" horiz-adv-x="399" vert-adv-y="1000"/><glyph glyph-name="uni010D" unicode="č" d="M303 134q-2-75-36-109-33-33-90-33-60 0-94 40-22 26-30 76.5T45 254q0 95 8 145.5T83 476q33 41 94 41 58 0 90-32 34-33 36-111h-55q0 51-20 72-18 21-50 21-34 0-52-23-16-20-20.5-61T101 254q0-88 4.5-128.5T126 65q18-23 52-23 29 0 49 20 21 22 21 72h55m-15 575l-86-129h-50L65 709h52l60-91 60 91h51z" horiz-adv-x="340" vert-adv-y="1000"/><glyph glyph-name="uni010E" unicode="Ď" d="M362 580l4.5-28.5Q371 523 371 356t-9-224q-9-57-41-91Q282 0 215 0H69v712h146q67 0 106-41 32-34 41-91m-56-428.5l3 24.75Q312 201 312 356t-6 204.5q-6 49.5-29 73.5-22 25-65 25h-84V53h84q43 0 65 25 23 24 29 73.5M321 887l-86-129h-50L98 887h52l60-91 59 91h52z" horiz-adv-x="424" vert-adv-y="1000"/><glyph glyph-name="uni010F" unicode="ď" d="M303 0h-55v41q-8-18-28-31-26-18-58-18-48 0-79 36-22 25-30 75.5T45 254q0 100 8 150t30 77q29 36 79 36 36 0 58-16 16-12 27-30v241h56V0m-56 131v247q0 47-23 70-21 19-49 19-29 0-48-23-16-19-21-58.5T101 254q0-92 5-131.5T127 64q19-22 48-22 28 0 49 19 23 23 23 70m176 588l-30-134h-44l21 134h53z" horiz-adv-x="365" vert-adv-y="1000"/><glyph glyph-name="uni0110" unicode="Đ" d="M366.5 579.5l4.25-28.75Q375 522 375 356t-8.5-223.5Q358 75 325 41 286 0 220 0H73v332H20v49h53v331h147q66 0 105-41 33-34 41.5-91.5M310 152l3 24.5q3 24.5 3 179.5t-6 204q-6 49-29 74t-64 25h-85V381h91v-49h-91V53h85q41 0 64 25t29 74z" horiz-adv-x="429" vert-adv-y="1000"/><glyph glyph-name="uni0111" unicode="đ" d="M303 0h-55v41q-8-18-28-31-26-18-58-18-48 0-79 36-22 25-30 75.5T45 254q0 100 8 150t30 77q29 36 79 36 36 0 58-16 16-12 27-30v113h-90v42h90v86h56v-86h58v-42h-58V0m-56 131v247q0 47-23 70-21 19-49 19-29 0-48-23-16-19-21-58.5T101 254q0-92 5-131.5T127 64q19-22 48-22 28 0 49 19 23 23 23 70z" horiz-adv-x="377" vert-adv-y="1000"/><glyph glyph-name="uni0112" unicode="Ē" d="M317 0H69v712h248v-53H128V383h163v-53H128V53h189V0m-13 785H92v45h212v-45z" horiz-adv-x="364" vert-adv-y="1000"/><glyph glyph-name="uni0113" unicode="ē" d="M309 246H101q0-85 5-124t21-57q19-23 51-23 33 0 52 20 22 23 22 72h55q0-69-37-107-34-35-92-35-57 0-92 37-24 26-32.5 77.5T45 254q0 98 8.5 149T86 480q34 37 91 37t91-37q24-27 32.5-79t8.5-155m-56 45q-1 125-26 153-19 23-50 23-32 0-51-23-24-27-25-153h152m30 320H71v45h212v-45z" horiz-adv-x="349" vert-adv-y="1000"/><glyph glyph-name="uni0114" unicode="Ĕ" d="M317 0H69v712h248v-53H128V383h163v-53H128V53h189V0m-8 858q-9-104-110-104-102 0-111 104h46q8-60 65-60t64 60h46z" horiz-adv-x="364" vert-adv-y="1000"/><glyph glyph-name="uni0115" unicode="ĕ" d="M309 246H101q0-85 5-124t21-57q19-23 51-23 33 0 52 20 22 23 22 72h55q0-69-37-107-34-35-92-35-57 0-92 37-24 26-32.5 77.5T45 254q0 98 8.5 149T86 480q34 37 91 37t91-37q24-27 32.5-79t8.5-155m-56 45q-1 125-26 153-19 23-50 23-32 0-51-23-24-27-25-153h152m35 393q-9-104-110-104T67 684h46q7-60 65-60 56 0 65 60h45z" horiz-adv-x="349" vert-adv-y="1000"/><glyph glyph-name="uni0116" unicode="Ė" d="M317 0H69v712h248v-53H128V383h163v-53H128V53h189V0m-88 784h-63v63h63v-63z" horiz-adv-x="364" vert-adv-y="1000"/><glyph glyph-name="uni0117" unicode="ė" d="M309 246H101q0-85 5-124t21-57q19-23 51-23 33 0 52 20 22 23 22 72h55q0-69-37-107-34-35-92-35-57 0-92 37-24 26-32.5 77.5T45 254q0 98 8.5 149T86 480q34 37 91 37t91-37q24-27 32.5-79t8.5-155m-56 45q-1 125-26 153-19 23-50 23-32 0-51-23-24-27-25-153h152m-45 319h-63v63h63v-63z" horiz-adv-x="349" vert-adv-y="1000"/><glyph glyph-name="uni0118" unicode="Ę" d="M317 0H69v712h248v-53H128V383h163v-53H128V53h189V0m-17-37l-46-134h-53l53 134h46z" horiz-adv-x="364" vert-adv-y="1000"/><glyph glyph-name="uni0119" unicode="ę" d="M309 246H101q0-85 5-124t21-57q19-23 51-23 33 0 52 20 22 23 22 72h55q0-69-37-107-34-35-92-35-57 0-92 37-24 26-32.5 77.5T45 254q0 98 8.5 149T86 480q34 37 91 37t91-37q24-27 32.5-79t8.5-155m-56 45q-1 125-26 153-19 23-50 23-32 0-51-23-24-27-25-153h152m-4-328l-46-134h-53l53 134h46z" horiz-adv-x="349" vert-adv-y="1000"/><glyph glyph-name="uni011A" unicode="Ě" d="M317 0H69v712h248v-53H128V383h163v-53H128V53h189V0m-8 887l-86-129h-50L86 887h52l60-91 59 91h52z" horiz-adv-x="364" vert-adv-y="1000"/><glyph glyph-name="uni011B" unicode="ě" d="M309 246H101q0-85 5-124t21-57q19-23 51-23 33 0 52 20 22 23 22 72h55q0-69-37-107-34-35-92-35-57 0-92 37-24 26-32.5 77.5T45 254q0 98 8.5 149T86 480q34 37 91 37t91-37q24-27 32.5-79t8.5-155m-56 45q-1 125-26 153-19 23-50 23-32 0-51-23-24-27-25-153h152m35 418l-86-129h-50L65 709h52l60-91 60 91h51z" horiz-adv-x="349" vert-adv-y="1000"/><glyph glyph-name="uni011C" unicode="Ĝ" d="M358 152q0-77-42.5-118.5T210-8q-67 0-106 42-32 34-41 92.5T54 356q0 171 9 229.5t41 92.5q39 42 106 42 65 0 104-39 42-45 44-132h-59q0 118-89 118-40 0-63-26-22-25-28-76.5T113 356q0-157 6-208.5T147 71q23-26 63-26t64.5 28.5Q299 102 299 152v175h-89v50h148V152m-36 612h-52l-59 92-60-92H99l87 130h50l86-130z" horiz-adv-x="412" vert-adv-y="1000"/><glyph glyph-name="uni011D" unicode="ĝ" d="M303 509V-15q0-64-8-96.5T265-168q-35-37-91-37-58 0-92 34-35 36-35 107h55q0-51 22-73 18-19 49-19t50 22q24 25 24 118v65q-9-16-27-29-25-17-57-17-48 0-79 35-23 26-31 74.5T45 260q0 100 8 148t31 73q32 36 79 36 33 0 58-17 17-12 27-30v39h55m-56-368v237q0 47-23 70-21 19-49 19-29 0-48-23-16-19-21-57t-5-128q0-90 5-128t21-57q19-22 48-22 32 0 49 18 23 26 23 71m40 445h-51l-60 92-60-92H64l87 130h50l86-130z" horiz-adv-x="365" vert-adv-y="1000"/><glyph glyph-name="uni011E" unicode="Ğ" d="M358 152q0-77-42.5-118.5T210-8q-67 0-106 42-32 34-41 92.5T54 356q0 171 9 229.5t41 92.5q39 42 106 42 65 0 104-39 42-45 44-132h-59q0 118-89 118-40 0-63-26-22-25-28-76.5T113 356q0-157 6-208.5T147 71q23-26 63-26t64.5 28.5Q299 102 299 152v175h-89v50h148V152m-37 706q-9-104-110-104-102 0-111 104h46q8-60 65-60t64 60h46z" horiz-adv-x="412" vert-adv-y="1000"/><glyph glyph-name="uni011F" unicode="ğ" d="M303 509V-15q0-64-8-96.5T265-168q-35-37-91-37-58 0-92 34-35 36-35 107h55q0-51 22-73 18-19 49-19t50 22q24 25 24 118v65q-9-16-27-29-25-17-57-17-48 0-79 35-23 26-31 74.5T45 260q0 100 8 148t31 73q32 36 79 36 33 0 58-17 17-12 27-30v39h55m-56-368v237q0 47-23 70-21 19-49 19-29 0-48-23-16-19-21-57t-5-128q0-90 5-128t21-57q19-22 48-22 32 0 49 18 23 26 23 71m39 543q-9-104-110-104T65 684h46q7-60 65-60 56 0 65 60h45z" horiz-adv-x="365" vert-adv-y="1000"/><glyph glyph-name="uni0120" unicode="Ġ" d="M358 152q0-77-42.5-118.5T210-8q-67 0-106 42-32 34-41 92.5T54 356q0 171 9 229.5t41 92.5q39 42 106 42 65 0 104-39 42-45 44-132h-59q0 118-89 118-40 0-63-26-22-25-28-76.5T113 356q0-157 6-208.5T147 71q23-26 63-26t64.5 28.5Q299 102 299 152v175h-89v50h148V152M242 784h-63v63h63v-63z" horiz-adv-x="412" vert-adv-y="1000"/><glyph glyph-name="uni0121" unicode="ġ" d="M303 509V-15q0-64-8-96.5T265-168q-35-37-91-37-58 0-92 34-35 36-35 107h55q0-51 22-73 18-19 49-19t50 22q24 25 24 118v65q-9-16-27-29-25-17-57-17-48 0-79 35-23 26-31 74.5T45 260q0 100 8 148t31 73q32 36 79 36 33 0 58-17 17-12 27-30v39h55m-56-368v237q0 47-23 70-21 19-49 19-29 0-48-23-16-19-21-57t-5-128q0-90 5-128t21-57q19-22 48-22 32 0 49 18 23 26 23 71m-40 469h-63v63h63v-63z" horiz-adv-x="365" vert-adv-y="1000"/><glyph glyph-name="uni0122" unicode="Ģ" d="M358 152q0-77-42.5-118.5T210-8q-67 0-106 42-32 34-41 92.5T54 356q0 171 9 229.5t41 92.5q39 42 106 42 65 0 104-39 42-45 44-132h-59q0 118-89 118-40 0-63-26-22-25-28-76.5T113 356q0-157 6-208.5T147 71q23-26 63-26t64.5 28.5Q299 102 299 152v175h-89v50h148V152M236-37l-46-134h-53l53 134h46z" horiz-adv-x="412" vert-adv-y="1000"/><glyph glyph-name="uni0123" unicode="ģ" d="M303 509V-15q0-64-8-96.5T265-168q-35-37-91-37-58 0-92 34-35 36-35 107h55q0-51 22-73 18-19 49-19t50 22q24 25 24 118v65q-9-16-27-29-25-17-57-17-48 0-79 35-23 26-31 74.5T45 260q0 100 8 148t31 73q32 36 79 36 33 0 58-17 17-12 27-30v39h55m-56-368v237q0 47-23 70-21 19-49 19-29 0-48-23-16-19-21-57t-5-128q0-90 5-128t21-57q19-22 48-22 32 0 49 18 23 26 23 71m-95 445l46 134h53l-53-134h-46z" horiz-adv-x="365" vert-adv-y="1000"/><glyph glyph-name="uni0124" unicode="Ĥ" d="M363 0h-59v336H128V0H69v712h59V389h176v323h59V0m-36 764h-52l-59 92-60-92h-52l87 130h50l86-130z" horiz-adv-x="432" vert-adv-y="1000"/><glyph glyph-name="uni0125" unicode="ĥ" d="M315 0h-56v383q0 40-19.5 61.5T189 466q-31 0-51-21.5T118 383V0H62v712h56V469q6 14 28 30 26 18 58 18 47 0 80-35 31-33 31-100V0M202 764h-51l-60 92-60-92h-52l87 130h50l86-130z" horiz-adv-x="373" vert-adv-y="1000"/><glyph glyph-name="uni0126" unicode="Ħ" d="M419 520h-51V0h-59v335H133V0H73v520H23v48h50v144h60V568h176v144h59V568h51v-48M309 389v131H133V389h176z" horiz-adv-x="442" vert-adv-y="1000"/><glyph glyph-name="uni0127" unicode="ħ" d="M329 0h-56v383q0 40-19.5 61.5T203 466q-31 0-51-21.5T132 383V0H76v584H16v42h60v86h56v-86h87v-42h-87V469q6 14 28 30 26 18 58 18 47 0 80-35 31-33 31-100V0z" horiz-adv-x="387" vert-adv-y="1000"/><glyph glyph-name="uni0128" unicode="Ĩ" d="M128 0H69v712h59V0m90 813q-39-38-71-38-23 0-54 17-25 16-42 16-19 0-43-24l-28 29q38 38 70 38 26 0 54-17 27-16 42-16 19 0 43 24l29-29z" horiz-adv-x="197" vert-adv-y="1000"/><glyph glyph-name="uni0129" unicode="ĩ" d="M119 0H63v509h56V0m92 635q-39-38-71-38-23 0-54 17-25 16-42 16-19 0-43-24l-28 29q38 38 70 38 26 0 54-17 27-16 42-16 19 0 43 24l29-29z" horiz-adv-x="181" vert-adv-y="1000"/><glyph glyph-name="uni012A" unicode="Ī" d="M128 0H69v712h59V0m77 785H-7v45h212v-45z" horiz-adv-x="197" vert-adv-y="1000"/><glyph glyph-name="uni012B" unicode="ī" d="M119 0H63v509h56V0m78 611H-15v45h212v-45z" horiz-adv-x="181" vert-adv-y="1000"/><glyph glyph-name="uni012C" unicode="Ĭ" d="M128 0H69v712h59V0m82 858q-9-104-110-104-102 0-111 104h46q7-60 65-60 56 0 64 60h46z" horiz-adv-x="197" vert-adv-y="1000"/><glyph glyph-name="uni012D" unicode="ĭ" d="M119 0H63v509h56V0m83 684q-9-104-110-104T-19 684h46q7-60 65-60 56 0 65 60h45z" horiz-adv-x="181" vert-adv-y="1000"/><glyph glyph-name="uni012E" unicode="Į" d="M128 0H69v712h59V0m-1-37L81-171H28L81-37h46z" horiz-adv-x="197" vert-adv-y="1000"/><glyph glyph-name="uni012F" unicode="į" d="M118 0H62v509h56V0m8 626H54v72h72v-72m-8-663L72-171H19L72-37h46z" horiz-adv-x="181" vert-adv-y="1000"/><glyph glyph-name="uni0130" unicode="İ" d="M128 0H69v712h59V0m2 784H67v63h63v-63z" horiz-adv-x="197" vert-adv-y="1000"/><glyph glyph-name="uni0131" unicode="ı" d="M119 0H63v509h56V0z" horiz-adv-x="181" vert-adv-y="1000"/><glyph glyph-name="uni0132" unicode="Ĳ" d="M128 0H69v712h59V0m340 153q0-78-42-120Q385-8 318-8q-71 0-113 50l43 39q26-36 70-36 40 0 65.5 28.5T409 153v559h59V153z" horiz-adv-x="529" vert-adv-y="1000"/><glyph glyph-name="uni0133" unicode="ĳ" d="M118 0H62v509h56V0m8 626H54v72h72v-72M299-68q0-68-38-103-34-32-101-32v50q83 0 83 86v576h56V-68m8 694h-72v72h72v-72z" horiz-adv-x="362" vert-adv-y="1000"/><glyph glyph-name="uni0134" unicode="Ĵ" d="M271 153q0-78-42-120Q188-8 121-8 50-8 8 42l43 39q26-36 70-36 40 0 65.5 28.5T212 153v559h59V153m82 611h-52l-59 92-60-92h-52l87 130h50l86-130z" horiz-adv-x="332" vert-adv-y="1000"/><glyph glyph-name="uni0135" unicode="ĵ" d="M118-67q0-69-38-104-34-32-101-32v50q41 0 62 20t21 66v576h56V-67m84 653h-51l-60 92-60-92h-52l87 130h50l86-130z" horiz-adv-x="181" vert-adv-y="1000"/><glyph glyph-name="uni0136" unicode="Ķ" d="M399 0h-64L197 352l-69-136V0H69v712h59V325l189 387h63L234 418 399 0M247-37l-46-134h-53l53 134h46z" horiz-adv-x="409" vert-adv-y="1000"/><glyph glyph-name="uni0137" unicode="ķ" d="M357 0h-62L185 265l-67-106V0H62v712h56V242l161 267h61L220 314 357 0M227-37l-46-134h-53l53 134h46z" horiz-adv-x="373" vert-adv-y="1000"/><glyph glyph-name="uni0138" unicode="ĸ" d="M357 0h-62L185 265l-67-106V0H62v509h56V242l161 267h61L220 314 357 0z" horiz-adv-x="373" vert-adv-y="1000"/><glyph glyph-name="uni0139" unicode="Ĺ" d="M317 0H69v712h59V53h189V0M195 894l-75-130H71l65 130h59z" horiz-adv-x="339" vert-adv-y="1000"/><glyph glyph-name="uni013A" unicode="ĺ" d="M196 0Q129 0 95 32 57 67 57 136v576h56V136q0-86 83-86V0m-15 890l-74-130H58l65 130h58z" horiz-adv-x="212" vert-adv-y="1000"/><glyph glyph-name="uni013B" unicode="Ļ" d="M317 0H69v712h59V53h189V0m-89-37l-46-134h-53l53 134h46z" horiz-adv-x="339" vert-adv-y="1000"/><glyph glyph-name="uni013C" unicode="ļ" d="M196 0Q129 0 95 32 57 67 57 136v576h56V136q0-86 83-86V0m-33-37l-46-134H64l53 134h46z" horiz-adv-x="212" vert-adv-y="1000"/><glyph glyph-name="uni013D" unicode="Ľ" d="M317 0H69v712h59V53h189V0m-51 712l-30-134h-44l21 134h53z" horiz-adv-x="339" vert-adv-y="1000"/><glyph glyph-name="uni013E" unicode="ľ" d="M196 0Q129 0 95 32 57 67 57 136v576h56V136q0-86 83-86V0m37 719l-30-134h-44l21 134h53z" horiz-adv-x="212" vert-adv-y="1000"/><glyph glyph-name="uni013F" unicode="Ŀ" d="M317 0H69v712h59V53h189V0m-16 324h-63v63h63v-63z" horiz-adv-x="339" vert-adv-y="1000"/><glyph glyph-name="uni0140" unicode="ŀ" d="M196 0Q129 0 95 32 57 67 57 136v576h56V136q0-86 83-86V0m27 274h-63v63h63v-63z" horiz-adv-x="208" vert-adv-y="1000"/><glyph glyph-name="uni0141" unicode="Ł" d="M318 0H70v294l-50-47v64l50 48v353h59V412l95 90v-64l-95-91V53h189V0z" horiz-adv-x="341" vert-adv-y="1000"/><glyph glyph-name="uni0142" unicode="ł" d="M218 0q-67 0-101 32-38 35-38 104v184l-62-64v63l62 64v329h56V436l63 66v-63l-63-66V136q0-86 83-86V0z" horiz-adv-x="238" vert-adv-y="1000"/><glyph glyph-name="uni0143" unicode="Ń" d="M385 0h-58L128 555V0H69v712h59l198-555v555h59V0m-62 894l-75-130h-49l65 130h59z" horiz-adv-x="454" vert-adv-y="1000"/><glyph glyph-name="uni0144" unicode="ń" d="M315 0h-56v383q0 40-19.5 61.5T189 466q-31 0-51-21.5T118 383V0H62v509h55v-41q10 18 29 31 26 18 58 18 47 0 80-35 31-33 31-100V0m-29 716l-74-130h-49l65 130h58z" horiz-adv-x="373" vert-adv-y="1000"/><glyph glyph-name="uni0145" unicode="Ņ" d="M385 0h-58L128 555V0H69v712h59l198-555v555h59V0M247-37l-46-134h-53l53 134h46z" horiz-adv-x="454" vert-adv-y="1000"/><glyph glyph-name="uni0146" unicode="ņ" d="M315 0h-56v383q0 40-19.5 61.5T189 466q-31 0-51-21.5T118 383V0H62v509h55v-41q10 18 29 31 26 18 58 18 47 0 80-35 31-33 31-100V0m-96-37l-46-134h-53l53 134h46z" horiz-adv-x="373" vert-adv-y="1000"/><glyph glyph-name="uni0147" unicode="Ň" d="M385 0h-58L128 555V0H69v712h59l198-555v555h59V0m-47 887l-86-129h-50l-87 129h52l60-91 59 91h52z" horiz-adv-x="454" vert-adv-y="1000"/><glyph glyph-name="uni0148" unicode="ň" d="M315 0h-56v383q0 40-19.5 61.5T189 466q-31 0-51-21.5T118 383V0H62v509h55v-41q10 18 29 31 26 18 58 18 47 0 80-35 31-33 31-100V0m-14 709l-86-129h-50L78 709h52l60-91 60 91h51z" horiz-adv-x="373" vert-adv-y="1000"/><glyph glyph-name="uni0149" unicode="ŉ" d="M325 0h-56v383q0 40-19.5 61.5T199 466q-31 0-51-21.5T128 383V0H72v509h55v-41q10 18 29 31 26 18 58 18 47 0 80-35 31-33 31-100V0M52 607L0 567v152h52V607z" horiz-adv-x="383" vert-adv-y="1000"/><glyph glyph-name="uni014A" unicode="Ŋ" d="M246-120q40 1 60.5 20.5T327-34V0L128 555V0H69v712h59l198-555v555h59V-34q0-69-38-104-34-32-101-32v50z" horiz-adv-x="454" vert-adv-y="1000"/><glyph glyph-name="uni014B" unicode="ŋ" d="M315-35q0-69-38-104-34-32-101-32v50q41 0 62 20t21 66v418q0 40-19.5 61.5T189 466q-31 0-51-21.5T118 383V0H62v509h55v-41q10 18 29 31 26 18 58 18 47 0 80-35 31-33 31-100V-35z" horiz-adv-x="373" vert-adv-y="1000"/><glyph glyph-name="uni014C" unicode="Ō" d="M358 585.5l4.5-29.25Q367 527 367 356t-9-229.5Q349 68 317 34 278-8 210-8q-67 0-106 42-32 34-41 92.5T54 356q0 171 9 229.5t41 92.5q39 42 106 42 68 0 107-42 32-34 41-92.5m-56-438l3 25.75Q308 199 308 356t-6 208.5q-6 51.5-28 76.5-23 26-64 26-40 0-63-26-22-25-28-76.5T113 356q0-157 6-208.5T147 71q23-26 63-26 41 0 64 26 22 25 28 76.5M317 785H105v45h212v-45z" horiz-adv-x="421" vert-adv-y="1000"/><glyph glyph-name="uni014D" unicode="ō" d="M301 399l4-25q4-25 4-120t-8-145q-8-50-30-77-33-40-94-40T83 32q-22 27-30 77t-8 145q0 95 8 145t30 77q33 41 94 41t94-41q22-27 30-77m-53-274l2.5 20q2.5 20 2.5 109t-5 129.5q-5 40.5-21 60.5-19 23-50 23-32 0-51-23-16-20-20.5-60T101 254q0-90 4.5-129.5T126 65q19-23 51-23 31 0 50 23 16 20 21 60m35 486H71v45h212v-45z" horiz-adv-x="353" vert-adv-y="1000"/><glyph glyph-name="uni014E" unicode="Ŏ" d="M358 585.5l4.5-29.25Q367 527 367 356t-9-229.5Q349 68 317 34 278-8 210-8q-67 0-106 42-32 34-41 92.5T54 356q0 171 9 229.5t41 92.5q39 42 106 42 68 0 107-42 32-34 41-92.5m-56-438l3 25.75Q308 199 308 356t-6 208.5q-6 51.5-28 76.5-23 26-64 26-40 0-63-26-22-25-28-76.5T113 356q0-157 6-208.5T147 71q23-26 63-26 41 0 64 26 22 25 28 76.5M322 858q-9-104-110-104-102 0-111 104h46q7-60 65-60 56 0 64 60h46z" horiz-adv-x="421" vert-adv-y="1000"/><glyph glyph-name="uni014F" unicode="ŏ" d="M301 399l4-25q4-25 4-120t-8-145q-8-50-30-77-33-40-94-40T83 32q-22 27-30 77t-8 145q0 95 8 145t30 77q33 41 94 41t94-41q22-27 30-77m-53-274l2.5 20q2.5 20 2.5 109t-5 129.5q-5 40.5-21 60.5-19 23-50 23-32 0-51-23-16-20-20.5-60T101 254q0-90 4.5-129.5T126 65q19-23 51-23 31 0 50 23 16 20 21 60m40 559q-9-104-110-104T67 684h46q7-60 65-60 56 0 65 60h45z" horiz-adv-x="353" vert-adv-y="1000"/><glyph glyph-name="uni0150" unicode="Ő" d="M358 585.5l4.5-29.25Q367 527 367 356t-9-229.5Q349 68 317 34 278-8 210-8q-67 0-106 42-32 34-41 92.5T54 356q0 171 9 229.5t41 92.5q39 42 106 42 68 0 107-42 32-34 41-92.5m-56-438l3 25.75Q308 199 308 356t-6 208.5q-6 51.5-28 76.5-23 26-64 26-40 0-63-26-22-25-28-76.5T113 356q0-157 6-208.5T147 71q23-26 63-26 41 0 64 26 22 25 28 76.5M241 894l-70-130h-48l59 130h59m126 0l-70-130h-47l58 130h59z" horiz-adv-x="421" vert-adv-y="1000"/><glyph glyph-name="uni0151" unicode="ő" d="M301 399l4-25q4-25 4-120t-8-145q-8-50-30-77-33-40-94-40T83 32q-22 27-30 77t-8 145q0 95 8 145t30 77q33 41 94 41t94-41q22-27 30-77m-53-274l2.5 20q2.5 20 2.5 109t-5 129.5q-5 40.5-21 60.5-19 23-50 23-32 0-51-23-16-20-20.5-60T101 254q0-90 4.5-129.5T126 65q19-23 51-23 31 0 50 23 16 20 21 60m-43 591l-69-130H88l59 130h58m126 0l-69-130h-47l58 130h58z" horiz-adv-x="353" vert-adv-y="1000"/><glyph glyph-name="uni0152" unicode="Œ" d="M556 0H310v40Q276-8 209-8q-66 0-105 42-32 35-41 95.5T54 356q0 166 9 226.5t41 95.5q39 42 105 42 68 0 101-48v40h246v-53H366V383h164v-53H366V53h190V0M302 148l3 25.5q3 25.5 3 182.5t-6 208q-6 51-28 77-23 26-64 26-40 0-63-26-22-26-28-77t-6-208q0-157 6-208t28-77q23-26 63-26 41 0 64 26 22 26 28 77z" horiz-adv-x="602" vert-adv-y="1000"/><glyph glyph-name="uni0153" unicode="œ" d="M516 246H309q0-85 5-124t21-57q19-23 51-23 34 0 51 20 23 23 23 72h55q0-68-38-107-32-35-91-35-52 0-86 34-13 15-19 29-6-14-19-29-31-34-85-34-60 0-94 40-22 27-30 77t-8 145q0 95 8 145.5T83 476q33 41 94 41 52 0 86-34 11-13 18-29 7 17 19 29 34 34 84 34 57 0 91-37 24-27 32.5-79t8.5-155M248 124.5l2.5 20.25Q253 165 253 254t-5 129.5q-5 40.5-21 60.5-19 23-50 23-32 0-51-23-16-20-20.5-60T101 254q0-91 4.5-130.5T126 65q18-23 51-23 32 0 50 23 16 19 21 59.5M460 291q0 70-5 103t-20 50q-19 23-51 23-31 0-50-23-15-17-20-50t-5-103h151z" horiz-adv-x="559" vert-adv-y="1000"/><glyph glyph-name="uni0154" unicode="Ŕ" d="M386 0h-63L220 319h-92V0H69v712h140q74 0 114-41t40-156q0-152-88-185L386 0M283.5 407l10.25 17.5Q304 442 304 515t-20.5 108.5Q263 659 211 659h-83V372h83q52 0 72.5 35M298 894l-75-130h-49l65 130h59z" horiz-adv-x="432" vert-adv-y="1000"/><glyph glyph-name="uni0155" unicode="ŕ" d="M229 464h-12q-45 0-72-26.5T118 365V0H62v509h55v-54q8 17 25 32 33 30 87 30v-53m-3 252l-74-130h-49l65 130h58z" horiz-adv-x="245" vert-adv-y="1000"/><glyph glyph-name="uni0156" unicode="Ŗ" d="M386 0h-63L220 319h-92V0H69v712h140q74 0 114-41t40-156q0-152-88-185L386 0M283.5 407l10.25 17.5Q304 442 304 515t-20.5 108.5Q263 659 211 659h-83V372h83q52 0 72.5 35M244-37l-46-134h-53l53 134h46z" horiz-adv-x="432" vert-adv-y="1000"/><glyph glyph-name="uni0157" unicode="ŗ" d="M229 464h-12q-45 0-72-26.5T118 365V0H62v509h55v-54q8 17 25 32 33 30 87 30v-53M118-37L72-171H19L72-37h46z" horiz-adv-x="245" vert-adv-y="1000"/><glyph glyph-name="uni0158" unicode="Ř" d="M386 0h-63L220 319h-92V0H69v712h140q74 0 114-41t40-156q0-152-88-185L386 0M283.5 407l10.25 17.5Q304 442 304 515t-20.5 108.5Q263 659 211 659h-83V372h83q52 0 72.5 35M313 887l-86-129h-50L90 887h52l60-91 59 91h52z" horiz-adv-x="432" vert-adv-y="1000"/><glyph glyph-name="uni0159" unicode="ř" d="M229 464h-12q-45 0-72-26.5T118 365V0H62v509h55v-54q8 17 25 32 33 30 87 30v-53m13 245l-86-129h-50L19 709h52l60-91 60 91h51z" horiz-adv-x="245" vert-adv-y="1000"/><glyph glyph-name="uni015A" unicode="Ś" d="M350 186q0-110-44-154Q268-6 195-6 121-6 83 32 59 57 50 88t-9 90h59q0-79 28-107 24-24 67-24 46 0 68 24 28 30 28 113 0 68-15 98t-60 48l-76 31q-55 22-74.5 59.5T46 539q0 95 49 141 40 38 104 38 68 0 107-39 25-25 34-56.5t9-81.5h-59q0 67-27 98-23 26-65 26-39 0-62-23-31-31-31-102 0-62 14.5-87.5T182 407l76-31q55-22 73.5-64.5T350 186m-52 708l-75-130h-49l65 130h59z" horiz-adv-x="396" vert-adv-y="1000"/><glyph glyph-name="uni015B" unicode="ś" d="M303 130q0-59-40-99-39-39-97-39-57 0-93 36-40 41-40 110h56q0-49 26-75 21-21 51-21 35 0 58 23t23 63q0 33-14 55-16 25-51 44l-64 35q-46 26-66 60-14 27-14 64 0 56 40 96 35 35 91 35 57 0 91-34 37-37 37-110h-56q0 51-22 74-19 20-50 20-34 0-53-19-22-21-22-60 0-27 10-44 9-16 47-38l63-36q49-27 69-60t20-80m-34 586l-74-130h-49l65 130h58z" horiz-adv-x="336" vert-adv-y="1000"/><glyph glyph-name="uni015C" unicode="Ŝ" d="M350 186q0-110-44-154Q268-6 195-6 121-6 83 32 59 57 50 88t-9 90h59q0-79 28-107 24-24 67-24 46 0 68 24 28 30 28 113 0 68-15 98t-60 48l-76 31q-55 22-74.5 59.5T46 539q0 95 49 141 40 38 104 38 68 0 107-39 25-25 34-56.5t9-81.5h-59q0 67-27 98-23 26-65 26-39 0-62-23-31-31-31-102 0-62 14.5-87.5T182 407l76-31q55-22 73.5-64.5T350 186m-37 578h-52l-59 92-60-92H90l87 130h50l86-130z" horiz-adv-x="396" vert-adv-y="1000"/><glyph glyph-name="uni015D" unicode="ŝ" d="M303 130q0-59-40-99-39-39-97-39-57 0-93 36-40 41-40 110h56q0-49 26-75 21-21 51-21 35 0 58 23t23 63q0 33-14 55-16 25-51 44l-64 35q-46 26-66 60-14 27-14 64 0 56 40 96 35 35 91 35 57 0 91-34 37-37 37-110h-56q0 51-22 74-19 20-50 20-34 0-53-19-22-21-22-60 0-27 10-44 9-16 47-38l63-36q49-27 69-60t20-80m-19 456h-51l-60 92-60-92H61l87 130h50l86-130z" horiz-adv-x="336" vert-adv-y="1000"/><glyph glyph-name="uni015E" unicode="Ş" d="M350 186q0-110-44-154Q268-6 195-6 121-6 83 32 59 57 50 88t-9 90h59q0-79 28-107 24-24 67-24 46 0 68 24 28 30 28 113 0 68-15 98t-60 48l-76 31q-55 22-74.5 59.5T46 539q0 95 49 141 40 38 104 38 68 0 107-39 25-25 34-56.5t9-81.5h-59q0 67-27 98-23 26-65 26-39 0-62-23-31-31-31-102 0-62 14.5-87.5T182 407l76-31q55-22 73.5-64.5T350 186M218-37l-46-134h-53l53 134h46z" horiz-adv-x="396" vert-adv-y="1000"/><glyph glyph-name="uni015F" unicode="ş" d="M303 130q0-59-40-99-39-39-97-39-57 0-93 36-40 41-40 110h56q0-49 26-75 21-21 51-21 35 0 58 23t23 63q0 33-14 55-16 25-51 44l-64 35q-46 26-66 60-14 27-14 64 0 56 40 96 35 35 91 35 57 0 91-34 37-37 37-110h-56q0 51-22 74-19 20-50 20-34 0-53-19-22-21-22-60 0-27 10-44 9-16 47-38l63-36q49-27 69-60t20-80M190-37l-46-134H91l53 134h46z" horiz-adv-x="336" vert-adv-y="1000"/><glyph glyph-name="uni0160" unicode="Š" d="M350 186q0-110-44-154Q268-6 195-6 121-6 83 32 59 57 50 88t-9 90h59q0-79 28-107 24-24 67-24 46 0 68 24 28 30 28 113 0 68-15 98t-60 48l-76 31q-55 22-74.5 59.5T46 539q0 95 49 141 40 38 104 38 68 0 107-39 25-25 34-56.5t9-81.5h-59q0 67-27 98-23 26-65 26-39 0-62-23-31-31-31-102 0-62 14.5-87.5T182 407l76-31q55-22 73.5-64.5T350 186m-33 701l-86-129h-50L94 887h52l60-91 59 91h52z" horiz-adv-x="396" vert-adv-y="1000"/><glyph glyph-name="uni0161" unicode="š" d="M303 130q0-59-40-99-39-39-97-39-57 0-93 36-40 41-40 110h56q0-49 26-75 21-21 51-21 35 0 58 23t23 63q0 33-14 55-16 25-51 44l-64 35q-46 26-66 60-14 27-14 64 0 56 40 96 35 35 91 35 57 0 91-34 37-37 37-110h-56q0 51-22 74-19 20-50 20-34 0-53-19-22-21-22-60 0-27 10-44 9-16 47-38l63-36q49-27 69-60t20-80m-19 579l-86-129h-50L61 709h52l60-91 60 91h51z" horiz-adv-x="336" vert-adv-y="1000"/><glyph glyph-name="uni0162" unicode="Ţ" d="M319 659H200V0h-59v659H22v53h297v-53M194-37l-46-134H95l53 134h46z" horiz-adv-x="341" vert-adv-y="1000"/><glyph glyph-name="uni0163" unicode="ţ" d="M225 0q-75 0-109 32-38 35-38 104v329H16v44h62v149h56V509h87v-44h-87V136q0-86 91-86V0m-44-37l-46-134H82l53 134h46z" horiz-adv-x="245" vert-adv-y="1000"/><glyph glyph-name="uni0164" unicode="Ť" d="M319 659H200V0h-59v659H22v53h297v-53m-39 228l-86-129h-50L57 887h52l60-91 59 91h52z" horiz-adv-x="341" vert-adv-y="1000"/><glyph glyph-name="uni0165" unicode="ť" d="M225 0q-75 0-109 32-38 35-38 104v329H16v44h62v149h56V509h87v-44h-87V136q0-86 91-86V0m28 719l-30-134h-44l21 134h53z" horiz-adv-x="245" vert-adv-y="1000"/><glyph glyph-name="uni0166" unicode="Ŧ" d="M273 332h-73V0h-59v332H70v49h71v278H22v53h297v-53H200V381h73v-49z" horiz-adv-x="341" vert-adv-y="1000"/><glyph glyph-name="uni0167" unicode="ŧ" d="M225 0q-75 0-109 32-38 35-38 104v148H16v44h62v137H16v44h62v149h56V509h87v-44h-87V328h87v-44h-87V136q0-86 91-86V0z" horiz-adv-x="245" vert-adv-y="1000"/><glyph glyph-name="uni0168" unicode="Ũ" d="M356 148q0-73-42-115Q271-8 209-8T104 33Q61 76 61 148v564h59V143q0-45 25.5-71.5T209 45q38 0 63 26.5t25 71.5v569h59V148m-26 665q-39-38-71-38-23 0-54 17-25 16-42 16-19 0-43-24l-28 29q38 38 70 38 26 0 54-17 27-16 42-16 19 0 43 24l29-29z" horiz-adv-x="417" vert-adv-y="1000"/><glyph glyph-name="uni0169" unicode="ũ" d="M311 0h-55v41q-10-18-29-31-26-18-58-18-48 0-80 34-31 33-31 101v382h56V126q0-40 19.5-61.5T184 43q31 0 51 21.5t20 61.5v383h56V0m-8 635q-39-38-71-38-23 0-54 17-25 16-42 16-19 0-43-24l-28 29q38 38 70 38 26 0 54-17 27-16 42-16 19 0 43 24l29-29z" horiz-adv-x="373" vert-adv-y="1000"/><glyph glyph-name="uni016A" unicode="Ū" d="M356 148q0-73-42-115Q271-8 209-8T104 33Q61 76 61 148v564h59V143q0-45 25.5-71.5T209 45q38 0 63 26.5t25 71.5v569h59V148m-40 637H104v45h212v-45z" horiz-adv-x="417" vert-adv-y="1000"/><glyph glyph-name="uni016B" unicode="ū" d="M311 0h-55v41q-10-18-29-31-26-18-58-18-48 0-80 34-31 33-31 101v382h56V126q0-40 19.5-61.5T184 43q31 0 51 21.5t20 61.5v383h56V0m-21 611H78v45h212v-45z" horiz-adv-x="373" vert-adv-y="1000"/><glyph glyph-name="uni016C" unicode="Ŭ" d="M356 148q0-73-42-115Q271-8 209-8T104 33Q61 76 61 148v564h59V143q0-45 25.5-71.5T209 45q38 0 63 26.5t25 71.5v569h59V148m-36 710q-9-104-110-104-102 0-111 104h46q7-60 65-60 56 0 64 60h46z" horiz-adv-x="417" vert-adv-y="1000"/><glyph glyph-name="uni016D" unicode="ŭ" d="M311 0h-55v41q-10-18-29-31-26-18-58-18-48 0-80 34-31 33-31 101v382h56V126q0-40 19.5-61.5T184 43q31 0 51 21.5t20 61.5v383h56V0m-17 684q-9-104-110-104T73 684h46q7-60 65-60 56 0 65 60h45z" horiz-adv-x="373" vert-adv-y="1000"/><glyph glyph-name="uni016E" unicode="Ů" d="M356 148q0-73-42-115Q271-8 209-8T104 33Q61 76 61 148v564h59V143q0-45 25.5-71.5T209 45q38 0 63 26.5t25 71.5v569h59V148m-82 758l13.5-13.5Q301 879 301 842t-27-64q-27-27-64-27-38 0-64.5 26.5T119 842q0 38 26.5 64.5T210 933q37 0 64-27m-27.5-101.5l7.75 7.75Q262 820 262 842t-15.5 37Q231 894 210 894q-22 0-37.5-15T157 842q0-22 15.5-37.5T210 789q21 0 36.5 15.5z" horiz-adv-x="417" vert-adv-y="1000"/><glyph glyph-name="uni016F" unicode="ů" d="M311 0h-55v41q-10-18-29-31-26-18-58-18-48 0-80 34-31 33-31 101v382h56V126q0-40 19.5-61.5T184 43q31 0 51 21.5t20 61.5v383h56V0m-62.5 736.5l13.25-13.25Q275 710 275 672t-26.5-64.5Q222 581 184 581t-64.5 26.5Q93 634 93 672t26.5 64.5Q146 763 184 763t64.5-26.5M236 672q0 22-15.5 37.5T184 725q-22 0-37.5-15.5T131 672q0-21 15.5-36.5T184 620q21 0 36.5 15.5T236 672z" horiz-adv-x="373" vert-adv-y="1000"/><glyph glyph-name="uni0170" unicode="Ű" d="M356 148q0-73-42-115Q271-8 209-8T104 33Q61 76 61 148v564h59V143q0-45 25.5-71.5T209 45q38 0 63 26.5t25 71.5v569h59V148M239 894l-70-130h-48l59 130h59m126 0l-70-130h-47l58 130h59z" horiz-adv-x="417" vert-adv-y="1000"/><glyph glyph-name="uni0171" unicode="ű" d="M311 0h-55v41q-10-18-29-31-26-18-58-18-48 0-80 34-31 33-31 101v382h56V126q0-40 19.5-61.5T184 43q31 0 51 21.5t20 61.5v383h56V0m-99 716l-69-130H95l59 130h58m126 0l-69-130h-47l58 130h58z" horiz-adv-x="373" vert-adv-y="1000"/><glyph glyph-name="uni0172" unicode="Ų" d="M356 148q0-73-42-115Q271-8 209-8T104 33Q61 76 61 148v564h59V143q0-45 25.5-71.5T209 45q38 0 63 26.5t25 71.5v569h59V148M307-37l-46-134h-53l53 134h46z" horiz-adv-x="417" vert-adv-y="1000"/><glyph glyph-name="uni0173" unicode="ų" d="M311 0h-55v41q-10-18-29-31-26-18-58-18-48 0-80 34-31 33-31 101v382h56V126q0-40 19.5-61.5T184 43q31 0 51 21.5t20 61.5v383h56V0m-1-37l-46-134h-53l53 134h46z" horiz-adv-x="373" vert-adv-y="1000"/><glyph glyph-name="uni0174" unicode="Ŵ" d="M583 712L475 0h-62L294 607 176 0h-62L4 712h65l76-606 115 606h67l117-606 75 606h64m-178 52h-52l-59 92-60-92h-52l87 130h50l86-130z" horiz-adv-x="587" vert-adv-y="1000"/><glyph glyph-name="uni0175" unicode="ŵ" d="M470 509L371 0h-60l-77 416L161 0h-60L4 509h65l63-421 74 421h56l78-421 65 421h65m-124 77h-51l-60 92-60-92h-52l87 130h50l86-130z" horiz-adv-x="474" vert-adv-y="1000"/><glyph glyph-name="uni0176" unicode="Ŷ" d="M312 712L187 298V0h-59v298L3 712h65l89-326 90 326h65m-43 52h-52l-59 92-60-92H46l87 130h50l86-130z" horiz-adv-x="315" vert-adv-y="1000"/><glyph glyph-name="uni0177" unicode="ŷ" d="M301 509L157-99q-14-57-50.5-80.5T9-203v50q76 0 93 65l23 90L4 509h62l87-420 87 420h61m-32 77h-51l-60 92-60-92H46l87 130h50l86-130z" horiz-adv-x="308" vert-adv-y="1000"/><glyph glyph-name="uni0178" unicode="Ÿ" d="M312 712L187 298V0h-59v298L3 712h65l89-326 90 326h65m-53 72h-63v63h63v-63m-138 0H58v63h63v-63z" horiz-adv-x="315" vert-adv-y="1000"/><glyph glyph-name="uni0179" unicode="Ź" d="M294 0H30v46l203 613H44v53h250v-46L92 53h202V0m-30 894l-75-130h-49l65 130h59z" horiz-adv-x="324" vert-adv-y="1000"/><glyph glyph-name="uni017A" unicode="ź" d="M255 0H22v44l172 415H32v50h223v-44L83 50h172V0m-15 716l-74-130h-49l65 130h58z" horiz-adv-x="276" vert-adv-y="1000"/><glyph glyph-name="uni017B" unicode="Ż" d="M294 0H30v46l203 613H44v53h250v-46L92 53h202V0m-95 784h-63v63h63v-63z" horiz-adv-x="324" vert-adv-y="1000"/><glyph glyph-name="uni017C" unicode="ż" d="M255 0H22v44l172 415H32v50h223v-44L83 50h172V0m-80 610h-63v63h63v-63z" horiz-adv-x="276" vert-adv-y="1000"/><glyph glyph-name="uni017D" unicode="Ž" d="M294 0H30v46l203 613H44v53h250v-46L92 53h202V0m-15 887l-86-129h-50L56 887h52l60-91 59 91h52z" horiz-adv-x="324" vert-adv-y="1000"/><glyph glyph-name="uni017E" unicode="ž" d="M255 0H22v44l172 415H32v50h223v-44L83 50h172V0m0 709l-86-129h-50L32 709h52l60-91 60 91h51z" horiz-adv-x="276" vert-adv-y="1000"/><glyph glyph-name="uni017F" unicode="ſ" d="M118 578V0H62v578q0 68 38 103 37 33 105 33v-51q-87 0-87-85z" horiz-adv-x="181" vert-adv-y="1000"/><glyph glyph-name="uni018F" unicode="Ə" d="M54 152v225h245q-1 143-7 191t-27 73q-23 26-63 26-89 0-89-118H54q0 85 45 132 39 39 103 39 67 0 106-42 33-35 41.5-94t8.5-228q0-169-8.5-228T308 34Q269-8 202-8 139-8 96.5 34T54 152m59 175V152q0-49 25-78t64-29q40 0 63 26 20 25 26.5 72.5T299 327H113z" horiz-adv-x="412" vert-adv-y="1000"/><glyph glyph-name="uni0192" unicode="ƒ" d="M316 664h-19q-36 0-60.5-21T205 583l-37-201h83v-44h-91L56-204H0l104 542H47v44h65l37 202q12 63 51.5 96.5T301 714h15v-50z" horiz-adv-x="337" vert-adv-y="1000"/><glyph glyph-name="uni01B5" unicode="Ƶ" d="M294 0H30v46l94 286H60v49h81l92 278H44v53h250v-46l-94-285h64v-49h-80L92 53h202V0z" horiz-adv-x="324" vert-adv-y="1000"/><glyph glyph-name="uni01B6" unicode="ƶ" d="M255 0H22v44l78 188H43v45h75l76 182H32v50h223v-44l-78-188h61v-45h-80L83 50h172V0z" horiz-adv-x="276" vert-adv-y="1000"/><glyph glyph-name="uni01C4" unicode="Ǆ" d="M362 580l4.5-28.5Q371 523 371 356t-9-224q-9-57-41-91Q282 0 215 0H69v712h146q67 0 106-41 32-34 41-91m-56-428.5l3 24.75Q312 201 312 356t-6 204.5q-6 49.5-29 73.5-22 25-65 25h-84V53h84q43 0 65 25 23 24 29 73.5M718 0H454v46l203 613H468v53h250v-46L516 53h202V0m-15 887l-86-129h-50l-87 129h52l60-91 59 91h52z" horiz-adv-x="748" vert-adv-y="1000"/><glyph glyph-name="uni01C5" unicode="ǅ" d="M362 580l4.5-28.5Q371 523 371 356t-9-224q-9-57-41-91Q282 0 215 0H69v712h146q67 0 106-41 32-34 41-91m-56-428.5l3 24.75Q312 201 312 356t-6 204.5q-6 49.5-29 73.5-22 25-65 25h-84V53h84q43 0 65 25 23 24 29 73.5M679 0H446v44l172 415H456v50h223v-44L507 50h172V0m0 709l-86-129h-50l-87 129h52l60-91 60 91h51z" horiz-adv-x="700" vert-adv-y="1000"/><glyph glyph-name="uni01C6" unicode="ǆ" d="M303 0h-55v41q-8-18-28-31-26-18-58-18-48 0-79 36-22 25-30 75.5T45 254q0 100 8 150t30 77q29 36 79 36 36 0 58-16 16-12 27-30v241h56V0m-56 131v247q0 47-23 70-21 19-49 19-29 0-48-23-16-19-21-58.5T101 254q0-92 5-131.5T127 64q19-22 48-22 28 0 49 19 23 23 23 70M620 0H387v44l172 415H397v50h223v-44L448 50h172V0m0 709l-86-129h-50l-87 129h52l60-91 60 91h51z" horiz-adv-x="641" vert-adv-y="1000"/><glyph glyph-name="uni01C7" unicode="Ǉ" d="M317 0H69v712h59V53h189V0m293 153q0-78-42-120Q527-8 460-8q-71 0-113 50l43 39q26-36 70-36 40 0 65.5 28.5T551 153v559h59V153z" horiz-adv-x="671" vert-adv-y="1000"/><glyph glyph-name="uni01C8" unicode="ǈ" d="M317 0H69v712h59V53h189V0m140-68q0-68-38-103-34-32-101-32v50q83 0 83 86v576h56V-68m8 694h-72v72h72v-72z" horiz-adv-x="520" vert-adv-y="1000"/><glyph glyph-name="uni01C9" unicode="ǉ" d="M196 0Q129 0 95 32 57 67 57 136v576h56V136q0-86 83-86V0m134-68q0-68-38-103-34-32-101-32v50q83 0 83 86v576h56V-68m8 694h-72v72h72v-72z" horiz-adv-x="393" vert-adv-y="1000"/><glyph glyph-name="uni01CA" unicode="Ǌ" d="M385 0h-58L128 555V0H69v712h59l198-555v555h59V0m340 153q0-78-42-120Q642-8 575-8q-71 0-113 50l43 39q26-36 70-36 40 0 65.5 28.5T666 153v559h59V153z" horiz-adv-x="786" vert-adv-y="1000"/><glyph glyph-name="uni01CB" unicode="ǋ" d="M385 0h-58L128 555V0H69v712h59l198-555v555h59V0m187-68q0-68-38-103-34-32-101-32v50q83 0 83 86v576h56V-68m8 694h-72v72h72v-72z" horiz-adv-x="635" vert-adv-y="1000"/><glyph glyph-name="uni01CC" unicode="ǌ" d="M315 0h-56v383q0 40-19.5 61.5T189 466q-31 0-51-21.5T118 383V0H62v509h55v-41q10 18 29 31 26 18 58 18 47 0 80-35 31-33 31-100V0m176-68q0-68-38-103-34-32-101-32v50q83 0 83 86v576h56V-68m8 694h-72v72h72v-72z" horiz-adv-x="554" vert-adv-y="1000"/><glyph glyph-name="uni01F1" unicode="Ǳ" d="M362 580l4.5-28.5Q371 523 371 356t-9-224q-9-57-41-91Q282 0 215 0H69v712h146q67 0 106-41 32-34 41-91m-56-428.5l3 24.75Q312 201 312 356t-6 204.5q-6 49.5-29 73.5-22 25-65 25h-84V53h84q43 0 65 25 23 24 29 73.5M718 0H454v46l203 613H468v53h250v-46L516 53h202V0z" horiz-adv-x="748" vert-adv-y="1000"/><glyph glyph-name="uni01F2" unicode="ǲ" d="M362 580l4.5-28.5Q371 523 371 356t-9-224q-9-57-41-91Q282 0 215 0H69v712h146q67 0 106-41 32-34 41-91m-56-428.5l3 24.75Q312 201 312 356t-6 204.5q-6 49.5-29 73.5-22 25-65 25h-84V53h84q43 0 65 25 23 24 29 73.5M679 0H446v44l172 415H456v50h223v-44L507 50h172V0z" horiz-adv-x="700" vert-adv-y="1000"/><glyph glyph-name="uni01F3" unicode="ǳ" d="M303 0h-55v41q-8-18-28-31-26-18-58-18-48 0-79 36-22 25-30 75.5T45 254q0 100 8 150t30 77q29 36 79 36 36 0 58-16 16-12 27-30v241h56V0m-56 131v247q0 47-23 70-21 19-49 19-29 0-48-23-16-19-21-58.5T101 254q0-92 5-131.5T127 64q19-22 48-22 28 0 49 19 23 23 23 70M620 0H387v44l172 415H397v50h223v-44L448 50h172V0z" horiz-adv-x="641" vert-adv-y="1000"/><glyph glyph-name="uni01FA" unicode="Ǻ" d="M374 0h-63l-39 195H106L68 0H4l159 712h55L374 0M261 248l-72 358-71-358h143m-5 658l13.5-13.5Q283 879 283 842t-27-64q-27-27-64-27-38 0-64.5 26.5T101 842q0 38 26.5 64.5T192 933q37 0 64-27m-27.5-101.5l7.75 7.75Q244 820 244 842t-15.5 37Q213 894 192 894q-22 0-37.5-15T139 842q0-22 15.5-37.5T192 789q21 0 36.5 15.5M288 1073l-75-130h-49l65 130h59z" horiz-adv-x="379" vert-adv-y="1000"/><glyph glyph-name="uni01FB" unicode="ǻ" d="M294 0h-54v46q-10-20-28-34-27-20-61-20-48 0-81 34-33 35-33 115 0 76 43 115 37 34 100 34h58v91q0 87-70 87-27 0-46-19-23-24-23-71H43q0 68 37 105 34 34 88 34 61 0 91-32 35-37 35-106V0m-56 134v112h-56q-39 0-62-22-27-27-27-82 0-100 71-100 33 0 53.5 26t20.5 66m-1.5 602.5l13.25-13.25Q263 710 263 672t-26.5-64.5Q210 581 172 581t-64.5 26.5Q81 634 81 672t26.5 64.5Q134 763 172 763t64.5-26.5M224 672q0 22-15.5 37.5T172 725q-22 0-37.5-15.5T119 672q0-21 15.5-36.5T172 620q21 0 36.5 15.5T224 672m44 231l-74-130h-49l65 130h58z" horiz-adv-x="352" vert-adv-y="1000"/><glyph glyph-name="uni01FC" unicode="Ǽ" d="M558 0H309v197H141L69 0H5l265 712h288v-53H368V383h164v-53H368V53h190V0M309 250v410L160 250h149m128 644l-75-130h-49l65 130h59z" horiz-adv-x="604" vert-adv-y="1000"/><glyph glyph-name="uni01FD" unicode="ǽ" d="M502 246H294q0-83 5-122.5T320 65q19-23 52-23 31 0 51 20 22 22 22 72h55q0-69-37-107-34-35-91-35-51 0-83 30-20 20-31 45-14-36-36-52-30-23-71-23-48 0-81 34-33 35-33 115 0 76 43 115 37 34 100 34h58v91q0 87-70 87-29 0-46-19-23-23-23-71H43q0 68 37 105 34 34 88 34t84-28q11-11 18-25 7 11 15 19 32 34 85 34 57 0 91-37 24-27 32.5-79t8.5-155M238 134v112h-56q-40 0-62-22-27-25-27-82 0-100 71-100 33 0 53.5 26t20.5 66m208 157q-1 70-6 103.5T420 444q-19 23-50 23-32 0-51-23-24-27-25-153h152m-84 425l-74-130h-49l65 130h58z" horiz-adv-x="544" vert-adv-y="1000"/><glyph glyph-name="uni01FE" unicode="Ǿ" d="M367 356q0-171-9-229.5T317 34Q278-8 210-8q-45 0-79 20l-17-56H64l29 90q-25 32-32 92.5T54 356q0 171 9 229.5t41 92.5q39 42 106 42 47 0 80-21l17 57h50l-28-91q24-32 31-92.5t7-216.5m-95 288q-21 23-62 23-40 0-63-26-22-25-28-76.5T113 356q0-184 11-226l148 514m36-288q0 181-10 225L149 68q20-23 61-23t64 26q22 25 28 76.5t6 208.5m-1 538l-75-130h-49l65 130h59z" horiz-adv-x="405" vert-adv-y="1000"/><glyph glyph-name="uni01FF" unicode="ǿ" d="M311 553l-32-87q30-48 30-212 0-95-8-145t-30-77Q238-8 177-8q-42 0-69 18L88-44H42l33 87Q45 91 45 254q0 95 8 145t30 77q33 41 94 41 39 0 68-19l20 55h46m-85-106q-19 21-49 21-33 0-51-23-16-20-20.5-60T101 254q0-104 8-135l117 328m27-193q0 105-8 136L128 61q18-20 49-20 32 0 50 23 16 20 21 60.5t5 129.5m20 462l-74-130h-49l65 130h58z" horiz-adv-x="347" vert-adv-y="1000"/><glyph glyph-name="uni0218" unicode="Ș" d="M350 186q0-110-44-154Q268-6 195-6 121-6 83 32 59 57 50 88t-9 90h59q0-79 28-107 24-24 67-24 46 0 68 24 28 30 28 113 0 68-15 98t-60 48l-76 31q-55 22-74.5 59.5T46 539q0 95 49 141 40 38 104 38 68 0 107-39 25-25 34-56.5t9-81.5h-59q0 67-27 98-23 26-65 26-39 0-62-23-31-31-31-102 0-62 14.5-87.5T182 407l76-31q55-22 73.5-64.5T350 186M218-37l-46-134h-53l53 134h46z" horiz-adv-x="396" vert-adv-y="1000"/><glyph glyph-name="uni0219" unicode="ș" d="M303 130q0-59-40-99-39-39-97-39-57 0-93 36-40 41-40 110h56q0-49 26-75 21-21 51-21 35 0 58 23t23 63q0 33-14 55-16 25-51 44l-64 35q-46 26-66 60-14 27-14 64 0 56 40 96 35 35 91 35 57 0 91-34 37-37 37-110h-56q0 51-22 74-19 20-50 20-34 0-53-19-22-21-22-60 0-27 10-44 9-16 47-38l63-36q49-27 69-60t20-80M190-37l-46-134H91l53 134h46z" horiz-adv-x="336" vert-adv-y="1000"/><glyph glyph-name="uni021A" unicode="Ț" d="M319 659H200V0h-59v659H22v53h297v-53M194-37l-46-134H95l53 134h46z" horiz-adv-x="341" vert-adv-y="1000"/><glyph glyph-name="uni021B" unicode="ț" d="M225 0q-75 0-109 32-38 35-38 104v329H16v44h62v149h56V509h87v-44h-87V136q0-86 91-86V0m-53-37l-46-134H73l53 134h46z" horiz-adv-x="245" vert-adv-y="1000"/><glyph glyph-name="uni0237" unicode="ȷ" d="M118-67q0-69-38-104-34-32-101-32v50q41 0 62 20t21 66v576h56V-67z" horiz-adv-x="181" vert-adv-y="1000"/><glyph glyph-name="uni0259" unicode="ə" d="M45 263h208q0 85-5 124t-21 57q-19 23-51 23-33 0-52-20-22-23-22-72H47q0 69 37 107 34 35 92 35 57 0 92-37 24-26 32.5-77.5T309 255q0-98-8.5-149T268 29Q234-8 177-8T86 29q-24 27-32.5 79T45 263m56-45q1-125 26-153 19-23 50-23 32 0 51 23 24 27 25 153H101z" horiz-adv-x="349" vert-adv-y="1000"/><glyph glyph-name="uni02BB" unicode="ʻ" d="M127 620H58v92l69 51V620z" horiz-adv-x="184" vert-adv-y="1000"/><glyph glyph-name="uni02BC" unicode="ʼ" d="M127 620l-69-50v142h69v-92z" horiz-adv-x="184" vert-adv-y="1000"/><glyph glyph-name="uni02C6" unicode="ˆ" d="M288 586h-51l-60 92-60-92H65l87 130h50l86-130z" horiz-adv-x="354" vert-adv-y="1000"/><glyph glyph-name="uni02C7" unicode="ˇ" d="M288 709l-86-129h-50L65 709h52l60-91 60 91h51z" horiz-adv-x="354" vert-adv-y="1000"/><glyph glyph-name="uni02D8" unicode="˘" d="M287 684q-9-104-110-104T66 684h46q8-60 65-60 56 0 65 60h45z" horiz-adv-x="354" vert-adv-y="1000"/><glyph glyph-name="uni02D9" unicode="˙" d="M208 610h-63v63h63v-63z" horiz-adv-x="354" vert-adv-y="1000"/><glyph glyph-name="uni02DA" unicode="˚" d="M241 736.5l13.5-13.25Q268 710 268 672t-27-64.5Q214 581 177 581t-64 26.5Q86 634 86 672t27 64.5q27 26.5 64 26.5t64-26.5M229 672q0 22-15.5 37.5T177 725q-22 0-37.5-15.5T124 672q0-21 15.5-36.5T177 620q21 0 36.5 15.5T229 672z" horiz-adv-x="354" vert-adv-y="1000"/><glyph glyph-name="uni02DB" unicode="˛" d="M209-37l-46-134h-53l53 134h46z" horiz-adv-x="354" vert-adv-y="1000"/><glyph glyph-name="uni02DC" unicode="˜" d="M297 635q-39-38-71-38-23 0-54 17-25 16-42 16-19 0-43-24l-28 29q38 38 70 38 26 0 54-17 27-16 42-16 19 0 43 24l29-29z" horiz-adv-x="354" vert-adv-y="1000"/><glyph glyph-name="uni02DD" unicode="˝" d="M205 716l-69-130H88l59 130h58m126 0l-69-130h-47l58 130h58z" horiz-adv-x="354" vert-adv-y="1000"/><glyph glyph-name="uni0394" unicode="Δ" d="M375 0H4l159 712h56L375 0m-74 53L189 606 79 53h222z" horiz-adv-x="379" vert-adv-y="1000"/><glyph glyph-name="uni03A9" unicode="Ω" d="M376 0H238v44q47 23 61 65 13 38 13 247 0 158-6.5 209T277 641q-23 26-63 26t-63-26q-22-25-28.5-76T116 356q0-209 13-247 15-43 62-65V0H52v49h73q-36 22-51 56-17 42-17 251 0 169 9 228.5t42 93.5q39 42 106 42t106-42q33-34 42-93.5t9-228.5q0-209-17-251-14-35-51-56h73V0z" horiz-adv-x="429" vert-adv-y="1000"/><glyph glyph-name="uni03BC" unicode="μ" d="M315 0h-55v41q-10-18-29-31-26-18-58-18-41 0-56 21v-217H62v713h56V125q0-40 19.5-61.5T188 42q31 0 51 21.5t20 61.5v384h56V0z" horiz-adv-x="378" vert-adv-y="1000"/><glyph glyph-name="uni03C0" unicode="π" d="M322 509V0h-56v461H125V0H69v509h253z" horiz-adv-x="391" vert-adv-y="1000"/><glyph glyph-name="uni0400" unicode="Ѐ" d="M317 0H69v712h248v-53H128V383h163v-53H128V53h189V0m-92 764h-49l-75 130h59l65-130z" horiz-adv-x="364" vert-adv-y="1000"/><glyph glyph-name="uni0401" unicode="Ё" d="M317 0H69v712h248v-53H128V383h163v-53H128V53h189V0m-24 784h-63v63h63v-63m-138 0H92v63h63v-63z" horiz-adv-x="364" vert-adv-y="1000"/><glyph glyph-name="uni0402" unicode="Ђ" d="M418 207q0-112-38-159.5T264 0h-15v53h12q53 0 75.5 36.5T359 207q0 80-22.5 116.5T261 360h-75V0h-59v659H22v53h296v-53H186V413h78q78 0 116-46.5T418 207z" horiz-adv-x="464" vert-adv-y="1000"/><glyph glyph-name="uni0403" unicode="Ѓ" d="M312 659H128V0H69v712h243v-53m-47 235l-75-130h-49l65 130h59z" horiz-adv-x="337" vert-adv-y="1000"/><glyph glyph-name="uni0404" unicode="Є" d="M357 163q0-93-50-137-37-34-97-34-67 0-106 42-32 34-41 92.5T54 356q0 171 9 229.5t41 92.5q39 42 106 42 64 0 102-38 45-45 45-133h-58q0 64-28 95-21 23-61 23-43 0-63-25-22-25-28.5-72.5T112 383h149v-53H112q0-141 6.5-188T147 70q20-25 63-25 40 0 61 23 28 31 28 95h58z" horiz-adv-x="399" vert-adv-y="1000"/><glyph glyph-name="uni0405" unicode="Ѕ" d="M350 186q0-110-44-154Q268-6 195-6 121-6 83 32 59 57 50 88t-9 90h59q0-79 28-107 24-24 67-24 46 0 68 24 28 30 28 113 0 68-15 98t-60 48l-76 31q-55 22-74.5 59.5T46 539q0 95 49 141 40 38 104 38 68 0 107-39 25-25 34-56.5t9-81.5h-59q0 67-27 98-23 26-65 26-39 0-62-23-31-31-31-102 0-62 14.5-87.5T182 407l76-31q55-22 73.5-64.5T350 186z" horiz-adv-x="396" vert-adv-y="1000"/><glyph glyph-name="uni0406" unicode="І" d="M128 0H69v712h59V0z" horiz-adv-x="197" vert-adv-y="1000"/><glyph glyph-name="uni0407" unicode="Ї" d="M128 0H69v712h59V0m71 784h-63v63h63v-63m-138 0H-2v63h63v-63z" horiz-adv-x="197" vert-adv-y="1000"/><glyph glyph-name="uni0408" unicode="Ј" d="M271 153q0-78-42-120Q188-8 121-8 50-8 8 42l43 39q26-36 70-36 40 0 65.5 28.5T212 153v559h59V153z" horiz-adv-x="332" vert-adv-y="1000"/><glyph glyph-name="uni0409" unicode="Љ" d="M580 355.5l20-20.75Q620 314 620 199T580 42Q540 0 466 0H326v659H183V336q0-90-8.5-153.5t-21-98.5Q141 49 119 29.5T78 5Q59 0 31 0H14v53h8q25 0 40 7.5t32 34q17 26.5 25 90t8 164.5v363h258V397h81q74 0 114-41.5M536.5 84l12.25 15.5Q561 115 561 199t-24.5 114.5Q512 344 464 344h-79V53h79q48 0 72.5 31z" horiz-adv-x="666" vert-adv-y="1000"/><glyph glyph-name="uni040A" unicode="Њ" d="M598 198q0-60-11.5-101t-34-61q-22.5-20-48-28T444 0H304v344H128V0H69v712h59V397h176v315h59V397h81q79 0 116.5-45T598 198M518 89.5l10.5 18.25Q539 126 539 199t-21 109q-21 36-72 36h-83V53h83q51 0 72 36.5z" horiz-adv-x="645" vert-adv-y="1000"/><glyph glyph-name="uni040B" unicode="Ћ" d="M418 0h-59v239q0 68-25.5 94.5T253 360h-67V0h-59v659H22v53h296v-53H186V413h74q81 0 119.5-38T418 248V0z" horiz-adv-x="469" vert-adv-y="1000"/><glyph glyph-name="uni040C" unicode="Ќ" d="M412 0h-68L129 371l200 341h66L190 374 412 0M127 0H68v712h59V0m190 894l-75-130h-49l65 130h59z" horiz-adv-x="423" vert-adv-y="1000"/><glyph glyph-name="uni040D" unicode="Ѝ" d="M127 0H69v712h59V157l188 555h59V0h-59v555L127 0m122 764h-49l-75 130h59l65-130z" horiz-adv-x="444" vert-adv-y="1000"/><glyph glyph-name="uni040E" unicode="Ў" d="M355 712L172 102q-19-63-50.5-82.5T27 0v53q42 0 62 14.5t33 59.5l30 102L4 712h64l113-400 110 400h64m-61 145q-9-102-113-102-103 0-112 102h48q6-61 64-61 59 0 65 61h48z" horiz-adv-x="359" vert-adv-y="1000"/><glyph glyph-name="uni040F" unicode="Џ" d="M363 0H244v-141h-57V0H69v712h59V53h176v659h59V0z" horiz-adv-x="432" vert-adv-y="1000"/><glyph glyph-name="uni0410" unicode="А" d="M374 0h-63l-39 195H106L68 0H4l159 712h55L374 0M261 248l-72 358-71-358h143z" horiz-adv-x="379" vert-adv-y="1000"/><glyph glyph-name="uni0411" unicode="Б" d="M367 198q0-60-11.5-101t-34-61q-22.5-20-48-28T213 0H69v712h269v-53H128V397h85q79 0 116.5-45T367 198M287 89.5l10.5 18.25Q308 126 308 199t-21 109q-21 36-72 36h-87V53h87q51 0 72 36.5z" horiz-adv-x="416" vert-adv-y="1000"/><glyph glyph-name="uni0412" unicode="В" d="M363 196q0-64-10-97t-34-58Q279 0 196 0H69v712h128q82 0 120-41 23-24 31.5-55t8.5-87q0-87-43-131-22-22-45-28 30-8 50-28 44-44 44-146m-59 2q0 145-106 145h-70V53h70q54 0 80 31.5T304 198m-6 329q0 74-24.5 103T198 659h-70V395h70q100 0 100 132z" horiz-adv-x="415" vert-adv-y="1000"/><glyph glyph-name="uni0413" unicode="Г" d="M312 659H128V0H69v712h243v-53z" horiz-adv-x="337" vert-adv-y="1000"/><glyph glyph-name="uni0414" unicode="Д" d="M426-119h-57V0H71v-119H14V53h44q58 150 58 351v308h258V53h52v-172M315 53v606H172V396q0-199-53-343h196z" horiz-adv-x="455" vert-adv-y="1000"/><glyph glyph-name="uni0415" unicode="Е" d="M317 0H69v712h248v-53H128V383h163v-53H128V53h189V0z" horiz-adv-x="364" vert-adv-y="1000"/><glyph glyph-name="uni0416" unicode="Ж" d="M621 0h-64L351 371l191 341h66L415 374 621 0M349 0h-59v712h59V0m-61 371L75 0H10l214 374L24 712h65l199-341z" horiz-adv-x="632" vert-adv-y="1000"/><glyph glyph-name="uni0417" unicode="З" d="M332.5 271.5l3.75-14.25Q340 243 340 186t-9.5-91Q321 61 295 32 258-8 189-8q-63 0-99 34-47 45-49 137h59q0-67 29-96 20-22 60-22 42 0 63 24 30 34 30 118 0 52-7 77t-25 44q-24 24-59 24h-59v51h59q36 0 58 23 16 18 22.5 42.5T278 525q0 48-4.5 73T251 644q-21 23-62 23-40 0-60-22-29-30-29-96H42q0 88 44 132 39 39 103 39 67 0 105-39 27-28 35-63.5t8-91.5q0-53-7-79.5T306 397q-19-24-46-38 30-18 47-37 18-22 25.5-50.5z" horiz-adv-x="393" vert-adv-y="1000"/><glyph glyph-name="uni0418" unicode="И" d="M127 0H69v712h59V157l188 555h59V0h-59v555L127 0z" horiz-adv-x="444" vert-adv-y="1000"/><glyph glyph-name="uni0419" unicode="Й" d="M127 0H69v712h59V157l188 555h59V0h-59v555L127 0m209 857q-9-102-113-102-103 0-112 102h48q6-61 64-61 59 0 65 61h48z" horiz-adv-x="444" vert-adv-y="1000"/><glyph glyph-name="uni041A" unicode="К" d="M412 0h-68L129 371l200 341h66L190 374 412 0M127 0H68v712h59V0z" horiz-adv-x="423" vert-adv-y="1000"/><glyph glyph-name="uni041B" unicode="Л" d="M384 0h-59v659H183V336q0-90-8.5-153.5t-21-98.5Q141 49 119 29.5T78 5Q59 0 31 0H14v53h8q25 0 40 7.5t32 34q17 26.5 25 90t8 164.5v363h257V0z" horiz-adv-x="453" vert-adv-y="1000"/><glyph glyph-name="uni041C" unicode="М" d="M488 0h-59v573L299 197h-43L128 561V0H69v712h59l150-419 151 419h59V0z" horiz-adv-x="557" vert-adv-y="1000"/><glyph glyph-name="uni041D" unicode="Н" d="M363 0h-59v336H128V0H69v712h59V389h176v323h59V0z" horiz-adv-x="432" vert-adv-y="1000"/><glyph glyph-name="uni041E" unicode="О" d="M358 585.5l4.5-29.25Q367 527 367 356t-9-229.5Q349 68 317 34 278-8 210-8q-67 0-106 42-32 34-41 92.5T54 356q0 171 9 229.5t41 92.5q39 42 106 42 68 0 107-42 32-34 41-92.5m-56-438l3 25.75Q308 199 308 356t-6 208.5q-6 51.5-28 76.5-23 26-64 26-40 0-63-26-22-25-28-76.5T113 356q0-157 6-208.5T147 71q23-26 63-26 41 0 64 26 22 25 28 76.5z" horiz-adv-x="421" vert-adv-y="1000"/><glyph glyph-name="uni041F" unicode="П" d="M363 0h-59v659H127V0H69v712h294V0z" horiz-adv-x="432" vert-adv-y="1000"/><glyph glyph-name="uni0420" unicode="Р" d="M322.5 670l20.25-21Q363 628 363 513t-40.5-156.5Q282 315 209 315h-81V0H69v712h140q73 0 113.5-42M279 398.5l12.5 15.25Q304 429 304 513t-25 115q-25 31-73 31h-78V368h78q48 0 73 30.5z" horiz-adv-x="410" vert-adv-y="1000"/><glyph glyph-name="uni0421" unicode="С" d="M358 163q-2-93-50-137-37-34-98-34-67 0-106 42-32 34-41 92.5T54 356q0 171 9 229.5t41 92.5q39 42 106 42 64 0 102-38 44-44 46-133h-59q0 65-28 94-22 24-61 24-40 0-63-26-22-25-28-76.5T113 356q0-157 6-208.5T147 71q23-26 63-26 39 0 61 24 28 29 28 94h59z" horiz-adv-x="399" vert-adv-y="1000"/><glyph glyph-name="uni0422" unicode="Т" d="M319 659H200V0h-59v659H22v53h297v-53z" horiz-adv-x="341" vert-adv-y="1000"/><glyph glyph-name="uni0423" unicode="У" d="M355 712L172 102q-19-63-50.5-82.5T27 0v53q42 0 62 14.5t33 59.5l30 102L4 712h64l113-400 110 400h64z" horiz-adv-x="359" vert-adv-y="1000"/><glyph glyph-name="uni0424" unicode="Ф" d="M432.5 603.5l18.75-34.25Q470 535 470 379t-37.5-224.5Q395 86 288 81V-4h-59v85q-107 5-145 73.5T46 379q0 156 38 224.5T229 677v60h59v-60q107-5 144.5-73.5M387 191l12 26.5Q411 244 411 379t-24 188.5Q363 621 288 625V134q75 4 99 57m-158-57v491q-75-4-99.5-57.5T105 379q0-134 25-187.5t99-57.5z" horiz-adv-x="515" vert-adv-y="1000"/><glyph glyph-name="uni0425" unicode="Х" d="M353 0h-64L186 308 84 0H19l132 371L30 712h65l91-282 92 282h64L218 371 353 0z" horiz-adv-x="372" vert-adv-y="1000"/><glyph glyph-name="uni0426" unicode="Ц" d="M415-141h-57V0H69v712h59V53h176v659h59V53h52v-194z" horiz-adv-x="444" vert-adv-y="1000"/><glyph glyph-name="uni0427" unicode="Ч" d="M357 0h-59v266q-51-9-96-9-65 0-100 34T67 408v304h59V414q0-61 22-82.5t62-21.5q48 0 88 8v394h59V0z" horiz-adv-x="425" vert-adv-y="1000"/><glyph glyph-name="uni0428" unicode="Ш" d="M576 0H69v712h59V53h165v659h59V53h165v659h59V0z" horiz-adv-x="644" vert-adv-y="1000"/><glyph glyph-name="uni0429" unicode="Щ" d="M576 712V53h52v-194h-57V0H69v712h59V53h165v659h59V53h165v659h59z" horiz-adv-x="656" vert-adv-y="1000"/><glyph glyph-name="uni042A" unicode="Ъ" d="M22 659v53h167V397h81q79 0 116.5-45T424 198q0-60-11.5-101t-34-61q-22.5-20-48-28T270 0H130v659H22M344 89.5l10.5 18.25Q365 126 365 199t-21 109q-21 36-72 36h-83V53h83q51 0 72 36.5z" horiz-adv-x="470" vert-adv-y="1000"/><glyph glyph-name="uni042B" unicode="Ы" d="M363 198q0-60-11.5-101t-34-61q-22.5-20-48-28T209 0H69v712h59V397h81q79 0 116.5-45T363 198M283 89.5l10.5 18.25Q304 126 304 199t-21 109q-21 36-72 36h-83V53h83q51 0 72 36.5M490 0h-59v712h59V0z" horiz-adv-x="559" vert-adv-y="1000"/><glyph glyph-name="uni042C" unicode="Ь" d="M363 198q0-60-11.5-101t-34-61q-22.5-20-48-28T209 0H69v712h59V397h81q79 0 116.5-45T363 198M283 89.5l10.5 18.25Q304 126 304 199t-21 109q-21 36-72 36h-83V53h83q51 0 72 36.5z" horiz-adv-x="409" vert-adv-y="1000"/><glyph glyph-name="uni042D" unicode="Э" d="M133 330v53h153q-1 138-7.5 185.5T252 641q-23 26-63 26t-61-24q-28-29-28-94H41q2 89 46 133 38 38 102 38 67 0 106-42 32-34 41-92.5t9-229.5q0-171-9-229.5T295 34Q256-8 189-8q-61 0-98 34-48 44-50 137h59q0-65 28-94 24-24 61-24 42 0 63 26 20 25 26.5 73t7.5 186H133z" horiz-adv-x="399" vert-adv-y="1000"/><glyph glyph-name="uni042E" unicode="Ю" d="M527 585.5l4.5-29.25Q536 527 536 356t-9-229.5Q518 68 486 34 447-8 379-8q-67 0-106 42-31 33-40.5 89T223 335h-95V0H69v712h59V388h95q1 149 10 203t40 87q39 42 106 42 68 0 107-42 32-34 41-92.5m-56-438l3 25.75Q477 199 477 356t-6 208.5q-6 51.5-28 76.5-23 26-64 26-40 0-63-26-22-25-28-76.5T282 356q0-157 6-208.5T316 71q23-26 63-26 41 0 64 26 22 25 28 76.5z" horiz-adv-x="589" vert-adv-y="1000"/><glyph glyph-name="uni042F" unicode="Я" d="M80 0H17l111 330q-88 33-88 185 0 115 40 156t114 41h140V0h-59v319h-92L80 0m39.5 623.5l-10.25-17.75Q99 588 99 515t20.5-108q20.5-35 72.5-35h83v287h-83q-52 0-72.5-35.5z" horiz-adv-x="398" vert-adv-y="1000"/><glyph glyph-name="uni0430" unicode="а" d="M294 0h-54v46q-10-20-28-34-27-20-61-20-48 0-81 34-33 35-33 115 0 76 43 115 37 34 100 34h58v91q0 87-70 87-27 0-46-19-23-24-23-71H43q0 68 37 105 34 34 88 34 61 0 91-32 35-37 35-106V0m-56 134v112h-56q-39 0-62-22-27-27-27-82 0-100 71-100 33 0 53.5 26t20.5 66z" horiz-adv-x="352" vert-adv-y="1000"/><glyph glyph-name="uni0431" unicode="б" d="M314 254q0-95-8-145t-30-77Q242-8 182-8T88 32q-22 27-30 77t-8 145q0 207 6.5 272.5T87 631q27 43 77 62t130 21v-51q-63-2-100.5-13T137 609q-16-26-22-57.5T105 463q29 52 90 52 47 0 80-37 23-25 31-74.5t8-149.5m-61-129.5l2.5 20.25Q258 165 258 254t-5 129.5q-5 40.5-21 60.5-19 23-50 23-32 0-51-23-16-20-20.5-60T106 254q0-91 4.5-130.5T131 65q18-23 51-23 32 0 50 23 16 19 21 59.5z" horiz-adv-x="359" vert-adv-y="1000"/><glyph glyph-name="uni0432" unicode="в" d="M261 145q0 97-83 97h-60V50h60q42 0 62.5 21t20.5 74m-6 229q0 47-19.5 66T178 459h-60V287h60q77 0 77 87m62-231q0-74-37-111Q248 0 178 0H62v509h115q70 0 100-30 34-31 34-102 0-61-35-92-13-11-30-18 20-7 34-19 37-30 37-105z" horiz-adv-x="360" vert-adv-y="1000"/><glyph glyph-name="uni0433" unicode="г" d="M273 509v-50H118V0H62v509h211z" horiz-adv-x="288" vert-adv-y="1000"/><glyph glyph-name="uni0434" unicode="д" d="M374-124h-55V0H70v-124H14V50h45q25 61 35 121.5T104 339v170h226V50h44v-174M273 50v409H158V334q0-109-8.5-166.5T118 50h155z" horiz-adv-x="399" vert-adv-y="1000"/><glyph glyph-name="uni0435" unicode="е" d="M309 246H101q0-85 5-124t21-57q19-23 51-23 33 0 52 20 22 23 22 72h55q0-69-37-107-34-35-92-35-57 0-92 37-24 26-32.5 77.5T45 254q0 98 8.5 149T86 480q34 37 91 37t91-37q24-27 32.5-79t8.5-155m-56 45q-1 125-26 153-19 23-50 23-32 0-51-23-24-27-25-153h152z" horiz-adv-x="349" vert-adv-y="1000"/><glyph glyph-name="uni0436" unicode="ж" d="M521 0h-64L295 264l152 245h63L355 267 521 0M293 0h-56v509h56V0m-58 264L73 0H8l167 267L20 509h62l153-245z" horiz-adv-x="529" vert-adv-y="1000"/><glyph glyph-name="uni0437" unicode="з" d="M296 136q0-45-9-69.5T256 20Q223-8 166-8T78 20Q38 56 36 130h56q0-49 25-73 17-15 49-15 31 0 50 16 24 21 24 80 0 60-25 82-20 16-52 16h-39v47h39q32 0 49 17 24 21 24 75 0 55-23 77-17 15-47 15-32 0-51-17-23-23-23-71H36q2 68 38 104 34 34 92 34 57 0 88-28 38-34 38-111 0-57-26-88-15-19-37-28 20-9 36-23 31-28 31-103z" horiz-adv-x="339" vert-adv-y="1000"/><glyph glyph-name="uni0438" unicode="и" d="M328 0h-56v388L115 0H62v509h56V121l157 388h53V0z" horiz-adv-x="391" vert-adv-y="1000"/><glyph glyph-name="uni0439" unicode="й" d="M328 0h-56v388L115 0H62v509h56V121l157 388h53V0m-21 684q-7-103-112-103-104 0-113 103h48q6-61 65-61 58 0 64 61h48z" horiz-adv-x="391" vert-adv-y="1000"/><glyph glyph-name="uni043A" unicode="к" d="M347 0h-64L120 264l153 245h62L181 267 347 0M119 0H63v509h56V0z" horiz-adv-x="358" vert-adv-y="1000"/><glyph glyph-name="uni043B" unicode="л" d="M325 0h-56v459H157V197q0-110-32.5-153.5T31 0H14v49h9q15 0 26.5 4.5T74 73q13 15 20 50t7 88v298h224V0z" horiz-adv-x="387" vert-adv-y="1000"/><glyph glyph-name="uni043C" unicode="м" d="M413 0h-56v385L257 144h-40l-99 241V0H62v509h53l122-297 123 297h53V0z" horiz-adv-x="475" vert-adv-y="1000"/><glyph glyph-name="uni043D" unicode="н" d="M311 0h-56v237H118V0H62v509h56V287h137v222h56V0z" horiz-adv-x="374" vert-adv-y="1000"/><glyph glyph-name="uni043E" unicode="о" d="M301 399l4-25q4-25 4-120t-8-145q-8-50-30-77-33-40-94-40T83 32q-22 27-30 77t-8 145q0 95 8 145t30 77q33 41 94 41t94-41q22-27 30-77m-53-274l2.5 20q2.5 20 2.5 109t-5 129.5q-5 40.5-21 60.5-19 23-50 23-32 0-51-23-16-20-20.5-60T101 254q0-90 4.5-129.5T126 65q19-23 51-23 31 0 50 23 16 20 21 60z" horiz-adv-x="353" vert-adv-y="1000"/><glyph glyph-name="uni043F" unicode="п" d="M311 0h-56v459H118V0H62v509h249V0z" horiz-adv-x="374" vert-adv-y="1000"/><glyph glyph-name="uni0440" unicode="р" d="M313 404.5l4-25.25Q321 354 321 254t-8-150q-8-50-30-76-32-36-79-36-35 0-58 16-15 10-28 30v-241H62v712h55v-41q8 17 29 31 26 18 58 18 47 0 79-36 22-26 30-76.5m-53-282l2.5 19.75Q265 162 265 254t-5 131.5q-5 39.5-21 58.5-19 23-49 23-29 0-48-19-24-22-24-70V131q0-47 24-70 19-19 48-19 30 0 49 22 16 19 21 58.5z" horiz-adv-x="365" vert-adv-y="1000"/><glyph glyph-name="uni0441" unicode="с" d="M303 134q-2-75-36-109-33-33-90-33-60 0-94 40-22 26-30 76.5T45 254q0 95 8 145.5T83 476q33 41 94 41 58 0 90-32 34-33 36-111h-55q0 51-20 72-18 21-50 21-34 0-52-23-16-20-20.5-61T101 254q0-88 4.5-128.5T126 65q18-23 52-23 29 0 49 20 21 22 21 72h55z" horiz-adv-x="340" vert-adv-y="1000"/><glyph glyph-name="uni0442" unicode="т" d="M273 459H172V0h-56v459H16v50h257v-50z" horiz-adv-x="288" vert-adv-y="1000"/><glyph glyph-name="uni0443" unicode="у" d="M301 509L157-99q-14-57-50.5-80.5T9-203v50q76 0 93 65l23 90L4 509h62l87-420 87 420h61z" horiz-adv-x="308" vert-adv-y="1000"/><glyph glyph-name="uni0444" unicode="ф" d="M435 254q0-93-10.5-140T385 39Q341-3 268-5v-198h-56V-5Q134-3 95 39q-29 28-39.5 75.5T45 254q0 92 10.5 140T94 470q41 42 118 44v198h56V514q73-1 114-41 31-30 42-77t11-142m-57 0q0 85-7.5 124.5T341 438q-30 26-73 26V45q45 0 73 26 22 20 29.5 59.5T378 254M212 45v419q-45 0-73-26-23-20-30.5-60T101 254q0-85 8-123t30-60q26-26 73-26z" horiz-adv-x="479" vert-adv-y="1000"/><glyph glyph-name="uni0445" unicode="х" d="M304 0h-62l-81 210L79 0H17l112 259L23 509h62l76-202 75 202h62L190 259 304 0z" horiz-adv-x="321" vert-adv-y="1000"/><glyph glyph-name="uni0446" unicode="ц" d="M356-124h-53V0H62v509h56V50h137v459h56V50h45v-174z" horiz-adv-x="381" vert-adv-y="1000"/><glyph glyph-name="uni0447" unicode="ч" d="M277 0h-56v178q-34-7-73-7-108 0-108 112v226h56V290q0-40 15.5-54.5T155 221q38 0 66 6v282h56V0z" horiz-adv-x="339" vert-adv-y="1000"/><glyph glyph-name="uni0448" unicode="ш" d="M467 0H62v509h56V50h119v459h56V50h118v459h56V0z" horiz-adv-x="530" vert-adv-y="1000"/><glyph glyph-name="uni0449" unicode="щ" d="M512-124h-54V0H62v509h56V50h119v459h56V50h118v459h56V50h45v-174z" horiz-adv-x="537" vert-adv-y="1000"/><glyph glyph-name="uni044A" unicode="ъ" d="M325 259l15.5-18q15.5-18 15.5-94T325 35.5Q294 0 226 0H102v459H16v50h142V295h68q68 0 99-36M280.5 73l9.25 11.5Q299 96 299 147t-18.5 74.5Q262 245 222 245h-64V50h64q40 0 58.5 23z" horiz-adv-x="390" vert-adv-y="1000"/><glyph glyph-name="uni044B" unicode="ы" d="M62 509h56V295h68q68 0 99-36t31-112q0-76-31-111.5T186 0H62v509M240.5 73l9.25 11.5Q259 96 259 147t-18.5 74.5Q222 245 182 245h-64V50h64q40 0 58.5 23M428 0h-56v509h56V0z" horiz-adv-x="490" vert-adv-y="1000"/><glyph glyph-name="uni044C" unicode="ь" d="M62 509h56V295h68q68 0 99-36t31-112q0-76-31-111.5T186 0H62v509M240.5 73l9.25 11.5Q259 96 259 147t-18.5 74.5Q222 245 182 245h-64V50h64q40 0 58.5 23z" horiz-adv-x="350" vert-adv-y="1000"/><glyph glyph-name="uni044D" unicode="э" d="M291 399.5l4-25.25Q299 349 299 254t-8-145q-8-50-30-76-33-41-95-41-57 0-87 27-40 36-42 110h54q2-49 25-71 16-16 50-16t52 23q16 18 20.5 54.5T243 237H113v48h130q0 73-4.5 107T218 444q-18 23-52 23t-52-18q-21-21-23-70H37q2 71 38 106 34 32 91 32 62 0 95-41 22-26 30-76.5z" horiz-adv-x="343" vert-adv-y="1000"/><glyph glyph-name="uni044E" unicode="ю" d="M449 399.5l4-25.25Q457 349 457 254t-8-145q-8-50-30-76-33-41-94-41t-94 41q-21 25-29 69t-9 134h-75V0H62v509h56V286h75q3 148 38 190 33 41 94 41t94-41q22-26 30-76.5M401 254q0 89-5 129.5T375 444q-19 23-50 23t-50-23q-16-20-21-60.5T249 254q0-88 5-128.5T275 65q19-23 50-23t50 23q16 20 21 60.5t5 128.5z" horiz-adv-x="502" vert-adv-y="1000"/><glyph glyph-name="uni044F" unicode="я" d="M287 0h-56v219h-68L88 0H29l82 229q-67 31-67 135 0 145 125 145h118V0m-56 268v192h-60q-38 0-54.5-23T100 364q0-96 71-96h60z" horiz-adv-x="349" vert-adv-y="1000"/><glyph glyph-name="uni0450" unicode="ѐ" d="M309 246H101q0-85 5-124t21-57q19-23 51-23 33 0 52 20 22 23 22 72h55q0-69-37-107-34-35-92-35-57 0-92 37-24 26-32.5 77.5T45 254q0 98 8.5 149T86 480q34 37 91 37t91-37q24-27 32.5-79t8.5-155m-56 45q-1 125-26 153-19 23-50 23-32 0-51-23-24-27-25-153h152m-46 295h-49L83 716h58l66-130z" horiz-adv-x="349" vert-adv-y="1000"/><glyph glyph-name="uni0451" unicode="ё" d="M309 246H101q0-85 5-124t21-57q19-23 51-23 33 0 52 20 22 23 22 72h55q0-69-37-107-34-35-92-35-57 0-92 37-24 26-32.5 77.5T45 254q0 98 8.5 149T86 480q34 37 91 37t91-37q24-27 32.5-79t8.5-155m-56 45q-1 125-26 153-19 23-50 23-32 0-51-23-24-27-25-153h152m24 315h-63v63h63v-63m-137 0H76v63h64v-63z" horiz-adv-x="349" vert-adv-y="1000"/><glyph glyph-name="uni0452" unicode="ђ" d="M315-55q0-64-37-98-32-30-94-30v50q75 0 75 78v438q0 40-20 61.5T188 466q-31 0-50.5-21.5T118 383V0H62v586H5v42h57v84h56v-84h147v-42H118V470q9 17 27 29 26 18 58 18 48 0 81-35 31-33 31-100V-55z" horiz-adv-x="373" vert-adv-y="1000"/><glyph glyph-name="uni0453" unicode="ѓ" d="M273 509v-50H118V0H62v509h211m-25 207l-74-130h-49l65 130h58z" horiz-adv-x="288" vert-adv-y="1000"/><glyph glyph-name="uni0454" unicode="є" d="M53 109l-4 25q-4 25-4 120t8 145.5Q61 450 83 476q33 41 95 41 57 0 91-32 36-35 38-106h-54q-2 49-23 70-18 18-52 18t-52-23q-16-18-20.5-52T101 285h130v-48H101q0-81 4.5-117.5T126 65q18-23 52-23t50 16q23 22 25 71h54q-2-74-42-110-30-27-87-27-62 0-95 41-22 26-30 76z" horiz-adv-x="343" vert-adv-y="1000"/><glyph glyph-name="uni0455" unicode="ѕ" d="M303 130q0-59-40-99-39-39-97-39-57 0-93 36-40 41-40 110h56q0-49 26-75 21-21 51-21 35 0 58 23t23 63q0 33-14 55-16 25-51 44l-64 35q-46 26-66 60-14 27-14 64 0 56 40 96 35 35 91 35 57 0 91-34 37-37 37-110h-56q0 51-22 74-19 20-50 20-34 0-53-19-22-21-22-60 0-27 10-44 9-16 47-38l63-36q49-27 69-60t20-80z" horiz-adv-x="336" vert-adv-y="1000"/><glyph glyph-name="uni0456" unicode="і" d="M118 0H62v509h56V0m8 626H54v72h72v-72z" horiz-adv-x="181" vert-adv-y="1000"/><glyph glyph-name="uni0457" unicode="ї" d="M119 0H63v509h56V0m72 606h-63v63h63v-63m-137 0h-64v63h64v-63z" horiz-adv-x="181" vert-adv-y="1000"/><glyph glyph-name="uni0458" unicode="ј" d="M118-68q0-68-38-103-34-32-101-32v50q83 0 83 86v576h56V-68m8 694H54v72h72v-72z" horiz-adv-x="181" vert-adv-y="1000"/><glyph glyph-name="uni0459" unicode="љ" d="M492 259l15.5-18q15.5-18 15.5-94T492 35.5Q461 0 392 0H269v459H157V197q0-110-32.5-153.5T31 0H14v48h9q15 0 26.5 5T74 72.5Q87 87 94 122t7 89v298h224V295h67q69 0 100-36M447.5 73l9.25 11.5Q466 96 466 147t-19 74.5Q428 245 389 245h-64V50h64q40 0 58.5 23z" horiz-adv-x="556" vert-adv-y="1000"/><glyph glyph-name="uni045A" unicode="њ" d="M478 258.5l15.5-17.75Q509 223 509 147T478 35.5Q447 0 379 0H255v246H118V0H62v509h56V294h137v215h56V294h68q68 0 99-35.5M434 73l9.5 11.5Q453 96 453 147t-19 75q-19 24-59 24h-64V50h64q40 0 59 23z" horiz-adv-x="543" vert-adv-y="1000"/><glyph glyph-name="uni045B" unicode="ћ" d="M315 0h-56v383q0 40-19.5 61.5T189 466q-31 0-51-21.5T118 383V0H62v586H5v42h57v84h56v-84h147v-42H118V470q9 16 28 29 26 18 58 18 48 0 81-35 30-32 30-100V0z" horiz-adv-x="373" vert-adv-y="1000"/><glyph glyph-name="uni045C" unicode="ќ" d="M347 0h-64L120 264l153 245h62L181 267 347 0M119 0H63v509h56V0m159 716l-74-130h-49l65 130h58z" horiz-adv-x="358" vert-adv-y="1000"/><glyph glyph-name="uni045D" unicode="ѝ" d="M328 0h-56v388L115 0H62v509h56V121l157 388h53V0M222 586h-49L98 716h58l66-130z" horiz-adv-x="391" vert-adv-y="1000"/><glyph glyph-name="uni045E" unicode="ў" d="M301 509L157-99q-14-57-50.5-80.5T9-203v50q76 0 93 65l23 90L4 509h62l87-420 87 420h61m-35 175q-7-103-112-103-104 0-113 103h48q6-61 65-61 58 0 64 61h48z" horiz-adv-x="308" vert-adv-y="1000"/><glyph glyph-name="uni045F" unicode="џ" d="M311 0h-97v-124h-54V0H62v509h56V50h137v459h56V0z" horiz-adv-x="374" vert-adv-y="1000"/><glyph glyph-name="uni0462" unicode="Ѣ" d="M366 198q0-60-11.5-101t-34-61q-22.5-20-48-28T212 0H72v556H20v49h52v107h59V605h92v-49h-92V397h81q79 0 116.5-45T366 198M286 89.5l10.5 18.25Q307 126 307 199t-21 109q-21 36-72 36h-83V53h83q51 0 72 36.5z" horiz-adv-x="412" vert-adv-y="1000"/><glyph glyph-name="uni0463" unicode="ѣ" d="M220 393h-90v-98h68q68 0 99-36t31-112q0-76-31-111.5T198 0H74v393H16v42h58v74h56v-74h90v-42m32.5-320l9.25 11.5Q271 96 271 147t-18.5 74.5Q234 245 194 245h-64V50h64q40 0 58.5 23z" horiz-adv-x="362" vert-adv-y="1000"/><glyph glyph-name="uni0472" unicode="Ѳ" d="M358.5 584l4.25-29.5Q367 525 367 356t-8.5-228Q350 69 317 34 278-8 210-8q-67 0-106 42-33 35-41.5 94T54 356q0 169 8.5 228t41.5 94q39 42 106 42 68 0 107-42 33-35 41.5-94M274 71q20 25 26.5 73t7.5 186H113q0-138 6.5-186T147 71q23-26 63-26 41 0 64 26M147 641q-21-26-27.5-73.5T113 383h195q-1 137-7.5 184.5T274 641q-23 26-64 26-40 0-63-26z" horiz-adv-x="421" vert-adv-y="1000"/><glyph glyph-name="uni0473" unicode="ѳ" d="M301 399l4-25q4-25 4-120t-8-145q-8-50-30-77-33-40-94-40T83 32q-22 27-30 77t-8 145q0 95 8 145t30 77q33 41 94 41t94-41q22-27 30-77M227 65q16 19 21 58.5t5 122.5H101q0-86 4.5-124T126 65q19-23 51-23 31 0 50 23M126 444q-25-31-25-153h152q-1 122-26 153-19 23-50 23-32 0-51-23z" horiz-adv-x="353" vert-adv-y="1000"/><glyph glyph-name="uni0474" unicode="Ѵ" d="M185 106l96 504q11 58 44.5 80T426 712v-53q-39 0-59-17.5T339 585L214 0h-58L4 712h65l116-606z" horiz-adv-x="438" vert-adv-y="1000"/><glyph glyph-name="uni0475" unicode="ѵ" d="M274 394L182 0h-59L4 509h62l87-421 65 317q21 104 148 104v-50q-77 0-92-65z" horiz-adv-x="381" vert-adv-y="1000"/><glyph glyph-name="uni0490" unicode="Ґ" d="M312 659H128V0H69v712h186v89h57V659z" horiz-adv-x="337" vert-adv-y="1000"/><glyph glyph-name="uni0491" unicode="ґ" d="M273 459H118V0H62v509h157v117h54V459z" horiz-adv-x="288" vert-adv-y="1000"/><glyph glyph-name="uni0492" unicode="Ғ" d="M316 659H132V381h91v-49h-91V0H73v332H20v49h53v331h243v-53z" horiz-adv-x="341" vert-adv-y="1000"/><glyph glyph-name="uni0493" unicode="ғ" d="M285 459H130V327h90v-42h-90V0H74v285H16v42h58v182h211v-50z" horiz-adv-x="300" vert-adv-y="1000"/><glyph glyph-name="uni0496" unicode="Җ" d="M608 712L415 374 593 50h28v-174h-54V0h-10L351 371l191 341h66M288 371L75 0H10l214 374L24 712h65l199-341M349 0h-59v712h59V0z" horiz-adv-x="632" vert-adv-y="1000"/><glyph glyph-name="uni0497" unicode="җ" d="M510 509L355 267 490 50h31v-174h-54V0h-10L295 264l152 245h63M235 264L73 0H8l167 267L20 509h62l153-245M293 0h-56v509h56V0z" horiz-adv-x="529" vert-adv-y="1000"/><glyph glyph-name="uni049A" unicode="Қ" d="M395 712L190 374 382 50h30v-174h-54V0h-14L129 371l200 341h66M127 0H68v712h59V0z" horiz-adv-x="423" vert-adv-y="1000"/><glyph glyph-name="uni049B" unicode="қ" d="M335 509L181 267 316 50h31v-174h-54V0h-10L120 264l153 245h62M119 0H63v509h56V0z" horiz-adv-x="358" vert-adv-y="1000"/><glyph glyph-name="uni049C" unicode="Ҝ" d="M468 0h-69L235 346h-25V239h-48v107h-34V0H69v712h59V399h34v107h48V399h27l147 313h66L286 374 468 0z" horiz-adv-x="479" vert-adv-y="1000"/><glyph glyph-name="uni049D" unicode="ҝ" d="M399 0h-64L215 240h-24V131h-43v109h-30V0H62v509h56V288h30v109h43V288h24l110 221h62L264 267 399 0z" horiz-adv-x="410" vert-adv-y="1000"/><glyph glyph-name="uni04A2" unicode="Ң" d="M363 712V50h24v-174h-54V0h-29v336H128V0H69v712h59V389h176v323h59z" horiz-adv-x="432" vert-adv-y="1000"/><glyph glyph-name="uni04A3" unicode="ң" d="M311 509V50h26v-174h-54V0h-28v237H118V0H62v509h56V287h137v222h56z" horiz-adv-x="374" vert-adv-y="1000"/><glyph glyph-name="uni04AE" unicode="Ү" d="M312 712L187 298V0h-59v298L3 712h65l89-326 90 326h65z" horiz-adv-x="315" vert-adv-y="1000"/><glyph glyph-name="uni04AF" unicode="ү" d="M301 509L181 3v-206h-56V2L4 509h62l87-420 87 420h61z" horiz-adv-x="308" vert-adv-y="1000"/><glyph glyph-name="uni04B0" unicode="Ұ" d="M312 712L187 298h72v-49h-72V0h-59v249H56v49h72L3 712h65l89-326 90 326h65z" horiz-adv-x="315" vert-adv-y="1000"/><glyph glyph-name="uni04B1" unicode="ұ" d="M301 509L181 3h74v-42h-74v-164h-56v164H51V3h74L4 509h62l87-420 87 420h61z" horiz-adv-x="308" vert-adv-y="1000"/><glyph glyph-name="uni04B2" unicode="Ҳ" d="M342 712L218 371 335 50h18v-174h-54V0h-10L186 308 84 0H19l132 371L30 712h65l91-282 92 282h64z" horiz-adv-x="372" vert-adv-y="1000"/><glyph glyph-name="uni04B3" unicode="ҳ" d="M298 509L190 259l92-209h22v-174h-54V0h-8l-81 209L79 0H17l112 259L23 509h62l76-202 75 202h62z" horiz-adv-x="321" vert-adv-y="1000"/><glyph glyph-name="uni04B6" unicode="Ҷ" d="M357 712V50h24v-174h-54V0h-29v266q-51-9-96-9-65 0-100 34T67 408v304h59V414q0-61 22-82.5t62-21.5q48 0 88 8v394h59z" horiz-adv-x="425" vert-adv-y="1000"/><glyph glyph-name="uni04B7" unicode="ҷ" d="M277 509V50h26v-174h-54V0h-28v178q-34-7-73-7-108 0-108 112v226h56V290q0-40 15.5-54.5T155 221q38 0 66 6v282h56z" horiz-adv-x="339" vert-adv-y="1000"/><glyph glyph-name="uni04B8" unicode="Ҹ" d="M241 150h-48v107q-61 4-93.5 38.5T67 408v304h59V414q0-52 17-74.5t50-27.5v105h48V310q27 1 66 8v394h59V0h-59v266q-38-7-66-8V150z" horiz-adv-x="434" vert-adv-y="1000"/><glyph glyph-name="uni04B9" unicode="ҹ" d="M184 62h-43v109Q40 178 40 283v226h56V290q0-61 45-69v108h43V220q22 2 44 7v282h56V0h-56v178q-22-4-44-6V62z" horiz-adv-x="346" vert-adv-y="1000"/><glyph glyph-name="uni04BA" unicode="Һ" d="M68 712h59V446q51 9 96 9 65 0 100-34t35-117V0h-59v298q0 61-22 82.5T215 402q-48 0-88-8V0H68v712z" horiz-adv-x="425" vert-adv-y="1000"/><glyph glyph-name="uni04BB" unicode="һ" d="M62 509h56V331q34 7 73 7 108 0 108-112V0h-56v219q0 40-15.5 54.5T184 288q-38 0-66-6V0H62v509z" horiz-adv-x="339" vert-adv-y="1000"/><glyph glyph-name="uni04C0" unicode="Ӏ" d="M128 0H69v712h59V0z" horiz-adv-x="197" vert-adv-y="1000"/><glyph glyph-name="uni04CF" unicode="ӏ" d="M113 0H57v712h56V0z" horiz-adv-x="170" vert-adv-y="1000"/><glyph glyph-name="uni04D8" unicode="Ә" d="M54 152v225h245q-1 143-7 191t-27 73q-23 26-63 26-89 0-89-118H54q0 85 45 132 39 39 103 39 67 0 106-42 33-35 41.5-94t8.5-228q0-169-8.5-228T308 34Q269-8 202-8 139-8 96.5 34T54 152m59 175V152q0-49 25-78t64-29q40 0 63 26 20 25 26.5 72.5T299 327H113z" horiz-adv-x="412" vert-adv-y="1000"/><glyph glyph-name="uni04D9" unicode="ә" d="M45 263h208q0 85-5 124t-21 57q-19 23-51 23-33 0-52-20-22-23-22-72H47q0 69 37 107 34 35 92 35 57 0 92-37 24-26 32.5-77.5T309 255q0-98-8.5-149T268 29Q234-8 177-8T86 29q-24 27-32.5 79T45 263m56-45q1-125 26-153 19-23 50-23 32 0 51 23 24 27 25 153H101z" horiz-adv-x="349" vert-adv-y="1000"/><glyph glyph-name="uni04E2" unicode="Ӣ" d="M127 0H69v712h59V157l188 555h59V0h-59v555L127 0m202 785H117v45h212v-45z" horiz-adv-x="444" vert-adv-y="1000"/><glyph glyph-name="uni04E3" unicode="ӣ" d="M328 0h-56v388L115 0H62v509h56V121l157 388h53V0m-27 611H89v45h212v-45z" horiz-adv-x="391" vert-adv-y="1000"/><glyph glyph-name="uni04E8" unicode="Ө" d="M358.5 584l4.25-29.5Q367 525 367 356t-8.5-228Q350 69 317 34 278-8 210-8q-67 0-106 42-33 35-41.5 94T54 356q0 169 8.5 228t41.5 94q39 42 106 42 68 0 107-42 33-35 41.5-94M274 71q20 25 26.5 73t7.5 186H113q0-138 6.5-186T147 71q23-26 63-26 41 0 64 26M147 641q-21-26-27.5-73.5T113 383h195q-1 137-7.5 184.5T274 641q-23 26-64 26-40 0-63-26z" horiz-adv-x="421" vert-adv-y="1000"/><glyph glyph-name="uni04E9" unicode="ө" d="M301 399l4-25q4-25 4-120t-8-145q-8-50-30-77-33-40-94-40T83 32q-22 27-30 77t-8 145q0 95 8 145t30 77q33 41 94 41t94-41q22-27 30-77M227 65q16 19 21 58.5t5 122.5H101q0-86 4.5-124T126 65q19-23 51-23 31 0 50 23M126 444q-25-31-25-153h152q-1 122-26 153-19 23-50 23-32 0-51-23z" horiz-adv-x="353" vert-adv-y="1000"/><glyph glyph-name="uni04EE" unicode="Ӯ" d="M355 712L172 102q-19-63-50.5-82.5T27 0v53q42 0 62 14.5t33 59.5l30 102L4 712h64l113-400 110 400h64m-67 73H76v45h212v-45z" horiz-adv-x="359" vert-adv-y="1000"/><glyph glyph-name="uni04EF" unicode="ӯ" d="M301 509L157-99q-14-57-50.5-80.5T9-203v50q76 0 93 65l23 90L4 509h62l87-420 87 420h61m-42 102H47v45h212v-45z" horiz-adv-x="308" vert-adv-y="1000"/><glyph glyph-name="uni1E80" unicode="Ẁ" d="M583 712L475 0h-62L294 607 176 0h-62L4 712h65l76-606 115 606h67l117-606 75 606h64m-262 52h-49l-75 130h59l65-130z" horiz-adv-x="587" vert-adv-y="1000"/><glyph glyph-name="uni1E81" unicode="ẁ" d="M470 509L371 0h-60l-77 416L161 0h-60L4 509h65l63-421 74 421h56l78-421 65 421h65m-206 77h-49l-75 130h58l66-130z" horiz-adv-x="474" vert-adv-y="1000"/><glyph glyph-name="uni1E82" unicode="Ẃ" d="M583 712L475 0h-62L294 607 176 0h-62L4 712h65l76-606 115 606h67l117-606 75 606h64M390 894l-75-130h-49l65 130h59z" horiz-adv-x="587" vert-adv-y="1000"/><glyph glyph-name="uni1E83" unicode="ẃ" d="M470 509L371 0h-60l-77 416L161 0h-60L4 509h65l63-421 74 421h56l78-421 65 421h65M333 716l-74-130h-49l65 130h58z" horiz-adv-x="474" vert-adv-y="1000"/><glyph glyph-name="uni1E84" unicode="Ẅ" d="M583 712L475 0h-62L294 607 176 0h-62L4 712h65l76-606 115 606h67l117-606 75 606h64m-189 72h-63v63h63v-63m-138 0h-63v63h63v-63z" horiz-adv-x="587" vert-adv-y="1000"/><glyph glyph-name="uni1E85" unicode="ẅ" d="M470 509L371 0h-60l-77 416L161 0h-60L4 509h65l63-421 74 421h56l78-421 65 421h65m-135 97h-63v63h63v-63m-137 0h-64v63h64v-63z" horiz-adv-x="474" vert-adv-y="1000"/><glyph glyph-name="uni1E8A" unicode="Ẋ" d="M353 0h-64L186 308 84 0H19l132 371L30 712h65l91-282 92 282h64L218 371 353 0M218 784h-63v63h63v-63z" horiz-adv-x="372" vert-adv-y="1000"/><glyph glyph-name="uni1E8B" unicode="ẋ" d="M304 0h-62l-81 210L79 0H17l112 259L23 509h62l76-202 75 202h62L190 259 304 0M193 610h-63v63h63v-63z" horiz-adv-x="321" vert-adv-y="1000"/><glyph glyph-name="uni1EF2" unicode="Ỳ" d="M312 712L187 298V0h-59v298L3 712h65l89-326 90 326h65m-127 52h-49L61 894h59l65-130z" horiz-adv-x="315" vert-adv-y="1000"/><glyph glyph-name="uni1EF3" unicode="ỳ" d="M301 509L157-99q-14-57-50.5-80.5T9-203v50q76 0 93 65l23 90L4 509h62l87-420 87 420h61m-119 77h-49L58 716h58l66-130z" horiz-adv-x="308" vert-adv-y="1000"/><glyph glyph-name="uni2013" unicode="–" d="M383 250H48v54h335v-54z" horiz-adv-x="432" vert-adv-y="1000"/><glyph glyph-name="uni2014" unicode="—" d="M616 250H55v54h561v-54z" horiz-adv-x="671" vert-adv-y="1000"/><glyph glyph-name="uni2015" unicode="―" d="M616 250H55v54h561v-54z" horiz-adv-x="670" vert-adv-y="1000"/><glyph glyph-name="uni2018" unicode="‘" d="M127 620H58v92l69 51V620z" horiz-adv-x="184" vert-adv-y="1000"/><glyph glyph-name="uni2019" unicode="’" d="M127 620l-69-50v142h69v-92z" horiz-adv-x="184" vert-adv-y="1000"/><glyph glyph-name="uni201A" unicode="‚" d="M127 0L58-51V92h69V0z" horiz-adv-x="184" vert-adv-y="1000"/><glyph glyph-name="uni201C" unicode="“" d="M271 620h-69v92l69 51V620m-144 0H58v92l69 51V620z" horiz-adv-x="329" vert-adv-y="1000"/><glyph glyph-name="uni201D" unicode="”" d="M271 620l-69-50v142h69v-92m-144 0l-69-50v142h69v-92z" horiz-adv-x="329" vert-adv-y="1000"/><glyph glyph-name="uni201E" unicode="„" d="M271-16l-69-51V76h69v-92m-144 0L58-67V76h69v-92z" horiz-adv-x="329" vert-adv-y="1000"/><glyph glyph-name="uni2020" unicode="†" d="M388 460H245V0h-54v460H48v49h143v203h54V509h143v-49z" horiz-adv-x="437" vert-adv-y="1000"/><glyph glyph-name="uni2021" unicode="‡" d="M388 0H245v-203h-54V0H48v49h143v411H48v49h143v203h54V509h143v-49H245V49h143V0z" horiz-adv-x="437" vert-adv-y="1000"/><glyph glyph-name="uni2022" unicode="•" d="M347.5 449.5l23.75-23.75Q395 402 395 334t-47.5-115.5Q300 171 232 171t-115.5 47.5Q69 266 69 334t47.5 115.5Q164 497 232 497t115.5-47.5z" horiz-adv-x="464" vert-adv-y="1000"/><glyph glyph-name="uni2026" unicode="…" d="M487 0h-75v75h75V0M137 0H62v75h75V0m175 0h-75v75h75V0z" horiz-adv-x="549" vert-adv-y="1000"/><glyph glyph-name="uni2030" unicode="‰" d="M252 446q0-45-28-72.5T153 346q-43 0-70.5 27.5T55 446v175q0 45 27.5 72t70.5 27q43 0 71-27t28-72V446M835 92q0-45-28-72.5T736-8q-43 0-70.5 27.5T638 92v174q0 45 27.5 72.5T736 366q43 0 71-27.5t28-72.5V92m-273 0q0-45-27.5-72.5T464-8q-43 0-70.5 27.5T366 92v174q0 45 27.5 72.5T464 366q43 0 70.5-27.5T562 266V92M456 712L208 0h-47l248 712h47m58-620v174q0 27-13 42t-37 15q-24 0-37-15t-13-42V92q0-27 13-42t37-15q24 0 37 15t13 42m272 0v174q0 27-13 42t-37 15q-49 0-49-57V92q0-57 49-57 24 0 37 15t13 42M203 446v174q0 27-13 42t-37 15q-49 0-49-57V446q0-57 49-57 24 0 37 15t13 42z" horiz-adv-x="890" vert-adv-y="1000"/><glyph glyph-name="uni2039" unicode="‹" d="M164 58L28 268l136 210v-96L89 268l75-115V58z" horiz-adv-x="219" vert-adv-y="1000"/><glyph glyph-name="uni203A" unicode="›" d="M191 268L55 58v95l75 115-75 114v96l136-210z" horiz-adv-x="219" vert-adv-y="1000"/><glyph glyph-name="uni2044" unicode="⁄" d="M224 712L-23 0h-47l247 712h47z" horiz-adv-x="154" vert-adv-y="1000"/><glyph glyph-name="uni2070" unicode="⁰" d="M237 369q0-42-26-66-26-23-72-23t-71 23q-27 24-27 66v259q0 44 27 66 25 23 71 23 44 0 72-23 26-23 26-66V369m-43-2v263q0 24-15 36.5T139 679q-54 0-54-49V367q0-49 54-49 25 0 40 12.5t15 36.5z" horiz-adv-x="278" vert-adv-y="1000"/><glyph glyph-name="uni2074" unicode="⁴" d="M251 349h-32v-64h-43v64H28v38l125 325h43L72 387h104v103h43V387h32v-38z" horiz-adv-x="277" vert-adv-y="1000"/><glyph glyph-name="uni2075" unicode="⁵" d="M235 422q0-50-6-75t-23-42q-25-25-67-25-40 0-65 22t-25 66v25h44v-25q0-24 13.5-37t32.5-13q25 0 38 15 15 18 15 89 0 70-15 88-12 14-37 14-19 0-32-12.5T95 479v-16H51v249h178v-38H94V536q11 13 23 19 17 9 36 9 35 0 59-24 23-24 23-118z" horiz-adv-x="277" vert-adv-y="1000"/><glyph glyph-name="uni2076" unicode="⁶" d="M232 412q0-75-24-103-23-29-71-29-47 0-70 29-14 17-19 38.5T43 412q0 64 18 109l77 191h46l-74-180q16 11 38 11 39 0 59-23 14-15 19.5-36.5T232 412m-61-84q18 15 18 85t-18 85q-14 10-33 10-20 0-34-10-18-15-18-85t18-85q14-10 34-10 19 0 33 10z" horiz-adv-x="277" vert-adv-y="1000"/><glyph glyph-name="uni2077" unicode="⁷" d="M236 674L135 285H89l101 389H81v-71H38v109h198v-38z" horiz-adv-x="277" vert-adv-y="1000"/><glyph glyph-name="uni2078" unicode="⁸" d="M233 404q0-74-29-100-26-24-66-24-43 0-67 24-17 15-22.5 36.5T43 404q0 60 15 83 8 11 28 24-19 10-27 24-12 20-12 70 0 66 27 90 23 22 64 22t64-22q28-24 28-90 0-46-14-70-8-14-25-24 22-14 29-24 13-20 13-83m-43 0q0 58-16 74-13 13-36 13-24 0-37-13-15-15-15-74 0-58 15-73 13-13 37-13 23 0 36 13 16 16 16 73m-3 201q0 47-16 63-9 11-33 11-22 0-33-11-15-15-15-63 0-49 15-64 11-11 33-11 24 0 33 11 16 16 16 64z" horiz-adv-x="277" vert-adv-y="1000"/><glyph glyph-name="uni2079" unicode="⁹" d="M232 585q0-64-18-109l-77-191H90l75 180q-16-11-38-11-39 0-59 23-14 15-19.5 36.5T43 585q0 75 23 103 24 29 71 29 48 0 71-29 14-17 19-38.5t5-64.5m-62-86q19 15 19 85t-19 85q-12 10-33 10t-33-10q-18-15-18-85t18-85q12-10 33-10t33 10z" horiz-adv-x="277" vert-adv-y="1000"/><glyph glyph-name="uni2080" unicode="₀" d="M237-66q0-42-26-66-26-23-72-23t-71 23q-27 24-27 66v259q0 44 27 66 25 23 71 23 44 0 72-23 26-23 26-66V-66m-43-2v263q0 24-15 36.5T139 244q-54 0-54-49V-68q0-49 54-49 25 0 40 12.5T194-68z" horiz-adv-x="278" vert-adv-y="1000"/><glyph glyph-name="uni2081" unicode="₁" d="M174-150h-43v379l-69-47v47l69 48h43v-427z" horiz-adv-x="277" vert-adv-y="1000"/><glyph glyph-name="uni2082" unicode="₂" d="M242-150H38v37l137 218q24 39 24 79 0 27-16.5 43.5T139 244q-59 0-59-69v-18H37v17q0 55 27 81 29 27 75 27 43 0 73-24t30-74q0-49-30-98L88-112h154v-38z" horiz-adv-x="277" vert-adv-y="1000"/><glyph glyph-name="uni2083" unicode="₃" d="M245-36q0-37-6.5-57T215-129q-26-26-75-26-48 0-77 27-25 27-25 85v13h43v-13q0-44 18-59 15-15 41-15 27 0 42 15 20 20 20 67 0 48-17 68-16 19-45 19h-29v38h29q23 0 40 14 19 18 19 68 0 42-19 58-13 14-40 14t-42-15q-16-16-16-54v-13H39v12q0 57 25 81 30 27 76 27t74-26q28-27 28-84 0-48-18-72-16-20-39-29 27-8 42-31 18-25 18-76z" horiz-adv-x="277" vert-adv-y="1000"/><glyph glyph-name="uni2084" unicode="₄" d="M251-86h-32v-64h-43v64H28v38l125 325h43L72-48h104V55h43V-48h32v-38z" horiz-adv-x="277" vert-adv-y="1000"/><glyph glyph-name="uni2085" unicode="₅" d="M235-13q0-50-6-75t-23-42q-25-25-67-25-40 0-65 22T49-67v25h44v-25q0-24 13.5-37t32.5-13q25 0 38 15 15 18 15 89 0 70-15 88-12 14-37 14-19 0-32-12.5T95 44V28H51v249h178v-38H94V101q11 13 23 19 17 9 36 9 35 0 59-24 23-24 23-118z" horiz-adv-x="277" vert-adv-y="1000"/><glyph glyph-name="uni2086" unicode="₆" d="M232-23q0-75-24-103-23-29-71-29-47 0-70 29-14 17-19 38.5T43-23q0 64 18 109l77 191h46L110 97q16 11 38 11 39 0 59-23 14-15 19.5-36.5T232-23m-61-84q18 15 18 85t-18 85q-14 10-33 10-20 0-34-10-18-15-18-85t18-85q14-10 34-10 19 0 33 10z" horiz-adv-x="277" vert-adv-y="1000"/><glyph glyph-name="uni2087" unicode="₇" d="M236 239L135-150H89l101 389H81v-71H38v109h198v-38z" horiz-adv-x="277" vert-adv-y="1000"/><glyph glyph-name="uni2088" unicode="₈" d="M233-31q0-74-29-100-26-24-66-24-43 0-67 24-17 15-22.5 36.5T43-31q0 60 15 83 8 11 28 24-19 10-27 24-12 20-12 70 0 66 27 90 23 22 64 22t64-22q28-24 28-90 0-46-14-70-8-14-25-24 22-14 29-24 13-20 13-83m-43 0q0 58-16 74-13 13-36 13-24 0-37-13-15-15-15-74 0-58 15-73 13-13 37-13 23 0 36 13 16 16 16 73m-3 201q0 47-16 63-9 11-33 11-22 0-33-11-15-15-15-63 0-49 15-64 11-11 33-11 24 0 33 11 16 16 16 64z" horiz-adv-x="277" vert-adv-y="1000"/><glyph glyph-name="uni2089" unicode="₉" d="M232 150q0-64-18-109l-77-191H90l75 180q-16-11-38-11-39 0-59 23-14 15-19.5 36.5T43 150q0 75 23 103 24 29 71 29 48 0 71-29 14-17 19-38.5t5-64.5m-62-86q19 15 19 85t-19 85q-12 10-33 10t-33-10q-18-15-18-85t18-85q12-10 33-10t33 10z" horiz-adv-x="277" vert-adv-y="1000"/><glyph glyph-name="uni20AC" unicode="€" d="M402 163q-2-93-50-137-39-34-98-34-67 0-106 42-28 29-38.5 74T98 262H35v44h63v100H35v44h63q1 109 11.5 154t38.5 74q39 42 106 42 64 0 102-38 43-43 45-133h-59q0 118-88 118-41 0-64-26-18-21-24.5-56T158 450h133v-44H157V306h134v-44H158q1-99 7.5-134T191 71q23-26 63-26 89 0 89 118h59z" horiz-adv-x="448" vert-adv-y="1000"/><glyph glyph-name="uni20B4" unicode="₴" d="M45 262H17v44h40q19 47 76 70l73 30H17v44h253q16 27 16 90 0 71-31 102-23 23-62 23-42 0-65-26-27-31-27-98H42q0 50 9 81.5T85 679q39 39 107 39 64 0 104-38 49-46 49-141 0-55-9-89h33v-44h-54q-20-27-64-45l-76-31q-25-10-41-24h235v-44H107q-7-28-7-78 0-83 28-113 22-24 68-24 43 0 67 24 28 28 28 107h59q0-59-9-90t-33-56Q270-6 196-6 123-6 85 32 41 76 41 186q0 47 4 76z" horiz-adv-x="396" vert-adv-y="1000"/><glyph glyph-name="uni2116" unicode="№" d="M600 541q0-64-4.5-94.5T575 396q-23-29-66-29-44 0-67 29-15 20-19.5 50t-4.5 95q0 64 4.5 94t19.5 51q22 30 67 30 44 0 66-30 16-19 20.5-49.5T600 541m-61-121q16 22 16 121t-16 121q-9 15-30 15-19 0-31-15-15-21-15-121 0-99 16-121 9-14 30-14t30 14m58-132H422v41h175v-41M361 0h-54L125 555V0H69v712h55l181-555v555h56V0z" horiz-adv-x="656" vert-adv-y="1000"/><glyph glyph-name="uni2122" unicode="™" d="M544 282h-43v323l-73-206h-31l-74 199V282h-43v430h42l90-241 91 241h41V282M223 673h-74V282h-42v391H33v39h190v-39z" horiz-adv-x="602" vert-adv-y="1000"/><glyph glyph-name="uni2126" unicode="Ω" d="M376 0H238v44q47 23 61 65 13 38 13 247 0 158-6.5 209T277 641q-23 26-63 26t-63-26q-22-25-28.5-76T116 356q0-209 13-247 15-43 62-65V0H52v49h73q-36 22-51 56-17 42-17 251 0 169 9 228.5t42 93.5q39 42 106 42t106-42q33-34 42-93.5t9-228.5q0-209-17-251-14-35-51-56h73V0z" horiz-adv-x="429" vert-adv-y="1000"/><glyph glyph-name="uni2150" unicode="⅐" d="M174 285h-43v379l-69-47v47l69 48h43V285m327 427L254 0h-47l247 712h47m166-323L566 0h-46l101 389H512v-71h-43v109h198v-38z" horiz-adv-x="708" vert-adv-y="1000"/><glyph glyph-name="uni2151" unicode="⅑" d="M174 285h-43v379l-69-47v47l69 48h43V285m327 427L254 0h-47l247 712h47m162-412q0-64-18-109L568 0h-47l75 180q-16-11-38-11-39 0-59 23-14 15-19.5 36.5T474 300q0 75 23 103 24 29 71 29 48 0 71-29 14-17 19-38.5t5-64.5m-62-86q19 15 19 85t-19 85q-12 10-33 10t-33-10q-18-15-18-85t18-85q12-10 33-10t33 10z" horiz-adv-x="708" vert-adv-y="1000"/><glyph glyph-name="uni2152" unicode="⅒" d="M174 285h-43v379l-69-47v47l69 48h43V285m327 427L254 0h-47l247 712h47M605 0h-43v379l-69-47v47l69 48h43V0m340 84q0-42-26-66-26-23-72-23t-71 23q-27 24-27 66v259q0 44 27 66 25 23 71 23 44 0 72-23 26-23 26-66V84m-43-2v263q0 24-15 36.5T847 394q-54 0-54-49V82q0-49 54-49 25 0 40 12.5T902 82z" horiz-adv-x="986" vert-adv-y="1000"/><glyph glyph-name="uni2153" unicode="⅓" d="M174 285h-43v379l-69-47v47l69 48h43V285m327 427L254 0h-47l247 712h47m175-598q0-37-6.5-57T646 21Q620-5 571-5t-77 27q-25 27-25 85v13h43v-13q0-44 18-59 15-15 41-15 27 0 42 15 20 20 20 67 0 48-17 68-16 19-45 19h-29v38h29q23 0 40 14 19 18 19 68 0 42-19 58-13 14-40 14t-42-15q-16-16-16-54v-13h-43v12q0 57 25 81 30 27 76 27t74-26q28-27 28-84 0-48-18-72-16-20-39-29 27-8 42-31 18-26 18-76z" horiz-adv-x="708" vert-adv-y="1000"/><glyph glyph-name="uni2154" unicode="⅔" d="M242 285H38v37l137 218q24 39 24 79 0 27-16.5 43.5T139 679q-59 0-59-69v-18H37v17q0 55 27 81 29 27 75 27 43 0 73-24t30-74q0-49-30-98L88 323h154v-38m259 427L254 0h-47l247 712h47m175-598q0-37-6.5-57T646 21Q620-5 571-5t-77 27q-25 27-25 85v13h43v-13q0-44 18-59 15-15 41-15 27 0 42 15 20 20 20 67 0 48-17 68-16 19-45 19h-29v38h29q23 0 40 14 19 18 19 68 0 42-19 58-13 14-40 14t-42-15q-16-16-16-54v-13h-43v12q0 57 25 81 30 27 76 27t74-26q28-27 28-84 0-48-18-72-16-20-39-29 27-8 42-31 18-26 18-76z" horiz-adv-x="708" vert-adv-y="1000"/><glyph glyph-name="uni2155" unicode="⅕" d="M174 285h-43v379l-69-47v47l69 48h43V285m327 427L254 0h-47l247 712h47m165-575q0-50-6-75t-23-42Q612-5 570-5q-40 0-65 22t-25 66v25h44V83q0-24 13.5-37T570 33q25 0 38 15 15 18 15 89 0 70-15 88-12 14-37 14-19 0-32-12.5T526 194v-16h-44v249h178v-38H525V251q11 13 23 19 16 9 36 9 35 0 59-24 23-24 23-118z" horiz-adv-x="708" vert-adv-y="1000"/><glyph glyph-name="uni2156" unicode="⅖" d="M242 285H38v37l137 218q24 39 24 79 0 27-16.5 43.5T139 679q-59 0-59-69v-18H37v17q0 55 27 81 29 27 75 27 43 0 73-24t30-74q0-49-30-98L88 323h154v-38m259 427L254 0h-47l247 712h47m165-575q0-50-6-75t-23-42Q612-5 570-5q-40 0-65 22t-25 66v25h44V83q0-24 13.5-37T570 33q25 0 38 15 15 18 15 89 0 70-15 88-12 14-37 14-19 0-32-12.5T526 194v-16h-44v249h178v-38H525V251q11 13 23 19 16 9 36 9 35 0 59-24 23-24 23-118z" horiz-adv-x="708" vert-adv-y="1000"/><glyph glyph-name="uni2157" unicode="⅗" d="M245 399q0-37-6.5-57T215 306q-26-26-75-26-48 0-77 27-25 27-25 85v13h43v-13q0-44 18-59 15-15 41-15 27 0 42 15 20 20 20 67 0 48-17 68-16 19-45 19h-29v38h29q23 0 40 14 19 18 19 68 0 42-19 58-13 14-40 14t-42-15q-16-16-16-54v-13H39v12q0 57 25 81 30 27 76 27t74-26q28-27 28-84 0-48-18-72-16-20-39-29 27-8 42-31 18-26 18-76m256 313L254 0h-47l247 712h47m165-575q0-50-6-75t-23-42Q612-5 570-5q-40 0-65 22t-25 66v25h44V83q0-24 13.5-37T570 33q25 0 38 15 15 18 15 89 0 70-15 88-12 14-37 14-19 0-32-12.5T526 194v-16h-44v249h178v-38H525V251q11 13 23 19 16 9 36 9 35 0 59-24 23-24 23-118z" horiz-adv-x="708" vert-adv-y="1000"/><glyph glyph-name="uni2158" unicode="⅘" d="M251 349h-32v-64h-43v64H28v38l125 325h43L72 387h104v103h43V387h32v-38m250 363L254 0h-47l247 712h47m165-575q0-50-6-75t-23-42Q612-5 570-5q-40 0-65 22t-25 66v25h44V83q0-24 13.5-37T570 33q25 0 38 15 15 18 15 89 0 70-15 88-12 14-37 14-19 0-32-12.5T526 194v-16h-44v249h178v-38H525V251q11 13 23 19 16 9 36 9 35 0 59-24 23-24 23-118z" horiz-adv-x="708" vert-adv-y="1000"/><glyph glyph-name="uni2159" unicode="⅙" d="M174 285h-43v379l-69-47v47l69 48h43V285m327 427L254 0h-47l247 712h47m162-585q0-75-24-103-23-29-71-29-47 0-70 29-14 17-19 38.5t-5 64.5q0 64 18 109l77 191h46l-74-180q16 11 38 11 39 0 59-23 14-15 19.5-36.5T663 127m-61-84q18 15 18 85t-18 85q-14 10-33 10-20 0-34-10-18-15-18-85t18-85q14-10 34-10 19 0 33 10z" horiz-adv-x="708" vert-adv-y="1000"/><glyph glyph-name="uni215A" unicode="⅚" d="M235 422q0-50-6-75t-23-42q-25-25-67-25-40 0-65 22t-25 66v25h44v-25q0-24 13.5-37t32.5-13q25 0 38 15 15 18 15 89 0 70-15 88-12 14-37 14-19 0-32-12.5T95 479v-16H51v249h178v-38H94V536q11 13 23 19 17 9 36 9 35 0 59-24 23-24 23-118m266 290L254 0h-47l247 712h47m162-585q0-75-24-103-23-29-71-29-47 0-70 29-14 17-19 38.5t-5 64.5q0 64 18 109l77 191h46l-74-180q16 11 38 11 39 0 59-23 14-15 19.5-36.5T663 127m-61-84q18 15 18 85t-18 85q-14 10-33 10-20 0-34-10-18-15-18-85t18-85q14-10 34-10 19 0 33 10z" horiz-adv-x="708" vert-adv-y="1000"/><glyph glyph-name="uni215B" unicode="⅛" d="M174 285h-43v379l-69-47v47l69 48h43V285m327 427L254 0h-47l247 712h47m163-593q0-74-29-100-26-24-66-24-43 0-67 24-17 15-22.5 36.5T474 119q0 61 15 83 8 11 28 24-19 10-27 24-12 20-12 70 0 66 27 90 23 22 64 22t64-22q28-24 28-90 0-46-14-70-8-14-25-24 22-14 29-24 13-20 13-83m-43 0q0 58-16 74-13 13-36 13-24 0-37-13-15-15-15-74 0-58 15-73 13-13 37-13 23 0 36 13 16 16 16 73m-3 201q0 47-16 63-9 11-33 11-22 0-33-11-15-15-15-63 0-49 15-64 11-11 33-11 24 0 33 11 16 16 16 64z" horiz-adv-x="708" vert-adv-y="1000"/><glyph glyph-name="uni215C" unicode="⅜" d="M245 399q0-37-6.5-57T215 306q-26-26-75-26-48 0-77 27-25 27-25 85v13h43v-13q0-44 18-59 15-15 41-15 27 0 42 15 20 20 20 67 0 48-17 68-16 19-45 19h-29v38h29q23 0 40 14 19 18 19 68 0 42-19 58-13 14-40 14t-42-15q-16-16-16-54v-13H39v12q0 57 25 81 30 27 76 27t74-26q28-27 28-84 0-48-18-72-16-20-39-29 27-8 42-31 18-26 18-76m256 313L254 0h-47l247 712h47m163-593q0-74-29-100-26-24-66-24-43 0-67 24-17 15-22.5 36.5T474 119q0 61 15 83 8 11 28 24-19 10-27 24-12 20-12 70 0 66 27 90 23 22 64 22t64-22q28-24 28-90 0-46-14-70-8-14-25-24 22-14 29-24 13-20 13-83m-43 0q0 58-16 74-13 13-36 13-24 0-37-13-15-15-15-74 0-58 15-73 13-13 37-13 23 0 36 13 16 16 16 73m-3 201q0 47-16 63-9 11-33 11-22 0-33-11-15-15-15-63 0-49 15-64 11-11 33-11 24 0 33 11 16 16 16 64z" horiz-adv-x="708" vert-adv-y="1000"/><glyph glyph-name="uni215D" unicode="⅝" d="M235 422q0-50-6-75t-23-42q-25-25-67-25-40 0-65 22t-25 66v25h44v-25q0-24 13.5-37t32.5-13q25 0 38 15 15 18 15 89 0 70-15 88-12 14-37 14-19 0-32-12.5T95 479v-16H51v249h178v-38H94V536q11 13 23 19 17 9 36 9 35 0 59-24 23-24 23-118m266 290L254 0h-47l247 712h47m163-593q0-74-29-100-26-24-66-24-43 0-67 24-17 15-22.5 36.5T474 119q0 61 15 83 8 11 28 24-19 10-27 24-12 20-12 70 0 66 27 90 23 22 64 22t64-22q28-24 28-90 0-46-14-70-8-14-25-24 22-14 29-24 13-20 13-83m-43 0q0 58-16 74-13 13-36 13-24 0-37-13-15-15-15-74 0-58 15-73 13-13 37-13 23 0 36 13 16 16 16 73m-3 201q0 47-16 63-9 11-33 11-22 0-33-11-15-15-15-63 0-49 15-64 11-11 33-11 24 0 33 11 16 16 16 64z" horiz-adv-x="708" vert-adv-y="1000"/><glyph glyph-name="uni215E" unicode="⅞" d="M236 674L135 285H89l101 389H81v-71H38v109h198v-38m265 38L254 0h-47l247 712h47m163-593q0-74-29-100-26-24-66-24-43 0-67 24-17 15-22.5 36.5T474 119q0 61 15 83 8 11 28 24-19 10-27 24-12 20-12 70 0 66 27 90 23 22 64 22t64-22q28-24 28-90 0-46-14-70-8-14-25-24 22-14 29-24 13-20 13-83m-43 0q0 58-16 74-13 13-36 13-24 0-37-13-15-15-15-74 0-58 15-73 13-13 37-13 23 0 36 13 16 16 16 73m-3 201q0 47-16 63-9 11-33 11-22 0-33-11-15-15-15-63 0-49 15-64 11-11 33-11 24 0 33 11 16 16 16 64z" horiz-adv-x="708" vert-adv-y="1000"/><glyph glyph-name="uni215F" unicode="⅟" d="M174 285h-43v379l-69-47v47l69 48h43V285m327 427L254 0h-47l247 712h47z" horiz-adv-x="431" vert-adv-y="1000"/><glyph glyph-name="uni2189" unicode="↉" d="M237 369q0-42-26-66-26-23-72-23t-71 23q-27 24-27 66v259q0 44 27 66 25 23 71 23 44 0 72-23 26-23 26-66V369m-43-2v263q0 24-15 36.5T139 679q-54 0-54-49V367q0-49 54-49 25 0 40 12.5t15 36.5m308 345L255 0h-47l247 712h47m175-598q0-37-6.5-57T647 21Q621-5 572-5q-48 0-77 27-25 27-25 85v13h43v-13q0-44 18-59 15-15 41-15 27 0 42 15 20 20 20 67 0 48-17 68-16 19-45 19h-29v38h29q23 0 40 14 19 18 19 68 0 42-19 58-13 14-40 14t-42-15q-16-16-16-54v-13h-43v12q0 57 25 81 30 27 76 27t74-26q28-27 28-84 0-48-18-72-16-20-39-29 27-8 42-31 18-26 18-76z" horiz-adv-x="709" vert-adv-y="1000"/><glyph glyph-name="uni2190" unicode="←" d="M576 241H131L345 27h-75L28 268l242 240h75L131 296h445v-55z" horiz-adv-x="632" vert-adv-y="1000"/><glyph glyph-name="uni2191" unicode="↑" d="M556 235L344 449V4h-56v445L76 235v75l240 242 240-242v-75z" horiz-adv-x="632" vert-adv-y="1000"/><glyph glyph-name="uni2192" unicode="→" d="M603 268L362 27h-75l214 214H56v55h445L287 508h75l241-240z" horiz-adv-x="632" vert-adv-y="1000"/><glyph glyph-name="uni2193" unicode="↓" d="M556 225L316-16 76 225v76L288 86v446h56V86l212 215v-76z" horiz-adv-x="632" vert-adv-y="1000"/><glyph glyph-name="uni2196" unicode="↖" d="M516 418l-302 1 315-316-39-39-316 316 2-302-54 52v341h341l53-53z" horiz-adv-x="632" vert-adv-y="1000"/><glyph glyph-name="uni2197" unicode="↗" d="M456 78l1 302L142 64l-39 39 315 316-302-1 53 53h340V130l-53-52z" horiz-adv-x="632" vert-adv-y="1000"/><glyph glyph-name="uni2198" unicode="↘" d="M509 404V64H169l-54 54 303-1-315 315 38 38 316-314-2 302 54-54z" horiz-adv-x="632" vert-adv-y="1000"/><glyph glyph-name="uni2199" unicode="↙" d="M463 64H123v340l53 54-1-302 316 314 38-38-315-315 303 1-54-54z" horiz-adv-x="632" vert-adv-y="1000"/><glyph glyph-name="uni2202" unicode="∂" d="M304 254q0-96-8-146t-31-76Q231-8 175-8q-54 0-90 39-23 25-31.5 75T45 250q0 98 8 147.5T83 472q32 35 81 35 33 0 56-16 21-12 28-29v112q0 48-19 72-18 22-53 22-43 0-70-33l-40 35q43 48 111 48 60 0 91-31 19-19 27.5-44t8.5-73V254m-60.5-132l2.25 19.5Q248 161 248 250t-4.5 127.5Q239 416 223 435q-19 22-48 22t-48-22q-16-19-21-58.5T101 250q0-88 5-127.5T127 64q19-22 48-22t48 22q16 19 20.5 58z" horiz-adv-x="363" vert-adv-y="1000"/><glyph glyph-name="uni2206" unicode="∆" d="M375 0H4l159 712h56L375 0m-74 53L189 606 79 53h222z" horiz-adv-x="379" vert-adv-y="1000"/><glyph glyph-name="uni220F" unicode="∏" d="M364-219h-60v926H128v-926H69v979h295v-979z" horiz-adv-x="433" vert-adv-y="1000"/><glyph glyph-name="uni2211" unicode="∑" d="M301-220H30v46l142 458L43 714v46h258v-53H108l113-396v-57L96-166h205v-54z" horiz-adv-x="353" vert-adv-y="1000"/><glyph glyph-name="uni2212" unicode="−" d="M383 250H48v54h335v-54z" horiz-adv-x="431" vert-adv-y="1000"/><glyph glyph-name="uni2219" unicode="∙" d="M330 392l24-24q24-24 24-91t-48-115q-48-48-115-48t-115 48q-48 48-48 115t48 115q48 48 115 48t115-48z" horiz-adv-x="431" vert-adv-y="1000"/><glyph glyph-name="uni221A" unicode="√" d="M413 659h-78L182 0h-61L4 493h64l83-405 133 624h129v-53z" horiz-adv-x="441" vert-adv-y="1000"/><glyph glyph-name="uni221E" unicode="∞" d="M564 275q0-52-33.5-86.5T443 154q-39 0-70.5 18.5T307 233q-64-80-135-80-54 0-87.5 34.5T51 275q0 53 33.5 87.5T172 397q71 0 135-80 35 42 66 61t70 19q54 0 87.5-34.5T564 275m-73-51l10 9.5q10 9.5 10 40.5t-20 50.5Q471 344 440 344q-25 0-45.5-16.5T343 274q31-37 51.5-53t45.5-16q31 0 51 19m-219 50q-22 27-33.5 39T210 335.5Q193 346 175 346q-31 0-51-20.5T104 274q0-31 20-50t51-19q25 0 45.5 16t51.5 53z" horiz-adv-x="615" vert-adv-y="1000"/><glyph glyph-name="uni222B" unicode="∫" d="M252 664h-15q-30 0-49-20.5T169 585V-72q0-62-34-97-34-34-85-34H30v51h16q30 0 48.5 20.5T113-73v656q0 62 34 98 33 33 86 33h19v-50z" horiz-adv-x="282" vert-adv-y="1000"/><glyph glyph-name="uni2248" unicode="≈" d="M385 347q-32-32-52.5-43T286 293q-27 0-81 25-42 18-60 18-17 0-30-6.5T81 302l-35 34q32 31 53 42t46 11q29 0 81-24 40-18 60-18 18 0 31 6.5t34 27.5l34-34m0-145q-32-31-52.5-42T286 149q-29 0-81 24-38 18-60 18-17 0-30-6.5T81 157l-35 34q32 32 53 43t46 11q27 0 81-25 44-18 60-18 18 0 31 6.5t34 27.5l34-34z" horiz-adv-x="431" vert-adv-y="1000"/><glyph glyph-name="uni2260" unicode="≠" d="M386 179H171L96 85l-40 30 52 64H46v53h102l74 91H46v53h215l74 94 40-30-51-64h62v-53H285l-74-91h175v-53z" horiz-adv-x="431" vert-adv-y="1000"/><glyph glyph-name="uni2264" unicode="≤" d="M327 158L34 328v49l293 170v-63L98 352l229-131v-63m0-161L34 167v62L327 59V-3z" horiz-adv-x="361" vert-adv-y="1000"/><glyph glyph-name="uni2265" unicode="≥" d="M327 328L34 158v63l229 131L34 484v63l293-170v-49m0-161L34-3v62l293 170v-62z" horiz-adv-x="361" vert-adv-y="1000"/><glyph glyph-name="uni22C5" unicode="⋅" d="M277 216H154v123h123V216z" horiz-adv-x="431" vert-adv-y="1000"/><glyph glyph-name="uni25CA" unicode="◊" d="M447 334L250 55 53 334l197 279 197-279m-62 0L250 527 115 334l135-195 135 195z" horiz-adv-x="500" vert-adv-y="1000"/><glyph glyph-name="uniFB01" unicode="ﬁ" d="M221 465h-87V0H78v465H16v44h62v69q0 68 38 103 37 33 105 33v-51q-87 0-87-85v-69h87v-44M337 0h-56v509h56V0m8 626h-72v72h72v-72z" horiz-adv-x="400" vert-adv-y="1000"/><glyph glyph-name="uniFB02" unicode="ﬂ" d="M221 465h-87V0H78v465H16v44h62v69q0 68 38 103 37 33 105 33v-51q-87 0-87-85v-69h87v-44M420 0q-67 0-101 32-38 35-38 104v576h56V136q0-86 83-86V0z" horiz-adv-x="436" vert-adv-y="1000"/></font>
</defs>
</svg>
