<svg><defs><font id="DINPro-BlackItalic" horiz-adv-x="1182" vert-adv-y="1182"><font-face font-family="DIN Pro Black" font-weight="400" ascent="1019" descent="-194"/><glyph glyph-name="uni21" unicode="!" d="M378 712L243 237H131l51 475h196M253 161L222 0H62l31 161h160z" horiz-adv-x="348" vert-adv-y="1000"/><glyph glyph-name="uni22" unicode="&quot;" d="M283 712l-47-234H97l46 234h140m216 0l-47-234H312l47 234h140z" horiz-adv-x="464" vert-adv-y="1000"/><glyph glyph-name="uni23" unicode="#" d="M701 562l-28-145h-78l-34-98h59l-29-145h-81L449 0H281l62 174h-91L190 0H23l61 174H28l29 145h78l34 98h-59l29 145h81l55 158h167l-55-158h91l55 158h168l-56-158h56M427 417h-91l-34-98h91l34 98z" horiz-adv-x="689" vert-adv-y="1000"/><glyph glyph-name="uni24" unicode="$" d="M634 627L518 525q-36 44-109 46l-26-139 27-7q91-23 128.5-67.5T576 240q0-65-24-113.5t-64.5-75Q447 25 406 11.5T320-6l-21-108H180L200-3Q126 1 75.5 23.5T-16 94l120 105q47-54 143-56l28 146-24 6Q84 337 84 470q0 106 69 172t183 76l18 88h119l-17-92q119-11 178-87M409 216q0 27-13 40t-42 20l-25-134q36 8 58 28t22 46m-81 356q-32-6-55-27t-23-50q0-36 54-50l24 127z" horiz-adv-x="610" vert-adv-y="1000"/><glyph glyph-name="uni25" unicode="%" d="M778 253q0-13-3-30l-17-90Q732-6 593-6q-53 0-88.5 30T469 108q0 13 3 30l17 90q26 139 165 139 53 0 88.5-30t35.5-84M394 604q0-14-3-30l-17-90q-26-139-165-139-53 0-88.5 30T85 459q0 13 3 30l17 90q26 139 165 139 53 0 88.5-30t35.5-84m331 108L260 0H137l465 712h123M283 590q0 29-28 29-33 0-40-41l-17-88q-2-12-2-17 0-29 28-29 33 0 40 41l17 88q2 12 2 17m384-351q0 29-28 29-33 0-40-41l-17-88q-2-12-2-17 0-29 28-29 33 0 40 41l17 88q2 12 2 17z" horiz-adv-x="826" vert-adv-y="1000"/><glyph glyph-name="uni26" unicode="&amp;" d="M649 375q-31-133-123-220L629 0H441l-34 51Q331-6 230-6q-37 0-69.5 8.5t-63 28Q67 50 49 87.5T31 176q0 84 39.5 134.5T183 405q-42 67-42 120 0 30 9.5 60t31.5 61.5q22 31.5 68.5 51.5T361 718q48 0 83-13t52.5-31q17.5-18 27.5-42.5t12-40.5q2-16 2-33 0-83-95-146l-58-38 63-98q35 33 54 99h147M333 167l-84 130q-63-36-63-97 0-29 18.5-48t46.5-19q41 0 82 34m56 384q0 37-36 37-30 0-42.5-19.5T298 528q0-23 21-52l27 17q43 27 43 58z" horiz-adv-x="682" vert-adv-y="1000"/><glyph glyph-name="uni27" unicode="'" d="M284 712l-47-234H97l46 234h141z" horiz-adv-x="249" vert-adv-y="1000"/><glyph glyph-name="uni28" unicode="(" d="M377 691q-47-41-64-63-21-27-32-82l-76-374q-8-37-8-62 0-43 49-100L127-94Q76-30 58.5 8T41 95q0 31 10 81l75 376q20 99 52 143 34 47 111 111l88-115z" horiz-adv-x="340" vert-adv-y="1000"/><glyph glyph-name="uni29" unicode=")" d="M336 617q0-31-10-81l-75-376q-20-99-52-143Q165-30 88-94L0 21q47 41 64 63 21 27 32 82l76 374q8 37 8 62 0 43-49 100l119 104q51-64 68.5-102t17.5-87z" horiz-adv-x="340" vert-adv-y="1000"/><glyph glyph-name="uni2a" unicode="*" d="M492 521l-111-32 90-72-70-78-82 79-17-113-102 20 27 112-106-42-35 98 111 32-90 72 70 78 82-79 17 113 102-20-27-112 106 42 35-98z" horiz-adv-x="481" vert-adv-y="1000"/><glyph glyph-name="uni2b" unicode="+" d="M502 368l-29-146H327L296 66H150l31 156H38l29 146h143l31 156h147l-32-156h146z" horiz-adv-x="528" vert-adv-y="1000"/><glyph glyph-name="uni2c" unicode="," d="M211 174L166-50-24-178l70 352h165z" horiz-adv-x="282" vert-adv-y="1000"/><glyph glyph-name="uni2d" unicode="-" d="M379 368l-29-146H38l29 146h312z" horiz-adv-x="405" vert-adv-y="1000"/><glyph glyph-name="uni2e" unicode="." d="M208 180L172 0H1l36 180h171z" horiz-adv-x="279" vert-adv-y="1000"/><glyph glyph-name="uni2f" unicode="/" d="M522 786L80-74H-68l443 860h147z" horiz-adv-x="412" vert-adv-y="1000"/><glyph glyph-name="uni30" unicode="0" d="M531 538q0-25-5-50l-54-272q-23-116-90.5-169T225-6Q135-6 84.5 46T34 174q0 25 5 50l54 272q23 116 90.5 169T340 718q90 0 140.5-52T531 538m-155-13q0 27-15 39.5T325 577q-61 0-76-76l-56-283q-4-18-4-31 0-27 15-39.5t36-12.5q61 0 76 76l56 283q4 18 4 31z" horiz-adv-x="528" vert-adv-y="1000"/><glyph glyph-name="uni31" unicode="1" d="M475 712L333 0H177l107 535-168-118 35 177 168 118h156z" horiz-adv-x="528" vert-adv-y="1000"/><glyph glyph-name="uni32" unicode="2" d="M532 533q0-58-26-100t-81-95L222 141h245L438 0H-6l29 140 293 288q33 33 45.5 52t12.5 44q0 53-51 53-62 0-80-71H87q18 105 83.5 158.5T342 718q89 0 139.5-48.5T532 533z" horiz-adv-x="528" vert-adv-y="1000"/><glyph glyph-name="uni33" unicode="3" d="M527 540q0-118-100-177 30-21 43-49t13-76q0-106-71-175T244-6Q146-6 85.5 41.5T25 170q0 12 4 42h154q-2-9-2-22 0-24 16.5-39.5T245 135q33 0 57 29t24 66q0 29-16 47.5T264 296h-22l27 136h22q32 0 55.5 28t23.5 60q0 28-13.5 42.5T322 577q-27 0-49.5-17.5T242 508H86q44 210 257 210 82 0 133-52t51-126z" horiz-adv-x="528" vert-adv-y="1000"/><glyph glyph-name="uni34" unicode="4" d="M503 246L473 97h-50L403 0H255l19 97H-12l30 149 317 466h175L193 246h109l19 94h148l-19-94h53z" horiz-adv-x="528" vert-adv-y="1000"/><glyph glyph-name="uni35" unicode="5" d="M557 712l-28-141H260l-23-117q36 25 88 25 82 0 124.5-49.5T492 310q0-38-6-67-22-122-84-184Q337-6 229-6 144-6 91.5 43T39 170q0 18 3 43h149q-1-7-1-19 0-59 51-59 63 0 85 108 6 31 6 46 0 59-51 59-49 0-75-51H64l83 415h410z" horiz-adv-x="528" vert-adv-y="1000"/><glyph glyph-name="uni36" unicode="6" d="M485 240q0-107-66-176.5T242-6Q136-6 81.5 54T27 190q0 54 19.5 98.5T113 405l203 307h173L293 424q13 3 34 3 69 0 113.5-50.5T485 240m-156-6q0 69-64 69-38 0-60-28.5T183 204q0-69 64-69 38 0 60 28.5t22 70.5z" horiz-adv-x="528" vert-adv-y="1000"/><glyph glyph-name="uni37" unicode="7" d="M586 712l-28-141L239 0H65l319 571H237l-22-109H67l50 250h469z" horiz-adv-x="528" vert-adv-y="1000"/><glyph glyph-name="uni38" unicode="8" d="M534 520q0-52-29-97t-72-69q52-49 52-124 0-104-68-170T234-6Q142-6 83 44T24 190q0 57 29 106t83 80q-48 50-48 124 0 91 66.5 154.5T329 718q91 0 148-54.5T534 520M327 227q0 27-16 47.5T265 295q-35 0-59-26t-24-66q0-27 16-47.5t46-20.5q35 0 59 26t24 66m49 289q0 24-14 42.5T321 577q-32 0-54-23.5T245 492q0-24 14-42.5t41-18.5q32 0 54 23.5t22 61.5z" horiz-adv-x="528" vert-adv-y="1000"/><glyph glyph-name="uni39" unicode="9" d="M539 522q0-54-19.5-98.5T453 307L250 0H77l196 288q-13-3-34-3-69 0-113.5 50.5T81 472q0 107 66 176.5T324 718q106 0 160.5-60T539 522m-156-14q0 69-64 69-38 0-60-28.5T237 478q0-69 64-69 38 0 60 28.5t22 70.5z" horiz-adv-x="528" vert-adv-y="1000"/><glyph glyph-name="uni3a" unicode=":" d="M281 433l-36-180H74l36 180h171m-50-253L195 0H24l36 180h171z" horiz-adv-x="301" vert-adv-y="1000"/><glyph glyph-name="uni3b" unicode=";" d="M227 174L182-50-9-178l71 352h165m54 259l-36-180H74l36 180h171z" horiz-adv-x="301" vert-adv-y="1000"/><glyph glyph-name="uni3c" unicode="&lt;" d="M525 568l-34-173-266-101 227-111-32-161L23 239l27 132 475 197z" horiz-adv-x="528" vert-adv-y="1000"/><glyph glyph-name="uni3d" unicode="=" d="M526 486l-29-146H62l29 146h435m-47-236l-29-146H15l29 146h435z" horiz-adv-x="528" vert-adv-y="1000"/><glyph glyph-name="uni3e" unicode="&gt;" d="M510 351l-27-132L8 22l34 173 266 101L81 407l32 161 397-217z" horiz-adv-x="528" vert-adv-y="1000"/><glyph glyph-name="uni3f" unicode="?" d="M533 552q0-91-76-172l-82-87q-21-21-27-47l-2-9H190l5 23q15 68 58 111l82 82q41 41 41 81 0 19-11 31.5T335 578q-62 0-74-63H105q18 106 85.5 154.5T358 718q71 0 123-45.5T533 552M335 161L303 0H144l31 161h160z" horiz-adv-x="511" vert-adv-y="1000"/><glyph glyph-name="uni40" unicode="@" d="M747 535q0-34-10-86L647 0H506l8 41Q464-6 407-6q-67 0-104 38.5T266 124q0 30 14 102 12 58 19 84.5t22.5 56.5q15.5 30 40.5 52 44 39 117 39 67 0 103-43l7 36q5 23 5 40 0 40-22 62-26 25-78 25H378q-64 0-98-30-35-30-48-97l-54-270q-4-20-4-38 0-25 19-50L70-14Q23 44 23 110q0 36 6 66l55 278q28 137 84 195 68 69 217 69h152q110 0 164-56 46-47 46-127M550 279q0 49-43 49-30 0-49-22.5T428 226q-6-34-6-53 0-49 43-49 30 0 49 22.5t30 79.5q6 34 6 53z" horiz-adv-x="747" vert-adv-y="1000"/><glyph glyph-name="uni41" unicode="A" d="M569 0H400l-10 112H179L124 0H-53l388 712h129L569 0M377 247l-22 210-108-210h130z" horiz-adv-x="622" vert-adv-y="1000"/><glyph glyph-name="uni42" unicode="B" d="M616 545q0-122-107-185 30-24 45-50t15-70q0-108-70.5-174T322 0H15l143 712h269q88 0 138.5-45.5T616 545M401 232q0 23-13 39t-41 16H239l-28-140h106q40 0 62 24.5t22 60.5m46 280q0 53-51 53H295l-27-131h98q43 0 62 25.5t19 52.5z" horiz-adv-x="620" vert-adv-y="1000"/><glyph glyph-name="uni43" unicode="C" d="M600 491H434q-2 81-69 81-41 0-72-31-33-33-63-185-19-95-19-140 0-36 19.5-56t52.5-20q68 0 100 81h171Q516 107 442 50.5T270-6Q163-6 103.5 55T44 202q0 59 19 154 15 77 25 116t31 85q21 46 51 78 78 83 207 83 109 0 166-64t57-163z" horiz-adv-x="583" vert-adv-y="1000"/><glyph glyph-name="uni44" unicode="D" d="M613 510q0-34-23-154-27-136-46.5-187.5T480 73Q407 0 277 0H15l143 712h239q100 0 158-53t58-149m-168-16q0 72-76 72h-74l-84-420h73q51 0 83 32 17 17 28 50.5T424 356q21 108 21 138z" horiz-adv-x="618" vert-adv-y="1000"/><glyph glyph-name="uni45" unicode="E" d="M617 712l-29-146H295l-27-134h253l-29-146H239l-28-140h299L481 0H15l143 712h459z" horiz-adv-x="581" vert-adv-y="1000"/><glyph glyph-name="uni46" unicode="F" d="M617 712l-29-146H295l-28-139h250l-29-146H237L181 0H15l143 712h459z" horiz-adv-x="566" vert-adv-y="1000"/><glyph glyph-name="uni47" unicode="G" d="M607 488H441q-3 84-72 84-43 0-74-31-20-21-33-59.5T230 356q-19-87-19-140 0-36 20-56t53-20q43 0 74.5 31t42.5 83l3 15H303l26 138h266l-18-96q-15-80-38.5-135T473 76Q395-6 271-6 158-6 101 56T44 202q0 61 19 154 25 128 45 180t64 99q77 83 209 83 109 0 167.5-64T607 488z" horiz-adv-x="615" vert-adv-y="1000"/><glyph glyph-name="uni48" unicode="H" d="M667 712L524 0H358l58 287H239L181 0H15l143 712h166l-55-278h177l55 278h166z" horiz-adv-x="647" vert-adv-y="1000"/><glyph glyph-name="uni49" unicode="I" d="M324 712L181 0H15l143 712h166z" horiz-adv-x="303" vert-adv-y="1000"/><glyph glyph-name="uni4a" unicode="J" d="M520 712l-96-480q-12-62-39.5-108.5T328 53q-29-24-65.5-38T202-2.5Q178-6 154-6 84-6 39 14t-80 63L78 179q30-39 77-39 84 0 104 98l95 474h166z" horiz-adv-x="490" vert-adv-y="1000"/><glyph glyph-name="uni4b" unicode="K" d="M721 712L433 405 596 0H414L298 298l-74-69L179 0H15l143 712h164l-51-255 245 255h205z" horiz-adv-x="645" vert-adv-y="1000"/><glyph glyph-name="uni4c" unicode="L" d="M500 146L471 0H15l143 712h166L211 146h289z" horiz-adv-x="552" vert-adv-y="1000"/><glyph glyph-name="uni4d" unicode="M" d="M789 712L646 0H480l70 351-127-176H317l-65 176L181 0H15l143 712h155l91-314 222 314h163z" horiz-adv-x="767" vert-adv-y="1000"/><glyph glyph-name="uni4e" unicode="N" d="M688 712L545 0H407L256 370 181 0H15l143 712h138l152-371 74 371h166z" horiz-adv-x="667" vert-adv-y="1000"/><glyph glyph-name="uni4f" unicode="O" d="M599 510q0-59-19-154-15-77-25-116t-31-85q-21-46-51-78Q395-6 268-6 162-6 103 55T44 202q0 59 19 154 15 77 25 116t31 85q21 46 51 78 78 83 205 83 106 0 165-61t59-147m-167-14q0 36-19.5 56T362 572q-41 0-71-33-31-34-61-183-19-95-19-140 0-36 19.5-56t50.5-20q41 0 71 33 31 34 61 183 19 95 19 140z" horiz-adv-x="608" vert-adv-y="1000"/><glyph glyph-name="uni50" unicode="P" d="M614 514q0-100-72-175t-198-75H234L181 0H15l143 712h259q88 0 142.5-53T614 514m-167-15q0 66-59 66h-93l-31-154h87q49 0 72.5 30t23.5 58z" horiz-adv-x="596" vert-adv-y="1000"/><glyph glyph-name="uni51" unicode="Q" d="M599 510q0-59-19-154-14-68-22.5-104T532 173q-17-43-40-73l43-55-97-85-46 59Q335-6 268-6 162-6 103 55T44 202q0 59 19 154 15 77 25 116t31 85q21 46 51 78 78 83 205 83 106 0 165-61t59-147m-167-14q0 36-19.5 56T362 572q-41 0-71-33-31-34-61-183-19-95-19-140 0-36 19.5-56t50.5-20q12 0 18 1l-40 53 97 85 29-39q9 28 28 116 19 95 19 140z" horiz-adv-x="608" vert-adv-y="1000"/><glyph glyph-name="uni52" unicode="R" d="M615 506q0-64-39.5-124T461 291L556 0H374l-75 270h-63L181 0H15l143 712h253q105 0 154.5-58T615 506m-167-9q0 67-65 67h-88l-32-156h87q52 0 75 29t23 60z" horiz-adv-x="624" vert-adv-y="1000"/><glyph glyph-name="uni53" unicode="S" d="M590 629L474 527q-37 46-116 46-48 0-77.5-24.5T251 495q0-18 10.5-29.5t20.5-15q10-3.5 30-9.5l54-14q92-23 129-68t37-124q0-121-85-181T237-6Q147-6 89 16.5T-15 92l120 105q49-56 147-56 48 0 80.5 23t32.5 54q0 27-14 40t-46 21l-54 14Q85 336 85 468q0 115 81 182.5T377 718q144 0 213-89z" horiz-adv-x="565" vert-adv-y="1000"/><glyph glyph-name="uni54" unicode="T" d="M616 712l-30-147H423L310 0H144l113 565H87l30 147h499z" horiz-adv-x="557" vert-adv-y="1000"/><glyph glyph-name="uni55" unicode="U" d="M659 712l-93-463Q540 118 460.5 56T277-6Q176-6 113 52.5T50 202q0 34 6 62l90 448h166l-92-457q-4-24-4-40 0-32 17.5-53t53.5-21q91 0 116 122l90 449h166z" horiz-adv-x="627" vert-adv-y="1000"/><glyph glyph-name="uni56" unicode="V" d="M662 712L299 0H170L89 712h164l38-409 194 409h177z" horiz-adv-x="571" vert-adv-y="1000"/><glyph glyph-name="uni57" unicode="W" d="M951 712L627 0H492l-37 361L269 0H134L87 712h171l14-386 188 386h118l34-386 163 386h176z" horiz-adv-x="864" vert-adv-y="1000"/><glyph glyph-name="uni58" unicode="X" d="M680 712L416 360 560 0H373l-74 224L143 0H-50l281 370L97 712h186l65-206 140 206h192z" horiz-adv-x="610" vert-adv-y="1000"/><glyph glyph-name="uni59" unicode="Y" d="M668 712L380 285 323 0H157l58 290L81 712h178l65-266 161 266h183z" horiz-adv-x="585" vert-adv-y="1000"/><glyph glyph-name="uni5a" unicode="Z" d="M579 712l-26-127-341-438h260L442 0H-23L3 127l340 438H96l29 147h454z" horiz-adv-x="522" vert-adv-y="1000"/><glyph glyph-name="uni5b" unicode="[" d="M456 786l-28-140H300L184 66h138L294-74H1l171 860h284z" horiz-adv-x="395" vert-adv-y="1000"/><glyph glyph-name="uni5c" unicode="\" d="M337-74H197l-97 842h140l97-842z" horiz-adv-x="404" vert-adv-y="1000"/><glyph glyph-name="uni5d" unicode="]" d="M430 786L259-74H-25L3 66h128l116 580H109l28 140h293z" horiz-adv-x="395" vert-adv-y="1000"/><glyph glyph-name="uni5e" unicode="^" d="M587 375H430l-56 177-127-177H76l247 345h155l109-345z" horiz-adv-x="620" vert-adv-y="1000"/><glyph glyph-name="uni5f" unicode="_" d="M459-78l-20-102H-89l20 102h528z" horiz-adv-x="528" vert-adv-y="1000"/><glyph glyph-name="uni60" unicode="`" d="M382 608H274l-72 177h142l38-177z" horiz-adv-x="522" vert-adv-y="1000"/><glyph glyph-name="uni61" unicode="a" d="M484 389q0-20-6-50L410 0H260l9 44Q220-5 152-5 82-5 42 39T2 142q0 83 48 129 55 54 157 54h112l4 19q3 12 3 23 0 47-64 47-63 0-100-43L84 475q73 69 203 69 82 0 139.5-38T484 389M298 221h-76q-32 0-49.5-18T155 160q0-17 12.5-28.5T202 120q39 0 67 28 19 19 26 58l3 15z" horiz-adv-x="513" vert-adv-y="1000"/><glyph glyph-name="uni62" unicode="b" d="M517 395q0-35-17-126-16-91-33.5-142T416 43Q367-6 283-6q-81 0-119 53l-9-47H5l142 712h156l-42-213q40 45 113 45 59 0 101-36.5T517 395m-162-45q0 53-47 53-41 0-59.5-30T215 269q-11-55-11-81 0-53 47-53 41 0 59.5 30T344 269q11 55 11 81z" horiz-adv-x="541" vert-adv-y="1000"/><glyph glyph-name="uni63" unicode="c" d="M470 472L352 368q-27 35-57 35-31 0-54-24-34-36-48-110-7-37-7-63 0-71 54-71 38 0 74 36l86-113Q328-6 223-6q-48 0-90 18T60 75q-31 45-31 110 0 41 8 84 50 275 273 275 101 0 160-72z" horiz-adv-x="453" vert-adv-y="1000"/><glyph glyph-name="uni64" unicode="d" d="M570 712L428 0H278l9 45Q241-6 164-6 89-6 56 38t-33 97q0 47 18 134 19 95 37 146t45 78q51 51 133 51 75 0 115-49l43 217h156M337 350q0 53-47 53-41 0-59.5-30T197 269q-11-55-11-81 0-53 47-53 41 0 59.5 30T326 269q11 55 11 81z" horiz-adv-x="541" vert-adv-y="1000"/><glyph glyph-name="uni65" unicode="e" d="M506 348q0-53-18-129H178q-2-14-2-22 0-33 20-52.5t59-19.5q63 0 115 50l78-102Q366-6 236-6q-36 0-70 9T99.5 32.5Q67 53 47.5 92T28 185q0 98 30.5 178T153 493.5Q217 544 305 544t144.5-52.5Q506 439 506 348m-148 0q0 31-16 49.5T296 416q-71 0-98-94h157q3 12 3 26z" horiz-adv-x="533" vert-adv-y="1000"/><glyph glyph-name="uni66" unicode="f" d="M407 723l-26-131h-49q-36 0-44-40l-7-37h85l-24-120h-85L178 0H22l79 395H54l24 120h47l11 55q30 153 186 153h85z" horiz-adv-x="340" vert-adv-y="1000"/><glyph glyph-name="uni67" unicode="g" d="M527 538L428 39q-20-104-88-161.5T166-180q-121 0-187 74L87-12q34-36 79-36 47 0 73.5 26.5T273 40l8 39q-40-45-105-45-58 0-102 37.5T30 178q0 27 15 111 16 86 31.5 130.5T119 491q53 53 135 53 73 0 114-53l9 47h150M330 353q0 50-46 50-34 0-52-24t-31-91q-8-43-8-63 0-50 46-50 34 0 52 24t31 91q8 43 8 63z" horiz-adv-x="533" vert-adv-y="1000"/><glyph glyph-name="uni68" unicode="h" d="M517 396q0-30-7-62L443 0H287l65 325q3 14 3 27 0 25-14 38t-31 13q-67 0-83-78L162 0H6l142 712h156l-42-209q52 41 120 41 51 0 93-36t42-112z" horiz-adv-x="550" vert-adv-y="1000"/><glyph glyph-name="uni69" unicode="i" d="M264 515L161 0H5l103 515h156m39 197l-24-121H123l24 121h156z" horiz-adv-x="274" vert-adv-y="1000"/><glyph glyph-name="uni6a" unicode="j" d="M265 515L158-21q-15-73-61.5-116T-23-180h-93l27 132h51q16 0 27.5 11T4-9l105 524h156m39 197l-24-121H124l24 121h156z" horiz-adv-x="274" vert-adv-y="1000"/><glyph glyph-name="uni6b" unicode="k" d="M589 538L357 306 498 0H320l-81 209-45-40L161 0H5l142 712h156l-72-362 176 188h182z" horiz-adv-x="547" vert-adv-y="1000"/><glyph glyph-name="uni6c" unicode="l" d="M298 712L190 170q-2-12-2-15 0-23 29-23h57L247 0h-77Q105 0 67.5 35.5T30 125q0 24 4 44l108 543h156z" horiz-adv-x="327" vert-adv-y="1000"/><glyph glyph-name="uni6d" unicode="m" d="M798 396q0-25-7-62L724 0H568l65 325q3 13 3 27 0 25-14 38t-31 13q-67 0-83-78L443 0H287l65 325q3 14 3 27 0 25-14 38t-31 13q-67 0-83-78L162 0H6l107 538h149l-9-47q53 53 132 53 70 0 106-58 64 58 158 58 57 0 103-38t46-110z" horiz-adv-x="831" vert-adv-y="1000"/><glyph glyph-name="uni6e" unicode="n" d="M517 396q0-30-7-62L443 0H287l65 325q3 14 3 27 0 25-14 38t-31 13q-67 0-83-78L162 0H6l107 538h149l-9-47q53 53 132 53 49 0 90.5-36T517 396z" horiz-adv-x="550" vert-adv-y="1000"/><glyph glyph-name="uni6f" unicode="o" d="M492 366q0-42-11-97-17-83-37-129t-56-82Q324-6 217-6 141-6 85.5 40.5T30 172q0 42 11 97 17 83 37 129t56 82q64 64 171 64 76 0 131.5-46.5T492 366m-155-19q0 56-48 56-30 0-48-18-27-26-45-116-11-55-11-78 0-56 48-56 30 0 48 18 27 26 45 116 11 55 11 78z" horiz-adv-x="522" vert-adv-y="1000"/><glyph glyph-name="uni70" unicode="p" d="M518 405q0-45-18-136-19-95-37-146t-45-78Q367-6 285-6q-75 0-115 49l-43-217H-29l142 712h150l-9-45q46 51 123 51 40 0 69-14t44-36q15-22 21.5-44.5T518 405m-163-55q0 53-47 53-41 0-59.5-30T215 269q-11-55-11-81 0-53 47-53 41 0 59.5 30T344 269q11 55 11 81z" horiz-adv-x="541" vert-adv-y="1000"/><glyph glyph-name="uni71" unicode="q" d="M536 538L394-174H238l42 213Q240-6 167-6 108-6 66 30.5T24 143q0 35 17 126 16 91 33.5 142t50.5 84q49 49 133 49 81 0 119-53l9 47h150M337 350q0 53-47 53-41 0-59.5-30T197 269q-11-55-11-81 0-53 47-53 41 0 59.5 30T326 269q11 55 11 81z" horiz-adv-x="541" vert-adv-y="1000"/><glyph glyph-name="uni72" unicode="r" d="M495 493L359 372l-6 7q-6 7-10.5 11t-14 8q-9.5 4-19.5 4-28 0-52-21.5T226 322L162 0H6l107 538h150l-9-46q46 52 128 52 71 0 113-51z" horiz-adv-x="449" vert-adv-y="1000"/><glyph glyph-name="uni73" unicode="s" d="M473 474l-106-94q-13 17-39.5 26.5T277 416q-36 0-54-11.5T205 375q0-23 33-29l68-12q130-23 130-144 0-81-60-137Q314-6 187-6 51-6-25 76l111 98q39-46 111-46 39 0 61.5 13t22.5 31q0 26-37 32l-68 12q-64 11-95.5 45.5T49 340q0 84 57 141 63 63 184 63 118 0 183-70z" horiz-adv-x="477" vert-adv-y="1000"/><glyph glyph-name="uni74" unicode="t" d="M356 515l-24-120h-80l-45-227q-1-4-1-12 0-25 31-25h49L260 0h-73Q122 0 84.5 35.5T47 125q0 24 4 44l45 226H49l24 120h47l31 156h156l-31-156h80z" horiz-adv-x="348" vert-adv-y="1000"/><glyph glyph-name="uni75" unicode="u" d="M545 538L438 0H289l9 47Q245-6 166-6q-49 0-90.5 36T34 142q0 30 7 62l67 334h156l-65-325q-3-14-3-27 0-25 14-38t31-13q67 0 83 78l65 325h156z" horiz-adv-x="550" vert-adv-y="1000"/><glyph glyph-name="uni76" unicode="v" d="M549 538L254 0H135L54 538h154l30-300 145 300h166z" horiz-adv-x="495" vert-adv-y="1000"/><glyph glyph-name="uni77" unicode="w" d="M789 538L534 0H416l-38 300L223 0H101L54 538h155l11-284 143 284h110l33-284 117 284h166z" horiz-adv-x="738" vert-adv-y="1000"/><glyph glyph-name="uni78" unicode="x" d="M568 538L351 269 479 0H299l-55 143L141 0H-52l230 276L54 538h180l51-137 93 137h190z" horiz-adv-x="528" vert-adv-y="1000"/><glyph glyph-name="uni79" unicode="y" d="M546 538L222-64q-22-41-44-62-53-54-136-54h-58L13-38h32q20 0 33.5 11.5T105 10l23 43-75 485h154l30-300 145 300h164z" horiz-adv-x="488" vert-adv-y="1000"/><glyph glyph-name="uni7a" unicode="z" d="M488 538l-23-116-249-281h199L387 0H-22L2 116l245 281H63l28 141h397z" horiz-adv-x="467" vert-adv-y="1000"/><glyph glyph-name="uni7b" unicode="{" d="M553 786l-28-140h-59q-46 0-62-15.5T379 568l-23-112q-17-85-90-97 52-22 52-81 0-12-3-27l-21-107q-5-28-5-41 0-22 14-29.5t45-7.5h71L391-74H262q-67 0-102 42t-35 94q0 20 3 33l25 123q4 20 4 31 0 18-8 29-14 18-50 18H44l28 140h55q36 0 57 18 19 16 28 60l23 113q16 82 64 122 44 37 123 37h131z" horiz-adv-x="492" vert-adv-y="1000"/><glyph glyph-name="uni7c" unicode="|" d="M355 786L183-74H27l172 860h156z" horiz-adv-x="346" vert-adv-y="1000"/><glyph glyph-name="uni7d" unicode="}" d="M484 416l-28-140h-55q-36 0-57-18-19-16-28-60L293 85Q277 3 229-37q-44-37-123-37H-25L3 66h59q46 0 62 15.5t25 62.5l23 112q17 85 90 97-52 22-52 81 0 12 3 27l21 107q5 28 5 41 0 22-14 29.5t-45 7.5h-71l28 140h129q67 0 102-42t35-94q0-20-3-33l-25-123q-4-22-4-31 0-18 8-29 13-18 50-18h55z" horiz-adv-x="492" vert-adv-y="1000"/><glyph glyph-name="uni7e" unicode="~" d="M592 278q-91-85-192-85-58 0-111 32-41 25-79 25-56 0-97-41L32 314q91 85 192 85 58 0 111-32 41-25 79-25 56 0 97 41l81-105z" horiz-adv-x="614" vert-adv-y="1000"/><glyph glyph-name="unia1" unicode="¡" d="M218 301l-51-475H-29l135 475h112m69 237l-31-161H96l31 161h160z" horiz-adv-x="348" vert-adv-y="1000"/><glyph glyph-name="unia2" unicode="¢" d="M522 551l-115-95q-19 25-43 33l-51-252q34 8 59 34l84-103q-36-33-70-49.5T304 93L285 0H165l20 98q-51 15-93 68.5T50 301q0 78 25.5 148.5t82 123Q214 625 292 634l16 78h119l-16-81q65-19 111-80m-240-61q-26-12-45-49-30-59-30-127 0-57 26-72l49 248z" horiz-adv-x="488" vert-adv-y="1000"/><glyph glyph-name="unia3" unicode="£" d="M597 638L473 531q-21 40-71 40-28 0-48-9t-31-25.5Q312 520 307 506t-9-32l-15-73h91l-24-119h-90l-27-135h275L479 0H37l57 282H37l23 119h57l16 77q24 112 88.5 176T415 718q122 0 182-80z" horiz-adv-x="568" vert-adv-y="1000"/><glyph glyph-name="unia4" unicode="¤" d="M620 114L517 11l-72 72q-51-27-109-27T227 83l-72-72L52 114l72 72q-27 51-27 109t27 109l-72 72 103 103 72-72q51 27 109 27t109-27l72 72 103-103-72-72q27-51 27-109t-27-109l72-72M406 225l14.5 14.5Q435 254 435 295t-29 70q-29 29-70 29t-70-29q-29-29-29-70t29-70q29-29 70-29t70 29z" horiz-adv-x="674" vert-adv-y="1000"/><glyph glyph-name="unia5" unicode="¥" d="M668 712L497 458h62l-24-118H417l-37-55-9-45h144l-24-118H348L323 0H157l25 122H40l24 118h141l10 50-15 50H84l23 118h55L81 712h178l65-266 161 266h183z" horiz-adv-x="585" vert-adv-y="1000"/><glyph glyph-name="unia6" unicode="¦" d="M355 786l-70-350H129l70 350h156M253 276L183-74H27l70 350h156z" horiz-adv-x="346" vert-adv-y="1000"/><glyph glyph-name="unia7" unicode="§" d="M475 570q0-15-2-27H336q1 25-9 33.5t-30 8.5q-25 0-37-14t-12-33q0-27 43-46l45-20q45-20 73.5-60.5T438 320q0-124-105-188 24-21 35.5-46T380 15q0-34-11-66t-35-62.5Q310-144 265-162t-106-18q-70 0-117.5 41T-6-33q0 9 2 33h142q-2-19 8-31.5T179-44q21 0 37 12.5T232 10q0 35-45 56l-44 20Q40 133 40 238q0 59 28.5 109.5T148 426q-42 42-42 114 0 30 11 59.5t33.5 57q22.5 27.5 65 44.5t98.5 17q76 0 118.5-40T475 570M296 301q0 27-13 37.5T253 349q-23 0-37-12-22-17-30-58-3-21-3-22 0-27 13-37.5t30-10.5q23 0 37 12 22 17 30 58 3 21 3 22z" horiz-adv-x="490" vert-adv-y="1000"/><glyph glyph-name="unia8" unicode="¨" d="M311 749l-28-142H156l28 142h127m215 0l-28-142H371l28 142h127z" horiz-adv-x="522" vert-adv-y="1000"/><glyph glyph-name="unia9" unicode="©" d="M652.5 599l50.25-50.5Q753 498 753 356T652.5 113Q552 12 409 12T165.5 113Q65 214 65 356t100.5 243Q266 700 409 700t243.5-101M585 175l35 35.5Q655 246 655 356t-70 181q-70 71-176 71t-176-71q-70-71-70-181t70-181q70-71 176-71t176 71m-42 48q-57-49-125-49-71 0-121.5 46T246 356q0 90 50.5 136T418 538q68 0 125-49l-64-64q-32 26-61 26-34 0-54.5-24T343 356q0-47 20.5-71t54.5-24q29 0 61 26l64-64z" horiz-adv-x="781" vert-adv-y="1000"/><glyph glyph-name="uniaa" unicode="ª" d="M450 594q0-10-5-40l-55-271H270l8 35q-39-39-96-39-55 0-86 35.5T65 400q0 64 41 102 44 41 122 41h90l3 15q2 14 2 19 0 37-51 37-50 0-80-34l-62 83q59 55 162 55 66 0 112-30.5t46-93.5M301 461h-61q-25 0-40-15t-15-33q0-34 40-34 31 0 53 22 12 12 20 47l3 13z" horiz-adv-x="434" vert-adv-y="1000"/><glyph glyph-name="uniab" unicode="«" d="M344 547l-40-199-95-81 62-82L237 9 31 280l313 267m294 0l-40-199-95-81 62-82L531 9 325 280l313 267z" horiz-adv-x="638" vert-adv-y="1000"/><glyph glyph-name="uniac" unicode="¬" d="M512 390L452 90H306l31 155H37l29 145h446z" horiz-adv-x="528" vert-adv-y="1000"/><glyph glyph-name="uniad" unicode="­" d="M379 368l-29-146H38l29 146h312z" horiz-adv-x="405" vert-adv-y="1000"/><glyph glyph-name="uniae" unicode="®" d="M652.5 599l50.25-50.5Q753 498 753 356T652.5 113Q552 12 409 12T165.5 113Q65 214 65 356t100.5 243Q266 700 409 700t243.5-101M585 175l35 35.5Q655 246 655 356t-70 181q-70 71-176 71t-176-71q-70-71-70-181t70-181q70-71 176-71t176 71m-15 1H458l-54 134h-29V176h-98v360h160q57 0 90-34.5t33-81.5q0-65-58-93l68-151M451.5 394.5l5.25 5.25Q462 405 462 420t-10.5 25.5Q441 456 424 456h-49v-72h49q17 0 27.5 10.5z" horiz-adv-x="781" vert-adv-y="1000"/><glyph glyph-name="uniaf" unicode="¯" d="M505 722l-20-99H175l20 99h310z" horiz-adv-x="522" vert-adv-y="1000"/><glyph glyph-name="unib0" unicode="°" d="M419.5 668.5l26.75-26.75Q473 615 473 534t-53.5-134.5Q366 346 285 346t-134.5 53.5Q97 453 97 534t53.5 134.5Q204 722 285 722t134.5-53.5M331 488l9.5 9.5Q350 507 350 534t-19 46q-19 19-46 19t-46-19q-19-19-19-46t19-46q19-19 46-19t46 19z" horiz-adv-x="462" vert-adv-y="1000"/><glyph glyph-name="unib1" unicode="±" d="M531 511l-29-145H356l-31-156H179l31 156H67l29 145h143l31 156h147l-32-156h146m-72-366L430 0H-5l29 145h435z" horiz-adv-x="528" vert-adv-y="1000"/><glyph glyph-name="unib2" unicode="²" d="M362 600q0-39-20-69t-61-66l-95-82h140l-19-98H29l20 98 170 154q33 30 33 53 0 28-24 28-28 0-34-33H84q25 131 156 131 57 0 89.5-30.5T362 600z" horiz-adv-x="323" vert-adv-y="1000"/><glyph glyph-name="unib3" unicode="³" d="M366 600q0-67-57-100 27-26 27-75 0-66-43-105t-111-39q-64 0-97 28.5T52 382q0 20 3 36h108q-6-38 25-38 17 0 27 12.5t10 31.5q0 33-27 33h-13l18 93h11q22 0 31.5 14t9.5 28q0 26-22 26-13 0-23-9t-11-25H88q21 132 159 132 53 0 86-32t33-84z" horiz-adv-x="323" vert-adv-y="1000"/><glyph glyph-name="unib4" unicode="´" d="M521 785L389 608H272l106 177h143z" horiz-adv-x="522" vert-adv-y="1000"/><glyph glyph-name="unib5" unicode="µ" d="M549 538L442 0H293l9 47Q249-6 170-6h-10l-34-168H-30l142 712h156l-65-325q-3-14-3-27 0-25 14-38t31-13q67 0 83 78l65 325h156z" horiz-adv-x="555" vert-adv-y="1000"/><glyph glyph-name="unib6" unicode="¶" d="M693 712L515-174H360l148 740h-86L274-174H118l99 492q-48 5-95 52T75 500q0 88 64.5 150T337 712h356z" horiz-adv-x="672" vert-adv-y="1000"/><glyph glyph-name="unib7" unicode="·" d="M248 381l-34-172H43l34 172h171z" horiz-adv-x="279" vert-adv-y="1000"/><glyph glyph-name="unib8" unicode="¸" d="M267-52l-61-142H71l81 142h115z" horiz-adv-x="522" vert-adv-y="1000"/><glyph glyph-name="unib9" unicode="¹" d="M335 712l-85-427H139l59 297-105-74 27 130 105 74h110z" horiz-adv-x="323" vert-adv-y="1000"/><glyph glyph-name="uniba" unicode="º" d="M449 576q0-38-8-78-21-115-75-169-51-51-137-51-61 0-105 37.5T80 421q0 32 9 77 12 65 28.5 102.5T163 667q51 51 137 51 61 0 105-37t44-105m-124-16q0 45-38 45-25 0-40-16-21-21-34-91-9-48-9-62 0-45 38-45 25 0 40 16 21 21 34 91 9 48 9 62z" horiz-adv-x="443" vert-adv-y="1000"/><glyph glyph-name="unibb" unicode="»" d="M319 276L6 9l40 199 95 81-62 82 34 176 206-271m294 0L300 9l40 199 95 81-62 82 34 176 206-271z" horiz-adv-x="638" vert-adv-y="1000"/><glyph glyph-name="unibc" unicode="¼" d="M335 712l-85-427H139l59 297-105-74 27 130 105 74h110m406 0L277 0H154l464 712h123m85-556l-19-99h-26L770 0H666l12 57H505l18 99 187 271h122L644 156h52l9 42h104l-9-42h26z" horiz-adv-x="859" vert-adv-y="1000"/><glyph glyph-name="unibd" unicode="½" d="M335 712l-85-427H139l59 297-105-74 27 130 105 74h110m406 0L277 0H154l464 712h123m100-397q0-39-20-69t-61-66l-95-82h140L786 0H508l20 98 170 154q33 30 33 53 0 28-24 28-29 0-34-33H563q25 131 156 131 57 0 89.5-30.5T841 315z" horiz-adv-x="859" vert-adv-y="1000"/><glyph glyph-name="unibe" unicode="¾" d="M366 600q0-67-57-100 27-26 27-75 0-66-43-105t-111-39q-64 0-97 28.5T52 382q0 20 3 36h108q-6-38 25-38 17 0 27 12.5t10 31.5q0 33-27 33h-13l18 93h11q22 0 31.5 14t9.5 28q0 26-22 26-13 0-23-9t-11-25H88q21 132 159 132 53 0 86-32t33-84m375 112L277 0H154l464 712h123m85-556l-19-99h-26L770 0H666l12 57H505l18 99 187 271h122L644 156h52l9 42h104l-9-42h26z" horiz-adv-x="859" vert-adv-y="1000"/><glyph glyph-name="unibf" unicode="¿" d="M409 23q-18-106-85.5-154.5T156-180q-71 0-123 45.5T-19-14q0 91 76 172l82 87q21 21 27 47l2 9h156l-5-23q-15-68-58-111l-82-82q-41-41-41-81 0-19 11-31.5T179-40q62 0 74 63h156m-39 515l-31-161H179l32 161h159z" horiz-adv-x="511" vert-adv-y="1000"/><glyph glyph-name="unic0" unicode="À" d="M569 0H400l-10 112H179L124 0H-53l388 712h129L569 0M377 247l-22 210-108-210h130m85 533H354l-72 177h142l38-177z" horiz-adv-x="622" vert-adv-y="1000"/><glyph glyph-name="unic1" unicode="Á" d="M569 0H400l-10 112H179L124 0H-53l388 712h129L569 0M377 247l-22 210-108-210h130m224 710L469 780H352l106 177h143z" horiz-adv-x="622" vert-adv-y="1000"/><glyph glyph-name="unic2" unicode="Â" d="M569 0H400l-10 112H179L124 0H-53l388 712h129L569 0M377 247l-22 210-108-210h130m219 533H487l-56 87-93-87H218l165 179h120l93-179z" horiz-adv-x="622" vert-adv-y="1000"/><glyph glyph-name="unic3" unicode="Ã" d="M569 0H400l-10 112H179L124 0H-53l388 712h129L569 0M377 247l-22 210-108-210h130m230 598q-58-55-119-55-42 0-82 21-30 16-53 16-33 0-62-29l-54 72q58 55 119 55 42 0 82-21 30-16 53-16 33 0 62 29l54-72z" horiz-adv-x="622" vert-adv-y="1000"/><glyph glyph-name="unic4" unicode="Ä" d="M569 0H400l-10 112H179L124 0H-53l388 712h129L569 0M377 247l-22 210-108-210h130m14 674l-28-142H236l28 142h127m215 0l-28-142H450l29 142h127z" horiz-adv-x="622" vert-adv-y="1000"/><glyph glyph-name="unic5" unicode="Å" d="M569 0H400l-10 112H179L124 0H-53l388 712h129L569 0M377 247l-22 210-108-210h130m160 640q0-56-38.5-94T405 755q-55 0-93.5 38T273 887q0 56 38.5 94t93.5 38q55 0 93.5-37.5T537 887m-96.5-36l7.75 7.5Q456 866 456 887t-15.5 36Q425 938 405 938t-35.5-15Q354 908 354 887t15.5-36q15.5-15 35.5-15t35.5 15z" horiz-adv-x="622" vert-adv-y="1000"/><glyph glyph-name="unic6" unicode="Æ" d="M1009 712l-29-145H686l-26-135h252l-29-145H630l-28-142h298L871 0H407l31 157H238L130 0H-53l494 712h568M520 566L333 295h133l54 271z" horiz-adv-x="973" vert-adv-y="1000"/><glyph glyph-name="unic7" unicode="Ç" d="M600 491H434q-2 81-69 81-41 0-72-31-33-33-63-185-19-95-19-140 0-36 19.5-56t52.5-20q68 0 100 81h171Q516 107 442 50.5T270-6Q163-6 103.5 55T44 202q0 59 19 154 15 77 25 116t31 85q21 46 51 78 78 83 207 83 109 0 166-64t57-163M327-52l-61-142H131l81 142h115z" horiz-adv-x="583" vert-adv-y="1000"/><glyph glyph-name="unic8" unicode="È" d="M617 712l-29-146H295l-27-134h253l-29-146H239l-28-140h299L481 0H15l143 712h459m-182 68H327l-72 177h142l38-177z" horiz-adv-x="581" vert-adv-y="1000"/><glyph glyph-name="unic9" unicode="É" d="M617 712l-29-146H295l-27-134h253l-29-146H239l-28-140h299L481 0H15l143 712h459m-43 245L442 780H325l106 177h143z" horiz-adv-x="581" vert-adv-y="1000"/><glyph glyph-name="unica" unicode="Ê" d="M617 712l-29-146H295l-27-134h253l-29-146H239l-28-140h299L481 0H15l143 712h459m-48 68H460l-56 87-93-87H191l165 179h120l93-179z" horiz-adv-x="581" vert-adv-y="1000"/><glyph glyph-name="unicb" unicode="Ë" d="M617 712l-29-146H295l-27-134h253l-29-146H239l-28-140h299L481 0H15l143 712h459M364 921l-28-142H209l28 142h127m215 0l-28-142H423l29 142h127z" horiz-adv-x="581" vert-adv-y="1000"/><glyph glyph-name="unicc" unicode="Ì" d="M324 712L181 0H15l143 712h166m-11 70H205l-72 177h142l38-177z" horiz-adv-x="303" vert-adv-y="1000"/><glyph glyph-name="unicd" unicode="Í" d="M324 712L181 0H15l143 712h166m110 245L302 780H185l106 177h143z" horiz-adv-x="303" vert-adv-y="1000"/><glyph glyph-name="unice" unicode="Î" d="M324 712L181 0H15l143 712h166m115 68H330l-56 87-93-87H61l165 179h120l93-179z" horiz-adv-x="303" vert-adv-y="1000"/><glyph glyph-name="unicf" unicode="Ï" d="M324 712L181 0H15l143 712h166m-90 209l-28-142H79l28 142h127m215 0l-28-142H293l29 142h127z" horiz-adv-x="303" vert-adv-y="1000"/><glyph glyph-name="unid0" unicode="Ð" d="M640 510q0-34-23-154-27-136-46.5-187.5T507 73Q434 0 304 0H42l60 296H40l25 126h62l58 290h239q100 0 158-53t58-149m-168-16q0 72-76 72h-74l-29-144h85l-25-126h-85l-31-150h74q51 0 83 32 17 17 28 50.5T451 356q21 108 21 138z" horiz-adv-x="645" vert-adv-y="1000"/><glyph glyph-name="unid1" unicode="Ñ" d="M688 712L545 0H407L256 370 181 0H15l143 712h138l152-371 74 371h166m-85 133q-58-55-119-55-42 0-82 21-30 16-53 16-33 0-62-29l-54 72q58 55 119 55 42 0 82-21 30-16 53-16 33 0 62 29l54-72z" horiz-adv-x="667" vert-adv-y="1000"/><glyph glyph-name="unid2" unicode="Ò" d="M599 510q0-59-19-154-15-77-25-116t-31-85q-21-46-51-78Q395-6 268-6 162-6 103 55T44 202q0 59 19 154 15 77 25 116t31 85q21 46 51 78 78 83 205 83 106 0 165-61t59-147m-167-14q0 36-19.5 56T362 572q-41 0-71-33-31-34-61-183-19-95-19-140 0-36 19.5-56t50.5-20q41 0 71 33 31 34 61 183 19 95 19 140m20 284H344l-72 177h142l38-177z" horiz-adv-x="608" vert-adv-y="1000"/><glyph glyph-name="unid3" unicode="Ó" d="M599 510q0-59-19-154-15-77-25-116t-31-85q-21-46-51-78Q395-6 268-6 162-6 103 55T44 202q0 59 19 154 15 77 25 116t31 85q21 46 51 78 78 83 205 83 106 0 165-61t59-147m-167-14q0 36-19.5 56T362 572q-41 0-71-33-31-34-61-183-19-95-19-140 0-36 19.5-56t50.5-20q41 0 71 33 31 34 61 183 19 95 19 140m159 461L459 780H342l106 177h143z" horiz-adv-x="608" vert-adv-y="1000"/><glyph glyph-name="unid4" unicode="Ô" d="M599 510q0-59-19-154-15-77-25-116t-31-85q-21-46-51-78Q395-6 268-6 162-6 103 55T44 202q0 59 19 154 15 77 25 116t31 85q21 46 51 78 78 83 205 83 106 0 165-61t59-147m-167-14q0 36-19.5 56T362 572q-41 0-71-33-31-34-61-183-19-95-19-140 0-36 19.5-56t50.5-20q41 0 71 33 31 34 61 183 19 95 19 140m154 284H477l-56 87-93-87H208l165 179h120l93-179z" horiz-adv-x="608" vert-adv-y="1000"/><glyph glyph-name="unid5" unicode="Õ" d="M599 510q0-59-19-154-15-77-25-116t-31-85q-21-46-51-78Q395-6 268-6 162-6 103 55T44 202q0 59 19 154 15 77 25 116t31 85q21 46 51 78 78 83 205 83 106 0 165-61t59-147m-167-14q0 36-19.5 56T362 572q-41 0-71-33-31-34-61-183-19-95-19-140 0-36 19.5-56t50.5-20q41 0 71 33 31 34 61 183 19 95 19 140m165 349q-58-55-119-55-42 0-82 21-30 16-53 16-33 0-62-29l-54 72q58 55 119 55 42 0 82-21 30-16 53-16 33 0 62 29l54-72z" horiz-adv-x="608" vert-adv-y="1000"/><glyph glyph-name="unid6" unicode="Ö" d="M599 510q0-59-19-154-15-77-25-116t-31-85q-21-46-51-78Q395-6 268-6 162-6 103 55T44 202q0 59 19 154 15 77 25 116t31 85q21 46 51 78 78 83 205 83 106 0 165-61t59-147m-167-14q0 36-19.5 56T362 572q-41 0-71-33-31-34-61-183-19-95-19-140 0-36 19.5-56t50.5-20q41 0 71 33 31 34 61 183 19 95 19 140m-51 425l-28-142H226l28 142h127m215 0l-28-142H440l29 142h127z" horiz-adv-x="608" vert-adv-y="1000"/><glyph glyph-name="unid7" unicode="×" d="M524 425L368 290l102-133-114-99-101 135L100 57 17 166l155 134L70 435l115 99 101-135 155 135 83-109z" horiz-adv-x="528" vert-adv-y="1000"/><glyph glyph-name="unid8" unicode="Ø" d="M640 756l-78-121q41-55 41-125 0-59-19-154-15-77-25-116t-31-85q-21-46-51-78Q399-6 270-6q-60 0-109 22l-39-60H8L85 75q-41 55-41 127 0 59 19 154 15 77 25 116t31 85q21 46 51 78 78 83 207 83 59 0 110-23l39 61h114M407 559q-17 13-43 13-43 0-73-33-31-34-61-183-10-46-15-81l-2-19 194 303m26-104L241 151q19-11 42-11 43 0 73 33 31 34 61 183 13 71 14 81l2 18z" horiz-adv-x="612" vert-adv-y="1000"/><glyph glyph-name="unid9" unicode="Ù" d="M659 712l-93-463Q540 118 460.5 56T277-6Q176-6 113 52.5T50 202q0 34 6 62l90 448h166l-92-457q-4-24-4-40 0-32 17.5-53t53.5-21q91 0 116 122l90 449h166m-193 68H358l-72 177h142l38-177z" horiz-adv-x="627" vert-adv-y="1000"/><glyph glyph-name="unida" unicode="Ú" d="M659 712l-93-463Q540 118 460.5 56T277-6Q176-6 113 52.5T50 202q0 34 6 62l90 448h166l-92-457q-4-24-4-40 0-32 17.5-53t53.5-21q91 0 116 122l90 449h166m-54 245L473 780H356l106 177h143z" horiz-adv-x="627" vert-adv-y="1000"/><glyph glyph-name="unidb" unicode="Û" d="M659 712l-93-463Q540 118 460.5 56T277-6Q176-6 113 52.5T50 202q0 34 6 62l90 448h166l-92-457q-4-24-4-40 0-32 17.5-53t53.5-21q91 0 116 122l90 449h166m-57 68H493l-56 87-93-87H224l165 179h120l93-179z" horiz-adv-x="627" vert-adv-y="1000"/><glyph glyph-name="unidc" unicode="Ü" d="M659 712l-93-463Q540 118 460.5 56T277-6Q176-6 113 52.5T50 202q0 34 6 62l90 448h166l-92-457q-4-24-4-40 0-32 17.5-53t53.5-21q91 0 116 122l90 449h166M395 921l-28-142H240l28 142h127m215 0l-28-142H454l29 142h127z" horiz-adv-x="627" vert-adv-y="1000"/><glyph glyph-name="unidd" unicode="Ý" d="M668 712L380 285 323 0H157l58 290L81 712h178l65-266 161 266h183M566 957L434 780H317l106 177h143z" horiz-adv-x="585" vert-adv-y="1000"/><glyph glyph-name="unide" unicode="Þ" d="M588 386q0-100-72-175t-198-75H208L181 0H15l143 712h166l-26-128h93q88 0 142.5-53T588 386m-167-15q0 66-59 66h-93l-31-154h87q49 0 72.5 30t23.5 58z" horiz-adv-x="596" vert-adv-y="1000"/><glyph glyph-name="unidf" unicode="ß" d="M565 560q0-39-20.5-78T482 422q40-26 40-75 0-8-2-22l-28-152q-17-93-63-133T294 0h-60l26 131h19q23 0 37 12 14 11 20 40l26 135q2 12 2 16 0 32-36 32h-23l24 120h25q24 0 38 16.5t14 38.5q0 14-6 24-12 18-47 18-42 0-62-18t-27-55L162 0H5l105 524q12 59 35.5 98t59.5 59.5q36 20.5 75 28.5t91 8q88 0 141-41t53-117z" horiz-adv-x="557" vert-adv-y="1000"/><glyph glyph-name="unie0" unicode="à" d="M484 389q0-20-6-50L410 0H260l9 44Q220-5 152-5 82-5 42 39T2 142q0 83 48 129 55 54 157 54h112l4 19q3 12 3 23 0 47-64 47-63 0-100-43L84 475q73 69 203 69 82 0 139.5-38T484 389M298 221h-76q-32 0-49.5-18T155 160q0-17 12.5-28.5T202 120q39 0 67 28 19 19 26 58l3 15m74 387H264l-72 177h142l38-177z" horiz-adv-x="513" vert-adv-y="1000"/><glyph glyph-name="unie1" unicode="á" d="M484 389q0-20-6-50L410 0H260l9 44Q220-5 152-5 82-5 42 39T2 142q0 83 48 129 55 54 157 54h112l4 19q3 12 3 23 0 47-64 47-63 0-100-43L84 475q73 69 203 69 82 0 139.5-38T484 389M298 221h-76q-32 0-49.5-18T155 160q0-17 12.5-28.5T202 120q39 0 67 28 19 19 26 58l3 15m213 564L379 608H262l106 177h143z" horiz-adv-x="513" vert-adv-y="1000"/><glyph glyph-name="unie2" unicode="â" d="M484 389q0-20-6-50L410 0H260l9 44Q220-5 152-5 82-5 42 39T2 142q0 83 48 129 55 54 157 54h112l4 19q3 12 3 23 0 47-64 47-63 0-100-43L84 475q73 69 203 69 82 0 139.5-38T484 389M298 221h-76q-32 0-49.5-18T155 160q0-17 12.5-28.5T202 120q39 0 67 28 19 19 26 58l3 15m208 387H397l-56 87-93-87H128l165 179h120l93-179z" horiz-adv-x="513" vert-adv-y="1000"/><glyph glyph-name="unie3" unicode="ã" d="M484 389q0-20-6-50L410 0H260l9 44Q220-5 152-5 82-5 42 39T2 142q0 83 48 129 55 54 157 54h112l4 19q3 12 3 23 0 47-64 47-63 0-100-43L84 475q73 69 203 69 82 0 139.5-38T484 389M298 221h-76q-32 0-49.5-18T155 160q0-17 12.5-28.5T202 120q39 0 67 28 19 19 26 58l3 15m217 444q-58-55-119-55-42 0-82 21-30 16-53 16-33 0-62-29l-54 72q58 55 119 55 42 0 82-21 30-16 53-16 33 0 62 29l54-72z" horiz-adv-x="513" vert-adv-y="1000"/><glyph glyph-name="unie4" unicode="ä" d="M484 389q0-20-6-50L410 0H260l9 44Q220-5 152-5 82-5 42 39T2 142q0 83 48 129 55 54 157 54h112l4 19q3 12 3 23 0 47-64 47-63 0-100-43L84 475q73 69 203 69 82 0 139.5-38T484 389M298 221h-76q-32 0-49.5-18T155 160q0-17 12.5-28.5T202 120q39 0 67 28 19 19 26 58l3 15m3 528l-28-142H146l28 142h127m215 0l-28-142H361l28 142h127z" horiz-adv-x="513" vert-adv-y="1000"/><glyph glyph-name="unie5" unicode="å" d="M484 389q0-20-6-50L410 0H260l9 44Q220-5 152-5 82-5 42 39T2 142q0 83 48 129 55 54 157 54h112l4 19q3 12 3 23 0 47-64 47-63 0-100-43L84 475q73 69 203 69 82 0 139.5-38T484 389M298 221h-76q-32 0-49.5-18T155 160q0-17 12.5-28.5T202 120q39 0 67 28 19 19 26 58l3 15m172 504q0-56-38.5-94T338 593q-55 0-93.5 38T206 725q0 56 38.5 94t93.5 38q55 0 93.5-37.5T470 725m-96.5-36l7.75 7.5Q389 704 389 725t-15.5 36Q358 776 338 776t-35.5-15Q287 746 287 725t15.5-36q15.5-15 35.5-15t35.5 15z" horiz-adv-x="513" vert-adv-y="1000"/><glyph glyph-name="unie6" unicode="æ" d="M775 349q0-53-18-129H447q-2-20-2-23 0-33 20-52.5t59-19.5q63 0 115 50l78-102Q635-6 505-6 398-6 341 59 269-6 173-6 90-6 46 35T2 142q0 80 46 126 55 55 159 55h112l4 19q3 21 3 25 0 47-64 47-63 0-100-43L84 475q73 69 203 69 87 0 144-44 64 44 143 44 89 0 145-51.5T775 349M298 220h-76q-32 0-49.5-18T155 160q0-17 12.5-28.5T202 120q39 0 67 28 19 19 26 57l3 15m329 129q0 31-16 49t-46 18q-71 0-98-93h157q3 12 3 26z" horiz-adv-x="803" vert-adv-y="1000"/><glyph glyph-name="unie7" unicode="ç" d="M470 472L352 368q-27 35-57 35-31 0-54-24-34-36-48-110-7-37-7-63 0-71 54-71 38 0 74 36l86-113Q328-6 223-6q-48 0-90 18T60 75q-31 45-31 110 0 41 8 84 50 275 273 275 101 0 160-72M267-52l-61-142H71l81 142h115z" horiz-adv-x="453" vert-adv-y="1000"/><glyph glyph-name="unie8" unicode="è" d="M505 348q0-53-18-129H177q-2-14-2-22 0-33 20-52.5t59-19.5q63 0 115 50l78-102Q365-6 235-6q-36 0-70 9T98.5 32.5Q66 53 46.5 92T27 185q0 98 30.5 178T152 493.5Q216 544 304 544t144.5-52.5Q505 439 505 348m-148 0q0 31-16 49.5T295 416q-71 0-98-94h157q3 12 3 26m32 260H281l-72 177h142l38-177z" horiz-adv-x="533" vert-adv-y="1000"/><glyph glyph-name="unie9" unicode="é" d="M505 348q0-53-18-129H177q-2-14-2-22 0-33 20-52.5t59-19.5q63 0 115 50l78-102Q365-6 235-6q-36 0-70 9T98.5 32.5Q66 53 46.5 92T27 185q0 98 30.5 178T152 493.5Q216 544 304 544t144.5-52.5Q505 439 505 348m-148 0q0 31-16 49.5T295 416q-71 0-98-94h157q3 12 3 26m171 437L396 608H279l106 177h143z" horiz-adv-x="533" vert-adv-y="1000"/><glyph glyph-name="uniea" unicode="ê" d="M505 348q0-53-18-129H177q-2-14-2-22 0-33 20-52.5t59-19.5q63 0 115 50l78-102Q365-6 235-6q-36 0-70 9T98.5 32.5Q66 53 46.5 92T27 185q0 98 30.5 178T152 493.5Q216 544 304 544t144.5-52.5Q505 439 505 348m-148 0q0 31-16 49.5T295 416q-71 0-98-94h157q3 12 3 26m166 260H414l-56 87-93-87H145l165 179h120l93-179z" horiz-adv-x="533" vert-adv-y="1000"/><glyph glyph-name="unieb" unicode="ë" d="M505 348q0-53-18-129H177q-2-14-2-22 0-33 20-52.5t59-19.5q63 0 115 50l78-102Q365-6 235-6q-36 0-70 9T98.5 32.5Q66 53 46.5 92T27 185q0 98 30.5 178T152 493.5Q216 544 304 544t144.5-52.5Q505 439 505 348m-148 0q0 31-16 49.5T295 416q-71 0-98-94h157q3 12 3 26m-39 401l-28-142H163l28 142h127m215 0l-28-142H378l28 142h127z" horiz-adv-x="533" vert-adv-y="1000"/><glyph glyph-name="uniec" unicode="ì" d="M264 515L161 0H5l103 515h156m-2 93H154L82 785h142l38-177z" horiz-adv-x="274" vert-adv-y="1000"/><glyph glyph-name="unied" unicode="í" d="M264 515L161 0H5l103 515h156m122 270L254 608H137l106 177h143z" horiz-adv-x="274" vert-adv-y="1000"/><glyph glyph-name="uniee" unicode="î" d="M264 515L161 0H5l103 515h156m127 93H282l-56 87-93-87H13l165 179h120l93-179z" horiz-adv-x="274" vert-adv-y="1000"/><glyph glyph-name="unief" unicode="ï" d="M264 515L161 0H5l103 515h156m-78 234l-28-142H31l28 142h127m215 0l-28-142H246l28 142h127z" horiz-adv-x="274" vert-adv-y="1000"/><glyph glyph-name="unif0" unicode="ð" d="M505 674l-21-108h-41l15-59q26-103 26-152 0-41-11-96-7-34-11-51.5T447 157q-11-33-27.5-59T380 51Q318-6 217-6 137-6 86.5 40.5T36 170q0 37 11 89 16 79 34.5 123t54.5 81q33 33 83 49 35 11 74 11l-11 43H170l22 108h60l-12 49h162l12-49h91M328 338q0 47-41 47-25 0-42-15-23-20-42-111-11-55-11-79 0-47 41-47 25 0 42 15 23 20 42 111 11 55 11 79z" horiz-adv-x="522" vert-adv-y="1000"/><glyph glyph-name="unif1" unicode="ñ" d="M517 396q0-30-7-62L443 0H287l65 325q3 14 3 27 0 25-14 38t-31 13q-67 0-83-78L162 0H6l107 538h149l-9-47q53 53 132 53 49 0 90.5-36T517 396m21 269q-58-55-119-55-42 0-82 21-30 16-53 16-33 0-62-29l-54 72q58 55 119 55 42 0 82-21 30-16 53-16 33 0 62 29l54-72z" horiz-adv-x="550" vert-adv-y="1000"/><glyph glyph-name="unif2" unicode="ò" d="M491 366q0-42-11-97-17-83-37-129t-56-82Q323-6 216-6 140-6 84.5 40.5T29 172q0 42 11 97 17 83 37 129t56 82q64 64 171 64 76 0 131.5-46.5T491 366m-155-19q0 56-48 56-30 0-48-18-27-26-45-116-11-55-11-78 0-56 48-56 30 0 48 18 27 26 45 116 11 55 11 78m46 261H274l-72 177h142l38-177z" horiz-adv-x="522" vert-adv-y="1000"/><glyph glyph-name="unif3" unicode="ó" d="M491 366q0-42-11-97-17-83-37-129t-56-82Q323-6 216-6 140-6 84.5 40.5T29 172q0 42 11 97 17 83 37 129t56 82q64 64 171 64 76 0 131.5-46.5T491 366m-155-19q0 56-48 56-30 0-48-18-27-26-45-116-11-55-11-78 0-56 48-56 30 0 48 18 27 26 45 116 11 55 11 78m185 438L389 608H272l106 177h143z" horiz-adv-x="522" vert-adv-y="1000"/><glyph glyph-name="unif4" unicode="ô" d="M491 366q0-42-11-97-17-83-37-129t-56-82Q323-6 216-6 140-6 84.5 40.5T29 172q0 42 11 97 17 83 37 129t56 82q64 64 171 64 76 0 131.5-46.5T491 366m-155-19q0 56-48 56-30 0-48-18-27-26-45-116-11-55-11-78 0-56 48-56 30 0 48 18 27 26 45 116 11 55 11 78m180 261H407l-56 87-93-87H138l165 179h120l93-179z" horiz-adv-x="522" vert-adv-y="1000"/><glyph glyph-name="unif5" unicode="õ" d="M491 366q0-42-11-97-17-83-37-129t-56-82Q323-6 216-6 140-6 84.5 40.5T29 172q0 42 11 97 17 83 37 129t56 82q64 64 171 64 76 0 131.5-46.5T491 366m-155-19q0 56-48 56-30 0-48-18-27-26-45-116-11-55-11-78 0-56 48-56 30 0 48 18 27 26 45 116 11 55 11 78m189 318q-58-55-119-55-42 0-82 21-30 16-53 16-33 0-62-29l-54 72q58 55 119 55 42 0 82-21 30-16 53-16 33 0 62 29l54-72z" horiz-adv-x="522" vert-adv-y="1000"/><glyph glyph-name="unif6" unicode="ö" d="M491 366q0-42-11-97-17-83-37-129t-56-82Q323-6 216-6 140-6 84.5 40.5T29 172q0 42 11 97 17 83 37 129t56 82q64 64 171 64 76 0 131.5-46.5T491 366m-155-19q0 56-48 56-30 0-48-18-27-26-45-116-11-55-11-78 0-56 48-56 30 0 48 18 27 26 45 116 11 55 11 78m-25 402l-28-142H156l28 142h127m215 0l-28-142H371l28 142h127z" horiz-adv-x="522" vert-adv-y="1000"/><glyph glyph-name="unif7" unicode="÷" d="M319 160L290 12H141l30 148h148m189 208l-29-146H32l29 146h447M399 578l-30-148H221l29 148h149z" horiz-adv-x="528" vert-adv-y="1000"/><glyph glyph-name="unif8" unicode="ø" d="M542 582l-80-108q34-45 34-108 0-42-11-97-16-81-36.5-128T392 58Q328-6 219-6q-61 0-101 25L72-44h-89L64 64q-34 45-34 108 0 42 11 97 16 81 36.5 128t56.5 83q64 64 173 64 54 0 101-25l46 63h88M340 328L204 144q12-9 31-9 40 0 60.5 32.5T330 269q9 46 10 59m-18 66q-12 9-31 9-40 0-60.5-32.5T196 269q-1-7-10-59l136 184z" horiz-adv-x="526" vert-adv-y="1000"/><glyph glyph-name="unif9" unicode="ù" d="M544 538L437 0H288l9 47Q244-6 165-6q-49 0-90.5 36T33 142q0 30 7 62l67 334h156l-65-325q-3-14-3-27 0-25 14-38t31-13q67 0 83 78l65 325h156m-157 70H279l-72 177h142l38-177z" horiz-adv-x="550" vert-adv-y="1000"/><glyph glyph-name="unifa" unicode="ú" d="M544 538L437 0H288l9 47Q244-6 165-6q-49 0-90.5 36T33 142q0 30 7 62l67 334h156l-65-325q-3-14-3-27 0-25 14-38t31-13q67 0 83 78l65 325h156m-18 247L394 608H277l106 177h143z" horiz-adv-x="550" vert-adv-y="1000"/><glyph glyph-name="unifb" unicode="û" d="M544 538L437 0H288l9 47Q244-6 165-6q-49 0-90.5 36T33 142q0 30 7 62l67 334h156l-65-325q-3-14-3-27 0-25 14-38t31-13q67 0 83 78l65 325h156m-23 70H412l-56 87-93-87H143l165 179h120l93-179z" horiz-adv-x="550" vert-adv-y="1000"/><glyph glyph-name="unifc" unicode="ü" d="M544 538L437 0H288l9 47Q244-6 165-6q-49 0-90.5 36T33 142q0 30 7 62l67 334h156l-65-325q-3-14-3-27 0-25 14-38t31-13q67 0 83 78l65 325h156M316 749l-28-142H161l28 142h127m215 0l-28-142H376l28 142h127z" horiz-adv-x="550" vert-adv-y="1000"/><glyph glyph-name="unifd" unicode="ý" d="M546 538L222-64q-22-41-44-62-53-54-136-54h-58L13-38h32q20 0 33.5 11.5T105 10l23 43-75 485h154l30-300 145 300h164m-44 247L370 608H253l106 177h143z" horiz-adv-x="488" vert-adv-y="1000"/><glyph glyph-name="unife" unicode="þ" d="M518 405q0-45-18-136-19-95-37-146t-45-78Q367-6 286-6q-79 0-115 46l-44-214H-29l177 886h156l-42-209q45 41 117 41 40 0 69-14.5t43-37.5q14-23 20.5-44.5T518 405m-163-55q0 53-47 53-41 0-59.5-30T215 269q-11-55-11-81 0-53 47-53 41 0 59.5 30T344 269q11 55 11 81z" horiz-adv-x="541" vert-adv-y="1000"/><glyph glyph-name="uniff" unicode="ÿ" d="M546 538L222-64q-22-41-44-62-53-54-136-54h-58L13-38h32q20 0 33.5 11.5T105 10l23 43-75 485h154l30-300 145 300h164M292 749l-28-142H137l28 142h127m215 0l-28-142H352l28 142h127z" horiz-adv-x="488" vert-adv-y="1000"/><glyph glyph-name="uni0100" unicode="Ā" d="M569 0H400l-10 112H179L124 0H-53l388 712h129L569 0M377 247l-22 210-108-210h130m205 641l-20-99H252l20 99h310z" horiz-adv-x="622" vert-adv-y="1000"/><glyph glyph-name="uni0101" unicode="ā" d="M484 389q0-20-6-50L410 0H260l9 44Q220-5 152-5 82-5 42 39T2 142q0 83 48 129 55 54 157 54h112l4 19q3 12 3 23 0 47-64 47-63 0-100-43L84 475q73 69 203 69 82 0 139.5-38T484 389M298 221h-76q-32 0-49.5-18T155 160q0-17 12.5-28.5T202 120q39 0 67 28 19 19 26 58l3 15m197 501l-20-99H165l20 99h310z" horiz-adv-x="513" vert-adv-y="1000"/><glyph glyph-name="uni0102" unicode="Ă" d="M569 0H400l-10 112H179L124 0H-53l388 712h129L569 0M377 247l-22 210-108-210h130m218 678q-16-82-59-118.5T420 770q-67 0-103 34t-36 86q0 18 3 35h99q-1-9-1-14 0-20 14.5-29.5T431 872q51 0 62 53h102z" horiz-adv-x="622" vert-adv-y="1000"/><glyph glyph-name="uni0103" unicode="ă" d="M484 389q0-20-6-50L410 0H260l9 44Q220-5 152-5 82-5 42 39T2 142q0 83 48 129 55 54 157 54h112l4 19q3 12 3 23 0 47-64 47-63 0-100-43L84 475q73 69 203 69 82 0 139.5-38T484 389M298 221h-76q-32 0-49.5-18T155 160q0-17 12.5-28.5T202 120q39 0 67 28 19 19 26 58l3 15m197 532q-16-82-59-118.5T320 598q-67 0-103 34t-36 86q0 18 3 35h99q-1-9-1-14 0-20 14.5-29.5T331 700q51 0 62 53h102z" horiz-adv-x="513" vert-adv-y="1000"/><glyph glyph-name="uni0104" unicode="Ą" d="M569 0H400l-10 112H179L124 0H-53l388 712h129L569 0M377 247l-22 210-108-210h130M533-52l-61-142H337l81 142h115z" horiz-adv-x="622" vert-adv-y="1000"/><glyph glyph-name="uni0105" unicode="ą" d="M484 389q0-20-6-50L410 0H260l9 44Q220-5 152-5 82-5 42 39T2 142q0 83 48 129 55 54 157 54h112l4 19q3 12 3 23 0 47-64 47-63 0-100-43L84 475q73 69 203 69 82 0 139.5-38T484 389M298 221h-76q-32 0-49.5-18T155 160q0-17 12.5-28.5T202 120q39 0 67 28 19 19 26 58l3 15m76-273l-61-142H178l81 142h115z" horiz-adv-x="513" vert-adv-y="1000"/><glyph glyph-name="uni0106" unicode="Ć" d="M600 491H434q-2 81-69 81-41 0-72-31-33-33-63-185-19-95-19-140 0-36 19.5-56t52.5-20q68 0 100 81h171Q516 107 442 50.5T270-6Q163-6 103.5 55T44 202q0 59 19 154 15 77 25 116t31 85q21 46 51 78 78 83 207 83 109 0 166-64t57-163m-9 466L459 780H342l106 177h143z" horiz-adv-x="583" vert-adv-y="1000"/><glyph glyph-name="uni0107" unicode="ć" d="M470 472L352 368q-27 35-57 35-31 0-54-24-34-36-48-110-7-37-7-63 0-71 54-71 38 0 74 36l86-113Q328-6 223-6q-48 0-90 18T60 75q-31 45-31 110 0 41 8 84 50 275 273 275 101 0 160-72m55 313L393 608H276l106 177h143z" horiz-adv-x="453" vert-adv-y="1000"/><glyph glyph-name="uni0108" unicode="Ĉ" d="M600 491H434q-2 81-69 81-41 0-72-31-33-33-63-185-19-95-19-140 0-36 19.5-56t52.5-20q68 0 100 81h171Q516 107 442 50.5T270-6Q163-6 103.5 55T44 202q0 59 19 154 15 77 25 116t31 85q21 46 51 78 78 83 207 83 109 0 166-64t57-163m-14 289H477l-56 87-93-87H208l165 179h120l93-179z" horiz-adv-x="583" vert-adv-y="1000"/><glyph glyph-name="uni0109" unicode="ĉ" d="M470 472L352 368q-27 35-57 35-31 0-54-24-34-36-48-110-7-37-7-63 0-71 54-71 38 0 74 36l86-113Q328-6 223-6q-48 0-90 18T60 75q-31 45-31 110 0 41 8 84 50 275 273 275 101 0 160-72m50 136H411l-56 87-93-87H142l165 179h120l93-179z" horiz-adv-x="453" vert-adv-y="1000"/><glyph glyph-name="uni010A" unicode="Ċ" d="M600 491H434q-2 81-69 81-41 0-72-31-33-33-63-185-19-95-19-140 0-36 19.5-56t52.5-20q68 0 100 81h171Q516 107 442 50.5T270-6Q163-6 103.5 55T44 202q0 59 19 154 15 77 25 116t31 85q21 46 51 78 78 83 207 83 109 0 166-64t57-163M490 920l-27-137H335l28 137h127z" horiz-adv-x="583" vert-adv-y="1000"/><glyph glyph-name="uni010B" unicode="ċ" d="M470 472L352 368q-27 35-57 35-31 0-54-24-34-36-48-110-7-37-7-63 0-71 54-71 38 0 74 36l86-113Q328-6 223-6q-48 0-90 18T60 75q-31 45-31 110 0 41 8 84 50 275 273 275 101 0 160-72m-47 276l-27-137H268l28 137h127z" horiz-adv-x="453" vert-adv-y="1000"/><glyph glyph-name="uni010C" unicode="Č" d="M600 491H434q-2 81-69 81-41 0-72-31-33-33-63-185-19-95-19-140 0-36 19.5-56t52.5-20q68 0 100 81h171Q516 107 442 50.5T270-6Q163-6 103.5 55T44 202q0 59 19 154 15 77 25 116t31 85q21 46 51 78 78 83 207 83 109 0 166-64t57-163m29 468L464 780H344l-94 179h110l56-87 93 87h120z" horiz-adv-x="583" vert-adv-y="1000"/><glyph glyph-name="uni010D" unicode="č" d="M470 472L352 368q-27 35-57 35-31 0-54-24-34-36-48-110-7-37-7-63 0-71 54-71 38 0 74 36l86-113Q328-6 223-6q-48 0-90 18T60 75q-31 45-31 110 0 41 8 84 50 275 273 275 101 0 160-72m93 315L398 608H278l-94 179h110l56-87 93 87h120z" horiz-adv-x="453" vert-adv-y="1000"/><glyph glyph-name="uni010E" unicode="Ď" d="M613 510q0-34-23-154-27-136-46.5-187.5T480 73Q407 0 277 0H15l143 712h239q100 0 158-53t58-149m-168-16q0 72-76 72h-74l-84-420h73q51 0 83 32 17 17 28 50.5T424 356q21 108 21 138m181 465L461 780H341l-94 179h110l56-87 93 87h120z" horiz-adv-x="618" vert-adv-y="1000"/><glyph glyph-name="uni010F" unicode="ď" d="M571 712L429 0H279l9 45Q242-6 165-6 90-6 57 38t-33 97q0 47 18 134 19 95 37 146t45 78q51 51 133 51 75 0 115-49l43 217h156M338 350q0 53-47 53-41 0-59.5-30T198 269q-11-55-11-81 0-53 47-53 41 0 59.5 30T327 269q11 55 11 81m471 403l-97-173H602l67 173h140z" horiz-adv-x="541" vert-adv-y="1000"/><glyph glyph-name="uni0110" unicode="Đ" d="M640 510q0-34-23-154-27-136-46.5-187.5T507 73Q434 0 304 0H42l60 296H40l25 126h62l58 290h239q100 0 158-53t58-149m-168-16q0 72-76 72h-74l-29-144h85l-25-126h-85l-31-150h74q51 0 83 32 17 17 28 50.5T451 356q21 108 21 138z" horiz-adv-x="645" vert-adv-y="1000"/><glyph glyph-name="uni0111" unicode="đ" d="M605 664l-19-96h-45L428 0H278l9 45Q241-6 164-6 89-6 56 38t-33 97q0 47 18 134 19 95 37 146t45 78q51 51 133 51 75 0 115-49l14 73h-66l19 96h66l10 48h156l-10-48h45M337 350q0 53-47 53-41 0-59.5-30T197 269q-11-55-11-81 0-53 47-53 41 0 59.5 30T326 269q11 55 11 81z" horiz-adv-x="540" vert-adv-y="1000"/><glyph glyph-name="uni0112" unicode="Ē" d="M617 712l-29-146H295l-27-134h253l-29-146H239l-28-140h299L481 0H15l143 712h459m-62 176l-20-99H225l20 99h310z" horiz-adv-x="581" vert-adv-y="1000"/><glyph glyph-name="uni0113" unicode="ē" d="M505 348q0-53-18-129H177q-2-14-2-22 0-33 20-52.5t59-19.5q63 0 115 50l78-102Q365-6 235-6q-36 0-70 9T98.5 32.5Q66 53 46.5 92T27 185q0 98 30.5 178T152 493.5Q216 544 304 544t144.5-52.5Q505 439 505 348m-148 0q0 31-16 49.5T295 416q-71 0-98-94h157q3 12 3 26m155 374l-20-99H182l20 99h310z" horiz-adv-x="533" vert-adv-y="1000"/><glyph glyph-name="uni0114" unicode="Ĕ" d="M617 712l-29-146H295l-27-134h253l-29-146H239l-28-140h299L481 0H15l143 712h459m-65 213q-16-82-59-118.5T377 770q-67 0-103 34t-36 86q0 18 3 35h99q-1-9-1-14 0-20 14.5-29.5T388 872q51 0 62 53h102z" horiz-adv-x="581" vert-adv-y="1000"/><glyph glyph-name="uni0115" unicode="ĕ" d="M506 348q0-53-18-129H178q-2-14-2-22 0-33 20-52.5t59-19.5q63 0 115 50l78-102Q366-6 236-6q-36 0-70 9T99.5 32.5Q67 53 47.5 92T28 185q0 98 30.5 178T153 493.5Q217 544 305 544t144.5-52.5Q506 439 506 348m-148 0q0 31-16 49.5T296 416q-71 0-98-94h157q3 12 3 26m147 405q-16-82-59-118.5T330 598q-67 0-103 34t-36 86q0 18 3 35h99q-1-9-1-14 0-20 14.5-29.5T341 700q51 0 62 53h102z" horiz-adv-x="533" vert-adv-y="1000"/><glyph glyph-name="uni0116" unicode="Ė" d="M617 712l-29-146H295l-27-134h253l-29-146H239l-28-140h299L481 0H15l143 712h459M473 920l-27-137H318l28 137h127z" horiz-adv-x="581" vert-adv-y="1000"/><glyph glyph-name="uni0117" unicode="ė" d="M505 348q0-53-18-129H177q-2-14-2-22 0-33 20-52.5t59-19.5q63 0 115 50l78-102Q365-6 235-6q-36 0-70 9T98.5 32.5Q66 53 46.5 92T27 185q0 98 30.5 178T152 493.5Q216 544 304 544t144.5-52.5Q505 439 505 348m-148 0q0 31-16 49.5T295 416q-71 0-98-94h157q3 12 3 26m69 400l-27-137H271l28 137h127z" horiz-adv-x="533" vert-adv-y="1000"/><glyph glyph-name="uni0118" unicode="Ę" d="M617 712l-29-146H295l-27-134h253l-29-146H239l-28-140h299L481 0H15l143 712h459M449-52l-61-142H253l81 142h115z" horiz-adv-x="581" vert-adv-y="1000"/><glyph glyph-name="uni0119" unicode="ę" d="M505 348q0-53-18-129H177q-2-14-2-22 0-33 20-52.5t59-19.5q63 0 115 50l78-102Q365-6 235-6q-36 0-70 9T98.5 32.5Q66 53 46.5 92T27 185q0 98 30.5 178T152 493.5Q216 544 304 544t144.5-52.5Q505 439 505 348m-148 0q0 31-16 49.5T295 416q-71 0-98-94h157q3 12 3 26m19-400l-61-142H180l81 142h115z" horiz-adv-x="533" vert-adv-y="1000"/><glyph glyph-name="uni011A" unicode="Ě" d="M617 712l-29-146H295l-27-134h253l-29-146H239l-28-140h299L481 0H15l143 712h459m-5 247L447 780H327l-94 179h110l56-87 93 87h120z" horiz-adv-x="581" vert-adv-y="1000"/><glyph glyph-name="uni011B" unicode="ě" d="M505 348q0-53-18-129H177q-2-14-2-22 0-33 20-52.5t59-19.5q63 0 115 50l78-102Q365-6 235-6q-36 0-70 9T98.5 32.5Q66 53 46.5 92T27 185q0 98 30.5 178T152 493.5Q216 544 304 544t144.5-52.5Q505 439 505 348m-148 0q0 31-16 49.5T295 416q-71 0-98-94h157q3 12 3 26m209 439L401 608H281l-94 179h110l56-87 93 87h120z" horiz-adv-x="533" vert-adv-y="1000"/><glyph glyph-name="uni011C" unicode="Ĝ" d="M607 488H441q-3 84-72 84-43 0-74-31-20-21-33-59.5T230 356q-19-87-19-140 0-36 20-56t53-20q43 0 74.5 31t42.5 83l3 15H303l26 138h266l-18-96q-15-80-38.5-135T473 76Q395-6 271-6 158-6 101 56T44 202q0 61 19 154 25 128 45 180t64 99q77 83 209 83 109 0 167.5-64T607 488m-21 292H477l-56 87-93-87H208l165 179h120l93-179z" horiz-adv-x="615" vert-adv-y="1000"/><glyph glyph-name="uni011D" unicode="ĝ" d="M528 538L429 39q-20-104-88-161.5T167-180q-121 0-187 74L88-12q34-36 79-36 47 0 73.5 26.5T274 40l8 39q-40-45-105-45-58 0-102 37.5T31 178q0 27 15 111 16 86 31.5 130.5T120 491q53 53 135 53 73 0 114-53l9 47h150M331 353q0 50-46 50-34 0-52-24t-31-91q-8-43-8-63 0-50 46-50 34 0 52 24t31 91q8 43 8 63m185 255H407l-56 87-93-87H138l165 179h120l93-179z" horiz-adv-x="533" vert-adv-y="1000"/><glyph glyph-name="uni011E" unicode="Ğ" d="M607 488H441q-3 84-72 84-43 0-74-31-20-21-33-59.5T230 356q-19-87-19-140 0-36 20-56t53-20q43 0 74.5 31t42.5 83l3 15H303l26 138h266l-18-96q-15-80-38.5-135T473 76Q395-6 271-6 158-6 101 56T44 202q0 61 19 154 25 128 45 180t64 99q77 83 209 83 109 0 167.5-64T607 488m-22 437q-16-82-59-118.5T410 770q-67 0-103 34t-36 86q0 18 3 35h99q-1-9-1-14 0-20 14.5-29.5T421 872q51 0 62 53h102z" horiz-adv-x="615" vert-adv-y="1000"/><glyph glyph-name="uni011F" unicode="ğ" d="M528 538L429 39q-20-104-88-161.5T167-180q-121 0-187 74L88-12q34-36 79-36 47 0 73.5 26.5T274 40l8 39q-40-45-105-45-58 0-102 37.5T31 178q0 27 15 111 16 86 31.5 130.5T120 491q53 53 135 53 73 0 114-53l9 47h150M331 353q0 50-46 50-34 0-52-24t-31-91q-8-43-8-63 0-50 46-50 34 0 52 24t31 91q8 43 8 63m174 400q-16-82-59-118.5T330 598q-67 0-103 34t-36 86q0 18 3 35h99q-1-9-1-14 0-20 14.5-29.5T341 700q51 0 62 53h102z" horiz-adv-x="533" vert-adv-y="1000"/><glyph glyph-name="uni0120" unicode="Ġ" d="M607 488H441q-3 84-72 84-43 0-74-31-20-21-33-59.5T230 356q-19-87-19-140 0-36 20-56t53-20q43 0 74.5 31t42.5 83l3 15H303l26 138h266l-18-96q-15-80-38.5-135T473 76Q395-6 271-6 158-6 101 56T44 202q0 61 19 154 25 128 45 180t64 99q77 83 209 83 109 0 167.5-64T607 488M490 920l-27-137H335l28 137h127z" horiz-adv-x="615" vert-adv-y="1000"/><glyph glyph-name="uni0121" unicode="ġ" d="M528 538L429 39q-20-104-88-161.5T167-180q-121 0-187 74L88-12q34-36 79-36 47 0 73.5 26.5T274 40l8 39q-40-45-105-45-58 0-102 37.5T31 178q0 27 15 111 16 86 31.5 130.5T120 491q53 53 135 53 73 0 114-53l9 47h150M331 353q0 50-46 50-34 0-52-24t-31-91q-8-43-8-63 0-50 46-50 34 0 52 24t31 91q8 43 8 63m88 395l-27-137H264l28 137h127z" horiz-adv-x="533" vert-adv-y="1000"/><glyph glyph-name="uni0122" unicode="Ģ" d="M607 488H441q-3 84-72 84-43 0-74-31-20-21-33-59.5T230 356q-19-87-19-140 0-36 20-56t53-20q43 0 74.5 31t42.5 83l3 15H303l26 138h266l-18-96q-15-80-38.5-135T473 76Q395-6 271-6 158-6 101 56T44 202q0 61 19 154 25 128 45 180t64 99q77 83 209 83 109 0 167.5-64T607 488M327-52l-61-142H129l81 142h117z" horiz-adv-x="615" vert-adv-y="1000"/><glyph glyph-name="uni0123" unicode="ģ" d="M528 538L429 39q-20-104-88-161.5T167-180q-121 0-187 74L88-12q34-36 79-36 47 0 73.5 26.5T274 40l8 39q-40-45-105-45-58 0-102 37.5T31 178q0 27 15 111 16 86 31.5 130.5T120 491q53 53 135 53 73 0 114-53l9 47h150M331 353q0 50-46 50-34 0-52-24t-31-91q-8-43-8-63 0-50 46-50 34 0 52 24t31 91q8 43 8 63m191 432L390 608H273l106 177h143z" horiz-adv-x="533" vert-adv-y="1000"/><glyph glyph-name="uni0124" unicode="Ĥ" d="M667 712L524 0H358l58 287H239L181 0H15l143 712h166l-55-278h177l55 278h166m-57 68H501l-56 87-93-87H232l165 179h120l93-179z" horiz-adv-x="647" vert-adv-y="1000"/><glyph glyph-name="uni0125" unicode="ĥ" d="M518 396q0-30-7-62L444 0H288l65 325q3 14 3 27 0 25-14 38t-31 13q-67 0-83-78L163 0H7l142 712h156l-42-209q52 41 120 41 51 0 93-36t42-112m-93 384H316l-56 87-93-87H47l165 179h120l93-179z" horiz-adv-x="550" vert-adv-y="1000"/><glyph glyph-name="uni0126" unicode="Ħ" d="M741 635l-26-128h-64L549 0H383l58 287H264L206 0H40l102 507H78l26 128h64l15 77h166l-15-77h177l15 77h166l-15-77h64M485 507H308l-14-73h177l14 73z" horiz-adv-x="746" vert-adv-y="1000"/><glyph glyph-name="uni0127" unicode="ħ" d="M541 396q0-30-7-62L467 0H311l65 325q3 14 3 27 0 25-14 38t-31 13q-67 0-83-78L186 0H30l113 568H99l19 96h44l10 48h156l-10-48h67l-19-96h-67l-13-65q52 41 120 41 51 0 93-36t42-112z" horiz-adv-x="575" vert-adv-y="1000"/><glyph glyph-name="uni0128" unicode="Ĩ" d="M324 712L181 0H15l143 712h166m140 133q-58-55-119-55-42 0-82 21-30 16-53 16-33 0-62-29l-54 72q58 55 119 55 42 0 82-21 30-16 53-16 33 0 62 29l54-72z" horiz-adv-x="303" vert-adv-y="1000"/><glyph glyph-name="uni0129" unicode="ĩ" d="M264 515L161 0H5l103 515h156m138 150q-58-55-119-55-42 0-82 21-30 16-53 16-33 0-62-29l-54 72q58 55 119 55 42 0 82-21 30-16 53-16 33 0 62 29l54-72z" horiz-adv-x="274" vert-adv-y="1000"/><glyph glyph-name="uni012A" unicode="Ī" d="M324 712L181 0H15l143 712h166m101 176l-20-99H95l20 99h310z" horiz-adv-x="303" vert-adv-y="1000"/><glyph glyph-name="uni012B" unicode="ī" d="M264 515L161 0H5l103 515h156m120 207l-20-99H54l20 99h310z" horiz-adv-x="274" vert-adv-y="1000"/><glyph glyph-name="uni012C" unicode="Ĭ" d="M324 712L181 0H15l143 712h166m111 213q-16-82-59-118.5T260 770q-67 0-103 34t-36 86q0 18 3 35h99q-1-9-1-14 0-20 14.5-29.5T271 872q51 0 62 53h102z" horiz-adv-x="303" vert-adv-y="1000"/><glyph glyph-name="uni012D" unicode="ĭ" d="M264 515L161 0H5l103 515h156m117 238q-16-82-59-118.5T206 598q-67 0-103 34t-36 86q0 18 3 35h99q-1-9-1-14 0-20 14.5-29.5T217 700q51 0 62 53h102z" horiz-adv-x="274" vert-adv-y="1000"/><glyph glyph-name="uni012E" unicode="Į" d="M324 712L181 0H15l143 712h166M136-52L75-194H-60L21-52h115z" horiz-adv-x="303" vert-adv-y="1000"/><glyph glyph-name="uni012F" unicode="į" d="M265 515L162 0H6l103 515h156m39 197l-24-121H124l24 121h156M118-52L57-194H-78L3-52h115z" horiz-adv-x="274" vert-adv-y="1000"/><glyph glyph-name="uni0130" unicode="İ" d="M324 712L181 0H15l143 712h166m19 208l-27-137H188l28 137h127z" horiz-adv-x="303" vert-adv-y="1000"/><glyph glyph-name="uni0131" unicode="ı" d="M264 515L161 0H5l103 515h156z" horiz-adv-x="274" vert-adv-y="1000"/><glyph glyph-name="uni0132" unicode="Ĳ" d="M324 712L181 0H15l143 712h166m499 0l-96-480q-12-62-39.5-108.5T631 53q-29-24-65.5-38T505-2.5Q481-6 457-6q-70 0-115 20t-80 63l119 102q30-39 77-39 84 0 104 98l95 474h166z" horiz-adv-x="793" vert-adv-y="1000"/><glyph glyph-name="uni0133" unicode="ĳ" d="M264 515L161 0H5l103 515h156m39 197l-24-121H123l24 121h156m236-197L432-21q-15-73-61.5-116T251-180h-93l27 132h51q16 0 27.5 11T278-9l105 524h156m39 197l-24-121H398l24 121h156z" horiz-adv-x="548" vert-adv-y="1000"/><glyph glyph-name="uni0134" unicode="Ĵ" d="M520 712l-96-480q-12-62-39.5-108.5T328 53q-29-24-65.5-38T202-2.5Q178-6 154-6 84-6 39 14t-80 63L78 179q30-39 77-39 84 0 104 98l95 474h166m111 68H522l-56 87-93-87H253l165 179h120l93-179z" horiz-adv-x="490" vert-adv-y="1000"/><glyph glyph-name="uni0135" unicode="ĵ" d="M265 515L158-21q-15-73-61.5-116T-23-180h-93l27 132h51q16 0 27.5 11T4-9l105 524h156m126 93H282l-56 87-93-87H13l165 179h120l93-179z" horiz-adv-x="274" vert-adv-y="1000"/><glyph glyph-name="uni0136" unicode="Ķ" d="M721 712L433 405 596 0H414L298 298l-74-69L179 0H15l143 712h164l-51-255 245 255h205M339-52l-61-142H141l81 142h117z" horiz-adv-x="645" vert-adv-y="1000"/><glyph glyph-name="uni0137" unicode="ķ" d="M590 538L358 306 499 0H321l-81 209-45-40L162 0H6l142 712h156l-72-362 176 188h182M300-52l-61-142H102l81 142h117z" horiz-adv-x="547" vert-adv-y="1000"/><glyph glyph-name="uni0138" unicode="ĸ" d="M589 538L357 306 498 0H320l-81 209-45-40L161 0H5l108 538h155l-37-188 176 188h182z" horiz-adv-x="547" vert-adv-y="1000"/><glyph glyph-name="uni0139" unicode="Ĺ" d="M469 146L440 0H-16l143 712h166L180 146h289m-66 811L271 780H154l106 177h143z" horiz-adv-x="552" vert-adv-y="1000"/><glyph glyph-name="uni013A" unicode="ĺ" d="M298 712L190 170q-2-12-2-15 0-23 29-23h57L247 0h-77Q105 0 67.5 35.5T30 125q0 24 4 44l108 543h156m117 245L283 780H166l106 177h143z" horiz-adv-x="327" vert-adv-y="1000"/><glyph glyph-name="uni013B" unicode="Ļ" d="M469 146L440 0H-16l143 712h166L180 146h289M292-52l-61-142H94l81 142h117z" horiz-adv-x="552" vert-adv-y="1000"/><glyph glyph-name="uni013C" unicode="ļ" d="M298 712L190 170q-2-12-2-15 0-23 29-23h57L247 0h-77Q105 0 67.5 35.5T30 125q0 24 4 44l108 543h156M177-52l-61-142H-21L60-52h117z" horiz-adv-x="327" vert-adv-y="1000"/><glyph glyph-name="uni013D" unicode="Ľ" d="M469 146L440 0H-16l143 712h166L180 146h289m101 566l-97-173H363l67 173h140z" horiz-adv-x="552" vert-adv-y="1000"/><glyph glyph-name="uni013E" unicode="ľ" d="M298 712L190 170q-2-12-2-15 0-23 29-23h57L247 0h-77Q105 0 67.5 35.5T30 125q0 24 4 44l108 543h156m237 41l-97-173H328l67 173h140z" horiz-adv-x="327" vert-adv-y="1000"/><glyph glyph-name="uni013F" unicode="Ŀ" d="M500 146L471 0H15l143 712h166L211 146h289m23 282l-27-137H368l28 137h127z" horiz-adv-x="552" vert-adv-y="1000"/><glyph glyph-name="uni0140" unicode="ŀ" d="M298 712L190 170q-2-12-2-15 0-23 29-23h57L247 0h-77Q105 0 67.5 35.5T30 125q0 24 4 44l108 543h156m132-348l-27-137H275l28 137h127z" horiz-adv-x="428" vert-adv-y="1000"/><glyph glyph-name="uni0141" unicode="Ł" d="M522 146L493 0H37l44 218-64-37 29 146 64 37 70 348h166l-48-241 121 71-29-147-121-70-36-179h289z" horiz-adv-x="574" vert-adv-y="1000"/><glyph glyph-name="uni0142" unicode="ł" d="M328 542l-28-139-51-30-41-203q-2-12-2-15 0-23 29-23h57L265 0h-77Q123 0 85.5 35.5T48 125q0 24 4 44l22 111-53-31 27 139 53 30 59 294h155l-40-200 53 30z" horiz-adv-x="334" vert-adv-y="1000"/><glyph glyph-name="uni0143" unicode="Ń" d="M688 712L545 0H407L256 370 181 0H15l143 712h138l152-371 74 371h166m-91 245L465 780H348l106 177h143z" horiz-adv-x="667" vert-adv-y="1000"/><glyph glyph-name="uni0144" unicode="ń" d="M517 396q0-30-7-62L443 0H287l65 325q3 14 3 27 0 25-14 38t-31 13q-67 0-83-78L162 0H6l107 538h149l-9-47q53 53 132 53 49 0 90.5-36T517 396m17 389L402 608H285l106 177h143z" horiz-adv-x="550" vert-adv-y="1000"/><glyph glyph-name="uni0145" unicode="Ņ" d="M688 712L545 0H407L256 370 181 0H15l143 712h138l152-371 74 371h166M355-52l-61-142H157l81 142h117z" horiz-adv-x="667" vert-adv-y="1000"/><glyph glyph-name="uni0146" unicode="ņ" d="M517 396q0-30-7-62L443 0H287l65 325q3 14 3 27 0 25-14 38t-31 13q-67 0-83-78L162 0H6l107 538h149l-9-47q53 53 132 53 49 0 90.5-36T517 396M291-52l-61-142H93l81 142h117z" horiz-adv-x="550" vert-adv-y="1000"/><glyph glyph-name="uni0147" unicode="Ň" d="M688 712L545 0H407L256 370 181 0H15l143 712h138l152-371 74 371h166m-53 247L470 780H350l-94 179h110l56-87 93 87h120z" horiz-adv-x="667" vert-adv-y="1000"/><glyph glyph-name="uni0148" unicode="ň" d="M517 396q0-30-7-62L443 0H287l65 325q3 14 3 27 0 25-14 38t-31 13q-67 0-83-78L162 0H6l107 538h149l-9-47q53 53 132 53 49 0 90.5-36T517 396m55 391L407 608H287l-94 179h110l56-87 93 87h120z" horiz-adv-x="550" vert-adv-y="1000"/><glyph glyph-name="uni0149" unicode="ŉ" d="M517 396q0-30-7-62L443 0H287l65 325q3 14 3 27 0 25-14 38t-31 13q-67 0-83-78L162 0H6l107 538h149l-9-47q53 53 132 53 49 0 90.5-36T517 396M158 762l-23-117-152-98 43 215h132z" horiz-adv-x="550" vert-adv-y="1000"/><glyph glyph-name="uni014A" unicode="Ŋ" d="M688 712L538-35q-15-73-61.5-116T357-194h-93l27 132h42q17 0 28 11t14 28l13 68-132 325L181 0H15l143 712h138l152-371 74 371h166z" horiz-adv-x="667" vert-adv-y="1000"/><glyph glyph-name="uni014B" unicode="ŋ" d="M517 396q0-30-7-62L436-35q-15-73-61.5-116T255-194h-93l27 132h51q16 0 27.5 11T282-23l70 348q3 14 3 27 0 25-14 38t-31 13q-67 0-83-78L162 0H6l107 538h149l-9-47q53 53 132 53 49 0 90.5-36T517 396z" horiz-adv-x="550" vert-adv-y="1000"/><glyph glyph-name="uni014C" unicode="Ō" d="M599 510q0-59-19-154-15-77-25-116t-31-85q-21-46-51-78Q395-6 268-6 162-6 103 55T44 202q0 59 19 154 15 77 25 116t31 85q21 46 51 78 78 83 205 83 106 0 165-61t59-147m-167-14q0 36-19.5 56T362 572q-41 0-71-33-31-34-61-183-19-95-19-140 0-36 19.5-56t50.5-20q41 0 71 33 31 34 61 183 19 95 19 140m140 392l-20-99H242l20 99h310z" horiz-adv-x="608" vert-adv-y="1000"/><glyph glyph-name="uni014D" unicode="ō" d="M491 366q0-42-11-97-17-83-37-129t-56-82Q323-6 216-6 140-6 84.5 40.5T29 172q0 42 11 97 17 83 37 129t56 82q64 64 171 64 76 0 131.5-46.5T491 366m-155-19q0 56-48 56-30 0-48-18-27-26-45-116-11-55-11-78 0-56 48-56 30 0 48 18 27 26 45 116 11 55 11 78m169 375l-20-99H175l20 99h310z" horiz-adv-x="522" vert-adv-y="1000"/><glyph glyph-name="uni014E" unicode="Ŏ" d="M599 510q0-59-19-154-15-77-25-116t-31-85q-21-46-51-78Q395-6 268-6 162-6 103 55T44 202q0 59 19 154 15 77 25 116t31 85q21 46 51 78 78 83 205 83 106 0 165-61t59-147m-167-14q0 36-19.5 56T362 572q-41 0-71-33-31-34-61-183-19-95-19-140 0-36 19.5-56t50.5-20q41 0 71 33 31 34 61 183 19 95 19 140m136 429q-16-82-59-118.5T393 770q-67 0-103 34t-36 86q0 18 3 35h99q-1-9-1-14 0-20 14.5-29.5T404 872q51 0 62 53h102z" horiz-adv-x="608" vert-adv-y="1000"/><glyph glyph-name="uni014F" unicode="ŏ" d="M492 366q0-42-11-97-17-83-37-129t-56-82Q324-6 217-6 141-6 85.5 40.5T30 172q0 42 11 97 17 83 37 129t56 82q64 64 171 64 76 0 131.5-46.5T492 366m-155-19q0 56-48 56-30 0-48-18-27-26-45-116-11-55-11-78 0-56 48-56 30 0 48 18 27 26 45 116 11 55 11 78m168 406q-16-82-59-118.5T330 598q-67 0-103 34t-36 86q0 18 3 35h99q-1-9-1-14 0-20 14.5-29.5T341 700q51 0 62 53h102z" horiz-adv-x="522" vert-adv-y="1000"/><glyph glyph-name="uni0150" unicode="Ő" d="M599 510q0-59-19-154-15-77-25-116t-31-85q-21-46-51-78Q395-6 268-6 162-6 103 55T44 202q0 59 19 154 15 77 25 116t31 85q21 46 51 78 78 83 205 83 106 0 165-61t59-147m-167-14q0 36-19.5 56T362 572q-41 0-71-33-31-34-61-183-19-95-19-140 0-36 19.5-56t50.5-20q41 0 71 33 31 34 61 183 19 95 19 140m43 461L343 780H226l106 177h143m222 0L565 780H448l106 177h143z" horiz-adv-x="608" vert-adv-y="1000"/><glyph glyph-name="uni0151" unicode="ő" d="M491 366q0-42-11-97-17-83-37-129t-56-82Q323-6 216-6 140-6 84.5 40.5T29 172q0 42 11 97 17 83 37 129t56 82q64 64 171 64 76 0 131.5-46.5T491 366m-155-19q0 56-48 56-30 0-48-18-27-26-45-116-11-55-11-78 0-56 48-56 30 0 48 18 27 26 45 116 11 55 11 78m69 438L273 608H156l106 177h143m222 0L495 608H378l106 177h143z" horiz-adv-x="522" vert-adv-y="1000"/><glyph glyph-name="uni0152" unicode="Œ" d="M943 712l-29-147H620l-26-132h252l-30-147H565l-28-139h297L805 0H361l7 38Q326-6 259-6 159-6 101.5 55T44 202q0 59 19 154 15 77 25 116t31 85q21 46 51 78 78 83 204 83 79 0 113-44l7 38h449M432 496q0 36-19.5 56T362 572q-41 0-71-33-31-34-61-183-19-95-19-140 0-36 19.5-56t50.5-20q41 0 71 33 31 34 61 183 19 95 19 140z" horiz-adv-x="907" vert-adv-y="1000"/><glyph glyph-name="uni0153" unicode="œ" d="M795 348q0-53-18-129H467q-2-20-2-22 0-33 20-52.5t59-19.5q63 0 115 50l78-102Q655-6 525-6q-93 0-152 52Q309-6 216-6 140-6 84.5 40.5T29 172q0 42 11 97 16 81 36.5 128t56.5 83q64 64 171 64 81 0 136-52 67 52 154 52 89 0 145-52t56-144m-459-1q0 56-48 56-30 0-48-18-27-26-45-116-11-58-11-78 0-56 48-56 30 0 48 18 27 26 45 116 11 58 11 78m311 1q0 31-16 49.5T585 416q-71 0-98-94h157q3 12 3 26z" horiz-adv-x="823" vert-adv-y="1000"/><glyph glyph-name="uni0154" unicode="Ŕ" d="M615 506q0-64-39.5-124T461 291L556 0H374l-75 270h-63L181 0H15l143 712h253q105 0 154.5-58T615 506m-167-9q0 67-65 67h-88l-32-156h87q52 0 75 29t23 60m154 460L470 780H353l106 177h143z" horiz-adv-x="624" vert-adv-y="1000"/><glyph glyph-name="uni0155" unicode="ŕ" d="M495 493L359 372l-6 7q-6 7-10.5 11t-14 8q-9.5 4-19.5 4-28 0-52-21.5T226 322L162 0H6l107 538h150l-9-46q46 52 128 52 71 0 113-51m-34 292L329 608H212l106 177h143z" horiz-adv-x="449" vert-adv-y="1000"/><glyph glyph-name="uni0156" unicode="Ŗ" d="M615 506q0-64-39.5-124T461 291L556 0H374l-75 270h-63L181 0H15l143 712h253q105 0 154.5-58T615 506m-167-9q0 67-65 67h-88l-32-156h87q52 0 75 29t23 60M323-52l-61-142H125l81 142h117z" horiz-adv-x="624" vert-adv-y="1000"/><glyph glyph-name="uni0157" unicode="ŗ" d="M495 493L359 372l-6 7q-6 7-10.5 11t-14 8q-9.5 4-19.5 4-28 0-52-21.5T226 322L162 0H6l107 538h150l-9-46q46 52 128 52 71 0 113-51M132-52L71-194H-66L15-52h117z" horiz-adv-x="449" vert-adv-y="1000"/><glyph glyph-name="uni0158" unicode="Ř" d="M615 506q0-64-39.5-124T461 291L556 0H374l-75 270h-63L181 0H15l143 712h253q105 0 154.5-58T615 506m-167-9q0 67-65 67h-88l-32-156h87q52 0 75 29t23 60m182 462L465 780H345l-94 179h110l56-87 93 87h120z" horiz-adv-x="624" vert-adv-y="1000"/><glyph glyph-name="uni0159" unicode="ř" d="M495 493L359 372l-6 7q-6 7-10.5 11t-14 8q-9.5 4-19.5 4-28 0-52-21.5T226 322L162 0H6l107 538h150l-9-46q46 52 128 52 71 0 113-51m-2 294L328 608H208l-94 179h110l56-87 93 87h120z" horiz-adv-x="449" vert-adv-y="1000"/><glyph glyph-name="uni015A" unicode="Ś" d="M590 629L474 527q-37 46-116 46-48 0-77.5-24.5T251 495q0-18 10.5-29.5t20.5-15q10-3.5 30-9.5l54-14q92-23 129-68t37-124q0-121-85-181T237-6Q147-6 89 16.5T-15 92l120 105q49-56 147-56 48 0 80.5 23t32.5 54q0 27-14 40t-46 21l-54 14Q85 336 85 468q0 115 81 182.5T377 718q144 0 213-89m-8 328L450 780H333l106 177h143z" horiz-adv-x="565" vert-adv-y="1000"/><glyph glyph-name="uni015B" unicode="ś" d="M473 474l-106-94q-13 17-39.5 26.5T277 416q-36 0-54-11.5T205 375q0-23 33-29l68-12q130-23 130-144 0-81-60-137Q314-6 187-6 51-6-25 76l111 98q39-46 111-46 39 0 61.5 13t22.5 31q0 26-37 32l-68 12q-64 11-95.5 45.5T49 340q0 84 57 141 63 63 184 63 118 0 183-70m40 311L381 608H264l106 177h143z" horiz-adv-x="477" vert-adv-y="1000"/><glyph glyph-name="uni015C" unicode="Ŝ" d="M590 629L474 527q-37 46-116 46-48 0-77.5-24.5T251 495q0-18 10.5-29.5t20.5-15q10-3.5 30-9.5l54-14q92-23 129-68t37-124q0-121-85-181T237-6Q147-6 89 16.5T-15 92l120 105q49-56 147-56 48 0 80.5 23t32.5 54q0 27-14 40t-46 21l-54 14Q85 336 85 468q0 115 81 182.5T377 718q144 0 213-89m-13 151H468l-56 87-93-87H199l165 179h120l93-179z" horiz-adv-x="565" vert-adv-y="1000"/><glyph glyph-name="uni015D" unicode="ŝ" d="M473 474l-106-94q-13 17-39.5 26.5T277 416q-36 0-54-11.5T205 375q0-23 33-29l68-12q130-23 130-144 0-81-60-137Q314-6 187-6 51-6-25 76l111 98q39-46 111-46 39 0 61.5 13t22.5 31q0 26-37 32l-68 12q-64 11-95.5 45.5T49 340q0 84 57 141 63 63 184 63 118 0 183-70m35 134H399l-56 87-93-87H130l165 179h120l93-179z" horiz-adv-x="477" vert-adv-y="1000"/><glyph glyph-name="uni015E" unicode="Ş" d="M590 629L474 527q-37 46-116 46-48 0-77.5-24.5T251 495q0-18 10.5-29.5t20.5-15q10-3.5 30-9.5l54-14q92-23 129-68t37-124q0-121-85-181T237-6Q147-6 89 16.5T-15 92l120 105q49-56 147-56 48 0 80.5 23t32.5 54q0 27-14 40t-46 21l-54 14Q85 336 85 468q0 115 81 182.5T377 718q144 0 213-89M290-52l-61-142H94l81 142h115z" horiz-adv-x="565" vert-adv-y="1000"/><glyph glyph-name="uni015F" unicode="ş" d="M473 474l-106-94q-13 17-39.5 26.5T277 416q-36 0-54-11.5T205 375q0-23 33-29l68-12q130-23 130-144 0-81-60-137Q314-6 187-6 51-6-25 76l111 98q39-46 111-46 39 0 61.5 13t22.5 31q0 26-37 32l-68 12q-64 11-95.5 45.5T49 340q0 84 57 141 63 63 184 63 118 0 183-70M242-52l-61-142H46l81 142h115z" horiz-adv-x="477" vert-adv-y="1000"/><glyph glyph-name="uni0160" unicode="Š" d="M590 629L474 527q-37 46-116 46-48 0-77.5-24.5T251 495q0-18 10.5-29.5t20.5-15q10-3.5 30-9.5l54-14q92-23 129-68t37-124q0-121-85-181T237-6Q147-6 89 16.5T-15 92l120 105q49-56 147-56 48 0 80.5 23t32.5 54q0 27-14 40t-46 21l-54 14Q85 336 85 468q0 115 81 182.5T377 718q144 0 213-89m30 330L455 780H335l-94 179h110l56-87 93 87h120z" horiz-adv-x="565" vert-adv-y="1000"/><glyph glyph-name="uni0161" unicode="š" d="M473 474l-106-94q-13 17-39.5 26.5T277 416q-36 0-54-11.5T205 375q0-23 33-29l68-12q130-23 130-144 0-81-60-137Q314-6 187-6 51-6-25 76l111 98q39-46 111-46 39 0 61.5 13t22.5 31q0 26-37 32l-68 12q-64 11-95.5 45.5T49 340q0 84 57 141 63 63 184 63 118 0 183-70m78 313L386 608H266l-94 179h110l56-87 93 87h120z" horiz-adv-x="477" vert-adv-y="1000"/><glyph glyph-name="uni0162" unicode="Ţ" d="M616 712l-30-147H423L310 0H144l113 565H87l30 147h499M274-52l-61-142H78l81 142h115z" horiz-adv-x="557" vert-adv-y="1000"/><glyph glyph-name="uni0163" unicode="ţ" d="M356 515l-24-120h-80l-45-227q-1-4-1-12 0-25 31-25h49L260 0h-73Q122 0 84.5 35.5T47 125q0 24 4 44l45 226H49l24 120h47l31 156h156l-31-156h80M179-52l-61-142H-19L62-52h117z" horiz-adv-x="348" vert-adv-y="1000"/><glyph glyph-name="uni0164" unicode="Ť" d="M616 712l-30-147H423L310 0H144l113 565H87l30 147h499m-8 247L443 780H323l-94 179h110l56-87 93 87h120z" horiz-adv-x="557" vert-adv-y="1000"/><glyph glyph-name="uni0165" unicode="ť" d="M356 515l-24-120h-80l-45-227q-1-4-1-12 0-25 31-25h49L260 0h-73Q122 0 84.5 35.5T47 125q0 24 4 44l45 226H49l24 120h47l31 156h156l-31-156h80m197 238l-97-173H346l67 173h140z" horiz-adv-x="348" vert-adv-y="1000"/><glyph glyph-name="uni0166" unicode="Ŧ" d="M616 712l-30-147H423l-29-143h74l-25-126h-74L310 0H144l59 296h-73l25 126h73l29 143H87l30 147h499z" horiz-adv-x="557" vert-adv-y="1000"/><glyph glyph-name="uni0167" unicode="ŧ" d="M356 515l-24-120h-80l-8-39h79l-24-121h-79l-13-67q-1-4-1-12 0-25 31-25h49L260 0h-73Q122 0 84.5 35.5T47 125q0 24 4 44l13 66H16l24 121h48l8 39H49l24 120h47l31 156h156l-31-156h80z" horiz-adv-x="348" vert-adv-y="1000"/><glyph glyph-name="uni0168" unicode="Ũ" d="M659 712l-93-463Q540 118 460.5 56T277-6Q176-6 113 52.5T50 202q0 34 6 62l90 448h166l-92-457q-4-24-4-40 0-32 17.5-53t53.5-21q91 0 116 122l90 449h166m-47 133q-58-55-119-55-42 0-82 21-30 16-53 16-33 0-62-29l-54 72q58 55 119 55 42 0 82-21 30-16 53-16 33 0 62 29l54-72z" horiz-adv-x="627" vert-adv-y="1000"/><glyph glyph-name="uni0169" unicode="ũ" d="M545 538L438 0H289l9 47Q245-6 166-6q-49 0-90.5 36T34 142q0 30 7 62l67 334h156l-65-325q-3-14-3-27 0-25 14-38t31-13q67 0 83 78l65 325h156m-15 127q-58-55-119-55-42 0-82 21-30 16-53 16-33 0-62-29l-54 72q58 55 119 55 42 0 82-21 30-16 53-16 33 0 62 29l54-72z" horiz-adv-x="550" vert-adv-y="1000"/><glyph glyph-name="uni016A" unicode="Ū" d="M659 712l-93-463Q540 118 460.5 56T277-6Q176-6 113 52.5T50 202q0 34 6 62l90 448h166l-92-457q-4-24-4-40 0-32 17.5-53t53.5-21q91 0 116 122l90 449h166m-73 176l-20-99H256l20 99h310z" horiz-adv-x="627" vert-adv-y="1000"/><glyph glyph-name="uni016B" unicode="ū" d="M544 538L437 0H288l9 47Q244-6 165-6q-49 0-90.5 36T33 142q0 30 7 62l67 334h156l-65-325q-3-14-3-27 0-25 14-38t31-13q67 0 83 78l65 325h156m-34 184l-20-99H180l20 99h310z" horiz-adv-x="550" vert-adv-y="1000"/><glyph glyph-name="uni016C" unicode="Ŭ" d="M659 712l-93-463Q540 118 460.5 56T277-6Q176-6 113 52.5T50 202q0 34 6 62l90 448h166l-92-457q-4-24-4-40 0-32 17.5-53t53.5-21q91 0 116 122l90 449h166m-60 213q-16-82-59-118.5T424 770q-67 0-103 34t-36 86q0 18 3 35h99q-1-9-1-14 0-20 14.5-29.5T435 872q51 0 62 53h102z" horiz-adv-x="627" vert-adv-y="1000"/><glyph glyph-name="uni016D" unicode="ŭ" d="M544 538L437 0H288l9 47Q244-6 165-6q-49 0-90.5 36T33 142q0 30 7 62l67 334h156l-65-325q-3-14-3-27 0-25 14-38t31-13q67 0 83 78l65 325h156m-34 215q-16-82-59-118.5T335 598q-67 0-103 34t-36 86q0 18 3 35h99q-1-9-1-14 0-20 14.5-29.5T346 700q51 0 62 53h102z" horiz-adv-x="550" vert-adv-y="1000"/><glyph glyph-name="uni016E" unicode="Ů" d="M659 712l-93-463Q540 118 460.5 56T277-6Q176-6 113 52.5T50 202q0 34 6 62l90 448h166l-92-457q-4-24-4-40 0-32 17.5-53t53.5-21q91 0 116 122l90 449h166m-97 175q0-56-38.5-94T430 755q-55 0-93.5 38T298 887q0 56 38.5 94t93.5 38q55 0 93.5-37.5T562 887m-96.5-36l7.75 7.5Q481 866 481 887t-15.5 36Q450 938 430 938t-35.5-15Q379 908 379 887t15.5-36q15.5-15 35.5-15t35.5 15z" horiz-adv-x="627" vert-adv-y="1000"/><glyph glyph-name="uni016F" unicode="ů" d="M544 538L437 0H288l9 47Q244-6 165-6q-49 0-90.5 36T33 142q0 30 7 62l67 334h156l-65-325q-3-14-3-27 0-25 14-38t31-13q67 0 83 78l65 325h156m-59 187q0-56-38.5-94T353 593q-55 0-93.5 38T221 725q0 56 38.5 94t93.5 38q55 0 93.5-37.5T485 725m-96.5-36l7.75 7.5Q404 704 404 725t-15.5 36Q373 776 353 776t-35.5-15Q302 746 302 725t15.5-36q15.5-15 35.5-15t35.5 15z" horiz-adv-x="550" vert-adv-y="1000"/><glyph glyph-name="uni0170" unicode="Ű" d="M659 712l-93-463Q540 118 460.5 56T277-6Q176-6 113 52.5T50 202q0 34 6 62l90 448h166l-92-457q-4-24-4-40 0-32 17.5-53t53.5-21q91 0 116 122l90 449h166M489 957L357 780H240l106 177h143m222 0L579 780H462l106 177h143z" horiz-adv-x="627" vert-adv-y="1000"/><glyph glyph-name="uni0171" unicode="ű" d="M544 538L437 0H288l9 47Q244-6 165-6q-49 0-90.5 36T33 142q0 30 7 62l67 334h156l-65-325q-3-14-3-27 0-25 14-38t31-13q67 0 83 78l65 325h156M410 785L278 608H161l106 177h143m222 0L500 608H383l106 177h143z" horiz-adv-x="550" vert-adv-y="1000"/><glyph glyph-name="uni0172" unicode="Ų" d="M659 712l-93-463Q540 118 460.5 56T277-6Q176-6 113 52.5T50 202q0 34 6 62l90 448h166l-92-457q-4-24-4-40 0-32 17.5-53t53.5-21q91 0 116 122l90 449h166M424-52l-61-142H228l81 142h115z" horiz-adv-x="627" vert-adv-y="1000"/><glyph glyph-name="uni0173" unicode="ų" d="M544 538L437 0H288l9 47Q244-6 165-6q-49 0-90.5 36T33 142q0 30 7 62l67 334h156l-65-325q-3-14-3-27 0-25 14-38t31-13q67 0 83 78l65 325h156M389-52l-61-142H193l81 142h115z" horiz-adv-x="550" vert-adv-y="1000"/><glyph glyph-name="uni0174" unicode="Ŵ" d="M951 712L627 0H492l-37 361L269 0H134L87 712h171l14-386 188 386h118l34-386 163 386h176m-230 68H612l-56 87-93-87H343l165 179h120l93-179z" horiz-adv-x="864" vert-adv-y="1000"/><glyph glyph-name="uni0175" unicode="ŵ" d="M789 538L534 0H416l-38 300L223 0H101L54 538h155l11-284 143 284h110l33-284 117 284h166m-167 70H513l-56 87-93-87H244l165 179h120l93-179z" horiz-adv-x="738" vert-adv-y="1000"/><glyph glyph-name="uni0176" unicode="Ŷ" d="M668 712L380 285 323 0H157l58 290L81 712h178l65-266 161 266h183m-112 68H447l-56 87-93-87H178l165 179h120l93-179z" horiz-adv-x="585" vert-adv-y="1000"/><glyph glyph-name="uni0177" unicode="ŷ" d="M546 538L222-64q-22-41-44-62-53-54-136-54h-58L13-38h32q20 0 33.5 11.5T105 10l23 43-75 485h154l30-300 145 300h164m-56 70H381l-56 87-93-87H112l165 179h120l93-179z" horiz-adv-x="488" vert-adv-y="1000"/><glyph glyph-name="uni0178" unicode="Ÿ" d="M668 712L380 285 323 0H157l58 290L81 712h178l65-266 161 266h183M358 921l-28-142H203l28 142h127m215 0l-28-142H417l29 142h127z" horiz-adv-x="585" vert-adv-y="1000"/><glyph glyph-name="uni0179" unicode="Ź" d="M579 712l-26-127-341-438h260L442 0H-23L3 127l340 438H96l29 147h454m-28 245L419 780H302l106 177h143z" horiz-adv-x="522" vert-adv-y="1000"/><glyph glyph-name="uni017A" unicode="ź" d="M488 538l-23-116-249-281h199L387 0H-22L2 116l245 281H63l28 141h397m3 247L359 608H242l106 177h143z" horiz-adv-x="467" vert-adv-y="1000"/><glyph glyph-name="uni017B" unicode="Ż" d="M579 712l-26-127-341-438h260L442 0H-23L3 127l340 438H96l29 147h454M450 920l-27-137H295l28 137h127z" horiz-adv-x="522" vert-adv-y="1000"/><glyph glyph-name="uni017C" unicode="ż" d="M488 538l-23-116-249-281h199L387 0H-22L2 116l245 281H63l28 141h397m-99 210l-27-137H234l28 137h127z" horiz-adv-x="467" vert-adv-y="1000"/><glyph glyph-name="uni017D" unicode="Ž" d="M579 712l-26-127-341-438h260L442 0H-23L3 127l340 438H96l29 147h454m10 247L424 780H304l-94 179h110l56-87 93 87h120z" horiz-adv-x="522" vert-adv-y="1000"/><glyph glyph-name="uni017E" unicode="ž" d="M488 538l-23-116-249-281h199L387 0H-22L2 116l245 281H63l28 141h397m41 249L364 608H244l-94 179h110l56-87 93 87h120z" horiz-adv-x="467" vert-adv-y="1000"/><glyph glyph-name="uni017F" unicode="ſ" d="M391 723l-26-131h-49q-36 0-44-40L162 0H6l114 570q30 153 186 153h85z" horiz-adv-x="274" vert-adv-y="1000"/><glyph glyph-name="uni018F" unicode="Ə" d="M604 510q0-59-19-154-15-77-25-116t-31-85q-21-46-51-78Q400-6 273-6 166-6 105 55T44 202q0 64 18 154l11 51h354q10 64 10 89 0 36-19.5 56T367 572q-46 0-76-33-16-18-28-51H92q27 93 78 147 78 83 210 83 106 0 165-61t59-147M398 269H215q-4-27-4-53 0-35 21.5-55.5T286 140q41 0 71 33 23 24 41 96z" horiz-adv-x="612" vert-adv-y="1000"/><glyph glyph-name="uni0192" unicode="ƒ" d="M481 722l-26-129h-75q-31 0-44-33l-56-156h87l-24-118H237L68-174H-88L81 286H33l23 118h69l58 160q33 91 85.5 124.5T402 722h79z" horiz-adv-x="419" vert-adv-y="1000"/><glyph glyph-name="uni01B5" unicode="Ƶ" d="M579 712l-26-127-126-162h23l-25-126h-96L212 147h260L442 0H-23L3 127l132 170h-23l25 126h96l110 142H96l29 147h454z" horiz-adv-x="522" vert-adv-y="1000"/><glyph glyph-name="uni01B6" unicode="ƶ" d="M488 538l-23-116-93-105h20l-19-96h-86l-71-80h199L387 0H-22L2 116l91 105H73l19 96h85l70 80H63l28 141h397z" horiz-adv-x="467" vert-adv-y="1000"/><glyph glyph-name="uni01C4" unicode="Ǆ" d="M613 510q0-34-23-154-27-136-46.5-187.5T480 73Q407 0 277 0H15l143 712h239q100 0 158-53t58-149m-168-16q0 72-76 72h-74l-84-420h73q51 0 83 32 17 17 28 50.5T424 356q21 108 21 138m752 218l-26-127-341-438h260L1060 0H595l26 127 340 438H714l29 147h454m10 247l-165-179H922l-94 179h110l56-87 93 87h120z" horiz-adv-x="1140" vert-adv-y="1000"/><glyph glyph-name="uni01C5" unicode="ǅ" d="M613 510q0-34-23-154-27-136-46.5-187.5T480 73Q407 0 277 0H15l143 712h239q100 0 158-53t58-149m-168-16q0 72-76 72h-74l-84-420h73q51 0 83 32 17 17 28 50.5T424 356q21 108 21 138m661 44l-23-116-249-281h199L1005 0H596l24 116 245 281H681l28 141h397m41 249L982 608H862l-94 179h110l56-87 93 87h120z" horiz-adv-x="1126" vert-adv-y="1000"/><glyph glyph-name="uni01C6" unicode="ǆ" d="M570 712L428 0H278l9 45Q241-6 164-6 89-6 56 38t-33 97q0 47 18 134 19 95 37 146t45 78q51 51 133 51 75 0 115-49l43 217h156M337 350q0 53-47 53-41 0-59.5-30T197 269q-11-55-11-81 0-53 47-53 41 0 59.5 30T326 269q11 55 11 81m692 188l-23-116-249-281h199L928 0H519l24 116 245 281H604l28 141h397m41 249L905 608H785l-94 179h110l56-87 93 87h120z" horiz-adv-x="1049" vert-adv-y="1000"/><glyph glyph-name="uni01C7" unicode="Ǉ" d="M500 146L471 0H15l143 712h166L211 146h289m572 566l-96-480q-12-62-39.5-108.5T880 53q-29-24-65.5-38T754-2.5Q730-6 706-6q-70 0-115 20t-80 63l119 102q30-39 77-39 84 0 104 98l95 474h166z" horiz-adv-x="1042" vert-adv-y="1000"/><glyph glyph-name="uni01C8" unicode="ǈ" d="M500 146L471 0H15l143 712h166L211 146h289m317 369L710-21q-15-73-61.5-116T529-180h-93l27 132h51q16 0 27.5 11T556-9l105 524h156m39 197l-24-121H676l24 121h156z" horiz-adv-x="826" vert-adv-y="1000"/><glyph glyph-name="uni01C9" unicode="ǉ" d="M298 712L190 170q-2-12-2-15 0-23 29-23h57L247 0h-77Q105 0 67.5 35.5T30 125q0 24 4 44l108 543h156m294-197L485-21q-15-73-61.5-116T304-180h-93l27 132h51q17 0 28 11t14 28l105 524h156m39 197l-24-121H451l24 121h156z" horiz-adv-x="601" vert-adv-y="1000"/><glyph glyph-name="uni01CA" unicode="Ǌ" d="M688 712L545 0H407L256 370 181 0H15l143 712h138l152-371 74 371h166m499 0l-96-480q-12-62-39.5-108.5T995 53q-29-24-65.5-38T869-2.5Q845-6 821-6q-70 0-115 20t-80 63l119 102q30-39 77-39 84 0 104 98l95 474h166z" horiz-adv-x="1157" vert-adv-y="1000"/><glyph glyph-name="uni01CB" unicode="ǋ" d="M688 712L545 0H407L256 370 181 0H15l143 712h138l152-371 74 371h166m244-197L825-21q-15-73-61.5-116T644-180h-93l27 132h51q17 0 28 11t14 28l105 524h156m39 197l-24-121H791l24 121h156z" horiz-adv-x="941" vert-adv-y="1000"/><glyph glyph-name="uni01CC" unicode="ǌ" d="M517 396q0-30-7-62L443 0H287l65 325q3 14 3 27 0 25-14 38t-31 13q-67 0-83-78L162 0H6l107 538h149l-9-47q53 53 132 53 49 0 90.5-36T517 396m298 119L708-21q-15-73-61.5-116T527-180h-93l27 132h51q16 0 27.5 11T554-9l105 524h156m39 197l-24-121H674l24 121h156z" horiz-adv-x="824" vert-adv-y="1000"/><glyph glyph-name="uni01F1" unicode="Ǳ" d="M613 510q0-34-23-154-27-136-46.5-187.5T480 73Q407 0 277 0H15l143 712h239q100 0 158-53t58-149m-168-16q0 72-76 72h-74l-84-420h73q51 0 83 32 17 17 28 50.5T424 356q21 108 21 138m752 218l-26-127-341-438h260L1060 0H595l26 127 340 438H714l29 147h454z" horiz-adv-x="1140" vert-adv-y="1000"/><glyph glyph-name="uni01F2" unicode="ǲ" d="M613 510q0-34-23-154-27-136-46.5-187.5T480 73Q407 0 277 0H15l143 712h239q100 0 158-53t58-149m-168-16q0 72-76 72h-74l-84-420h73q51 0 83 32 17 17 28 50.5T424 356q21 108 21 138m661 44l-23-116-249-281h199L1005 0H596l24 116 245 281H681l28 141h397z" horiz-adv-x="1085" vert-adv-y="1000"/><glyph glyph-name="uni01F3" unicode="ǳ" d="M570 712L428 0H278l9 45Q241-6 164-6 89-6 56 38t-33 97q0 47 18 134 19 95 37 146t45 78q51 51 133 51 75 0 115-49l43 217h156M337 350q0 53-47 53-41 0-59.5-30T197 269q-11-55-11-81 0-53 47-53 41 0 59.5 30T326 269q11 55 11 81m692 188l-23-116-249-281h199L928 0H519l24 116 245 281H604l28 141h397z" horiz-adv-x="1008" vert-adv-y="1000"/><glyph glyph-name="uni01FA" unicode="Ǻ" d="M569 0H400l-10 112H179L124 0H-53l388 712h129L569 0M377 247l-22 210-108-210h130m160 640q0-56-38.5-94T405 755q-55 0-93.5 38T273 887q0 56 38.5 94t93.5 38q55 0 93.5-37.5T537 887m-96.5-36l7.75 7.5Q456 866 456 887t-15.5 36Q425 938 405 938t-35.5-15Q354 908 354 887t15.5-36q15.5-15 35.5-15t35.5 15M651 1207l-132-177H402l106 177h143z" horiz-adv-x="622" vert-adv-y="1000"/><glyph glyph-name="uni01FB" unicode="ǻ" d="M484 389q0-20-6-50L410 0H260l9 44Q220-5 152-5 82-5 42 39T2 142q0 83 48 129 55 54 157 54h112l4 19q3 12 3 23 0 47-64 47-63 0-100-43L84 475q73 69 203 69 82 0 139.5-38T484 389M298 221h-76q-32 0-49.5-18T155 160q0-17 12.5-28.5T202 120q39 0 67 28 19 19 26 58l3 15m172 504q0-56-38.5-94T338 593q-55 0-93.5 38T206 725q0 56 38.5 94t93.5 38q55 0 93.5-37.5T470 725m-96.5-36l7.75 7.5Q389 704 389 725t-15.5 36Q358 776 338 776t-35.5-15Q287 746 287 725t15.5-36q15.5-15 35.5-15t35.5 15M562 1044L430 867H313l106 177h143z" horiz-adv-x="513" vert-adv-y="1000"/><glyph glyph-name="uni01FC" unicode="Ǽ" d="M1009 712l-29-145H686l-26-135h252l-29-145H630l-28-142h298L871 0H407l31 157H238L130 0H-53l494 712h568M520 566L333 295h133l54 271m305 391L693 780H576l106 177h143z" horiz-adv-x="973" vert-adv-y="1000"/><glyph glyph-name="uni01FD" unicode="ǽ" d="M775 349q0-53-18-129H447q-2-20-2-23 0-33 20-52.5t59-19.5q63 0 115 50l78-102Q635-6 505-6 398-6 341 59 269-6 173-6 90-6 46 35T2 142q0 80 46 126 55 55 159 55h112l4 19q3 21 3 25 0 47-64 47-63 0-100-43L84 475q73 69 203 69 87 0 144-44 64 44 143 44 89 0 145-51.5T775 349M298 220h-76q-32 0-49.5-18T155 160q0-17 12.5-28.5T202 120q39 0 67 28 19 19 26 57l3 15m329 129q0 31-16 49t-46 18q-71 0-98-93h157q3 12 3 26m19 436L514 608H397l106 177h143z" horiz-adv-x="803" vert-adv-y="1000"/><glyph glyph-name="uni01FE" unicode="Ǿ" d="M640 756l-78-121q41-55 41-125 0-59-19-154-15-77-25-116t-31-85q-21-46-51-78Q399-6 270-6q-60 0-109 22l-39-60H8L85 75q-41 55-41 127 0 59 19 154 15 77 25 116t31 85q21 46 51 78 78 83 207 83 59 0 110-23l39 61h114M407 559q-17 13-43 13-43 0-73-33-31-34-61-183-10-46-15-81l-2-19 194 303m26-104L241 151q19-11 42-11 43 0 73 33 31 34 61 183 13 71 14 81l2 18m158 502L459 780H342l106 177h143z" horiz-adv-x="612" vert-adv-y="1000"/><glyph glyph-name="uni01FF" unicode="ǿ" d="M542 582l-80-108q34-45 34-108 0-42-11-97-16-81-36.5-128T392 58Q328-6 219-6q-61 0-101 25L72-44h-89L64 64q-34 45-34 108 0 42 11 97 16 81 36.5 128t56.5 83q64 64 173 64 54 0 101-25l46 63h88M340 328L204 144q12-9 31-9 40 0 60.5 32.5T330 269q9 46 10 59m-18 66q-12 9-31 9-40 0-60.5-32.5T196 269q-1-7-10-59l136 184m199 391L389 608H272l106 177h143z" horiz-adv-x="526" vert-adv-y="1000"/><glyph glyph-name="uni0218" unicode="Ș" d="M590 629L474 527q-37 46-116 46-48 0-77.5-24.5T251 495q0-18 10.5-29.5t20.5-15q10-3.5 30-9.5l54-14q92-23 129-68t37-124q0-121-85-181T237-6Q147-6 89 16.5T-15 92l120 105q49-56 147-56 48 0 80.5 23t32.5 54q0 27-14 40t-46 21l-54 14Q85 336 85 468q0 115 81 182.5T377 718q144 0 213-89M290-52l-61-142H92l81 142h117z" horiz-adv-x="565" vert-adv-y="1000"/><glyph glyph-name="uni0219" unicode="ș" d="M473 474l-106-94q-13 17-39.5 26.5T277 416q-36 0-54-11.5T205 375q0-23 33-29l68-12q130-23 130-144 0-81-60-137Q314-6 187-6 51-6-25 76l111 98q39-46 111-46 39 0 61.5 13t22.5 31q0 26-37 32l-68 12q-64 11-95.5 45.5T49 340q0 84 57 141 63 63 184 63 118 0 183-70M242-52l-61-142H44l81 142h117z" horiz-adv-x="477" vert-adv-y="1000"/><glyph glyph-name="uni021A" unicode="Ț" d="M616 712l-30-147H423L310 0H144l113 565H87l30 147h499M275-52l-61-142H77l81 142h117z" horiz-adv-x="557" vert-adv-y="1000"/><glyph glyph-name="uni021B" unicode="ț" d="M356 515l-24-120h-80l-45-227q-1-4-1-12 0-25 31-25h49L260 0h-73Q122 0 84.5 35.5T47 125q0 24 4 44l45 226H49l24 120h47l31 156h156l-31-156h80M179-52l-61-142H-19L62-52h117z" horiz-adv-x="348" vert-adv-y="1000"/><glyph glyph-name="uni0237" unicode="ȷ" d="M265 515L158-21q-15-73-61.5-116T-23-180h-93l27 132h51q16 0 27.5 11T4-9l105 524h156z" horiz-adv-x="274" vert-adv-y="1000"/><glyph glyph-name="uni0259" unicode="ə" d="M27 190q0 53 18 129h310q2 14 2 22 0 33-20 52.5T278 413q-63 0-115-50L85 465q82 79 212 79 36 0 70-9t66.5-29.5q32.5-20.5 52-59.5t19.5-93q0-98-30.5-178T380 44.5Q316-6 228-6T83.5 46.5Q27 99 27 190m148 0q0-31 16-49.5t46-18.5q71 0 98 94H178q-3-12-3-26z" horiz-adv-x="533" vert-adv-y="1000"/><glyph glyph-name="uni02BB" unicode="ʻ" d="M323 832l-53-266H114l29 146 180 120z" horiz-adv-x="263" vert-adv-y="1000"/><glyph glyph-name="uni02BC" unicode="ʼ" d="M299 712l-29-147L90 447l53 265h156z" horiz-adv-x="263" vert-adv-y="1000"/><glyph glyph-name="uni02C6" unicode="ˆ" d="M516 608H407l-56 87-93-87H138l165 179h120l93-179z" horiz-adv-x="522" vert-adv-y="1000"/><glyph glyph-name="uni02C7" unicode="ˇ" d="M559 787L394 608H274l-94 179h110l56-87 93 87h120z" horiz-adv-x="522" vert-adv-y="1000"/><glyph glyph-name="uni02D8" unicode="˘" d="M506 753q-16-82-59-118.5T331 598q-67 0-103 34t-36 86q0 18 3 35h99q-1-9-1-14 0-20 14.5-29.5T342 700q51 0 62 53h102z" horiz-adv-x="522" vert-adv-y="1000"/><glyph glyph-name="uni02D9" unicode="˙" d="M419 748l-27-137H264l28 137h127z" horiz-adv-x="522" vert-adv-y="1000"/><glyph glyph-name="uni02DA" unicode="˚" d="M480 725q0-56-38.5-94T348 593q-55 0-93.5 38T216 725q0 56 38.5 94t93.5 38q55 0 93.5-37.5T480 725m-96.5-36l7.75 7.5Q399 704 399 725t-15.5 36Q368 776 348 776t-35.5-15Q297 746 297 725t15.5-36q15.5-15 35.5-15t35.5 15z" horiz-adv-x="522" vert-adv-y="1000"/><glyph glyph-name="uni02DB" unicode="˛" d="M267-52l-61-142H71l81 142h115z" horiz-adv-x="522" vert-adv-y="1000"/><glyph glyph-name="uni02DC" unicode="˜" d="M525 665q-58-55-119-55-42 0-82 21-30 16-53 16-33 0-62-29l-54 72q58 55 119 55 42 0 82-21 30-16 53-16 33 0 62 29l54-72z" horiz-adv-x="522" vert-adv-y="1000"/><glyph glyph-name="uni02DD" unicode="˝" d="M405 785L273 608H156l106 177h143m222 0L495 608H378l106 177h143z" horiz-adv-x="522" vert-adv-y="1000"/><glyph glyph-name="uni0394" unicode="Δ" d="M569 0H-53l388 712h131L569 0M392 137l-32 321-166-321h198z" horiz-adv-x="622" vert-adv-y="1000"/><glyph glyph-name="uni03A9" unicode="Ω" d="M600 510q0-50-21-154-22-110-47-155-18-33-41-54h51L512 0H286l26 128q25 11 37 27 17 23 30 62t31 129q22 109 22 149 0 39-19.5 57.5T366 571q-46 0-76-33t-62-192q-22-113-22-152 0-44 33-66L214 0H-2l29 147h50q-24 43-24 102 0 50 11 107 16 77 26 116.5t31.5 86Q143 605 174 636q40 40 94.5 61T376 718q105 0 164.5-61T600 510z" horiz-adv-x="608" vert-adv-y="1000"/><glyph glyph-name="uni03BC" unicode="μ" d="M550 538L443 0H294l9 47Q250-6 171-6h-10l-34-168H-29l142 712h156l-65-325q-3-14-3-27 0-25 14-38t31-13q67 0 83 78l65 325h156z" horiz-adv-x="555" vert-adv-y="1000"/><glyph glyph-name="uni03C0" unicode="π" d="M551 538L443 0H287l82 410H244L162 0H6l108 538h437z" horiz-adv-x="584" vert-adv-y="1000"/><glyph glyph-name="uni0400" unicode="Ѐ" d="M617 712l-29-146H295l-27-134h253l-29-146H239l-28-140h299L481 0H15l143 712h459m-182 68H327l-72 177h142l38-177z" horiz-adv-x="581" vert-adv-y="1000"/><glyph glyph-name="uni0401" unicode="Ё" d="M617 712l-29-146H295l-27-134h253l-29-146H239l-28-140h299L481 0H15l143 712h459M364 921l-28-142H209l28 142h127m215 0l-28-142H423l29 142h127z" horiz-adv-x="581" vert-adv-y="1000"/><glyph glyph-name="uni0402" unicode="Ђ" d="M650 250q0-100-72-175T380 0h-38l30 147h15q49 0 72.5 30t23.5 58q0 66-59 66h-86L277 0H111l113 565H87l30 147h496l-30-147H390l-23-117h86q88 0 142.5-53T650 250z" horiz-adv-x="687" vert-adv-y="1000"/><glyph glyph-name="uni0403" unicode="Ѓ" d="M598 712l-29-146H295L181 0H15l143 712h440m-48 245L418 780H301l106 177h143z" horiz-adv-x="534" vert-adv-y="1000"/><glyph glyph-name="uni0404" unicode="Є" d="M600 491H434q-2 81-69 81-41 0-72-31-26-26-47-108h173l-27-138H219q-8-46-8-79 0-36 19.5-56t52.5-20q68 0 100 81h171Q516 107 442 50.5T270-6Q163-6 103.5 55T44 202q0 59 19 154 15 77 25 116t31 85q21 46 51 78 78 83 207 83 109 0 166-64t57-163z" horiz-adv-x="583" vert-adv-y="1000"/><glyph glyph-name="uni0405" unicode="Ѕ" d="M590 629L474 527q-37 46-116 46-48 0-77.5-24.5T251 495q0-18 10.5-29.5t20.5-15q10-3.5 30-9.5l54-14q92-23 129-68t37-124q0-121-85-181T237-6Q147-6 89 16.5T-15 92l120 105q49-56 147-56 48 0 80.5 23t32.5 54q0 27-14 40t-46 21l-54 14Q85 336 85 468q0 115 81 182.5T377 718q144 0 213-89z" horiz-adv-x="565" vert-adv-y="1000"/><glyph glyph-name="uni0406" unicode="І" d="M324 712L181 0H15l143 712h166z" horiz-adv-x="303" vert-adv-y="1000"/><glyph glyph-name="uni0407" unicode="Ї" d="M324 712L181 0H15l143 712h166m-90 209l-28-142H79l28 142h127m215 0l-28-142H293l29 142h127z" horiz-adv-x="303" vert-adv-y="1000"/><glyph glyph-name="uni0408" unicode="Ј" d="M520 712l-96-480q-12-62-39.5-108.5T328 53q-29-24-65.5-38T202-2.5Q178-6 154-6 84-6 39 14t-80 63L78 179q30-39 77-39 84 0 104 98l95 474h166z" horiz-adv-x="490" vert-adv-y="1000"/><glyph glyph-name="uni0409" unicode="Љ" d="M909 250q0-100-72-175T639 0H370l113 565H360l-40-195q-30-147-70.5-228T157 30.5Q105 0 24 0h-67l28 146H6q52 0 86 43.5T152 360l72 352h455l-53-264h86q88 0 142.5-53T909 250m-167-15q0 66-59 66h-86l-31-154h80q49 0 72.5 30t23.5 58z" horiz-adv-x="946" vert-adv-y="1000"/><glyph glyph-name="uni040A" unicode="Њ" d="M897 250q0-100-72-175T627 0H358l61 301H242L181 0H15l143 712h166l-52-264h177l52 264h166l-53-264h86q88 0 142.5-53T897 250m-167-15q0 66-59 66h-86l-31-154h80q49 0 72.5 30t23.5 58z" horiz-adv-x="934" vert-adv-y="1000"/><glyph glyph-name="uni040B" unicode="Ћ" d="M649 255q0-31-6-61L604 0H438l41 204q4 22 4 35 0 62-62 62h-83L277 0H111l113 565H87l30 147h496l-30-147H390l-23-117h86q90 0 143-50.5T649 255z" horiz-adv-x="709" vert-adv-y="1000"/><glyph glyph-name="uni040C" unicode="Ќ" d="M697 712L429 377 573 0H378L257 374l246 338h194m-373 0L181 0H15l143 712h166m297 245L489 780H372l106 177h143z" horiz-adv-x="642" vert-adv-y="1000"/><glyph glyph-name="uni040D" unicode="Ѝ" d="M687 712L544 0H378l74 357L153 0H15l143 712h166l-71-358 296 358h138m-192 68H387l-72 177h142l38-177z" horiz-adv-x="667" vert-adv-y="1000"/><glyph glyph-name="uni040E" unicode="Ў" d="M672 712L313 134q-47-76-95.5-105T89 0H22l28 146h46q60 0 90 50l27 44L89 712h178l54-316 168 316h183M568 892q-14-82-61-114t-120-32q-74 0-111 32.5T239 858q0 18 3 34h111q-1-9-1-14 0-19 12.5-29t31.5-10q45 0 57 53h115z" horiz-adv-x="589" vert-adv-y="1000"/><glyph glyph-name="uni040F" unicode="Џ" d="M667 712L524 0H349l-28-144H162L190 0H15l143 712h166L211 147h177l113 565h166z" horiz-adv-x="647" vert-adv-y="1000"/><glyph glyph-name="uni0410" unicode="А" d="M569 0H400l-10 112H179L124 0H-53l388 712h129L569 0M377 247l-22 210-108-210h130z" horiz-adv-x="622" vert-adv-y="1000"/><glyph glyph-name="uni0411" unicode="Б" d="M617 712l-29-146H295l-24-118h93q88 0 142.5-53T561 250q0-100-72-175T291 0H15l143 712h459M394 235q0 66-59 66h-93l-31-154h87q49 0 72.5 30t23.5 58z" horiz-adv-x="603" vert-adv-y="1000"/><glyph glyph-name="uni0412" unicode="В" d="M616 545q0-122-107-185 30-24 45-50t15-70q0-108-70.5-174T322 0H15l143 712h269q88 0 138.5-45.5T616 545M401 232q0 23-13 39t-41 16H239l-28-140h106q40 0 62 24.5t22 60.5m46 280q0 53-51 53H295l-27-131h98q43 0 62 25.5t19 52.5z" horiz-adv-x="620" vert-adv-y="1000"/><glyph glyph-name="uni0413" unicode="Г" d="M598 712l-29-146H295L181 0H15l143 712h440z" horiz-adv-x="534" vert-adv-y="1000"/><glyph glyph-name="uni0414" unicode="Д" d="M675 712L561 147h81l-58-291H425L453 0H116L88-144H-71l57 291h65q58 102 98 223t76 306l7 36h443M480 566H363l-8-39q-43-209-137-380h178l84 419z" horiz-adv-x="684" vert-adv-y="1000"/><glyph glyph-name="uni0415" unicode="Е" d="M617 712l-29-146H295l-27-134h253l-29-146H239l-28-140h299L481 0H15l143 712h459z" horiz-adv-x="581" vert-adv-y="1000"/><glyph glyph-name="uni0416" unicode="Ж" d="M1004 712L746 377 880 0H685L574 374l236 338h194M406 375L146 0H-55l292 377-120 335h190l99-337m235 337L498 0H332l143 712h166z" horiz-adv-x="949" vert-adv-y="1000"/><glyph glyph-name="uni0417" unicode="З" d="M566 535q0-113-106-175 63-44 63-122 0-112-73-178T258-6Q139-6 78.5 57.5T18 221h166q0-37 20-59t60-22q42 0 65 25t23 67q0 63-69 63h-91l27 138h92q45 0 65.5 23t20.5 54q0 27-17 44.5T331 572q-73 0-93-81H72q35 118 101.5 172.5T354 718q96 0 154-51.5T566 535z" horiz-adv-x="571" vert-adv-y="1000"/><glyph glyph-name="uni0418" unicode="И" d="M687 712L544 0H378l74 357L153 0H15l143 712h166l-71-358 296 358h138z" horiz-adv-x="667" vert-adv-y="1000"/><glyph glyph-name="uni0419" unicode="Й" d="M687 712L544 0H378l74 357L153 0H15l143 712h166l-71-358 296 358h138m-72 180q-14-82-61-114t-120-32q-74 0-111 32.5T286 858q0 18 3 34h111q-1-9-1-14 0-19 12.5-29t31.5-10q45 0 57 53h115z" horiz-adv-x="667" vert-adv-y="1000"/><glyph glyph-name="uni041A" unicode="К" d="M697 712L429 377 573 0H378L257 374l246 338h194m-373 0L181 0H15l143 712h166z" horiz-adv-x="642" vert-adv-y="1000"/><glyph glyph-name="uni041B" unicode="Л" d="M679 712L536 0H370l113 565H360l-40-195q-30-147-70.5-228T157 30.5Q105 0 24 0h-67l28 146H6q52 0 86 43.5T152 360l72 352h455z" horiz-adv-x="659" vert-adv-y="1000"/><glyph glyph-name="uni041C" unicode="М" d="M789 712L646 0H480l70 351-127-176H317l-65 176L181 0H15l143 712h155l91-314 222 314h163z" horiz-adv-x="769" vert-adv-y="1000"/><glyph glyph-name="uni041D" unicode="Н" d="M667 712L524 0H358l58 287H239L181 0H15l143 712h166l-55-278h177l55 278h166z" horiz-adv-x="647" vert-adv-y="1000"/><glyph glyph-name="uni041E" unicode="О" d="M599 510q0-59-19-154-15-77-25-116t-31-85q-21-46-51-78Q395-6 268-6 162-6 103 55T44 202q0 59 19 154 15 77 25 116t31 85q21 46 51 78 78 83 205 83 106 0 165-61t59-147m-167-14q0 36-19.5 56T362 572q-41 0-71-33-31-34-61-183-19-95-19-140 0-36 19.5-56t50.5-20q41 0 71 33 31 34 61 183 19 95 19 140z" horiz-adv-x="608" vert-adv-y="1000"/><glyph glyph-name="uni041F" unicode="П" d="M667 712L524 0H358l113 565H294L181 0H15l143 712h509z" horiz-adv-x="647" vert-adv-y="1000"/><glyph glyph-name="uni0420" unicode="Р" d="M614 514q0-100-72-175t-198-75H234L181 0H15l143 712h259q88 0 142.5-53T614 514m-167-15q0 66-59 66h-93l-31-154h87q49 0 72.5 30t23.5 58z" horiz-adv-x="596" vert-adv-y="1000"/><glyph glyph-name="uni0421" unicode="С" d="M600 491H434q-2 81-69 81-41 0-72-31-33-33-63-185-19-95-19-140 0-36 19.5-56t52.5-20q68 0 100 81h171Q516 107 442 50.5T270-6Q163-6 103.5 55T44 202q0 59 19 154 15 77 25 116t31 85q21 46 51 78 78 83 207 83 109 0 166-64t57-163z" horiz-adv-x="583" vert-adv-y="1000"/><glyph glyph-name="uni0422" unicode="Т" d="M616 712l-30-147H423L310 0H144l113 565H87l30 147h499z" horiz-adv-x="557" vert-adv-y="1000"/><glyph glyph-name="uni0423" unicode="У" d="M672 712L313 134q-47-76-95.5-105T89 0H22l28 146h46q60 0 90 50l27 44L89 712h178l54-316 168 316h183z" horiz-adv-x="589" vert-adv-y="1000"/><glyph glyph-name="uni0424" unicode="Ф" d="M811 471q0-54-8-99-15-83-40.5-132.5T689 149q-37-32-101.5-51T458 79L441-6H275l17 85q-104 6-168.5 57T59 283q0 54 8 99 15 83 40.5 132.5T181 605q37 32 101.5 51T412 675l15 73h166l-15-73q104-6 168.5-57T811 471m-168-29q0 41-27 62.5T542 527l-60-300q50 0 86 22 49 31 69 128 6 30 6 65m-255 85q-50 0-86-22-49-31-69-128-6-30-6-65 0-41 27-62.5t74-22.5l60 300z" horiz-adv-x="828" vert-adv-y="1000"/><glyph glyph-name="uni0425" unicode="Х" d="M680 712L416 360 560 0H373l-74 224L143 0H-50l281 370L97 712h186l65-206 140 206h192z" horiz-adv-x="610" vert-adv-y="1000"/><glyph glyph-name="uni0426" unicode="Ц" d="M667 712L554 147h76l-58-291H413L441 0H15l143 712h166L211 147h177l113 565h166z" horiz-adv-x="676" vert-adv-y="1000"/><glyph glyph-name="uni0427" unicode="Ч" d="M638 712L495 0H329l50 253q-70-15-139-15-70 0-115.5 36T79 372q0 20 6 52l58 288h166l-51-253q-4-20-4-30 0-43 61-43 49 0 93 9l64 317h166z" horiz-adv-x="618" vert-adv-y="1000"/><glyph glyph-name="uni0428" unicode="Ш" d="M952 712L809 0H15l143 712h166L211 147h148l113 565h166L525 147h148l113 565h166z" horiz-adv-x="932" vert-adv-y="1000"/><glyph glyph-name="uni0429" unicode="Щ" d="M952 712L839 147h76l-58-291H698L726 0H15l143 712h166L211 147h148l113 565h166L525 147h148l113 565h166z" horiz-adv-x="961" vert-adv-y="1000"/><glyph glyph-name="uni042A" unicode="Ъ" d="M650 250q0-100-72-175T380 0H111l113 565H87l30 147h303l-53-264h86q88 0 142.5-53T650 250m-167-15q0 66-59 66h-86l-31-154h80q49 0 72.5 30t23.5 58z" horiz-adv-x="687" vert-adv-y="1000"/><glyph glyph-name="uni042B" unicode="Ы" d="M554 250q0-100-72-175T284 0H15l143 712h166l-53-264h86q88 0 142.5-53T554 250m-167-15q0 66-59 66h-86l-31-154h80q49 0 72.5 30t23.5 58m503 477L747 0H581l143 712h166z" horiz-adv-x="870" vert-adv-y="1000"/><glyph glyph-name="uni042C" unicode="Ь" d="M554 250q0-100-72-175T284 0H15l143 712h166l-53-264h86q88 0 142.5-53T554 250m-167-15q0 66-59 66h-86l-31-154h80q49 0 72.5 30t23.5 58z" horiz-adv-x="591" vert-adv-y="1000"/><glyph glyph-name="uni042D" unicode="Э" d="M574 510q0-59-19-154-16-82-24.5-117.5T501 156q-21-47-51-79Q372-6 244-6 131-6 73 57T15 221h171q2-81 67-81 42 0 73 31 26 27 48 124H202l28 138h171q6 46 6 63 0 37-18.5 56.5T335 572q-67 0-96-81H67q34 115 109 171t175 56q105 0 164-61t59-147z" horiz-adv-x="583" vert-adv-y="1000"/><glyph glyph-name="uni042E" unicode="Ю" d="M867 510q0-59-19-154-15-77-25-116t-31-85q-21-46-51-78Q663-6 536-6 430-6 371 55t-59 147q0 34 7 84h-81L181 0H15l143 712h166l-56-280h79q31 140 91 203 78 83 205 83 106 0 165-61t59-147m-167-14q0 36-19.5 56T630 572q-41 0-71-33-31-34-61-183-19-95-19-140 0-36 19.5-56t50.5-20q41 0 71 33 31 34 61 183 19 95 19 140z" horiz-adv-x="876" vert-adv-y="1000"/><glyph glyph-name="uni042F" unicode="Я" d="M636 712L493 0H327l53 264h-64L148 0H-36l198 308q-65 54-65 154t72 175q72 75 198 75h269M440 565h-80q-49 0-72.5-30T264 477q0-66 59-66h86l31 154z" horiz-adv-x="616" vert-adv-y="1000"/><glyph glyph-name="uni0430" unicode="а" d="M484 389q0-20-6-50L410 0H260l9 44Q220-5 152-5 82-5 42 39T2 142q0 83 48 129 55 54 157 54h112l4 19q3 12 3 23 0 47-64 47-63 0-100-43L84 475q73 69 203 69 82 0 139.5-38T484 389M298 221h-76q-32 0-49.5-18T155 160q0-17 12.5-28.5T202 120q39 0 67 28 19 19 26 58l3 15z" horiz-adv-x="513" vert-adv-y="1000"/><glyph glyph-name="uni0431" unicode="б" d="M517 720l-29-135q-112 0-170-17-37-11-60.5-35.5T219 459q46 55 127 55 71 0 102-41.5T479 352q0-38-11-93-17-83-36.5-127.5T375 50Q319-6 211-6 132-6 82 39.5T32 167q0 45 14 115 35 177 67 254t78 114q48 38 123 54t203 16M321 334q0 46-42 46-25 0-42-17-24-24-40-104-8-40-8-75 0-46 42-46 25 0 42 17 24 24 40 104 8 40 8 75z" horiz-adv-x="509" vert-adv-y="1000"/><glyph glyph-name="uni0432" unicode="в" d="M515 411q0-93-80-139 22-19 33.5-38.5T480 181q0-82-53-131.5T294 0H6l107 538h260q67 0 104.5-34.5T515 411M321 175q0 40-38 40h-78l-20-99h77q28 0 43.5 17t15.5 42m35 210q0 37-36 37h-74l-18-91h71q30 0 43.5 17.5T356 385z" horiz-adv-x="539" vert-adv-y="1000"/><glyph glyph-name="uni0433" unicode="г" d="M465 538l-27-141H242L162 0H6l107 538h352z" horiz-adv-x="425" vert-adv-y="1000"/><glyph glyph-name="uni0434" unicode="д" d="M544 538l-80-397h60l-51-255H327L350 0H100L77-114H-69l51 255h50q41 79 65.5 153T149 503l7 35h388M359 397h-82l-8-40q-21-101-83-216h122l51 256z" horiz-adv-x="568" vert-adv-y="1000"/><glyph glyph-name="uni0435" unicode="е" d="M506 348q0-53-18-129H178q-2-14-2-22 0-33 20-52.5t59-19.5q63 0 115 50l78-102Q366-6 236-6q-36 0-70 9T99.5 32.5Q67 53 47.5 92T28 185q0 98 30.5 178T153 493.5Q217 544 305 544t144.5-52.5Q506 439 506 348m-148 0q0 31-16 49.5T296 416q-71 0-98-94h157q3 12 3 26z" horiz-adv-x="533" vert-adv-y="1000"/><glyph glyph-name="uni0436" unicode="ж" d="M528 538L421 0H265l107 538h156m-50-255l186 255h179L632 286 748 0H568l-90 283m-158-3L126 0H-61l230 295L63 538h164l93-258z" horiz-adv-x="799" vert-adv-y="1000"/><glyph glyph-name="uni0437" unicode="з" d="M458 398q0-84-82-120 51-31 51-99 0-86-61.5-135.5T179-6Q61-6-16 75l101 99q42-48 103-48 80 0 80 52 0 38-49 38h-67l22 114h68q30 0 46 11.5t16 31.5q0 42-65 42-35 0-60-11t-53-37l-70 95q51 45 98 63t110 18q93 0 143.5-38T458 398z" horiz-adv-x="485" vert-adv-y="1000"/><glyph glyph-name="uni0438" unicode="и" d="M554 538L447 0H291l52 260L162 0H6l107 538h156l-51-260 181 260h155z" horiz-adv-x="559" vert-adv-y="1000"/><glyph glyph-name="uni0439" unicode="й" d="M554 538L447 0H291l52 260L162 0H6l107 538h156l-51-260 181 260h155m-28 188q-14-82-61-114t-120-32q-74 0-111 32.5T197 692q0 18 3 34h111q-1-9-1-14 0-19 12.5-29t31.5-10q45 0 57 53h115z" horiz-adv-x="559" vert-adv-y="1000"/><glyph glyph-name="uni043A" unicode="к" d="M269 538L162 0H6l107 538h156m-50-255l187 255h179L373 286 486 0H306l-87 283z" horiz-adv-x="542" vert-adv-y="1000"/><glyph glyph-name="uni043B" unicode="л" d="M547 538L440 0H284l78 397h-87l-21-103q-35-169-86.5-231.5T26 0h-73l25 128h16q16 0 24.5 1.5t22 10q13.5 8.5 23 26t20.5 51Q95 250 105 300l48 238h394z" horiz-adv-x="552" vert-adv-y="1000"/><glyph glyph-name="uni043C" unicode="м" d="M650 538L543 0H387l54 268-100-143h-81l-44 143L162 0H6l107 538h150l69-237 161 237h157z" horiz-adv-x="655" vert-adv-y="1000"/><glyph glyph-name="uni043D" unicode="н" d="M536 538L429 0H273l41 204H202L161 0H5l107 538h156l-38-193h112l38 193h156z" horiz-adv-x="541" vert-adv-y="1000"/><glyph glyph-name="uni043E" unicode="о" d="M492 366q0-42-11-97-17-83-37-129t-56-82Q324-6 217-6 141-6 85.5 40.5T30 172q0 42 11 97 17 83 37 129t56 82q64 64 171 64 76 0 131.5-46.5T492 366m-155-19q0 56-48 56-30 0-48-18-27-26-45-116-11-55-11-78 0-56 48-56 30 0 48 18 27 26 45 116 11 55 11 78z" horiz-adv-x="522" vert-adv-y="1000"/><glyph glyph-name="uni043F" unicode="п" d="M538 538L430 0H274l79 397H241L162 0H6l108 538h424z" horiz-adv-x="571" vert-adv-y="1000"/><glyph glyph-name="uni0440" unicode="р" d="M518 405q0-45-18-136-19-95-37-146t-45-78Q367-6 285-6q-75 0-115 49l-43-217H-29l142 712h150l-9-45q46 51 123 51 40 0 69-14t44-36q15-22 21.5-44.5T518 405m-163-55q0 53-47 53-41 0-59.5-30T215 269q-11-55-11-81 0-53 47-53 41 0 59.5 30T344 269q11 55 11 81z" horiz-adv-x="541" vert-adv-y="1000"/><glyph glyph-name="uni0441" unicode="с" d="M470 472L352 368q-27 35-57 35-31 0-54-24-34-36-48-110-7-37-7-63 0-71 54-71 38 0 74 36l86-113Q328-6 223-6q-48 0-90 18T60 75q-31 45-31 110 0 41 8 84 50 275 273 275 101 0 160-72z" horiz-adv-x="453" vert-adv-y="1000"/><glyph glyph-name="uni0442" unicode="т" d="M486 538l-27-141H325L245 0H89l80 397H35l27 141h424z" horiz-adv-x="443" vert-adv-y="1000"/><glyph glyph-name="uni0443" unicode="у" d="M546 538L222-64q-22-41-44-62-53-54-136-54h-58L13-38h32q20 0 33.5 11.5T105 10l23 43-75 485h154l30-300 145 300h164z" horiz-adv-x="488" vert-adv-y="1000"/><glyph glyph-name="uni0444" unicode="ф" d="M683 355q0-51-9-96-14-75-36.5-117T574 61q-29-27-84.5-45.5T379-3l-34-171H189L223-2Q144 2 86 52T28 183q0 51 9 96 14 75 36.5 117t63.5 81q29 27 84.5 45.5T332 541l34 171h156l-34-172q79-4 137-54t58-131m-376 48q-38 0-63-20-34-26-53-114-6-27-6-65 0-33 18-50.5t50-18.5l54 268m219-69q0 33-18 50.5T458 403l-54-268q38 0 63 20 34 26 53 114 6 27 6 65z" horiz-adv-x="711" vert-adv-y="1000"/><glyph glyph-name="uni0445" unicode="х" d="M568 538L351 269 479 0H299l-55 143L141 0H-52l230 276L54 538h180l51-137 93 137h190z" horiz-adv-x="528" vert-adv-y="1000"/><glyph glyph-name="uni0446" unicode="ц" d="M538 538l-79-397h60l-51-255H322L345 0H6l107 538h156l-78-397h112l79 397h156z" horiz-adv-x="562" vert-adv-y="1000"/><glyph glyph-name="uni0447" unicode="ч" d="M513 538L406 0H250l35 180q-59-13-110-13-58 0-92 31t-34 84q0 18 5 43l43 213h156l-34-169q-3-13-3-27 0-36 41-36 24 0 54 7l46 225h156z" horiz-adv-x="518" vert-adv-y="1000"/><glyph glyph-name="uni0448" unicode="ш" d="M793 538L686 0H6l107 538h156l-78-397h106l78 397h156l-78-397h106l78 397h156z" horiz-adv-x="798" vert-adv-y="1000"/><glyph glyph-name="uni0449" unicode="щ" d="M793 538l-79-397h60l-51-255H577L600 0H6l107 538h156l-78-397h106l78 397h156l-78-397h106l78 397h156z" horiz-adv-x="817" vert-adv-y="1000"/><glyph glyph-name="uni044A" unicode="ъ" d="M534 198q0-79-57-138.5T321 0H61l79 397H35l27 141h263l-37-184h90q69 0 112.5-42T534 198m-153-14q0 45-40 45h-78l-21-104h74q34 0 49.5 20t15.5 39z" horiz-adv-x="575" vert-adv-y="1000"/><glyph glyph-name="uni044B" unicode="ы" d="M478 198q0-79-57-138.5T265 0H5l108 538h156l-37-184h90q69 0 112.5-42T478 198m-153-14q0 45-40 45h-78l-21-104h74q34 0 49.5 20t15.5 39m426 354L643 0H487l108 538h156z" horiz-adv-x="756" vert-adv-y="1000"/><glyph glyph-name="uni044C" unicode="ь" d="M478 198q0-79-57-138.5T265 0H5l108 538h156l-37-184h90q69 0 112.5-42T478 198m-153-14q0 45-40 45h-78l-21-104h74q34 0 49.5 20t15.5 39z" horiz-adv-x="519" vert-adv-y="1000"/><glyph glyph-name="uni044D" unicode="э" d="M422 349q0-54-9-99-28-138-86.5-197T159-6Q92-6 52.5 9.5T-26 62L83 169q34-38 82-38 36 0 59 24 22 23 30 64H125l21 103h127q1 8 1 22 0 26-17 44.5T209 407q-45 0-79-37L49 471q71 73 174 73 85 0 142-50t57-145z" horiz-adv-x="453" vert-adv-y="1000"/><glyph glyph-name="uni044E" unicode="ю" d="M733 366q0-42-11-97-17-83-37-129t-56-82Q565-6 458-6q-76 0-131.5 46.5T271 172q0 19 2 35h-70L162 0H6l107 538h156l-39-196h69q23 85 76 138 64 64 171 64 76 0 131.5-46.5T733 366m-155-19q0 56-48 56-30 0-48-18-27-26-45-116-11-55-11-78 0-56 48-56 30 0 48 18 27 26 45 116 11 55 11 78z" horiz-adv-x="763" vert-adv-y="1000"/><glyph glyph-name="uni044F" unicode="я" d="M529 538L422 0H266l36 184h-63L133 0H-32l143 215q-55 44-55 125 0 79 57 138.5T269 538h260M348 413h-74q-34 0-49.5-20T209 354q0-45 40-45h78l21 104z" horiz-adv-x="534" vert-adv-y="1000"/><glyph glyph-name="uni0450" unicode="ѐ" d="M506 348q0-53-18-129H178q-2-14-2-22 0-33 20-52.5t59-19.5q63 0 115 50l78-102Q366-6 236-6q-36 0-70 9T99.5 32.5Q67 53 47.5 92T28 185q0 98 30.5 178T153 493.5Q217 544 305 544t144.5-52.5Q506 439 506 348m-148 0q0 31-16 49.5T296 416q-71 0-98-94h157q3 12 3 26m31 260H281l-72 177h142l38-177z" horiz-adv-x="533" vert-adv-y="1000"/><glyph glyph-name="uni0451" unicode="ё" d="M506 348q0-53-18-129H178q-2-14-2-22 0-33 20-52.5t59-19.5q63 0 115 50l78-102Q366-6 236-6q-36 0-70 9T99.5 32.5Q67 53 47.5 92T28 185q0 98 30.5 178T153 493.5Q217 544 305 544t144.5-52.5Q506 439 506 348m-148 0q0 31-16 49.5T296 416q-71 0-98-94h157q3 12 3 26m-40 401l-28-142H163l28 142h127m215 0l-28-142H378l28 142h127z" horiz-adv-x="533" vert-adv-y="1000"/><glyph glyph-name="uni0452" unicode="ђ" d="M515 386q0-30-7-62L439-21q-15-73-61.5-116T258-180h-93l27 132h51q17 0 28 11t14 28l65 324q3 13 3 27 0 25-14 38t-31 13q-67 0-83-78L162 0H6l113 568H75l19 96h44l10 48h156l-10-48h180l-19-96H275l-15-75q52 41 120 41 51 0 93-36t42-112z" horiz-adv-x="548" vert-adv-y="1000"/><glyph glyph-name="uni0453" unicode="ѓ" d="M465 538l-27-141H242L162 0H6l107 538h352m4 247L337 608H220l106 177h143z" horiz-adv-x="425" vert-adv-y="1000"/><glyph glyph-name="uni0454" unicode="є" d="M479 471L364 370q-25 37-68 37-37 0-61-24-20-20-32-61h128l-21-103H182q-2-10-2-23 0-29 16-47t48-18q45 0 82 37l84-110Q340-6 228-6 150-6 89.5 42T29 185q0 41 8 84 50 275 277 275 108 0 165-73z" horiz-adv-x="462" vert-adv-y="1000"/><glyph glyph-name="uni0455" unicode="ѕ" d="M473 474l-106-94q-13 17-39.5 26.5T277 416q-36 0-54-11.5T205 375q0-23 33-29l68-12q130-23 130-144 0-81-60-137Q314-6 187-6 51-6-25 76l111 98q39-46 111-46 39 0 61.5 13t22.5 31q0 26-37 32l-68 12q-64 11-95.5 45.5T49 340q0 84 57 141 63 63 184 63 118 0 183-70z" horiz-adv-x="477" vert-adv-y="1000"/><glyph glyph-name="uni0456" unicode="і" d="M264 515L161 0H5l103 515h156m39 197l-24-121H123l24 121h156z" horiz-adv-x="274" vert-adv-y="1000"/><glyph glyph-name="uni0457" unicode="ї" d="M264 515L161 0H5l103 515h156m-78 234l-28-142H31l28 142h127m215 0l-28-142H246l28 142h127z" horiz-adv-x="274" vert-adv-y="1000"/><glyph glyph-name="uni0458" unicode="ј" d="M265 515L158-21q-15-73-61.5-116T-23-180h-93l27 132h51q16 0 27.5 11T4-9l105 524h156m39 197l-24-121H124l24 121h156z" horiz-adv-x="274" vert-adv-y="1000"/><glyph glyph-name="uni0459" unicode="љ" d="M757 198q0-79-57-138.5T544 0H284l78 397h-87l-21-103q-35-169-86.5-231.5T26 0h-73l25 128h16q21 0 32.5 4t27 20q15.5 16 28 54.5T107 309l46 229h394l-36-184h90q69 0 112.5-42T757 198m-153-14q0 45-40 45h-78l-21-104h74q34 0 49.5 20t15.5 39z" horiz-adv-x="798" vert-adv-y="1000"/><glyph glyph-name="uni045A" unicode="њ" d="M746 198q0-79-57-138.5T533 0H273l42 213H203L161 0H5l108 538h156l-37-184h112l37 184h156l-37-184h90q69 0 112.5-42T746 198m-153-14q0 45-40 45h-78l-21-104h74q34 0 49.5 20t15.5 39z" horiz-adv-x="787" vert-adv-y="1000"/><glyph glyph-name="uni045B" unicode="ћ" d="M515 386q0-30-7-62L443 0H287l63 315q3 13 3 27 0 25-14 38t-31 13q-67 0-83-78L162 0H6l113 568H75l19 96h44l10 48h156l-10-48h180l-19-96H275l-15-75q52 41 120 41 51 0 93-36t42-112z" horiz-adv-x="548" vert-adv-y="1000"/><glyph glyph-name="uni045C" unicode="ќ" d="M269 538L162 0H6l107 538h156m-50-255l187 255h179L373 286 486 0H306l-87 283m325 502L412 608H295l106 177h143z" horiz-adv-x="542" vert-adv-y="1000"/><glyph glyph-name="uni045D" unicode="ѝ" d="M554 538L447 0H291l52 260L162 0H6l107 538h156l-51-260 181 260h155m-150 70H296l-72 177h142l38-177z" horiz-adv-x="559" vert-adv-y="1000"/><glyph glyph-name="uni045E" unicode="ў" d="M546 538L222-64q-22-41-44-62-53-54-136-54h-58L13-38h32q20 0 33.5 11.5T105 10l23 43-75 485h154l30-300 145 300h164m-58 188q-14-82-61-114t-120-32q-74 0-111 32.5T159 692q0 18 3 34h111q-1-9-1-14 0-19 12.5-29t31.5-10q45 0 57 53h115z" horiz-adv-x="488" vert-adv-y="1000"/><glyph glyph-name="uni045F" unicode="џ" d="M537 538L429 0H290l-23-114H121L144 0H5l108 538h156l-79-397h112l79 397h156z" horiz-adv-x="542" vert-adv-y="1000"/><glyph glyph-name="uni0462" unicode="Ѣ" d="M579 250q0-100-72-175T309 0H40l107 532H85l25 126h62l11 54h166l-11-54h85l-25-126h-85l-17-84h86q88 0 142.5-53T579 250m-167-15q0 66-59 66h-86l-31-154h80q49 0 72.5 30t23.5 58z" horiz-adv-x="616" vert-adv-y="1000"/><glyph glyph-name="uni0463" unicode="ѣ" d="M508 198q0-79-57-138.5T295 0H35l80 400H70l19 96h45l9 42h156l-9-42h66l-19-96h-66l-9-46h90q69 0 112.5-42T508 198m-153-14q0 45-40 45h-78l-21-104h74q34 0 49.5 20t15.5 39z" horiz-adv-x="549" vert-adv-y="1000"/><glyph glyph-name="uni0472" unicode="Ѳ" d="M599 510q0-59-19-154-15-77-25-116t-31-85q-21-46-51-78Q395-6 268-6 162-6 103 55T44 202q0 59 19 154 15 77 25 116t31 85q21 46 51 78 78 83 205 83 106 0 165-61t59-147M400 296H219q-8-46-8-80 0-36 19.5-56t50.5-20q41 0 71 33 24 26 48 123m32 200q0 36-19.5 56T362 572q-41 0-71-33-25-26-44-105h179q6 35 6 62z" horiz-adv-x="608" vert-adv-y="1000"/><glyph glyph-name="uni0473" unicode="ѳ" d="M492 366q0-42-11-97-17-83-37-129t-56-82Q324-6 217-6 141-6 85.5 40.5T30 172q0 42 11 97 17 83 37 129t56 82q64 64 171 64 76 0 131.5-46.5T492 366M314 219H187q-2-16-2-28 0-56 48-56 30 0 48 18 19 19 33 66m23 128q0 56-48 56-30 0-48-18-19-19-33-63h127q2 13 2 25z" horiz-adv-x="522" vert-adv-y="1000"/><glyph glyph-name="uni0474" unicode="Ѵ" d="M712 712l-27-141h-32q-62 0-88-50L299 0H170L89 712h164l38-409 130 275q34 72 88 103t136 31h67z" horiz-adv-x="571" vert-adv-y="1000"/><glyph glyph-name="uni0475" unicode="ѵ" d="M565 538l-29-142h-31q-20 0-33.5-11.5T445 348L254 0H135L54 538h154l30-300 89 184q16 34 44 62 53 54 136 54h58z" horiz-adv-x="495" vert-adv-y="1000"/><glyph glyph-name="uni0490" unicode="Ґ" d="M627 856l-58-290H295L181 0H15l143 712h280l29 144h160z" horiz-adv-x="534" vert-adv-y="1000"/><glyph glyph-name="uni0491" unicode="ґ" d="M489 652l-51-255H242L162 0H6l108 538h205l24 114h146z" horiz-adv-x="425" vert-adv-y="1000"/><glyph glyph-name="uni0492" unicode="Ғ" d="M625 712l-29-146H322l-29-144h85l-25-126h-86L208 0H42l59 296H40l25 126h62l58 290h440z" horiz-adv-x="561" vert-adv-y="1000"/><glyph glyph-name="uni0493" unicode="ғ" d="M494 538l-27-141H271l-11-54h66l-19-96h-66L191 0H35l49 247H40l19 96h44l39 195h352z" horiz-adv-x="454" vert-adv-y="1000"/><glyph glyph-name="uni0496" unicode="Җ" d="M909 147l-58-291H692L721 0h-36L574 374l236 338h194L746 377l82-230h81M406 375L146 0H-55l292 377-120 335h190l99-337m235 337L498 0H332l143 712h166z" horiz-adv-x="949" vert-adv-y="1000"/><glyph glyph-name="uni0497" unicode="җ" d="M776 141l-51-255H579L602 0h-34l-90 283 186 255h179L632 286l59-145h85M320 280L126 0H-61l230 295L63 538h164l93-258m208 258L421 0H265l107 538h156z" horiz-adv-x="799" vert-adv-y="1000"/><glyph glyph-name="uni049A" unicode="Қ" d="M602 147l-58-291H385L413 0h-35L257 374l246 338h194L429 377l88-230h85M324 712L181 0H15l143 712h166z" horiz-adv-x="642" vert-adv-y="1000"/><glyph glyph-name="uni049B" unicode="қ" d="M514 141l-51-255H317L340 0h-34l-87 283 187 255h179L373 286l57-145h84M269 538L162 0H6l107 538h156z" horiz-adv-x="541" vert-adv-y="1000"/><glyph glyph-name="uni049C" unicode="Ҝ" d="M383 306l-25-122H256l25 122h-39L181 0H15l143 712h166l-54-268h38l26 122h102l-25-122h28l152 268h194L567 377 661 0H466l-55 306h-28z" horiz-adv-x="730" vert-adv-y="1000"/><glyph glyph-name="uni049D" unicode="ҝ" d="M363 220h-27l-21-107h-93l21 107h-37L162 0H6l107 538h156l-38-193h36l22 106h94l-22-106h27l99 193h179L504 286 567 0H387l-24 220z" horiz-adv-x="623" vert-adv-y="1000"/><glyph glyph-name="uni04A2" unicode="Ң" d="M630 147l-58-291H413L442 0h-84l58 287H239L181 0H15l143 712h166l-55-278h177l55 278h166L553 147h77z" horiz-adv-x="647" vert-adv-y="1000"/><glyph glyph-name="uni04A3" unicode="ң" d="M525 141l-51-255H328L351 0h-78l41 204H202L161 0H5l107 538h156l-38-193h112l38 193h156l-79-397h68z" horiz-adv-x="541" vert-adv-y="1000"/><glyph glyph-name="uni04AE" unicode="Ү" d="M668 712L380 285 323 0H157l58 290L81 712h178l65-266 161 266h183z" horiz-adv-x="585" vert-adv-y="1000"/><glyph glyph-name="uni04AF" unicode="ү" d="M549 538L276 20l-38-194H82l39 195-67 517h154l35-286 140 286h166z" horiz-adv-x="495" vert-adv-y="1000"/><glyph glyph-name="uni04B0" unicode="Ұ" d="M668 712L383 290h67l-25-126h-69L323 0H157l33 164h-78l25 126h78L81 712h178l65-266 161 266h183z" horiz-adv-x="585" vert-adv-y="1000"/><glyph glyph-name="uni04B1" unicode="ұ" d="M549 538L277 22h54l-19-96h-55l-19-100H82l20 100H45l19 96h57L54 538h154l35-286 140 286h166z" horiz-adv-x="495" vert-adv-y="1000"/><glyph glyph-name="uni04B2" unicode="Ҳ" d="M589 147l-58-291H372L401 0h-28l-74 224L143 0H-50l281 370L97 712h186l65-206 140 206h192L416 360l85-213h88z" horiz-adv-x="610" vert-adv-y="1000"/><glyph glyph-name="uni04B3" unicode="ҳ" d="M507 141l-51-255H310L333 0h-34l-55 143L141 0H-52l230 276L54 538h180l51-137 93 137h190L351 269l61-128h95z" horiz-adv-x="528" vert-adv-y="1000"/><glyph glyph-name="uni04B6" unicode="Ҷ" d="M600 147l-58-291H383L412 0h-83l50 253q-70-15-139-15-70 0-115.5 36T79 372q0 20 6 52l58 288h166l-51-253q-4-20-4-30 0-43 61-43 49 0 93 9l64 317h166L524 147h76z" horiz-adv-x="618" vert-adv-y="1000"/><glyph glyph-name="uni04B7" unicode="ҷ" d="M502 141l-51-255H305L328 0h-78l35 180q-59-13-110-13-58 0-92 31t-34 84q0 18 5 43l43 213h156l-34-169q-3-13-3-27 0-36 41-36 24 0 54 7l46 225h156l-79-397h68z" horiz-adv-x="518" vert-adv-y="1000"/><glyph glyph-name="uni04B8" unicode="Ҹ" d="M143 712h166l-51-253q-4-20-4-30 0-21 18-32l23 106h122l-24-113q10 1 28 5l64 317h166L508 0H342l50 253q-13-4-28-6l-25-126H217l23 117q-73 3-117 38.5T79 372q0 17 7 52l57 288z" horiz-adv-x="631" vert-adv-y="1000"/><glyph glyph-name="uni04B9" unicode="ҹ" d="M343 405l-20-96q14 2 21 4l46 225h156L439 0H283l35 180q-13-4-22-5L275 68h-96l19 99q-70 2-109.5 31.5T49 282q0 24 5 43l43 213h156l-34-169q-3-13-3-27 0-20 12-28l18 91h97z" horiz-adv-x="551" vert-adv-y="1000"/><glyph glyph-name="uni04BA" unicode="Һ" d="M15 0l143 712h166l-50-253q71 15 139 15 70 0 115.5-36t45.5-98q0-20-6-52L510 0H344l51 253q4 20 4 30 0 43-61 43-50 0-93-9L181 0H15z" horiz-adv-x="618" vert-adv-y="1000"/><glyph glyph-name="uni04BB" unicode="һ" d="M5 0l107 538h156l-35-180q59 13 110 13 58 0 92-31t34-84q0-18-5-43L421 0H265l34 169q3 13 3 27 0 36-41 36-24 0-54-7L161 0H5z" horiz-adv-x="518" vert-adv-y="1000"/><glyph glyph-name="uni04C0" unicode="Ӏ" d="M324 712L181 0H15l143 712h166z" horiz-adv-x="303" vert-adv-y="1000"/><glyph glyph-name="uni04CF" unicode="ӏ" d="M304 712L161 0H5l143 712h156z" horiz-adv-x="275" vert-adv-y="1000"/><glyph glyph-name="uni04D8" unicode="Ә" d="M604 510q0-59-19-154-15-77-25-116t-31-85q-21-46-51-78Q400-6 273-6 166-6 105 55T44 202q0 64 18 154l11 51h354q10 64 10 89 0 36-19.5 56T367 572q-46 0-76-33-16-18-28-51H92q27 93 78 147 78 83 210 83 106 0 165-61t59-147M398 269H215q-4-27-4-53 0-35 21.5-55.5T286 140q41 0 71 33 23 24 41 96z" horiz-adv-x="612" vert-adv-y="1000"/><glyph glyph-name="uni04D9" unicode="ә" d="M27 190q0 53 18 129h310q2 14 2 22 0 33-20 52.5T278 413q-63 0-115-50L85 465q82 79 212 79 36 0 70-9t66.5-29.5q32.5-20.5 52-59.5t19.5-93q0-98-30.5-178T380 44.5Q316-6 228-6T83.5 46.5Q27 99 27 190m148 0q0-31 16-49.5t46-18.5q71 0 98 94H178q-3-12-3-26z" horiz-adv-x="533" vert-adv-y="1000"/><glyph glyph-name="uni04E2" unicode="Ӣ" d="M687 712L544 0H378l74 357L153 0H15l143 712h166l-71-358 296 358h138m-76 176l-20-99H281l20 99h310z" horiz-adv-x="667" vert-adv-y="1000"/><glyph glyph-name="uni04E3" unicode="ӣ" d="M554 538L447 0H291l52 260L162 0H6l107 538h156l-51-260 181 260h155m-29 184l-20-99H195l20 99h310z" horiz-adv-x="559" vert-adv-y="1000"/><glyph glyph-name="uni04E8" unicode="Ө" d="M599 510q0-59-19-154-15-77-25-116t-31-85q-21-46-51-78Q395-6 268-6 162-6 103 55T44 202q0 59 19 154 15 77 25 116t31 85q21 46 51 78 78 83 205 83 106 0 165-61t59-147M400 296H219q-8-46-8-80 0-36 19.5-56t50.5-20q41 0 71 33 24 26 48 123m32 200q0 36-19.5 56T362 572q-41 0-71-33-25-26-44-105h179q6 35 6 62z" horiz-adv-x="608" vert-adv-y="1000"/><glyph glyph-name="uni04E9" unicode="ө" d="M492 366q0-42-11-97-17-83-37-129t-56-82Q324-6 217-6 141-6 85.5 40.5T30 172q0 42 11 97 17 83 37 129t56 82q64 64 171 64 76 0 131.5-46.5T492 366M314 219H187q-2-16-2-28 0-56 48-56 30 0 48 18 19 19 33 66m23 128q0 56-48 56-30 0-48-18-19-19-33-63h127q2 13 2 25z" horiz-adv-x="522" vert-adv-y="1000"/><glyph glyph-name="uni04EE" unicode="Ӯ" d="M672 712L313 134q-47-76-95.5-105T89 0H22l28 146h46q60 0 90 50l27 44L89 712h178l54-316 168 316h183m-99 176l-20-99H243l20 99h310z" horiz-adv-x="589" vert-adv-y="1000"/><glyph glyph-name="uni04EF" unicode="ӯ" d="M546 538L222-64q-22-41-44-62-53-54-136-54h-58L13-38h32q20 0 33.5 11.5T105 10l23 43-75 485h154l30-300 145 300h164m-58 184l-20-99H158l20 99h310z" horiz-adv-x="488" vert-adv-y="1000"/><glyph glyph-name="uni1E80" unicode="Ẁ" d="M951 712L627 0H492l-37 361L269 0H134L87 712h171l14-386 188 386h118l34-386 163 386h176m-354 68H489l-72 177h142l38-177z" horiz-adv-x="864" vert-adv-y="1000"/><glyph glyph-name="uni1E81" unicode="ẁ" d="M789 538L534 0H416l-38 300L223 0H101L54 538h155l11-284 143 284h110l33-284 117 284h166m-302 70H379l-72 177h142l38-177z" horiz-adv-x="738" vert-adv-y="1000"/><glyph glyph-name="uni1E82" unicode="Ẃ" d="M951 712L627 0H492l-37 361L269 0H134L87 712h171l14-386 188 386h118l34-386 163 386h176M725 957L593 780H476l106 177h143z" horiz-adv-x="864" vert-adv-y="1000"/><glyph glyph-name="uni1E83" unicode="ẃ" d="M789 538L534 0H416l-38 300L223 0H101L54 538h155l11-284 143 284h110l33-284 117 284h166M622 785L490 608H373l106 177h143z" horiz-adv-x="738" vert-adv-y="1000"/><glyph glyph-name="uni1E84" unicode="Ẅ" d="M951 712L627 0H492l-37 361L269 0H134L87 712h171l14-386 188 386h118l34-386 163 386h176M523 921l-28-142H368l28 142h127m215 0l-28-142H582l29 142h127z" horiz-adv-x="864" vert-adv-y="1000"/><glyph glyph-name="uni1E85" unicode="ẅ" d="M789 538L534 0H416l-38 300L223 0H101L54 538h155l11-284 143 284h110l33-284 117 284h166M423 749l-28-142H268l28 142h127m215 0l-28-142H483l28 142h127z" horiz-adv-x="738" vert-adv-y="1000"/><glyph glyph-name="uni1E8A" unicode="Ẋ" d="M680 712L416 360 560 0H373l-74 224L143 0H-50l281 370L97 712h186l65-206 140 206h192M490 920l-27-137H335l28 137h127z" horiz-adv-x="610" vert-adv-y="1000"/><glyph glyph-name="uni1E8B" unicode="ẋ" d="M568 538L351 269 479 0H299l-55 143L141 0H-52l230 276L54 538h180l51-137 93 137h190M418 748l-27-137H263l28 137h127z" horiz-adv-x="528" vert-adv-y="1000"/><glyph glyph-name="uni1EF2" unicode="Ỳ" d="M668 712L380 285 323 0H157l58 290L81 712h178l65-266 161 266h183m-233 68H327l-72 177h142l38-177z" horiz-adv-x="585" vert-adv-y="1000"/><glyph glyph-name="uni1EF3" unicode="ỳ" d="M546 538L222-64q-22-41-44-62-53-54-136-54h-58L13-38h32q20 0 33.5 11.5T105 10l23 43-75 485h154l30-300 145 300h164m-188 70H250l-72 177h142l38-177z" horiz-adv-x="488" vert-adv-y="1000"/><glyph glyph-name="uni2013" unicode="–" d="M502 368l-29-146H38l29 146h435z" horiz-adv-x="528" vert-adv-y="1000"/><glyph glyph-name="uni2014" unicode="—" d="M1013 368l-29-146H38l29 146h946z" horiz-adv-x="1038" vert-adv-y="1000"/><glyph glyph-name="uni2015" unicode="―" d="M1013 368l-29-146H38l29 146h946z" horiz-adv-x="1038" vert-adv-y="1000"/><glyph glyph-name="uni2018" unicode="‘" d="M323 832l-53-266H114l29 146 180 120z" horiz-adv-x="263" vert-adv-y="1000"/><glyph glyph-name="uni2019" unicode="’" d="M299 712l-29-147L90 447l53 265h156z" horiz-adv-x="263" vert-adv-y="1000"/><glyph glyph-name="uni201A" unicode="‚" d="M186 147L157 0-22-118l53 265h155z" horiz-adv-x="263" vert-adv-y="1000"/><glyph glyph-name="uni201C" unicode="“" d="M322 832l-53-266H114l29 146 179 120m223 0l-54-266H336l29 146 180 120z" horiz-adv-x="485" vert-adv-y="1000"/><glyph glyph-name="uni201D" unicode="”" d="M298 712l-29-147L90 447l53 265h155m223 0l-30-147-179-118 53 265h156z" horiz-adv-x="485" vert-adv-y="1000"/><glyph glyph-name="uni201E" unicode="„" d="M185 147L156 0-22-118l53 265h154m223 0L378 0 199-118l53 265h156z" horiz-adv-x="485" vert-adv-y="1000"/><glyph glyph-name="uni2020" unicode="†" d="M546 538l-28-140H372L293 0H137l80 398H71l28 140h145l35 174h156l-35-174h146z" horiz-adv-x="536" vert-adv-y="1000"/><glyph glyph-name="uni2021" unicode="‡" d="M546 538l-28-140H372l-50-250h146L440 8H294l-36-182H102L139 8H-7l28 140h146l50 250H71l28 140h145l35 174h156l-35-174h146z" horiz-adv-x="536" vert-adv-y="1000"/><glyph glyph-name="uni2022" unicode="•" d="M347 444.5l21.5-21.25Q390 402 390 334t-43-110.5Q304 181 237 181t-110 42.5Q84 266 84 334t43 110.5Q170 487 237 487t110-42.5z" horiz-adv-x="447" vert-adv-y="1000"/><glyph glyph-name="uni2026" unicode="…" d="M195 162L163 0H1l33 162h161m292 0L454 0H293l32 162h162m292 0L747 0H585l33 162h161z" horiz-adv-x="854" vert-adv-y="1000"/><glyph glyph-name="uni2030" unicode="‰" d="M1131 253q0-13-3-30l-17-90Q1085-6 946-6q-53 0-88.5 30T822 108q0 13 3 30l17 90q26 139 165 139 53 0 88.5-30t35.5-84m-353 0q0-13-3-30l-17-90Q732-6 593-6q-53 0-88.5 30T469 108q0 13 3 30l17 90q26 139 165 139 53 0 88.5-30t35.5-84M394 604q0-14-3-30l-17-90q-26-139-165-139-53 0-88.5 30T85 459q0 13 3 30l17 90q26 139 165 139 53 0 88.5-30t35.5-84m331 108L260 0H137l465 712h123m-58-473q0 29-28 29-33 0-40-41l-17-88q-2-12-2-17 0-29 28-29 33 0 40 41l17 88q2 12 2 17m353 0q0 29-28 29-33 0-40-41l-17-88q-2-12-2-17 0-29 28-29 33 0 40 41l17 88q2 12 2 17M283 590q0 29-28 29-33 0-40-41l-17-88q-2-12-2-17 0-29 28-29 33 0 40 41l17 88q2 12 2 17z" horiz-adv-x="1180" vert-adv-y="1000"/><glyph glyph-name="uni2039" unicode="‹" d="M344 547l-40-199-95-81 62-82L237 9 31 280l313 267z" horiz-adv-x="345" vert-adv-y="1000"/><glyph glyph-name="uni203A" unicode="›" d="M319 276L6 9l40 199 95 81-62 82 34 176 206-271z" horiz-adv-x="345" vert-adv-y="1000"/><glyph glyph-name="uni2044" unicode="⁄" d="M418 712L-46 0h-123l464 712h123z" horiz-adv-x="213" vert-adv-y="1000"/><glyph glyph-name="uni2070" unicode="⁰" d="M363 603q0-18-3-31l-30-153q-14-71-55.5-104.5T176 281q-59 0-90.5 33.5T54 394q0 13 3 31l31 153q14 71 55.5 104.5T242 716q59 0 90-33.5t31-79.5m-112-20q0 22-23 22-24 0-31-33l-28-141q-2-10-2-16 0-23 23-23 25 0 31 33l28 142q2 10 2 16z" horiz-adv-x="323" vert-adv-y="1000"/><glyph glyph-name="uni2074" unicode="⁴" d="M348 441l-19-99h-26l-11-57H188l12 57H27l18 99 187 271h122L166 441h52l9 42h104l-9-42h26z" horiz-adv-x="323" vert-adv-y="1000"/><glyph glyph-name="uni2075" unicode="⁵" d="M380 712l-20-101H200l-9-48q18 11 45 11 51 0 78-31t27-74q0-22-3-37-13-73-50-110-42-40-110-40-52 0-86.5 30.5T57 393q0 18 2 29h106q-1-6-1-13 0-27 24-27 25 0 36 50 3 15 3 22 0 27-24 27-23 0-33-26H68l52 257h260z" horiz-adv-x="323" vert-adv-y="1000"/><glyph glyph-name="uni2076" unicode="⁶" d="M339 432q0-65-41-108t-113-43q-67 0-101.5 38T49 403q0 34 12 61.5t42 71.5l116 176h123L228 545q7 1 17 1 40 0 67-30.5t27-83.5m-111-4q0 31-31 31-17 0-27-12.5T160 413q0-32 30-32 17 0 27.5 13t10.5 34z" horiz-adv-x="323" vert-adv-y="1000"/><glyph glyph-name="uni2077" unicode="⁷" d="M396 712l-20-99-182-328H83l183 328h-92l-13-67H64l33 166h299z" horiz-adv-x="323" vert-adv-y="1000"/><glyph glyph-name="uni2078" unicode="⁸" d="M366 592q0-29-17-55.5T309 495q28-34 28-70 0-65-42-104.5T182 281q-60 0-96.5 30.5T49 402q0 70 62 109-27 32-27 75 0 53 41.5 91.5T234 716q59 0 95.5-33.5T366 592m-110-5q0 13-7.5 21.5T229 617q-15 0-25-10.5T194 578q0-13 7.5-21.5T221 548q15 0 25 10.5t10 28.5m-30-165q0 14-8 23.5t-21 9.5q-16 0-26.5-11.5T160 413q0-14 8-23.5t21-9.5q16 0 26.5 11.5T226 422z" horiz-adv-x="323" vert-adv-y="1000"/><glyph glyph-name="uni2079" unicode="⁹" d="M370 595q0-34-12-62t-42-72L200 285H76l115 167q-7-1-17-1-41 0-67.5 30.5T80 565q0 66 41 108.5T233 716q67 0 102-37.5t35-83.5m-111-11q0 33-30 33-18 0-28-13t-10-34q0-33 30-33 18 0 28 13t10 34z" horiz-adv-x="323" vert-adv-y="1000"/><glyph glyph-name="uni2080" unicode="₀" d="M276 168q0-18-3-31L243-16q-14-71-55.5-104.5T89-154q-59 0-90.5 33.5T-33-41q0 13 3 31L1 143q14 71 55.5 104.5T155 281q59 0 90-33.5t31-79.5m-112-20q0 22-23 22-24 0-31-33L82-4q-2-10-2-16 0-23 23-23 25 0 31 33l28 142q2 10 2 16z" horiz-adv-x="323" vert-adv-y="1000"/><glyph glyph-name="uni2081" unicode="₁" d="M248 277l-85-427H52l59 297L6 73l27 130 105 74h110z" horiz-adv-x="323" vert-adv-y="1000"/><glyph glyph-name="uni2082" unicode="₂" d="M275 165q0-39-20-69t-61-66L99-52h140l-19-98H-58l20 98 170 154q33 30 33 53 0 28-24 28-29 0-34-33H-3q25 131 156 131 57 0 89.5-30.5T275 165z" horiz-adv-x="323" vert-adv-y="1000"/><glyph glyph-name="uni2083" unicode="₃" d="M278 165q0-67-57-100 27-26 27-75 0-66-43-105T94-154q-64 0-97 28.5T-36-53q0 19 3 36H75q-6-38 25-38 17 0 27 12.5T137-11q0 33-27 33H97l18 93h11q22 0 31.5 14t9.5 28q0 26-22 26-13 0-23-9t-11-25H0q21 132 159 132 53 0 86-32t33-84z" horiz-adv-x="323" vert-adv-y="1000"/><glyph glyph-name="uni2084" unicode="₄" d="M261 6l-19-99h-26l-11-57H101l12 57H-60l18 99 187 271h122L79 6h52l9 42h104l-9-42h26z" horiz-adv-x="323" vert-adv-y="1000"/><glyph glyph-name="uni2085" unicode="₅" d="M293 277l-20-101H113l-9-48q18 11 45 11 51 0 78-31t27-74q0-22-3-37-13-73-50-110-42-40-110-40-52 0-86.5 30.5T-30-42q0 18 2 29H78q-1-6-1-13 0-27 24-27 25 0 36 50 3 15 3 22 0 27-24 27-23 0-33-26H-19l52 257h260z" horiz-adv-x="323" vert-adv-y="1000"/><glyph glyph-name="uni2086" unicode="₆" d="M252-3q0-65-41-108T98-154q-67 0-101.5 38T-38-32q0 34 12 61.5T16 101l116 176h123L141 110q7 1 17 1 40 0 67-30.5T252-3M141-7q0 31-31 31-17 0-27-12.5T73-22q0-32 30-32 17 0 27.5 13T141-7z" horiz-adv-x="323" vert-adv-y="1000"/><glyph glyph-name="uni2087" unicode="₇" d="M309 277l-20-99-182-328H-4l183 328H87l-13-67h-97l33 166h299z" horiz-adv-x="323" vert-adv-y="1000"/><glyph glyph-name="uni2088" unicode="₈" d="M279 157q0-29-17-55.5T222 60q28-34 28-70 0-65-42-104.5T95-154q-60 0-96.5 30.5T-38-33q0 70 62 109-27 32-27 75 0 53 41.5 91.5T147 281q59 0 95.5-33.5T279 157m-110-5q0 13-7.5 21.5T142 182q-15 0-25-10.5T107 143q0-13 7.5-21.5T134 113q15 0 25 10.5t10 28.5M139-13q0 14-8 23.5T110 20Q94 20 83.5 8.5T73-22q0-14 8-23.5t21-9.5q16 0 26.5 11.5T139-13z" horiz-adv-x="323" vert-adv-y="1000"/><glyph glyph-name="uni2089" unicode="₉" d="M284 160q0-34-12-62t-42-72L114-150H-10L105 17q-7-1-17-1-41 0-67.5 30.5T-6 130q0 66 41 108.5T147 281q67 0 102-37.5t35-83.5m-111-11q0 33-30 33-18 0-28-13t-10-34q0-33 30-33 18 0 28 13t10 34z" horiz-adv-x="323" vert-adv-y="1000"/><glyph glyph-name="uni20AC" unicode="€" d="M651 491H485q-2 81-69 81-41 0-72-31-19-19-31-57h105l-19-96H288l-13-62h111l-19-96H262v-14q0-36 19.5-56t52.5-20q68 0 100 81h171Q567 107 493 50.5T321-6Q214-6 154 55T94 202q0 14 2 28H24l19 96h67l12 62H56l19 96h69q28 100 79 151 82 83 204 83 110 0 167-64t57-163z" horiz-adv-x="654" vert-adv-y="1000"/><glyph glyph-name="uni20B4" unicode="₴" d="M672 481l-18-90h-67q-35-35-115-62h170l-18-90H242q-13-16-13-38 0-29 26-45.5t74-16.5q87 0 147 47l9 7 92-109-8-7Q471-5 307-5 196-5 129.5 46T63 179q0 37 5 60H24l18 90h74q35 32 115 62H54l18 90h389q12 13 12 33 0 29-24 46t-73 17q-77 0-134-48l-91 107q52 44 109 63t133 19q113 0 177.5-49.5T635 535q0-33-4-54h41z" horiz-adv-x="665" vert-adv-y="1000"/><glyph glyph-name="uni2116" unicode="№" d="M646 712L501 0H366L248 389 169 0H13l145 712h135l118-389 79 389h156m203-131q0 36-33 36-17 0-29-13-16-19-27-73-6-30-6-50 0-36 33-36 17 0 29 13 16 19 27 73 6 30 6 50m109 15q0-30-7-65-20-101-63-144t-116-43q-52 0-89.5 31.5T645 466q0 30 7 65 20 101 63 144t116 43q52 0 89.5-31.5T958 596m-53-286l-23-112H597l23 112h285z" horiz-adv-x="936" vert-adv-y="1000"/><glyph glyph-name="uni2122" unicode="™" d="M950 712l-84-427H754l44 219-89-125h-94l-40 125-44-219H420l84 427h109l69-210 155 210h113m-505 0l-19-99h-98l-66-328H152l66 328H116l20 99h309z" horiz-adv-x="924" vert-adv-y="1000"/><glyph glyph-name="uni2126" unicode="Ω" d="M600 510q0-50-21-154-22-110-47-155-18-33-41-54h51L512 0H286l26 128q25 11 37 27 17 23 30 62t31 129q22 109 22 149 0 39-19.5 57.5T366 571q-46 0-76-33t-62-192q-22-113-22-152 0-44 33-66L214 0H-2l29 147h50q-24 43-24 102 0 50 11 107 16 77 26 116.5t31.5 86Q143 605 174 636q40 40 94.5 61T376 718q105 0 164.5-61T600 510z" horiz-adv-x="608" vert-adv-y="1000"/><glyph glyph-name="uni2150" unicode="⅐" d="M335 712l-85-427H139l59 297-105-74 27 130 105 74h110m406 0L277 0H154l464 712h123m135-285l-20-99L674 0H563l183 328h-92l-13-67h-97l33 166h299z" horiz-adv-x="859" vert-adv-y="1000"/><glyph glyph-name="uni2151" unicode="⅑" d="M335 712l-85-427H139l59 297-105-74 27 130 105 74h110m406 0L277 0H154l464 712h123m108-402q0-34-12-62t-42-72L679 0H555l115 167q-7-1-17-1-41 0-67.5 30.5T559 280q0 66 41 108.5T712 431q67 0 102-37.5t35-83.5m-111-11q0 33-30 33-18 0-28-13t-10-34q0-33 30-33 18 0 28 13t10 34z" horiz-adv-x="859" vert-adv-y="1000"/><glyph glyph-name="uni2152" unicode="⅒" d="M335 712l-85-427H139l59 297-105-74 27 130 105 74h110m406 0L277 0H154l464 712h123m74-285L730 0H619l59 297-105-74 27 130 105 74h110m350-109q0-18-3-31l-30-153q-14-71-55.5-104.5T978-4q-59 0-90.5 33.5T856 109q0 13 3 31l31 153q14 71 55.5 104.5T1044 431q59 0 90-33.5t31-79.5m-112-20q0 22-23 22-24 0-31-33l-28-141q-2-10-2-16 0-23 23-23 25 0 31 33l28 142q2 10 2 16z" horiz-adv-x="1182" vert-adv-y="1000"/><glyph glyph-name="uni2153" unicode="⅓" d="M335 712l-85-427H139l59 297-105-74 27 130 105 74h110m406 0L277 0H154l464 712h123m104-396q0-67-57-100 27-25 27-75 0-66-43.5-105T661-3q-64 0-97 28.5T531 98q0 20 3 36h108q-6-38 25-38 17 0 27 12.5t10 31.5q0 33-27 33h-13l18 93h11q22 0 31.5 14t9.5 28q0 26-22 26-13 0-23-9t-11-25H567q21 132 159 132 53 0 86-32t33-84z" horiz-adv-x="859" vert-adv-y="1000"/><glyph glyph-name="uni2154" unicode="⅔" d="M362 600q0-39-20-69t-61-66l-95-82h140l-19-98H29l20 98 170 154q33 30 33 53 0 28-24 28-28 0-34-33H84q25 131 156 131 57 0 89.5-30.5T362 600m379 112L277 0H154l464 712h123m104-396q0-67-57-100 27-25 27-75 0-66-43.5-105T661-3q-64 0-97 28.5T531 98q0 20 3 36h108q-6-38 25-38 17 0 27 12.5t10 31.5q0 33-27 33h-13l18 93h11q22 0 31.5 14t9.5 28q0 26-22 26-13 0-23-9t-11-25H567q21 132 159 132 53 0 86-32t33-84z" horiz-adv-x="859" vert-adv-y="1000"/><glyph glyph-name="uni2155" unicode="⅕" d="M335 712l-85-427H139l59 297-105-74 27 130 105 74h110m406 0L277 0H154l464 712h123m118-285l-20-101H679l-9-48q18 11 45 11 51 0 78-31t27-74q0-22-3-37-13-73-50-110Q725-3 657-3q-52 0-86.5 30.5T536 108q0 18 2 29h106q-1-6-1-13 0-27 24-27 25 0 36 50 3 15 3 22 0 27-24 27-23 0-33-26H547l52 257h260z" horiz-adv-x="859" vert-adv-y="1000"/><glyph glyph-name="uni2156" unicode="⅖" d="M362 600q0-39-20-69t-61-66l-95-82h140l-19-98H29l20 98 170 154q33 30 33 53 0 28-24 28-28 0-34-33H84q25 131 156 131 57 0 89.5-30.5T362 600m379 112L277 0H154l464 712h123m118-285l-20-101H679l-9-48q18 11 45 11 51 0 78-31t27-74q0-22-3-37-13-73-50-110Q725-3 657-3q-52 0-86.5 30.5T536 108q0 18 2 29h106q-1-6-1-13 0-27 24-27 25 0 36 50 3 15 3 22 0 27-24 27-23 0-33-26H547l52 257h260z" horiz-adv-x="859" vert-adv-y="1000"/><glyph glyph-name="uni2157" unicode="⅗" d="M366 600q0-67-57-100 27-26 27-75 0-66-43-105t-111-39q-64 0-97 28.5T52 382q0 20 3 36h108q-6-38 25-38 17 0 27 12.5t10 31.5q0 33-27 33h-13l18 93h11q22 0 31.5 14t9.5 28q0 26-22 26-13 0-23-9t-11-25H88q21 132 159 132 53 0 86-32t33-84m375 112L277 0H154l464 712h123m118-285l-20-101H679l-9-48q18 11 45 11 51 0 78-31t27-74q0-22-3-37-13-73-50-110Q725-3 657-3q-52 0-86.5 30.5T536 108q0 18 2 29h106q-1-6-1-13 0-27 24-27 25 0 36 50 3 15 3 22 0 27-24 27-23 0-33-26H547l52 257h260z" horiz-adv-x="859" vert-adv-y="1000"/><glyph glyph-name="uni2158" unicode="⅘" d="M348 441l-19-99h-26l-11-57H188l12 57H27l18 99 187 271h122L166 441h52l9 42h104l-9-42h26m393 271L277 0H154l464 712h123m118-285l-20-101H679l-9-48q18 11 45 11 51 0 78-31t27-74q0-22-3-37-13-73-50-110Q725-3 657-3q-52 0-86.5 30.5T536 108q0 18 2 29h106q-1-6-1-13 0-27 24-27 25 0 36 50 3 15 3 22 0 27-24 27-23 0-33-26H547l52 257h260z" horiz-adv-x="859" vert-adv-y="1000"/><glyph glyph-name="uni2159" unicode="⅙" d="M335 712l-85-427H139l59 297-105-74 27 130 105 74h110m406 0L277 0H154l464 712h123m77-565q0-65-41-108T664-4q-67 0-101.5 38T528 118q0 34 12 61.5t42 71.5l116 176h123L707 260q7 1 17 1 40 0 67-30.5t27-83.5m-111-4q0 31-31 31-17 0-27-12.5T639 128q0-32 30-32 17 0 27.5 13t10.5 34z" horiz-adv-x="859" vert-adv-y="1000"/><glyph glyph-name="uni215A" unicode="⅚" d="M380 712l-20-101H200l-9-48q18 11 45 11 51 0 78-31t27-74q0-22-3-37-13-73-50-110-42-40-110-40-52 0-86.5 30.5T57 393q0 18 2 29h106q-1-6-1-13 0-27 24-27 25 0 36 50 3 15 3 22 0 27-24 27-23 0-33-26H68l52 257h260m361 0L277 0H154l464 712h123m77-565q0-65-41-108T664-4q-67 0-101.5 38T528 118q0 34 12 61.5t42 71.5l116 176h123L707 260q7 1 17 1 40 0 67-30.5t27-83.5m-111-4q0 31-31 31-17 0-27-12.5T639 128q0-32 30-32 17 0 27.5 13t10.5 34z" horiz-adv-x="859" vert-adv-y="1000"/><glyph glyph-name="uni215B" unicode="⅛" d="M335 712l-85-427H139l59 297-105-74 27 130 105 74h110m406 0L277 0H154l464 712h123m104-405q0-29-17-55.5T788 210q28-34 28-70 0-65-42-104.5T661-4q-60 0-96.5 30.5T528 117q0 70 62 109-27 32-27 75 0 53 41.5 91.5T713 431q59 0 95.5-33.5T845 307m-110-5q0 13-7.5 21.5T708 332q-15 0-25-10.5T673 293q0-13 7.5-21.5T700 263q15 0 25 10.5t10 28.5m-30-165q0 14-8 23.5t-21 9.5q-16 0-26.5-11.5T639 128q0-14 8-23.5t21-9.5q16 0 26.5 11.5T705 137z" horiz-adv-x="859" vert-adv-y="1000"/><glyph glyph-name="uni215C" unicode="⅜" d="M366 600q0-67-57-100 27-26 27-75 0-66-43-105t-111-39q-64 0-97 28.5T52 382q0 20 3 36h108q-6-38 25-38 17 0 27 12.5t10 31.5q0 33-27 33h-13l18 93h11q22 0 31.5 14t9.5 28q0 26-22 26-13 0-23-9t-11-25H88q21 132 159 132 53 0 86-32t33-84m375 112L277 0H154l464 712h123m104-405q0-29-17-55.5T788 210q28-34 28-70 0-65-42-104.5T661-4q-60 0-96.5 30.5T528 117q0 70 62 109-27 32-27 75 0 53 41.5 91.5T713 431q59 0 95.5-33.5T845 307m-110-5q0 13-7.5 21.5T708 332q-15 0-25-10.5T673 293q0-13 7.5-21.5T700 263q15 0 25 10.5t10 28.5m-30-165q0 14-8 23.5t-21 9.5q-16 0-26.5-11.5T639 128q0-14 8-23.5t21-9.5q16 0 26.5 11.5T705 137z" horiz-adv-x="859" vert-adv-y="1000"/><glyph glyph-name="uni215D" unicode="⅝" d="M380 712l-20-101H200l-9-48q18 11 45 11 51 0 78-31t27-74q0-22-3-37-13-73-50-110-42-40-110-40-52 0-86.5 30.5T57 393q0 18 2 29h106q-1-6-1-13 0-27 24-27 25 0 36 50 3 15 3 22 0 27-24 27-23 0-33-26H68l52 257h260m361 0L277 0H154l464 712h123m104-405q0-29-17-55.5T788 210q28-34 28-70 0-65-42-104.5T661-4q-60 0-96.5 30.5T528 117q0 70 62 109-27 32-27 75 0 53 41.5 91.5T713 431q59 0 95.5-33.5T845 307m-110-5q0 13-7.5 21.5T708 332q-15 0-25-10.5T673 293q0-13 7.5-21.5T700 263q15 0 25 10.5t10 28.5m-30-165q0 14-8 23.5t-21 9.5q-16 0-26.5-11.5T639 128q0-14 8-23.5t21-9.5q16 0 26.5 11.5T705 137z" horiz-adv-x="859" vert-adv-y="1000"/><glyph glyph-name="uni215E" unicode="⅞" d="M396 712l-20-99-182-328H83l183 328h-92l-13-67H64l33 166h299m345 0L277 0H154l464 712h123m104-405q0-29-17-55.5T788 210q28-34 28-70 0-65-42-104.5T661-4q-60 0-96.5 30.5T528 117q0 70 62 109-27 32-27 75 0 53 41.5 91.5T713 431q59 0 95.5-33.5T845 307m-110-5q0 13-7.5 21.5T708 332q-15 0-25-10.5T673 293q0-13 7.5-21.5T700 263q15 0 25 10.5t10 28.5m-30-165q0 14-8 23.5t-21 9.5q-16 0-26.5-11.5T639 128q0-14 8-23.5t21-9.5q16 0 26.5 11.5T705 137z" horiz-adv-x="859" vert-adv-y="1000"/><glyph glyph-name="uni215F" unicode="⅟" d="M335 712l-85-427H139l59 297-105-74 27 130 105 74h110m406 0L277 0H154l464 712h123z" horiz-adv-x="536" vert-adv-y="1000"/><glyph glyph-name="uni2189" unicode="↉" d="M363 603q0-18-3-31l-30-153q-14-71-55.5-104.5T176 281q-59 0-90.5 33.5T54 394q0 13 3 31l31 153q14 71 55.5 104.5T242 716q59 0 90-33.5t31-79.5m-112-20q0 22-23 22-24 0-31-33l-28-141q-2-10-2-16 0-23 23-23 25 0 31 33l28 142q2 10 2 16m490 129L277 0H154l464 712h123m104-396q0-67-57-100 27-25 27-75 0-66-43.5-105T661-3q-64 0-97 28.5T531 98q0 20 3 36h108q-6-38 25-38 17 0 27 12.5t10 31.5q0 33-27 33h-13l18 93h11q22 0 31.5 14t9.5 28q0 26-22 26-13 0-23-9t-11-25H567q21 132 159 132 53 0 86-32t33-84z" horiz-adv-x="859" vert-adv-y="1000"/><glyph glyph-name="uni2190" unicode="←" d="M978 218H324L628-82H423L46 295l377 377h205L324 372h654V218z" horiz-adv-x="1027" vert-adv-y="1000"/><glyph glyph-name="uni2191" unicode="↑" d="M890 180L590 484v-655H436v655L136 180v205l377 377 377-377V180z" horiz-adv-x="1027" vert-adv-y="1000"/><glyph glyph-name="uni2192" unicode="→" d="M980 295L603-82H398l304 300H47v154h655L398 672h205l377-377z" horiz-adv-x="1027" vert-adv-y="1000"/><glyph glyph-name="uni2193" unicode="↓" d="M889 206L512-171 135 206v205l300-304v654h154V107l300 304V206z" horiz-adv-x="1027" vert-adv-y="1000"/><glyph glyph-name="uni2196" unicode="↖" d="M885-8L776-117 313 346l2-428L170 63v535h535l145-145-428 2L885-8z" horiz-adv-x="1027" vert-adv-y="1000"/><glyph glyph-name="uni2197" unicode="↗" d="M853 65L708-80l3 427-463-463L139-7l463 463-427-3 145 145h533V65z" horiz-adv-x="1027" vert-adv-y="1000"/><glyph glyph-name="uni2198" unicode="↘" d="M815-62H282L137 83l427-3-463 463 109 109 463-463-3 427 145-145V-62z" horiz-adv-x="1027" vert-adv-y="1000"/><glyph glyph-name="uni2199" unicode="↙" d="M888 83L743-62H210v533l145 145-3-427 463 463 109-109L461 80l427 3z" horiz-adv-x="1027" vert-adv-y="1000"/><glyph glyph-name="uni2202" unicode="∂" d="M518 530q0-31-5-61l-40-210q-15-79-32.5-124.5T389 55Q328-6 228-6 136-6 86.5 42.5T37 175q0 34 10 84 15 79 36 127.5t58 82.5q60 55 151 55 49 0 73-20 1 7 1 15 0 67-71 67-55 0-98-35l-79 104q74 63 192 63 99 0 153.5-50.5T518 530M328 335q0 48-44 48-23 0-39-14-24-20-42-110-11-59-11-76 0-48 44-48 23 0 39 14 24 20 42 110 11 59 11 76z" horiz-adv-x="533" vert-adv-y="1000"/><glyph glyph-name="uni2206" unicode="∆" d="M569 0H-53l388 712h131L569 0M392 137l-32 321-166-321h198z" horiz-adv-x="622" vert-adv-y="1000"/><glyph glyph-name="uni220F" unicode="∏" d="M677 760L491-174H325l157 789H306L148-174H-18l186 934h509z" horiz-adv-x="646" vert-adv-y="1000"/><glyph glyph-name="uni2211" unicode="∑" d="M589 760l-29-146H288l79-244-31-153L166-28h276l-29-146H-55l25 128 246 359-111 323 24 124h460z" horiz-adv-x="525" vert-adv-y="1000"/><glyph glyph-name="uni2212" unicode="−" d="M502 368l-29-146H38l29 146h435z" horiz-adv-x="528" vert-adv-y="1000"/><glyph glyph-name="uni2219" unicode="∙" d="M374.5 444.5l21.25-21.25Q417 402 417 334t-42.5-110.5Q332 181 264 181t-110.5 42.5Q111 266 111 334t42.5 110.5Q196 487 264 487t110.5-42.5z" horiz-adv-x="528" vert-adv-y="1000"/><glyph glyph-name="uni221A" unicode="√" d="M654 712l-29-146h-84L250 0H118L54 538h163l22-244 202 418h213z" horiz-adv-x="585" vert-adv-y="1000"/><glyph glyph-name="uni221E" unicode="∞" d="M742 436l25.5-27.5Q793 381 793 295t-51-141q-51-55-147-55-94 0-173 84-79-84-173-84-96 0-147 55T51 295q0 86 51 141t147 55q94 0 173-84 79 84 173 84 96 0 147-55M318 290q-13 16-21 24.5T275.5 331q-13.5 8-26.5 8-20 0-34-13t-14-36q0-23 14-36t34-13q13 0 26.5 8t21.5 16.5q8 8.5 21 24.5m311-36l7 6.5q7 6.5 7 29.5t-14 36q-14 13-34 13-13 0-26.5-8T547 314.5q-8-8.5-21-24.5 13-16 21-24.5t21.5-16.5q13.5-8 26.5-8 20 0 34 13z" horiz-adv-x="832" vert-adv-y="1000"/><glyph glyph-name="uni222B" unicode="∫" d="M552 722l-26-131h-47q-36 0-54-15.5T400 526L302 38q-10-52-28.5-90t-40-60Q212-134 182-146.5T124-163q-28-4-65-4h-75L10-36h47q36 0 54 15.5T136 29l98 488q10 52 28.5 90t40 60q21.5 22 51.5 34.5t58 16.5q28 4 65 4h75z" horiz-adv-x="532" vert-adv-y="1000"/><glyph glyph-name="uni2248" unicode="≈" d="M616 398q-91-85-192-85-58 0-111 32-41 25-79 25-56 0-97-41L56 434q91 85 192 85 58 0 111-32 41-25 79-25 56 0 97 41l81-105m-47-244q-91-85-192-85-58 0-111 32-41 25-79 25-56 0-97-41L9 190q91 85 192 85 58 0 111-32 41-25 79-25 56 0 97 41l81-105z" horiz-adv-x="614" vert-adv-y="1000"/><glyph glyph-name="uni2260" unicode="≠" d="M615 556l-61-70h51l-30-146H425l-80-90h213l-29-146H217L87-44 4 34l61 70H14l30 146h150l80 90H60l30 146h312l130 148 83-78z" horiz-adv-x="608" vert-adv-y="1000"/><glyph glyph-name="uni2264" unicode="≤" d="M566 718l-34-171-266-101 228-110-32-159L65 394l26 127 475 197M448 93L418-58 21 159l30 151L448 93z" horiz-adv-x="528" vert-adv-y="1000"/><glyph glyph-name="uni2265" unicode="≥" d="M531 507l-26-127L30 183l34 171 265 100-227 111 32 159 397-217m-39-211l-32-163L-15-64 17 99l475 197z" horiz-adv-x="528" vert-adv-y="1000"/><glyph glyph-name="uni22C5" unicode="⋅" d="M366 381l-34-172H161l34 172h171z" horiz-adv-x="528" vert-adv-y="1000"/><glyph glyph-name="uni25CA" unicode="◊" d="M569 315L253-34 61 353l315 349 193-387m-173 19l-58 118-104-118 57-118 105 118z" horiz-adv-x="597" vert-adv-y="1000"/><glyph glyph-name="uniFB01" unicode="ﬁ" d="M407 723l-26-131h-49q-36 0-44-40l-7-37h85l-24-120h-85L178 0H22l79 395H54l24 120h47l11 55q30 153 186 153h85m184-208L488 0H332l103 515h156m39 197l-24-121H450l24 121h156z" horiz-adv-x="601" vert-adv-y="1000"/><glyph glyph-name="uniFB02" unicode="ﬂ" d="M407 723l-26-131h-49q-36 0-44-40l-7-37h85l-24-120h-85L178 0H22l79 395H54l24 120h47l11 55q30 153 186 153h85m223-11L522 170q-2-12-2-15 0-23 29-23h57L579 0h-77q-65 0-102.5 35.5T362 125q0 24 4 44l108 543h156z" horiz-adv-x="659" vert-adv-y="1000"/></font>
</defs>
</svg>
