<svg><defs><font id="DINPro-BoldItalic" horiz-adv-x="1162" vert-adv-y="1162"><font-face font-family="DIN Pro Bold" font-weight="400" ascent="1005" descent="-201"/><glyph glyph-name="uni21" unicode="!" d="M348 712L222 222h-93l66 490h153M225 133L199 0H68l26 133h131z" horiz-adv-x="330" vert-adv-y="1000"/><glyph glyph-name="uni22" unicode="&quot;" d="M468 712l-43-211H309l43 211h116m-196 0l-42-211H114l42 211h116z" horiz-adv-x="441" vert-adv-y="1000"/><glyph glyph-name="uni23" unicode="#" d="M675 538l-23-114h-82l-41-116h70l-23-114h-87L421 0H289l68 194H243L175 0H43l68 194H44l23 114h84l41 116h-71l23 114h87l63 180h132l-63-180h114l63 180h132l-63-180h66M437 424H323l-41-116h114l41 116z" horiz-adv-x="666" vert-adv-y="1000"/><glyph glyph-name="uni24" unicode="$" d="M608 630l-93-81q-40 49-114 52l-35-185 26-7q86-21 123.5-64T553 230q0-48-15.5-87.5t-40-65.5Q473 51 439 32.5t-68-27Q337-3 300-6l-21-108h-96L203-4Q134 0 86 23T-3 93l96 85q53-63 145-66l37 192-29 8Q94 352 94 478q0 97 65.5 164T339 718l18 88h96l-17-91q113-11 172-85M421 213q0 37-19 53.5T343 292l-34-181q50 8 81 35.5t31 66.5m-90 389q-45-6-75-36.5T226 495q0-50 72-67l33 174z" horiz-adv-x="594" vert-adv-y="1000"/><glyph glyph-name="uni25" unicode="%" d="M763 257q0-17-3-32l-18-95Q716-6 586-6q-51 0-86 28t-35 82q0 17 3 32l18 95q26 136 156 136 51 0 86-28t35-82m-90-11q0 41-41 41-46 0-57-58l-18-93q-2-10-2-21 0-41 41-41 46 0 57 58l18 93q2 10 2 21m37 466L247 0H147l463 712h100M392 608q0-17-3-32l-18-95q-26-136-156-136-51 0-86 28t-35 82q0 17 3 32l18 95q26 136 156 136 51 0 86-28t35-82m-90-11q0 41-41 41-46 0-57-58l-18-93q-2-10-2-21 0-41 41-41 46 0 57 58l18 93q2 10 2 21z" horiz-adv-x="816" vert-adv-y="1000"/><glyph glyph-name="uni26" unicode="&amp;" d="M638 365q-27-131-116-220L617 0H466l-39 61Q343-6 236-6 155-6 99 37T43 171q0 84 42 136t125 103l-4 6q-40 67-40 118 0 30 10 60t31.5 59q21.5 29 63.5 47t98 18q49 0 83.5-15.5T502 662q15-25 21-47.5t6-45.5q0-84-99-148l-57-37 87-141q42 44 60 122h118M368 154L263 322q-96-58-96-133 0-37 23.5-60.5T251 105q60 0 117 49m42 410q0 23-13 36t-34 13q-35 0-53-23.5T292 535q0-26 27-68l32 20q59 37 59 77z" horiz-adv-x="690" vert-adv-y="1000"/><glyph glyph-name="uni27" unicode="'" d="M273 712l-42-211H114l42 211h117z" horiz-adv-x="246" vert-adv-y="1000"/><glyph glyph-name="uni28" unicode="(" d="M358 714q-46-40-63-62-23-32-32-79l-85-424q-8-40-8-60 0-43 48-100l-94-83Q78-38 62-1.5T46 76q0 25 10 77l85 426q18 86 46 126 31 43 101 101l70-92z" horiz-adv-x="319" vert-adv-y="1000"/><glyph glyph-name="uni29" unicode=")" d="M313 636q0-25-10-77l-85-426Q200 47 172 7 141-36 71-94L1-2q46 40 63 62 23 32 32 79l85 424q8 42 8 60 0 43-48 100l94 83q46-56 62-92.5t16-77.5z" horiz-adv-x="319" vert-adv-y="1000"/><glyph glyph-name="uni2a" unicode="*" d="M479 538l-116-35 93-76-57-64-86 83-20-119-84 16 28 118-112-43-28 80 116 35-94 76 57 64 87-82 19 118 84-16-27-118 111 43 29-80z" horiz-adv-x="470" vert-adv-y="1000"/><glyph glyph-name="uni2b" unicode="+" d="M485 343l-23-115H309L277 64H161l33 164H42l23 115h152l33 164h115l-33-164h153z" horiz-adv-x="516" vert-adv-y="1000"/><glyph glyph-name="uni2c" unicode="," d="M184 142L145-55-12-165l62 307h134z" horiz-adv-x="271" vert-adv-y="1000"/><glyph glyph-name="uni2d" unicode="-" d="M367 343l-23-115H51l23 115h293z" horiz-adv-x="405" vert-adv-y="1000"/><glyph glyph-name="uni2e" unicode="." d="M184 148L155 0H14l30 148h140z" horiz-adv-x="271" vert-adv-y="1000"/><glyph glyph-name="uni2f" unicode="/" d="M496 786L54-74H-66l443 860h119z" horiz-adv-x="385" vert-adv-y="1000"/><glyph glyph-name="uni30" unicode="0" d="M517 547q0-24-5-49l-57-290Q433 95 367 44.5T218-6Q138-6 89 41.5T40 165q0 24 5 49l58 290q22 113 88 163.5T340 718q80 0 128.5-47.5T517 547m-123-9q0 35-19 52t-46 17q-83 0-103-99l-58-299q-5-27-5-35 0-35 19-52t46-17q83 0 103 99l59 299q4 22 4 35z" horiz-adv-x="516" vert-adv-y="1000"/><glyph glyph-name="uni31" unicode="1" d="M451 712L309 0H185l114 570-162-117 28 143 162 116h124z" horiz-adv-x="516" vert-adv-y="1000"/><glyph glyph-name="uni32" unicode="2" d="M519 541q0-41-17.5-80t-33-57.5Q453 385 422 354L184 111h262L423 0H3l23 111 308 313q33 34 46.5 57t13.5 54q0 34-18 53t-50 19q-81 0-103-93H98q18 101 80 152.5T339 718q84 0 132-46.5T519 541z" horiz-adv-x="516" vert-adv-y="1000"/><glyph glyph-name="uni33" unicode="3" d="M511 549q0-130-109-185 64-36 64-127 0-102-68.5-172.5T229-6Q136-6 81.5 40T27 163q0 17 3 36h122q-2-8-2-22 0-32 20.5-52t59.5-20q46 0 78.5 38t32.5 89q0 78-80 78h-19l21 108h20q44 0 74 36t30 81q0 34-18 53t-49 19q-35 0-63.5-23T218 520H93q23 99 86 148.5T337 718q78 0 126-48t48-121z" horiz-adv-x="516" vert-adv-y="1000"/><glyph glyph-name="uni34" unicode="4" d="M487 712L159 221h141l27 132h118l-26-132h65l-24-117h-63L376 0H258l20 104H-3l23 117 329 491h138z" horiz-adv-x="516" vert-adv-y="1000"/><glyph glyph-name="uni35" unicode="5" d="M542 712l-22-111H247l-31-158q41 33 102 33 78 0 118.5-47T477 314q0-36-7-74-24-125-83-184Q325-6 224-6 141-6 93 40.5T45 160q0 21 2 36h119q-1-7-1-20 0-71 66-71 48 0 74 35.5t38 99.5q7 40 7 58 0 73-64 73-63 0-96-59H78l80 400h384z" horiz-adv-x="516" vert-adv-y="1000"/><glyph glyph-name="uni36" unicode="6" d="M468 712L265 412q21 6 42 6 71 0 115-50.5T466 234q0-104-64-172T237-6Q137-6 86.5 51T36 183q0 51 18.5 94.5T118 390l213 322h137M342 230q0 42-21.5 65T263 318q-48 0-75.5-37.5T160 194q0-42 21-65.5t57-23.5q47 0 75.5 37.5T342 230z" horiz-adv-x="516" vert-adv-y="1000"/><glyph glyph-name="uni37" unicode="7" d="M571 712l-22-111L215 0H78l333 601H231l-22-109H91l43 220h437z" horiz-adv-x="516" vert-adv-y="1000"/><glyph glyph-name="uni38" unicode="8" d="M520 534q0-56-30.5-104T411 358q59-46 59-131 0-99-65-166T226-6Q140-6 84.5 41.5T29 180q0 63 31 114t91 81q-52 46-52 123 0 93 64.5 156.5T330 718q84 0 137-50t53-134M344 226q0 36-21 60.5T265 311q-48 0-79.5-34.5T154 190q0-36 21.5-60.5T234 105q48 0 79 34t31 87m51 305q0 32-18.5 54T324 607q-44 0-72.5-33.5T223 494q0-32 18.5-53.5T294 419q44 0 72.5 33t28.5 79z" horiz-adv-x="516" vert-adv-y="1000"/><glyph glyph-name="uni39" unicode="9" d="M522 529q0-51-18.5-94.5T440 322L226 0H90l203 300q-21-6-42-6-71 0-115 50.5T92 478q0 104 64 172t165 68q100 0 150.5-57T522 529m-124-11q0 42-21.5 65.5T319 607q-47 0-75-37.5T216 482q0-42 21.5-65t57.5-23q48 0 75.5 37.5T398 518z" horiz-adv-x="516" vert-adv-y="1000"/><glyph glyph-name="uni3a" unicode=":" d="M209 148L179 0H38l30 148h141m52 271l-29-148H91l30 148h140z" horiz-adv-x="294" vert-adv-y="1000"/><glyph glyph-name="uni3b" unicode=";" d="M205 142L166-55 8-165l62 307h135m57 277l-30-148H91l30 148h141z" horiz-adv-x="294" vert-adv-y="1000"/><glyph glyph-name="uni3c" unicode="&lt;" d="M492 532l-27-138-264-109 222-117-25-127L44 240l22 106 426 186z" horiz-adv-x="516" vert-adv-y="1000"/><glyph glyph-name="uni3d" unicode="=" d="M508 448l-23-115H63l24 115h421m-41-210l-24-115H22l24 115h421z" horiz-adv-x="516" vert-adv-y="1000"/><glyph glyph-name="uni3e" unicode="&gt;" d="M481 329l-22-106L33 38l27 138 264 109-222 117 26 127 353-200z" horiz-adv-x="516" vert-adv-y="1000"/><glyph glyph-name="uni3f" unicode="?" d="M518 559q0-86-74-166l-89-99q-22-24-28-51l-5-21H198l7 31q13 60 55 105l88 94q45 49 45 94 0 26-16 43.5T334 607q-79 0-95-83H114q17 98 81 146t158 48q68 0 116.5-43.5T518 559M312 133L286 0H155l26 133h131z" horiz-adv-x="497" vert-adv-y="1000"/><glyph glyph-name="uni40" unicode="@" d="M718 541q0-27-9-76L616 0H503l9 46Q461-6 394-6T290.5 33Q254 72 254 128q0 32 14 102 16 78 31 118.5t48 71.5q50 47 125 47 72 0 109-51l10 53q5 25 5 43 0 40-21 64-27 30-85 30H372q-67 0-104-33-38-33-52-104l-59-295q-5-22-5-44 0-27 26-57L81-11Q32 44 32 107q0 33 6 63l59 300q24 124 83 183 63 63 196 63h147q103 0 154-56 41-45 41-119M552 297q0 29-14.5 48T493 364q-44 0-68-31.5T386 230q-8-37-8-66t14.5-48Q407 97 437 97q44 0 68 31t39 102q8 37 8 67z" horiz-adv-x="722" vert-adv-y="1000"/><glyph glyph-name="uni41" unicode="A" d="M552 0H418l-15 130H162L95 0H-46l388 712h105L552 0M393 238l-34 274-143-274h177z" horiz-adv-x="607" vert-adv-y="1000"/><glyph glyph-name="uni42" unicode="B" d="M614 547q0-128-116-186 68-43 68-125 0-106-68-171T326 0H28l143 712h258q92 0 138.5-47.5T614 547M433 230q0 33-19 53t-56 20H221l-37-186h138q51 0 81 32t30 81m47 295q0 70-74 70H280l-36-175h127q54 0 81.5 32.5T480 525z" horiz-adv-x="626" vert-adv-y="1000"/><glyph glyph-name="uni43" unicode="C" d="M597 498H465q-1 47-23.5 75.5T372 602q-54 0-95-41-22-23-37.5-66.5T206 356q-20-107-20-150 0-45 26.5-70.5T281 110q49 0 82.5 30t49.5 74h136Q514 106 441 50T271-6Q171-6 112 51.5T53 196q0 61 21 160 24 120 44 178t62 103q77 81 201 81 105 0 160.5-61.5T597 498z" horiz-adv-x="592" vert-adv-y="1000"/><glyph glyph-name="uni44" unicode="D" d="M614 513q0-38-23-154-26-134-47.5-190T477 70Q404 0 281 0H28l143 712h233q94 0 152-50t58-149m-133-11q0 47-26.5 70.5T381 596H280l-96-480h100q64 0 104 39 22 22 37 63.5T459 359q22 113 22 143z" horiz-adv-x="626" vert-adv-y="1000"/><glyph glyph-name="uni45" unicode="E" d="M615 712l-23-116H280l-36-179h269l-23-116H221l-37-185h318L479 0H28l143 712h444z" horiz-adv-x="578" vert-adv-y="1000"/><glyph glyph-name="uni46" unicode="F" d="M615 712l-23-116H280l-37-186h267l-23-116H219L160 0H28l143 712h444z" horiz-adv-x="560" vert-adv-y="1000"/><glyph glyph-name="uni47" unicode="G" d="M602 495H470q-2 50-26 78.5T375 602q-55 0-96-41-24-25-38.5-67T206 356q-20-92-20-150 0-45 27-70.5t69-25.5q50 0 91.5 37T428 253l6 31H310l20 110h256l-19-102q-27-141-98-218Q392-6 272-6 168-6 110.5 52.5T53 196q0 61 21 160 27 131 46 183t62 98q77 81 201 81 106 0 162.5-62T602 495z" horiz-adv-x="616" vert-adv-y="1000"/><glyph glyph-name="uni48" unicode="H" d="M664 712L521 0H389l61 302H221L160 0H28l143 712h132l-58-294h229l58 294h132z" horiz-adv-x="651" vert-adv-y="1000"/><glyph glyph-name="uni49" unicode="I" d="M303 712L160 0H28l143 712h132z" horiz-adv-x="290" vert-adv-y="1000"/><glyph glyph-name="uni4a" unicode="J" d="M507 712l-98-487q-14-68-44.5-116.5t-69.5-72q-39-23.5-74.5-33T149-6Q30-6-30 71l95 81q33-42 87-42 42 0 78 28.5t49 94.5l96 479h132z" horiz-adv-x="485" vert-adv-y="1000"/><glyph glyph-name="uni4b" unicode="K" d="M702 712L421 415 584 0H440L315 329 202 219 159 0H28l143 712h131l-63-310 299 310h164z" horiz-adv-x="636" vert-adv-y="1000"/><glyph glyph-name="uni4c" unicode="L" d="M494 116L471 0H28l143 712h132L184 116h310z" horiz-adv-x="550" vert-adv-y="1000"/><glyph glyph-name="uni4d" unicode="M" d="M783 712L640 0H508l85 421-179-263h-89l-80 265L160 0H28l143 712h124l101-380 258 380h129z" horiz-adv-x="770" vert-adv-y="1000"/><glyph glyph-name="uni4e" unicode="N" d="M690 712L547 0H435L250 445 160 0H28l143 712h112l186-446 89 446h132z" horiz-adv-x="677" vert-adv-y="1000"/><glyph glyph-name="uni4f" unicode="O" d="M595 516q0-60-20-160-23-118-43.5-177T469 76Q393-6 268-6 168-6 110.5 52T53 196q0 60 20 160 23 118 43.5 177T179 636q76 82 201 82 100 0 157.5-58T595 516m-132-11q0 46-26.5 71.5T371 602q-56 0-95-43-21-23-36.5-66.5T205 356q-20-100-20-149 0-46 26.5-71.5T277 110q56 0 95 43 21 23 36.5 66.5T443 356q20 98 20 149z" horiz-adv-x="611" vert-adv-y="1000"/><glyph glyph-name="uni50" unicode="P" d="M615 524q0-102-70.5-175T352 276H215L160 0H28l143 712h253q89 0 140-51.5T615 524m-133-11q0 82-80 82H280l-41-202h118q60 0 92.5 37t32.5 83z" horiz-adv-x="597" vert-adv-y="1000"/><glyph glyph-name="uni51" unicode="Q" d="M595 516q0-60-20-160-22-110-39.5-165.5T484 93l48-63-79-70-50 65Q344-6 268-6 168-6 110.5 52T53 196q0 60 20 160 23 118 43.5 177T179 636q76 82 201 82 100 0 157.5-58T595 516M277 191l79 70 45-60q18 40 42 155 20 98 20 149 0 46-26.5 71.5T371 602q-56 0-95-43-21-23-36.5-66.5T205 356q-20-100-20-149 0-46 26.5-71.5T277 110q31 0 53 11l-53 70z" horiz-adv-x="611" vert-adv-y="1000"/><glyph glyph-name="uni52" unicode="R" d="M615 521q0-70-43-130.5T449 303L547 0H402l-83 288H219L160 0H28l143 712h250q101 0 147.5-54T615 521m-132-7q0 39-21.5 60T400 595H280l-40-197h120q61 0 92 36.5t31 79.5z" horiz-adv-x="625" vert-adv-y="1000"/><glyph glyph-name="uni53" unicode="S" d="M577 632l-93-81q-44 52-126 52-59 0-95.5-33T226 495q0-31 20-46t56-24l59-14q87-21 124-64.5T522 226q0-114-82-173T237-6Q153-6 97.5 16.5T-3 92l96 84q55-65 156-65 59 0 100 30t41 73q0 36-18.5 53T315 293l-59 15q-83 21-122.5 65.5T94 477q0 105 75.5 173T373 718q134 0 204-86z" horiz-adv-x="563" vert-adv-y="1000"/><glyph glyph-name="uni54" unicode="T" d="M605 712l-23-117H407L288 0H156l119 595H96l23 117h486z" horiz-adv-x="544" vert-adv-y="1000"/><glyph glyph-name="uni55" unicode="U" d="M658 712l-94-468Q539 119 461.5 56.5T279-6q-93 0-155 55.5T62 197q0 26 7 61l91 454h132l-93-462q-5-25-5-44 0-40 23.5-67.5T288 111q57 0 95 37.5T435 257l91 455h132z" horiz-adv-x="635" vert-adv-y="1000"/><glyph glyph-name="uni56" unicode="V" d="M642 712L279 0H175L94 712h130l48-472 228 472h142z" horiz-adv-x="552" vert-adv-y="1000"/><glyph glyph-name="uni57" unicode="W" d="M929 712L611 0H500l-37 438L247 0H137L95 712h136l16-455 216 455h99l35-455 192 455h140z" horiz-adv-x="846" vert-adv-y="1000"/><glyph glyph-name="uni58" unicode="X" d="M647 712L383 360 526 0H378l-88 253L110 0H-44l280 370-132 342h147l79-234 163 234h154z" horiz-adv-x="579" vert-adv-y="1000"/><glyph glyph-name="uni59" unicode="Y" d="M635 712L349 287 291 0H159l59 292L89 712h140l76-295 184 295h146z" horiz-adv-x="550" vert-adv-y="1000"/><glyph glyph-name="uni5a" unicode="Z" d="M575 712l-21-103-382-492h290L438 0H-12l22 105 379 490H114l23 117h438z" horiz-adv-x="526" vert-adv-y="1000"/><glyph glyph-name="uni5b" unicode="[" d="M421 786l-22-111H283L155 37h126L259-74H10l171 860h240z" horiz-adv-x="359" vert-adv-y="1000"/><glyph glyph-name="uni5c" unicode="\" d="M313-74H201l-98 847h113l97-847z" horiz-adv-x="378" vert-adv-y="1000"/><glyph glyph-name="uni5d" unicode="]" d="M389 786L218-74H-22L0 36h117l128 640H119l22 110h248z" horiz-adv-x="359" vert-adv-y="1000"/><glyph glyph-name="uni5e" unicode="^" d="M548 389H424l-62 198-141-198H86l236 330h122l104-330z" horiz-adv-x="581" vert-adv-y="1000"/><glyph glyph-name="uni5f" unicode="_" d="M446-91l-16-82H-86l16 82h516z" horiz-adv-x="516" vert-adv-y="1000"/><glyph glyph-name="uni60" unicode="`" d="M370 601h-91l-72 167h118l45-167z" horiz-adv-x="515" vert-adv-y="1000"/><glyph glyph-name="uni61" unicode="a" d="M469 382q0-23-5-46L396 0H277l9 46Q235-5 160-5 93-5 52 33.5T11 132q0 76 47 123 55 54 152 54h124l7 31q3 15 3 27 0 56-77 56-68 0-112-49l-64 83q68 70 193 70 76 0 130.5-34.5T469 382M317 224h-95q-41 0-65-22.5T133 144q0-49 66-49 49 0 81 32 23 23 31 66l6 31z" horiz-adv-x="509" vert-adv-y="1000"/><glyph glyph-name="uni62" unicode="b" d="M501 376q0-37-15-115-15-84-33-134t-51-83Q352-6 269-6q-85 0-121 59L138 0H18l142 712h124l-47-236q44 51 121 51 63 0 103-38t40-113m-128-32q0 72-63 72-52 0-76-37.5T194 261q-11-59-11-84 0-72 63-72 51 0 75.5 38T362 261q11 59 11 83z" horiz-adv-x="533" vert-adv-y="1000"/><glyph glyph-name="uni63" unicode="c" d="M463 455l-93-82q-32 43-72 43-42 0-74-33-40-42-55-122-7-40-7-67 0-42 19-65.5t55-23.5q47 0 91 44l69-89Q325-6 224-6 145-6 91 43T37 180q0 38 8 81 14 76 42.5 130.5T153 474q37 28 75.5 40.5T310 527q97 0 153-72z" horiz-adv-x="458" vert-adv-y="1000"/><glyph glyph-name="uni64" unicode="d" d="M555 712L413 0H293l11 50Q255-6 175-6 100-6 67 37.5T34 140q0 39 16 121 32 164 83 215t132 51q82 0 118-56l48 241h124M352 345q0 71-62 71-52 0-76-37.5T174 261q-11-59-11-84 0-72 62-72 51 0 75.5 38T341 261q11 59 11 84z" horiz-adv-x="533" vert-adv-y="1000"/><glyph glyph-name="uni65" unicode="e" d="M486 341q0-47-16-118H158q-4-24-4-37 0-40 22.5-63.5T243 99q69 0 124 53l65-82Q350-6 229-6 151-6 93.5 38.5T36 177q0 91 27.5 168.5T153 475q62 52 148 52 83 0 134-51t51-135m-118 0q0 40-20 62t-54 22q-88 0-120-119h191q3 16 3 35z" horiz-adv-x="523" vert-adv-y="1000"/><glyph glyph-name="uni66" unicode="f" d="M392 720l-21-105h-44q-47 0-57-51l-12-59h92l-19-95h-92L157 0H33l82 410H64l19 95h51l15 72q28 143 170 143h73z" horiz-adv-x="325" vert-adv-y="1000"/><glyph glyph-name="uni67" unicode="g" d="M511 521L411 20q-22-109-88.5-163T161-197q-111 0-173 71l86 75q36-41 87-41 50 0 83 30.5T288 21l11 53q-44-52-116-52-61 0-102.5 38.5T39 169q0 35 13 106 14 78 31.5 124.5T130 475q52 52 133 52 82 0 118-59l10 53h120M348 347q0 69-62 69-46 0-71-34t-39-108q-9-48-9-72 0-69 62-69 46 0 71 34t39 108q9 48 9 72z" horiz-adv-x="527" vert-adv-y="1000"/><glyph glyph-name="uni68" unicode="h" d="M501 383q0-27-7-58L429 0H305l64 317q4 22 4 34 0 32-18.5 48.5T310 416q-34 0-64-22.5T205 316L141 0H17l142 712h124l-47-232q52 47 128 47 55 0 96-36.5T501 383z" horiz-adv-x="544" vert-adv-y="1000"/><glyph glyph-name="uni69" unicode="i" d="M243 505L142 0H18l101 505h124m42 205l-21-103H137l20 103h128z" horiz-adv-x="262" vert-adv-y="1000"/><glyph glyph-name="uni6a" unicode="j" d="M243 505L133-48q-14-69-57-108t-111-39h-77l21 105h45q46 0 56 53l109 542h124m42 205l-21-103H137l20 103h128z" horiz-adv-x="262" vert-adv-y="1000"/><glyph glyph-name="uni6b" unicode="k" d="M557 521L339 304 477 0H335l-90 227-71-66L142 0H18l142 712h124l-80-403 206 212h147z" horiz-adv-x="534" vert-adv-y="1000"/><glyph glyph-name="uni6c" unicode="l" d="M280 712L169 157q-3-13-3-22 0-30 38-30h51L234 0h-68q-55 0-90 30.5T41 113q0 24 4 43l111 556h124z" horiz-adv-x="311" vert-adv-y="1000"/><glyph glyph-name="uni6d" unicode="m" d="M789 383q0-26-6-58L718 0H594l63 317q4 22 4 34 0 32-18 48.5T599 416q-34 0-64.5-22.5T493 316L430 0H306l63 317q4 22 4 34 0 32-18 48.5T312 416q-34 0-65-22.5T205 316L142 0H18l104 521h119l-10-50q54 56 137 56 75 0 113-67 63 67 163 67 58 0 101.5-37.5T789 383z" horiz-adv-x="832" vert-adv-y="1000"/><glyph glyph-name="uni6e" unicode="n" d="M501 383q0-28-7-58L429 0H305l64 317q4 24 4 34 0 32-18 48.5T311 416q-34 0-64.5-22.5T205 316L141 0H17l104 521h119l-9-50q51 56 137 56 52 0 92.5-36.5T501 383z" horiz-adv-x="544" vert-adv-y="1000"/><glyph glyph-name="uni6f" unicode="o" d="M477 355q0-37-10-94-16-81-37-127t-56-80Q311-6 214-6 141-6 89 38T37 166q0 42 11 95 16 81 37 127t56 79q62 60 160 60 72 0 124-44t52-128m-123-14q0 37-18 56t-48 19q-38 0-64-26-33-32-53-129-11-55-11-81 0-36 18-55.5t48-19.5q38 0 64 26 35 34 53 130 11 54 11 80z" horiz-adv-x="515" vert-adv-y="1000"/><glyph glyph-name="uni70" unicode="p" d="M501 383q0-43-16-122-32-165-83-216T270-6q-82 0-118 56l-48-241H-20l142 712h120l-11-50q49 56 129 56 75 0 108-43t33-101m-129-38q0 71-62 71-52 0-76-37.5T194 261q-11-59-11-84 0-72 62-72 51 0 75.5 38T361 261q11 59 11 84z" horiz-adv-x="533" vert-adv-y="1000"/><glyph glyph-name="uni71" unicode="q" d="M517 521L375-191H251l46 237Q252-6 176-6 113-6 73.5 32T34 146q0 37 15 115 15 84 33 134t51 83q49 49 133 49t120-59l11 53h120M351 344q0 72-62 72-52 0-76-37.5T173 261q-11-59-11-84 0-72 62-72 51 0 75.5 38T340 261q11 59 11 83z" horiz-adv-x="533" vert-adv-y="1000"/><glyph glyph-name="uni72" unicode="r" d="M474 478l-107-95q-24 32-57 32-37 0-66.5-27.5T205 315L142 0H18l104 521h120l-11-51q47 57 132 57 69 0 111-49z" horiz-adv-x="430" vert-adv-y="1000"/><glyph glyph-name="uni73" unicode="s" d="M459 463l-85-75q-36 37-99 37-44 0-67.5-18.5T184 362q0-32 48-39l67-11q126-20 126-135 0-72-56-126Q311-6 188-6 59-6-13 72l89 78q43-50 120-50 50 0 78 19.5t28 45.5q0 35-49 43l-68 11q-66 11-95.5 43.5T60 337q0 77 53 130 60 60 173 60 110 0 173-64z" horiz-adv-x="475" vert-adv-y="1000"/><glyph glyph-name="uni74" unicode="t" d="M341 505l-19-94h-86l-51-256q-2-10-2-19 0-32 40-32h45L247 0h-64q-55 0-90.5 30.5T57 113q0 21 4 43l51 255H59l19 94h53l31 156h124l-31-156h86z" horiz-adv-x="337" vert-adv-y="1000"/><glyph glyph-name="uni75" unicode="u" d="M528 521L424 0H305l9 50Q263-6 178-6q-53 0-93.5 36.5T44 139q0 17 7 57l65 325h124l-64-317q-4-22-4-34 0-32 18-48.5t44-16.5q34 0 64.5 22.5T340 205l64 316h124z" horiz-adv-x="544" vert-adv-y="1000"/><glyph glyph-name="uni76" unicode="v" d="M518 521L233 0h-98L57 521h123l37-336 168 336h133z" horiz-adv-x="469" vert-adv-y="1000"/><glyph glyph-name="uni77" unicode="w" d="M765 521L516 0h-98l-41 331L206 0H106L57 521h124l18-325 165 325h90l38-325 142 325h131z" horiz-adv-x="719" vert-adv-y="1000"/><glyph glyph-name="uni78" unicode="x" d="M531 521L321 262 444 0H301l-65 163L115 0H-38l221 269L65 521h143l61-155 111 155h151z" horiz-adv-x="502" vert-adv-y="1000"/><glyph glyph-name="uni79" unicode="y" d="M515 521L190-84q-20-38-43-61-46-46-124-46h-48L-2-79h28q26 0 41 12.5T97-25l33 62-74 484h123l38-336 167 336h131z" horiz-adv-x="464" vert-adv-y="1000"/><glyph glyph-name="uni7a" unicode="z" d="M470 521l-19-95-279-315h223L373 0H-13L6 95l277 315H75l22 111h373z" horiz-adv-x="461" vert-adv-y="1000"/><glyph glyph-name="uni7b" unicode="{" d="M495 786l-22-111h-46q-44 0-59.5-15T343 599l-29-143q-16-81-86-98 48-23 48-78 0-14-3-29l-27-136q-5-27-5-40 0-22 13-30t44-8h57L333-74h-96q-64 0-94.5 35.5T112 45q0 17 4 37l30 147q3 15 3 27t-5 24q-13 28-51 28H51l23 110h43q32 0 54 19 19 16 28 60l28 141q16 79 58 115 39 33 112 33h98z" horiz-adv-x="435" vert-adv-y="1000"/><glyph glyph-name="uni7c" unicode="|" d="M334 786L162-74H39l171 860h124z" horiz-adv-x="333" vert-adv-y="1000"/><glyph glyph-name="uni7d" unicode="}" d="M424 404l-23-110h-43q-32 0-54-19-19-16-28-60L248 74Q232-5 190-41 151-74 78-74h-98L2 37h46q44 0 59.5 15t24.5 61l29 143q16 81 86 98-48 23-48 78 0 14 3 29l27 136q5 27 5 40 0 22-13 30t-44 8h-57l22 111h96q64 0 94.5-35.5T363 667q0-17-4-37l-30-147q-3-15-3-27t5-24q13-28 51-28h42z" horiz-adv-x="435" vert-adv-y="1000"/><glyph glyph-name="uni7e" unicode="~" d="M549 277q-84-77-169-77-52 0-107 32-41 24-76 24-47 0-94-43l-65 84q84 77 170 77 52 0 107-32 41-24 75-24 50 0 95 42l64-83z" horiz-adv-x="576" vert-adv-y="1000"/><glyph glyph-name="unia1" unicode="¡" d="M203 299l-66-490H-16l126 490h93m61 222l-26-133H107l26 133h131z" horiz-adv-x="330" vert-adv-y="1000"/><glyph glyph-name="unia2" unicode="¢" d="M507 547l-91-75q-20 34-59 42l-59-299q41 6 77 42l68-83q-36-33-70-49.5T289 101L269 0h-96l21 105q-56 14-95 66T60 299q0 121 62 218t174 110l17 85h96l-17-86q76-18 115-79m-220-33q-33-10-59-50-44-68-44-157 0-73 46-89l57 296z" horiz-adv-x="484" vert-adv-y="1000"/><glyph glyph-name="unia3" unicode="£" d="M580 643l-98-84q-27 42-81 42-104 0-129-121l-17-86h109l-19-94H237l-37-183h284L461 0H45l60 300H47l18 94h58l19 91q23 110 86.5 171.5T412 718q110 0 168-75z" horiz-adv-x="551" vert-adv-y="1000"/><glyph glyph-name="unia4" unicode="¤" d="M605 95l-80-80-72 72q-53-33-118-33-64 0-119 33l-72-72-80 80 72 72q-33 55-33 119 0 65 33 118l-72 72 80 80 72-72q55 33 119 33 65 0 118-33l72 72 80-80-72-72q33-53 33-118 0-64-33-119l72-72M420.5 200l17.75 18Q456 236 456 286t-35.5 85.5Q385 407 335 407t-86-35.5Q213 336 213 286t36-86q36-36 86-36t85.5 36z" horiz-adv-x="669" vert-adv-y="1000"/><glyph glyph-name="unia5" unicode="¥" d="M635 712L449 436h74l-19-94H386l-37-55-10-46h145l-19-94H321L291 0H159l30 147H46l19 94h142l11 51-15 50H85l18 94h70L89 712h140l76-295 184 295h146z" horiz-adv-x="550" vert-adv-y="1000"/><glyph glyph-name="unia6" unicode="¦" d="M334 786l-70-350H140l70 350h124M232 276L162-74H39l69 350h124z" horiz-adv-x="336" vert-adv-y="1000"/><glyph glyph-name="unia7" unicode="§" d="M484 575q0-12-2-24H371q5 61-57 61-36 0-56-21t-20-52q0-39 51-59l53-21q43-17 72-56t29-92q0-135-116-197 54-39 54-117 0-79-53.5-136.5T166-197q-69 0-114.5 39T6-54q0 19 1 29h115q-3-28 12.5-45.5T182-88q33 0 56.5 20T262-8q0 45-53 67l-52 21q-45 18-73 56t-28 92q0 63 30.5 116t87.5 81q-51 42-51 114t53 125.5Q229 718 326 718q75 0 116.5-40.5T484 575M328 297q0 34-18 49.5T267 362q-31 0-55-21-29-25-38-72-3-15-3-27 0-34 18.5-49.5T231 177q33 0 56 20 29 25 38 72 3 15 3 28z" horiz-adv-x="504" vert-adv-y="1000"/><glyph glyph-name="unia8" unicode="¨" d="M507 725l-24-122H377l24 122h106m-209 0l-24-122H168l24 122h106z" horiz-adv-x="514" vert-adv-y="1000"/><glyph glyph-name="unia9" unicode="©" d="M663 599l50.5-50.5Q764 498 764 356T663 113Q562 12 420 12T177 113Q76 214 76 356t101 243q101 101 243 101t243-101m-56.5-433.5l37.75 38.25Q682 242 682 356t-75.5 190.5Q531 623 420 623t-186-76.5Q159 470 159 356t75-190.5Q309 89 420 89t186.5 76.5M552 219q-55-49-124-49-74 0-122.5 49T257 356q0 88 48.5 137T428 542q67 0 124-49l-53-53q-35 30-71 30-44 0-67.5-30.5T337 356q0-53 23.5-83.5T428 242q36 0 71 30l53-53z" horiz-adv-x="801" vert-adv-y="1000"/><glyph glyph-name="uniaa" unicode="ª" d="M439 601q0-15-4-37l-54-268h-96l7 36q-37-40-101-40-53 0-85.5 31.5T73 404q0 60 40 98 42 41 119 41h99l4 24q3 15 3 22 0 44-61 44-54 0-89-38l-52 67q57 55 155 55 61 0 104.5-27.5T439 601M317 475h-76q-33 0-52-18t-19-44q0-40 54-40 39 0 64 25 17 17 24 52l5 25z" horiz-adv-x="431" vert-adv-y="1000"/><glyph glyph-name="uniab" unicode="«" d="M588 521l-33-160-111-96 73-96-27-142-189 249 287 245m-265 0l-33-160-111-96 73-96-27-142L36 276l287 245z" horiz-adv-x="597" vert-adv-y="1000"/><glyph glyph-name="uniac" unicode="¬" d="M493 359L440 95H325l30 149H42l23 115h428z" horiz-adv-x="516" vert-adv-y="1000"/><glyph glyph-name="uniad" unicode="­" d="M367 343l-23-115H51l23 115h293z" horiz-adv-x="405" vert-adv-y="1000"/><glyph glyph-name="uniae" unicode="®" d="M663 599l50.5-50.5Q764 498 764 356T663 113Q562 12 420 12T177 113Q76 214 76 356t101 243q101 101 243 101t243-101m-56.5-433.5l37.75 38.25Q682 242 682 356t-75.5 190.5Q531 623 420 623t-186.5-76.5Q158 470 158 356t75.5-190.5Q309 89 420 89t186.5 76.5M575 173h-93l-66 141h-39V173h-82v366h149q54 0 87.5-33.5T565 424q0-36-18.5-61T499 327l76-154M469.5 391l7.25 6.5Q484 404 484 424t-14.5 34Q455 472 433 472h-56v-94h56q22 0 36.5 13z" horiz-adv-x="801" vert-adv-y="1000"/><glyph glyph-name="uniaf" unicode="¯" d="M496 701l-16-82H178l17 82h301z" horiz-adv-x="508" vert-adv-y="1000"/><glyph glyph-name="unib0" unicode="°" d="M465 542q0-76-50.5-127T287 364q-77 0-127.5 51T109 542q0 77 51 128t127 51q76 0 127-51t51-128m-122-57l11.5 11.5Q366 508 366 542t-23 57q-23 23-56 23t-56-23q-23-23-23-57t23-57q23-23 56-23t56 23z" horiz-adv-x="460" vert-adv-y="1000"/><glyph glyph-name="unib1" unicode="±" d="M508 451l-23-114H332l-33-165H183l33 165H64l23 114h152l33 164h116l-33-164h153m-66-336L419 0H-2l23 115h421z" horiz-adv-x="516" vert-adv-y="1000"/><glyph glyph-name="unib2" unicode="²" d="M343 606q0-37-18.5-66T269 476L152 365h150l-16-80H24l16 80 177 169q36 35 36 65 0 37-34 37-41 0-49-46H80q24 126 148 126 55 0 85-29.5t30-80.5z" horiz-adv-x="316" vert-adv-y="1000"/><glyph glyph-name="unib3" unicode="³" d="M345 605q0-72-63-104 33-25 33-79 0-62-41-101.5T165 281q-62 0-92.5 28.5T42 379q0 23 2 32h89q-6-50 38-50 22 0 37.5 16.5T224 421q0 44-39 44h-12l16 76h9q29 0 42.5 18t13.5 40q0 18-9.5 27.5T221 636q-41 0-50-45H81q24 125 150 125 51 0 82.5-30.5T345 605z" horiz-adv-x="316" vert-adv-y="1000"/><glyph glyph-name="unib4" unicode="´" d="M501 768L371 601H271l111 167h119z" horiz-adv-x="508" vert-adv-y="1000"/><glyph glyph-name="unib5" unicode="µ" d="M531 521L427 0H308l10 50Q264-6 181-6q-25 0-40 15l-40-200H-23l142 712h124l-64-317q-3-16-3-34 0-32 18-48.5t43-16.5q34 0 65 22.5t42 77.5l63 316h124z" horiz-adv-x="548" vert-adv-y="1000"/><glyph glyph-name="unib6" unicode="¶" d="M648 712L467-191H344l157 787h-95L248-191H125l103 518q-54 4-99.5 51.5T83 503q0 86 63.5 147.5T336 712h312z" horiz-adv-x="636" vert-adv-y="1000"/><glyph glyph-name="unib7" unicode="·" d="M226 356l-28-141H57l28 141h141z" horiz-adv-x="271" vert-adv-y="1000"/><glyph glyph-name="unib8" unicode="¸" d="M257-57l-70-144H74l86 144h97z" horiz-adv-x="515" vert-adv-y="1000"/><glyph glyph-name="unib9" unicode="¹" d="M310 712l-85-427h-90l64 321-101-73 22 107 101 72h89z" horiz-adv-x="316" vert-adv-y="1000"/><glyph glyph-name="uniba" unicode="º" d="M441 580q0-38-8-76-21-114-75-165-51-48-127-48-55 0-98 35T90 430q0 36 8 74 22 115 74 165 51 48 128 48 55 0 98-34t43-103m-99-12q0 59-52 59-33 0-52-21-26-26-41-102-8-40-8-64 0-59 51-59 33 0 53 22 25 25 40 101 9 45 9 64z" horiz-adv-x="439" vert-adv-y="1000"/><glyph glyph-name="unibb" unicode="»" d="M570 273L283 27l32 160 111 96-73 97 28 141 189-248m-265 0L18 27l32 160 112 96-74 97 28 141 189-248z" horiz-adv-x="597" vert-adv-y="1000"/><glyph glyph-name="unibc" unicode="¼" d="M310 712l-85-427h-90l64 321-101-73 22 107 101 72h89m407 0L255 0H155l463 712h99m68-571l-16-81h-33L724 0h-85l12 60H481l15 81 193 286h100L595 141h71l13 66h86l-14-66h34z" horiz-adv-x="832" vert-adv-y="1000"/><glyph glyph-name="unibd" unicode="½" d="M310 712l-85-427h-90l64 321-101-73 22 107 101 72h89m407 0L255 0H155l463 712h99m87-391q0-61-68-124L611 80h151L746 0H483l17 80 177 169q36 35 36 65 0 37-34 37-41 0-49-46h-90q24 126 148 126 55 0 85.5-29.5T804 321z" horiz-adv-x="832" vert-adv-y="1000"/><glyph glyph-name="unibe" unicode="¾" d="M345 606q0-72-63-104 33-26 33-79 0-63-41-102t-109-39q-62 0-92.5 28.5T42 380q0 12 2 32h89q-6-50 38-50 22 0 37.5 16.5T224 422q0 44-39 44h-11l15 76h10q29 0 42 18t13 40q0 37-32 37-42 0-51-46H81q22 126 151 126 50 0 81.5-31t31.5-80m372 106L255 0H155l463 712h99m68-571l-16-81h-33L724 0h-85l12 60H481l15 81 193 286h100L595 141h71l13 66h86l-14-66h34z" horiz-adv-x="832" vert-adv-y="1000"/><glyph glyph-name="unibf" unicode="¿" d="M386-3q-17-98-80.5-146T148-197q-68 0-116.5 43.5T-17-38q0 87 74 167l89 98q22 24 28 51l4 22h124l-7-32q-13-61-54-105l-89-94q-44-48-44-94 0-26 16-43.5T167-86q79 0 95 83h124m-41 524l-25-133H189l26 133h130z" horiz-adv-x="497" vert-adv-y="1000"/><glyph glyph-name="unic0" unicode="À" d="M552 0H418l-15 130H162L95 0H-46l388 712h105L552 0M393 238l-34 274-143-274h177m53 540h-92l-71 168h118l45-168z" horiz-adv-x="607" vert-adv-y="1000"/><glyph glyph-name="unic1" unicode="Á" d="M552 0H418l-15 130H162L95 0H-46l388 712h105L552 0M393 238l-34 274-143-274h177m184 708L446 778h-99l110 168h120z" horiz-adv-x="607" vert-adv-y="1000"/><glyph glyph-name="unic2" unicode="Â" d="M552 0H418l-15 130H162L95 0H-46l388 712h105L552 0M393 238l-34 274-143-274h177m182 540h-92l-59 94-99-94H224l159 170h100l92-170z" horiz-adv-x="607" vert-adv-y="1000"/><glyph glyph-name="unic3" unicode="Ã" d="M552 0H418l-15 130H162L95 0H-46l388 712h105L552 0M393 238l-34 274-143-274h177m194 604q-55-52-111-52-40 0-77 22-28 17-53 17-29 0-62-31l-45 60q57 52 111 52 40 0 77-22 28-17 53-17 30 0 62 30l45-59z" horiz-adv-x="607" vert-adv-y="1000"/><glyph glyph-name="unic4" unicode="Ä" d="M552 0H418l-15 130H162L95 0H-46l388 712h105L552 0M393 238l-34 274-143-274h177m189 664l-24-122H452l24 122h106m-209 0l-24-122H243l24 122h106z" horiz-adv-x="607" vert-adv-y="1000"/><glyph glyph-name="unic5" unicode="Å" d="M552 0H418l-15 130H162L95 0H-46l388 712h105L552 0M393 238l-34 274-143-274h177m98 730.5l18.5-18.25Q528 932 528 878t-37-90.5Q454 751 402 751q-53 0-90 36.5T275 878q0 54 37 90.5t90 36.5q52 0 89-36.5M442.5 837l8.75 8.5Q460 854 460 878t-17.5 41Q425 936 402 936t-40.5-17Q344 902 344 878t17.5-41q17.5-17 40.5-17t40.5 17z" horiz-adv-x="607" vert-adv-y="1000"/><glyph glyph-name="unic6" unicode="Æ" d="M977 712l-23-115H641l-35-181h268l-23-115H582l-37-186h317L839 0H390l32 163H210L98 0H-48l496 712h529M509 596L286 273h159l64 323z" horiz-adv-x="940" vert-adv-y="1000"/><glyph glyph-name="unic7" unicode="Ç" d="M597 498H465q-1 47-23.5 75.5T372 602q-54 0-95-41-22-23-37.5-66.5T206 356q-20-107-20-150 0-45 26.5-70.5T281 110q49 0 82.5 30t49.5 74h136Q514 106 441 50T271-6Q171-6 112 51.5T53 196q0 61 21 160 24 120 44 178t62 103q77 81 201 81 105 0 160.5-61.5T597 498M316-57l-70-144H133l86 144h97z" horiz-adv-x="592" vert-adv-y="1000"/><glyph glyph-name="unic8" unicode="È" d="M615 712l-23-116H280l-36-179h269l-23-116H221l-37-185h318L479 0H28l143 712h444m-180 66h-92l-71 168h118l45-168z" horiz-adv-x="578" vert-adv-y="1000"/><glyph glyph-name="unic9" unicode="É" d="M615 712l-23-116H280l-36-179h269l-23-116H221l-37-185h318L479 0H28l143 712h444m-49 234L435 778h-99l110 168h120z" horiz-adv-x="578" vert-adv-y="1000"/><glyph glyph-name="unica" unicode="Ê" d="M615 712l-23-116H280l-36-179h269l-23-116H221l-37-185h318L479 0H28l143 712h444m-51 66h-92l-59 94-99-94H213l159 170h100l92-170z" horiz-adv-x="578" vert-adv-y="1000"/><glyph glyph-name="unicb" unicode="Ë" d="M615 712l-23-116H280l-36-179h269l-23-116H221l-37-185h318L479 0H28l143 712h444m-44 190l-24-122H441l24 122h106m-209 0l-24-122H232l24 122h106z" horiz-adv-x="578" vert-adv-y="1000"/><glyph glyph-name="unicc" unicode="Ì" d="M303 712L160 0H28l143 712h132m-1 66h-92l-71 168h118l45-168z" horiz-adv-x="290" vert-adv-y="1000"/><glyph glyph-name="unicd" unicode="Í" d="M303 712L160 0H28l143 712h132m118 234L290 778h-99l110 168h120z" horiz-adv-x="290" vert-adv-y="1000"/><glyph glyph-name="unice" unicode="Î" d="M303 712L160 0H28l143 712h132m116 66h-92l-59 94-99-94H68l159 170h100l92-170z" horiz-adv-x="290" vert-adv-y="1000"/><glyph glyph-name="unicf" unicode="Ï" d="M303 712L160 0H28l143 712h132m123 190l-24-122H296l24 122h106m-209 0l-24-122H87l24 122h106z" horiz-adv-x="290" vert-adv-y="1000"/><glyph glyph-name="unid0" unicode="Ð" d="M636 513q0-38-23-154-26-134-47.5-190T499 70Q426 0 303 0H50l62 309H46l20 100h66l61 303h233q94 0 152-50t58-149m-133-11q0 47-26.5 70.5T403 596H302l-38-187h110l-20-100H244l-39-193h100q66 0 106 39 22 21 36.5 62.5T481 359q22 113 22 143z" horiz-adv-x="648" vert-adv-y="1000"/><glyph glyph-name="unid1" unicode="Ñ" d="M690 712L547 0H435L250 445 160 0H28l143 712h112l186-446 89 446h132m-84 130q-55-52-111-52-40 0-77 22-28 17-53 17-29 0-62-31l-45 60q57 52 111 52 40 0 77-22 28-17 53-17 30 0 62 30l45-59z" horiz-adv-x="677" vert-adv-y="1000"/><glyph glyph-name="unid2" unicode="Ò" d="M595 516q0-60-20-160-23-118-43.5-177T469 76Q393-6 268-6 168-6 110.5 52T53 196q0 60 20 160 23 118 43.5 177T179 636q76 82 201 82 100 0 157.5-58T595 516m-132-11q0 46-26.5 71.5T371 602q-56 0-95-43-21-23-36.5-66.5T205 356q-20-100-20-149 0-46 26.5-71.5T277 110q56 0 95 43 21 23 36.5 66.5T443 356q20 98 20 149m-17 273h-92l-71 168h118l45-168z" horiz-adv-x="611" vert-adv-y="1000"/><glyph glyph-name="unid3" unicode="Ó" d="M595 516q0-60-20-160-23-118-43.5-177T469 76Q393-6 268-6 168-6 110.5 52T53 196q0 60 20 160 23 118 43.5 177T179 636q76 82 201 82 100 0 157.5-58T595 516m-132-11q0 46-26.5 71.5T371 602q-56 0-95-43-21-23-36.5-66.5T205 356q-20-100-20-149 0-46 26.5-71.5T277 110q56 0 95 43 21 23 36.5 66.5T443 356q20 98 20 149m114 441L446 778h-99l110 168h120z" horiz-adv-x="611" vert-adv-y="1000"/><glyph glyph-name="unid4" unicode="Ô" d="M595 516q0-60-20-160-23-118-43.5-177T469 76Q393-6 268-6 168-6 110.5 52T53 196q0 60 20 160 23 118 43.5 177T179 636q76 82 201 82 100 0 157.5-58T595 516m-132-11q0 46-26.5 71.5T371 602q-56 0-95-43-21-23-36.5-66.5T205 356q-20-100-20-149 0-46 26.5-71.5T277 110q56 0 95 43 21 23 36.5 66.5T443 356q20 98 20 149m112 273h-92l-59 94-99-94H224l159 170h100l92-170z" horiz-adv-x="611" vert-adv-y="1000"/><glyph glyph-name="unid5" unicode="Õ" d="M595 516q0-60-20-160-23-118-43.5-177T469 76Q393-6 268-6 168-6 110.5 52T53 196q0 60 20 160 23 118 43.5 177T179 636q76 82 201 82 100 0 157.5-58T595 516m-132-11q0 46-26.5 71.5T371 602q-56 0-95-43-21-23-36.5-66.5T205 356q-20-100-20-149 0-46 26.5-71.5T277 110q56 0 95 43 21 23 36.5 66.5T443 356q20 98 20 149m124 337q-55-52-111-52-40 0-77 22-28 17-53 17-29 0-62-31l-45 60q57 52 111 52 40 0 77-22 28-17 53-17 30 0 62 30l45-59z" horiz-adv-x="611" vert-adv-y="1000"/><glyph glyph-name="unid6" unicode="Ö" d="M595 516q0-60-20-160-23-118-43.5-177T469 76Q393-6 268-6 168-6 110.5 52T53 196q0 60 20 160 23 118 43.5 177T179 636q76 82 201 82 100 0 157.5-58T595 516m-132-11q0 46-26.5 71.5T371 602q-56 0-95-43-21-23-36.5-66.5T205 356q-20-100-20-149 0-46 26.5-71.5T277 110q56 0 95 43 21 23 36.5 66.5T443 356q20 98 20 149m119 397l-24-122H452l24 122h106m-209 0l-24-122H243l24 122h106z" horiz-adv-x="611" vert-adv-y="1000"/><glyph glyph-name="unid7" unicode="×" d="M504 422L342 281l107-140-90-78-106 142L91 64l-66 86 162 140L80 431l91 78 106-141 161 140 66-86z" horiz-adv-x="516" vert-adv-y="1000"/><glyph glyph-name="unid8" unicode="Ø" d="M595 516q0-60-20-160-23-118-43.5-177T469 76Q393-6 268-6q-64 0-112 25l-41-63H19L94 70q-41 53-41 126 0 60 20 160 23 118 43.5 177T179 636q76 82 201 82 63 0 114-27l42 65h96l-76-117q39-53 39-123M185 207v-5l244 381q-25 19-58 19-56 0-95-43-21-23-36.5-66.5T205 356q-20-100-20-149m278 298v3L219 128q24-18 58-18 56 0 95 43 21 23 36.5 66.5T443 356q20 98 20 149z" horiz-adv-x="611" vert-adv-y="1000"/><glyph glyph-name="unid9" unicode="Ù" d="M658 712l-94-468Q539 119 461.5 56.5T279-6q-93 0-155 55.5T62 197q0 26 7 61l91 454h132l-93-462q-5-25-5-44 0-40 23.5-67.5T288 111q57 0 95 37.5T435 257l91 455h132m-196 66h-92l-71 168h118l45-168z" horiz-adv-x="635" vert-adv-y="1000"/><glyph glyph-name="unida" unicode="Ú" d="M658 712l-94-468Q539 119 461.5 56.5T279-6q-93 0-155 55.5T62 197q0 26 7 61l91 454h132l-93-462q-5-25-5-44 0-40 23.5-67.5T288 111q57 0 95 37.5T435 257l91 455h132m-65 234L462 778h-99l110 168h120z" horiz-adv-x="635" vert-adv-y="1000"/><glyph glyph-name="unidb" unicode="Û" d="M658 712l-94-468Q539 119 461.5 56.5T279-6q-93 0-155 55.5T62 197q0 26 7 61l91 454h132l-93-462q-5-25-5-44 0-40 23.5-67.5T288 111q57 0 95 37.5T435 257l91 455h132m-66 66h-92l-59 94-99-94H241l159 170h100l92-170z" horiz-adv-x="635" vert-adv-y="1000"/><glyph glyph-name="unidc" unicode="Ü" d="M658 712l-94-468Q539 119 461.5 56.5T279-6q-93 0-155 55.5T62 197q0 26 7 61l91 454h132l-93-462q-5-25-5-44 0-40 23.5-67.5T288 111q57 0 95 37.5T435 257l91 455h132m-60 190l-24-122H468l24 122h106m-209 0l-24-122H259l24 122h106z" horiz-adv-x="635" vert-adv-y="1000"/><glyph glyph-name="unidd" unicode="Ý" d="M635 712L349 287 291 0H159l59 292L89 712h140l76-295 184 295h146m-97 234L407 778h-99l110 168h120z" horiz-adv-x="550" vert-adv-y="1000"/><glyph glyph-name="unide" unicode="Þ" d="M588 390q0-101-71-174.5T324 142H188L160 0H28l143 712h132l-27-134h120q89 0 140.5-51.5T588 390m-133-11q0 82-80 82H253l-41-202h118q60 0 92.5 37t32.5 83z" horiz-adv-x="601" vert-adv-y="1000"/><glyph glyph-name="unidf" unicode="ß" d="M551 565q0-41-21-79.5T467 425q41-25 41-76 0-13-3-28l-30-160q-16-84-60.5-122.5T291 0h-59l21 104h27q24 0 45 16 20 16 27 50l29 148q2 16 2 20 0 41-46 41h-31l20 97h29q33 0 52 23t19 54q0 24-12 37-18 21-58 21-50 0-75-24.5T246 514L143 0H18l105 524q21 106 83 150t164 44q82 0 131.5-40T551 565z" horiz-adv-x="547" vert-adv-y="1000"/><glyph glyph-name="unie0" unicode="à" d="M469 382q0-23-5-46L396 0H277l9 46Q235-5 160-5 93-5 52 33.5T11 132q0 76 47 123 55 54 152 54h124l7 31q3 15 3 27 0 56-77 56-68 0-112-49l-64 83q68 70 193 70 76 0 130.5-34.5T469 382M317 224h-95q-41 0-65-22.5T133 144q0-49 66-49 49 0 81 32 23 23 31 66l6 31m42 377h-91l-72 167h118l45-167z" horiz-adv-x="509" vert-adv-y="1000"/><glyph glyph-name="unie1" unicode="á" d="M469 382q0-23-5-46L396 0H277l9 46Q235-5 160-5 93-5 52 33.5T11 132q0 76 47 123 55 54 152 54h124l7 31q3 15 3 27 0 56-77 56-68 0-112-49l-64 83q68 70 193 70 76 0 130.5-34.5T469 382M317 224h-95q-41 0-65-22.5T133 144q0-49 66-49 49 0 81 32 23 23 31 66l6 31m173 544L360 601H260l111 167h119z" horiz-adv-x="509" vert-adv-y="1000"/><glyph glyph-name="unie2" unicode="â" d="M469 382q0-23-5-46L396 0H277l9 46Q235-5 160-5 93-5 52 33.5T11 132q0 76 47 123 55 54 152 54h124l7 31q3 15 3 27 0 56-77 56-68 0-112-49l-64 83q68 70 193 70 76 0 130.5-34.5T469 382M317 224h-95q-41 0-65-22.5T133 144q0-49 66-49 49 0 81 32 23 23 31 66l6 31m171 377h-91l-60 94-98-94H138l159 169h99l92-169z" horiz-adv-x="509" vert-adv-y="1000"/><glyph glyph-name="unie3" unicode="ã" d="M469 382q0-23-5-46L396 0H277l9 46Q235-5 160-5 93-5 52 33.5T11 132q0 76 47 123 55 54 152 54h124l7 31q3 15 3 27 0 56-77 56-68 0-112-49l-64 83q68 70 193 70 76 0 130.5-34.5T469 382M317 224h-95q-41 0-65-22.5T133 144q0-49 66-49 49 0 81 32 23 23 31 66l6 31m182 435q-55-52-111-52-40 0-77 22-28 17-52 17-31 0-62-31l-45 60q55 52 110 52 40 0 77-22 28-17 53-17 30 0 62 30l45-59z" horiz-adv-x="509" vert-adv-y="1000"/><glyph glyph-name="unie4" unicode="ä" d="M469 382q0-23-5-46L396 0H277l9 46Q235-5 160-5 93-5 52 33.5T11 132q0 76 47 123 55 54 152 54h124l7 31q3 15 3 27 0 56-77 56-68 0-112-49l-64 83q68 70 193 70 76 0 130.5-34.5T469 382M317 224h-95q-41 0-65-22.5T133 144q0-49 66-49 49 0 81 32 23 23 31 66l6 31m179 501l-24-122H366l24 122h106m-209 0l-24-122H157l24 122h106z" horiz-adv-x="509" vert-adv-y="1000"/><glyph glyph-name="unie5" unicode="å" d="M469 382q0-23-5-46L396 0H277l9 46Q235-5 160-5 93-5 52 33.5T11 132q0 76 47 123 55 54 152 54h124l7 31q3 15 3 27 0 56-77 56-68 0-112-49l-64 83q68 70 193 70 76 0 130.5-34.5T469 382M317 224h-95q-41 0-65-22.5T133 144q0-49 66-49 49 0 81 32 23 23 31 66l6 31m106 577l18.5-18q18.5-18 18.5-72t-37-90.5Q386 584 333 584q-52 0-89 36.5T207 711q0 53 37 89.5t89 36.5q53 0 90-36m-31-90q0 23-18 40t-41 17q-23 0-40.5-17T275 711q0-24 17.5-41.5T333 652q23 0 41 17.5t18 41.5z" horiz-adv-x="509" vert-adv-y="1000"/><glyph glyph-name="unie6" unicode="æ" d="M764 342q0-46-16-119H436q-4-28-4-37 0-40 22.5-63.5T521 99q69 0 124 53l65-82Q628-6 507-6 400-6 349 67 281-6 177-6 99-6 54.5 30T10 132q0 75 46 121 54 54 153 54h125l6 31q3 13 3 29 0 56-77 56-70 0-112-49l-64 83q68 70 194 70 98 0 146-56 63 56 148 56 84 0 135-50t51-135M317 223h-96q-41 0-65-22t-24-57q0-49 66-49 49 0 81 32 24 22 32 65l6 31m329 119q0 40-20 61.5T572 425q-88 0-120-118h191q3 17 3 35z" horiz-adv-x="802" vert-adv-y="1000"/><glyph glyph-name="unie7" unicode="ç" d="M463 455l-93-82q-32 43-72 43-42 0-74-33-40-42-55-122-7-40-7-67 0-42 19-65.5t55-23.5q47 0 91 44l69-89Q325-6 224-6 145-6 91 43T37 180q0 38 8 81 14 76 42.5 130.5T153 474q37 28 75.5 40.5T310 527q97 0 153-72M258-57l-70-144H75l86 144h97z" horiz-adv-x="458" vert-adv-y="1000"/><glyph glyph-name="unie8" unicode="è" d="M486 341q0-47-16-118H158q-4-24-4-37 0-40 22.5-63.5T243 99q69 0 124 53l65-82Q350-6 229-6 151-6 93.5 38.5T36 177q0 91 27.5 168.5T153 475q62 52 148 52 83 0 134-51t51-135m-118 0q0 40-20 62t-54 22q-88 0-120-119h191q3 16 3 35m7 260h-91l-72 167h118l45-167z" horiz-adv-x="523" vert-adv-y="1000"/><glyph glyph-name="unie9" unicode="é" d="M486 341q0-47-16-118H158q-4-24-4-37 0-40 22.5-63.5T243 99q69 0 124 53l65-82Q350-6 229-6 151-6 93.5 38.5T36 177q0 91 27.5 168.5T153 475q62 52 148 52 83 0 134-51t51-135m-118 0q0 40-20 62t-54 22q-88 0-120-119h191q3 16 3 35m138 427L376 601H276l111 167h119z" horiz-adv-x="523" vert-adv-y="1000"/><glyph glyph-name="uniea" unicode="ê" d="M486 341q0-47-16-118H158q-4-24-4-37 0-40 22.5-63.5T243 99q69 0 124 53l65-82Q350-6 229-6 151-6 93.5 38.5T36 177q0 91 27.5 168.5T153 475q62 52 148 52 83 0 134-51t51-135m-118 0q0 40-20 62t-54 22q-88 0-120-119h191q3 16 3 35m136 260h-91l-60 94-98-94H154l159 169h99l92-169z" horiz-adv-x="523" vert-adv-y="1000"/><glyph glyph-name="unieb" unicode="ë" d="M486 341q0-47-16-118H158q-4-24-4-37 0-40 22.5-63.5T243 99q69 0 124 53l65-82Q350-6 229-6 151-6 93.5 38.5T36 177q0 91 27.5 168.5T153 475q62 52 148 52 83 0 134-51t51-135m-118 0q0 40-20 62t-54 22q-88 0-120-119h191q3 16 3 35m144 384l-24-122H382l24 122h106m-209 0l-24-122H173l24 122h106z" horiz-adv-x="523" vert-adv-y="1000"/><glyph glyph-name="uniec" unicode="ì" d="M243 505L142 0H18l101 505h124m2 96h-91L82 768h118l45-167z" horiz-adv-x="262" vert-adv-y="1000"/><glyph glyph-name="unied" unicode="í" d="M375 768L245 601H145l111 167h119M243 505L142 0H18l101 505h124z" horiz-adv-x="262" vert-adv-y="1000"/><glyph glyph-name="uniee" unicode="î" d="M243 505L142 0H18l101 505h124m128 96h-91l-60 94-98-94H21l159 169h99l92-169z" horiz-adv-x="262" vert-adv-y="1000"/><glyph glyph-name="unief" unicode="ï" d="M243 505L142 0H18l101 505h124m133 220l-24-122H246l24 122h106m-209 0l-24-122H37l24 122h106z" horiz-adv-x="262" vert-adv-y="1000"/><glyph glyph-name="unif0" unicode="ð" d="M484 658l-17-86h-46l24-76q27-86 27-150 0-42-10-92-29-147-93-205Q308-6 215-6 144-6 93 37T42 165q0 37 11 89 15 78 35 122.5t55 78.5q55 55 143 55 16 0 30-3l-21 65H183l17 86h70l-19 62h128l18-62h87M348 336q0 67-60 67-35 0-60-23-32-29-51-126-11-57-11-82 0-37 18-52.5t43-15.5q34 0 60 24 32 29 51 126 10 52 10 82z" horiz-adv-x="515" vert-adv-y="1000"/><glyph glyph-name="unif1" unicode="ñ" d="M501 383q0-28-7-58L429 0H305l64 317q4 24 4 34 0 32-18 48.5T311 416q-34 0-64.5-22.5T205 316L141 0H17l104 521h119l-9-50q51 56 137 56 52 0 92.5-36.5T501 383m23 276q-55-52-111-52-40 0-77 22-28 17-52 17-31 0-62-31l-45 60q55 52 110 52 40 0 77-22 28-17 53-17 30 0 62 30l45-59z" horiz-adv-x="544" vert-adv-y="1000"/><glyph glyph-name="unif2" unicode="ò" d="M477 355q0-37-10-94-16-81-37-127t-56-80Q311-6 214-6 141-6 89 38T37 166q0 42 11 95 16 81 37 127t56 79q62 60 160 60 72 0 124-44t52-128m-123-14q0 37-18 56t-48 19q-38 0-64-26-33-32-53-129-11-55-11-81 0-36 18-55.5t48-19.5q38 0 64 26 35 34 53 130 11 54 11 80m16 260h-91l-72 167h118l45-167z" horiz-adv-x="515" vert-adv-y="1000"/><glyph glyph-name="unif3" unicode="ó" d="M477 355q0-37-10-94-16-81-37-127t-56-80Q311-6 214-6 141-6 89 38T37 166q0 42 11 95 16 81 37 127t56 79q62 60 160 60 72 0 124-44t52-128m-123-14q0 37-18 56t-48 19q-38 0-64-26-33-32-53-129-11-55-11-81 0-36 18-55.5t48-19.5q38 0 64 26 35 34 53 130 11 54 11 80m147 427L371 601H271l111 167h119z" horiz-adv-x="515" vert-adv-y="1000"/><glyph glyph-name="unif4" unicode="ô" d="M477 355q0-37-10-94-16-81-37-127t-56-80Q311-6 214-6 141-6 89 38T37 166q0 42 11 95 16 81 37 127t56 79q62 60 160 60 72 0 124-44t52-128m-123-14q0 37-18 56t-48 19q-38 0-64-26-33-32-53-129-11-55-11-81 0-36 18-55.5t48-19.5q38 0 64 26 35 34 53 130 11 54 11 80m145 260h-91l-60 94-98-94H149l159 169h99l92-169z" horiz-adv-x="515" vert-adv-y="1000"/><glyph glyph-name="unif5" unicode="õ" d="M477 355q0-37-10-94-16-81-37-127t-56-80Q311-6 214-6 141-6 89 38T37 166q0 42 11 95 16 81 37 127t56 79q62 60 160 60 72 0 124-44t52-128m-123-14q0 37-18 56t-48 19q-38 0-64-26-33-32-53-129-11-55-11-81 0-36 18-55.5t48-19.5q38 0 64 26 35 34 53 130 11 54 11 80m156 318q-55-52-111-52-40 0-77 22-28 17-52 17-31 0-62-31l-45 60q55 52 110 52 40 0 77-22 28-17 53-17 30 0 62 30l45-59z" horiz-adv-x="515" vert-adv-y="1000"/><glyph glyph-name="unif6" unicode="ö" d="M477 355q0-37-10-94-16-81-37-127t-56-80Q311-6 214-6 141-6 89 38T37 166q0 42 11 95 16 81 37 127t56 79q62 60 160 60 72 0 124-44t52-128m-123-14q0 37-18 56t-48 19q-38 0-64-26-33-32-53-129-11-55-11-81 0-36 18-55.5t48-19.5q38 0 64 26 35 34 53 130 11 54 11 80m153 384l-24-122H377l24 122h106m-209 0l-24-122H168l24 122h106z" horiz-adv-x="515" vert-adv-y="1000"/><glyph glyph-name="unif7" unicode="÷" d="M490 343l-23-115H38l23 115h429M376 543l-25-124H227l25 124h124m-75-390L277 29H153l25 124h123z" horiz-adv-x="516" vert-adv-y="1000"/><glyph glyph-name="unif8" unicode="ø" d="M477 355q0-37-10-94-16-81-37-127t-56-80Q311-6 214-6q-56 0-100 25L68-44H-8L69 60q-32 42-32 106 0 42 11 95 16 81 37 127t56 79q62 60 160 60 57 0 100-26l48 62h76l-79-103q31-42 31-105M160 167l173 233q-17 17-45 17-38 0-64-26-35-34-53-130-11-55-11-94m194 175v6L184 118q19-13 42-13 38 0 64 26 35 34 53 130 11 55 11 81z" horiz-adv-x="517" vert-adv-y="1000"/><glyph glyph-name="unif9" unicode="ù" d="M528 521L424 0H305l9 50Q263-6 178-6q-53 0-93.5 36.5T44 139q0 17 7 57l65 325h124l-64-317q-4-22-4-34 0-32 18-48.5t44-16.5q34 0 64.5 22.5T340 205l64 316h124m-151 80h-91l-72 167h118l45-167z" horiz-adv-x="544" vert-adv-y="1000"/><glyph glyph-name="unifa" unicode="ú" d="M528 521L424 0H305l9 50Q263-6 178-6q-53 0-93.5 36.5T44 139q0 17 7 57l65 325h124l-64-317q-4-22-4-34 0-32 18-48.5t44-16.5q34 0 64.5 22.5T340 205l64 316h124m-20 247L378 601H278l111 167h119z" horiz-adv-x="544" vert-adv-y="1000"/><glyph glyph-name="unifb" unicode="û" d="M528 521L424 0H305l9 50Q263-6 178-6q-53 0-93.5 36.5T44 139q0 17 7 57l65 325h124l-64-317q-4-22-4-34 0-32 18-48.5t44-16.5q34 0 64.5 22.5T340 205l64 316h124m-22 80h-91l-60 94-98-94H156l159 169h99l92-169z" horiz-adv-x="544" vert-adv-y="1000"/><glyph glyph-name="unifc" unicode="ü" d="M528 521L424 0H305l9 50Q263-6 178-6q-53 0-93.5 36.5T44 139q0 17 7 57l65 325h124l-64-317q-4-22-4-34 0-32 18-48.5t44-16.5q34 0 64.5 22.5T340 205l64 316h124m-14 204l-24-122H384l24 122h106m-209 0l-24-122H175l24 122h106z" horiz-adv-x="544" vert-adv-y="1000"/><glyph glyph-name="unifd" unicode="ý" d="M515 521L190-84q-20-38-43-61-46-46-124-46h-48L-2-79h28q26 0 41 12.5T97-25l33 62-74 484h123l38-336 167 336h131m-42 247L343 601H243l111 167h119z" horiz-adv-x="464" vert-adv-y="1000"/><glyph glyph-name="unife" unicode="þ" d="M501 383q0-41-16-122-18-87-36-137t-47-79Q351-6 271-6q-85 0-118 54l-49-239H-20l180 903h124l-47-234q47 49 124 49 51 0 84-23.5t44.5-54Q501 419 501 383m-129-39q0 72-62 72-52 0-76-37.5T194 261q-11-59-11-84 0-72 62-72 51 0 75.5 38T361 261q11 59 11 83z" horiz-adv-x="533" vert-adv-y="1000"/><glyph glyph-name="uniff" unicode="ÿ" d="M515 521L190-84q-20-38-43-61-46-46-124-46h-48L-2-79h28q26 0 41 12.5T97-25l33 62-74 484h123l38-336 167 336h131m-37 204l-24-122H348l24 122h106m-209 0l-24-122H139l24 122h106z" horiz-adv-x="464" vert-adv-y="1000"/><glyph glyph-name="uni0100" unicode="Ā" d="M552 0H418l-15 130H162L95 0H-46l388 712h105L552 0M393 238l-34 274-143-274h177m176 636l-16-82H251l17 82h301z" horiz-adv-x="607" vert-adv-y="1000"/><glyph glyph-name="uni0101" unicode="ā" d="M469 382q0-23-5-46L396 0H277l9 46Q235-5 160-5 93-5 52 33.5T11 132q0 76 47 123 55 54 152 54h124l7 31q3 15 3 27 0 56-77 56-68 0-112-49l-64 83q68 70 193 70 76 0 130.5-34.5T469 382M317 224h-95q-41 0-65-22.5T133 144q0-49 66-49 49 0 81 32 23 23 31 66l6 31m168 477l-16-82H167l17 82h301z" horiz-adv-x="509" vert-adv-y="1000"/><glyph glyph-name="uni0102" unicode="Ă" d="M552 0H418l-15 130H162L95 0H-46l388 712h105L552 0M393 238l-34 274-143-274h177m184 677q-15-76-56.5-110T410 771q-64 0-99 31.5T276 884q0 14 3 31h82q-1-10-1-16 0-44 59-44 60 0 74 60h84z" horiz-adv-x="607" vert-adv-y="1000"/><glyph glyph-name="uni0103" unicode="ă" d="M469 382q0-23-5-46L396 0H277l9 46Q235-5 160-5 93-5 52 33.5T11 132q0 76 47 123 55 54 152 54h124l7 31q3 15 3 27 0 56-77 56-68 0-112-49l-64 83q68 70 193 70 76 0 130.5-34.5T469 382M317 224h-95q-41 0-65-22.5T133 144q0-49 66-49 49 0 81 32 23 23 31 66l6 31m168 512q-15-76-56.5-110T318 592q-64 0-99 31.5T184 705q0 15 3 31h82q-1-10-1-16 0-44 59-44 60 0 74 60h84z" horiz-adv-x="509" vert-adv-y="1000"/><glyph glyph-name="uni0104" unicode="Ą" d="M552 0H418l-15 130H162L95 0H-46l388 712h105L552 0M393 238l-34 274-143-274h177M523-57l-70-144H340l86 144h97z" horiz-adv-x="607" vert-adv-y="1000"/><glyph glyph-name="uni0105" unicode="ą" d="M469 382q0-23-5-46L396 0H277l9 46Q235-5 160-5 93-5 52 33.5T11 132q0 76 47 123 55 54 152 54h124l7 31q3 15 3 27 0 56-77 56-68 0-112-49l-64 83q68 70 193 70 76 0 130.5-34.5T469 382M317 224h-95q-41 0-65-22.5T133 144q0-49 66-49 49 0 81 32 23 23 31 66l6 31m50-281l-70-144H184l86 144h97z" horiz-adv-x="509" vert-adv-y="1000"/><glyph glyph-name="uni0106" unicode="Ć" d="M597 498H465q-1 47-23.5 75.5T372 602q-54 0-95-41-22-23-37.5-66.5T206 356q-20-107-20-150 0-45 26.5-70.5T281 110q49 0 82.5 30t49.5 74h136Q514 106 441 50T271-6Q171-6 112 51.5T53 196q0 61 21 160 24 120 44 178t62 103q77 81 201 81 105 0 160.5-61.5T597 498m-20 448L446 778h-99l110 168h120z" horiz-adv-x="592" vert-adv-y="1000"/><glyph glyph-name="uni0107" unicode="ć" d="M463 455l-93-82q-32 43-72 43-42 0-74-33-40-42-55-122-7-40-7-67 0-42 19-65.5t55-23.5q47 0 91 44l69-89Q325-6 224-6 145-6 91 43T37 180q0 38 8 81 14 76 42.5 130.5T153 474q37 28 75.5 40.5T310 527q97 0 153-72m45 313L378 601H278l111 167h119z" horiz-adv-x="458" vert-adv-y="1000"/><glyph glyph-name="uni0108" unicode="Ĉ" d="M597 498H465q-1 47-23.5 75.5T372 602q-54 0-95-41-22-23-37.5-66.5T206 356q-20-107-20-150 0-45 26.5-70.5T281 110q49 0 82.5 30t49.5 74h136Q514 106 441 50T271-6Q171-6 112 51.5T53 196q0 61 21 160 24 120 44 178t62 103q77 81 201 81 105 0 160.5-61.5T597 498m-22 280h-92l-59 94-99-94H224l159 170h100l92-170z" horiz-adv-x="592" vert-adv-y="1000"/><glyph glyph-name="uni0109" unicode="ĉ" d="M463 455l-93-82q-32 43-72 43-42 0-74-33-40-42-55-122-7-40-7-67 0-42 19-65.5t55-23.5q47 0 91 44l69-89Q325-6 224-6 145-6 91 43T37 180q0 38 8 81 14 76 42.5 130.5T153 474q37 28 75.5 40.5T310 527q97 0 153-72m43 146h-91l-60 94-98-94H156l159 169h99l92-169z" horiz-adv-x="458" vert-adv-y="1000"/><glyph glyph-name="uni010A" unicode="Ċ" d="M597 498H465q-1 47-23.5 75.5T372 602q-54 0-95-41-22-23-37.5-66.5T206 356q-20-107-20-150 0-45 26.5-70.5T281 110q49 0 82.5 30t49.5 74h136Q514 106 441 50T271-6Q171-6 112 51.5T53 196q0 61 21 160 24 120 44 178t62 103q77 81 201 81 105 0 160.5-61.5T597 498M480 900l-23-114H350l23 114h107z" horiz-adv-x="592" vert-adv-y="1000"/><glyph glyph-name="uni010B" unicode="ċ" d="M463 455l-93-82q-32 43-72 43-42 0-74-33-40-42-55-122-7-40-7-67 0-42 19-65.5t55-23.5q47 0 91 44l69-89Q325-6 224-6 145-6 91 43T37 180q0 38 8 81 14 76 42.5 130.5T153 474q37 28 75.5 40.5T310 527q97 0 153-72m-53 268l-22-114H280l24 114h106z" horiz-adv-x="458" vert-adv-y="1000"/><glyph glyph-name="uni010C" unicode="Č" d="M597 498H465q-1 47-23.5 75.5T372 602q-54 0-95-41-22-23-37.5-66.5T206 356q-20-107-20-150 0-45 26.5-70.5T281 110q49 0 82.5 30t49.5 74h136Q514 106 441 50T271-6Q171-6 112 51.5T53 196q0 61 21 160 24 120 44 178t62 103q77 81 201 81 105 0 160.5-61.5T597 498m17 450L455 778H355l-92 170h92l59-95 99 95h101z" horiz-adv-x="592" vert-adv-y="1000"/><glyph glyph-name="uni010D" unicode="č" d="M463 455l-93-82q-32 43-72 43-42 0-74-33-40-42-55-122-7-40-7-67 0-42 19-65.5t55-23.5q47 0 91 44l69-89Q325-6 224-6 145-6 91 43T37 180q0 38 8 81 14 76 42.5 130.5T153 474q37 28 75.5 40.5T310 527q97 0 153-72m80 315L383 601h-99l-93 169h93l59-94 99 94h101z" horiz-adv-x="458" vert-adv-y="1000"/><glyph glyph-name="uni010E" unicode="Ď" d="M614 513q0-38-23-154-26-134-47.5-190T477 70Q404 0 281 0H28l143 712h233q94 0 152-50t58-149m-133-11q0 47-26.5 70.5T381 596H280l-96-480h100q64 0 104 39 22 22 37 63.5T459 359q22 113 22 143m133 446L455 778H355l-92 170h92l59-95 99 95h101z" horiz-adv-x="626" vert-adv-y="1000"/><glyph glyph-name="uni010F" unicode="ď" d="M555 712L413 0H293l11 50Q255-6 175-6 100-6 67 37.5T34 140q0 39 16 121 32 164 83 215t132 51q82 0 118-56l48 241h124M352 345q0 71-62 71-52 0-76-37.5T174 261q-11-59-11-84 0-72 62-72 51 0 75.5 38T341 261q11 59 11 84m415 395l-91-165h-91l67 165h115z" horiz-adv-x="533" vert-adv-y="1000"/><glyph glyph-name="uni0110" unicode="Đ" d="M636 513q0-38-23-154-26-134-47.5-190T499 70Q426 0 303 0H50l62 309H46l20 100h66l61 303h233q94 0 152-50t58-149m-133-11q0 47-26.5 70.5T403 596H302l-38-187h110l-20-100H244l-39-193h100q66 0 106 39 22 21 36.5 62.5T481 359q22 113 22 143z" horiz-adv-x="648" vert-adv-y="1000"/><glyph glyph-name="uni0111" unicode="đ" d="M593 648l-16-78h-51L413 0H293l11 50Q255-6 175-6 100-6 67 37.5T34 140q0 39 16 121 32 164 83 215t132 51q82 0 118-56l19 99h-87l16 78h87l13 64h124l-13-64h51M352 345q0 71-62 71-52 0-76-37.5T174 261q-11-59-11-84 0-72 62-72 51 0 75.5 38T341 261q11 59 11 84z" horiz-adv-x="553" vert-adv-y="1000"/><glyph glyph-name="uni0112" unicode="Ē" d="M615 712l-23-116H280l-36-179h269l-23-116H221l-37-185h318L479 0H28l143 712h444m-57 162l-16-82H240l17 82h301z" horiz-adv-x="578" vert-adv-y="1000"/><glyph glyph-name="uni0113" unicode="ē" d="M486 341q0-47-16-118H158q-4-24-4-37 0-40 22.5-63.5T243 99q69 0 124 53l65-82Q350-6 229-6 151-6 93.5 38.5T36 177q0 91 27.5 168.5T153 475q62 52 148 52 83 0 134-51t51-135m-118 0q0 40-20 62t-54 22q-88 0-120-119h191q3 16 3 35m133 360l-16-82H183l17 82h301z" horiz-adv-x="523" vert-adv-y="1000"/><glyph glyph-name="uni0114" unicode="Ĕ" d="M615 712l-23-116H280l-36-179h269l-23-116H221l-37-185h318L479 0H28l143 712h444m-63 203q-15-76-56.5-110T385 771q-64 0-99 31.5T251 884q0 14 3 31h82q-1-10-1-16 0-44 59-44 60 0 74 60h84z" horiz-adv-x="578" vert-adv-y="1000"/><glyph glyph-name="uni0115" unicode="ĕ" d="M486 341q0-47-16-118H158q-4-24-4-37 0-40 22.5-63.5T243 99q69 0 124 53l65-82Q350-6 229-6 151-6 93.5 38.5T36 177q0 91 27.5 168.5T153 475q62 52 148 52 83 0 134-51t51-135m-118 0q0 40-20 62t-54 22q-88 0-120-119h191q3 16 3 35m126 395q-15-76-56.5-110T327 592q-64 0-99 31.5T193 705q0 15 3 31h82q-1-10-1-16 0-44 59-44 60 0 74 60h84z" horiz-adv-x="523" vert-adv-y="1000"/><glyph glyph-name="uni0116" unicode="Ė" d="M615 712l-23-116H280l-36-179h269l-23-116H221l-37-185h318L479 0H28l143 712h444M469 900l-23-114H339l23 114h107z" horiz-adv-x="578" vert-adv-y="1000"/><glyph glyph-name="uni0117" unicode="ė" d="M486 341q0-47-16-118H158q-4-24-4-37 0-40 22.5-63.5T243 99q69 0 124 53l65-82Q350-6 229-6 151-6 93.5 38.5T36 177q0 91 27.5 168.5T153 475q62 52 148 52 83 0 134-51t51-135m-118 0q0 40-20 62t-54 22q-88 0-120-119h191q3 16 3 35m40 382l-22-114H278l24 114h106z" horiz-adv-x="523" vert-adv-y="1000"/><glyph glyph-name="uni0118" unicode="Ę" d="M615 712l-23-116H280l-36-179h269l-23-116H221l-37-185h318L479 0H28l143 712h444M451-57l-70-144H268l86 144h97z" horiz-adv-x="578" vert-adv-y="1000"/><glyph glyph-name="uni0119" unicode="ę" d="M486 341q0-47-16-118H158q-4-24-4-37 0-40 22.5-63.5T243 99q69 0 124 53l65-82Q350-6 229-6 151-6 93.5 38.5T36 177q0 91 27.5 168.5T153 475q62 52 148 52 83 0 134-51t51-135m-118 0q0 40-20 62t-54 22q-88 0-120-119h191q3 16 3 35M352-57l-70-144H169l86 144h97z" horiz-adv-x="523" vert-adv-y="1000"/><glyph glyph-name="uni011A" unicode="Ě" d="M615 712l-23-116H280l-36-179h269l-23-116H221l-37-185h318L479 0H28l143 712h444m-15 236L441 778H341l-92 170h92l59-95 99 95h101z" horiz-adv-x="578" vert-adv-y="1000"/><glyph glyph-name="uni011B" unicode="ě" d="M486 341q0-47-16-118H158q-4-24-4-37 0-40 22.5-63.5T243 99q69 0 124 53l65-82Q350-6 229-6 151-6 93.5 38.5T36 177q0 91 27.5 168.5T153 475q62 52 148 52 83 0 134-51t51-135m-118 0q0 40-20 62t-54 22q-88 0-120-119h191q3 16 3 35m173 429L381 601h-99l-93 169h93l59-94 99 94h101z" horiz-adv-x="523" vert-adv-y="1000"/><glyph glyph-name="uni011C" unicode="Ĝ" d="M602 495H470q-2 50-26 78.5T375 602q-55 0-96-41-24-25-38.5-67T206 356q-20-92-20-150 0-45 27-70.5t69-25.5q50 0 91.5 37T428 253l6 31H310l20 110h256l-19-102q-27-141-98-218Q392-6 272-6 168-6 110.5 52.5T53 196q0 61 21 160 27 131 46 183t62 98q77 81 201 81 106 0 162.5-62T602 495m-27 283h-92l-59 94-99-94H224l159 170h100l92-170z" horiz-adv-x="616" vert-adv-y="1000"/><glyph glyph-name="uni011D" unicode="ĝ" d="M511 521L411 20q-22-109-88.5-163T161-197q-111 0-173 71l86 75q36-41 87-41 50 0 83 30.5T288 21l11 53q-44-52-116-52-61 0-102.5 38.5T39 169q0 35 13 106 14 78 31.5 124.5T130 475q52 52 133 52 82 0 118-59l10 53h120M348 347q0 69-62 69-46 0-71-34t-39-108q-9-48-9-72 0-69 62-69 46 0 71 34t39 108q9 48 9 72m150 254h-91l-60 94-98-94H148l159 169h99l92-169z" horiz-adv-x="527" vert-adv-y="1000"/><glyph glyph-name="uni011E" unicode="Ğ" d="M602 495H470q-2 50-26 78.5T375 602q-55 0-96-41-24-25-38.5-67T206 356q-20-92-20-150 0-45 27-70.5t69-25.5q50 0 91.5 37T428 253l6 31H310l20 110h256l-19-102q-27-141-98-218Q392-6 272-6 168-6 110.5 52.5T53 196q0 61 21 160 27 131 46 183t62 98q77 81 201 81 106 0 162.5-62T602 495m-25 420q-15-76-56.5-110T410 771q-64 0-99 31.5T276 884q0 14 3 31h82q-1-10-1-16 0-44 59-44 60 0 74 60h84z" horiz-adv-x="616" vert-adv-y="1000"/><glyph glyph-name="uni011F" unicode="ğ" d="M511 521L411 20q-22-109-88.5-163T161-197q-111 0-173 71l86 75q36-41 87-41 50 0 83 30.5T288 21l11 53q-44-52-116-52-61 0-102.5 38.5T39 169q0 35 13 106 14 78 31.5 124.5T130 475q52 52 133 52 82 0 118-59l10 53h120M348 347q0 69-62 69-46 0-71-34t-39-108q-9-48-9-72 0-69 62-69 46 0 71 34t39 108q9 48 9 72m147 389q-15-76-56.5-110T328 592q-64 0-99 31.5T194 705q0 15 3 31h82q-1-10-1-16 0-44 59-44 60 0 74 60h84z" horiz-adv-x="527" vert-adv-y="1000"/><glyph glyph-name="uni0120" unicode="Ġ" d="M602 495H470q-2 50-26 78.5T375 602q-55 0-96-41-24-25-38.5-67T206 356q-20-92-20-150 0-45 27-70.5t69-25.5q50 0 91.5 37T428 253l6 31H310l20 110h256l-19-102q-27-141-98-218Q392-6 272-6 168-6 110.5 52.5T53 196q0 61 21 160 27 131 46 183t62 98q77 81 201 81 106 0 162.5-62T602 495M480 900l-23-114H350l23 114h107z" horiz-adv-x="616" vert-adv-y="1000"/><glyph glyph-name="uni0121" unicode="ġ" d="M511 521L411 20q-22-109-88.5-163T161-197q-111 0-173 71l86 75q36-41 87-41 50 0 83 30.5T288 21l11 53q-44-52-116-52-61 0-102.5 38.5T39 169q0 35 13 106 14 78 31.5 124.5T130 475q52 52 133 52 82 0 118-59l10 53h120M348 347q0 69-62 69-46 0-71-34t-39-108q-9-48-9-72 0-69 62-69 46 0 71 34t39 108q9 48 9 72m54 376l-22-114H272l24 114h106z" horiz-adv-x="527" vert-adv-y="1000"/><glyph glyph-name="uni0122" unicode="Ģ" d="M602 495H470q-2 50-26 78.5T375 602q-55 0-96-41-24-25-38.5-67T206 356q-20-92-20-150 0-45 27-70.5t69-25.5q50 0 91.5 37T428 253l6 31H310l20 110h256l-19-102q-27-141-98-218Q392-6 272-6 168-6 110.5 52.5T53 196q0 61 21 160 27 131 46 183t62 98q77 81 201 81 106 0 162.5-62T602 495M316-57l-70-144H132l86 144h98z" horiz-adv-x="616" vert-adv-y="1000"/><glyph glyph-name="uni0123" unicode="ģ" d="M511 521L411 20q-22-109-88.5-163T161-197q-111 0-173 71l86 75q36-41 87-41 50 0 83 30.5T288 21l11 53q-44-52-116-52-61 0-102.5 38.5T39 169q0 35 13 106 14 78 31.5 124.5T130 475q52 52 133 52 82 0 118-59l10 53h120M348 347q0 69-62 69-46 0-71-34t-39-108q-9-48-9-72 0-69 62-69 46 0 71 34t39 108q9 48 9 72m152 421L369 601h-99l110 167h120z" horiz-adv-x="527" vert-adv-y="1000"/><glyph glyph-name="uni0124" unicode="Ĥ" d="M664 712L521 0H389l61 302H221L160 0H28l143 712h132l-58-294h229l58 294h132m-63 66h-92l-59 94-99-94H250l159 170h100l92-170z" horiz-adv-x="651" vert-adv-y="1000"/><glyph glyph-name="uni0125" unicode="ĥ" d="M501 383q0-27-7-58L429 0H305l64 317q4 22 4 34 0 32-18.5 48.5T310 416q-34 0-64-22.5T205 316L141 0H17l142 712h124l-47-232q52 47 128 47 55 0 96-36.5T501 383m-93 397h-91l-60 94-98-94H58l159 169h99l92-169z" horiz-adv-x="544" vert-adv-y="1000"/><glyph glyph-name="uni0126" unicode="Ħ" d="M729 611l-21-101h-67L539 0H407l61 302H239L178 0H46l102 510H81l21 101h67l20 101h132l-20-101h230l19 101h132l-21-101h68M510 510H281l-18-92h229l18 92z" horiz-adv-x="734" vert-adv-y="1000"/><glyph glyph-name="uni0127" unicode="ħ" d="M518 383q0-28-7-58L446 0H322l63 317q4 22 4 34 0 32-18 48.5T328 416q-34 0-65-22.5T221 316L158 0H34l113 570H97l16 78h50l13 64h124l-13-64h88l-16-78h-87l-18-90q52 47 128 47 54 0 95-36t41-108z" horiz-adv-x="562" vert-adv-y="1000"/><glyph glyph-name="uni0128" unicode="Ĩ" d="M303 712L160 0H28l143 712h132m130 130q-55-52-111-52-40 0-77 22-28 17-53 17-29 0-62-31l-45 60q57 52 111 52 40 0 77-22 28-17 53-17 30 0 62 30l45-59z" horiz-adv-x="290" vert-adv-y="1000"/><glyph glyph-name="uni0129" unicode="ĩ" d="M243 505L142 0H18l101 505h124m137 154q-55-52-111-52-40 0-77 22-28 17-52 17-31 0-62-31l-45 60q55 52 110 52 40 0 77-22 28-17 53-17 30 0 62 30l45-59z" horiz-adv-x="262" vert-adv-y="1000"/><glyph glyph-name="uni012A" unicode="Ī" d="M303 712L160 0H28l143 712h132m110 162l-16-82H95l17 82h301z" horiz-adv-x="290" vert-adv-y="1000"/><glyph glyph-name="uni012B" unicode="ī" d="M243 505L142 0H18l101 505h124m127 196l-16-82H52l17 82h301z" horiz-adv-x="262" vert-adv-y="1000"/><glyph glyph-name="uni012C" unicode="Ĭ" d="M303 712L160 0H28l143 712h132m120 203q-15-76-56.5-110T256 771q-64 0-99 31.5T122 884q0 14 3 31h82q-1-10-1-16 0-44 59-44 60 0 74 60h84z" horiz-adv-x="290" vert-adv-y="1000"/><glyph glyph-name="uni012D" unicode="ĭ" d="M243 505L142 0H18l101 505h124m129 231q-15-76-56.5-110T205 592q-64 0-99 31.5T71 705q0 15 3 31h82q-1-10-1-16 0-44 59-44 60 0 74 60h84z" horiz-adv-x="262" vert-adv-y="1000"/><glyph glyph-name="uni012E" unicode="Į" d="M303 712L160 0H28l143 712h132M125-57L55-201H-58L28-57h97z" horiz-adv-x="290" vert-adv-y="1000"/><glyph glyph-name="uni012F" unicode="į" d="M243 505L142 0H18l101 505h124m42 205l-21-103H137l20 103h128M108-57L38-201H-75L11-57h97z" horiz-adv-x="262" vert-adv-y="1000"/><glyph glyph-name="uni0130" unicode="İ" d="M303 712L160 0H28l143 712h132m24 188l-23-114H197l23 114h107z" horiz-adv-x="290" vert-adv-y="1000"/><glyph glyph-name="uni0131" unicode="ı" d="M243 505L142 0H18l101 505h124z" horiz-adv-x="262" vert-adv-y="1000"/><glyph glyph-name="uni0132" unicode="Ĳ" d="M303 712L160 0H28l143 712h132m494 0l-98-487q-14-68-44.5-116.5t-69.5-72q-39-23.5-74.5-33T439-6Q320-6 260 71l95 81q33-42 87-42 42 0 78 28.5t49 94.5l96 479h132z" horiz-adv-x="775" vert-adv-y="1000"/><glyph glyph-name="uni0133" unicode="ĳ" d="M243 505L142 0H18l101 505h124m42 205l-21-103H137l20 103h128m220-205L395-48q-14-69-57-108t-111-39h-77l21 105h45q46 0 56 53l109 542h124m42 205l-21-103H399l20 103h128z" horiz-adv-x="524" vert-adv-y="1000"/><glyph glyph-name="uni0134" unicode="Ĵ" d="M507 712l-98-487q-14-68-44.5-116.5t-69.5-72q-39-23.5-74.5-33T149-6Q30-6-30 71l95 81q33-42 87-42 42 0 78 28.5t49 94.5l96 479h132m115 66h-92l-59 94-99-94H271l159 170h100l92-170z" horiz-adv-x="485" vert-adv-y="1000"/><glyph glyph-name="uni0135" unicode="ĵ" d="M243 505L133-48q-14-69-57-108t-111-39h-77l21 105h45q46 0 56 53l109 542h124m127 96h-91l-60 94-98-94H20l159 169h99l92-169z" horiz-adv-x="262" vert-adv-y="1000"/><glyph glyph-name="uni0136" unicode="Ķ" d="M702 712L421 415 584 0H440L315 329 202 219 159 0H28l143 712h131l-63-310 299 310h164M328-57l-70-144H144l86 144h98z" horiz-adv-x="636" vert-adv-y="1000"/><glyph glyph-name="uni0137" unicode="ķ" d="M557 521L339 304 477 0H335l-90 227-71-66L142 0H18l142 712h124l-80-403 206 212h147M284-57l-70-144H100l86 144h98z" horiz-adv-x="534" vert-adv-y="1000"/><glyph glyph-name="uni0138" unicode="ĸ" d="M557 521L339 304 477 0H335l-90 227-71-66L142 0H18l104 521h124l-42-212 206 212h147z" horiz-adv-x="534" vert-adv-y="1000"/><glyph glyph-name="uni0139" unicode="Ĺ" d="M494 116L471 0H28l143 712h132L184 116h310m-73 830L290 778h-99l110 168h120z" horiz-adv-x="550" vert-adv-y="1000"/><glyph glyph-name="uni013A" unicode="ĺ" d="M280 712L169 157q-3-13-3-22 0-30 38-30h51L234 0h-68q-55 0-90 30.5T41 113q0 24 4 43l111 556h124m127 235L277 780H177l111 167h119z" horiz-adv-x="311" vert-adv-y="1000"/><glyph glyph-name="uni013B" unicode="Ļ" d="M494 116L471 0H28l143 712h132L184 116h310M293-57l-70-144H109l86 144h98z" horiz-adv-x="550" vert-adv-y="1000"/><glyph glyph-name="uni013C" unicode="ļ" d="M280 712L169 157q-3-13-3-22 0-30 38-30h51L234 0h-68q-55 0-90 30.5T41 113q0 24 4 43l111 556h124M164-57L94-201H-20L66-57h98z" horiz-adv-x="311" vert-adv-y="1000"/><glyph glyph-name="uni013D" unicode="Ľ" d="M494 116L471 0H28l143 712h132L184 116h310m40 596l-91-165h-91l67 165h115z" horiz-adv-x="550" vert-adv-y="1000"/><glyph glyph-name="uni013E" unicode="ľ" d="M280 712L169 157q-3-13-3-22 0-30 38-30h51L234 0h-68q-55 0-90 30.5T41 113q0 24 4 43l111 556h124m212 28l-91-165h-91l67 165h115z" horiz-adv-x="311" vert-adv-y="1000"/><glyph glyph-name="uni013F" unicode="Ŀ" d="M494 116L471 0H28l143 712h132L184 116h310m11 300l-23-114H375l23 114h107z" horiz-adv-x="550" vert-adv-y="1000"/><glyph glyph-name="uni0140" unicode="ŀ" d="M280 712L169 157q-3-13-3-22 0-30 38-30h51L234 0h-68q-55 0-90 30.5T41 113q0 24 4 43l111 556h124m107-370l-22-114H257l24 114h106z" horiz-adv-x="372" vert-adv-y="1000"/><glyph glyph-name="uni0141" unicode="Ł" d="M511 116L489 0H45l50 245-70-41 23 117 70 40 70 351h132l-53-266 138 81-24-118-137-80-43-213h310z" horiz-adv-x="567" vert-adv-y="1000"/><glyph glyph-name="uni0142" unicode="ł" d="M315 525l-23-111-64-37-44-220q-3-13-3-22 0-30 39-30h51L249 0h-67q-55 0-90.5 30.5T56 113q0 24 4 43l30 147-59-34 22 111 58 33 60 299h123l-45-224 66 37z" horiz-adv-x="322" vert-adv-y="1000"/><glyph glyph-name="uni0143" unicode="Ń" d="M690 712L547 0H435L250 445 160 0H28l143 712h112l186-446 89 446h132m-94 234L465 778h-99l110 168h120z" horiz-adv-x="677" vert-adv-y="1000"/><glyph glyph-name="uni0144" unicode="ń" d="M501 383q0-28-7-58L429 0H305l64 317q4 24 4 34 0 32-18 48.5T311 416q-34 0-64.5-22.5T205 316L141 0H17l104 521h119l-9-50q51 56 137 56 52 0 92.5-36.5T501 383m14 385L385 601H285l111 167h119z" horiz-adv-x="544" vert-adv-y="1000"/><glyph glyph-name="uni0145" unicode="Ņ" d="M690 712L547 0H435L250 445 160 0H28l143 712h112l186-446 89 446h132M350-57l-70-144H166l86 144h98z" horiz-adv-x="677" vert-adv-y="1000"/><glyph glyph-name="uni0146" unicode="ņ" d="M501 383q0-28-7-58L429 0H305l64 317q4 24 4 34 0 32-18 48.5T311 416q-34 0-64.5-22.5T205 316L141 0H17l104 521h119l-9-50q51 56 137 56 52 0 92.5-36.5T501 383M283-57l-70-144H99l86 144h98z" horiz-adv-x="544" vert-adv-y="1000"/><glyph glyph-name="uni0147" unicode="Ň" d="M690 712L547 0H435L250 445 160 0H28l143 712h112l186-446 89 446h132m-60 236L471 778H371l-92 170h92l59-95 99 95h101z" horiz-adv-x="677" vert-adv-y="1000"/><glyph glyph-name="uni0148" unicode="ň" d="M501 383q0-28-7-58L429 0H305l64 317q4 24 4 34 0 32-18 48.5T311 416q-34 0-64.5-22.5T205 316L141 0H17l104 521h119l-9-50q51 56 137 56 52 0 92.5-36.5T501 383m49 387L390 601h-99l-93 169h93l59-94 99 94h101z" horiz-adv-x="544" vert-adv-y="1000"/><glyph glyph-name="uni0149" unicode="ŉ" d="M501 383q0-28-7-58L429 0H305l64 317q4 24 4 34 0 32-18 48.5T311 416q-34 0-64.5-22.5T205 316L141 0H17l104 521h119l-9-50q51 56 137 56 52 0 92.5-36.5T501 383M165 740l-24-121-126-85 42 206h108z" horiz-adv-x="544" vert-adv-y="1000"/><glyph glyph-name="uni014A" unicode="Ŋ" d="M690 712L536-54q-14-69-57-108t-111-39h-77l21 105h38q46 0 56 53l15 76-171 412L160 0H28l143 712h112l186-446 89 446h132z" horiz-adv-x="677" vert-adv-y="1000"/><glyph glyph-name="uni014B" unicode="ŋ" d="M501 383q0-28-7-58L418-54q-14-69-57-108t-111-39h-77l21 105h46q46 0 56 53l73 360q4 24 4 34 0 32-18 48.5T311 416q-34 0-64.5-22.5T205 316L141 0H17l104 521h119l-9-50q51 56 137 56 52 0 92.5-36.5T501 383z" horiz-adv-x="544" vert-adv-y="1000"/><glyph glyph-name="uni014C" unicode="Ō" d="M595 516q0-60-20-160-23-118-43.5-177T469 76Q393-6 268-6 168-6 110.5 52T53 196q0 60 20 160 23 118 43.5 177T179 636q76 82 201 82 100 0 157.5-58T595 516m-132-11q0 46-26.5 71.5T371 602q-56 0-95-43-21-23-36.5-66.5T205 356q-20-100-20-149 0-46 26.5-71.5T277 110q56 0 95 43 21 23 36.5 66.5T443 356q20 98 20 149m106 369l-16-82H251l17 82h301z" horiz-adv-x="611" vert-adv-y="1000"/><glyph glyph-name="uni014D" unicode="ō" d="M477 355q0-37-10-94-16-81-37-127t-56-80Q311-6 214-6 141-6 89 38T37 166q0 42 11 95 16 81 37 127t56 79q62 60 160 60 72 0 124-44t52-128m-123-14q0 37-18 56t-48 19q-38 0-64-26-33-32-53-129-11-55-11-81 0-36 18-55.5t48-19.5q38 0 64 26 35 34 53 130 11 54 11 80m142 360l-16-82H178l17 82h301z" horiz-adv-x="515" vert-adv-y="1000"/><glyph glyph-name="uni014E" unicode="Ŏ" d="M595 516q0-60-20-160-23-118-43.5-177T469 76Q393-6 268-6 168-6 110.5 52T53 196q0 60 20 160 23 118 43.5 177T179 636q76 82 201 82 100 0 157.5-58T595 516m-132-11q0 46-26.5 71.5T371 602q-56 0-95-43-21-23-36.5-66.5T205 356q-20-100-20-149 0-46 26.5-71.5T277 110q56 0 95 43 21 23 36.5 66.5T443 356q20 98 20 149m101 410q-15-76-56.5-110T397 771q-64 0-99 31.5T263 884q0 14 3 31h82q-1-10-1-16 0-44 59-44 60 0 74 60h84z" horiz-adv-x="611" vert-adv-y="1000"/><glyph glyph-name="uni014F" unicode="ŏ" d="M477 355q0-37-10-94-16-81-37-127t-56-80Q311-6 214-6 141-6 89 38T37 166q0 42 11 95 16 81 37 127t56 79q62 60 160 60 72 0 124-44t52-128m-123-14q0 37-18 56t-48 19q-38 0-64-26-33-32-53-129-11-55-11-81 0-36 18-55.5t48-19.5q38 0 64 26 35 34 53 130 11 54 11 80m138 395q-15-76-56.5-110T325 592q-64 0-99 31.5T191 705q0 15 3 31h82q-1-10-1-16 0-44 59-44 60 0 74 60h84z" horiz-adv-x="515" vert-adv-y="1000"/><glyph glyph-name="uni0150" unicode="Ő" d="M595 516q0-60-20-160-23-118-43.5-177T469 76Q393-6 268-6 168-6 110.5 52T53 196q0 60 20 160 23 118 43.5 177T179 636q76 82 201 82 100 0 157.5-58T595 516m-132-11q0 46-26.5 71.5T371 602q-56 0-95-43-21-23-36.5-66.5T205 356q-20-100-20-149 0-46 26.5-71.5T277 110q56 0 95 43 21 23 36.5 66.5T443 356q20 98 20 149m213 440L545 778h-99l110 167h120m-198 0L348 778H248l110 167h120z" horiz-adv-x="611" vert-adv-y="1000"/><glyph glyph-name="uni0151" unicode="ő" d="M477 355q0-37-10-94-16-81-37-127t-56-80Q311-6 214-6 141-6 89 38T37 166q0 42 11 95 16 81 37 127t56 79q62 60 160 60 72 0 124-44t52-128m-123-14q0 37-18 56t-48 19q-38 0-64-26-33-32-53-129-11-55-11-81 0-36 18-55.5t48-19.5q38 0 64 26 35 34 53 130 11 54 11 80m246 427L469 600h-99l111 168h119m-197 0L272 600h-99l110 168h120z" horiz-adv-x="515" vert-adv-y="1000"/><glyph glyph-name="uni0152" unicode="Œ" d="M955 712l-23-116H621l-36-179h268l-23-116H562l-37-185h317L819 0H384l9 48Q343-6 265-6q-97 0-154.5 58T53 196q0 60 20 160 23 118 43.5 177T179 636q76 82 201 82 92 0 130-60l10 54h435M463 505q0 46-26.5 71.5T371 602q-56 0-95-43-21-23-36.5-66.5T205 356q-20-100-20-149 0-46 26.5-71.5T277 110q56 0 95 43 21 23 36.5 66.5T443 356q20 98 20 149z" horiz-adv-x="918" vert-adv-y="1000"/><glyph glyph-name="uni0153" unicode="œ" d="M301 527q42 0 78.5-17.5T438 459q63 68 162 68 83 0 134-51t51-135q0-47-16-118H457q-4-16-4-37 0-40 22.5-63.5T542 99q69 0 124 53l65-82Q649-6 528-6 425-6 377 63 314-6 214-6 141-6 89 38T37 166q0 42 11 95 16 81 37 127t56 79q62 60 160 60m53-185q0 36-18 55.5T288 417q-38 0-64-26-35-34-53-130-11-55-11-81 0-36 18-55.5t48-19.5q38 0 64 26 35 34 53 130 11 55 11 81m313-1q0 40-20 62t-54 22q-88 0-120-119h191q3 16 3 35z" horiz-adv-x="822" vert-adv-y="1000"/><glyph glyph-name="uni0154" unicode="Ŕ" d="M615 521q0-70-43-130.5T449 303L547 0H402l-83 288H219L160 0H28l143 712h250q101 0 147.5-54T615 521m-132-7q0 39-21.5 60T400 595H280l-40-197h120q61 0 92 36.5t31 79.5m100 432L452 778h-99l110 168h120z" horiz-adv-x="625" vert-adv-y="1000"/><glyph glyph-name="uni0155" unicode="ŕ" d="M474 478l-107-95q-24 32-57 32-37 0-66.5-27.5T205 315L142 0H18l104 521h120l-11-51q47 57 132 57 69 0 111-49m-41 290L303 601H203l111 167h119z" horiz-adv-x="430" vert-adv-y="1000"/><glyph glyph-name="uni0156" unicode="Ŗ" d="M615 521q0-70-43-130.5T449 303L547 0H402l-83 288H219L160 0H28l143 712h250q101 0 147.5-54T615 521m-132-7q0 39-21.5 60T400 595H280l-40-197h120q61 0 92 36.5t31 79.5M317-57l-70-144H133l86 144h98z" horiz-adv-x="625" vert-adv-y="1000"/><glyph glyph-name="uni0157" unicode="ŗ" d="M474 478l-107-95q-24 32-57 32-37 0-66.5-27.5T205 315L142 0H18l104 521h120l-11-51q47 57 132 57 69 0 111-49M118-57L48-201H-66L20-57h98z" horiz-adv-x="430" vert-adv-y="1000"/><glyph glyph-name="uni0158" unicode="Ř" d="M615 521q0-70-43-130.5T449 303L547 0H402l-83 288H219L160 0H28l143 712h250q101 0 147.5-54T615 521m-132-7q0 39-21.5 60T400 595H280l-40-197h120q61 0 92 36.5t31 79.5m134 434L458 778H358l-92 170h92l59-95 99 95h101z" horiz-adv-x="625" vert-adv-y="1000"/><glyph glyph-name="uni0159" unicode="ř" d="M474 478l-107-95q-24 32-57 32-37 0-66.5-27.5T205 315L142 0H18l104 521h120l-11-51q47 57 132 57 69 0 111-49m-10 292L304 601h-99l-93 169h93l59-94 99 94h101z" horiz-adv-x="430" vert-adv-y="1000"/><glyph glyph-name="uni015A" unicode="Ś" d="M577 632l-93-81q-44 52-126 52-59 0-95.5-33T226 495q0-31 20-46t56-24l59-14q87-21 124-64.5T522 226q0-114-82-173T237-6Q153-6 97.5 16.5T-3 92l96 84q55-65 156-65 59 0 100 30t41 73q0 36-18.5 53T315 293l-59 15q-83 21-122.5 65.5T94 477q0 105 75.5 173T373 718q134 0 204-86m-14 314L432 778h-99l110 168h120z" horiz-adv-x="563" vert-adv-y="1000"/><glyph glyph-name="uni015B" unicode="ś" d="M459 463l-85-75q-36 37-99 37-44 0-67.5-18.5T184 362q0-32 48-39l67-11q126-20 126-135 0-72-56-126Q311-6 188-6 59-6-13 72l89 78q43-50 120-50 50 0 78 19.5t28 45.5q0 35-49 43l-68 11q-66 11-95.5 43.5T60 337q0 77 53 130 60 60 173 60 110 0 173-64m32 305L361 601H261l111 167h119z" horiz-adv-x="475" vert-adv-y="1000"/><glyph glyph-name="uni015C" unicode="Ŝ" d="M577 632l-93-81q-44 52-126 52-59 0-95.5-33T226 495q0-31 20-46t56-24l59-14q87-21 124-64.5T522 226q0-114-82-173T237-6Q153-6 97.5 16.5T-3 92l96 84q55-65 156-65 59 0 100 30t41 73q0 36-18.5 53T315 293l-59 15q-83 21-122.5 65.5T94 477q0 105 75.5 173T373 718q134 0 204-86m-16 146h-92l-59 94-99-94H210l159 170h100l92-170z" horiz-adv-x="563" vert-adv-y="1000"/><glyph glyph-name="uni015D" unicode="ŝ" d="M459 463l-85-75q-36 37-99 37-44 0-67.5-18.5T184 362q0-32 48-39l67-11q126-20 126-135 0-72-56-126Q311-6 188-6 59-6-13 72l89 78q43-50 120-50 50 0 78 19.5t28 45.5q0 35-49 43l-68 11q-66 11-95.5 43.5T60 337q0 77 53 130 60 60 173 60 110 0 173-64m30 138h-91l-60 94-98-94H139l159 169h99l92-169z" horiz-adv-x="475" vert-adv-y="1000"/><glyph glyph-name="uni015E" unicode="Ş" d="M577 632l-93-81q-44 52-126 52-59 0-95.5-33T226 495q0-31 20-46t56-24l59-14q87-21 124-64.5T522 226q0-114-82-173T237-6Q153-6 97.5 16.5T-3 92l96 84q55-65 156-65 59 0 100 30t41 73q0 36-18.5 53T315 293l-59 15q-83 21-122.5 65.5T94 477q0 105 75.5 173T373 718q134 0 204-86M282-57l-70-144H99l86 144h97z" horiz-adv-x="563" vert-adv-y="1000"/><glyph glyph-name="uni015F" unicode="ş" d="M459 463l-85-75q-36 37-99 37-44 0-67.5-18.5T184 362q0-32 48-39l67-11q126-20 126-135 0-72-56-126Q311-6 188-6 59-6-13 72l89 78q43-50 120-50 50 0 78 19.5t28 45.5q0 35-49 43l-68 11q-66 11-95.5 43.5T60 337q0 77 53 130 60 60 173 60 110 0 173-64M234-57l-70-144H51l86 144h97z" horiz-adv-x="475" vert-adv-y="1000"/><glyph glyph-name="uni0160" unicode="Š" d="M577 632l-93-81q-44 52-126 52-59 0-95.5-33T226 495q0-31 20-46t56-24l59-14q87-21 124-64.5T522 226q0-114-82-173T237-6Q153-6 97.5 16.5T-3 92l96 84q55-65 156-65 59 0 100 30t41 73q0 36-18.5 53T315 293l-59 15q-83 21-122.5 65.5T94 477q0 105 75.5 173T373 718q134 0 204-86m20 316L438 778H338l-92 170h92l59-95 99 95h101z" horiz-adv-x="563" vert-adv-y="1000"/><glyph glyph-name="uni0161" unicode="š" d="M459 463l-85-75q-36 37-99 37-44 0-67.5-18.5T184 362q0-32 48-39l67-11q126-20 126-135 0-72-56-126Q311-6 188-6 59-6-13 72l89 78q43-50 120-50 50 0 78 19.5t28 45.5q0 35-49 43l-68 11q-66 11-95.5 43.5T60 337q0 77 53 130 60 60 173 60 110 0 173-64m67 307L366 601h-99l-93 169h93l59-94 99 94h101z" horiz-adv-x="475" vert-adv-y="1000"/><glyph glyph-name="uni0162" unicode="Ţ" d="M605 712l-23-117H407L288 0H156l119 595H96l23 117h486M259-57l-70-144H76l86 144h97z" horiz-adv-x="544" vert-adv-y="1000"/><glyph glyph-name="uni0163" unicode="ţ" d="M341 505l-19-94h-86l-51-256q-2-10-2-19 0-32 40-32h45L247 0h-64q-55 0-90.5 30.5T57 113q0 21 4 43l51 255H59l19 94h53l31 156h124l-31-156h86M172-57l-70-144H-12L74-57h98z" horiz-adv-x="337" vert-adv-y="1000"/><glyph glyph-name="uni0164" unicode="Ť" d="M605 712l-23-117H407L288 0H156l119 595H96l23 117h486m-20 236L426 778H326l-92 170h92l59-95 99 95h101z" horiz-adv-x="544" vert-adv-y="1000"/><glyph glyph-name="uni0165" unicode="ť" d="M341 505l-19-94h-86l-51-256q-2-10-2-19 0-32 40-32h45L247 0h-64q-55 0-90.5 30.5T57 113q0 21 4 43l51 255H59l19 94h53l31 156h124l-31-156h86m167 235l-91-165h-91l67 165h115z" horiz-adv-x="337" vert-adv-y="1000"/><glyph glyph-name="uni0166" unicode="Ŧ" d="M605 712l-23-117H407l-37-186h88l-20-100h-88L288 0H156l62 309h-88l20 100h88l37 186H96l23 117h486z" horiz-adv-x="544" vert-adv-y="1000"/><glyph glyph-name="uni0167" unicode="ŧ" d="M23 236l19 96h54l16 79H59l19 94h53l31 156h124l-31-156h86l-19-94h-86l-16-79h85l-19-96h-85l-16-81q-2-10-2-19 0-32 40-32h45L247 0h-64q-55 0-90.5 30.5T57 113q0 21 4 43l16 80H23z" horiz-adv-x="337" vert-adv-y="1000"/><glyph glyph-name="uni0168" unicode="Ũ" d="M658 712l-94-468Q539 119 461.5 56.5T279-6q-93 0-155 55.5T62 197q0 26 7 61l91 454h132l-93-462q-5-25-5-44 0-40 23.5-67.5T288 111q57 0 95 37.5T435 257l91 455h132m-55 130q-55-52-111-52-40 0-77 22-28 17-53 17-29 0-62-31l-45 60q57 52 111 52 40 0 77-22 28-17 53-17 30 0 62 30l45-59z" horiz-adv-x="635" vert-adv-y="1000"/><glyph glyph-name="uni0169" unicode="ũ" d="M528 521L424 0H305l9 50Q263-6 178-6q-53 0-93.5 36.5T44 139q0 17 7 57l65 325h124l-64-317q-4-22-4-34 0-32 18-48.5t44-16.5q34 0 64.5 22.5T340 205l64 316h124m-9 138q-55-52-111-52-40 0-77 22-28 17-52 17-31 0-62-31l-45 60q55 52 110 52 40 0 77-22 28-17 53-17 30 0 62 30l45-59z" horiz-adv-x="544" vert-adv-y="1000"/><glyph glyph-name="uni016A" unicode="Ū" d="M658 712l-94-468Q539 119 461.5 56.5T279-6q-93 0-155 55.5T62 197q0 26 7 61l91 454h132l-93-462q-5-25-5-44 0-40 23.5-67.5T288 111q57 0 95 37.5T435 257l91 455h132m-73 162l-16-82H267l17 82h301z" horiz-adv-x="635" vert-adv-y="1000"/><glyph glyph-name="uni016B" unicode="ū" d="M528 521L424 0H305l9 50Q263-6 178-6q-53 0-93.5 36.5T44 139q0 17 7 57l65 325h124l-64-317q-4-22-4-34 0-32 18-48.5t44-16.5q34 0 64.5 22.5T340 205l64 316h124m-25 180l-16-82H185l17 82h301z" horiz-adv-x="544" vert-adv-y="1000"/><glyph glyph-name="uni016C" unicode="Ŭ" d="M658 712l-94-468Q539 119 461.5 56.5T279-6q-93 0-155 55.5T62 197q0 26 7 61l91 454h132l-93-462q-5-25-5-44 0-40 23.5-67.5T288 111q57 0 95 37.5T435 257l91 455h132m-65 203q-15-76-56.5-110T426 771q-64 0-99 31.5T292 884q0 14 3 31h82q-1-10-1-16 0-44 59-44 60 0 74 60h84z" horiz-adv-x="635" vert-adv-y="1000"/><glyph glyph-name="uni016D" unicode="ŭ" d="M528 521L424 0H305l9 50Q263-6 178-6q-53 0-93.5 36.5T44 139q0 17 7 57l65 325h124l-64-317q-4-22-4-34 0-32 18-48.5t44-16.5q34 0 64.5 22.5T340 205l64 316h124m-25 215q-15-76-56.5-110T336 592q-64 0-99 31.5T202 705q0 15 3 31h82q-1-10-1-16 0-44 59-44 60 0 74 60h84z" horiz-adv-x="544" vert-adv-y="1000"/><glyph glyph-name="uni016E" unicode="Ů" d="M658 712l-94-468Q539 119 461.5 56.5T279-6q-93 0-155 55.5T62 197q0 26 7 61l91 454h132l-93-462q-5-25-5-44 0-40 23.5-67.5T288 111q57 0 95 37.5T435 257l91 455h132M521 968.5l18.5-18.25Q558 932 558 878t-37-90.5Q484 751 432 751q-53 0-90 36.5T305 878q0 54 37 90.5t90 36.5q52 0 89-36.5M472.5 837l8.75 8.5Q490 854 490 878t-17.5 41Q455 936 432 936t-40.5-17Q374 902 374 878t17.5-41q17.5-17 40.5-17t40.5 17z" horiz-adv-x="635" vert-adv-y="1000"/><glyph glyph-name="uni016F" unicode="ů" d="M528 521L424 0H305l9 50Q263-6 178-6q-53 0-93.5 36.5T44 139q0 17 7 57l65 325h124l-64-317q-4-22-4-34 0-32 18-48.5t44-16.5q34 0 64.5 22.5T340 205l64 316h124m-89 280l18.5-18q18.5-18 18.5-72t-37-90.5Q402 584 349 584q-52 0-89 36.5T223 711q0 53 37 89.5t89 36.5q53 0 90-36m-31-90q0 23-18 40t-41 17q-23 0-40.5-17T291 711q0-24 17.5-41.5T349 652q23 0 41 17.5t18 41.5z" horiz-adv-x="544" vert-adv-y="1000"/><glyph glyph-name="uni0170" unicode="Ű" d="M658 712l-94-468Q539 119 461.5 56.5T279-6q-93 0-155 55.5T62 197q0 26 7 61l91 454h132l-93-462q-5-25-5-44 0-40 23.5-67.5T288 111q57 0 95 37.5T435 257l91 455h132m34 233L561 778h-99l110 167h120m-198 0L364 778H264l110 167h120z" horiz-adv-x="635" vert-adv-y="1000"/><glyph glyph-name="uni0171" unicode="ű" d="M528 521L424 0H305l9 50Q263-6 178-6q-53 0-93.5 36.5T44 139q0 17 7 57l65 325h124l-64-317q-4-22-4-34 0-32 18-48.5t44-16.5q34 0 64.5 22.5T340 205l64 316h124m79 247L476 600h-99l111 168h119m-197 0L279 600h-99l110 168h120z" horiz-adv-x="544" vert-adv-y="1000"/><glyph glyph-name="uni0172" unicode="Ų" d="M658 712l-94-468Q539 119 461.5 56.5T279-6q-93 0-155 55.5T62 197q0 26 7 61l91 454h132l-93-462q-5-25-5-44 0-40 23.5-67.5T288 111q57 0 95 37.5T435 257l91 455h132M418-57l-70-144H235l86 144h97z" horiz-adv-x="635" vert-adv-y="1000"/><glyph glyph-name="uni0173" unicode="ų" d="M528 521L424 0H305l9 50Q263-6 178-6q-53 0-93.5 36.5T44 139q0 17 7 57l65 325h124l-64-317q-4-22-4-34 0-32 18-48.5t44-16.5q34 0 64.5 22.5T340 205l64 316h124M387-57l-70-144H204l86 144h97z" horiz-adv-x="544" vert-adv-y="1000"/><glyph glyph-name="uni0174" unicode="Ŵ" d="M929 712L611 0H500l-37 438L247 0H137L95 712h136l16-455 216 455h99l35-455 192 455h140m-229 66h-92l-59 94-99-94H349l159 170h100l92-170z" horiz-adv-x="846" vert-adv-y="1000"/><glyph glyph-name="uni0175" unicode="ŵ" d="M765 521L516 0h-98l-41 331L206 0H106L57 521h124l18-325 165 325h90l38-325 142 325h131m-163 80h-91l-60 94-98-94H252l159 169h99l92-169z" horiz-adv-x="719" vert-adv-y="1000"/><glyph glyph-name="uni0176" unicode="Ŷ" d="M635 712L349 287 291 0H159l59 292L89 712h140l76-295 184 295h146m-101 66h-92l-59 94-99-94H183l159 170h100l92-170z" horiz-adv-x="550" vert-adv-y="1000"/><glyph glyph-name="uni0177" unicode="ŷ" d="M515 521L190-84q-20-38-43-61-46-46-124-46h-48L-2-79h28q26 0 41 12.5T97-25l33 62-74 484h123l38-336 167 336h131m-49 80h-91l-60 94-98-94H116l159 169h99l92-169z" horiz-adv-x="464" vert-adv-y="1000"/><glyph glyph-name="uni0178" unicode="Ÿ" d="M635 712L349 287 291 0H159l59 292L89 712h140l76-295 184 295h146m-90 190l-24-122H415l24 122h106m-209 0l-24-122H206l24 122h106z" horiz-adv-x="550" vert-adv-y="1000"/><glyph glyph-name="uni0179" unicode="Ź" d="M575 712l-21-103-382-492h290L438 0H-12l22 105 379 490H114l23 117h438m-35 234L409 778h-99l110 168h120z" horiz-adv-x="526" vert-adv-y="1000"/><glyph glyph-name="uni017A" unicode="ź" d="M470 521l-19-95-279-315h223L373 0H-13L6 95l277 315H75l22 111h373m3 247L343 601H243l111 167h119z" horiz-adv-x="461" vert-adv-y="1000"/><glyph glyph-name="uni017B" unicode="Ż" d="M575 712l-21-103-382-492h290L438 0H-12l22 105 379 490H114l23 117h438M443 900l-23-114H313l23 114h107z" horiz-adv-x="526" vert-adv-y="1000"/><glyph glyph-name="uni017C" unicode="ż" d="M470 521l-19-95-279-315h223L373 0H-13L6 95l277 315H75l22 111h373m-95 202l-22-114H245l24 114h106z" horiz-adv-x="461" vert-adv-y="1000"/><glyph glyph-name="uni017D" unicode="Ž" d="M575 712l-21-103-382-492h290L438 0H-12l22 105 379 490H114l23 117h438m-1 236L415 778H315l-92 170h92l59-95 99 95h101z" horiz-adv-x="526" vert-adv-y="1000"/><glyph glyph-name="uni017E" unicode="ž" d="M470 521l-19-95-279-315h223L373 0H-13L6 95l277 315H75l22 111h373m38 249L348 601h-99l-93 169h93l59-94 99 94h101z" horiz-adv-x="461" vert-adv-y="1000"/><glyph glyph-name="uni017F" unicode="ſ" d="M376 720l-21-105h-44q-47 0-57-51L141 0H17l116 577q28 143 170 143h73z" horiz-adv-x="262" vert-adv-y="1000"/><glyph glyph-name="uni018F" unicode="Ə" d="M600 516q0-55-21-160-24-119-44-176.5T472 76Q397-6 272-6 172-6 112.5 52T53 196q0 72 17 148l11 50h372q14 81 14 111 0 46-26.5 71.5T375 602q-60 0-100-43-20-22-35-64H105q26 90 75 141 76 82 205 82 99 0 157-58t58-144M430 284H193q-8-45-8-77 0-46 28-71.5t69-25.5q55 0 95 43 30 31 53 131z" horiz-adv-x="614" vert-adv-y="1000"/><glyph glyph-name="uni0192" unicode="ƒ" d="M469 719l-20-103h-64q-45 0-62-48l-62-171h93l-20-94H227L46-191H-78l181 494H39l18 94h81l63 174q29 81 76.5 114.5T402 719h67z" horiz-adv-x="406" vert-adv-y="1000"/><glyph glyph-name="uni01B5" unicode="Ƶ" d="M575 712l-21-103-155-199h49l-20-100H322L172 117h290L438 0H-12l22 105 158 205h-47l20 100h105l143 185H114l23 117h438z" horiz-adv-x="526" vert-adv-y="1000"/><glyph glyph-name="uni01B6" unicode="ƶ" d="M470 521l-19-95-113-127h29l-16-78h-82l-97-110h223L373 0H-13L6 95l111 126H89l16 78h80l98 111H75l22 111h373z" horiz-adv-x="461" vert-adv-y="1000"/><glyph glyph-name="uni01C4" unicode="Ǆ" d="M614 513q0-38-23-154-26-134-47.5-190T477 70Q404 0 281 0H28l143 712h233q94 0 152-50t58-149m-133-11q0 47-26.5 70.5T381 596H280l-96-480h100q64 0 104 39 22 22 37 63.5T459 359q22 113 22 143m720 210l-21-103-382-492h290L1064 0H614l22 105 379 490H740l23 117h438m-1 236l-159-170H941l-92 170h92l59-95 99 95h101z" horiz-adv-x="1152" vert-adv-y="1000"/><glyph glyph-name="uni01C5" unicode="ǅ" d="M614 513q0-38-23-154-26-134-47.5-190T477 70Q404 0 281 0H28l143 712h233q94 0 152-50t58-149m-133-11q0 47-26.5 70.5T381 596H280l-96-480h100q64 0 104 39 22 22 37 63.5T459 359q22 113 22 143m615 19l-19-95-279-315h223L999 0H613l19 95 277 315H701l22 111h373m38 249L974 601h-99l-93 169h93l59-94 99 94h101z" horiz-adv-x="1087" vert-adv-y="1000"/><glyph glyph-name="uni01C6" unicode="ǆ" d="M555 712L413 0H293l11 50Q255-6 175-6 100-6 67 37.5T34 140q0 39 16 121 32 164 83 215t132 51q82 0 118-56l48 241h124M352 345q0 71-62 71-52 0-76-37.5T174 261q-11-59-11-84 0-72 62-72 51 0 75.5 38T341 261q11 59 11 84m651 176l-19-95-279-315h223L906 0H520l19 95 277 315H608l22 111h373m38 249L881 601h-99l-93 169h93l59-94 99 94h101z" horiz-adv-x="994" vert-adv-y="1000"/><glyph glyph-name="uni01C7" unicode="Ǉ" d="M494 116L471 0H28l143 712h132L184 116h310m563 596l-98-487q-14-68-44.5-116.5t-69.5-72q-39-23.5-74.5-33T699-6Q580-6 520 71l95 81q33-42 87-42 42 0 78 28.5t49 94.5l96 479h132z" horiz-adv-x="1035" vert-adv-y="1000"/><glyph glyph-name="uni01C8" unicode="ǈ" d="M494 116L471 0H28l143 712h132L184 116h310m299 389L683-48q-14-69-57-108t-111-39h-77l21 105h45q46 0 56 53l109 542h124m42 205l-21-103H687l20 103h128z" horiz-adv-x="812" vert-adv-y="1000"/><glyph glyph-name="uni01C9" unicode="ǉ" d="M280 712L169 157q-3-13-3-22 0-30 38-30h51L234 0h-68q-55 0-90 30.5T41 113q0 24 4 43l111 556h124m274-207L444-48q-14-69-57-108t-111-39h-77l21 105h45q46 0 56 53l109 542h124m42 205l-21-103H448l20 103h128z" horiz-adv-x="573" vert-adv-y="1000"/><glyph glyph-name="uni01CA" unicode="Ǌ" d="M690 712L547 0H435L250 445 160 0H28l143 712h112l186-446 89 446h132m494 0l-98-487q-14-68-44.5-116.5t-69.5-72q-39-23.5-74.5-33T826-6Q707-6 647 71l95 81q33-42 87-42 42 0 78 28.5t49 94.5l96 479h132z" horiz-adv-x="1162" vert-adv-y="1000"/><glyph glyph-name="uni01CB" unicode="ǋ" d="M690 712L547 0H435L250 445 160 0H28l143 712h112l186-446 89 446h132m230-207L810-48q-14-69-57-108t-111-39h-77l21 105h45q46 0 56 53l109 542h124m42 205l-21-103H814l20 103h128z" horiz-adv-x="939" vert-adv-y="1000"/><glyph glyph-name="uni01CC" unicode="ǌ" d="M501 383q0-28-7-58L429 0H305l64 317q4 24 4 34 0 32-18 48.5T311 416q-34 0-64.5-22.5T205 316L141 0H17l104 521h119l-9-50q51 56 137 56 52 0 92.5-36.5T501 383m286 122L677-48q-14-69-57-108t-111-39h-77l21 105h45q46 0 56 53l109 542h124m42 205l-21-103H681l20 103h128z" horiz-adv-x="806" vert-adv-y="1000"/><glyph glyph-name="uni01F1" unicode="Ǳ" d="M614 513q0-38-23-154-26-134-47.5-190T477 70Q404 0 281 0H28l143 712h233q94 0 152-50t58-149m-133-11q0 47-26.5 70.5T381 596H280l-96-480h100q64 0 104 39 22 22 37 63.5T459 359q22 113 22 143m720 210l-21-103-382-492h290L1064 0H614l22 105 379 490H740l23 117h438z" horiz-adv-x="1152" vert-adv-y="1000"/><glyph glyph-name="uni01F2" unicode="ǲ" d="M614 513q0-38-23-154-26-134-47.5-190T477 70Q404 0 281 0H28l143 712h233q94 0 152-50t58-149m-133-11q0 47-26.5 70.5T381 596H280l-96-480h100q64 0 104 39 22 22 37 63.5T459 359q22 113 22 143m615 19l-19-95-279-315h223L999 0H613l19 95 277 315H701l22 111h373z" horiz-adv-x="1087" vert-adv-y="1000"/><glyph glyph-name="uni01F3" unicode="ǳ" d="M555 712L413 0H293l11 50Q255-6 175-6 100-6 67 37.5T34 140q0 39 16 121 32 164 83 215t132 51q82 0 118-56l48 241h124M352 345q0 71-62 71-52 0-76-37.5T174 261q-11-59-11-84 0-72 62-72 51 0 75.5 38T341 261q11 59 11 84m651 176l-19-95-279-315h223L906 0H520l19 95 277 315H608l22 111h373z" horiz-adv-x="994" vert-adv-y="1000"/><glyph glyph-name="uni01FA" unicode="Ǻ" d="M552 0H418l-15 130H162L95 0H-46l388 712h105L552 0M393 238l-34 274-143-274h177m98 730.5l18.5-18.25Q528 932 528 878t-37-90.5Q454 751 402 751q-53 0-90 36.5T275 878q0 54 37 90.5t90 36.5q52 0 89-36.5M442.5 837l8.75 8.5Q460 854 460 878t-17.5 41Q425 936 402 936t-40.5-17Q344 902 344 878t17.5-41q17.5-17 40.5-17t40.5 17M621 1183l-131-168h-99l110 168h120z" horiz-adv-x="607" vert-adv-y="1000"/><glyph glyph-name="uni01FB" unicode="ǻ" d="M469 382q0-23-5-46L396 0H277l9 46Q235-5 160-5 93-5 52 33.5T11 132q0 76 47 123 55 54 152 54h124l7 31q3 15 3 27 0 56-77 56-68 0-112-49l-64 83q68 70 193 70 76 0 130.5-34.5T469 382M317 224h-95q-41 0-65-22.5T133 144q0-49 66-49 49 0 81 32 23 23 31 66l6 31m106 577l18.5-18q18.5-18 18.5-72t-37-90.5Q386 584 333 584q-52 0-89 36.5T207 711q0 53 37 89.5t89 36.5q53 0 90-36m-31-90q0 23-18 40t-41 17q-23 0-40.5-17T275 711q0-24 17.5-41.5T333 652q23 0 41 17.5t18 41.5m146 303L408 847H308l111 167h119z" horiz-adv-x="509" vert-adv-y="1000"/><glyph glyph-name="uni01FC" unicode="Ǽ" d="M977 712l-23-115H641l-35-181h268l-23-115H582l-37-186h317L839 0H390l32 163H210L98 0H-48l496 712h529M509 596L286 273h159l64 323m274 350L652 778h-99l110 168h120z" horiz-adv-x="940" vert-adv-y="1000"/><glyph glyph-name="uni01FD" unicode="ǽ" d="M764 342q0-46-16-119H436q-4-28-4-37 0-40 22.5-63.5T521 99q69 0 124 53l65-82Q628-6 507-6 400-6 349 67 281-6 177-6 99-6 54.5 30T10 132q0 75 46 121 54 54 153 54h125l6 31q3 13 3 29 0 56-77 56-70 0-112-49l-64 83q68 70 194 70 98 0 146-56 63 56 148 56 84 0 135-50t51-135M317 223h-96q-41 0-65-22t-24-57q0-49 66-49 49 0 81 32 24 22 32 65l6 31m329 119q0 40-20 61.5T572 425q-88 0-120-118h191q3 17 3 35m-15 426L501 601H401l111 167h119z" horiz-adv-x="802" vert-adv-y="1000"/><glyph glyph-name="uni01FE" unicode="Ǿ" d="M595 516q0-60-20-160-23-118-43.5-177T469 76Q393-6 268-6q-64 0-112 25l-41-63H19L94 70q-41 53-41 126 0 60 20 160 23 118 43.5 177T179 636q76 82 201 82 63 0 114-27l42 65h96l-76-117q39-53 39-123M185 207v-5l244 381q-25 19-58 19-56 0-95-43-21-23-36.5-66.5T205 356q-20-100-20-149m278 298v3L219 128q24-18 58-18 56 0 95 43 21 23 36.5 66.5T443 356q20 98 20 149m114 441L446 778h-99l110 168h120z" horiz-adv-x="611" vert-adv-y="1000"/><glyph glyph-name="uni01FF" unicode="ǿ" d="M477 355q0-37-10-94-16-81-37-127t-56-80Q311-6 214-6q-56 0-100 25L68-44H-8L69 60q-32 42-32 106 0 42 11 95 16 81 37 127t56 79q62 60 160 60 57 0 100-26l48 62h76l-79-103q31-42 31-105M160 167l173 233q-17 17-45 17-38 0-64-26-35-34-53-130-11-55-11-94m194 175v6L184 118q19-13 42-13 38 0 64 26 35 34 53 130 11 55 11 81m147 426L371 601H271l111 167h119z" horiz-adv-x="517" vert-adv-y="1000"/><glyph glyph-name="uni0218" unicode="Ș" d="M577 632l-93-81q-44 52-126 52-59 0-95.5-33T226 495q0-31 20-46t56-24l59-14q87-21 124-64.5T522 226q0-114-82-173T237-6Q153-6 97.5 16.5T-3 92l96 84q55-65 156-65 59 0 100 30t41 73q0 36-18.5 53T315 293l-59 15q-83 21-122.5 65.5T94 477q0 105 75.5 173T373 718q134 0 204-86M282-57l-70-144H98l86 144h98z" horiz-adv-x="563" vert-adv-y="1000"/><glyph glyph-name="uni0219" unicode="ș" d="M459 463l-85-75q-36 37-99 37-44 0-67.5-18.5T184 362q0-32 48-39l67-11q126-20 126-135 0-72-56-126Q311-6 188-6 59-6-13 72l89 78q43-50 120-50 50 0 78 19.5t28 45.5q0 35-49 43l-68 11q-66 11-95.5 43.5T60 337q0 77 53 130 60 60 173 60 110 0 173-64M234-57l-70-144H50l86 144h98z" horiz-adv-x="475" vert-adv-y="1000"/><glyph glyph-name="uni021A" unicode="Ț" d="M605 712l-23-117H407L288 0H156l119 595H96l23 117h486M260-57l-70-144H76l86 144h98z" horiz-adv-x="544" vert-adv-y="1000"/><glyph glyph-name="uni021B" unicode="ț" d="M341 505l-19-94h-86l-51-256q-2-10-2-19 0-32 40-32h45L247 0h-64q-55 0-90.5 30.5T57 113q0 21 4 43l51 255H59l19 94h53l31 156h124l-31-156h86M172-57l-70-144H-12L74-57h98z" horiz-adv-x="337" vert-adv-y="1000"/><glyph glyph-name="uni0237" unicode="ȷ" d="M243 505L133-48q-14-69-57-108t-111-39h-77l21 105h45q46 0 56 53l109 542h124z" horiz-adv-x="262" vert-adv-y="1000"/><glyph glyph-name="uni0259" unicode="ə" d="M37 180q0 47 16 118h312q4 16 4 37 0 40-22.5 63.5T280 422q-69 0-124-53l-65 82q82 76 203 76 78 0 135.5-44.5T487 344q0-91-27.5-168.5T370 46Q308-6 222-6 139-6 88 45T37 180m118 0q0-40 20-62t54-22q88 0 120 119H158q-3-17-3-35z" horiz-adv-x="523" vert-adv-y="1000"/><glyph glyph-name="uni02BB" unicode="ʻ" d="M306 817l-45-228H132l24 123 150 105z" horiz-adv-x="258" vert-adv-y="1000"/><glyph glyph-name="uni02BC" unicode="ʼ" d="M285 712l-24-124-150-104 45 228h129z" horiz-adv-x="258" vert-adv-y="1000"/><glyph glyph-name="uni02C6" unicode="ˆ" d="M499 601h-91l-60 94-98-94H149l159 169h99l92-169z" horiz-adv-x="514" vert-adv-y="1000"/><glyph glyph-name="uni02C7" unicode="ˇ" d="M536 770L376 601h-99l-93 169h93l59-94 99 94h101z" horiz-adv-x="514" vert-adv-y="1000"/><glyph glyph-name="uni02D8" unicode="˘" d="M496 736q-15-76-56.5-110T329 592q-64 0-99 31.5T195 705q0 15 3 31h82q-1-10-1-16 0-44 59-44 60 0 74 60h84z" horiz-adv-x="515" vert-adv-y="1000"/><glyph glyph-name="uni02D9" unicode="˙" d="M403 723l-22-114H273l24 114h106z" horiz-adv-x="514" vert-adv-y="1000"/><glyph glyph-name="uni02DA" unicode="˚" d="M432 801l18.5-18q18.5-18 18.5-72t-37-90.5Q395 584 342 584q-52 0-89 36.5T216 711q0 53 37 89.5t89 36.5q53 0 90-36m-31-90q0 23-18 40t-41 17q-23 0-40.5-17T284 711q0-24 17.5-41.5T342 652q23 0 41 17.5t18 41.5z" horiz-adv-x="514" vert-adv-y="1000"/><glyph glyph-name="uni02DB" unicode="˛" d="M257-57l-70-144H74l86 144h97z" horiz-adv-x="515" vert-adv-y="1000"/><glyph glyph-name="uni02DC" unicode="˜" d="M510 659q-55-52-111-52-40 0-77 22-28 17-52 17-31 0-62-31l-45 60q55 52 110 52 40 0 77-22 28-17 53-17 30 0 62 30l45-59z" horiz-adv-x="514" vert-adv-y="1000"/><glyph glyph-name="uni02DD" unicode="˝" d="M600 768L469 600h-99l111 168h119m-197 0L272 600h-99l110 168h120z" horiz-adv-x="515" vert-adv-y="1000"/><glyph glyph-name="uni0394" unicode="Δ" d="M550 0H-48l389 712h105L550 0M410 110l-48 403-214-403h262z" horiz-adv-x="604" vert-adv-y="1000"/><glyph glyph-name="uni03A9" unicode="Ω" d="M597 516q0-43-22-160-16-81-29.5-121.5T510 163q-22-31-39-46h62L509 0H297l20 103q34 14 55 38t35.5 66.5Q422 250 441 349q22 113 22 156 0 48-25.5 72T376 601q-59 0-100-42-20-21-35-65t-35-145q-23-116-23-158 0-64 50-88L213 0H10l23 117h61q-34 45-34 112 0 51 15 127 23 118 44 177.5T184 637q39 39 92 60t106 21q98 0 156.5-58T597 516z" horiz-adv-x="611" vert-adv-y="1000"/><glyph glyph-name="uni03BC" unicode="μ" d="M531 521L427 0H308l10 50Q264-6 181-6q-25 0-40 15l-40-200H-23l142 712h124l-64-317q-3-16-3-34 0-32 18-48.5t43-16.5q34 0 65 22.5t42 77.5l63 316h124z" horiz-adv-x="548" vert-adv-y="1000"/><glyph glyph-name="uni03C0" unicode="π" d="M533 521L428 0H304l85 420H225L141 0H17l104 521h412z" horiz-adv-x="576" vert-adv-y="1000"/><glyph glyph-name="uni0400" unicode="Ѐ" d="M435 778h-92l-71 168h118l45-168m180-66l-23-116H280l-36-179h269l-23-116H221l-37-185h318L479 0H28l143 712h444z" horiz-adv-x="578" vert-adv-y="1000"/><glyph glyph-name="uni0401" unicode="Ё" d="M615 712l-23-116H280l-36-179h269l-23-116H221l-37-185h318L479 0H28l143 712h444m-44 190l-24-122H441l24 122h106m-209 0l-24-122H232l24 122h106z" horiz-adv-x="578" vert-adv-y="1000"/><glyph glyph-name="uni0402" unicode="Ђ" d="M639 251q0-103-70.5-177T376 0h-39l23 117h21q59 0 92.5 38t33.5 85q0 85-84 85H321L255 0H123l119 595H95l24 117h484l-24-117H374l-30-153h101q91 0 142.5-51.5T639 251z" horiz-adv-x="682" vert-adv-y="1000"/><glyph glyph-name="uni0403" unicode="Ѓ" d="M543 946L412 778h-99l110 168h120m56-234l-23-116H279L159 0H27l143 712h429z" horiz-adv-x="532" vert-adv-y="1000"/><glyph glyph-name="uni0404" unicode="Є" d="M597 498H465q-1 47-23.5 75.5T372 602q-54 0-95-41-33-35-58-143h203l-22-110H198q-12-64-12-102 0-45 26.5-70.5T281 110q49 0 82.5 30t49.5 74h136Q514 106 441 50T271-6Q171-6 112 51.5T53 196q0 61 21 160 24 120 44 178t62 103q77 81 201 81 105 0 160.5-61.5T597 498z" horiz-adv-x="592" vert-adv-y="1000"/><glyph glyph-name="uni0405" unicode="Ѕ" d="M577 632l-93-81q-44 52-126 52-59 0-95.5-33T226 495q0-31 20-46t56-24l59-14q87-21 124-64.5T522 226q0-114-82-173T237-6Q153-6 97.5 16.5T-3 92l96 84q55-65 156-65 59 0 100 30t41 73q0 36-18.5 53T315 293l-59 15q-83 21-122.5 65.5T94 477q0 105 75.5 173T373 718q134 0 204-86z" horiz-adv-x="563" vert-adv-y="1000"/><glyph glyph-name="uni0406" unicode="І" d="M303 712L160 0H28l143 712h132z" horiz-adv-x="290" vert-adv-y="1000"/><glyph glyph-name="uni0407" unicode="Ї" d="M303 712L160 0H28l143 712h132m123 190l-24-122H296l24 122h106m-209 0l-24-122H87l24 122h106z" horiz-adv-x="290" vert-adv-y="1000"/><glyph glyph-name="uni0408" unicode="Ј" d="M507 712l-98-487q-14-68-44.5-116.5t-69.5-72q-39-23.5-74.5-33T149-6Q30-6-30 71l95 81q33-42 87-42 42 0 78 28.5t49 94.5l96 479h132z" horiz-adv-x="485" vert-adv-y="1000"/><glyph glyph-name="uni0409" unicode="Љ" d="M919 247q0-101-71-174T655 0H392l119 595H347l-43-212q-31-151-71.5-235T141 32Q90 0 13 0h-56l22 116h20q30 0 52.5 10.5t45 38.5q22.5 28 41.5 82t35 135l67 330h427l-56-276h116q89 0 140.5-52T919 247m-133-11q0 37-19.5 60T705 319H588l-40-202h113q59 0 92 37t33 82z" horiz-adv-x="958" vert-adv-y="1000"/><glyph glyph-name="uni040A" unicode="Њ" d="M915 247q0-101-70.5-174T652 0H388l65 319H224L159 0H27l143 712h132l-54-276h229l54 276h132l-55-276h116q89 0 140-52t51-137m-133-11q0 37-19 60t-61 23H585l-41-202h113q60 0 92.5 37t32.5 82z" horiz-adv-x="955" vert-adv-y="1000"/><glyph glyph-name="uni040B" unicode="Ћ" d="M639 257q0-26-7-59L592 0H460l42 207q5 25 5 38 0 36-20 58t-63 22H321L255 0H123l119 595H95l24 117h484l-24-117H374l-30-153h103q90 0 141-49t51-136z" horiz-adv-x="703" vert-adv-y="1000"/><glyph glyph-name="uni040C" unicode="Ќ" d="M670 712L373 374 548 0H390L235 372l277 340h158m-367 0L160 0H28l143 712h132m290 234L462 778h-99l110 168h120z" horiz-adv-x="614" vert-adv-y="1000"/><glyph glyph-name="uni040D" unicode="Ѝ" d="M689 712L546 0H414l89 435L140 0H27l143 712h132l-87-436 361 436h113m-222 66h-92l-71 168h118l45-168z" horiz-adv-x="677" vert-adv-y="1000"/><glyph glyph-name="uni040E" unicode="Ў" d="M662 712L293 126q-44-70-88.5-98T90 0H27l22 116h44q60 0 98 59l33 52L93 712h141l76-360 206 360h146M555 883q-14-76-58.5-107T383 745q-69 0-104.5 30.5T243 853q0 14 3 30h92q-1-10-1-16 0-22 14.5-34t38.5-12q56 0 70 62h95z" horiz-adv-x="577" vert-adv-y="1000"/><glyph glyph-name="uni040F" unicode="Џ" d="M657 712L514 0H334l-29-152H178L207 0H27l143 712h132L183 117h223l119 595h132z" horiz-adv-x="646" vert-adv-y="1000"/><glyph glyph-name="uni0410" unicode="А" d="M552 0H418l-15 130H162L95 0H-46l388 712h105L552 0M393 238l-34 274-143-274h177z" horiz-adv-x="607" vert-adv-y="1000"/><glyph glyph-name="uni0411" unicode="Б" d="M610 712l-23-116H279l-32-160h121q89 0 140-52t51-137q0-102-70.5-174.5T295 0H27l143 712h440M426 236q0 37-19 60t-61 23H224l-41-202h118q60 0 92.5 37t32.5 82z" horiz-adv-x="608" vert-adv-y="1000"/><glyph glyph-name="uni0412" unicode="В" d="M614 547q0-128-116-186 68-43 68-125 0-106-68-171T326 0H28l143 712h258q92 0 138.5-47.5T614 547M433 230q0 33-19 53t-56 20H221l-37-186h138q51 0 81 32t30 81m47 295q0 70-74 70H280l-36-175h127q54 0 81.5 32.5T480 525z" horiz-adv-x="626" vert-adv-y="1000"/><glyph glyph-name="uni0413" unicode="Г" d="M599 712l-23-116H279L159 0H27l143 712h429z" horiz-adv-x="532" vert-adv-y="1000"/><glyph glyph-name="uni0414" unicode="Д" d="M662 712L542 117h81l-53-269H443L472 0H89L60-152H-67l52 269h65q59 95 99.5 208T224 609l20 103h418M507 596H348l-21-103q-45-219-143-376h227l96 479z" horiz-adv-x="674" vert-adv-y="1000"/><glyph glyph-name="uni0415" unicode="Е" d="M615 712l-23-116H280l-36-179h269l-23-116H221l-37-185h318L479 0H28l143 712h444z" horiz-adv-x="578" vert-adv-y="1000"/><glyph glyph-name="uni0416" unicode="Ж" d="M968 712L679 374 846 0H688L541 372l269 340h158m-359 0L466 0H334l143 712h132M408 374L110 0H-54l324 377-152 335h153l137-338z" horiz-adv-x="913" vert-adv-y="1000"/><glyph glyph-name="uni0417" unicode="З" d="M561 539q0-119-117-178 72-42 72-127 0-109-70.5-174.5T258-6Q143-6 85 55T26 214h132q0-47 27-75.5t77-28.5q56 0 87.5 33t31.5 87q0 39-23 59t-65 20h-89l22 110h88q55 0 84 30t29 73q0 34-21.5 57T339 602q-97 0-127-104H80q33 111 100.5 165.5T356 718q97 0 151-50.5T561 539z" horiz-adv-x="574" vert-adv-y="1000"/><glyph glyph-name="uni0418" unicode="И" d="M689 712L546 0H414l89 435L140 0H27l143 712h132l-87-436 361 436h113z" horiz-adv-x="677" vert-adv-y="1000"/><glyph glyph-name="uni0419" unicode="Й" d="M689 712L546 0H414l89 435L140 0H27l143 712h132l-87-436 361 436h113m-77 171q-14-76-58.5-107T440 745q-69 0-104.5 30.5T300 853q0 14 3 30h92q-1-10-1-16 0-22 14.5-34t38.5-12q56 0 70 62h95z" horiz-adv-x="677" vert-adv-y="1000"/><glyph glyph-name="uni041A" unicode="К" d="M670 712L373 374 548 0H390L235 372l277 340h158m-367 0L160 0H28l143 712h132z" horiz-adv-x="614" vert-adv-y="1000"/><glyph glyph-name="uni041B" unicode="Л" d="M667 712L524 0H392l119 595H347l-43-212q-31-151-71.5-235T141 32Q90 0 13 0h-56l22 116h20q30 0 52.5 10.5t45 38.5q22.5 28 41.5 82t35 135l67 330h427z" horiz-adv-x="655" vert-adv-y="1000"/><glyph glyph-name="uni041C" unicode="М" d="M783 712L640 0H508l85 421-179-263h-89l-80 265L160 0H28l143 712h124l101-380 258 380h129z" horiz-adv-x="770" vert-adv-y="1000"/><glyph glyph-name="uni041D" unicode="Н" d="M664 712L521 0H389l61 302H221L160 0H28l143 712h132l-58-294h229l58 294h132z" horiz-adv-x="651" vert-adv-y="1000"/><glyph glyph-name="uni041E" unicode="О" d="M595 516q0-60-20-160-23-118-43.5-177T469 76Q393-6 268-6 168-6 110.5 52T53 196q0 60 20 160 23 118 43.5 177T179 636q76 82 201 82 100 0 157.5-58T595 516m-132-11q0 46-26.5 71.5T371 602q-56 0-95-43-21-23-36.5-66.5T205 356q-20-100-20-149 0-46 26.5-71.5T277 110q56 0 95 43 21 23 36.5 66.5T443 356q20 98 20 149z" horiz-adv-x="611" vert-adv-y="1000"/><glyph glyph-name="uni041F" unicode="П" d="M657 712L514 0H382l120 595H278L159 0H27l143 712h487z" horiz-adv-x="646" vert-adv-y="1000"/><glyph glyph-name="uni0420" unicode="Р" d="M615 524q0-102-70.5-175T352 276H215L160 0H28l143 712h253q89 0 140-51.5T615 524m-133-11q0 82-80 82H280l-41-202h118q60 0 92.5 37t32.5 83z" horiz-adv-x="597" vert-adv-y="1000"/><glyph glyph-name="uni0421" unicode="С" d="M597 498H465q-1 47-23.5 75.5T372 602q-54 0-95-41-22-23-37.5-66.5T206 356q-20-107-20-150 0-45 26.5-70.5T281 110q49 0 82.5 30t49.5 74h136Q514 106 441 50T271-6Q171-6 112 51.5T53 196q0 61 21 160 24 120 44 178t62 103q77 81 201 81 105 0 160.5-61.5T597 498z" horiz-adv-x="592" vert-adv-y="1000"/><glyph glyph-name="uni0422" unicode="Т" d="M605 712l-23-117H407L288 0H156l119 595H96l23 117h486z" horiz-adv-x="544" vert-adv-y="1000"/><glyph glyph-name="uni0423" unicode="У" d="M662 712L293 126q-44-70-88.5-98T90 0H27l22 116h44q60 0 98 59l33 52L93 712h141l76-360 206 360h146z" horiz-adv-x="577" vert-adv-y="1000"/><glyph glyph-name="uni0424" unicode="Ф" d="M783 469q0-57-8-97-16-86-41.5-134.5T661 150q-37-32-99-49.5T431 83L414-5H282l17 88q-105 4-169 55.5T66 287q0 57 8 97 16 86 41.5 134.5T188 606q38 31 100 49.5T418 674l14 70h132l-14-70q106-5 169.5-56.5T783 469m-133-21q0 52-34.5 80T522 556l-72-356q73 0 117 30 29 20 46.5 53t29.5 93q7 34 7 72M399 556q-73 0-117-30-29-20-46.5-53T206 381q-7-35-7-73 0-52 34-79.5t94-28.5l72 356z" horiz-adv-x="803" vert-adv-y="1000"/><glyph glyph-name="uni0425" unicode="Х" d="M647 712L383 360 526 0H378l-88 253L110 0H-44l280 370-132 342h147l79-234 163 234h154z" horiz-adv-x="579" vert-adv-y="1000"/><glyph glyph-name="uni0426" unicode="Ц" d="M657 712L538 117h78l-54-269H435L465 0H27l143 712h132L183 117h223l119 595h132z" horiz-adv-x="669" vert-adv-y="1000"/><glyph glyph-name="uni0427" unicode="Ч" d="M630 712L487 0H355l53 266q-80-18-153-18t-118.5 36.5Q91 321 91 385q0 25 5 52l55 275h132l-50-249q-4-24-4-36 0-62 80-62 55 0 122 14l67 333h132z" horiz-adv-x="617" vert-adv-y="1000"/><glyph glyph-name="uni0428" unicode="Ш" d="M939 712L796 0H27l143 712h132L183 117h186l120 595h132L501 117h187l119 595h132z" horiz-adv-x="928" vert-adv-y="1000"/><glyph glyph-name="uni0429" unicode="Щ" d="M939 712L820 117h77l-53-269H717L747 0H27l143 712h132L183 117h186l120 595h132L501 117h187l119 595h132z" horiz-adv-x="951" vert-adv-y="1000"/><glyph glyph-name="uni042A" unicode="Ъ" d="M650 247q0-101-70.5-174T387 0H123l119 595H95l24 117h279l-55-276h116q89 0 140-52t51-137m-133-11q0 37-19 60t-61 23H320l-41-202h113q60 0 92.5 37t32.5 82z" horiz-adv-x="689" vert-adv-y="1000"/><glyph glyph-name="uni042B" unicode="Ы" d="M554 247q0-101-70.5-174T291 0H27l143 712h132l-55-276h116q89 0 140-52t51-137m-133-11q0 37-19 60t-61 23H224l-41-202h113q60 0 92.5 37t32.5 82m444 476L722 0H590l143 712h132z" horiz-adv-x="853" vert-adv-y="1000"/><glyph glyph-name="uni042C" unicode="Ь" d="M554 247q0-101-70.5-174T291 0H27l143 712h132l-55-276h116q89 0 140-52t51-137m-133-11q0 37-19 60t-61 23H224l-41-202h113q60 0 92.5 37t32.5 82z" horiz-adv-x="593" vert-adv-y="1000"/><glyph glyph-name="uni042D" unicode="Э" d="M576 516q0-61-21-160-18-87-27-124t-28.5-81Q480 107 450 75 373-6 250-6 143-6 87 54T30 214h135q2-104 92-104 57 0 96 41 19 20 31 53.5T412 308H210l22 110h201q10 59 10 88 0 45-26 70.5T348 602q-47 0-79.5-29.5T220 498H84q32 107 105 163.5T360 718q99 0 157.5-57.5T576 516z" horiz-adv-x="592" vert-adv-y="1000"/><glyph glyph-name="uni042E" unicode="Ю" d="M853 516q0-60-20-160-23-118-43.5-177T727 76Q651-6 526-6 426-6 368.5 52T311 196q0 45 10 105H219L159 0H27l143 712h132l-59-295h100q17 82 37 131.5t57 87.5q76 82 201 82 100 0 157.5-58T853 516m-132-11q0 46-26.5 71.5T629 602q-56 0-95-43-21-23-36.5-66.5T463 356q-20-100-20-149 0-46 26.5-71.5T535 110q56 0 95 43 21 23 36.5 66.5T701 356q20 98 20 149z" horiz-adv-x="870" vert-adv-y="1000"/><glyph glyph-name="uni042F" unicode="Я" d="M631 712L488 0H356l57 284H312L123 0H-25l212 316q-81 43-81 153 0 96 68.5 169.5T368 712h263M475 595H360q-61 0-91-37t-30-78q0-79 78-79h119l39 194z" horiz-adv-x="619" vert-adv-y="1000"/><glyph glyph-name="uni0430" unicode="а" d="M469 382q0-23-5-46L396 0H277l9 46Q235-5 160-5 93-5 52 33.5T11 132q0 76 47 123 55 54 152 54h124l7 31q3 15 3 27 0 56-77 56-68 0-112-49l-64 83q68 70 193 70 76 0 130.5-34.5T469 382M317 224h-95q-41 0-65-22.5T133 144q0-49 66-49 49 0 81 32 23 23 31 66l6 31z" horiz-adv-x="509" vert-adv-y="1000"/><glyph glyph-name="uni0431" unicode="б" d="M511 718l-23-108q-132-1-193-29-37-17-59.5-47.5T198 446q47 60 132 60 65 0 101.5-40T468 345q0-37-10-91-16-81-37-126.5T365 49Q308-6 210-6 139-6 89 36T39 163q0 42 18 132 34 170 64 244t76 110q46 37 118.5 52.5T511 718M343 333q0 34-17 50.5T282 400q-33 0-60-25-33-33-50-121-8-41-8-80 0-34 17-50.5t44-16.5q34 0 60 26 32 31 50 121 8 40 8 79z" horiz-adv-x="505" vert-adv-y="1000"/><glyph glyph-name="uni0432" unicode="в" d="M498 398q0-92-85-134 50-33 50-93 0-79-52-125T277 0H17l104 521h234q67 0 105-32t38-91M337 165q0 21-13 37t-44 16h-95L160 94h95q41 0 61.5 19.5T337 165m35 214q0 48-56 48h-89l-24-117h93q40 0 58 21.5t18 47.5z" horiz-adv-x="530" vert-adv-y="1000"/><glyph glyph-name="uni0433" unicode="г" d="M451 521l-22-111H224L141 0H17l104 521h330z" horiz-adv-x="411" vert-adv-y="1000"/><glyph glyph-name="uni0434" unicode="д" d="M522 521l-83-410h64l-46-233H340L364 0H78L54-122H-63l46 233h52q41 71 67 142t52 202l13 66h355M375 410H264l-13-61q-28-135-92-238h156l60 299z" horiz-adv-x="557" vert-adv-y="1000"/><glyph glyph-name="uni0435" unicode="е" d="M486 341q0-47-16-118H158q-4-24-4-37 0-40 22.5-63.5T243 99q69 0 124 53l65-82Q350-6 229-6 151-6 93.5 38.5T36 177q0 91 27.5 168.5T153 475q62 52 148 52 83 0 134-51t51-135m-118 0q0 40-20 62t-54 22q-88 0-120-119h191q3 16 3 35z" horiz-adv-x="523" vert-adv-y="1000"/><glyph glyph-name="uni0436" unicode="ж" d="M484 521L380 0H256l104 521h124m-49-249l202 249h145L559 274 691 0H546L435 272m-126-2L97 0H-54l242 283L66 521h132l111-251z" horiz-adv-x="745" vert-adv-y="1000"/><glyph glyph-name="uni0437" unicode="з" d="M448 389q0-45-24.5-75.5T361 268q56-30 56-99 0-82-59-128.5T184-6Q66-6-6 74l82 78q44-53 115-53 48 0 73.5 18.5T290 167q0 52-66 52h-65l17 92h69q40 0 60.5 16.5T326 370q0 54-79 54-65 0-123-53l-58 76q48 42 93.5 61T265 527q88 0 135.5-37T448 389z" horiz-adv-x="483" vert-adv-y="1000"/><glyph glyph-name="uni0438" unicode="и" d="M536 521L432 0H308l61 302L141 0H17l104 521h124l-60-302 228 302h123z" horiz-adv-x="553" vert-adv-y="1000"/><glyph glyph-name="uni0439" unicode="й" d="M536 521L432 0H308l61 302L141 0H17l104 521h124l-60-302 228 302h123m-23 196q-14-76-58.5-107T341 579q-69 0-104.5 30.5T201 687q0 13 3 30h92q-1-10-1-16 0-22 14.5-34t38.5-12q56 0 70 62h95z" horiz-adv-x="553" vert-adv-y="1000"/><glyph glyph-name="uni043A" unicode="к" d="M245 521L141 0H17l104 521h124m-49-249l207 249h145L320 274 453 0H310L196 272z" horiz-adv-x="509" vert-adv-y="1000"/><glyph glyph-name="uni043B" unicode="л" d="M521 521L418 0H294l81 410H260l-26-129q-32-161-83.5-221T16 0h-57l20 102h15q20 0 33 5t30.5 22.5Q75 147 90 189t28 109l45 223h358z" horiz-adv-x="538" vert-adv-y="1000"/><glyph glyph-name="uni043C" unicode="м" d="M626 521L523 0H399l60 301-131-190h-70l-57 191L141 0H17l103 521h120l78-271 183 271h125z" horiz-adv-x="642" vert-adv-y="1000"/><glyph glyph-name="uni043D" unicode="н" d="M522 521L419 0H295l42 211H183L141 0H17l103 521h124l-39-199h154l39 199h124z" horiz-adv-x="539" vert-adv-y="1000"/><glyph glyph-name="uni043E" unicode="о" d="M477 355q0-37-10-94-16-81-37-127t-56-80Q311-6 214-6 141-6 89 38T37 166q0 42 11 95 16 81 37 127t56 79q62 60 160 60 72 0 124-44t52-128m-123-14q0 37-18 56t-48 19q-38 0-64-26-33-32-53-129-11-55-11-81 0-36 18-55.5t48-19.5q38 0 64 26 35 34 53 130 11 54 11 80z" horiz-adv-x="515" vert-adv-y="1000"/><glyph glyph-name="uni043F" unicode="п" d="M523 521L419 0H295l81 410H222L141 0H17l104 521h402z" horiz-adv-x="566" vert-adv-y="1000"/><glyph glyph-name="uni0440" unicode="р" d="M501 383q0-43-16-122-32-165-83-216T270-6q-82 0-118 56l-48-241H-20l142 712h120l-11-50q49 56 129 56 75 0 108-43t33-101m-129-38q0 71-62 71-52 0-76-37.5T194 261q-11-59-11-84 0-72 62-72 51 0 75.5 38T361 261q11 59 11 84z" horiz-adv-x="533" vert-adv-y="1000"/><glyph glyph-name="uni0441" unicode="с" d="M463 455l-93-82q-32 43-72 43-42 0-74-33-40-42-55-122-7-40-7-67 0-42 19-65.5t55-23.5q47 0 91 44l69-89Q325-6 224-6 145-6 91 43T37 180q0 38 8 81 14 76 42.5 130.5T153 474q37 28 75.5 40.5T310 527q97 0 153-72z" horiz-adv-x="458" vert-adv-y="1000"/><glyph glyph-name="uni0442" unicode="т" d="M470 521l-21-111H306L223 0H99l83 410H39l22 111h409z" horiz-adv-x="429" vert-adv-y="1000"/><glyph glyph-name="uni0443" unicode="у" d="M515 521L190-84q-20-38-43-61-46-46-124-46h-48L-2-79h28q26 0 41 12.5T97-25l33 62-74 484h123l38-336 167 336h131z" horiz-adv-x="464" vert-adv-y="1000"/><glyph glyph-name="uni0444" unicode="ф" d="M314 416q-51 0-86-27-43-33-62-125-6-29-6-66 0-43 24-66.5t68-25.5l62 310m338-78q0-44-8-88-15-75-38.5-116.5T541 56q-32-27-83.5-43.5T352-4l-37-187H191L228-3Q147 2 91 51.5T35 183q0 44 8 88 15 75 38.5 117t64.5 78q31 27 82.5 43T334 525l38 187h124l-38-188q81-5 137.5-54.5T652 338m-125-15q0 88-92 93l-62-311q53 2 86 27 43 32 62 126 6 29 6 65z" horiz-adv-x="687" vert-adv-y="1000"/><glyph glyph-name="uni0445" unicode="х" d="M531 521L321 262 444 0H301l-65 163L115 0H-38l221 269L65 521h143l61-155 111 155h151z" horiz-adv-x="502" vert-adv-y="1000"/><glyph glyph-name="uni0446" unicode="ц" d="M523 521l-82-410h64l-46-233H342L367 0H17l104 521h124l-82-410h154l82 410h124z" horiz-adv-x="558" vert-adv-y="1000"/><glyph glyph-name="uni0447" unicode="ч" d="M499 521L395 0H271l36 185q-63-16-120-16t-91 30.5Q62 230 62 283q0 18 5 43l39 195h124l-33-163q-4-24-4-32 0-46 55-46 36 0 80 11l47 230h124z" horiz-adv-x="516" vert-adv-y="1000"/><glyph glyph-name="uni0448" unicode="ш" d="M769 521L665 0H17l104 521h124l-82-410h138l82 410h124l-82-410h138l82 410h124z" horiz-adv-x="786" vert-adv-y="1000"/><glyph glyph-name="uni0449" unicode="щ" d="M769 521l-82-410h64l-47-233H588L612 0H17l104 521h124l-82-410h138l82 410h124l-82-410h138l82 410h124z" horiz-adv-x="804" vert-adv-y="1000"/><glyph glyph-name="uni044A" unicode="ъ" d="M506 189q0-79-54-134T303 0H68l82 410H39l22 111h236l-38-188h99q69 0 108.5-40T506 189m-122-12q0 56-56 56h-89l-27-133h88q44 0 64 25.5t20 51.5z" horiz-adv-x="553" vert-adv-y="1000"/><glyph glyph-name="uni044B" unicode="ы" d="M454 189q0-79-54-134T251 0H17l104 521h124l-38-188h99q69 0 108.5-40T454 189m-122-12q0 56-55 56h-90l-26-133h87q44 0 64 25.5t20 51.5m372 344L599 0H475l105 521h124z" horiz-adv-x="720" vert-adv-y="1000"/><glyph glyph-name="uni044C" unicode="ь" d="M454 189q0-79-54-134T251 0H17l104 521h124l-38-188h99q69 0 108.5-40T454 189m-122-12q0 56-55 56h-90l-26-133h87q44 0 64 25.5t20 51.5z" horiz-adv-x="501" vert-adv-y="1000"/><glyph glyph-name="uni044D" unicode="э" d="M420 339q0-50-8-92-24-130-84-191.5T162-6Q99-6 60.5 10.5T-13 63l87 85q37-45 92-45 48 0 79 32 31 34 40 87H130l17 84h153q2 12 2 30 0 37-23 60t-58 23q-52 0-94-45l-65 80q71 73 168 73 84 0 137-50.5T420 339z" horiz-adv-x="458" vert-adv-y="1000"/><glyph glyph-name="uni044E" unicode="ю" d="M700 355q0-43-11-94-16-82-37-128t-56-79Q534-6 436-6q-72 0-124 44t-52 128q0 28 3 47h-79L141 0H17l104 521h124l-40-201h79q24 93 79 147 63 60 160 60 73 0 125-44t52-128m-123-13q0 36-18 55.5T511 417q-38 0-64-26-35-34-53-130-11-55-11-81 0-36 18-55.5t48-19.5q38 0 64 26 35 34 53 130 11 55 11 81z" horiz-adv-x="737" vert-adv-y="1000"/><glyph glyph-name="uni044F" unicode="я" d="M501 521L397 0H273l38 188h-81L115 0H-18l144 211q-63 36-63 121 0 79 54.5 134T267 521h234M357 421h-87q-45 0-65-25.5T185 344q0-56 56-56h90l26 133z" horiz-adv-x="518" vert-adv-y="1000"/><glyph glyph-name="uni0450" unicode="ѐ" d="M486 341q0-47-16-118H158q-4-24-4-37 0-40 22.5-63.5T243 99q69 0 124 53l65-82Q350-6 229-6 151-6 93.5 38.5T36 177q0 91 27.5 168.5T153 475q62 52 148 52 83 0 134-51t51-135m-118 0q0 40-20 62t-54 22q-88 0-120-119h191q3 16 3 35m3 260h-91l-72 167h118l45-167z" horiz-adv-x="523" vert-adv-y="1000"/><glyph glyph-name="uni0451" unicode="ё" d="M486 341q0-47-16-118H158q-4-24-4-37 0-40 22.5-63.5T243 99q69 0 124 53l65-82Q350-6 229-6 151-6 93.5 38.5T36 177q0 91 27.5 168.5T153 475q62 52 148 52 83 0 134-51t51-135m-118 0q0 40-20 62t-54 22q-88 0-120-119h191q3 16 3 35m144 384l-24-122H382l24 122h106m-209 0l-24-122H173l24 122h106z" horiz-adv-x="523" vert-adv-y="1000"/><glyph glyph-name="uni0452" unicode="ђ" d="M499 376q0-24-6-58L424-26q-14-73-59-113.5T250-180h-78l22 105h44q53 0 64 59l65 326q4 22 4 34 0 32-18 48.5T310 409q-34 0-65-22.5T203 309L141 0H17l113 567H80l16 78h50l13 67h124l-13-67h194l-16-78H254l-19-94q52 47 128 47 54 0 95-36.5T499 376z" horiz-adv-x="542" vert-adv-y="1000"/><glyph glyph-name="uni0453" unicode="ѓ" d="M455 768L325 601H225l111 167h119m-4-247l-22-111H224L141 0H17l104 521h330z" horiz-adv-x="411" vert-adv-y="1000"/><glyph glyph-name="uni0454" unicode="є" d="M469 454l-92-80q-29 45-79 45-46 0-79-34-29-29-42-79h155l-17-84H160q-3-18-3-35 0-40 22-62t59-22q53 0 96 44l68-87Q333-6 227-6 147-6 92 43T37 180q0 43 7 81 14 76 42.5 130t66.5 82.5q38 28.5 76.5 41T312 527q101 0 157-73z" horiz-adv-x="464" vert-adv-y="1000"/><glyph glyph-name="uni0455" unicode="ѕ" d="M459 463l-85-75q-36 37-99 37-44 0-67.5-18.5T184 362q0-32 48-39l67-11q126-20 126-135 0-72-56-126Q311-6 188-6 59-6-13 72l89 78q43-50 120-50 50 0 78 19.5t28 45.5q0 35-49 43l-68 11q-66 11-95.5 43.5T60 337q0 77 53 130 60 60 173 60 110 0 173-64z" horiz-adv-x="475" vert-adv-y="1000"/><glyph glyph-name="uni0456" unicode="і" d="M243 505L142 0H18l101 505h124m42 205l-21-103H137l20 103h128z" horiz-adv-x="262" vert-adv-y="1000"/><glyph glyph-name="uni0457" unicode="ї" d="M243 505L142 0H18l101 505h124m133 220l-24-122H246l24 122h106m-209 0l-24-122H37l24 122h106z" horiz-adv-x="262" vert-adv-y="1000"/><glyph glyph-name="uni0458" unicode="ј" d="M243 505L133-48q-14-69-57-108t-111-39h-77l21 105h45q46 0 56 53l109 542h124m42 205l-21-103H137l20 103h128z" horiz-adv-x="262" vert-adv-y="1000"/><glyph glyph-name="uni0459" unicode="љ" d="M734 189q0-79-54-134T531 0H297l81 410H260l-26-129q-32-161-83.5-221T16 0h-57l20 102h15q20 0 33 5t30.5 22.5Q75 147 90 189t28 109l45 223h361l-37-188h99q69 0 108.5-40T734 189m-122-12q0 56-55 56h-90l-27-133h88q44 0 64 25.5t20 51.5z" horiz-adv-x="781" vert-adv-y="1000"/><glyph glyph-name="uni045A" unicode="њ" d="M732 189q0-79-54-134T529 0H295l43 222H184L141 0H17l104 521h124l-38-188h154l38 188h124l-38-188h99q69 0 108.5-40T732 189m-122-12q0 56-56 56h-89l-27-133h88q44 0 64 25.5t20 51.5z" horiz-adv-x="779" vert-adv-y="1000"/><glyph glyph-name="uni045B" unicode="ћ" d="M499 376q0-32-6-58L429 0H305l62 310q4 22 4 34 0 32-18 48.5T310 409q-34 0-65-22.5T203 309L141 0H17l113 567H80l16 78h50l13 67h124l-13-67h194l-16-78H254l-19-94q52 47 128 47 54 0 95-36.5T499 376z" horiz-adv-x="542" vert-adv-y="1000"/><glyph glyph-name="uni045C" unicode="ќ" d="M245 521L141 0H17l104 521h124m-49-249l207 249h145L320 274 453 0H310L196 272m319 496L385 601H285l111 167h119z" horiz-adv-x="509" vert-adv-y="1000"/><glyph glyph-name="uni045D" unicode="ѝ" d="M536 521L432 0H308l61 302L141 0H17l104 521h124l-60-302 228 302h123m-145 80h-91l-72 167h118l45-167z" horiz-adv-x="553" vert-adv-y="1000"/><glyph glyph-name="uni045E" unicode="ў" d="M515 521L190-84q-20-38-43-61-46-46-124-46h-48L-2-79h28q26 0 41 12.5T97-25l33 62-74 484h123l38-336 167 336h131m-49 196q-14-76-58.5-107T294 579q-69 0-104.5 30.5T154 687q0 13 3 30h92q-1-10-1-16 0-22 14.5-34t38.5-12q56 0 70 62h95z" horiz-adv-x="464" vert-adv-y="1000"/><glyph glyph-name="uni045F" unicode="џ" d="M523 521L418 0H276l-25-122H135L159 0H17l104 521h124l-82-410h154l82 410h124z" horiz-adv-x="539" vert-adv-y="1000"/><glyph glyph-name="uni0462" unicode="Ѣ" d="M573 247q0-101-70.5-174T310 0H46l106 531H86l20 100h66l17 81h132l-16-81h109l-20-100H285l-19-95h116q89 0 140-52t51-137m-133-11q0 37-19 60t-61 23H243l-41-202h113q60 0 92.5 37t32.5 82z" horiz-adv-x="612" vert-adv-y="1000"/><glyph glyph-name="uni0463" unicode="ѣ" d="M471 189q0-79-54-134T268 0H34l80 403H63l16 78h51l8 40h124l-8-40h87l-16-78h-87l-14-70h99q69 0 108.5-40T471 189m-122-12q0 56-55 56h-90l-26-133h87q44 0 64 25.5t20 51.5z" horiz-adv-x="518" vert-adv-y="1000"/><glyph glyph-name="uni0472" unicode="Ѳ" d="M595 516q0-60-20-160-23-118-43.5-177T469 76Q393-6 268-6 168-6 110.5 52T53 196q0 60 20 160 23 118 43.5 177T179 636q76 82 201 82 100 0 157.5-58T595 516M372 153q34 37 59 148H194q-9-57-9-94 0-46 26.5-71.5T277 110q56 0 95 43m91 352q0 46-26.5 71.5T371 602q-56 0-95-43-34-37-58-142h236q9 51 9 88z" horiz-adv-x="611" vert-adv-y="1000"/><glyph glyph-name="uni0473" unicode="ѳ" d="M477 355q0-37-10-94-16-81-37-127t-56-80Q311-6 214-6 141-6 89 38T37 166q0 42 11 95 16 81 37 127t56 79q62 60 160 60 72 0 124-44t52-128M290 131q29 29 45 92H164q-4-22-4-43 0-36 18-55.5t48-19.5q38 0 64 26m64 211q0 36-18 55.5T288 417q-38 0-64-26-28-27-43-85h170q3 26 3 36z" horiz-adv-x="515" vert-adv-y="1000"/><glyph glyph-name="uni0474" unicode="Ѵ" d="M553 537L279 0H175L94 712h130l48-472 167 345q62 127 203 127h63l-22-116h-33q-67 0-97-59z" horiz-adv-x="552" vert-adv-y="1000"/><glyph glyph-name="uni0475" unicode="ѵ" d="M427 355L233 0h-98L57 521h123l37-336 114 229q20 38 43 61 46 46 124 46h48l-23-112h-25q-25 0-40-12t-31-42z" horiz-adv-x="469" vert-adv-y="1000"/><glyph glyph-name="uni0490" unicode="Ґ" d="M629 861l-53-265H279L159 0H27l143 712h301l30 149h128z" horiz-adv-x="532" vert-adv-y="1000"/><glyph glyph-name="uni0491" unicode="ґ" d="M477 646l-48-236H224L141 0H17l105 521h212l26 125h117z" horiz-adv-x="412" vert-adv-y="1000"/><glyph glyph-name="uni0492" unicode="Ғ" d="M621 712l-23-116H301l-38-187h111l-20-100H243L181 0H49l62 309H46l20 100h65l61 303h429z" horiz-adv-x="554" vert-adv-y="1000"/><glyph glyph-name="uni0493" unicode="ғ" d="M480 521l-22-111H253l-18-86h87l-16-78h-86L170 0H46l49 246H44l16 78h50l40 197h330z" horiz-adv-x="440" vert-adv-y="1000"/><glyph glyph-name="uni0496" unicode="Җ" d="M968 712L679 374l115-257h75l-53-269H689L719 0h-31L541 372l269 340h158M408 374L110 0H-54l324 377-152 335h153l137-338m201 338L466 0H334l143 712h132z" horiz-adv-x="911" vert-adv-y="1000"/><glyph glyph-name="uni0497" unicode="җ" d="M435 272l202 249h145L559 274l78-163h76l-47-233H550L574 0h-28L435 272m-126-2L97 0H-54l242 283L66 521h132l111-251m175 251L380 0H256l104 521h124z" horiz-adv-x="745" vert-adv-y="1000"/><glyph glyph-name="uni049A" unicode="Қ" d="M670 712L373 374l120-257h78l-53-269H391L421 0h-31L235 372l277 340h158m-367 0L160 0H28l143 712h132z" horiz-adv-x="613" vert-adv-y="1000"/><glyph glyph-name="uni049B" unicode="қ" d="M196 272l207 249h145L320 274l79-163h76l-47-233H312L336 0h-26L196 272m49 249L141 0H17l104 521h124z" horiz-adv-x="509" vert-adv-y="1000"/><glyph glyph-name="uni049C" unicode="Ҝ" d="M631 0H473L373 318h-28l-27-131h-86l27 131h-36L159 0H27l143 712h132l-57-284h36l28 132h86l-28-132h28l199 284h158L497 374 631 0z" horiz-adv-x="696" vert-adv-y="1000"/><glyph glyph-name="uni049D" unicode="ҝ" d="M530 0H386l-59 221h-27l-22-114h-79l22 114h-35L141 0H17l104 521h124l-39-200h34l23 114h79l-23-114h27l134 200h144L438 274 530 0z" horiz-adv-x="585" vert-adv-y="1000"/><glyph glyph-name="uni04A2" unicode="Ң" d="M664 712L544 117h62l-53-269H426L456 0h-67l61 302H221L160 0H28l143 712h132l-58-294h229l58 294h132z" horiz-adv-x="651" vert-adv-y="1000"/><glyph glyph-name="uni04A3" unicode="ң" d="M522 521l-81-410h55l-47-233H333L357 0h-62l42 211H183L141 0H17l103 521h124l-39-199h154l39 199h124z" horiz-adv-x="539" vert-adv-y="1000"/><glyph glyph-name="uni04AE" unicode="Ү" d="M635 712L349 287 291 0H159l59 292L89 712h140l76-295 184 295h146z" horiz-adv-x="550" vert-adv-y="1000"/><glyph glyph-name="uni04AF" unicode="ү" d="M515 521L255 37l-45-228H84l46 228-74 484h123l38-336 167 336h131z" horiz-adv-x="464" vert-adv-y="1000"/><glyph glyph-name="uni04B0" unicode="Ұ" d="M635 712L352 292h85l-20-100h-87L291 0H159l39 192h-89l20 100h89L89 712h140l76-295 184 295h146z" horiz-adv-x="550" vert-adv-y="1000"/><glyph glyph-name="uni04B1" unicode="ұ" d="M515 521L256 38h67l-16-78h-67l-30-151H84l30 151H45l16 78h69L56 521h123l38-336 167 336h131z" horiz-adv-x="464" vert-adv-y="1000"/><glyph glyph-name="uni04B2" unicode="Ҳ" d="M647 712L383 360l96-243h70l-53-269H369L399 0h-21l-88 253L110 0H-44l280 370-132 342h147l79-234 163 234h154z" horiz-adv-x="579" vert-adv-y="1000"/><glyph glyph-name="uni04B3" unicode="ҳ" d="M531 521L321 262l71-151h74l-47-233H303L327 0h-26l-65 163L115 0H-38l221 269L65 521h143l61-155 111 155h151z" horiz-adv-x="502" vert-adv-y="1000"/><glyph glyph-name="uni04B6" unicode="Ҷ" d="M630 712L510 117h62l-53-269H392L422 0h-67l53 266q-80-18-153-18t-118.5 36.5Q91 321 91 385q0 25 5 52l55 275h132l-50-249q-4-24-4-36 0-62 80-62 55 0 122 14l67 333h132z" horiz-adv-x="618" vert-adv-y="1000"/><glyph glyph-name="uni04B7" unicode="ҷ" d="M499 521l-82-410h55l-47-233H309L333 0h-62l36 185q-63-16-120-16t-91 30.5Q62 230 62 283q0 18 5 43l39 195h124l-33-163q-4-24-4-32 0-46 55-46 36 0 80 11l47 230h124z" horiz-adv-x="515" vert-adv-y="1000"/><glyph glyph-name="uni04B8" unicode="Ҹ" d="M639 712L496 0H364l53 266q-47-11-65-12l-27-135h-99l25 129q-73 2-116.5 38T91 385q0 17 6 52l54 275h132l-50-249q-4-24-4-36 0-45 47-54l26 120h100l-26-125q31 3 64 11l67 333h132z" horiz-adv-x="627" vert-adv-y="1000"/><glyph glyph-name="uni04B9" unicode="ҹ" d="M522 521L418 0H294l36 185q-21-8-46-10L262 61h-81l21 108q-66 2-103 31t-37 83q0 24 5 43l39 195h124l-33-163q-4-16-4-32 0-34 33-40l20 102h81l-21-106q27 3 45 9l47 230h124z" horiz-adv-x="538" vert-adv-y="1000"/><glyph glyph-name="uni04BA" unicode="Һ" d="M28 0l143 712h132l-53-266q80 18 153 18t118.5-36.5Q567 391 567 327q0-25-5-52L507 0H375l50 249q4 24 4 36 0 62-80 62-55 0-122-14L160 0H28z" horiz-adv-x="619" vert-adv-y="1000"/><glyph glyph-name="uni04BB" unicode="һ" d="M17 0l104 521h124l-36-185q63 16 120 16t91-30.5q34-30.5 34-83.5 0-18-5-43L410 0H286l33 163q4 24 4 32 0 46-55 46-36 0-80-11L141 0H17z" horiz-adv-x="516" vert-adv-y="1000"/><glyph glyph-name="uni04C0" unicode="Ӏ" d="M303 712L160 0H28l143 712h132z" horiz-adv-x="290" vert-adv-y="1000"/><glyph glyph-name="uni04CF" unicode="ӏ" d="M285 712L142 0H18l143 712h124z" horiz-adv-x="263" vert-adv-y="1000"/><glyph glyph-name="uni04D8" unicode="Ә" d="M600 516q0-55-21-160-24-119-44-176.5T472 76Q397-6 272-6 172-6 112.5 52T53 196q0 72 17 148l11 50h372q14 81 14 111 0 46-26.5 71.5T375 602q-60 0-100-43-20-22-35-64H105q26 90 75 141 76 82 205 82 99 0 157-58t58-144M430 284H193q-8-45-8-77 0-46 28-71.5t69-25.5q55 0 95 43 30 31 53 131z" horiz-adv-x="614" vert-adv-y="1000"/><glyph glyph-name="uni04D9" unicode="ә" d="M37 180q0 47 16 118h312q4 16 4 37 0 40-22.5 63.5T280 422q-69 0-124-53l-65 82q82 76 203 76 78 0 135.5-44.5T487 344q0-91-27.5-168.5T370 46Q308-6 222-6 139-6 88 45T37 180m118 0q0-40 20-62t54-22q88 0 120 119H158q-3-17-3-35z" horiz-adv-x="523" vert-adv-y="1000"/><glyph glyph-name="uni04E2" unicode="Ӣ" d="M689 712L546 0H414l89 435L140 0H27l143 712h132l-87-436 361 436h113m-76 162l-16-82H295l17 82h301z" horiz-adv-x="677" vert-adv-y="1000"/><glyph glyph-name="uni04E3" unicode="ӣ" d="M536 521L432 0H308l61 302L141 0H17l104 521h124l-60-302 228 302h123m-20 180l-16-82H198l17 82h301z" horiz-adv-x="553" vert-adv-y="1000"/><glyph glyph-name="uni04E8" unicode="Ө" d="M595 516q0-60-20-160-23-118-43.5-177T469 76Q393-6 268-6 168-6 110.5 52T53 196q0 60 20 160 23 118 43.5 177T179 636q76 82 201 82 100 0 157.5-58T595 516M372 153q34 37 59 148H194q-9-57-9-94 0-46 26.5-71.5T277 110q56 0 95 43m91 352q0 46-26.5 71.5T371 602q-56 0-95-43-34-37-58-142h236q9 51 9 88z" horiz-adv-x="611" vert-adv-y="1000"/><glyph glyph-name="uni04E9" unicode="ө" d="M477 355q0-37-10-94-16-81-37-127t-56-80Q311-6 214-6 141-6 89 38T37 166q0 42 11 95 16 81 37 127t56 79q62 60 160 60 72 0 124-44t52-128M290 131q29 29 45 92H164q-4-22-4-43 0-36 18-55.5t48-19.5q38 0 64 26m64 211q0 36-18 55.5T288 417q-38 0-64-26-28-27-43-85h170q3 26 3 36z" horiz-adv-x="515" vert-adv-y="1000"/><glyph glyph-name="uni04EE" unicode="Ӯ" d="M662 712L293 126q-44-70-88.5-98T90 0H27l22 116h44q60 0 98 59l33 52L93 712h141l76-360 206 360h146m-99 162l-16-82H245l17 82h301z" horiz-adv-x="577" vert-adv-y="1000"/><glyph glyph-name="uni04EF" unicode="ӯ" d="M515 521L190-84q-20-38-43-61-46-46-124-46h-48L-2-79h28q26 0 41 12.5T97-25l33 62-74 484h123l38-336 167 336h131m-48 180l-16-82H149l17 82h301z" horiz-adv-x="464" vert-adv-y="1000"/><glyph glyph-name="uni1E80" unicode="Ẁ" d="M929 712L611 0H500l-37 438L247 0H137L95 712h136l16-455 216 455h99l35-455 192 455h140m-351 66h-92l-71 168h118l45-168z" horiz-adv-x="846" vert-adv-y="1000"/><glyph glyph-name="uni1E81" unicode="ẁ" d="M765 521L516 0h-98l-41 331L206 0H106L57 521h124l18-325 165 325h90l38-325 142 325h131m-305 80h-91l-72 167h118l45-167z" horiz-adv-x="719" vert-adv-y="1000"/><glyph glyph-name="uni1E82" unicode="Ẃ" d="M929 712L611 0H500l-37 438L247 0H137L95 712h136l16-455 216 455h99l35-455 192 455h140M709 946L578 778h-99l110 168h120z" horiz-adv-x="846" vert-adv-y="1000"/><glyph glyph-name="uni1E83" unicode="ẃ" d="M765 521L516 0h-98l-41 331L206 0H106L57 521h124l18-325 165 325h90l38-325 142 325h131M605 768L475 601H375l111 167h119z" horiz-adv-x="719" vert-adv-y="1000"/><glyph glyph-name="uni1E84" unicode="Ẅ" d="M929 712L611 0H500l-37 438L247 0H137L95 712h136l16-455 216 455h99l35-455 192 455h140M713 902l-24-122H583l24 122h106m-209 0l-24-122H374l24 122h106z" horiz-adv-x="846" vert-adv-y="1000"/><glyph glyph-name="uni1E85" unicode="ẅ" d="M765 521L516 0h-98l-41 331L206 0H106L57 521h124l18-325 165 325h90l38-325 142 325h131M614 725l-24-122H484l24 122h106m-209 0l-24-122H275l24 122h106z" horiz-adv-x="719" vert-adv-y="1000"/><glyph glyph-name="uni1E8A" unicode="Ẋ" d="M647 712L383 360 526 0H378l-88 253L110 0H-44l280 370-132 342h147l79-234 163 234h154M468 900l-23-114H338l23 114h107z" horiz-adv-x="579" vert-adv-y="1000"/><glyph glyph-name="uni1E8B" unicode="ẋ" d="M531 521L321 262 444 0H301l-65 163L115 0H-38l221 269L65 521h143l61-155 111 155h151M395 723l-22-114H265l24 114h106z" horiz-adv-x="502" vert-adv-y="1000"/><glyph glyph-name="uni1EF2" unicode="Ỳ" d="M635 712L349 287 291 0H159l59 292L89 712h140l76-295 184 295h146m-223 66h-92l-71 168h118l45-168z" horiz-adv-x="550" vert-adv-y="1000"/><glyph glyph-name="uni1EF3" unicode="ỳ" d="M515 521L190-84q-20-38-43-61-46-46-124-46h-48L-2-79h28q26 0 41 12.5T97-25l33 62-74 484h123l38-336 167 336h131m-175 80h-91l-72 167h118l45-167z" horiz-adv-x="464" vert-adv-y="1000"/><glyph glyph-name="uni2013" unicode="–" d="M485 343l-23-115H42l23 115h420z" horiz-adv-x="516" vert-adv-y="1000"/><glyph glyph-name="uni2014" unicode="—" d="M936 343l-23-115H50l23 115h863z" horiz-adv-x="974" vert-adv-y="1000"/><glyph glyph-name="uni2015" unicode="―" d="M936 343l-23-115H50l23 115h863z" horiz-adv-x="974" vert-adv-y="1000"/><glyph glyph-name="uni2018" unicode="‘" d="M306 817l-45-228H132l24 123 150 105z" horiz-adv-x="258" vert-adv-y="1000"/><glyph glyph-name="uni2019" unicode="’" d="M285 712l-24-124-150-104 45 228h129z" horiz-adv-x="258" vert-adv-y="1000"/><glyph glyph-name="uni201A" unicode="‚" d="M168 124L143 0-6-104l45 228h129z" horiz-adv-x="258" vert-adv-y="1000"/><glyph glyph-name="uni201C" unicode="“" d="M506 817l-46-228H332l24 123 150 105m-200 0l-46-228H132l24 123 150 105z" horiz-adv-x="458" vert-adv-y="1000"/><glyph glyph-name="uni201D" unicode="”" d="M485 712l-25-124-149-104 45 228h129m-200 0l-25-124-149-104 45 228h129z" horiz-adv-x="458" vert-adv-y="1000"/><glyph glyph-name="uni201E" unicode="„" d="M368 124L343 0 193-104l45 228h130m-201 0L143 0-6-104l45 228h128z" horiz-adv-x="458" vert-adv-y="1000"/><glyph glyph-name="uni2020" unicode="†" d="M550 526l-22-110H369L286 0H162l83 416H86l22 110h159l37 186h124l-37-186h159z" horiz-adv-x="550" vert-adv-y="1000"/><glyph glyph-name="uni2021" unicode="‡" d="M550 526l-22-110H369l-62-305h161L446 1H285l-38-192H124L162 1H4l22 110h158l61 305H86l22 110h159l37 186h124l-37-186h159z" horiz-adv-x="550" vert-adv-y="1000"/><glyph glyph-name="uni2022" unicode="•" d="M361 445l21.5-21.5Q404 402 404 334t-43-111q-43-43-111-43t-111 43q-43 43-43 111t43 111q43 43 111 43t111-43z" horiz-adv-x="469" vert-adv-y="1000"/><glyph glyph-name="uni2026" unicode="…" d="M446 136L418 0H284l27 136h135m269 0L689 0H554l28 136h133m-540 0L149 0H14l28 136h133z" horiz-adv-x="804" vert-adv-y="1000"/><glyph glyph-name="uni2030" unicode="‰" d="M763 257q0-17-3-32l-18-95Q716-6 583-6q-49 0-83.5 28T465 104q0 17 3 32l18 95q26 136 159 136 49 0 83.5-28t34.5-82m-53 455L247 0H147l463 712h100m-37-466q0 41-41 41-46 0-57-58l-18-90q-2-10-2-24 0-41 41-41 46 0 57 58l18 93q2 10 2 21M392 608q0-17-3-32l-18-95q-26-136-159-136-49 0-83.5 28T94 455q0 17 3 32l18 95q26 136 159 136 49 0 83.5-28t34.5-82m-90-11q0 41-41 41-46 0-57-58l-18-90q-2-10-2-24 0-41 41-41 46 0 57 58l18 93q2 10 2 21m805-340q0-17-3-32l-18-95Q1060-6 927-6q-49 0-83.5 28T809 104q0 17 3 32l18 95q26 136 159 136 49 0 83.5-28t34.5-82m-90-11q0 41-41 41-46 0-57-58l-18-90q-2-10-2-24 0-41 41-41 46 0 57 58l18 93q2 10 2 21z" horiz-adv-x="1161" vert-adv-y="1000"/><glyph glyph-name="uni2039" unicode="‹" d="M323 521l-33-160-111-96 73-96-27-142L36 276l287 245z" horiz-adv-x="333" vert-adv-y="1000"/><glyph glyph-name="uni203A" unicode="›" d="M305 273L18 27l32 160 111 96-73 97 28 141 189-248z" horiz-adv-x="333" vert-adv-y="1000"/><glyph glyph-name="uni2044" unicode="⁄" d="M401 712L-61 0h-100l463 712h99z" horiz-adv-x="200" vert-adv-y="1000"/><glyph glyph-name="uni2070" unicode="⁰" d="M345 609q0-18-3-30l-32-165q-14-70-54.5-101.5T162 281q-53 0-83 31t-30 76q0 15 3 30l33 165q14 70 54 101.5t93 31.5q53 0 83-31t30-76m-91-15q0 33-32 33-39 0-48-48l-31-156q-3-11-3-19 0-17 9.5-25.5T173 370q39 0 48 48l31 157q2 14 2 19z" horiz-adv-x="316" vert-adv-y="1000"/><glyph glyph-name="uni2074" unicode="⁴" d="M326 426l-16-81h-33l-12-60h-85l12 60H22l15 81 193 286h100L136 426h71l13 66h86l-14-66h34z" horiz-adv-x="316" vert-adv-y="1000"/><glyph glyph-name="uni2075" unicode="⁵" d="M360 712l-16-82H182l-14-74q21 16 54 16 49 0 74-29.5t25-71.5q0-23-3-41-14-75-50-110-40-38-104-38-50 0-81.5 29T51 386q0 16 2 26h86q-1-5-1-12 0-37 33-37 41 0 54 67 4 26 4 29 0 37-33 37-32 0-47-31H66l50 247h244z" horiz-adv-x="316" vert-adv-y="1000"/><glyph glyph-name="uni2076" unicode="⁶" d="M326 428q0-63-39.5-105T181 281q-63 0-95 36t-32 82q0 32 11.5 59t39.5 69l123 185h101L210 538q16 2 22 2 41 0 67.5-30t26.5-82m-90-3q0 44-40 44-24 0-38-18t-14-44q0-22 11-33.5t29-11.5q23 0 37.5 18.5T236 425z" horiz-adv-x="316" vert-adv-y="1000"/><glyph glyph-name="uni2077" unicode="⁷" d="M377 712l-16-81-192-346H77l192 346H163l-13-68H69l29 149h279z" horiz-adv-x="316" vert-adv-y="1000"/><glyph glyph-name="uni2078" unicode="⁸" d="M346 598q0-31-18-58.5T284 497q32-26 32-74 0-62-40.5-102T166 281q-55 0-90 30t-35 87q0 76 68 112-30 32-30 75 0 54 40 92.5T223 716q55 0 89-32.5t34-85.5M225 421q0 18-10 31t-30 13q-23 0-38.5-16.5T131 406q0-18 10-31t30-13q23 0 38.5 16.5T225 421m30 174q0 16-9.5 28T218 635q-20 0-34.5-15.5T169 580q0-16 9.5-27.5T206 541q21 0 35 15t14 39z" horiz-adv-x="316" vert-adv-y="1000"/><glyph glyph-name="uni2079" unicode="⁹" d="M348 599q0-32-11.5-59.5T297 470L174 285H73l119 174q-8-2-22-2-42 0-68 30t-26 82q0 64 39.5 105.5T220 716q64 0 96-35.5t32-81.5m-90-9q0 22-11 33.5T218 635q-25 0-38.5-18T166 572q0-44 40-44 25 0 38.5 17.5T258 590z" horiz-adv-x="316" vert-adv-y="1000"/><glyph glyph-name="uni2080" unicode="₀" d="M257 174q0-18-3-30L222-21q-14-70-54.5-101.5T74-154q-53 0-83 31t-30 76q0 15 3 30l33 165q14 70 54 101.5t93 31.5q53 0 83-31t30-76m-91-15q0 33-32 33-39 0-48-48L55-12q-3-11-3-19 0-17 9.5-25.5T85-65q39 0 48 48l31 157q2 14 2 19z" horiz-adv-x="316" vert-adv-y="1000"/><glyph glyph-name="uni2081" unicode="₁" d="M223 277l-85-427H48l64 321L11 98l22 107 101 72h89z" horiz-adv-x="316" vert-adv-y="1000"/><glyph glyph-name="uni2082" unicode="₂" d="M257 171q0-61-68-124L64-70h151l-16-80H-64l17 80L130 99q36 35 36 65 0 37-34 37-41 0-49-46H-7q24 126 148 126 55 0 85.5-29.5T257 171z" horiz-adv-x="316" vert-adv-y="1000"/><glyph glyph-name="uni2083" unicode="₃" d="M259 171q0-73-63-104 33-26 33-79 0-63-41-102T79-153q-62 0-92.5 28.5T-44-55q0 12 2 32h89q-6-50 38-50 22 0 37.5 16.5T138-13q0 44-39 44H88l15 76h10q29 0 42 18t13 40q0 37-32 37-42 0-51-46H-5q22 126 151 126 50 0 81.5-31t31.5-80z" horiz-adv-x="316" vert-adv-y="1000"/><glyph glyph-name="uni2084" unicode="₄" d="M239-9l-16-81h-33l-12-60H93l12 60H-65l15 81 193 286h100L49-9h71l13 66h86L205-9h34z" horiz-adv-x="316" vert-adv-y="1000"/><glyph glyph-name="uni2085" unicode="₅" d="M273 277l-16-82H95l-14-74q21 16 54 16 49 0 74-29.5T234 36q0-23-3-41-14-75-50-110-40-38-104-38-50 0-81.5 29T-36-49q0 16 2 26h86q-1-5-1-12 0-37 33-37 41 0 54 67 4 26 4 29 0 37-33 37-31 0-47-31h-83l50 247h244z" horiz-adv-x="316" vert-adv-y="1000"/><glyph glyph-name="uni2086" unicode="₆" d="M239-7q0-63-39.5-105T94-154q-63 0-95 36t-32 82q0 32 11.5 59T18 92l123 185h101L123 103q16 2 22 2 41 0 67.5-30T239-7m-90-3q0 44-40 44-24 0-38-18T57-28q0-22 11-33.5T97-73q23 0 37.5 18.5T149-10z" horiz-adv-x="316" vert-adv-y="1000"/><glyph glyph-name="uni2087" unicode="₇" d="M290 277l-16-81L82-150h-92l192 346H76l-13-68h-81l29 149h279z" horiz-adv-x="316" vert-adv-y="1000"/><glyph glyph-name="uni2088" unicode="₈" d="M259 163q0-31-18-58.5T197 62q32-26 32-74 0-62-40.5-102T79-154q-55 0-90 30t-35 87q0 76 68 112-30 32-30 75 0 54 40 92.5T136 281q55 0 89-32.5t34-85.5M138-14q0 18-10 31T98 30q-23 0-38.5-16.5T44-29q0-18 10-31t30-13q23 0 38.5 16.5T138-14m30 174q0 16-9.5 28T131 200q-20 0-34.5-15.5T82 145q0-16 9.5-27.5T119 106q21 0 35 15t14 39z" horiz-adv-x="316" vert-adv-y="1000"/><glyph glyph-name="uni2089" unicode="₉" d="M262 164q0-32-11.5-59.5T211 35L88-150H-13L106 24q-8-2-22-2-42 0-68 30t-26 82q0 64 39.5 105.5T134 281q64 0 96-35.5t32-81.5m-90-9q0 22-11 33.5T132 200q-25 0-38.5-18T80 137q0-44 40-44 25 0 38.5 17.5T172 155z" horiz-adv-x="316" vert-adv-y="1000"/><glyph glyph-name="uni20AC" unicode="€" d="M641 498H509q-1 47-23.5 75.5T417 602q-54 0-95-41-28-30-43-88h143l-16-78H259l-15-75h147l-16-78H233q-3-13-3-36 0-45 27-70.5t69-25.5q49 0 82 29.5t50 74.5h135Q558 106 485 50T316-6Q216-6 156.5 51.5T97 196q0 22 4 46H32l15 78h65l15 75H63l15 78h67q27 108 81 164 80 81 198 81 106 0 161.5-61.5T641 498z" horiz-adv-x="650" vert-adv-y="1000"/><glyph glyph-name="uni20B4" unicode="₴" d="M655 471l-15-74h-70q-39-35-137-65l-33-10h226l-15-74H225q-24-23-24-53 0-38 32.5-62t90.5-24q51 0 89.5 14.5T494 173l75-87q-58-50-119.5-70.5T307-5Q198-5 133.5 46T69 177q0 43 8 71H32q4 24 14 74h77q43 39 146 72l9 3H61l15 74h392q26 23 26 53 0 36-28.5 58.5T381 605q-83 0-148-56-71 82-74 86 52 44 106.5 63.5T393 718q109 0 169.5-49T623 540q0-37-8-69h40z" horiz-adv-x="652" vert-adv-y="1000"/><glyph glyph-name="uni2116" unicode="№" d="M939 598q0-29-7-64-20-102-62-143-40-40-108-40-48 0-84.5 29.5T641 470q0 29 7 64 20 102 62 143 40 40 108 40 48 0 84.5-29t36.5-90m-89-12q0 49-44 49-23 0-39-18-19-21-31-83-6-30-6-52 0-49 44-49 24 0 39 18 19 21 31 83 6 30 6 52m36-272l-19-90H595l19 90h272M633 712L489 0H380L235 458 142 0H18l145 712h109l145-458 92 458h124z" horiz-adv-x="913" vert-adv-y="1000"/><glyph glyph-name="uni2122" unicode="™" d="M909 712l-84-427h-92l51 253-106-153h-79l-46 155-52-255h-90l84 427h89l70-228 163 228h92m-478 0l-15-81H313l-70-346h-89l69 346H117l16 81h298z" horiz-adv-x="878" vert-adv-y="1000"/><glyph glyph-name="uni2126" unicode="Ω" d="M597 516q0-43-22-160-16-81-29.5-121.5T510 163q-22-31-39-46h62L509 0H297l20 103q34 14 55 38t35.5 66.5Q422 250 441 349q22 113 22 156 0 48-25.5 72T376 601q-59 0-100-42-20-21-35-65t-35-145q-23-116-23-158 0-64 50-88L213 0H10l23 117h61q-34 45-34 112 0 51 15 127 23 118 44 177.5T184 637q39 39 92 60t106 21q98 0 156.5-58T597 516z" horiz-adv-x="611" vert-adv-y="1000"/><glyph glyph-name="uni2150" unicode="⅐" d="M310 712l-85-427h-90l64 321-101-73 22 107 101 72h89m407 0L255 0H155l463 712h99m119-285l-16-81L628 0h-92l192 346H622l-13-68h-81l29 149h279z" horiz-adv-x="832" vert-adv-y="1000"/><glyph glyph-name="uni2151" unicode="⅑" d="M310 712l-85-427h-90l64 321-101-73 22 107 101 72h89m407 0L255 0H155l463 712h99m91-398q0-32-11.5-59.5T757 185L634 0H533l119 174q-8-2-22-2-42 0-68 30t-26 82q0 64 39.5 105.5T680 431q64 0 96-35.5t32-81.5m-90-9q0 22-11 33.5T678 350q-25 0-38.5-18T626 287q0-44 40-44 25 0 38.5 17.5T718 305z" horiz-adv-x="832" vert-adv-y="1000"/><glyph glyph-name="uni2152" unicode="⅒" d="M310 712l-85-427h-90l64 321-101-73 22 107 101 72h89m407 0L255 0H155l463 712h99m52-285L684 0h-90l64 321-101-73 22 107 101 72h89m350-103q0-18-3-30l-32-165q-14-70-54.5-101.5T936-4q-53 0-83 31t-30 76q0 15 3 30l33 165q14 70 54 101.5t93 31.5q53 0 83-31t30-76m-91-15q0 33-32 33-39 0-48-48l-31-156q-3-10-3-19 0-17 9.5-25.5T947 85q39 0 48 48l31 157q2 14 2 19z" horiz-adv-x="1148" vert-adv-y="1000"/><glyph glyph-name="uni2153" unicode="⅓" d="M310 712l-85-427h-90l64 321-101-73 22 107 101 72h89m407 0L255 0H155l463 712h99m87-391q0-73-63-104 33-26 33-79 0-63-41-102T624-3q-62 0-92.5 28.5T501 95q0 12 2 32h89q-6-50 38-50 22 0 37.5 16.5T683 137q0 44-39 44h-11l15 76h10q29 0 42 18t13 40q0 37-32 37-42 0-51-46h-90q22 126 151 126 50 0 81.5-31t31.5-80z" horiz-adv-x="832" vert-adv-y="1000"/><glyph glyph-name="uni2154" unicode="⅔" d="M345 606q0-61-68-124L152 365h151l-16-80H24l17 80 177 169q36 35 36 65 0 37-34 37-41 0-49-46H81q24 126 148 126 55 0 85.5-29.5T345 606m372 106L255 0H155l463 712h99m87-391q0-73-63-104 33-26 33-79 0-63-41-102T624-3q-62 0-92.5 28.5T501 95q0 12 2 32h89q-6-50 38-50 22 0 37.5 16.5T683 137q0 44-39 44h-11l15 76h10q29 0 42 18t13 40q0 37-32 37-42 0-51-46h-90q22 126 151 126 50 0 81.5-31t31.5-80z" horiz-adv-x="832" vert-adv-y="1000"/><glyph glyph-name="uni2155" unicode="⅕" d="M310 712l-85-427h-90l64 321-101-73 22 107 101 72h89m407 0L255 0H155l463 712h99m102-285l-16-82H641l-14-74q21 16 54 16 49 0 74-29.5t25-71.5q0-23-3-41-14-75-50-110Q687-3 623-3q-50 0-81.5 29T510 101q0 16 2 26h86q-1-5-1-12 0-37 33-37 41 0 54 67 4 26 4 29 0 37-33 37-31 0-47-31h-83l50 247h244z" horiz-adv-x="832" vert-adv-y="1000"/><glyph glyph-name="uni2156" unicode="⅖" d="M345 606q0-61-68-124L152 365h151l-16-80H24l17 80 177 169q36 35 36 65 0 37-34 37-41 0-49-46H81q24 126 148 126 55 0 85.5-29.5T345 606m372 106L255 0H155l463 712h99m102-285l-16-82H641l-14-74q21 16 54 16 49 0 74-29.5t25-71.5q0-23-3-41-14-75-50-110Q687-3 623-3q-50 0-81.5 29T510 101q0 16 2 26h86q-1-5-1-12 0-37 33-37 41 0 54 67 4 26 4 29 0 37-33 37-31 0-47-31h-83l50 247h244z" horiz-adv-x="832" vert-adv-y="1000"/><glyph glyph-name="uni2157" unicode="⅗" d="M345 606q0-72-63-104 33-26 33-79 0-63-41-102t-109-39q-62 0-92.5 28.5T42 380q0 12 2 32h89q-6-50 38-50 22 0 37.5 16.5T224 422q0 44-39 44h-11l15 76h10q29 0 42 18t13 40q0 37-32 37-42 0-51-46H81q22 126 151 126 50 0 81.5-31t31.5-80m372 106L255 0H155l463 712h99m102-285l-16-82H641l-14-74q21 16 54 16 49 0 74-29.5t25-71.5q0-23-3-41-14-75-50-110Q687-3 623-3q-50 0-81.5 29T510 101q0 16 2 26h86q-1-5-1-12 0-37 33-37 41 0 54 67 4 26 4 29 0 37-33 37-31 0-47-31h-83l50 247h244z" horiz-adv-x="832" vert-adv-y="1000"/><glyph glyph-name="uni2158" unicode="⅘" d="M326 426l-16-81h-33l-12-60h-85l12 60H22l15 81 193 286h100L136 426h71l13 66h86l-14-66h34m391 286L255 0H155l463 712h99m102-285l-16-82H641l-14-74q21 16 54 16 49 0 74-29.5t25-71.5q0-23-3-41-14-75-50-110Q687-3 623-3q-50 0-81.5 29T510 101q0 16 2 26h86q-1-5-1-12 0-37 33-37 41 0 54 67 4 26 4 29 0 37-33 37-31 0-47-31h-83l50 247h244z" horiz-adv-x="832" vert-adv-y="1000"/><glyph glyph-name="uni2159" unicode="⅙" d="M310 712l-85-427h-90l64 321-101-73 22 107 101 72h89m407 0L255 0H155l463 712h99m68-569q0-63-39.5-105T640-4q-63 0-95 36t-32 82q0 32 11.5 59t39.5 69l123 185h101L669 253q16 2 22 2 41 0 67.5-30t26.5-82m-90-3q0 44-40 44-24 0-38-18t-14-44q0-22 11-33.5T643 77q23 0 37.5 18.5T695 140z" horiz-adv-x="832" vert-adv-y="1000"/><glyph glyph-name="uni215A" unicode="⅚" d="M360 712l-16-82H182l-14-74q21 16 54 16 49 0 74-29.5t25-71.5q0-23-3-41-14-75-50-110-40-38-104-38-50 0-81.5 29T51 386q0 16 2 26h86q-1-5-1-12 0-37 33-37 41 0 54 67 4 26 4 29 0 37-33 37-32 0-47-31H66l50 247h244m357 0L255 0H155l463 712h99m68-569q0-63-39.5-105T640-4q-63 0-95 36t-32 82q0 32 11.5 59t39.5 69l123 185h101L669 253q16 2 22 2 41 0 67.5-30t26.5-82m-90-3q0 44-40 44-24 0-38-18t-14-44q0-22 11-33.5T643 77q23 0 37.5 18.5T695 140z" horiz-adv-x="832" vert-adv-y="1000"/><glyph glyph-name="uni215B" unicode="⅛" d="M310 712l-85-427h-90l64 321-101-73 22 107 101 72h89m407 0L255 0H155l463 712h99m89-399q0-31-18-58.5T744 212q32-26 32-74 0-62-40.5-102T626-4q-55 0-90 30t-35 87q0 76 68 112-30 32-30 75 0 54 40 92.5T683 431q55 0 89-32.5t34-85.5M685 136q0 18-10 31t-30 13q-23 0-38.5-16.5T591 121q0-18 10-31t30-13q23 0 38.5 16.5T685 136m30 174q0 16-9.5 28T678 350q-20 0-34.5-15.5T629 295q0-16 9.5-27.5T666 256q21 0 35 15t14 39z" horiz-adv-x="832" vert-adv-y="1000"/><glyph glyph-name="uni215C" unicode="⅜" d="M345 606q0-72-63-104 33-26 33-79 0-63-41-102t-109-39q-62 0-92.5 28.5T42 380q0 12 2 32h89q-6-50 38-50 22 0 37.5 16.5T224 422q0 44-39 44h-11l15 76h10q29 0 42 18t13 40q0 37-32 37-42 0-51-46H81q22 126 151 126 50 0 81.5-31t31.5-80m372 106L255 0H155l463 712h99m89-399q0-31-18-58.5T744 212q32-26 32-74 0-62-40.5-102T626-4q-55 0-90 30t-35 87q0 76 68 112-30 32-30 75 0 54 40 92.5T683 431q55 0 89-32.5t34-85.5M685 136q0 18-10 31t-30 13q-23 0-38.5-16.5T591 121q0-18 10-31t30-13q23 0 38.5 16.5T685 136m30 174q0 16-9.5 28T678 350q-20 0-34.5-15.5T629 295q0-16 9.5-27.5T666 256q21 0 35 15t14 39z" horiz-adv-x="832" vert-adv-y="1000"/><glyph glyph-name="uni215D" unicode="⅝" d="M360 712l-16-82H182l-14-74q21 16 54 16 49 0 74-29.5t25-71.5q0-23-3-41-14-75-50-110-40-38-104-38-50 0-81.5 29T51 386q0 16 2 26h86q-1-5-1-12 0-37 33-37 41 0 54 67 4 26 4 29 0 37-33 37-32 0-47-31H66l50 247h244m357 0L255 0H155l463 712h99m89-399q0-31-18-58.5T744 212q32-26 32-74 0-62-40.5-102T626-4q-55 0-90 30t-35 87q0 76 68 112-30 32-30 75 0 54 40 92.5T683 431q55 0 89-32.5t34-85.5M685 136q0 18-10 31t-30 13q-23 0-38.5-16.5T591 121q0-18 10-31t30-13q23 0 38.5 16.5T685 136m30 174q0 16-9.5 28T678 350q-20 0-34.5-15.5T629 295q0-16 9.5-27.5T666 256q21 0 35 15t14 39z" horiz-adv-x="832" vert-adv-y="1000"/><glyph glyph-name="uni215E" unicode="⅞" d="M377 712l-16-81-192-346H77l192 346H163l-13-68H69l29 149h279m340 0L255 0H155l463 712h99m89-399q0-31-18-58.5T744 212q32-26 32-74 0-62-40.5-102T626-4q-55 0-90 30t-35 87q0 76 68 112-30 32-30 75 0 54 40 92.5T683 431q55 0 89-32.5t34-85.5M685 136q0 18-10 31t-30 13q-23 0-38.5-16.5T591 121q0-18 10-31t30-13q23 0 38.5 16.5T685 136m30 174q0 16-9.5 28T678 350q-20 0-34.5-15.5T629 295q0-16 9.5-27.5T666 256q21 0 35 15t14 39z" horiz-adv-x="832" vert-adv-y="1000"/><glyph glyph-name="uni215F" unicode="⅟" d="M310 712l-85-427h-90l64 321-101-73 22 107 101 72h89m407 0L255 0H155l463 712h99z" horiz-adv-x="516" vert-adv-y="1000"/><glyph glyph-name="uni2189" unicode="↉" d="M345 609q0-18-3-30l-32-165q-14-70-54.5-101.5T162 281q-53 0-83 31t-30 76q0 15 3 30l33 165q14 70 54 101.5t93 31.5q53 0 83-31t30-76m-91-15q0 33-32 33-39 0-48-48l-31-156q-3-11-3-19 0-17 9.5-25.5T173 370q39 0 48 48l31 157q2 14 2 19m463 118L255 0H155l463 712h99m87-391q0-73-63-104 33-26 33-79 0-63-41-102T624-3q-62 0-92.5 28.5T501 95q0 12 2 32h89q-6-50 38-50 22 0 37.5 16.5T683 137q0 44-39 44h-11l15 76h10q29 0 42 18t13 40q0 37-32 37-42 0-51-46h-90q22 126 151 126 50 0 81.5-31t31.5-80z" horiz-adv-x="832" vert-adv-y="1000"/><glyph glyph-name="uni2190" unicode="←" d="M436-100L50 285l386 385h164L273 346h704V223H273l327-323H436z" horiz-adv-x="1027" vert-adv-y="1000"/><glyph glyph-name="uni2191" unicode="↑" d="M899 200L575 527v-705H453v705L129 200v164l385 385 385-385V200z" horiz-adv-x="1027" vert-adv-y="1000"/><glyph glyph-name="uni2192" unicode="→" d="M429-100l327 324H51v122h705L429 670h164l385-385-385-385H429z" horiz-adv-x="1027" vert-adv-y="1000"/><glyph glyph-name="uni2193" unicode="↓" d="M898 208L513-178 128 208v164L452 45v704h123V45l323 327V208z" horiz-adv-x="1027" vert-adv-y="1000"/><glyph glyph-name="uni2196" unicode="↖" d="M884 1l-87-86-497 497 1-460L185 68v545h545l117-116-460 1L884 1z" horiz-adv-x="1027" vert-adv-y="1000"/><glyph glyph-name="uni2197" unicode="↗" d="M841 69L725-47l2 459L229-85 142 1l498 498-460-2 117 116h544V69z" horiz-adv-x="1027" vert-adv-y="1000"/><glyph glyph-name="uni2198" unicode="↘" d="M841-85H297L180 31l460-3-498 498 87 87 498-497-2 459 116-116V-85z" horiz-adv-x="1027" vert-adv-y="1000"/><glyph glyph-name="uni2199" unicode="↙" d="M884 526L387 29l460 2L730-85H185v545l116 116-1-460 497 497 87-87z" horiz-adv-x="1027" vert-adv-y="1000"/><glyph glyph-name="uni2202" unicode="∂" d="M506 538q0-29-5-57l-43-227q-15-75-32.5-121T373 52Q315-6 222-6 140-6 91.5 40T43 169q0 35 10 85 15 76 35 124.5t58 82.5q57 52 144 52 61 0 88-34l5 33q2 12 2 18 0 83-83 83-34 0-57-9t-51-32l-63 83q74 63 182 63 86 0 139.5-46T506 538M345 334q0 32-17 50t-45 18q-33 0-56-22-31-27-50-126-11-62-11-81 0-32 17-50t45-18q33 0 56 22 30 27 50 127 11 62 11 80z" horiz-adv-x="527" vert-adv-y="1000"/><glyph glyph-name="uni2206" unicode="∆" d="M550 0H-48l389 712h105L550 0M410 110l-48 403-214-403h262z" horiz-adv-x="604" vert-adv-y="1000"/><glyph glyph-name="uni220F" unicode="∏" d="M673 760L484-191H352l166 836H290L122-191H-9l189 951h493z" horiz-adv-x="651" vert-adv-y="1000"/><glyph glyph-name="uni2211" unicode="∑" d="M584 760l-23-116H264l88-297-25-122L128-75h298l-23-116H-48l20 104 258 390-111 357 20 100h445z" horiz-adv-x="524" vert-adv-y="1000"/><glyph glyph-name="uni2212" unicode="−" d="M485 343l-23-115H42l23 115h420z" horiz-adv-x="516" vert-adv-y="1000"/><glyph glyph-name="uni2219" unicode="∙" d="M369 445l21.5-21.5Q412 402 412 334t-43-111q-43-43-111-43t-111 43q-43 43-43 111t43 111q43 43 111 43t111-43z" horiz-adv-x="516" vert-adv-y="1000"/><glyph glyph-name="uni221A" unicode="√" d="M635 712l-23-116h-83L224 0H118L56 521h129l29-287 235 478h186z" horiz-adv-x="566" vert-adv-y="1000"/><glyph glyph-name="uni221E" unicode="∞" d="M715 414l24-25.5Q763 363 763 285t-48-129q-48-51-133-51-92 0-171 90-79-90-171-90-85 0-133 51T59 285q0 78 48 129t133 51q92 0 171-91 79 91 171 91 85 0 133-51m-89-179l9 8.5q9 8.5 9 37.5t-18.5 46.5Q607 345 581 345q-24 0-43-15.5T492 281q27-32 46-47.5t43-15.5q27 0 45 17m-297 46q-27 33-46 48.5T240 345q-26 0-44.5-17.5T177 281q0-29 18-46t45-17q24 0 43 15.5t46 47.5z" horiz-adv-x="808" vert-adv-y="1000"/><glyph glyph-name="uni222B" unicode="∫" d="M501 719l-21-104h-43q-67 0-81-70L246-4q-21-102-72.5-142T35-186h-65L-9-81h42q35 0 55 16t27 53l110 550q21 102 72.5 141.5T436 719h65z" horiz-adv-x="471" vert-adv-y="1000"/><glyph glyph-name="uni2248" unicode="≈" d="M528 167q-85-78-169-78-52 0-107 32-41 24-76 24-50 0-95-42l-64 84q84 77 169 77 53 0 108-32 41-24 75-24 49 0 95 42l64-83m43 218q-85-78-169-78-52 0-107 32-41 24-76 24-49 0-94-42l-65 84q84 77 170 77 52 0 107-32 41-24 75-24 50 0 95 42l64-83z" horiz-adv-x="576" vert-adv-y="1000"/><glyph glyph-name="uni2260" unicode="≠" d="M574 520l-68-72h57l-24-115H401l-93-95h213l-23-115H204L76-13 10 51l68 72H21l24 115h138l93 95H62l24 115h295l127 136 66-64z" horiz-adv-x="572" vert-adv-y="1000"/><glyph glyph-name="uni2264" unicode="≤" d="M526 644l-27-136-264-110 222-116-25-125L79 356l20 103 427 185M418 78L394-42 41 157l24 120L418 78z" horiz-adv-x="516" vert-adv-y="1000"/><glyph glyph-name="uni2265" unicode="≥" d="M494 450l-21-103L47 162l27 136 263 109-222 116 26 126 353-199m-34-182l-25-131L9-48 34 82l426 186z" horiz-adv-x="516" vert-adv-y="1000"/><glyph glyph-name="uni22C5" unicode="⋅" d="M342 356l-28-141H173l28 141h141z" horiz-adv-x="516" vert-adv-y="1000"/><glyph glyph-name="uni25CA" unicode="◊" d="M572 325L257-26 71 356l313 351 188-382m-137 16l-81 168-146-168 80-170 147 170z" horiz-adv-x="605" vert-adv-y="1000"/><glyph glyph-name="uniFB01" unicode="ﬁ" d="M392 720l-21-105h-44q-47 0-57-51l-12-59h92l-19-95h-92L157 0H33l82 410H64l19 95h51l15 72q28 143 170 143h73m165-215L456 0H332l101 505h124m42 205l-21-103H451l20 103h128z" horiz-adv-x="576" vert-adv-y="1000"/><glyph glyph-name="uniFB02" unicode="ﬂ" d="M597 712L486 157q-3-13-3-22 0-30 38-30h51L551 0h-68q-55 0-90 30.5T358 113q0 24 4 43l111 556h124m-205 8l-21-105h-44q-47 0-57-51l-12-59h92l-19-95h-92L157 0H33l82 410H64l19 95h51l15 72q28 143 170 143h73z" horiz-adv-x="628" vert-adv-y="1000"/></font>
</defs>
</svg>
