<svg><defs><font id="DINPro-Light" horiz-adv-x="1237" vert-adv-y="1237"><font-face font-family="DIN Pro Light" font-weight="400" ascent="975" descent="-236"/><glyph glyph-name="uni21" unicode="!" d="M194 712l-3-520h-49l-3 520h55m6-712h-67v67h67V0z" horiz-adv-x="304" vert-adv-y="1000"/><glyph glyph-name="uni22" unicode="&quot;" d="M158 556H95v156h63V556m155 0h-63v156h63V556z" horiz-adv-x="408" vert-adv-y="1000"/><glyph glyph-name="uni23" unicode="#" d="M588 437H488l-25-153h96v-44H456L418 0h-51l39 240H230L193 0h-51l38 240H84v44h103l25 153h-99v45h105l36 230h52l-37-230h175l36 230h50l-36-230h94v-45M412 284l25 153H262l-25-153h175z" horiz-adv-x="639" vert-adv-y="1000"/><glyph glyph-name="uni24" unicode="$" d="M528 191q0-86-58-138.5T310-5v-109h-45V-6q-68 3-117.5 25T51 88l38 38q43-43 82.5-61T265 43v295q-91 9-143 54-56 48-56 131 0 85 53 136.5T265 717v89h45v-89q99-5 182-76l-35-35q-66 59-147 65V381q72-12 103-22.5t53-29.5q62-51 62-138M265 671q-69-5-107.5-44T119 525q0-62 37-93 42-35 109-44v283m209-482q0 67-39 100-7 6-14 11t-16 8.5q-9 3.5-13.5 6t-17.5 5q-13 2.5-17 3t-22.5 3.5q-18.5 3-24.5 4V43q77 5 120.5 43T474 189z" horiz-adv-x="587" vert-adv-y="1000"/><glyph glyph-name="uni25" unicode="%" d="M288 480v103q0 98-87 98-88 0-88-98V480q0-97 88-97 87 0 87 97m44-2q0-60-36-96.5T201 345q-59 0-95.5 36.5T69 478v107q0 60 36.5 97t95.5 37q59 0 95-37t36-97V478M271 0h-45l332 712h45L271 0m444 128v103q0 98-87 98-88 0-88-98V128q0-97 88-97 87 0 87 97m44-2q0-60-36-96.5T628-7q-59 0-95.5 36.5T496 126v107q0 60 36.5 97t95.5 37q59 0 95-37t36-97V126z" horiz-adv-x="828" vert-adv-y="1000"/><glyph glyph-name="uni26" unicode="&amp;" d="M662 0h-69l-69 84Q434-6 305-6q-98 0-159.5 56T84 197q0 39 11.5 70.5t38 59.5q26.5 28 49 45.5T247 418q-25 31-38.5 49t-27 49Q168 547 168 576q0 60 42.5 101T313 718q60 0 102.5-41.5T458 575q0-72-82-128l-53-36 204-247q24 36 33 73t9 104h53q0-140-62-217L662 0M278 382q-36-24-55-38.5T181 306q-23-23-33-49t-10-57q0-70 46-114t120-44q101 0 190 79L278 382m127 193q0 41-26.5 68T313 670q-39 0-65-26t-26-66q0-28 14.5-55t55.5-76q41 26 60.5 40.5t36 38Q405 549 405 575z" horiz-adv-x="746" vert-adv-y="1000"/><glyph glyph-name="uni27" unicode="'" d="M158 556H95v156h63V556z" horiz-adv-x="253" vert-adv-y="1000"/><glyph glyph-name="uni28" unicode="(" d="M97 79v554q0 56 19 93 15 29 66 80l37-37q-44-44-54-65-14-27-14-77V85q0-50 14-77 10-21 54-65l-37-37q-51 51-66 80-19 37-19 93z" horiz-adv-x="284" vert-adv-y="1000"/><glyph glyph-name="uni29" unicode=")" d="M187 79q0-56-19-93-15-29-66-80L65-57q44 44 54 65 14 27 14 77v542q0 50-14 77-10 21-54 65l37 37q51-51 66-80 19-37 19-93V79z" horiz-adv-x="284" vert-adv-y="1000"/><glyph glyph-name="uni2a" unicode="*" d="M395 476l-22-38-120 73 3-141h-45l3 141-120-73-22 38 123 68-123 68 22 38 120-73-3 141h45l-3-141 120 73 22-38-123-68 123-68z" horiz-adv-x="467" vert-adv-y="1000"/><glyph glyph-name="uni2b" unicode="+" d="M461 240H281V59h-47v181H53v47h181v180h47V287h180v-47z" horiz-adv-x="514" vert-adv-y="1000"/><glyph glyph-name="uni2c" unicode="," d="M163-68l-68-68V68h68V-68z" horiz-adv-x="258" vert-adv-y="1000"/><glyph glyph-name="uni2d" unicode="-" d="M344 240H82v47h262v-47z" horiz-adv-x="426" vert-adv-y="1000"/><glyph glyph-name="uni2e" unicode="." d="M169 0H95v74h74V0z" horiz-adv-x="264" vert-adv-y="1000"/><glyph glyph-name="uni2f" unicode="/" d="M338 786L53-74H0l285 860h53z" horiz-adv-x="338" vert-adv-y="1000"/><glyph glyph-name="uni30" unicode="0" d="M444 184q0-83-52.5-136.5T257-6q-82 0-134.5 53.5T70 184v344q0 83 52.5 136.5T257 718q82 0 134.5-53.5T444 528V184m-51 5v334q0 66-35.5 108T257 673q-65 0-100.5-42T121 523V189q0-66 35.5-108T257 39q65 0 100.5 42T393 189z" horiz-adv-x="514" vert-adv-y="1000"/><glyph glyph-name="uni31" unicode="1" d="M313 0h-51v654L133 540v61l129 111h51V0z" horiz-adv-x="514" vert-adv-y="1000"/><glyph glyph-name="uni32" unicode="2" d="M449 0H72v45l286 375q40 51 40 111 0 65-36.5 103.5T261 673q-60 0-98.5-35.5T124 531H73q0 81 51 134t137 53q85 0 136.5-51.5T449 531q0-73-49-137L133 45h316V0z" horiz-adv-x="514" vert-adv-y="1000"/><glyph glyph-name="uni33" unicode="3" d="M447 190q0-93-56.5-145T245-7q-87 0-142 45.5T42 173h51q6-68 48.5-101.5T245 38q65 0 108 41t43 111q0 152-155 152h-12v45h12q141 0 141 143 0 68-39 106t-99 38q-62 0-98.5-34.5T102 544H51q8 82 60.5 128.5T244 719q85 0 137-51.5T433 530q0-119-101-162 115-39 115-178z" horiz-adv-x="514" vert-adv-y="1000"/><glyph glyph-name="uni34" unicode="4" d="M471 117h-95V0h-51v117H43v45l262 550h54L97 162h228v226h51V162h95v-45z" horiz-adv-x="514" vert-adv-y="1000"/><glyph glyph-name="uni35" unicode="5" d="M451 233q0-64-10.5-109.5T396 44Q345-7 259-7q-91 0-137 48-42 42-48 116h51Q142 38 259 38q62 0 98 36 20 20 30 50t11.5 51.5Q400 197 400 233q0 38-5 68t-18 59.5q-13 29.5-41 46T267 423q-49 0-83.5-19.5T138 348H93v364h342v-45H138V415q47 53 135 53 77 0 120-43 58-58 58-192z" horiz-adv-x="514" vert-adv-y="1000"/><glyph glyph-name="uni36" unicode="6" d="M448 201q0-89-50.5-148T260-6q-88 0-138.5 55.5T71 194q0 66 40 149l183 369h51L181 383q37 17 83 17 85 0 134.5-56.5T448 201m-51-4q0 67-36.5 112.5T259 355q-63 0-100-43t-37-115q0-72 37-115t100-43q63 0 100.5 43T397 197z" horiz-adv-x="514" vert-adv-y="1000"/><glyph glyph-name="uni37" unicode="7" d="M459 667L207 0h-52l252 667H137V555H86v157h373v-45z" horiz-adv-x="514" vert-adv-y="1000"/><glyph glyph-name="uni38" unicode="8" d="M460 192q0-85-58-141.5T257-6q-87 0-145 56.5T54 192q0 118 113 178-98 54-98 162 0 79 53 132.5T257 718q82 0 135-53.5T445 532q0-110-97-162 112-59 112-178m-51 0q0 65-44 109.5T257 346q-64 0-108-44.5T105 192q0-66 43.5-109.5T257 39q65 0 108.5 43.5T409 192m-53 238.5l19 19.75Q394 470 394 532t-38 101.5Q318 673 257 673t-99-39.5Q120 594 120 532t38-101.5q38-39.5 99-39.5t99 39.5z" horiz-adv-x="514" vert-adv-y="1000"/><glyph glyph-name="uni39" unicode="9" d="M443 518q0-66-40-149L220 0h-51l164 329q-37-17-84-17-85 0-134 56.5T66 511q0 89 50.5 148T254 718q88 0 138.5-55.5T443 518m-88.5-118l18.75 21.5Q392 443 392 515t-37.5 115Q317 673 254 673t-100-43q-37-43-37-115 0-67 36-112.5T254 357q63 0 100.5 43z" horiz-adv-x="514" vert-adv-y="1000"/><glyph glyph-name="uni3a" unicode=":" d="M197 0h-74v74h74V0m0 312h-74v74h74v-74z" horiz-adv-x="292" vert-adv-y="1000"/><glyph glyph-name="uni3b" unicode=";" d="M193-68l-68-68V68h68V-68m4 380h-74v74h74v-74z" horiz-adv-x="292" vert-adv-y="1000"/><glyph glyph-name="uni3c" unicode="&lt;" d="M409 78L105 239v48l304 161v-55L155 263l254-130V78z" horiz-adv-x="514" vert-adv-y="1000"/><glyph glyph-name="uni3d" unicode="=" d="M461 163H53v47h408v-47m0 153H53v47h408v-47z" horiz-adv-x="514" vert-adv-y="1000"/><glyph glyph-name="uni3e" unicode="&gt;" d="M409 239L105 78v55l254 130-254 130v55l304-161v-48z" horiz-adv-x="514" vert-adv-y="1000"/><glyph glyph-name="uni3f" unicode="?" d="M438 542q0-55-44-119l-85-125q-18-26-18-60v-47h-51v45q0 48 29 90l84 124q13 19 18.5 29.5T382 507q5 17 5 35 0 56-36.5 93.5T259 673q-57 0-92.5-38.5T131 542H80q0 74 50 125t129 51q76 0 127.5-50.5T438 542M299 0h-67v67h67V0z" horiz-adv-x="488" vert-adv-y="1000"/><glyph glyph-name="uni40" unicode="@" d="M620 0h-51v59Q521-7 430-7q-89 0-139 65-43 58-43 183t39 181q45 67 142 67 89 0 140-68v89q0 43-9 69.5T528 629q-42 42-114 42H282q-71 0-113-42-23-23-32-49t-9-70V157q0-51 12-76t50-53L155-7q-46 32-62 65.5T77 157v350q0 94 55 151 52 54 141 54h150q87 0 141-54 56-56 56-151V0m-55.5 167l2.25 15.5Q569 198 569 241t-4.5 74q-4.5 31-17.5 63t-41.5 49Q477 444 434 444t-71.5-17Q334 410 321 378t-17.5-63q-4.5-31-4.5-74t4.5-74q4.5-31 17.5-63t41.5-49Q391 38 434 38t71.5 17Q534 72 547 104t17.5 63z" horiz-adv-x="697" vert-adv-y="1000"/><glyph glyph-name="uni41" unicode="A" d="M587 0h-58l-62 173H135L73 0H15l262 712h48L587 0M301 640L152 221h298L301 640z" horiz-adv-x="602" vert-adv-y="1000"/><glyph glyph-name="uni42" unicode="B" d="M589 194q0-93-56.5-143.5T380 0H110v712h262q91 0 148.5-50T578 526q0-57-29.5-100T467 366q58-20 90-65t32-107M491.5 87l21.75 19.5Q535 126 535 194t-43.5 107Q448 340 374 340H164V48h210q74 0 117.5 39M480 422l22 17q22 17 22 87t-44 104q-44 34-114 34H164V388h202q70 0 114 34z" horiz-adv-x="671" vert-adv-y="1000"/><glyph glyph-name="uni43" unicode="C" d="M568 202q-18-96-83-152T326-6Q221-6 153 62q-47 47-59 101.5T82 356q0 138 12 192.5T153 650q68 68 173 68 95 0 159.5-55.5T568 510h-55q-16 74-65.5 117T326 670q-80 0-135-55-36-36-45.5-86.5T136 356q0-122 9.5-172.5T191 97q55-55 135-55 72 0 122.5 43T515 202h53z" horiz-adv-x="644" vert-adv-y="1000"/><glyph glyph-name="uni44" unicode="D" d="M593.5 466.5l1.25-20.25Q596 426 596 356t-2.5-110.5Q591 205 575 151t-48-86Q462 0 349 0H110v712h239q113 0 178-65 32-32 48-86t18.5-94.5m-53-209l.75 17.25Q542 292 542 356t-1.5 98.5q-1.5 34.5-14 81.5T489 609q-52 55-153 55H164V48h172q101 0 153 55 25 26 37.5 73t14 81.5z" horiz-adv-x="678" vert-adv-y="1000"/><glyph glyph-name="uni45" unicode="E" d="M542 0H110v712h432v-48H164V383h322v-48H164V48h378V0z" horiz-adv-x="598" vert-adv-y="1000"/><glyph glyph-name="uni46" unicode="F" d="M542 664H164V371h322v-48H164V0h-54v712h432v-48z" horiz-adv-x="576" vert-adv-y="1000"/><glyph glyph-name="uni47" unicode="G" d="M571 248q0-107-58-172Q439-6 326-6 221-6 153 62q-47 47-59 101.5T82 356q0 138 12 192.5T153 650q68 68 173 68 93 0 160-57t83-151h-54q-16 74-66.5 117T326 670q-80 0-135-55-36-36-45.5-86.5T136 356q0-122 9.5-172.5T191 97q55-55 135-55 91 0 148 69 43 54 43 141v64H326v48h245V248z" horiz-adv-x="651" vert-adv-y="1000"/><glyph glyph-name="uni48" unicode="H" d="M589 0h-54v335H164V0h-54v712h54V383h371v329h54V0z" horiz-adv-x="699" vert-adv-y="1000"/><glyph glyph-name="uni49" unicode="I" d="M164 0h-54v712h54V0z" horiz-adv-x="274" vert-adv-y="1000"/><glyph glyph-name="uni4a" unicode="J" d="M398 210q0-98-58-157T186-6Q91-6 30 55l37 37q25-25 50.5-37.5T186 42q77 0 117.5 46T344 221v491h54V210z" horiz-adv-x="498" vert-adv-y="1000"/><glyph glyph-name="uni4b" unicode="K" d="M627 0h-64L334 399 164 193V0h-54v712h54V267l361 445h65L370 440 627 0z" horiz-adv-x="645" vert-adv-y="1000"/><glyph glyph-name="uni4c" unicode="L" d="M542 0H110v712h54V48h378V0z" horiz-adv-x="572" vert-adv-y="1000"/><glyph glyph-name="uni4d" unicode="M" d="M708 0h-54v587L438 100h-54L164 587V0h-54v712h54l248-549 242 549h54V0z" horiz-adv-x="818" vert-adv-y="1000"/><glyph glyph-name="uni4e" unicode="N" d="M629 0h-54L164 619V0h-54v712h54L575 95v617h54V0z" horiz-adv-x="739" vert-adv-y="1000"/><glyph glyph-name="uni4f" unicode="O" d="M558 548.5l6-27.25Q570 494 570 356t-12-192.5Q546 109 499 62 431-6 326-6T153 62q-47 47-59 101.5T82 356q0 138 12 192.5T153 650q68 68 173 68t173-68q47-47 59-101.5m-51.5-365l4.75 25.25Q516 234 516 356t-9.5 172.5Q497 579 461 615q-55 55-135 55t-135-55q-36-36-45.5-86.5T136 356q0-122 9.5-172.5T191 97q55-55 135-55t135 55q36 36 45.5 86.5z" horiz-adv-x="652" vert-adv-y="1000"/><glyph glyph-name="uni50" unicode="P" d="M526 657l30-27.5Q586 602 586 507t-60-150q-60-55-155-55H164V0h-54v712h261q95 0 155-55m-39-267.5l22.5 19.75Q532 429 532 507t-45 117.5Q442 664 365 664H164V350h201q77 0 122 39.5z" horiz-adv-x="631" vert-adv-y="1000"/><glyph glyph-name="uni51" unicode="Q" d="M570 356q0-124-9-177.5T519 84l84-84-36-36-84 83Q419-6 326-6 221-6 153 62q-47 47-59 101.5T82 356q0 138 12 192.5T153 650q68 68 173 68t173-68q47-47 59-101.5T570 356m-54 0q0 122-9.5 172.5T461 615q-55 55-135 55t-135-55q-36-36-45.5-86.5T136 356q0-122 9.5-172.5T191 97q55-55 135-55 70 0 121 42L347 184l36 36 98-99q23 33 29 81.5t6 153.5z" horiz-adv-x="651" vert-adv-y="1000"/><glyph glyph-name="uni52" unicode="R" d="M593 0h-63L360 328H164V0h-54v712h271q90 0 147-50.5T585 521q0-79-44-129t-120-63L593 0M488.5 412l21.25 18Q531 448 531 520t-42.5 108Q446 664 374 664H164V376h210q72 0 114.5 36z" horiz-adv-x="657" vert-adv-y="1000"/><glyph glyph-name="uni53" unicode="S" d="M528 191q0-90-64.5-143.5T288-6q-78 0-132.5 22T51 88l38 38q47-47 92-65.5T291 42q85 0 134 39t49 108q0 67-39 100-18 16-38.5 23.5T332 327l-83 13q-82 12-127 51-56 47-56 132 0 90 59.5 142.5T287 718q64 0 111-18t94-59l-35-35q-69 66-173 66-78 0-121.5-39T119 525q0-64 36-94 37-31 102-41l83-13q49-7 75.5-17.5T467 328q61-53 61-137z" horiz-adv-x="587" vert-adv-y="1000"/><glyph glyph-name="uni54" unicode="T" d="M509 664H296V0h-54v664H30v48h479v-48z" horiz-adv-x="539" vert-adv-y="1000"/><glyph glyph-name="uni55" unicode="U" d="M588 231q0-104-68.5-170.5T344-6Q237-6 168.5 60.5T100 231v481h54V238q0-89 52-142.5T344 42q86 0 138 53.5T534 238v474h54V231z" horiz-adv-x="688" vert-adv-y="1000"/><glyph glyph-name="uni56" unicode="V" d="M524 712L290 0h-46L10 712h57L267 95l200 617h57z" horiz-adv-x="534" vert-adv-y="1000"/><glyph glyph-name="uni57" unicode="W" d="M822 712L644 0h-55L421 620 253 0h-55L20 712h57L227 93l166 619h56L615 93l150 619h57z" horiz-adv-x="842" vert-adv-y="1000"/><glyph glyph-name="uni58" unicode="X" d="M514 0h-63L265 317 79 0H18l218 365L32 712h63l170-299 171 299h62L294 365 514 0z" horiz-adv-x="532" vert-adv-y="1000"/><glyph glyph-name="uni59" unicode="Y" d="M484 712L274 295V0h-54v295L10 712h58l181-360 177 360h58z" horiz-adv-x="494" vert-adv-y="1000"/><glyph glyph-name="uni5a" unicode="Z" d="M496 0H63v57l375 607H78v48h418v-48L118 48h378V0z" horiz-adv-x="559" vert-adv-y="1000"/><glyph glyph-name="uni5b" unicode="[" d="M245-74H97v860h148v-45h-97V-29h97v-45z" horiz-adv-x="290" vert-adv-y="1000"/><glyph glyph-name="uni5c" unicode="\" d="M338-74h-53L0 786h53L338-74z" horiz-adv-x="338" vert-adv-y="1000"/><glyph glyph-name="uni5d" unicode="]" d="M196-74H45v42h100v776H45v42h151V-74z" horiz-adv-x="293" vert-adv-y="1000"/><glyph glyph-name="uni5e" unicode="^" d="M438 422h-51L257 664 127 422H76l158 296h46l158-296z" horiz-adv-x="514" vert-adv-y="1000"/><glyph glyph-name="uni5f" unicode="_" d="M514-160H0v38h514v-38z" horiz-adv-x="514" vert-adv-y="1000"/><glyph glyph-name="uni60" unicode="`" d="M297 590h-58L133 737h67l97-147z" horiz-adv-x="500" vert-adv-y="1000"/><glyph glyph-name="uni61" unicode="a" d="M431 0h-51v48q-30-30-62.5-42T233-6Q134-6 91 38q-35 35-35 94 0 66 44.5 102.5T224 271h156v54q0 59-32 88.5T244 443q-50 0-79.5-14T111 382l-37 32q30 41 69.5 57.5T244 488q187 0 187-158V0m-51 168v62H230q-123 0-123-97 0-48 30-71t96-23q81 0 120 37 27 26 27 92z" horiz-adv-x="524" vert-adv-y="1000"/><glyph glyph-name="uni62" unicode="b" d="M409 446q62-62 62-205T409 36Q367-6 291-6q-45 0-79 14.5T148 62V0H97v712h51V420q30 39 64 53.5t79 14.5q76 0 118-42m6-280l2.5 16q2.5 16 2.5 59t-5 75q-5 32-18.5 63t-42 47.5Q326 443 284 443t-70.5-16.5Q185 410 171.5 379T153 316q-5-32-5-75t5-75q5-32 18.5-63t42-47.5Q242 39 284 39t70.5 16.5Q383 72 396.5 103t18.5 63z" horiz-adv-x="540" vert-adv-y="1000"/><glyph glyph-name="uni63" unicode="c" d="M440 68q-37-42-72.5-58T281-6q-99 0-155.5 66T69 241q0 115 56.5 181T281 488q51 0 86.5-16t72.5-58l-35-32q-31 34-58 47.5T281 443q-85 0-128-64-33-48-33-138t33-138q43-64 128-64 38 0 65.5 13.5T405 100l35-32z" horiz-adv-x="493" vert-adv-y="1000"/><glyph glyph-name="uni64" unicode="d" d="M443 0h-51v62q-30-39-64-53.5T249-6q-76 0-118 42-62 62-62 205t62 205q42 42 118 42 45 0 79-14.5t64-53.5v292h51V0m-56 166l2.5 16q2.5 16 2.5 59t-5 75q-5 32-18.5 63t-42 47.5Q298 443 256 443t-70.5-16.5Q157 410 143.5 379T125 316q-5-32-5-75t5-75q5-32 18.5-63t42-47.5Q214 39 256 39t70.5 16.5Q355 72 368.5 103t18.5 63z" horiz-adv-x="540" vert-adv-y="1000"/><glyph glyph-name="uni65" unicode="e" d="M455 230H120q0-93 40-141.5T277 40q42 0 72 13.5T410 98l38-30q-39-39-78-56.5T274-6Q174-6 121.5 57T69 241q0 117 51 182t142 65q91 0 142-62t51-173v-23m-51 41q-4 62-17 91-16 38-49.5 59.5T262 443q-42 0-75-21.5T137 362q-13-29-17-91h284z" horiz-adv-x="523" vert-adv-y="1000"/><glyph glyph-name="uni66" unicode="f" d="M272 444H163V0h-51v444H46v38h66v104q0 57 30.5 91.5T228 712h44v-45h-35q-74 0-74-80V482h109v-38z" horiz-adv-x="304" vert-adv-y="1000"/><glyph glyph-name="uni67" unicode="g" d="M443-27q0-93-52.5-151T246-236q-52 0-86 14.5T87-172l34 34q32-29 57-41t68-12q73 0 109.5 45.5T392-24v86q-30-39-64-53.5T249-6q-76 0-118 42-62 62-62 205t62 205q42 42 118 42 45 0 79-14.5t64-53.5v62h51V-27m-56 193l2.5 16q2.5 16 2.5 59t-5 75q-5 32-18.5 63t-42 47.5Q298 443 256 443t-70.5-16.5Q157 410 143.5 379T125 316q-5-32-5-75t5-75q5-32 18.5-63t42-47.5Q214 39 256 39t70.5 16.5Q355 72 368.5 103t18.5 63z" horiz-adv-x="540" vert-adv-y="1000"/><glyph glyph-name="uni68" unicode="h" d="M468 0h-51v299q0 70-34 107t-99 37q-65 0-100.5-37T148 299V0H97v712h51V425q54 63 142 63 83 0 130.5-48T468 308V0z" horiz-adv-x="559" vert-adv-y="1000"/><glyph glyph-name="uni69" unicode="i" d="M148 0H97v482h51V0m6 649H91v63h63v-63z" horiz-adv-x="245" vert-adv-y="1000"/><glyph glyph-name="uni6a" unicode="j" d="M148-105q0-59-29-92t-87-33h-44v45h35q41 0 57.5 19T97-104v586h51v-587m6 754H91v63h63v-63z" horiz-adv-x="245" vert-adv-y="1000"/><glyph glyph-name="uni6b" unicode="k" d="M487 0h-63L258 265 148 138V0H97v712h51V210l239 272h65L293 302 487 0z" horiz-adv-x="527" vert-adv-y="1000"/><glyph glyph-name="uni6c" unicode="l" d="M255 0h-44q-58 0-87 33t-29 92v587h51V126q0-43 16.5-62T220 45h35V0z" horiz-adv-x="287" vert-adv-y="1000"/><glyph glyph-name="uni6d" unicode="m" d="M788 0h-51v299q0 70-34 107t-99 37q-63 0-99.5-36.5T468 308V0h-51v299q0 70-34 107t-99 37q-65 0-100.5-37.5T148 299V0H97v482h51v-57q54 63 143 63 110 0 155-88 56 88 164 88 78 0 127-46 51-49 51-134V0z" horiz-adv-x="878" vert-adv-y="1000"/><glyph glyph-name="uni6e" unicode="n" d="M468 0h-51v299q0 70-34 107t-99 37q-65 0-100.5-37.5T148 299V0H97v482h51v-57q54 63 142 63 81 0 128-46 50-48 50-134V0z" horiz-adv-x="559" vert-adv-y="1000"/><glyph glyph-name="uni6f" unicode="o" d="M397 435q60-60 60-194T397 47Q344-6 263-6T129 47q-60 60-60 194t60 194q53 53 134 53t134-53M363 80q43 43 43 161t-43 161q-41 41-100 41t-100-41q-43-43-43-161t43-161q41-41 100-41t100 41z" horiz-adv-x="526" vert-adv-y="1000"/><glyph glyph-name="uni70" unicode="p" d="M409 446q62-62 62-205T409 36Q367-6 291-6q-45 0-79 14.5T148 62v-292H97v712h51v-62q30 39 64 53.5t79 14.5q76 0 118-42m6-280l2.5 16q2.5 16 2.5 59t-5 75q-5 32-18.5 63t-42 47.5Q326 443 284 443t-70.5-16.5Q185 410 171.5 379T153 316q-5-32-5-75t5-75q5-32 18.5-63t42-47.5Q242 39 284 39t70.5 16.5Q383 72 396.5 103t18.5 63z" horiz-adv-x="540" vert-adv-y="1000"/><glyph glyph-name="uni71" unicode="q" d="M443-230h-51V62q-30-39-64-53.5T249-6q-76 0-118 42-62 62-62 205t62 205q42 42 118 42 45 0 79-14.5t64-53.5v62h51v-712m-56 396l2.5 16q2.5 16 2.5 59t-5 75q-5 32-18.5 63t-42 47.5Q298 443 256 443t-70.5-16.5Q157 410 143.5 379T125 316q-5-32-5-75t5-75q5-32 18.5-63t42-47.5Q214 39 256 39t70.5 16.5Q355 72 368.5 103t18.5 63z" horiz-adv-x="540" vert-adv-y="1000"/><glyph glyph-name="uni72" unicode="r" d="M368 405q-22 22-41.5 30t-49.5 8q-60 0-94.5-42.5T148 297V0H97v482h51v-64q21 33 59 51.5t82 18.5q70 0 116-46l-37-37z" horiz-adv-x="409" vert-adv-y="1000"/><glyph glyph-name="uni73" unicode="s" d="M438 137q0-66-52-104.5T245-6Q122-6 50 63l35 35q56-59 158-59 145 0 145 98 0 38-22 57t-70 24l-80 7Q71 237 71 351q0 63 47 100t126 37q100 0 169-51l-34-34q-56 41-135 41-60 0-91.5-24T121 351q0-38 23.5-57t74.5-24l78-7q68-7 104.5-34t36.5-92z" horiz-adv-x="494" vert-adv-y="1000"/><glyph glyph-name="uni74" unicode="t" d="M269 0h-44q-55 0-85.5 34.5T109 126v318H43v38h66v154h51V482h109v-38H160V125q0-80 74-80h35V0z" horiz-adv-x="325" vert-adv-y="1000"/><glyph glyph-name="uni75" unicode="u" d="M462 0h-51v57Q357-6 269-6q-81 0-128 46-50 48-50 134v308h51V183q0-70 34-107t99-37q65 0 100.5 37.5T411 183v299h51V0z" horiz-adv-x="559" vert-adv-y="1000"/><glyph glyph-name="uni76" unicode="v" d="M416 482L240 0h-50L14 482h56L215 60l145 422h56z" horiz-adv-x="430" vert-adv-y="1000"/><glyph glyph-name="uni77" unicode="w" d="M698 482L544 0h-52L356 402 220 0h-52L14 482h56L193 60l138 422h50L519 60l123 422h56z" horiz-adv-x="712" vert-adv-y="1000"/><glyph glyph-name="uni78" unicode="x" d="M420 0h-62L231 203 102 0H40l163 246L47 482h62l122-194 120 194h62L257 246 420 0z" horiz-adv-x="460" vert-adv-y="1000"/><glyph glyph-name="uni79" unicode="y" d="M416 482L192-131q-14-40-33-56-32-31-91-31H44v45h19q40 0 57.5 14t30.5 52L190 0 14 482h56L215 60l145 422h56z" horiz-adv-x="430" vert-adv-y="1000"/><glyph glyph-name="uni7a" unicode="z" d="M398 0H54v48l290 389H70v45h328v-48L107 45h291V0z" horiz-adv-x="452" vert-adv-y="1000"/><glyph glyph-name="uni7b" unicode="{" d="M266-74h-14q-70 0-97 27-26 26-26 95v207q0 42-18 60-19 19-43 19H50v44h18q24 0 43 19 18 18 18 60v207q0 69 26 95 27 27 97 27h14v-45h-13q-46 0-59-13-14-14-14-65V456q0-39-14-61.5T119 356q33-16 47-38.5t14-61.5V49q0-51 14-65 13-13 59-13h13v-45z" horiz-adv-x="316" vert-adv-y="1000"/><glyph glyph-name="uni7c" unicode="|" d="M184-74h-51v860h51V-74z" horiz-adv-x="317" vert-adv-y="1000"/><glyph glyph-name="uni7d" unicode="}" d="M266 334h-18q-24 0-43-19-18-18-18-60V48q0-69-26-95-27-27-97-27H50v45h13q46 0 59 13 14 14 14 65v207q0 39 14 61.5t47 38.5q-33 16-47 38.5T136 456v207q0 51-14 65-13 13-59 13H50v45h14q70 0 97-27 26-26 26-95V457q0-42 18-60 19-19 43-19h18v-44z" horiz-adv-x="316" vert-adv-y="1000"/><glyph glyph-name="uni7e" unicode="~" d="M461 277q-39-39-62-50.5T345 215q-28 0-102 31-54 23-76 23t-38-8q-16-8-45-37l-31 31q39 39 62 50.5t54 11.5q28 0 102-31 54-23 76-23 23 0 38.5 8t44.5 37l31-31z" horiz-adv-x="514" vert-adv-y="1000"/><glyph glyph-name="unia1" unicode="¡" d="M165-230h-55l3 520h49l3-520m6 645h-67v67h67v-67z" horiz-adv-x="304" vert-adv-y="1000"/><glyph glyph-name="unia2" unicode="¢" d="M440 193q-36-40-68.5-56T292 119V0h-43v121q-85 11-132.5 75.5T69 366q0 105 47.5 169.5T249 611v101h43v-99q47-2 79.5-18t68.5-56l-35-32q-29 32-54 45.5T292 568V164q34 2 59 15.5t54 45.5l35-32M249 565q-61-10-96-61-33-48-33-138t33-138q35-51 96-61v398z" horiz-adv-x="498" vert-adv-y="1000"/><glyph glyph-name="unia3" unicode="£" d="M482 0H114v342H50v38h64v122q0 98 58 157t154 59q95 0 156-61l-37-37q-25 25-50.5 37.5T326 670q-77 0-117.5-46T168 491V380h158v-38H168V48h314V0z" horiz-adv-x="537" vert-adv-y="1000"/><glyph glyph-name="unia4" unicode="¤" d="M545 265q0-81-47-137l74-74-32-32-75 74q-57-48-137-48T191 96l-74-74-32 32 74 74q-48 57-48 137 0 81 48 138l-74 73 32 32 74-73q56 47 137 47t137-47l75 73 32-32-74-73q47-56 47-138m-97.5-120l24.75 24.5Q497 194 497 265t-49.5 120Q398 434 328 434t-119.5-49Q159 336 159 265t49.5-120Q258 96 328 96t119.5 49z" horiz-adv-x="657" vert-adv-y="1000"/><glyph glyph-name="unia5" unicode="¥" d="M483 712L320 386h108v-38H301l-27-53v-53h154v-38H274V0h-54v204H65v38h155v53l-27 53H65v38h109L10 712h57l181-361 179 361h56z" horiz-adv-x="493" vert-adv-y="1000"/><glyph glyph-name="unia6" unicode="¦" d="M184-74h-51v350h51V-74m0 510h-51v350h51V436z" horiz-adv-x="328" vert-adv-y="1000"/><glyph glyph-name="unia7" unicode="§" d="M469 247q0-60-31-104t-79-66q48-16 75.5-54.5T462-69q0-73-50-120t-129-47q-77 0-127.5 41T99-81h54q10-107 130-107 58 0 91.5 31T408-69q0 40-25.5 70T314 43l-83 23q-63 18-98.5 66.5T97 247q0 60 31 104t79 66q-99 42-99 141 0 73 50.5 116.5T283 718q73 0 123.5-40.5T461 567h-53q-10 104-125 104-58 0-90-28.5T161 558q0-81 91-107l83-23q62-18 98-67t36-114m-54 0q0 66-35 101-41 41-97 41-59 0-97-41-35-38-35-101 0-64 35-101 38-41 97-41t97 41q35 38 35 101z" horiz-adv-x="566" vert-adv-y="1000"/><glyph glyph-name="unia8" unicode="¨" d="M175 600h-58v77h58v-77m208 0h-58v77h58v-77z" horiz-adv-x="500" vert-adv-y="1000"/><glyph glyph-name="unia9" unicode="©" d="M703 612l53-53q53-53 53-203T703 100Q597-6 447-6T191 100Q85 206 85 356t106 256q106 106 256 106t256-106m-34.5-479.5l46.25 47.25Q761 227 761 356t-92.5 223.5Q576 674 447 674t-221.5-94.5Q133 485 133 356t92.5-223.5Q318 38 447 38t221.5 94.5M582 202q-58-52-131-52-87 0-132 58t-45 148q0 90 45 148.5T451 563q41 0 70-12t61-41l-30-30q-47 42-101 42-70 0-101-46t-31-120q0-165 132-165 55 0 101 41l30-30z" horiz-adv-x="894" vert-adv-y="1000"/><glyph glyph-name="uniaa" unicode="ª" d="M356 327h-43v36q-42-41-114-41-80 0-112 35-28 28-28 75 0 53 35 82t98 29h121v42q0 46-24.5 68.5T208 676q-40 0-63-10.5T104 628l-32 27q25 34 56.5 47t79.5 13q148 0 148-126V327m-43 134v47H197q-95 0-95-75 0-37 23-54.5t74-17.5q64 0 94 28 20 20 20 72z" horiz-adv-x="447" vert-adv-y="1000"/><glyph glyph-name="uniab" unicode="«" d="M238 69L42 265l196 196v-66L108 265l130-130V69m207 0L249 265l196 196v-66L315 265l130-130V69z" horiz-adv-x="527" vert-adv-y="1000"/><glyph glyph-name="uniac" unicode="¬" d="M461 107h-47v133H53v47h408V107z" horiz-adv-x="514" vert-adv-y="1000"/><glyph glyph-name="uniad" unicode="­" d="M344 240H82v47h262v-47z" horiz-adv-x="426" vert-adv-y="1000"/><glyph glyph-name="uniae" unicode="®" d="M703 612l53-53q53-53 53-203T703 100Q597-6 447-6T191 100Q85 206 85 356t106 256q106 106 256 106t256-106m-34-480.5l46.5 47.25Q762 226 762 356t-93 224.5Q576 675 447 675t-222-94.5Q132 486 132 356t93-224.5Q318 37 447 37t222 94.5M543 156l-99 167h-66V156h-45v401h128q51 0 87.5-34t36.5-84q0-86-91-112l101-171h-52m-27 228.5l12 10.75Q540 406 540 439t-24 55q-24 22-60 22h-78V363h78q36 0 60 21.5z" horiz-adv-x="894" vert-adv-y="1000"/><glyph glyph-name="uniaf" unicode="¯" d="M398 610H102v46h296v-46z" horiz-adv-x="500" vert-adv-y="1000"/><glyph glyph-name="unib0" unicode="°" d="M340 673l23-23q23-23 23-88t-46-111q-46-46-111-46t-111 46q-46 46-46 111t46 111q46 46 111 46t111-46m1-111q0 48-32.5 81.5T228 677q-48 0-79.5-32.5T117 562q0-50 32-82.5t80-32.5q48 0 80 32.5t32 82.5z" horiz-adv-x="458" vert-adv-y="1000"/><glyph glyph-name="unib1" unicode="±" d="M461 270H281V88h-47v182H53v47h181v181h47V317h180v-47m0-270H53v47h408V0z" horiz-adv-x="514" vert-adv-y="1000"/><glyph glyph-name="unib2" unicode="²" d="M280 285H44v40l168 213q23 31 23 62 0 36-19 56t-54 20q-32 0-53-18.5T88 600H44q0 52 32 84t86 32q54 0 86-31t32-85q0-43-34-87L97 325h183v-40z" horiz-adv-x="313" vert-adv-y="1000"/><glyph glyph-name="unib3" unicode="³" d="M282 403q0-57-35-89.5T157 281q-54 0-89.5 29.5T30 395h45q2-37 25-55.5t57-18.5q35 0 58 22.5t23 59.5q0 81-84 81h-8v39h8q37 0 56.5 20t19.5 56q0 36-21.5 56.5T156 676q-33 0-53-18.5T80 606H36q4 51 37 80.5t83 29.5q53 0 85.5-31.5T274 600q0-68-57-94 65-24 65-103z" horiz-adv-x="313" vert-adv-y="1000"/><glyph glyph-name="unib4" unicode="´" d="M367 737L261 590h-58l97 147h67z" horiz-adv-x="500" vert-adv-y="1000"/><glyph glyph-name="unib5" unicode="µ" d="M459 0h-51v57Q354-6 266-6q-79 0-127 45v-269H88v712h51V183q0-70 34-107t99-37q65 0 100.5 37.5T408 183v299h51V0z" horiz-adv-x="556" vert-adv-y="1000"/><glyph glyph-name="unib6" unicode="¶" d="M469-230h-51v894H295v-894h-51v562q-91 0-145 57.5T45 522q0 78 56.5 134T256 712h213v-942z" horiz-adv-x="579" vert-adv-y="1000"/><glyph glyph-name="unib7" unicode="·" d="M169 227H95v74h74v-74z" horiz-adv-x="264" vert-adv-y="1000"/><glyph glyph-name="unib8" unicode="¸" d="M308-70l-64-150h-63l72 150h55z" horiz-adv-x="500" vert-adv-y="1000"/><glyph glyph-name="unib9" unicode="¹" d="M196 285h-44v378l-80-71v51l80 69h44V285z" horiz-adv-x="313" vert-adv-y="1000"/><glyph glyph-name="uniba" unicode="º" d="M332 673q48-48 48-154t-48-154q-42-42-106-42t-106 42q-48 48-48 154t48 154q42 42 106 42t106-42m-28-279q33 33 33 125t-33 125q-32 32-78 32t-78-32q-33-33-33-125t33-125q32-32 78-32t78 32z" horiz-adv-x="452" vert-adv-y="1000"/><glyph glyph-name="unibb" unicode="»" d="M278 265L82 69v66l130 130L82 395v66l196-196m207 0L289 69v66l130 130-130 130v66l196-196z" horiz-adv-x="527" vert-adv-y="1000"/><glyph glyph-name="unibc" unicode="¼" d="M196 285h-44v378l-80-71v51l80 69h44V285m394 427L258 0h-45l332 712h45M780 67h-52V0h-44v67H514v40l154 320h47L562 107h122v120h44V107h52V67z" horiz-adv-x="803" vert-adv-y="1000"/><glyph glyph-name="unibd" unicode="½" d="M196 285h-44v378l-80-71v51l80 69h44V285m394 427L258 0h-45l332 712h45M770 0H534v40l168 213q23 31 23 62 0 36-19 56t-54 20q-32 0-53-18.5T578 315h-44q0 51 32 83.5t86 32.5q54 0 86-31t32-85q0-43-34-87L587 40h183V0z" horiz-adv-x="803" vert-adv-y="1000"/><glyph glyph-name="unibe" unicode="¾" d="M282 403q0-57-35-89.5T157 281q-54 0-89.5 29.5T30 395h45q2-37 25-55.5t57-18.5q35 0 58 22.5t23 59.5q0 81-84 81h-8v39h8q37 0 56.5 20t19.5 56q0 36-21.5 56.5T156 676q-33 0-53-18.5T80 606H36q4 51 37 80.5t83 29.5q53 0 85.5-31.5T274 600q0-68-57-94 65-24 65-103m308 309L258 0h-45l332 712h45M780 67h-52V0h-44v67H514v40l154 320h47L562 107h122v120h44V107h52V67z" horiz-adv-x="803" vert-adv-y="1000"/><glyph glyph-name="unibf" unicode="¿" d="M408-60q0-74-50-125t-129-51q-76 0-127.5 50.5T50-60Q50-5 94 59l85 125q18 26 18 60v47h51v-45q0-48-29-90L135 32q-13-19-18.5-29.5T106-25q-5-17-5-35 0-56 36.5-93.5T229-191q57 0 92.5 38.5T357-60h51M256 415h-67v67h67v-67z" horiz-adv-x="488" vert-adv-y="1000"/><glyph glyph-name="unic0" unicode="À" d="M587 0h-58l-62 173H135L73 0H15l262 712h48L587 0M301 640L152 221h298L301 640m47 140h-58L184 927h67l97-147z" horiz-adv-x="602" vert-adv-y="1000"/><glyph glyph-name="unic1" unicode="Á" d="M587 0h-58l-62 173H135L73 0H15l262 712h48L587 0M301 640L152 221h298L301 640m117 287L312 780h-58l97 147h67z" horiz-adv-x="602" vert-adv-y="1000"/><glyph glyph-name="unic2" unicode="Â" d="M587 0h-58l-62 173H135L73 0H15l262 712h48L587 0M301 640L152 221h298L301 640m150 140h-57l-93 109-93-109h-57l123 147h54l123-147z" horiz-adv-x="602" vert-adv-y="1000"/><glyph glyph-name="unic3" unicode="Ã" d="M587 0h-58l-62 173H135L73 0H15l262 712h48L587 0M301 640L152 221h298L301 640m149 203q-48-48-89-48-28 0-69 24-36 21-56 21-26 0-59-33l-30 29q48 48 89 48 31 0 69-24 34-21 56-21 26 0 59 33l30-29z" horiz-adv-x="602" vert-adv-y="1000"/><glyph glyph-name="unic4" unicode="Ä" d="M587 0h-58l-62 173H135L73 0H15l262 712h48L587 0M301 640L152 221h298L301 640m-75 150h-58v77h58v-77m208 0h-58v77h58v-77z" horiz-adv-x="602" vert-adv-y="1000"/><glyph glyph-name="unic5" unicode="Å" d="M587 0h-58l-62 173H135L73 0H15l262 712h48L587 0M301 640L152 221h298L301 640m80.5 301.5l16.75-16.75Q415 908 415 861t-33.5-81Q348 746 301 746t-80.5 34Q187 814 187 861t33.5 80.5Q254 975 301 975t80.5-33.5m-29-132l10.75 10.75Q374 831 374 861t-21.5 51Q331 933 301 933t-51.5-21Q228 891 228 861t21.5-51.5Q271 788 301 788t51.5 21.5z" horiz-adv-x="602" vert-adv-y="1000"/><glyph glyph-name="unic6" unicode="Æ" d="M845 0H414v173H159L69 0H10l377 712h458v-48H467V380h322v-48H467V48h378V0M414 221v443L182 221h232z" horiz-adv-x="901" vert-adv-y="1000"/><glyph glyph-name="unic7" unicode="Ç" d="M568 202q-18-96-83-152T326-6Q221-6 153 62q-47 47-59 101.5T82 356q0 138 12 192.5T153 650q68 68 173 68 95 0 159.5-55.5T568 510h-55q-16 74-65.5 117T326 670q-80 0-135-55-36-36-45.5-86.5T136 356q0-122 9.5-172.5T191 97q55-55 135-55 72 0 122.5 43T515 202h53M366-70l-64-150h-63l72 150h55z" horiz-adv-x="644" vert-adv-y="1000"/><glyph glyph-name="unic8" unicode="È" d="M542 0H110v712h432v-48H164V383h322v-48H164V48h378V0M361 780h-58L197 927h67l97-147z" horiz-adv-x="598" vert-adv-y="1000"/><glyph glyph-name="unic9" unicode="É" d="M542 0H110v712h432v-48H164V383h322v-48H164V48h378V0M431 927L325 780h-58l97 147h67z" horiz-adv-x="598" vert-adv-y="1000"/><glyph glyph-name="unica" unicode="Ê" d="M542 0H110v712h432v-48H164V383h322v-48H164V48h378V0m-78 780h-57l-93 109-93-109h-57l123 147h54l123-147z" horiz-adv-x="598" vert-adv-y="1000"/><glyph glyph-name="unicb" unicode="Ë" d="M542 0H110v712h432v-48H164V383h322v-48H164V48h378V0M239 790h-58v77h58v-77m208 0h-58v77h58v-77z" horiz-adv-x="598" vert-adv-y="1000"/><glyph glyph-name="unicc" unicode="Ì" d="M164 0h-54v712h54V0m7 780h-58L7 927h67l97-147z" horiz-adv-x="274" vert-adv-y="1000"/><glyph glyph-name="unicd" unicode="Í" d="M267 927L161 780h-58l97 147h67M164 0h-54v712h54V0z" horiz-adv-x="274" vert-adv-y="1000"/><glyph glyph-name="unice" unicode="Î" d="M164 0h-54v712h54V0m125 780h-57l-93 109-93-109h-57l123 147h54l123-147z" horiz-adv-x="274" vert-adv-y="1000"/><glyph glyph-name="unicf" unicode="Ï" d="M164 0h-54v712h54V0M62 790H4v77h58v-77m208 0h-58v77h58v-77z" horiz-adv-x="274" vert-adv-y="1000"/><glyph glyph-name="unid0" unicode="Ð" d="M604.5 466.5l1.25-20.25Q607 426 607 356t-2.5-110.5Q602 205 586 151t-48-86Q473 0 360 0H121v338H40v42h81v332h239q113 0 178-65 32-32 48-86t18.5-94.5m-53-209l.75 17.25Q553 292 553 356t-1.5 98.5q-1.5 34.5-14 81.5T500 609q-52 55-153 55H175V380h178v-42H175V48h172q101 0 153 55 25 26 37.5 73t14 81.5z" horiz-adv-x="689" vert-adv-y="1000"/><glyph glyph-name="unid1" unicode="Ñ" d="M629 0h-54L164 619V0h-54v712h54L575 95v617h54V0M519 843q-48-48-89-48-28 0-69 24-36 21-56 21-26 0-59-33l-30 29q48 48 89 48 31 0 69-24 34-21 56-21 26 0 59 33l30-29z" horiz-adv-x="739" vert-adv-y="1000"/><glyph glyph-name="unid2" unicode="Ò" d="M558 548.5l6-27.25Q570 494 570 356t-12-192.5Q546 109 499 62 431-6 326-6T153 62q-47 47-59 101.5T82 356q0 138 12 192.5T153 650q68 68 173 68t173-68q47-47 59-101.5m-51.5-365l4.75 25.25Q516 234 516 356t-9.5 172.5Q497 579 461 615q-55 55-135 55t-135-55q-36-36-45.5-86.5T136 356q0-122 9.5-172.5T191 97q55-55 135-55t135 55q36 36 45.5 86.5M373 780h-58L209 927h67l97-147z" horiz-adv-x="652" vert-adv-y="1000"/><glyph glyph-name="unid3" unicode="Ó" d="M558 548.5l6-27.25Q570 494 570 356t-12-192.5Q546 109 499 62 431-6 326-6T153 62q-47 47-59 101.5T82 356q0 138 12 192.5T153 650q68 68 173 68t173-68q47-47 59-101.5m-51.5-365l4.75 25.25Q516 234 516 356t-9.5 172.5Q497 579 461 615q-55 55-135 55t-135-55q-36-36-45.5-86.5T136 356q0-122 9.5-172.5T191 97q55-55 135-55t135 55q36 36 45.5 86.5M443 927L337 780h-58l97 147h67z" horiz-adv-x="652" vert-adv-y="1000"/><glyph glyph-name="unid4" unicode="Ô" d="M558 548.5l6-27.25Q570 494 570 356t-12-192.5Q546 109 499 62 431-6 326-6T153 62q-47 47-59 101.5T82 356q0 138 12 192.5T153 650q68 68 173 68t173-68q47-47 59-101.5m-51.5-365l4.75 25.25Q516 234 516 356t-9.5 172.5Q497 579 461 615q-55 55-135 55t-135-55q-36-36-45.5-86.5T136 356q0-122 9.5-172.5T191 97q55-55 135-55t135 55q36 36 45.5 86.5M476 780h-57l-93 109-93-109h-57l123 147h54l123-147z" horiz-adv-x="652" vert-adv-y="1000"/><glyph glyph-name="unid5" unicode="Õ" d="M558 548.5l6-27.25Q570 494 570 356t-12-192.5Q546 109 499 62 431-6 326-6T153 62q-47 47-59 101.5T82 356q0 138 12 192.5T153 650q68 68 173 68t173-68q47-47 59-101.5m-51.5-365l4.75 25.25Q516 234 516 356t-9.5 172.5Q497 579 461 615q-55 55-135 55t-135-55q-36-36-45.5-86.5T136 356q0-122 9.5-172.5T191 97q55-55 135-55t135 55q36 36 45.5 86.5M475 843q-48-48-89-48-28 0-69 24-36 21-56 21-26 0-59-33l-30 29q48 48 89 48 31 0 69-24 34-21 56-21 26 0 59 33l30-29z" horiz-adv-x="652" vert-adv-y="1000"/><glyph glyph-name="unid6" unicode="Ö" d="M558 548.5l6-27.25Q570 494 570 356t-12-192.5Q546 109 499 62 431-6 326-6T153 62q-47 47-59 101.5T82 356q0 138 12 192.5T153 650q68 68 173 68t173-68q47-47 59-101.5m-51.5-365l4.75 25.25Q516 234 516 356t-9.5 172.5Q497 579 461 615q-55 55-135 55t-135-55q-36-36-45.5-86.5T136 356q0-122 9.5-172.5T191 97q55-55 135-55t135 55q36 36 45.5 86.5M251 790h-58v77h58v-77m208 0h-58v77h58v-77z" horiz-adv-x="652" vert-adv-y="1000"/><glyph glyph-name="unid7" unicode="×" d="M443 109l-31-31-155 155L102 78l-31 31 155 155L71 419l31 31 155-155 155 155 31-31-155-155 155-155z" horiz-adv-x="514" vert-adv-y="1000"/><glyph glyph-name="unid8" unicode="Ø" d="M570 356q0-138-12-192.5T499 62Q431-6 326-6q-71 0-130 35l-35-73h-53l49 102q-51 49-63 104T82 356q0 138 12 192.5T153 650q68 68 173 68 73 0 130-35l35 73h53l-49-102q51-50 63-104.5T570 356M434 637q-48 33-108 33-80 0-135-55-36-36-45.5-86.5T136 356q0-115 7.5-164.5T181 108l253 529m82-281q0 113-8 163t-37 85L218 75q48-33 108-33 80 0 135 55 36 36 45.5 86.5T516 356z" horiz-adv-x="652" vert-adv-y="1000"/><glyph glyph-name="unid9" unicode="Ù" d="M588 231q0-104-68.5-170.5T344-6Q237-6 168.5 60.5T100 231v481h54V238q0-89 52-142.5T344 42q86 0 138 53.5T534 238v474h54V231M391 780h-58L227 927h67l97-147z" horiz-adv-x="688" vert-adv-y="1000"/><glyph glyph-name="unida" unicode="Ú" d="M588 231q0-104-68.5-170.5T344-6Q237-6 168.5 60.5T100 231v481h54V238q0-89 52-142.5T344 42q86 0 138 53.5T534 238v474h54V231M461 927L355 780h-58l97 147h67z" horiz-adv-x="688" vert-adv-y="1000"/><glyph glyph-name="unidb" unicode="Û" d="M588 231q0-104-68.5-170.5T344-6Q237-6 168.5 60.5T100 231v481h54V238q0-89 52-142.5T344 42q86 0 138 53.5T534 238v474h54V231m-94 549h-57l-93 109-93-109h-57l123 147h54l123-147z" horiz-adv-x="688" vert-adv-y="1000"/><glyph glyph-name="unidc" unicode="Ü" d="M588 231q0-104-68.5-170.5T344-6Q237-6 168.5 60.5T100 231v481h54V238q0-89 52-142.5T344 42q86 0 138 53.5T534 238v474h54V231M269 790h-58v77h58v-77m208 0h-58v77h58v-77z" horiz-adv-x="688" vert-adv-y="1000"/><glyph glyph-name="unidd" unicode="Ý" d="M484 712L274 295V0h-54v295L10 712h58l181-360 177 360h58M364 927L258 780h-58l97 147h67z" horiz-adv-x="494" vert-adv-y="1000"/><glyph glyph-name="unide" unicode="Þ" d="M586 359q0-95-60-150t-155-55H164V0h-54v712h54V564h207q95 0 155-54.5T586 359m-99-117.5l22.5 19.75Q532 281 532 359t-45 117.5Q442 516 365 516H164V202h201q77 0 122 39.5z" horiz-adv-x="646" vert-adv-y="1000"/><glyph glyph-name="unidf" unicode="ß" d="M473 134q0-63-39-100-38-34-95-34h-54v45h44q37 0 65 22t28 73v178q0 46-23 68-23 23-65 23h-49v45h39q45 0 71.5 28t26.5 74q0 53-35 85t-104 32q-69 0-102-40t-33-109V0H97v524q0 91 50.5 142.5T289 718q80 0 131.5-41T472 556q0-80-63-122 37-19 50.5-46.5T473 310V134z" horiz-adv-x="550" vert-adv-y="1000"/><glyph glyph-name="unie0" unicode="à" d="M431 0h-51v48q-30-30-62.5-42T233-6Q134-6 91 38q-35 35-35 94 0 66 44.5 102.5T224 271h156v54q0 59-32 88.5T244 443q-50 0-79.5-14T111 382l-37 32q30 41 69.5 57.5T244 488q187 0 187-158V0m-51 168v62H230q-123 0-123-97 0-48 30-71t96-23q81 0 120 37 27 26 27 92m-84 422h-58L132 737h67l97-147z" horiz-adv-x="524" vert-adv-y="1000"/><glyph glyph-name="unie1" unicode="á" d="M431 0h-51v48q-30-30-62.5-42T233-6Q134-6 91 38q-35 35-35 94 0 66 44.5 102.5T224 271h156v54q0 59-32 88.5T244 443q-50 0-79.5-14T111 382l-37 32q30 41 69.5 57.5T244 488q187 0 187-158V0m-51 168v62H230q-123 0-123-97 0-48 30-71t96-23q81 0 120 37 27 26 27 92m-14 569L260 590h-58l97 147h67z" horiz-adv-x="524" vert-adv-y="1000"/><glyph glyph-name="unie2" unicode="â" d="M431 0h-51v48q-30-30-62.5-42T233-6Q134-6 91 38q-35 35-35 94 0 66 44.5 102.5T224 271h156v54q0 59-32 88.5T244 443q-50 0-79.5-14T111 382l-37 32q30 41 69.5 57.5T244 488q187 0 187-158V0m-51 168v62H230q-123 0-123-97 0-48 30-71t96-23q81 0 120 37 27 26 27 92m19 422h-57l-93 109-93-109H99l123 147h54l123-147z" horiz-adv-x="524" vert-adv-y="1000"/><glyph glyph-name="unie3" unicode="ã" d="M431 0h-51v48q-30-30-62.5-42T233-6Q134-6 91 38q-35 35-35 94 0 66 44.5 102.5T224 271h156v54q0 59-32 88.5T244 443q-50 0-79.5-14T111 382l-37 32q30 41 69.5 57.5T244 488q187 0 187-158V0m-51 168v62H230q-123 0-123-97 0-48 30-71t96-23q81 0 120 37 27 26 27 92m18 485q-48-48-89-48-28 0-69 24-36 21-56 21-26 0-59-33l-30 29q48 48 89 48 31 0 69-24 34-21 56-21 26 0 59 33l30-29z" horiz-adv-x="524" vert-adv-y="1000"/><glyph glyph-name="unie4" unicode="ä" d="M431 0h-51v48q-30-30-62.5-42T233-6Q134-6 91 38q-35 35-35 94 0 66 44.5 102.5T224 271h156v54q0 59-32 88.5T244 443q-50 0-79.5-14T111 382l-37 32q30 41 69.5 57.5T244 488q187 0 187-158V0m-51 168v62H230q-123 0-123-97 0-48 30-71t96-23q81 0 120 37 27 26 27 92M174 600h-58v77h58v-77m208 0h-58v77h58v-77z" horiz-adv-x="524" vert-adv-y="1000"/><glyph glyph-name="unie5" unicode="å" d="M431 0h-51v48q-30-30-62.5-42T233-6Q134-6 91 38q-35 35-35 94 0 66 44.5 102.5T224 271h156v54q0 59-32 88.5T244 443q-50 0-79.5-14T111 382l-37 32q30 41 69.5 57.5T244 488q187 0 187-158V0m-51 168v62H230q-123 0-123-97 0-48 30-71t96-23q81 0 120 37 27 26 27 92m-50.5 589.5l16.75-16.75Q363 724 363 677t-33.5-81Q296 562 249 562t-80.5 34Q135 630 135 677t33.5 80.5Q202 791 249 791t80.5-33.5m-29-132l10.75 10.75Q322 647 322 677t-21.5 51Q279 749 249 749t-51.5-21Q176 707 176 677t21.5-51.5Q219 604 249 604t51.5 21.5z" horiz-adv-x="524" vert-adv-y="1000"/><glyph glyph-name="unie6" unicode="æ" d="M766 230H431q0-93 40-141.5T588 40q42 0 72 13.5T721 98l38-30q-39-39-78-56.5T584-6Q462-6 412 84q-30-49-71-69.5T233-6Q134-6 91 38q-35 35-35 94 0 66 44.5 102.5T224 271h156v54q0 59-32 88.5T244 443q-50 0-79.5-14T111 382l-37 32q30 41 69.5 57.5T244 488q136 0 173-85 50 85 156 85 91 0 142-62t51-173v-23m-386 0H230q-123 0-123-97 0-48 30-71t96-23q81 0 120 37 27 26 27 92v62m335 41q-4 62-17 91-16 38-49.5 59.5T573 443q-43 0-76.5-21.5T448 362q-13-35-17-91h284z" horiz-adv-x="834" vert-adv-y="1000"/><glyph glyph-name="unie7" unicode="ç" d="M440 68q-37-42-72.5-58T281-6q-99 0-155.5 66T69 241q0 115 56.5 181T281 488q51 0 86.5-16t72.5-58l-35-32q-31 34-58 47.5T281 443q-85 0-128-64-33-48-33-138t33-138q43-64 128-64 38 0 65.5 13.5T405 100l35-32M308-70l-64-150h-63l72 150h55z" horiz-adv-x="493" vert-adv-y="1000"/><glyph glyph-name="unie8" unicode="è" d="M455 230H120q0-93 40-141.5T277 40q42 0 72 13.5T410 98l38-30q-39-39-78-56.5T274-6Q174-6 121.5 57T69 241q0 117 51 182t142 65q91 0 142-62t51-173v-23m-51 41q-4 62-17 91-16 38-49.5 59.5T262 443q-42 0-75-21.5T137 362q-13-29-17-91h284m-93 319h-58L147 737h67l97-147z" horiz-adv-x="523" vert-adv-y="1000"/><glyph glyph-name="unie9" unicode="é" d="M455 230H120q0-93 40-141.5T277 40q42 0 72 13.5T410 98l38-30q-39-39-78-56.5T274-6Q174-6 121.5 57T69 241q0 117 51 182t142 65q91 0 142-62t51-173v-23m-51 41q-4 62-17 91-16 38-49.5 59.5T262 443q-42 0-75-21.5T137 362q-13-29-17-91h284m-23 466L275 590h-58l97 147h67z" horiz-adv-x="523" vert-adv-y="1000"/><glyph glyph-name="uniea" unicode="ê" d="M455 230H120q0-93 40-141.5T277 40q42 0 72 13.5T410 98l38-30q-39-39-78-56.5T274-6Q174-6 121.5 57T69 241q0 117 51 182t142 65q91 0 142-62t51-173v-23m-51 41q-4 62-17 91-16 38-49.5 59.5T262 443q-42 0-75-21.5T137 362q-13-29-17-91h284m10 319h-57l-93 109-93-109h-57l123 147h54l123-147z" horiz-adv-x="523" vert-adv-y="1000"/><glyph glyph-name="unieb" unicode="ë" d="M455 230H120q0-93 40-141.5T277 40q42 0 72 13.5T410 98l38-30q-39-39-78-56.5T274-6Q174-6 121.5 57T69 241q0 117 51 182t142 65q91 0 142-62t51-173v-23m-51 41q-4 62-17 91-16 38-49.5 59.5T262 443q-42 0-75-21.5T137 362q-13-29-17-91h284M189 600h-58v77h58v-77m208 0h-58v77h58v-77z" horiz-adv-x="523" vert-adv-y="1000"/><glyph glyph-name="uniec" unicode="ì" d="M148 0H97v482h51V0m0 590H90L-16 737h67l97-147z" horiz-adv-x="245" vert-adv-y="1000"/><glyph glyph-name="unied" unicode="í" d="M148 0H97v482h51V0m113 737L155 590H97l97 147h67z" horiz-adv-x="245" vert-adv-y="1000"/><glyph glyph-name="uniee" unicode="î" d="M148 0H97v482h51V0m124 590h-57l-93 109-93-109h-57L95 737h54l123-147z" horiz-adv-x="245" vert-adv-y="1000"/><glyph glyph-name="unief" unicode="ï" d="M148 0H97v482h51V0M47 600h-58v77h58v-77m208 0h-58v77h58v-77z" horiz-adv-x="245" vert-adv-y="1000"/><glyph glyph-name="unif0" unicode="ð" d="M457 241q0-134-60-194Q344-6 263-6T129 47q-60 60-60 194t60 194q53 53 134 53 47 0 75-17l-67 113H154v38h95l-53 90h53l52-90h79v-38h-57l72-123q39-68 50.5-110.5T457 241M363 80q43 43 43 161t-43 161q-41 41-100 41t-100-41q-43-43-43-161t43-161q41-41 100-41t100 41z" horiz-adv-x="526" vert-adv-y="1000"/><glyph glyph-name="unif1" unicode="ñ" d="M468 0h-51v299q0 70-34 107t-99 37q-65 0-100.5-37.5T148 299V0H97v482h51v-57q54 63 142 63 81 0 128-46 50-48 50-134V0m-35 653q-48-48-89-48-28 0-69 24-36 21-56 21-26 0-59-33l-30 29q48 48 89 48 31 0 69-24 34-21 56-21 26 0 59 33l30-29z" horiz-adv-x="559" vert-adv-y="1000"/><glyph glyph-name="unif2" unicode="ò" d="M397 435q60-60 60-194T397 47Q344-6 263-6T129 47q-60 60-60 194t60 194q53 53 134 53t134-53M363 80q43 43 43 161t-43 161q-41 41-100 41t-100-41q-43-43-43-161t43-161q41-41 100-41t100 41m-48 510h-58L151 737h67l97-147z" horiz-adv-x="526" vert-adv-y="1000"/><glyph glyph-name="unif3" unicode="ó" d="M397 435q60-60 60-194T397 47Q344-6 263-6T129 47q-60 60-60 194t60 194q53 53 134 53t134-53M363 80q43 43 43 161t-43 161q-41 41-100 41t-100-41q-43-43-43-161t43-161q41-41 100-41t100 41m17 657L274 590h-58l97 147h67z" horiz-adv-x="526" vert-adv-y="1000"/><glyph glyph-name="unif4" unicode="ô" d="M397 435q60-60 60-194T397 47Q344-6 263-6T129 47q-60 60-60 194t60 194q53 53 134 53t134-53M363 80q43 43 43 161t-43 161q-41 41-100 41t-100-41q-43-43-43-161t43-161q41-41 100-41t100 41m50 510h-57l-93 109-93-109h-57l123 147h54l123-147z" horiz-adv-x="526" vert-adv-y="1000"/><glyph glyph-name="unif5" unicode="õ" d="M397 435q60-60 60-194T397 47Q344-6 263-6T129 47q-60 60-60 194t60 194q53 53 134 53t134-53M363 80q43 43 43 161t-43 161q-41 41-100 41t-100-41q-43-43-43-161t43-161q41-41 100-41t100 41m49 573q-48-48-89-48-28 0-69 24-36 21-56 21-26 0-59-33l-30 29q48 48 89 48 31 0 69-24 34-21 56-21 26 0 59 33l30-29z" horiz-adv-x="526" vert-adv-y="1000"/><glyph glyph-name="unif6" unicode="ö" d="M397 435q60-60 60-194T397 47Q344-6 263-6T129 47q-60 60-60 194t60 194q53 53 134 53t134-53M363 80q43 43 43 161t-43 161q-41 41-100 41t-100-41q-43-43-43-161t43-161q41-41 100-41t100 41M188 600h-58v77h58v-77m208 0h-58v77h58v-77z" horiz-adv-x="526" vert-adv-y="1000"/><glyph glyph-name="unif7" unicode="÷" d="M222 60v70h70V60h-70M53 240v47h408v-47H53m169 157v70h70v-70h-70z" horiz-adv-x="514" vert-adv-y="1000"/><glyph glyph-name="unif8" unicode="ø" d="M457 241q0-134-60-194Q344-6 263-6q-58 0-105 29l-40-67H70l56 94q-57 61-57 191 0 134 60 194 53 53 134 53 60 0 105-30l40 68h48l-56-94q57-61 57-191M344 418q-35 25-81 25-59 0-100-41-43-43-43-161 0-106 32-148l192 325m62-177q0 106-32 148L182 64q35-25 81-25 59 0 100 41 43 43 43 161z" horiz-adv-x="526" vert-adv-y="1000"/><glyph glyph-name="unif9" unicode="ù" d="M462 0h-51v57Q357-6 269-6q-81 0-128 46-50 48-50 134v308h51V183q0-70 34-107t99-37q65 0 100.5 37.5T411 183v299h51V0M323 590h-58L159 737h67l97-147z" horiz-adv-x="559" vert-adv-y="1000"/><glyph glyph-name="unifa" unicode="ú" d="M462 0h-51v57Q357-6 269-6q-81 0-128 46-50 48-50 134v308h51V183q0-70 34-107t99-37q65 0 100.5 37.5T411 183v299h51V0m-69 737L287 590h-58l97 147h67z" horiz-adv-x="559" vert-adv-y="1000"/><glyph glyph-name="unifb" unicode="û" d="M462 0h-51v57Q357-6 269-6q-81 0-128 46-50 48-50 134v308h51V183q0-70 34-107t99-37q65 0 100.5 37.5T411 183v299h51V0m-36 590h-57l-93 109-93-109h-57l123 147h54l123-147z" horiz-adv-x="559" vert-adv-y="1000"/><glyph glyph-name="unifc" unicode="ü" d="M462 0h-51v57Q357-6 269-6q-81 0-128 46-50 48-50 134v308h51V183q0-70 34-107t99-37q65 0 100.5 37.5T411 183v299h51V0M201 600h-58v77h58v-77m208 0h-58v77h58v-77z" horiz-adv-x="559" vert-adv-y="1000"/><glyph glyph-name="unifd" unicode="ý" d="M416 482L192-131q-14-40-33-56-32-31-91-31H44v45h19q40 0 57.5 14t30.5 52L190 0 14 482h56L215 60l145 422h56m-84 255L226 590h-58l97 147h67z" horiz-adv-x="430" vert-adv-y="1000"/><glyph glyph-name="unife" unicode="þ" d="M409 446q62-62 62-205T409 36Q367-6 291-6q-45 0-79 14.5T148 62v-292H97v942h51V420q30 39 64 53.5t79 14.5q76 0 118-42m6-280l2.5 16q2.5 16 2.5 59t-5 75q-5 32-18.5 63t-42 47.5Q326 443 284 443t-70.5-16.5Q185 410 171.5 379T153 316q-5-32-5-75t5-75q5-32 18.5-63t42-47.5Q242 39 284 39t70.5 16.5Q383 72 396.5 103t18.5 63z" horiz-adv-x="540" vert-adv-y="1000"/><glyph glyph-name="uniff" unicode="ÿ" d="M416 482L192-131q-14-40-33-56-32-31-91-31H44v45h19q40 0 57.5 14t30.5 52L190 0 14 482h56L215 60l145 422h56M140 600H82v77h58v-77m208 0h-58v77h58v-77z" horiz-adv-x="430" vert-adv-y="1000"/><glyph glyph-name="uni0100" unicode="Ā" d="M587 0h-58l-62 173H135L73 0H15l262 712h48L587 0M301 640L152 221h298L301 640m148 160H153v46h296v-46z" horiz-adv-x="602" vert-adv-y="1000"/><glyph glyph-name="uni0101" unicode="ā" d="M431 0h-51v48q-30-30-62.5-42T233-6Q134-6 91 38q-35 35-35 94 0 66 44.5 102.5T224 271h156v54q0 59-32 88.5T244 443q-50 0-79.5-14T111 382l-37 32q30 41 69.5 57.5T244 488q187 0 187-158V0m-51 168v62H230q-123 0-123-97 0-48 30-71t96-23q81 0 120 37 27 26 27 92m30 442H114v46h296v-46z" horiz-adv-x="524" vert-adv-y="1000"/><glyph glyph-name="uni0102" unicode="Ă" d="M587 0h-58l-62 173H135L73 0H15l262 712h48L587 0M301 640L152 221h298L301 640m165 287q-14-135-165-135T136 927h45q6-42 37.5-66t82.5-24q51 0 82.5 24t37.5 66h45z" horiz-adv-x="602" vert-adv-y="1000"/><glyph glyph-name="uni0103" unicode="ă" d="M431 0h-51v48q-30-30-62.5-42T233-6Q134-6 91 38q-35 35-35 94 0 66 44.5 102.5T224 271h156v54q0 59-32 88.5T244 443q-50 0-79.5-14T111 382l-37 32q30 41 69.5 57.5T244 488q187 0 187-158V0m-51 168v62H230q-123 0-123-97 0-48 30-71t96-23q81 0 120 37 27 26 27 92m29 554q-14-135-165-135T79 722h45q6-42 37.5-66t82.5-24q51 0 82.5 24t37.5 66h45z" horiz-adv-x="524" vert-adv-y="1000"/><glyph glyph-name="uni0104" unicode="Ą" d="M587 0h-58l-62 173H135L73 0H15l262 712h48L587 0M301 640L152 221h298L301 640M584-70l-64-150h-63l72 150h55z" horiz-adv-x="602" vert-adv-y="1000"/><glyph glyph-name="uni0105" unicode="ą" d="M431 0h-51v48q-30-30-62.5-42T233-6Q134-6 91 38q-35 35-35 94 0 66 44.5 102.5T224 271h156v54q0 59-32 88.5T244 443q-50 0-79.5-14T111 382l-37 32q30 41 69.5 57.5T244 488q187 0 187-158V0m-51 168v62H230q-123 0-123-97 0-48 30-71t96-23q81 0 120 37 27 26 27 92m55-238l-64-150h-63l72 150h55z" horiz-adv-x="524" vert-adv-y="1000"/><glyph glyph-name="uni0106" unicode="Ć" d="M568 202q-18-96-83-152T326-6Q221-6 153 62q-47 47-59 101.5T82 356q0 138 12 192.5T153 650q68 68 173 68 95 0 159.5-55.5T568 510h-55q-16 74-65.5 117T326 670q-80 0-135-55-36-36-45.5-86.5T136 356q0-122 9.5-172.5T191 97q55-55 135-55 72 0 122.5 43T515 202h53M439 927L333 780h-58l97 147h67z" horiz-adv-x="644" vert-adv-y="1000"/><glyph glyph-name="uni0107" unicode="ć" d="M440 68q-37-42-72.5-58T281-6q-99 0-155.5 66T69 241q0 115 56.5 181T281 488q51 0 86.5-16t72.5-58l-35-32q-31 34-58 47.5T281 443q-85 0-128-64-33-48-33-138t33-138q43-64 128-64 38 0 65.5 13.5T405 100l35-32m-42 669L292 590h-58l97 147h67z" horiz-adv-x="493" vert-adv-y="1000"/><glyph glyph-name="uni0108" unicode="Ĉ" d="M568 202q-18-96-83-152T326-6Q221-6 153 62q-47 47-59 101.5T82 356q0 138 12 192.5T153 650q68 68 173 68 95 0 159.5-55.5T568 510h-55q-16 74-65.5 117T326 670q-80 0-135-55-36-36-45.5-86.5T136 356q0-122 9.5-172.5T191 97q55-55 135-55 72 0 122.5 43T515 202h53m-92 578h-57l-93 109-93-109h-57l123 147h54l123-147z" horiz-adv-x="644" vert-adv-y="1000"/><glyph glyph-name="uni0109" unicode="ĉ" d="M440 68q-37-42-72.5-58T281-6q-99 0-155.5 66T69 241q0 115 56.5 181T281 488q51 0 86.5-16t72.5-58l-35-32q-31 34-58 47.5T281 443q-85 0-128-64-33-48-33-138t33-138q43-64 128-64 38 0 65.5 13.5T405 100l35-32m-9 522h-57l-93 109-93-109h-57l123 147h54l123-147z" horiz-adv-x="493" vert-adv-y="1000"/><glyph glyph-name="uni010A" unicode="Ċ" d="M568 202q-18-96-83-152T326-6Q221-6 153 62q-47 47-59 101.5T82 356q0 138 12 192.5T153 650q68 68 173 68 95 0 159.5-55.5T568 510h-55q-16 74-65.5 117T326 670q-80 0-135-55-36-36-45.5-86.5T136 356q0-122 9.5-172.5T191 97q55-55 135-55 72 0 122.5 43T515 202h53M357 800h-62v63h62v-63z" horiz-adv-x="644" vert-adv-y="1000"/><glyph glyph-name="uni010B" unicode="ċ" d="M440 68q-37-42-72.5-58T281-6q-99 0-155.5 66T69 241q0 115 56.5 181T281 488q51 0 86.5-16t72.5-58l-35-32q-31 34-58 47.5T281 443q-85 0-128-64-33-48-33-138t33-138q43-64 128-64 38 0 65.5 13.5T405 100l35-32M312 610h-62v63h62v-63z" horiz-adv-x="493" vert-adv-y="1000"/><glyph glyph-name="uni010C" unicode="Č" d="M568 202q-18-96-83-152T326-6Q221-6 153 62q-47 47-59 101.5T82 356q0 138 12 192.5T153 650q68 68 173 68 95 0 159.5-55.5T568 510h-55q-16 74-65.5 117T326 670q-80 0-135-55-36-36-45.5-86.5T136 356q0-122 9.5-172.5T191 97q55-55 135-55 72 0 122.5 43T515 202h53m-96 725L349 780h-54L172 927h57l93-109 93 109h57z" horiz-adv-x="644" vert-adv-y="1000"/><glyph glyph-name="uni010D" unicode="č" d="M440 68q-37-42-72.5-58T281-6q-99 0-155.5 66T69 241q0 115 56.5 181T281 488q51 0 86.5-16t72.5-58l-35-32q-31 34-58 47.5T281 443q-85 0-128-64-33-48-33-138t33-138q43-64 128-64 38 0 65.5 13.5T405 100l35-32m-9 669L308 590h-54L131 737h57l93-109 93 109h57z" horiz-adv-x="493" vert-adv-y="1000"/><glyph glyph-name="uni010E" unicode="Ď" d="M593.5 466.5l1.25-20.25Q596 426 596 356t-2.5-110.5Q591 205 575 151t-48-86Q462 0 349 0H110v712h239q113 0 178-65 32-32 48-86t18.5-94.5m-53-209l.75 17.25Q542 292 542 356t-1.5 98.5q-1.5 34.5-14 81.5T489 609q-52 55-153 55H164V48h172q101 0 153 55 25 26 37.5 73t14 81.5M489 927L366 780h-54L189 927h57l93-109 93 109h57z" horiz-adv-x="678" vert-adv-y="1000"/><glyph glyph-name="uni010F" unicode="ď" d="M443 0h-51v62q-30-39-64-53.5T249-6q-76 0-118 42-62 62-62 205t62 205q42 42 118 42 45 0 79-14.5t64-53.5v292h51V0m-56 166l2.5 16q2.5 16 2.5 59t-5 75q-5 32-18.5 63t-42 47.5Q298 443 256 443t-70.5-16.5Q157 410 143.5 379T125 316q-5-32-5-75t5-75q5-32 18.5-63t42-47.5Q214 39 256 39t70.5 16.5Q355 72 368.5 103t18.5 63m214 546l-48-148h-47l40 148h55z" horiz-adv-x="540" vert-adv-y="1000"/><glyph glyph-name="uni0110" unicode="Đ" d="M604.5 466.5l1.25-20.25Q607 426 607 356t-2.5-110.5Q602 205 586 151t-48-86Q473 0 360 0H121v338H40v42h81v332h239q113 0 178-65 32-32 48-86t18.5-94.5m-53-209l.75 17.25Q553 292 553 356t-1.5 98.5q-1.5 34.5-14 81.5T500 609q-52 55-153 55H175V380h178v-42H175V48h172q101 0 153 55 25 26 37.5 73t14 81.5z" horiz-adv-x="689" vert-adv-y="1000"/><glyph glyph-name="uni0111" unicode="đ" d="M508 574h-65V0h-51v62Q341-6 249-6q-76 0-118 42-62 62-62 205t62 205q42 42 118 42 92 0 143-68v154H256v36h136v102h51V610h65v-36M387 166l2.5 16q2.5 16 2.5 59t-5 75q-5 32-18.5 63t-42 47.5Q298 443 256 443t-70.5-16.5Q157 410 143.5 379T125 316q-5-32-5-75t5-75q5-32 18.5-63t42-47.5Q214 39 256 39t70.5 16.5Q355 72 368.5 103t18.5 63z" horiz-adv-x="550" vert-adv-y="1000"/><glyph glyph-name="uni0112" unicode="Ē" d="M542 0H110v712h432v-48H164V383h322v-48H164V48h378V0m-80 800H166v46h296v-46z" horiz-adv-x="598" vert-adv-y="1000"/><glyph glyph-name="uni0113" unicode="ē" d="M455 230H120q0-93 40-141.5T277 40q42 0 72 13.5T410 98l38-30q-39-39-78-56.5T274-6Q174-6 121.5 57T69 241q0 117 51 182t142 65q91 0 142-62t51-173v-23m-51 41q-4 62-17 91-16 38-49.5 59.5T262 443q-42 0-75-21.5T137 362q-13-29-17-91h284m5 339H113v46h296v-46z" horiz-adv-x="523" vert-adv-y="1000"/><glyph glyph-name="uni0114" unicode="Ĕ" d="M542 0H110v712h432v-48H164V383h322v-48H164V48h378V0m-63 927q-14-135-165-135T149 927h45q6-42 37.5-66t82.5-24q51 0 82.5 24t37.5 66h45z" horiz-adv-x="598" vert-adv-y="1000"/><glyph glyph-name="uni0115" unicode="ĕ" d="M455 230H120q0-93 40-141.5T277 40q42 0 72 13.5T410 98l38-30q-39-39-78-56.5T274-6Q174-6 121.5 57T69 241q0 117 51 182t142 65q91 0 142-62t51-173v-23m-51 41q-4 62-17 91-16 38-49.5 59.5T262 443q-42 0-75-21.5T137 362q-13-29-17-91h284m25 451q-14-135-165-135T99 722h45q6-42 37.5-66t82.5-24q51 0 82.5 24t37.5 66h45z" horiz-adv-x="523" vert-adv-y="1000"/><glyph glyph-name="uni0116" unicode="Ė" d="M542 0H110v712h432v-48H164V383h322v-48H164V48h378V0M345 800h-62v63h62v-63z" horiz-adv-x="598" vert-adv-y="1000"/><glyph glyph-name="uni0117" unicode="ė" d="M455 230H120q0-93 40-141.5T277 40q42 0 72 13.5T410 98l38-30q-39-39-78-56.5T274-6Q174-6 121.5 57T69 241q0 117 51 182t142 65q91 0 142-62t51-173v-23m-51 41q-4 62-17 91-16 38-49.5 59.5T262 443q-42 0-75-21.5T137 362q-13-29-17-91h284M292 610h-62v63h62v-63z" horiz-adv-x="523" vert-adv-y="1000"/><glyph glyph-name="uni0118" unicode="Ę" d="M542 0H110v712h432v-48H164V383h322v-48H164V48h378V0m0-70l-64-150h-63l72 150h55z" horiz-adv-x="598" vert-adv-y="1000"/><glyph glyph-name="uni0119" unicode="ę" d="M455 230H120q0-93 40-141.5T277 40q42 0 72 13.5T410 98l38-30q-39-39-78-56.5T274-6Q174-6 121.5 57T69 241q0 117 51 182t142 65q91 0 142-62t51-173v-23m-51 41q-4 62-17 91-16 38-49.5 59.5T262 443q-42 0-75-21.5T137 362q-13-29-17-91h284M355-70l-64-150h-63l72 150h55z" horiz-adv-x="523" vert-adv-y="1000"/><glyph glyph-name="uni011A" unicode="Ě" d="M542 0H110v712h432v-48H164V383h322v-48H164V48h378V0m-78 927L341 780h-54L164 927h57l93-109 93 109h57z" horiz-adv-x="598" vert-adv-y="1000"/><glyph glyph-name="uni011B" unicode="ě" d="M455 230H120q0-93 40-141.5T277 40q42 0 72 13.5T410 98l38-30q-39-39-78-56.5T274-6Q174-6 121.5 57T69 241q0 117 51 182t142 65q91 0 142-62t51-173v-23m-51 41q-4 62-17 91-16 38-49.5 59.5T262 443q-42 0-75-21.5T137 362q-13-29-17-91h284m7 466L288 590h-54L111 737h57l93-109 93 109h57z" horiz-adv-x="523" vert-adv-y="1000"/><glyph glyph-name="uni011C" unicode="Ĝ" d="M571 248q0-107-58-172Q439-6 326-6 221-6 153 62q-47 47-59 101.5T82 356q0 138 12 192.5T153 650q68 68 173 68 93 0 160-57t83-151h-54q-16 74-66.5 117T326 670q-80 0-135-55-36-36-45.5-86.5T136 356q0-122 9.5-172.5T191 97q55-55 135-55 91 0 148 69 43 54 43 141v64H326v48h245V248m-95 532h-57l-93 109-93-109h-57l123 147h54l123-147z" horiz-adv-x="651" vert-adv-y="1000"/><glyph glyph-name="uni011D" unicode="ĝ" d="M443-27q0-93-52.5-151T246-236q-52 0-86 14.5T87-172l34 34q32-29 57-41t68-12q73 0 109.5 45.5T392-24v86q-30-39-64-53.5T249-6q-76 0-118 42-62 62-62 205t62 205q42 42 118 42 45 0 79-14.5t64-53.5v62h51V-27m-56 193l2.5 16q2.5 16 2.5 59t-5 75q-5 32-18.5 63t-42 47.5Q298 443 256 443t-70.5-16.5Q157 410 143.5 379T125 316q-5-32-5-75t5-75q5-32 18.5-63t42-47.5Q214 39 256 39t70.5 16.5Q355 72 368.5 103t18.5 63m40 424h-57l-93 109-93-109h-57l123 147h54l123-147z" horiz-adv-x="540" vert-adv-y="1000"/><glyph glyph-name="uni011E" unicode="Ğ" d="M571 248q0-107-58-172Q439-6 326-6 221-6 153 62q-47 47-59 101.5T82 356q0 138 12 192.5T153 650q68 68 173 68 93 0 160-57t83-151h-54q-16 74-66.5 117T326 670q-80 0-135-55-36-36-45.5-86.5T136 356q0-122 9.5-172.5T191 97q55-55 135-55 91 0 148 69 43 54 43 141v64H326v48h245V248m-83 679q-14-135-165-135T158 927h45q6-42 37.5-66t82.5-24q51 0 82.5 24t37.5 66h45z" horiz-adv-x="651" vert-adv-y="1000"/><glyph glyph-name="uni011F" unicode="ğ" d="M443-27q0-93-52.5-151T246-236q-52 0-86 14.5T87-172l34 34q32-29 57-41t68-12q73 0 109.5 45.5T392-24v86q-30-39-64-53.5T249-6q-76 0-118 42-62 62-62 205t62 205q42 42 118 42 45 0 79-14.5t64-53.5v62h51V-27m-56 193l2.5 16q2.5 16 2.5 59t-5 75q-5 32-18.5 63t-42 47.5Q298 443 256 443t-70.5-16.5Q157 410 143.5 379T125 316q-5-32-5-75t5-75q5-32 18.5-63t42-47.5Q214 39 256 39t70.5 16.5Q355 72 368.5 103t18.5 63m34 556q-14-135-165-135T91 722h45q6-42 37.5-66t82.5-24q51 0 82.5 24t37.5 66h45z" horiz-adv-x="540" vert-adv-y="1000"/><glyph glyph-name="uni0120" unicode="Ġ" d="M571 248q0-107-58-172Q439-6 326-6 221-6 153 62q-47 47-59 101.5T82 356q0 138 12 192.5T153 650q68 68 173 68 93 0 160-57t83-151h-54q-16 74-66.5 117T326 670q-80 0-135-55-36-36-45.5-86.5T136 356q0-122 9.5-172.5T191 97q55-55 135-55 91 0 148 69 43 54 43 141v64H326v48h245V248M357 800h-62v63h62v-63z" horiz-adv-x="651" vert-adv-y="1000"/><glyph glyph-name="uni0121" unicode="ġ" d="M443-27q0-93-52.5-151T246-236q-52 0-86 14.5T87-172l34 34q32-29 57-41t68-12q73 0 109.5 45.5T392-24v86q-30-39-64-53.5T249-6q-76 0-118 42-62 62-62 205t62 205q42 42 118 42 45 0 79-14.5t64-53.5v62h51V-27m-56 193l2.5 16q2.5 16 2.5 59t-5 75q-5 32-18.5 63t-42 47.5Q298 443 256 443t-70.5-16.5Q157 410 143.5 379T125 316q-5-32-5-75t5-75q5-32 18.5-63t42-47.5Q214 39 256 39t70.5 16.5Q355 72 368.5 103t18.5 63M287 610h-62v63h62v-63z" horiz-adv-x="540" vert-adv-y="1000"/><glyph glyph-name="uni0122" unicode="Ģ" d="M571 248q0-107-58-172Q439-6 326-6 221-6 153 62q-47 47-59 101.5T82 356q0 138 12 192.5T153 650q68 68 173 68 93 0 160-57t83-151h-54q-16 74-66.5 117T326 670q-80 0-135-55-36-36-45.5-86.5T136 356q0-122 9.5-172.5T191 97q55-55 135-55 91 0 148 69 43 54 43 141v64H326v48h245V248M358-70l-64-150h-63l72 150h55z" horiz-adv-x="651" vert-adv-y="1000"/><glyph glyph-name="uni0123" unicode="ģ" d="M443-27q0-93-52.5-151T246-236q-52 0-86 14.5T87-172l34 34q32-29 57-41t68-12q73 0 109.5 45.5T392-24v86q-30-39-64-53.5T249-6q-76 0-118 42-62 62-62 205t62 205q42 42 118 42 45 0 79-14.5t64-53.5v62h51V-27m-56 193l2.5 16q2.5 16 2.5 59t-5 75q-5 32-18.5 63t-42 47.5Q298 443 256 443t-70.5-16.5Q157 410 143.5 379T125 316q-5-32-5-75t5-75q5-32 18.5-63t42-47.5Q214 39 256 39t70.5 16.5Q355 72 368.5 103t18.5 63m0 571L281 590h-58l97 147h67z" horiz-adv-x="540" vert-adv-y="1000"/><glyph glyph-name="uni0124" unicode="Ĥ" d="M589 0h-54v335H164V0h-54v712h54V383h371v329h54V0m-89 780h-57l-93 109-93-109h-57l123 147h54l123-147z" horiz-adv-x="699" vert-adv-y="1000"/><glyph glyph-name="uni0125" unicode="ĥ" d="M468 0h-51v299q0 70-34 107t-99 37q-65 0-100.5-37T148 299V0H97v712h51V425q54 63 142 63 83 0 130.5-48T468 308V0M273 780h-57l-93 109-93-109h-57L96 927h54l123-147z" horiz-adv-x="559" vert-adv-y="1000"/><glyph glyph-name="uni0126" unicode="Ħ" d="M595 0h-54v335H170V0h-54v517H40v42h76v153h54V559h371v153h54V559h76v-42h-76V0m-54 383v134H170V383h371z" horiz-adv-x="711" vert-adv-y="1000"/><glyph glyph-name="uni0127" unicode="ħ" d="M478 0h-51v299q0 70-34.5 107T294 443q-64 0-100-38t-36-106V0h-51v574H42v36h65v102h51V610h136v-36H158V425q32 34 64.5 48.5T301 488q82 0 129.5-48.5T478 308V0z" horiz-adv-x="569" vert-adv-y="1000"/><glyph glyph-name="uni0128" unicode="Ĩ" d="M164 0h-54v712h54V0m122 843q-48-48-89-48-28 0-69 24-36 21-56 21-26 0-59-33l-30 29q48 48 89 48 31 0 69-24 34-21 56-21 26 0 59 33l30-29z" horiz-adv-x="274" vert-adv-y="1000"/><glyph glyph-name="uni0129" unicode="ĩ" d="M148 0H97v482h51V0m126 653q-48-48-89-48-28 0-69 24-36 21-56 21-26 0-59-33l-30 29q48 48 89 48 31 0 69-24 34-21 56-21 26 0 59 33l30-29z" horiz-adv-x="245" vert-adv-y="1000"/><glyph glyph-name="uni012A" unicode="Ī" d="M164 0h-54v712h54V0m121 800H-11v46h296v-46z" horiz-adv-x="274" vert-adv-y="1000"/><glyph glyph-name="uni012B" unicode="ī" d="M148 0H97v482h51V0m123 610H-25v46h296v-46z" horiz-adv-x="245" vert-adv-y="1000"/><glyph glyph-name="uni012C" unicode="Ĭ" d="M164 0h-54v712h54V0m138 927q-14-135-165-135T-28 927h45q6-42 37.5-66t82.5-24q51 0 82.5 24t37.5 66h45z" horiz-adv-x="274" vert-adv-y="1000"/><glyph glyph-name="uni012D" unicode="ĭ" d="M148 0H97v482h51V0m139 722q-14-135-165-135T-43 722H2q6-42 37.5-66t82.5-24q51 0 82.5 24t37.5 66h45z" horiz-adv-x="245" vert-adv-y="1000"/><glyph glyph-name="uni012E" unicode="Į" d="M164 0h-54v712h54V0m1-70l-64-150H38l72 150h55z" horiz-adv-x="274" vert-adv-y="1000"/><glyph glyph-name="uni012F" unicode="į" d="M148 0H97v482h51V0m6 649H91v63h63v-63m-2-719L88-220H25L97-70h55z" horiz-adv-x="245" vert-adv-y="1000"/><glyph glyph-name="uni0130" unicode="İ" d="M164 0h-54v712h54V0m4 800h-62v63h62v-63z" horiz-adv-x="274" vert-adv-y="1000"/><glyph glyph-name="uni0131" unicode="ı" d="M148 0H97v482h51V0z" horiz-adv-x="245" vert-adv-y="1000"/><glyph glyph-name="uni0132" unicode="Ĳ" d="M164 0h-54v712h54V0m508 210q0-98-58-157T460-6q-95 0-156 61l37 37q25-25 50.5-37.5T460 42q77 0 117.5 46T618 221v491h54V210z" horiz-adv-x="772" vert-adv-y="1000"/><glyph glyph-name="uni0133" unicode="ĳ" d="M148 0H97v482h51V0m6 649H91v63h63v-63m239-754q0-59-29-92t-87-33h-44v45h35q41 0 57.5 19t16.5 62v586h51v-587m6 754h-63v63h63v-63z" horiz-adv-x="490" vert-adv-y="1000"/><glyph glyph-name="uni0134" unicode="Ĵ" d="M398 210q0-98-58-157T186-6Q91-6 30 55l37 37q25-25 50.5-37.5T186 42q77 0 117.5 46T344 221v491h54V210m123 570h-57l-93 109-93-109h-57l123 147h54l123-147z" horiz-adv-x="498" vert-adv-y="1000"/><glyph glyph-name="uni0135" unicode="ĵ" d="M148-105q0-59-29-92t-87-33h-44v45h35q41 0 57.5 19T97-104v586h51v-587m124 695h-57l-93 109-93-109h-57L95 737h54l123-147z" horiz-adv-x="245" vert-adv-y="1000"/><glyph glyph-name="uni0136" unicode="Ķ" d="M627 0h-64L334 399 164 193V0h-54v712h54V267l361 445h65L370 440 627 0M381-70l-64-150h-63l72 150h55z" horiz-adv-x="645" vert-adv-y="1000"/><glyph glyph-name="uni0137" unicode="ķ" d="M487 0h-63L258 265 148 138V0H97v712h51V210l239 272h65L293 302 487 0M321-70l-64-150h-63l72 150h55z" horiz-adv-x="527" vert-adv-y="1000"/><glyph glyph-name="uni0138" unicode="ĸ" d="M487 0h-63L258 265 148 138V0H97v482h51V210l239 272h65L293 302 487 0z" horiz-adv-x="527" vert-adv-y="1000"/><glyph glyph-name="uni0139" unicode="Ĺ" d="M542 0H110v712h54V48h378V0M267 927L161 780h-58l97 147h67z" horiz-adv-x="572" vert-adv-y="1000"/><glyph glyph-name="uni013A" unicode="ĺ" d="M255 0h-44q-58 0-87 33t-29 92v587h51V126q0-43 16.5-62T220 45h35V0m4 927L153 780H95l97 147h67z" horiz-adv-x="287" vert-adv-y="1000"/><glyph glyph-name="uni013B" unicode="Ļ" d="M542 0H110v712h54V48h378V0M344-70l-64-150h-63l72 150h55z" horiz-adv-x="572" vert-adv-y="1000"/><glyph glyph-name="uni013C" unicode="ļ" d="M255 0h-44q-58 0-87 33t-29 92v587h51V126q0-43 16.5-62T220 45h35V0m-53-70l-64-150H75l72 150h55z" horiz-adv-x="287" vert-adv-y="1000"/><glyph glyph-name="uni013D" unicode="Ľ" d="M542 0H110v712h54V48h378V0M382 712l-48-148h-47l40 148h55z" horiz-adv-x="572" vert-adv-y="1000"/><glyph glyph-name="uni013E" unicode="ľ" d="M255 0h-44q-58 0-87 33t-29 92v587h51V126q0-43 16.5-62T220 45h35V0m48 712l-48-148h-47l40 148h55z" horiz-adv-x="287" vert-adv-y="1000"/><glyph glyph-name="uni013F" unicode="Ŀ" d="M542 0H110v712h54V48h378V0m-83 327h-62v63h62v-63z" horiz-adv-x="572" vert-adv-y="1000"/><glyph glyph-name="uni0140" unicode="ŀ" d="M255 0h-44q-58 0-87 33t-29 92v587h51V126q0-43 16.5-62T220 45h35V0m43 232h-62v63h62v-63z" horiz-adv-x="293" vert-adv-y="1000"/><glyph glyph-name="uni0141" unicode="Ł" d="M548 0H116v306l-76-48v48l76 48v358h54V388l164 104v-48L170 340V48h378V0z" horiz-adv-x="578" vert-adv-y="1000"/><glyph glyph-name="uni0142" unicode="ł" d="M266 0h-44q-58 0-87 33t-29 92v231l-66-41v45l66 41v311h51V433l88 55v-45l-88-55V126q0-43 16.5-62T231 45h35V0z" horiz-adv-x="308" vert-adv-y="1000"/><glyph glyph-name="uni0143" unicode="Ń" d="M629 0h-54L164 619V0h-54v712h54L575 95v617h54V0M486 927L380 780h-58l97 147h67z" horiz-adv-x="739" vert-adv-y="1000"/><glyph glyph-name="uni0144" unicode="ń" d="M468 0h-51v299q0 70-34 107t-99 37q-65 0-100.5-37.5T148 299V0H97v482h51v-57q54 63 142 63 81 0 128-46 50-48 50-134V0m-72 737L290 590h-58l97 147h67z" horiz-adv-x="559" vert-adv-y="1000"/><glyph glyph-name="uni0145" unicode="Ņ" d="M629 0h-54L164 619V0h-54v712h54L575 95v617h54V0M417-70l-64-150h-63l72 150h55z" horiz-adv-x="739" vert-adv-y="1000"/><glyph glyph-name="uni0146" unicode="ņ" d="M468 0h-51v299q0 70-34 107t-99 37q-65 0-100.5-37.5T148 299V0H97v482h51v-57q54 63 142 63 81 0 128-46 50-48 50-134V0M337-70l-64-150h-63l72 150h55z" horiz-adv-x="559" vert-adv-y="1000"/><glyph glyph-name="uni0147" unicode="Ň" d="M629 0h-54L164 619V0h-54v712h54L575 95v617h54V0M519 927L396 780h-54L219 927h57l93-109 93 109h57z" horiz-adv-x="739" vert-adv-y="1000"/><glyph glyph-name="uni0148" unicode="ň" d="M468 0h-51v299q0 70-34 107t-99 37q-65 0-100.5-37.5T148 299V0H97v482h51v-57q54 63 142 63 81 0 128-46 50-48 50-134V0m-39 737L306 590h-54L129 737h57l93-109 93 109h57z" horiz-adv-x="559" vert-adv-y="1000"/><glyph glyph-name="uni0149" unicode="ŉ" d="M468 0h-51v299q0 70-34 107t-99 37q-65 0-100.5-37.5T148 299V0H97v482h51v-57q54 63 142 63 81 0 128-46 50-48 50-134V0M97 584l-53-56v184h53V584z" horiz-adv-x="559" vert-adv-y="1000"/><glyph glyph-name="uni014A" unicode="Ŋ" d="M629-95q0-59-29-92t-87-33h-44v45h32q41 0 57.5 19T575-94V0L164 619V0h-54v712h54L575 95v617h54V-95z" horiz-adv-x="739" vert-adv-y="1000"/><glyph glyph-name="uni014B" unicode="ŋ" d="M468-95q0-59-29-92t-87-33h-44v45h35q41 0 57.5 19T417-94v393q0 70-34 107t-99 37q-65 0-100.5-37.5T148 299V0H97v482h51v-57q54 63 142 63 81 0 128-46 50-48 50-134V-95z" horiz-adv-x="559" vert-adv-y="1000"/><glyph glyph-name="uni014C" unicode="Ō" d="M558 548.5l6-27.25Q570 494 570 356t-12-192.5Q546 109 499 62 431-6 326-6T153 62q-47 47-59 101.5T82 356q0 138 12 192.5T153 650q68 68 173 68t173-68q47-47 59-101.5m-51.5-365l4.75 25.25Q516 234 516 356t-9.5 172.5Q497 579 461 615q-55 55-135 55t-135-55q-36-36-45.5-86.5T136 356q0-122 9.5-172.5T191 97q55-55 135-55t135 55q36 36 45.5 86.5M474 800H178v46h296v-46z" horiz-adv-x="652" vert-adv-y="1000"/><glyph glyph-name="uni014D" unicode="ō" d="M397 435q60-60 60-194T397 47Q344-6 263-6T129 47q-60 60-60 194t60 194q53 53 134 53t134-53M363 80q43 43 43 161t-43 161q-41 41-100 41t-100-41q-43-43-43-161t43-161q41-41 100-41t100 41m48 530H115v46h296v-46z" horiz-adv-x="526" vert-adv-y="1000"/><glyph glyph-name="uni014E" unicode="Ŏ" d="M558 548.5l6-27.25Q570 494 570 356t-12-192.5Q546 109 499 62 431-6 326-6T153 62q-47 47-59 101.5T82 356q0 138 12 192.5T153 650q68 68 173 68t173-68q47-47 59-101.5m-51.5-365l4.75 25.25Q516 234 516 356t-9.5 172.5Q497 579 461 615q-55 55-135 55t-135-55q-36-36-45.5-86.5T136 356q0-122 9.5-172.5T191 97q55-55 135-55t135 55q36 36 45.5 86.5M491 927q-14-135-165-135T161 927h45q6-42 37.5-66t82.5-24q51 0 82.5 24t37.5 66h45z" horiz-adv-x="652" vert-adv-y="1000"/><glyph glyph-name="uni014F" unicode="ŏ" d="M397 435q60-60 60-194T397 47Q344-6 263-6T129 47q-60 60-60 194t60 194q53 53 134 53t134-53M363 80q43 43 43 161t-43 161q-41 41-100 41t-100-41q-43-43-43-161t43-161q41-41 100-41t100 41m40 617q-10-120-140-120T123 697h51q8-80 89-80t89 80h51z" horiz-adv-x="526" vert-adv-y="1000"/><glyph glyph-name="uni0150" unicode="Ő" d="M558 548.5l6-27.25Q570 494 570 356t-12-192.5Q546 109 499 62 431-6 326-6T153 62q-47 47-59 101.5T82 356q0 138 12 192.5T153 650q68 68 173 68t173-68q47-47 59-101.5m-51.5-365l4.75 25.25Q516 234 516 356t-9.5 172.5Q497 579 461 615q-55 55-135 55t-135-55q-36-36-45.5-86.5T136 356q0-122 9.5-172.5T191 97q55-55 135-55t135 55q36 36 45.5 86.5M370 927L264 780h-58l97 147h67m147 0L410 780h-57l97 147h67z" horiz-adv-x="652" vert-adv-y="1000"/><glyph glyph-name="uni0151" unicode="ő" d="M397 435q60-60 60-194T397 47Q344-6 263-6T129 47q-60 60-60 194t60 194q53 53 134 53t134-53M363 80q43 43 43 161t-43 161q-41 41-100 41t-100-41q-43-43-43-161t43-161q41-41 100-41t100 41m-56 657L201 590h-58l97 147h67m147 0L347 590h-57l97 147h67z" horiz-adv-x="526" vert-adv-y="1000"/><glyph glyph-name="uni0152" unicode="Œ" d="M941 0H516v85Q443-6 326-6 221-6 153 62q-47 47-59 101.5T82 356q0 138 12 192.5T153 650q68 68 173 68 117 0 190-91v85h422v-47H569q0-48 .5-142.5T570 380h313v-42H570q0-48-.5-145T569 47h372V0M506.5 183.5l4.75 25.25Q516 234 516 356t-9.5 172.5Q497 579 461 615q-55 55-135 55t-135-55q-36-36-45.5-86.5T136 356q0-122 9.5-172.5T191 97q55-55 135-55t135 55q36 36 45.5 86.5z" horiz-adv-x="997" vert-adv-y="1000"/><glyph glyph-name="uni0153" unicode="œ" d="M457 230q0-93 40-141.5T614 40q42 0 72 13.5T747 98l38-30q-39-39-78-56.5T611-6Q482-6 433 99q-23-50-68-77.5T263-6q-81 0-134 53-60 60-60 194t60 194q53 53 134 53 58 0 102.5-27t67.5-78q48 105 166 105 91 0 142-62t51-173v-23H457M363 80q43 43 43 161t-43 161q-41 41-100 41t-100-41q-43-43-43-161t43-161q41-41 100-41t100 41m378 191q-4 62-17 91-16 38-49.5 59.5T599 443q-42 0-76.5-22T474 362q-14-37-17-91h284z" horiz-adv-x="860" vert-adv-y="1000"/><glyph glyph-name="uni0154" unicode="Ŕ" d="M593 0h-63L360 328H164V0h-54v712h271q90 0 147-50.5T585 521q0-79-44-129t-120-63L593 0M488.5 412l21.25 18Q531 448 531 520t-42.5 108Q446 664 374 664H164V376h210q72 0 114.5 36M445 927L339 780h-58l97 147h67z" horiz-adv-x="657" vert-adv-y="1000"/><glyph glyph-name="uni0155" unicode="ŕ" d="M368 405q-22 22-41.5 30t-49.5 8q-60 0-94.5-42.5T148 297V0H97v482h51v-64q21 33 59 51.5t82 18.5q70 0 116-46l-37-37m-46 332L216 590h-58l97 147h67z" horiz-adv-x="409" vert-adv-y="1000"/><glyph glyph-name="uni0156" unicode="Ŗ" d="M593 0h-63L360 328H164V0h-54v712h271q90 0 147-50.5T585 521q0-79-44-129t-120-63L593 0M488.5 412l21.25 18Q531 448 531 520t-42.5 108Q446 664 374 664H164V376h210q72 0 114.5 36M385-70l-64-150h-63l72 150h55z" horiz-adv-x="657" vert-adv-y="1000"/><glyph glyph-name="uni0157" unicode="ŗ" d="M368 405q-22 22-41.5 30t-49.5 8q-60 0-94.5-42.5T148 297V0H97v482h51v-64q21 33 59 51.5t82 18.5q70 0 116-46l-37-37M151-70L87-220H24L96-70h55z" horiz-adv-x="409" vert-adv-y="1000"/><glyph glyph-name="uni0158" unicode="Ř" d="M593 0h-63L360 328H164V0h-54v712h271q90 0 147-50.5T585 521q0-79-44-129t-120-63L593 0M488.5 412l21.25 18Q531 448 531 520t-42.5 108Q446 664 374 664H164V376h210q72 0 114.5 36M478 927L355 780h-54L178 927h57l93-109 93 109h57z" horiz-adv-x="657" vert-adv-y="1000"/><glyph glyph-name="uni0159" unicode="ř" d="M368 405q-22 22-41.5 30t-49.5 8q-60 0-94.5-42.5T148 297V0H97v482h51v-64q21 33 59 51.5t82 18.5q70 0 116-46l-37-37m-13 332L232 590h-54L55 737h57l93-109 93 109h57z" horiz-adv-x="409" vert-adv-y="1000"/><glyph glyph-name="uni015A" unicode="Ś" d="M528 191q0-90-64.5-143.5T288-6q-78 0-132.5 22T51 88l38 38q47-47 92-65.5T291 42q85 0 134 39t49 108q0 67-39 100-18 16-38.5 23.5T332 327l-83 13q-82 12-127 51-56 47-56 132 0 90 59.5 142.5T287 718q64 0 111-18t94-59l-35-35q-69 66-173 66-78 0-121.5-39T119 525q0-64 36-94 37-31 102-41l83-13q49-7 75.5-17.5T467 328q61-53 61-137M410 927L304 780h-58l97 147h67z" horiz-adv-x="587" vert-adv-y="1000"/><glyph glyph-name="uni015B" unicode="ś" d="M438 137q0-66-52-104.5T245-6Q122-6 50 63l35 35q56-59 158-59 145 0 145 98 0 38-22 57t-70 24l-80 7Q71 237 71 351q0 63 47 100t126 37q100 0 169-51l-34-34q-56 41-135 41-60 0-91.5-24T121 351q0-38 23.5-57t74.5-24l78-7q68-7 104.5-34t36.5-92m-74 600L258 590h-58l97 147h67z" horiz-adv-x="494" vert-adv-y="1000"/><glyph glyph-name="uni015C" unicode="Ŝ" d="M528 191q0-90-64.5-143.5T288-6q-78 0-132.5 22T51 88l38 38q47-47 92-65.5T291 42q85 0 134 39t49 108q0 67-39 100-18 16-38.5 23.5T332 327l-83 13q-82 12-127 51-56 47-56 132 0 90 59.5 142.5T287 718q64 0 111-18t94-59l-35-35q-69 66-173 66-78 0-121.5-39T119 525q0-64 36-94 37-31 102-41l83-13q49-7 75.5-17.5T467 328q61-53 61-137m-87 589h-57l-93 109-93-109h-57l123 147h54l123-147z" horiz-adv-x="587" vert-adv-y="1000"/><glyph glyph-name="uni015D" unicode="ŝ" d="M438 137q0-66-52-104.5T245-6Q122-6 50 63l35 35q56-59 158-59 145 0 145 98 0 38-22 57t-70 24l-80 7Q71 237 71 351q0 63 47 100t126 37q100 0 169-51l-34-34q-56 41-135 41-60 0-91.5-24T121 351q0-38 23.5-57t74.5-24l78-7q68-7 104.5-34t36.5-92m-38 453h-57l-93 109-93-109h-57l123 147h54l123-147z" horiz-adv-x="494" vert-adv-y="1000"/><glyph glyph-name="uni015E" unicode="Ş" d="M528 191q0-90-64.5-143.5T288-6q-78 0-132.5 22T51 88l38 38q47-47 92-65.5T291 42q85 0 134 39t49 108q0 67-39 100-18 16-38.5 23.5T332 327l-83 13q-82 12-127 51-56 47-56 132 0 90 59.5 142.5T287 718q64 0 111-18t94-59l-35-35q-69 66-173 66-78 0-121.5-39T119 525q0-64 36-94 37-31 102-41l83-13q49-7 75.5-17.5T467 328q61-53 61-137M320-70l-64-150h-63l72 150h55z" horiz-adv-x="587" vert-adv-y="1000"/><glyph glyph-name="uni015F" unicode="ş" d="M438 137q0-66-52-104.5T245-6Q122-6 50 63l35 35q56-59 158-59 145 0 145 98 0 38-22 57t-70 24l-80 7Q71 237 71 351q0 63 47 100t126 37q100 0 169-51l-34-34q-56 41-135 41-60 0-91.5-24T121 351q0-38 23.5-57t74.5-24l78-7q68-7 104.5-34t36.5-92M277-70l-64-150h-63l72 150h55z" horiz-adv-x="494" vert-adv-y="1000"/><glyph glyph-name="uni0160" unicode="Š" d="M528 191q0-90-64.5-143.5T288-6q-78 0-132.5 22T51 88l38 38q47-47 92-65.5T291 42q85 0 134 39t49 108q0 67-39 100-18 16-38.5 23.5T332 327l-83 13q-82 12-127 51-56 47-56 132 0 90 59.5 142.5T287 718q64 0 111-18t94-59l-35-35q-69 66-173 66-78 0-121.5-39T119 525q0-64 36-94 37-31 102-41l83-13q49-7 75.5-17.5T467 328q61-53 61-137m-91 736L314 780h-54L137 927h57l93-109 93 109h57z" horiz-adv-x="587" vert-adv-y="1000"/><glyph glyph-name="uni0161" unicode="š" d="M438 137q0-66-52-104.5T245-6Q122-6 50 63l35 35q56-59 158-59 145 0 145 98 0 38-22 57t-70 24l-80 7Q71 237 71 351q0 63 47 100t126 37q100 0 169-51l-34-34q-56 41-135 41-60 0-91.5-24T121 351q0-38 23.5-57t74.5-24l78-7q68-7 104.5-34t36.5-92m-44 600L271 590h-54L94 737h57l93-109 93 109h57z" horiz-adv-x="494" vert-adv-y="1000"/><glyph glyph-name="uni0162" unicode="Ţ" d="M509 664H296V0h-54v664H30v48h479v-48M297-70l-64-150h-63l72 150h55z" horiz-adv-x="539" vert-adv-y="1000"/><glyph glyph-name="uni0163" unicode="ţ" d="M269 0h-44q-55 0-85.5 34.5T109 126v318H43v38h66v154h51V482h109v-38H160V125q0-80 74-80h35V0m-48-70l-64-150H94l72 150h55z" horiz-adv-x="325" vert-adv-y="1000"/><glyph glyph-name="uni0164" unicode="Ť" d="M509 664H296V0h-54v664H30v48h479v-48m-90 263L296 780h-54L119 927h57l93-109 93 109h57z" horiz-adv-x="539" vert-adv-y="1000"/><glyph glyph-name="uni0165" unicode="ť" d="M269 0h-44q-55 0-85.5 34.5T109 126v318H43v38h66v154h51V482h109v-38H160V125q0-80 74-80h35V0m49 712l-48-148h-47l40 148h55z" horiz-adv-x="325" vert-adv-y="1000"/><glyph glyph-name="uni0166" unicode="Ŧ" d="M509 664H296V380h129v-42H296V0h-54v338H112v42h130v284H30v48h479v-48z" horiz-adv-x="539" vert-adv-y="1000"/><glyph glyph-name="uni0167" unicode="ŧ" d="M269 0h-44q-55 0-85.5 34.5T109 126v119H43v38h66v161H43v38h66v154h51V482h109v-38H160V283h109v-38H160V125q0-80 74-80h35V0z" horiz-adv-x="325" vert-adv-y="1000"/><glyph glyph-name="uni0168" unicode="Ũ" d="M588 231q0-104-68.5-170.5T344-6Q237-6 168.5 60.5T100 231v481h54V238q0-89 52-142.5T344 42q86 0 138 53.5T534 238v474h54V231m-92 612q-48-48-89-48-28 0-69 24-36 21-56 21-26 0-59-33l-30 29q48 48 89 48 31 0 69-24 34-21 56-21 26 0 59 33l30-29z" horiz-adv-x="688" vert-adv-y="1000"/><glyph glyph-name="uni0169" unicode="ũ" d="M462 0h-51v57Q357-6 269-6q-81 0-128 46-50 48-50 134v308h51V183q0-70 34-107t99-37q65 0 100.5 37.5T411 183v299h51V0m-34 653q-48-48-89-48-28 0-69 24-36 21-56 21-26 0-59-33l-30 29q48 48 89 48 31 0 69-24 34-21 56-21 26 0 59 33l30-29z" horiz-adv-x="559" vert-adv-y="1000"/><glyph glyph-name="uni016A" unicode="Ū" d="M588 231q0-104-68.5-170.5T344-6Q237-6 168.5 60.5T100 231v481h54V238q0-89 52-142.5T344 42q86 0 138 53.5T534 238v474h54V231m-96 569H196v46h296v-46z" horiz-adv-x="688" vert-adv-y="1000"/><glyph glyph-name="uni016B" unicode="ū" d="M462 0h-51v57Q357-6 269-6q-81 0-128 46-50 48-50 134v308h51V183q0-70 34-107t99-37q65 0 100.5 37.5T411 183v299h51V0m-35 610H131v46h296v-46z" horiz-adv-x="559" vert-adv-y="1000"/><glyph glyph-name="uni016C" unicode="Ŭ" d="M588 231q0-104-68.5-170.5T344-6Q237-6 168.5 60.5T100 231v481h54V238q0-89 52-142.5T344 42q86 0 138 53.5T534 238v474h54V231m-79 696q-14-135-165-135T179 927h45q6-42 37.5-66t82.5-24q51 0 82.5 24t37.5 66h45z" horiz-adv-x="688" vert-adv-y="1000"/><glyph glyph-name="uni016D" unicode="ŭ" d="M462 0h-51v57Q357-6 269-6q-81 0-128 46-50 48-50 134v308h51V183q0-70 34-107t99-37q65 0 100.5 37.5T411 183v299h51V0m-22 722q-14-135-165-135T110 722h45q6-42 37.5-66t82.5-24q51 0 82.5 24t37.5 66h45z" horiz-adv-x="559" vert-adv-y="1000"/><glyph glyph-name="uni016E" unicode="Ů" d="M588 231q0-104-68.5-170.5T344-6Q237-6 168.5 60.5T100 231v481h54V238q0-89 52-142.5T344 42q86 0 138 53.5T534 238v474h54V231M424.5 947.5l16.75-16.75Q458 914 458 867t-33.5-81Q391 752 344 752t-80.5 34Q230 820 230 867t33.5 80.5Q297 981 344 981t80.5-33.5m-29-132l10.75 10.75Q417 837 417 867t-21.5 51Q374 939 344 939t-51.5-21Q271 897 271 867t21.5-51.5Q314 794 344 794t51.5 21.5z" horiz-adv-x="688" vert-adv-y="1000"/><glyph glyph-name="uni016F" unicode="ů" d="M462 0h-51v57Q357-6 269-6q-81 0-128 46-50 48-50 134v308h51V183q0-70 34-107t99-37q65 0 100.5 37.5T411 183v299h51V0M359.5 757.5l16.75-16.75Q393 724 393 677t-33.5-81Q326 562 279 562t-80.5 34Q165 630 165 677t33.5 80.5Q232 791 279 791t80.5-33.5m-29-132l10.75 10.75Q352 647 352 677t-21.5 51Q309 749 279 749t-51.5-21Q206 707 206 677t21.5-51.5Q249 604 279 604t51.5 21.5z" horiz-adv-x="559" vert-adv-y="1000"/><glyph glyph-name="uni0170" unicode="Ű" d="M588 231q0-104-68.5-170.5T344-6Q237-6 168.5 60.5T100 231v481h54V238q0-89 52-142.5T344 42q86 0 138 53.5T534 238v474h54V231M388 927L282 780h-58l97 147h67m147 0L428 780h-57l97 147h67z" horiz-adv-x="688" vert-adv-y="1000"/><glyph glyph-name="uni0171" unicode="ű" d="M462 0h-51v57Q357-6 269-6q-81 0-128 46-50 48-50 134v308h51V183q0-70 34-107t99-37q65 0 100.5 37.5T411 183v299h51V0M323 737L217 590h-58l97 147h67m147 0L363 590h-57l97 147h67z" horiz-adv-x="559" vert-adv-y="1000"/><glyph glyph-name="uni0172" unicode="Ų" d="M588 231q0-104-68.5-170.5T344-6Q237-6 168.5 60.5T100 231v481h54V238q0-89 52-142.5T344 42q86 0 138 53.5T534 238v474h54V231M484-70l-64-150h-63l72 150h55z" horiz-adv-x="688" vert-adv-y="1000"/><glyph glyph-name="uni0173" unicode="ų" d="M462 0h-51v57Q357-6 269-6q-81 0-128 46-50 48-50 134v308h51V183q0-70 34-107t99-37q65 0 100.5 37.5T411 183v299h51V0m4-70l-64-150h-63l72 150h55z" horiz-adv-x="559" vert-adv-y="1000"/><glyph glyph-name="uni0174" unicode="Ŵ" d="M822 712L644 0h-55L421 620 253 0h-55L20 712h57L227 93l166 619h56L615 93l150 619h57m-251 68h-57l-93 109-93-109h-57l123 147h54l123-147z" horiz-adv-x="842" vert-adv-y="1000"/><glyph glyph-name="uni0175" unicode="ŵ" d="M698 482L544 0h-52L356 402 220 0h-52L14 482h56L193 60l138 422h50L519 60l123 422h56M506 590h-57l-93 109-93-109h-57l123 147h54l123-147z" horiz-adv-x="712" vert-adv-y="1000"/><glyph glyph-name="uni0176" unicode="Ŷ" d="M484 712L274 295V0h-54v295L10 712h58l181-360 177 360h58m-85 68h-57l-93 109-93-109H99l123 147h54l123-147z" horiz-adv-x="494" vert-adv-y="1000"/><glyph glyph-name="uni0177" unicode="ŷ" d="M416 482L192-131q-14-40-33-56-32-31-91-31H44v45h19q40 0 57.5 14t30.5 52L190 0 14 482h56L215 60l145 422h56m-51 108h-57l-93 109-93-109H65l123 147h54l123-147z" horiz-adv-x="430" vert-adv-y="1000"/><glyph glyph-name="uni0178" unicode="Ÿ" d="M484 712L274 295V0h-54v295L10 712h58l181-360 177 360h58m-312 78h-58v77h58v-77m208 0h-58v77h58v-77z" horiz-adv-x="494" vert-adv-y="1000"/><glyph glyph-name="uni0179" unicode="Ź" d="M496 0H63v57l375 607H78v48h418v-48L118 48h378V0M396 927L290 780h-58l97 147h67z" horiz-adv-x="559" vert-adv-y="1000"/><glyph glyph-name="uni017A" unicode="ź" d="M398 0H54v48l290 389H70v45h328v-48L107 45h291V0m-55 737L237 590h-58l97 147h67z" horiz-adv-x="452" vert-adv-y="1000"/><glyph glyph-name="uni017B" unicode="Ż" d="M496 0H63v57l375 607H78v48h418v-48L118 48h378V0M310 800h-62v63h62v-63z" horiz-adv-x="559" vert-adv-y="1000"/><glyph glyph-name="uni017C" unicode="ż" d="M398 0H54v48l290 389H70v45h328v-48L107 45h291V0M257 610h-62v63h62v-63z" horiz-adv-x="452" vert-adv-y="1000"/><glyph glyph-name="uni017D" unicode="Ž" d="M496 0H63v57l375 607H78v48h418v-48L118 48h378V0m-59 927L314 780h-54L137 927h57l93-109 93 109h57z" horiz-adv-x="559" vert-adv-y="1000"/><glyph glyph-name="uni017E" unicode="ž" d="M398 0H54v48l290 389H70v45h328v-48L107 45h291V0m-14 737L261 590h-54L84 737h57l93-109 93 109h57z" horiz-adv-x="452" vert-adv-y="1000"/><glyph glyph-name="uni017F" unicode="ſ" d="M257 667h-35q-74 0-74-80V0H97v586q0 57 30.5 91.5T213 712h44v-45z" horiz-adv-x="245" vert-adv-y="1000"/><glyph glyph-name="uni018F" unicode="Ə" d="M557 548.5l6-27.25Q569 494 569 356t-12-192.5Q545 109 498 62 430-6 325-6 212-6 138 76q-58 65-58 172v116h435q0 116-9.5 165.5T460 615q-55 55-135 55-72 0-122.5-43T136 510H82q16 94 83 151t160 57q105 0 173-68 47-47 59-101.5M515 316H134v-64q0-87 43-141 57-69 148-69 80 0 135 55 33 33 43.5 78.5T515 316z" horiz-adv-x="651" vert-adv-y="1000"/><glyph glyph-name="uni0192" unicode="ƒ" d="M364 667h-43q-74 0-88-80l-36-207h109v-38H190L89-230H38l101 572H30v38h116l36 206q10 57 46.5 91.5T320 712h44v-45z" horiz-adv-x="394" vert-adv-y="1000"/><glyph glyph-name="uni01B5" unicode="Ƶ" d="M496 0H63v57l173 281H123v42h139l176 284H78v48h418v-48L322 380h114v-42H296L118 48h378V0z" horiz-adv-x="559" vert-adv-y="1000"/><glyph glyph-name="uni01B6" unicode="ƶ" d="M398 0H54v48l130 175h-84v36h111l133 178H70v45h328v-48L267 259h84v-36H240L107 45h291V0z" horiz-adv-x="452" vert-adv-y="1000"/><glyph glyph-name="uni01C4" unicode="Ǆ" d="M593.5 466.5l1.25-20.25Q596 426 596 356t-2.5-110.5Q591 205 575 151t-48-86Q462 0 349 0H110v712h239q113 0 178-65 32-32 48-86t18.5-94.5m-53-209l.75 17.25Q542 292 542 356t-1.5 98.5q-1.5 34.5-14 81.5T489 609q-52 55-153 55H164V48h172q101 0 153 55 25 26 37.5 73t14 81.5M1174 0H741v57l375 607H756v48h418v-48L796 48h378V0m-59 927L992 780h-54L815 927h57l93-109 93 109h57z" horiz-adv-x="1237" vert-adv-y="1000"/><glyph glyph-name="uni01C5" unicode="ǅ" d="M593.5 466.5l1.25-20.25Q596 426 596 356t-2.5-110.5Q591 205 575 151t-48-86Q462 0 349 0H110v712h239q113 0 178-65 32-32 48-86t18.5-94.5m-53-209l.75 17.25Q542 292 542 356t-1.5 98.5q-1.5 34.5-14 81.5T489 609q-52 55-153 55H164V48h172q101 0 153 55 25 26 37.5 73t14 81.5M1076 0H732v48l290 389H748v45h328v-48L785 45h291V0m-14 737L939 590h-54L762 737h57l93-109 93 109h57z" horiz-adv-x="1130" vert-adv-y="1000"/><glyph glyph-name="uni01C6" unicode="ǆ" d="M443 0h-51v62q-30-39-64-53.5T249-6q-76 0-118 42-62 62-62 205t62 205q42 42 118 42 45 0 79-14.5t64-53.5v292h51V0m-56 166l2.5 16q2.5 16 2.5 59t-5 75q-5 32-18.5 63t-42 47.5Q298 443 256 443t-70.5-16.5Q157 410 143.5 379T125 316q-5-32-5-75t5-75q5-32 18.5-63t42-47.5Q214 39 256 39t70.5 16.5Q355 72 368.5 103t18.5 63M938 0H594v48l290 389H610v45h328v-48L647 45h291V0m-14 737L801 590h-54L624 737h57l93-109 93 109h57z" horiz-adv-x="992" vert-adv-y="1000"/><glyph glyph-name="uni01C7" unicode="Ǉ" d="M542 0H110v712h54V48h378V0m428 210q0-98-58-157T758-6q-95 0-156 61l37 37q25-25 50.5-37.5T758 42q77 0 117.5 46T916 221v491h54V210z" horiz-adv-x="1070" vert-adv-y="1000"/><glyph glyph-name="uni01C8" unicode="ǈ" d="M542 0H110v712h54V48h378V0m178-105q0-59-29-92t-87-33h-44v45h35q41 0 57.5 19t16.5 62v586h51v-587m6 754h-63v63h63v-63z" horiz-adv-x="817" vert-adv-y="1000"/><glyph glyph-name="uni01C9" unicode="ǉ" d="M255 0h-44q-58 0-87 33t-29 92v587h51V126q0-43 16.5-62T220 45h35V0m180-105q0-59-29-92t-87-33h-44v45h35q41 0 57.5 19t16.5 62v586h51v-587m6 754h-63v63h63v-63z" horiz-adv-x="532" vert-adv-y="1000"/><glyph glyph-name="uni01CA" unicode="Ǌ" d="M629 0h-54L164 619V0h-54v712h54L575 95v617h54V0m508 210q0-98-58-157T925-6q-95 0-156 61l37 37q25-25 50.5-37.5T925 42q77 0 117.5 46t40.5 133v491h54V210z" horiz-adv-x="1237" vert-adv-y="1000"/><glyph glyph-name="uni01CB" unicode="ǋ" d="M629 0h-54L164 619V0h-54v712h54L575 95v617h54V0m258-105q0-59-29-92t-87-33h-44v45h35q41 0 57.5 19t16.5 62v586h51v-587m6 754h-63v63h63v-63z" horiz-adv-x="984" vert-adv-y="1000"/><glyph glyph-name="uni01CC" unicode="ǌ" d="M468 0h-51v299q0 70-34 107t-99 37q-65 0-100.5-37.5T148 299V0H97v482h51v-57q54 63 142 63 81 0 128-46 50-48 50-134V0m239-105q0-59-29-92t-87-33h-44v45h35q41 0 57.5 19t16.5 62v586h51v-587m6 754h-63v63h63v-63z" horiz-adv-x="804" vert-adv-y="1000"/><glyph glyph-name="uni01F1" unicode="Ǳ" d="M593.5 466.5l1.25-20.25Q596 426 596 356t-2.5-110.5Q591 205 575 151t-48-86Q462 0 349 0H110v712h239q113 0 178-65 32-32 48-86t18.5-94.5m-53-209l.75 17.25Q542 292 542 356t-1.5 98.5q-1.5 34.5-14 81.5T489 609q-52 55-153 55H164V48h172q101 0 153 55 25 26 37.5 73t14 81.5M1174 0H741v57l375 607H756v48h418v-48L796 48h378V0z" horiz-adv-x="1237" vert-adv-y="1000"/><glyph glyph-name="uni01F2" unicode="ǲ" d="M593.5 466.5l1.25-20.25Q596 426 596 356t-2.5-110.5Q591 205 575 151t-48-86Q462 0 349 0H110v712h239q113 0 178-65 32-32 48-86t18.5-94.5m-53-209l.75 17.25Q542 292 542 356t-1.5 98.5q-1.5 34.5-14 81.5T489 609q-52 55-153 55H164V48h172q101 0 153 55 25 26 37.5 73t14 81.5M1076 0H732v48l290 389H748v45h328v-48L785 45h291V0z" horiz-adv-x="1130" vert-adv-y="1000"/><glyph glyph-name="uni01F3" unicode="ǳ" d="M443 0h-51v62q-30-39-64-53.5T249-6q-76 0-118 42-62 62-62 205t62 205q42 42 118 42 45 0 79-14.5t64-53.5v292h51V0m-56 166l2.5 16q2.5 16 2.5 59t-5 75q-5 32-18.5 63t-42 47.5Q298 443 256 443t-70.5-16.5Q157 410 143.5 379T125 316q-5-32-5-75t5-75q5-32 18.5-63t42-47.5Q214 39 256 39t70.5 16.5Q355 72 368.5 103t18.5 63M938 0H594v48l290 389H610v45h328v-48L647 45h291V0z" horiz-adv-x="992" vert-adv-y="1000"/><glyph glyph-name="uni01FA" unicode="Ǻ" d="M587 0h-58l-62 173H135L73 0H15l262 712h48L587 0M301 640L152 221h298L301 640m80.5 301.5l16.75-16.75Q415 908 415 861t-33.5-81Q348 746 301 746t-80.5 34Q187 814 187 861t33.5 80.5Q254 975 301 975t80.5-33.5m-29-132l10.75 10.75Q374 831 374 861t-21.5 51Q331 933 301 933t-51.5-21Q228 891 228 861t21.5-51.5Q271 788 301 788t51.5 21.5M418 1132L312 985h-58l97 147h67z" horiz-adv-x="602" vert-adv-y="1000"/><glyph glyph-name="uni01FB" unicode="ǻ" d="M431 0h-51v48q-30-30-62.5-42T233-6Q134-6 91 38q-35 35-35 94 0 66 44.5 102.5T224 271h156v54q0 59-32 88.5T244 443q-50 0-79.5-14T111 382l-37 32q30 41 69.5 57.5T244 488q187 0 187-158V0m-51 168v62H230q-123 0-123-97 0-48 30-71t96-23q81 0 120 37 27 26 27 92m-50.5 589.5l16.75-16.75Q363 724 363 677t-33.5-81Q296 562 249 562t-80.5 34Q135 630 135 677t33.5 80.5Q202 791 249 791t80.5-33.5m-29-132l10.75 10.75Q322 647 322 677t-21.5 51Q279 749 249 749t-51.5-21Q176 707 176 677t21.5-51.5Q219 604 249 604t51.5 21.5M366 948L260 801h-58l97 147h67z" horiz-adv-x="524" vert-adv-y="1000"/><glyph glyph-name="uni01FC" unicode="Ǽ" d="M845 0H414v173H159L69 0H10l377 712h458v-48H467V380h322v-48H467V48h378V0M414 221v443L182 221h232m157 706L465 780h-58l97 147h67z" horiz-adv-x="901" vert-adv-y="1000"/><glyph glyph-name="uni01FD" unicode="ǽ" d="M766 230H431q0-93 40-141.5T588 40q42 0 72 13.5T721 98l38-30q-39-39-78-56.5T584-6Q462-6 412 84q-30-49-71-69.5T233-6Q134-6 91 38q-35 35-35 94 0 66 44.5 102.5T224 271h156v54q0 59-32 88.5T244 443q-50 0-79.5-14T111 382l-37 32q30 41 69.5 57.5T244 488q136 0 173-85 50 85 156 85 91 0 142-62t51-173v-23m-386 0H230q-123 0-123-97 0-48 30-71t96-23q81 0 120 37 27 26 27 92v62m335 41q-4 62-17 91-16 38-49.5 59.5T573 443q-43 0-76.5-21.5T448 362q-13-35-17-91h284M544 737L438 590h-58l97 147h67z" horiz-adv-x="834" vert-adv-y="1000"/><glyph glyph-name="uni01FE" unicode="Ǿ" d="M570 356q0-138-12-192.5T499 62Q431-6 326-6q-71 0-130 35l-35-73h-53l49 102q-51 49-63 104T82 356q0 138 12 192.5T153 650q68 68 173 68 73 0 130-35l35 73h53l-49-102q51-50 63-104.5T570 356M434 637q-48 33-108 33-80 0-135-55-36-36-45.5-86.5T136 356q0-115 7.5-164.5T181 108l253 529m82-281q0 113-8 163t-37 85L218 75q48-33 108-33 80 0 135 55 36 36 45.5 86.5T516 356m-73 571L337 780h-58l97 147h67z" horiz-adv-x="652" vert-adv-y="1000"/><glyph glyph-name="uni01FF" unicode="ǿ" d="M457 241q0-134-60-194Q344-6 263-6q-58 0-105 29l-40-67H70l56 94q-57 61-57 191 0 134 60 194 53 53 134 53 60 0 105-30l40 68h48l-56-94q57-61 57-191M344 418q-35 25-81 25-59 0-100-41-43-43-43-161 0-106 32-148l192 325m62-177q0 106-32 148L182 64q35-25 81-25 59 0 100 41 43 43 43 161m-26 496L274 590h-58l97 147h67z" horiz-adv-x="526" vert-adv-y="1000"/><glyph glyph-name="uni0218" unicode="Ș" d="M528 191q0-90-64.5-143.5T288-6q-78 0-132.5 22T51 88l38 38q47-47 92-65.5T291 42q85 0 134 39t49 108q0 67-39 100-18 16-38.5 23.5T332 327l-83 13q-82 12-127 51-56 47-56 132 0 90 59.5 142.5T287 718q64 0 111-18t94-59l-35-35q-69 66-173 66-78 0-121.5-39T119 525q0-64 36-94 37-31 102-41l83-13q49-7 75.5-17.5T467 328q61-53 61-137M320-70l-64-150h-63l72 150h55z" horiz-adv-x="587" vert-adv-y="1000"/><glyph glyph-name="uni0219" unicode="ș" d="M438 137q0-66-52-104.5T245-6Q122-6 50 63l35 35q56-59 158-59 145 0 145 98 0 38-22 57t-70 24l-80 7Q71 237 71 351q0 63 47 100t126 37q100 0 169-51l-34-34q-56 41-135 41-60 0-91.5-24T121 351q0-38 23.5-57t74.5-24l78-7q68-7 104.5-34t36.5-92M277-70l-64-150h-63l72 150h55z" horiz-adv-x="494" vert-adv-y="1000"/><glyph glyph-name="uni021A" unicode="Ț" d="M509 664H296V0h-54v664H30v48h479v-48M297-70l-64-150h-63l72 150h55z" horiz-adv-x="539" vert-adv-y="1000"/><glyph glyph-name="uni021B" unicode="ț" d="M269 0h-44q-55 0-85.5 34.5T109 126v318H43v38h66v154h51V482h109v-38H160V125q0-80 74-80h35V0m-48-70l-64-150H94l72 150h55z" horiz-adv-x="325" vert-adv-y="1000"/><glyph glyph-name="uni0237" unicode="ȷ" d="M148-105q0-59-29-92t-87-33h-44v45h35q41 0 57.5 19T97-104v586h51v-587z" horiz-adv-x="245" vert-adv-y="1000"/><glyph glyph-name="uni0259" unicode="ə" d="M68 252h335q0 93-40 141.5T246 442q-42 0-72-13.5T113 384l-38 30q39 39 78 56.5t96 17.5q100 0 152.5-63T454 241q0-117-51-182T261-6q-91 0-142 62T68 229v23m51-41q4-62 17-91 16-38 49.5-59.5T261 39q42 0 75 21.5t50 59.5q13 29 17 91H119z" horiz-adv-x="523" vert-adv-y="1000"/><glyph glyph-name="uni02BB" unicode="ʻ" d="M165 642H95v70l70 70V642z" horiz-adv-x="260" vert-adv-y="1000"/><glyph glyph-name="uni02BC" unicode="ʼ" d="M165 642l-70-70v140h70v-70z" horiz-adv-x="260" vert-adv-y="1000"/><glyph glyph-name="uni02C6" unicode="ˆ" d="M400 590h-57l-93 109-93-109h-57l123 147h54l123-147z" horiz-adv-x="500" vert-adv-y="1000"/><glyph glyph-name="uni02C7" unicode="ˇ" d="M400 737L277 590h-54L100 737h57l93-109 93 109h57z" horiz-adv-x="500" vert-adv-y="1000"/><glyph glyph-name="uni02D8" unicode="˘" d="M415 722q-14-135-165-135T85 722h45q6-42 37.5-66t82.5-24q51 0 82.5 24t37.5 66h45z" horiz-adv-x="500" vert-adv-y="1000"/><glyph glyph-name="uni02D9" unicode="˙" d="M281 610h-62v63h62v-63z" horiz-adv-x="500" vert-adv-y="1000"/><glyph glyph-name="uni02DA" unicode="˚" d="M330.5 757.5l16.75-16.75Q364 724 364 677t-33.5-81Q297 562 250 562t-80.5 34Q136 630 136 677t33.5 80.5Q203 791 250 791t80.5-33.5m-29-132l10.75 10.75Q323 647 323 677t-21.5 51Q280 749 250 749t-51.5-21Q177 707 177 677t21.5-51.5Q220 604 250 604t51.5 21.5z" horiz-adv-x="500" vert-adv-y="1000"/><glyph glyph-name="uni02DB" unicode="˛" d="M355-70l-64-150h-63l72 150h55z" horiz-adv-x="500" vert-adv-y="1000"/><glyph glyph-name="uni02DC" unicode="˜" d="M399 653q-48-48-89-48-27 0-69 24-36 21-56 21-26 0-59-33l-30 29q48 48 89 48 31 0 69-24 34-21 56-21 26 0 59 33l30-29z" horiz-adv-x="500" vert-adv-y="1000"/><glyph glyph-name="uni02DD" unicode="˝" d="M294 737L188 590h-58l97 147h67m147 0L334 590h-57l97 147h67z" horiz-adv-x="500" vert-adv-y="1000"/><glyph glyph-name="uni037E" unicode=";" d="M193-68l-68-68V68h68V-68m4 380h-74v74h74v-74z" horiz-adv-x="292" vert-adv-y="1000"/><glyph glyph-name="uni0384" unicode="΄" d="M159 615l-58-33v130h58v-97z" horiz-adv-x="253" vert-adv-y="1000"/><glyph glyph-name="uni0385" unicode="΅" d="M383 600h-58v77h58v-77m-104 15l-58-33v130h58v-97m-104-15h-58v77h58v-77z" horiz-adv-x="500" vert-adv-y="1000"/><glyph glyph-name="uni0386" unicode="Ά" d="M587 0h-58l-62 173H135L73 0H15l262 712h48L587 0M450 221L301 640 152 221h298M68 615l-58-33v130h58v-97z" horiz-adv-x="602" vert-adv-y="1000"/><glyph glyph-name="uni0387" unicode="·" d="M169 227H95v74h74v-74z" horiz-adv-x="264" vert-adv-y="1000"/><glyph glyph-name="uni0388" unicode="Έ" d="M542 0H110v712h432v-48H164V383h322v-48H164V48h378V0M8 615l-58-33v130H8v-97z" horiz-adv-x="598" vert-adv-y="1000"/><glyph glyph-name="uni0389" unicode="Ή" d="M589 0h-54v335H164V0h-54v712h54V383h371v329h54V0M8 615l-58-33v130H8v-97z" horiz-adv-x="699" vert-adv-y="1000"/><glyph glyph-name="uni038A" unicode="Ί" d="M164 0h-54v712h54V0M8 615l-58-33v130H8v-97z" horiz-adv-x="274" vert-adv-y="1000"/><glyph glyph-name="uni038C" unicode="Ό" d="M558 548.5l6-27.25Q570 494 570 356t-12-192.5Q546 109 499 62 431-6 326-6T153 62q-47 47-59 101.5T82 356q0 138 12 192.5T153 650q68 68 173 68t173-68q47-47 59-101.5m-51.5-365l4.75 25.25Q516 234 516 356t-9.5 172.5Q497 579 461 615q-55 55-135 55t-135-55q-36-36-45.5-86.5T136 356q0-122 9.5-172.5T191 97q55-55 135-55t135 55q36 36 45.5 86.5M28 615l-58-33v130h58v-97z" horiz-adv-x="652" vert-adv-y="1000"/><glyph glyph-name="uni038E" unicode="Ύ" d="M484 712L274 295V0h-54v295L10 712h58l181-360 177 360h58m-496-97l-58-33v130h58v-97z" horiz-adv-x="494" vert-adv-y="1000"/><glyph glyph-name="uni038F" unicode="Ώ" d="M570 356q0-101-5-152t-24-86q-20-38-62-71h91V0H384v47q73 35 105 88 17 28 22 78t5 143q0 122-9.5 172.5T461 615q-55 55-135 55t-135-55q-36-36-45.5-86.5T136 356q0-93 5-143t22-78q32-53 105-88V0H82v47h91q-42 33-62 71-19 35-24 86t-5 152q0 138 12 192.5T153 650q68 68 173 68t173-68q47-47 59-101.5T570 356M28 615l-58-33v130h58v-97z" horiz-adv-x="652" vert-adv-y="1000"/><glyph glyph-name="uni0390" unicode="ΐ" d="M255 0h-44q-58 0-87 33t-29 92v357h51V126q0-43 16.5-62T220 45h35V0m-2 600h-58v77h58v-77m-104 15l-58-33v130h58v-97M45 600h-58v77h58v-77z" horiz-adv-x="287" vert-adv-y="1000"/><glyph glyph-name="uni0391" unicode="Α" d="M587 0h-58l-62 173H135L73 0H15l262 712h48L587 0M450 221L301 640 152 221h298z" horiz-adv-x="602" vert-adv-y="1000"/><glyph glyph-name="uni0392" unicode="Β" d="M589 194q0-93-56.5-143.5T380 0H110v712h262q91 0 148.5-50T578 526q0-57-29.5-100T467 366q58-20 90-65t32-107M491.5 87l21.75 19.5Q535 126 535 194t-43.5 107Q448 340 374 340H164V48h210q74 0 117.5 39M480 422l22 17q22 17 22 87t-44 104q-44 34-114 34H164V388h202q70 0 114 34z" horiz-adv-x="671" vert-adv-y="1000"/><glyph glyph-name="uni0393" unicode="Γ" d="M530 664H172V0h-54v712h412v-48z" horiz-adv-x="554" vert-adv-y="1000"/><glyph glyph-name="uni0394" unicode="Δ" d="M581 0H10l262 712h47L581 0m-70 48L295 640 80 48h431z" horiz-adv-x="591" vert-adv-y="1000"/><glyph glyph-name="uni0395" unicode="Ε" d="M542 0H110v712h432v-48H164V383h322v-48H164V48h378V0z" horiz-adv-x="598" vert-adv-y="1000"/><glyph glyph-name="uni0396" unicode="Ζ" d="M496 0H63v57l375 607H78v48h418v-48L118 48h378V0z" horiz-adv-x="559" vert-adv-y="1000"/><glyph glyph-name="uni0397" unicode="Η" d="M589 0h-54v335H164V0h-54v712h54V383h371v329h54V0z" horiz-adv-x="699" vert-adv-y="1000"/><glyph glyph-name="uni0398" unicode="Θ" d="M558 548.5l6-27.25Q570 494 570 356t-12-192.5Q546 109 499 62 431-6 326-6T153 62q-47 47-59 101.5T82 356q0 138 12 192.5T153 650q68 68 173 68t173-68q47-47 59-101.5M516 335H136q0-107 10-155.5T191 97q55-55 135-55t135 55q34 34 44 82t11 156m0 48q-1 104-11 151t-44 81q-55 55-135 55t-135-55q-34-34-44.5-81.5T136 383h380z" horiz-adv-x="652" vert-adv-y="1000"/><glyph glyph-name="uni0399" unicode="Ι" d="M164 0h-54v712h54V0z" horiz-adv-x="274" vert-adv-y="1000"/><glyph glyph-name="uni039A" unicode="Κ" d="M627 0h-64L334 399 164 193V0h-54v712h54V267l361 445h65L370 440 627 0z" horiz-adv-x="645" vert-adv-y="1000"/><glyph glyph-name="uni039B" unicode="Λ" d="M545 0h-57L285 640 82 0H25l234 712h52L545 0z" horiz-adv-x="570" vert-adv-y="1000"/><glyph glyph-name="uni039C" unicode="Μ" d="M708 0h-54v587L438 100h-54L164 587V0h-54v712h54l248-549 242 549h54V0z" horiz-adv-x="818" vert-adv-y="1000"/><glyph glyph-name="uni039D" unicode="Ν" d="M629 0h-54L164 619V0h-54v712h54L575 95v617h54V0z" horiz-adv-x="739" vert-adv-y="1000"/><glyph glyph-name="uni039E" unicode="Ξ" d="M508 0H56v48h199v287H112v48h143v281H56v48h452v-48H309V383h143v-48H309V48h199V0z" horiz-adv-x="564" vert-adv-y="1000"/><glyph glyph-name="uni039F" unicode="Ο" d="M558 548.5l6-27.25Q570 494 570 356t-12-192.5Q546 109 499 62 431-6 326-6T153 62q-47 47-59 101.5T82 356q0 138 12 192.5T153 650q68 68 173 68t173-68q47-47 59-101.5m-51.5-365l4.75 25.25Q516 234 516 356t-9.5 172.5Q497 579 461 615q-55 55-135 55t-135-55q-36-36-45.5-86.5T136 356q0-122 9.5-172.5T191 97q55-55 135-55t135 55q36 36 45.5 86.5z" horiz-adv-x="652" vert-adv-y="1000"/><glyph glyph-name="uni03A0" unicode="Π" d="M569 0h-54v664H164V0h-54v712h459V0z" horiz-adv-x="680" vert-adv-y="1000"/><glyph glyph-name="uni03A1" unicode="Ρ" d="M526 657l30-27.5Q586 602 586 507t-60-150q-60-55-155-55H164V0h-54v712h261q95 0 155-55m-39-267.5l22.5 19.75Q532 429 532 507t-45 117.5Q442 664 365 664H164V350h201q77 0 122 39.5z" horiz-adv-x="631" vert-adv-y="1000"/><glyph glyph-name="uni03A3" unicode="Σ" d="M496 0H63v57l199 324L78 664v48h418v-48H137l185-282L118 48h378V0z" horiz-adv-x="552" vert-adv-y="1000"/><glyph glyph-name="uni03A4" unicode="Τ" d="M509 664H296V0h-54v664H30v48h479v-48z" horiz-adv-x="539" vert-adv-y="1000"/><glyph glyph-name="uni03A5" unicode="Υ" d="M484 712L274 295V0h-54v295L10 712h58l181-360 177 360h58z" horiz-adv-x="494" vert-adv-y="1000"/><glyph glyph-name="uni03A6" unicode="Φ" d="M649 361q0-49-2.5-80.5t-17-71.5Q615 169 587 141q-77-77-202-77V0h-54v64q-125 0-202 77-40 40-51 92T67 361q0 49 2.5 80.5t17 71.5q14.5 40 42.5 68 77 77 202 77v54h54v-54q125 0 202-77 40-40 51-92t11-128M331 112v498q-100 0-159-59-23-23-35-58.5T123 430q-2-27-2-69t2-69q2-27 14-62.5t35-58.5q59-59 159-59m262 180l1 13.5q1 13.5 1 55.5t-2 69q-2 27-14 62.5T544 551q-59 59-159 59V112q100 0 159 59 23 23 35 58.5t14 62.5z" horiz-adv-x="715" vert-adv-y="1000"/><glyph glyph-name="uni03A7" unicode="Χ" d="M514 0h-63L265 317 79 0H18l218 365L32 712h63l170-299 171 299h62L294 365 514 0z" horiz-adv-x="532" vert-adv-y="1000"/><glyph glyph-name="uni03A8" unicode="Ψ" d="M600 376q0-53-15.5-88.5T534 217q-73-73-178-73h-2V0h-54v144h-2q-105 0-178 73-35 35-50.5 70.5T54 376v336h54V376q0-74 55-129t135-55h2v520h54V192h2q80 0 135 55t55 129v336h54V376z" horiz-adv-x="654" vert-adv-y="1000"/><glyph glyph-name="uni03A9" unicode="Ω" d="M570 356q0-101-5-152t-24-86q-20-38-62-71h91V0H384v47q73 35 105 88 17 28 22 78t5 143q0 122-9.5 172.5T461 615q-55 55-135 55t-135-55q-36-36-45.5-86.5T136 356q0-93 5-143t22-78q32-53 105-88V0H82v47h91q-42 33-62 71-19 35-24 86t-5 152q0 138 12 192.5T153 650q68 68 173 68t173-68q47-47 59-101.5T570 356z" horiz-adv-x="652" vert-adv-y="1000"/><glyph glyph-name="uni03AA" unicode="Ϊ" d="M164 0h-54v712h54V0M62 790H4v77h58v-77m208 0h-58v77h58v-77z" horiz-adv-x="274" vert-adv-y="1000"/><glyph glyph-name="uni03AB" unicode="Ϋ" d="M484 712L274 295V0h-54v295L10 712h58l181-360 177 360h58m-312 78h-58v77h58v-77m208 0h-58v77h58v-77z" horiz-adv-x="494" vert-adv-y="1000"/><glyph glyph-name="uni03AC" unicode="ά" d="M443 0h-51v62q-30-39-64-53.5T249-6q-76 0-118 42-62 62-62 205t62 205q42 42 118 42 45 0 79-14.5t64-53.5v62h51V0m-56 166l2.5 16q2.5 16 2.5 59t-5 75q-5 32-18.5 63t-42 47.5Q298 443 256 443t-70.5-16.5Q157 410 143.5 379T125 316q-5-32-5-75t5-75q5-32 18.5-63t42-47.5Q214 39 256 39t70.5 16.5Q355 72 368.5 103t18.5 63m-96 449l-58-33v130h58v-97z" horiz-adv-x="540" vert-adv-y="1000"/><glyph glyph-name="uni03AD" unicode="έ" d="M437 68q-43-43-89.5-58.5T240-6q-75 0-123.5 36T68 130q0 44 19.5 70.5T150 245q-72 29-72 108 0 61 49 98t119 37q123 0 190-74l-34-33q-60 63-155 63-43 0-78.5-25.5T133 352q0-84 96-84h82v-44h-82q-106 0-106-94 0-42 34-67t81-25q104 0 164 61l35-31M291 615l-58-33v130h58v-97z" horiz-adv-x="492" vert-adv-y="1000"/><glyph glyph-name="uni03AE" unicode="ή" d="M311 615l-58-33v130h58v-97M468 0h-51v299q0 70-34 107t-99 37q-65 0-100.5-37.5T148 299V0H97v482h51v-57q54 63 142 63 81 0 128-46 50-48 50-134V0z" horiz-adv-x="559" vert-adv-y="1000"/><glyph glyph-name="uni03AF" unicode="ί" d="M255 0h-44q-58 0-87 33t-29 92v357h51V126q0-43 16.5-62T220 45h35V0M153 615l-58-33v130h58v-97z" horiz-adv-x="287" vert-adv-y="1000"/><glyph glyph-name="uni03B0" unicode="ΰ" d="M390 40Q343-6 255-6T120 40Q70 88 70 174v308h51V187q0-148 134-148 66 0 100.5 37.5T390 187v295h51V174q0-85-51-134m-5 560h-58v77h58v-77m-104 15l-58-33v130h58v-97m-104-15h-58v77h58v-77z" horiz-adv-x="511" vert-adv-y="1000"/><glyph glyph-name="uni03B1" unicode="α" d="M443 0h-51v62q-30-39-64-53.5T249-6q-76 0-118 42-62 62-62 205t62 205q42 42 118 42 45 0 79-14.5t64-53.5v62h51V0m-56 166l2.5 16q2.5 16 2.5 59t-5 75q-5 32-18.5 63t-42 47.5Q298 443 256 443t-70.5-16.5Q157 410 143.5 379T125 316q-5-32-5-75t5-75q5-32 18.5-63t42-47.5Q214 39 256 39t70.5 16.5Q355 72 368.5 103t18.5 63z" horiz-adv-x="540" vert-adv-y="1000"/><glyph glyph-name="uni03B2" unicode="β" d="M491 197q0-83-51.5-143T314-6q-38 0-60 3t-52 18.5Q172 31 147 63V0H97v538q0 75 50 124.5T277 712q80 0 128.5-42.5T454 548q0-36-7.5-67.5t-32-61.5Q390 389 350 381q141-17 141-184m-49 3q0 50-14 83.5t-41 49q-27 15.5-54 21t-64 5.5h-61v38h63q135 0 135 140 0 68-35.5 101T279 671q-65 0-98-42t-33-110V200q0-67 36-115t108-48q74 0 112 49t38 114z" horiz-adv-x="540" vert-adv-y="1000"/><glyph glyph-name="uni03B3" unicode="γ" d="M416 482L241 0v-230h-51V0L14 482h56L215 60l145 422h56z" horiz-adv-x="430" vert-adv-y="1000"/><glyph glyph-name="uni03B4" unicode="δ" d="M457 241q0-134-60-194Q344-6 263-6T129 47q-60 60-60 194t60 194q53 53 134 53 45 0 73-17L123 673v39h285v-39H179l179-172q62-59 80.5-119.5T457 241M363 80q43 43 43 161t-43 161q-41 41-100 41t-100-41q-43-43-43-161t43-161q41-41 100-41t100 41z" horiz-adv-x="526" vert-adv-y="1000"/><glyph glyph-name="uni03B5" unicode="ε" d="M437 68q-43-43-89.5-58.5T240-6q-75 0-123.5 36T68 130q0 44 19.5 70.5T150 245q-72 29-72 108 0 61 49 98t119 37q123 0 190-74l-34-33q-60 63-155 63-43 0-78.5-25.5T133 352q0-84 96-84h82v-44h-82q-106 0-106-94 0-42 34-67t81-25q104 0 164 61l35-31z" horiz-adv-x="492" vert-adv-y="1000"/><glyph glyph-name="uni03B6" unicode="ζ" d="M413-52q0-101-125-101v39q81 0 81 56 0 31-20 44.5T285 0h-36Q145 0 100 24t-45 89q0 44 18.5 74t65.5 69l219 181H84v45h328v-48L170 220q-41-36-51.5-55T108 109q0-37 35-50.5T249 45h33q131 0 131-97z" horiz-adv-x="458" vert-adv-y="1000"/><glyph glyph-name="uni03B7" unicode="η" d="M468 0h-51v299q0 70-34 107t-99 37q-65 0-100.5-37.5T148 299V0H97v482h51v-57q54 63 142 63 81 0 128-46 50-48 50-134V0z" horiz-adv-x="559" vert-adv-y="1000"/><glyph glyph-name="uni03B8" unicode="θ" d="M462 476.5l1-21.25q1-21.25 1-99.25t-2-120.5q-2-42.5-17.5-99.5T398 48Q344-6 267-6T136 48q-31 31-46.5 88T72 235.5Q70 278 70 356t2 120.5Q74 519 89.5 576t46.5 88q54 54 131 54t131-54q31-31 46.5-88t17.5-99.5M413 353H121q0-73 2-114.5t14-88.5q12-47 35-70 41-41 95-41t95 41q33 33 42 98t9 175m0 45q0 183-51 234-41 41-95 41t-95-41q-51-51-51-234h292z" horiz-adv-x="534" vert-adv-y="1000"/><glyph glyph-name="uni03B9" unicode="ι" d="M255 0h-44q-58 0-87 33t-29 92v357h51V126q0-43 16.5-62T220 45h35V0z" horiz-adv-x="287" vert-adv-y="1000"/><glyph glyph-name="uni03BA" unicode="κ" d="M487 0h-63L258 265 148 138V0H97v482h51V210l239 272h65L293 302 487 0z" horiz-adv-x="527" vert-adv-y="1000"/><glyph glyph-name="uni03BB" unicode="λ" d="M473 0h-24q-42 0-76 31-20 20-31 56L233 421 74 0H18l191 481-44 129q-12 37-26 47t-55 10h-9v45h15q50 0 76-17t41-61l176-523q12-36 28-51t44-15h18V0z" horiz-adv-x="465" vert-adv-y="1000"/><glyph glyph-name="uni03BC" unicode="μ" d="M408 0v57Q354-6 266-6q-79 0-127 45v-269H88v712h51V183q0-70 34-107t99-37q65 0 100.5 37.5T408 183v299h51V0h-51z" horiz-adv-x="556" vert-adv-y="1000"/><glyph glyph-name="uni03BD" unicode="ν" d="M416 482L240 0h-50L14 482h56L215 60l145 422h56z" horiz-adv-x="430" vert-adv-y="1000"/><glyph glyph-name="uni03BE" unicode="ξ" d="M455 614l-34-33q-59 62-139 62-61 0-97-34.5T149 512q0-121 131-121h121v-45H282q-73 0-117.5-42.5T120 192q0-65 43.5-106T272 45h43q131 0 131-97 0-101-125-101v39q81 0 81 56 0 31-20 44.5T318 0h-46q-87 0-145.5 54T68 192q0 70 35.5 116t88.5 62q-43 11-70.5 51.5T94 512q0 78 52.5 127T282 688q106 0 173-74z" horiz-adv-x="475" vert-adv-y="1000"/><glyph glyph-name="uni03BF" unicode="ο" d="M397 435q60-60 60-194T397 47Q344-6 263-6T129 47q-60 60-60 194t60 194q53 53 134 53t134-53M363 80q43 43 43 161t-43 161q-41 41-100 41t-100-41q-43-43-43-161t43-161q41-41 100-41t100 41z" horiz-adv-x="526" vert-adv-y="1000"/><glyph glyph-name="uni03C0" unicode="π" d="M468 0h-51v437H148V0H97v482h371V0z" horiz-adv-x="559" vert-adv-y="1000"/><glyph glyph-name="uni03C1" unicode="ρ" d="M444 241q0-142-63-205Q339-6 263-6q-45 0-79 14.5T120 62v-292H69v520q0 79 46.5 138.5T255 488q189 0 189-247m-57-75l2.5 16q2.5 16 2.5 59t-4.5 74.5Q383 347 370 378t-41.5 47.5Q300 442 258 442q-138 0-138-196 0-43 5-75.5t18.5-64.5q13.5-32 42-49.5T256 39q42 0 70.5 16.5t42 47.5q13.5 31 18.5 63z" horiz-adv-x="513" vert-adv-y="1000"/><glyph glyph-name="uni03C2" unicode="ς" d="M440 414l-35-32q-31 34-58 47.5T281 443q-85 0-128-64-33-48-33-138t33-138q23-35 55-46.5T289 45q143 0 143-97 0-101-126-101v39q81 0 81 56 0 27-16 40.5T338-2q-17 2-49 2-112 0-166 63T69 241q0 115 56.5 181T281 488q51 0 86.5-16t72.5-58z" horiz-adv-x="493" vert-adv-y="1000"/><glyph glyph-name="uni03C3" unicode="σ" d="M472 437h-92q79-61 79-196 0-134-60-194Q346-6 265-6T131 47q-60 60-60 194 0 130 58 188 53 53 134 53h209v-45m-64-196q0 110-45 155-41 41-100 41t-100-41q-19-19-28.5-47.5t-11-50Q122 277 122 241q0-118 43-161 41-41 100-41t100 41q43 43 43 161z" horiz-adv-x="536" vert-adv-y="1000"/><glyph glyph-name="uni03C4" unicode="τ" d="M321 437H200V0h-51v437H28v45h293v-45z" horiz-adv-x="349" vert-adv-y="1000"/><glyph glyph-name="uni03C5" unicode="υ" d="M390 40Q343-6 255-6T120 40Q70 88 70 174v308h51V187q0-148 134-148 66 0 100.5 37.5T390 187v295h51V174q0-85-51-134z" horiz-adv-x="511" vert-adv-y="1000"/><glyph glyph-name="uni03C6" unicode="φ" d="M577 243q0-127-50.5-188T347-6v-224h-51V-6Q169-6 119 59T69 243q0 168 116 239l14-42q-79-58-79-200 0-35 3-60t13-53q10-28 28.5-45.5t52-29.5Q250 40 296 39v443h69q112 0 162-58t50-181m-51 3q0 46-6 77t-24 59q-18 28-55 42t-94 14V39q60 2 97.5 18t54.5 48q17 32 22 62.5t5 78.5z" horiz-adv-x="646" vert-adv-y="1000"/><glyph glyph-name="uni03C7" unicode="χ" d="M420 0h-62L231 203 102 0H40l163 246L47 482h62l122-194 120 194h62L257 246 420 0z" horiz-adv-x="460" vert-adv-y="1000"/><glyph glyph-name="uni03C8" unicode="ψ" d="M540 241q0-125-48.5-183T328-5v-225h-51V-5Q162 0 114 58T66 241v241h50V241q0-107 33.5-152T277 40v442h51V40q94 4 127.5 49T489 241v241h51V241z" horiz-adv-x="614" vert-adv-y="1000"/><glyph glyph-name="uni03C9" unicode="ω" d="M635 233q0-113-36-173Q559-6 475-6q-43 0-77 29.5T352 96q-12-43-46-72.5T229-6q-84 0-124 66-36 60-36 173 0 50 13 102.5t34 79.5q50 66 110 73v-45q-22-4-44.5-23.5T148 379q-29-53-29-146 0-104 26-146 28-48 84-48 97 0 97 183v128h52V222q0-183 97-183 56 0 84 48 26 42 26 146 0 93-29 146-11 21-33.5 40.5T478 443v45q60-7 110-73 21-27 34-79.5T635 233z" horiz-adv-x="704" vert-adv-y="1000"/><glyph glyph-name="uni03CA" unicode="ϊ" d="M255 0h-44q-58 0-87 33t-29 92v357h51V126q0-43 16.5-62T220 45h35V0M48 600h-58v77h58v-77m208 0h-58v77h58v-77z" horiz-adv-x="287" vert-adv-y="1000"/><glyph glyph-name="uni03CB" unicode="ϋ" d="M390 40Q343-6 255-6T120 40Q70 88 70 174v308h51V187q0-148 134-148 66 0 100.5 37.5T390 187v295h51V174q0-85-51-134M181 600h-58v77h58v-77m208 0h-58v77h58v-77z" horiz-adv-x="511" vert-adv-y="1000"/><glyph glyph-name="uni03CC" unicode="ό" d="M291 615l-58-33v130h58v-97m106-180q60-60 60-194T397 47Q344-6 263-6T129 47q-60 60-60 194t60 194q53 53 134 53t134-53M363 80q43 43 43 161t-43 161q-41 41-100 41t-100-41q-43-43-43-161t43-161q41-41 100-41t100 41z" horiz-adv-x="526" vert-adv-y="1000"/><glyph glyph-name="uni03CD" unicode="ύ" d="M390 40Q343-6 255-6T120 40Q70 88 70 174v308h51V187q0-148 134-148 66 0 100.5 37.5T390 187v295h51V174q0-85-51-134M281 615l-58-33v130h58v-97z" horiz-adv-x="511" vert-adv-y="1000"/><glyph glyph-name="uni03CE" unicode="ώ" d="M635 233q0-113-36-173Q559-6 475-6q-43 0-77 29.5T352 96q-12-43-46-72.5T229-6q-84 0-124 66-36 60-36 173 0 50 13 102.5t34 79.5q50 66 110 73v-45q-22-4-44.5-23.5T148 379q-29-53-29-146 0-104 26-146 28-48 84-48 97 0 97 183v128h52V222q0-183 97-183 56 0 84 48 26 42 26 146 0 93-29 146-11 21-33.5 40.5T478 443v45q60-7 110-73 21-27 34-79.5T635 233M376 615l-58-33v130h58v-97z" horiz-adv-x="704" vert-adv-y="1000"/><glyph glyph-name="uni03D0" unicode="ϐ" d="M491 197q0-83-51.5-143T314-6q-39 0-60 2.5t-51 18Q173 30 148 62v-292H97v768q0 75 50 124.5T277 712q80 0 128.5-42.5T454 548q0-36-7.5-67.5t-32-61.5Q390 389 350 381q141-17 141-184m-49 3q0 50-14 83.5t-41 49q-27 15.5-54 21t-64 5.5h-61v38h63q135 0 135 140 0 68-35.5 101T279 671q-65 0-98-42t-33-110V200q0-67 36-115t108-48q74 0 112 49t38 114z" horiz-adv-x="540" vert-adv-y="1000"/><glyph glyph-name="uni0400" unicode="Ѐ" d="M542 0H110v712h432v-48H164V383h322v-48H164V48h378V0M361 780h-58L197 927h67l97-147z" horiz-adv-x="598" vert-adv-y="1000"/><glyph glyph-name="uni0401" unicode="Ё" d="M542 0H110v712h432v-48H164V383h322v-48H164V48h378V0M239 790h-58v77h58v-77m208 0h-58v77h58v-77z" horiz-adv-x="598" vert-adv-y="1000"/><glyph glyph-name="uni0402" unicode="Ђ" d="M646 216q0-102-58-159T431 0h-40v48h34q81 0 124 42t43 125q0 83-43 125t-124 42H261V0h-54v664H25v48h479v-48H261V430h170q99 0 157-56.5T646 216z" horiz-adv-x="743" vert-adv-y="1000"/><glyph glyph-name="uni0403" unicode="Ѓ" d="M540 664H172V0h-54v712h422v-48M424 927L318 780h-58l97 147h67z" horiz-adv-x="564" vert-adv-y="1000"/><glyph glyph-name="uni0404" unicode="Є" d="M568 202q-18-96-83-152T326-6Q221-6 153 62q-47 47-59 101.5T82 356q0 138 12 192.5T153 650q68 68 173 68 95 0 159.5-55.5T568 510h-55q-16 74-65.5 117T326 670q-80 0-135-55-34-34-44.5-81.5T136 383h286v-48H136q0-107 10-155.5T191 97q55-55 135-55 72 0 122.5 43T515 202h53z" horiz-adv-x="644" vert-adv-y="1000"/><glyph glyph-name="uni0405" unicode="Ѕ" d="M528 191q0-90-64.5-143.5T288-6q-78 0-132.5 22T51 88l38 38q47-47 92-65.5T291 42q85 0 134 39t49 108q0 67-39 100-18 16-38.5 23.5T332 327l-83 13q-82 12-127 51-56 47-56 132 0 90 59.5 142.5T287 718q64 0 111-18t94-59l-35-35q-69 66-173 66-78 0-121.5-39T119 525q0-64 36-94 37-31 102-41l83-13q49-7 75.5-17.5T467 328q61-53 61-137z" horiz-adv-x="587" vert-adv-y="1000"/><glyph glyph-name="uni0406" unicode="І" d="M164 0h-54v712h54V0z" horiz-adv-x="274" vert-adv-y="1000"/><glyph glyph-name="uni0407" unicode="Ї" d="M164 0h-54v712h54V0M62 790H4v77h58v-77m208 0h-58v77h58v-77z" horiz-adv-x="274" vert-adv-y="1000"/><glyph glyph-name="uni0408" unicode="Ј" d="M398 210q0-98-58-157T186-6Q91-6 30 55l37 37q25-25 50.5-37.5T186 42q76 0 117 46.5T344 221v491h54V210z" horiz-adv-x="498" vert-adv-y="1000"/><glyph glyph-name="uni0409" unicode="Љ" d="M238 664V407q0-219-50.5-313T34 0H5v48h18q31 0 54 9t44 34.5q21 25.5 34.5 68t21.5 112q8 69.5 8 163.5v277h385V410h209q98 0 156.5-56T994 205q0-93-58.5-149T779 0H516v664H238M896.5 89l21.75 20.5Q940 130 940 205t-43.5 116Q853 362 773 362H570V48h203q80 0 123.5 41z" horiz-adv-x="1037" vert-adv-y="1000"/><glyph glyph-name="uni040A" unicode="Њ" d="M954.5 354l29.25-28Q1013 298 1013 205T954.5 56Q896 0 798 0H535v362H164V0h-54v712h54V410h371v302h54V410h209q98 0 156.5-56m-39-265l21.75 20.5Q959 130 959 205t-43.5 116Q872 362 792 362H589V48h203q80 0 123.5 41z" horiz-adv-x="1056" vert-adv-y="1000"/><glyph glyph-name="uni040B" unicode="Ћ" d="M646 0h-54v225q0 75-43.5 116T425 382H261V0h-54v664H25v48h479v-48H261V430h170q98 0 156.5-56T646 225V0z" horiz-adv-x="743" vert-adv-y="1000"/><glyph glyph-name="uni040C" unicode="Ќ" d="M600 0h-76L170 371l331 341h72L235 372 600 0M115 0v712h54V0h-54m314 927L323 780h-58l97 147h67z" horiz-adv-x="600" vert-adv-y="1000"/><glyph glyph-name="uni040D" unicode="Ѝ" d="M610 0h-54v624L164 0h-54v712h54V90l392 622h54V0M392 780h-58L228 927h67l97-147z" horiz-adv-x="720" vert-adv-y="1000"/><glyph glyph-name="uni040E" unicode="Ў" d="M407 880q-10-120-140-120T127 880h51q8-80 89-80t89 80h51m115-168L263 108Q217 0 129 0H75v48h42q39 0 60.5 18t40.5 62l31 74L12 712h58l207-449 187 449h58z" horiz-adv-x="534" vert-adv-y="1000"/><glyph glyph-name="uni040F" unicode="Џ" d="M589 0H377v-180h-54V0H110v712h54V48h371v664h54V0z" horiz-adv-x="699" vert-adv-y="1000"/><glyph glyph-name="uni0410" unicode="А" d="M587 0h-58l-62 173H135L73 0H15l262 712h48L587 0M450 221L301 640 152 221h298z" horiz-adv-x="602" vert-adv-y="1000"/><glyph glyph-name="uni0411" unicode="Б" d="M529.5 354l29.25-28Q588 298 588 205T529.5 56Q471 0 373 0H110v712h434v-48H164V410h209q98 0 156.5-56m-39-265l21.75 20.5Q534 130 534 205t-43.5 116Q447 362 367 362H164V48h203q80 0 123.5 41z" horiz-adv-x="657" vert-adv-y="1000"/><glyph glyph-name="uni0412" unicode="В" d="M589 192q0-90-55.5-141T380 0H110v712h262q92 0 149-51t57-133q0-78-54-129-21-19-57-33 42-17 66-38 56-51 56-136M491.5 87.5l21.75 19.75Q535 127 535 194t-43.5 106.5Q448 340 374 340H164V48h210q74 0 117.5 39.5m-9 337l20.75 18.25Q524 461 524 526t-42 101.5Q440 664 366 664H164V388h202q75 0 116.5 36.5z" horiz-adv-x="671" vert-adv-y="1000"/><glyph glyph-name="uni0413" unicode="Г" d="M540 664H172V0h-54v712h422v-48z" horiz-adv-x="564" vert-adv-y="1000"/><glyph glyph-name="uni0414" unicode="Д" d="M640-180h-54V0H74v-180H20V48h65q50 78 71 173t21 231v260h378V48h85v-228M501 48v616H228V404q0-218-83-356h356z" horiz-adv-x="680" vert-adv-y="1000"/><glyph glyph-name="uni0415" unicode="Е" d="M542 0H110v712h432v-48H164V383h322v-48H164V48h378V0z" horiz-adv-x="598" vert-adv-y="1000"/><glyph glyph-name="uni0416" unicode="Ж" d="M536 372L886 0h-76L471 371l316 341h72L536 372M0 0l350 372L27 712h72l316-341L76 0H0m470 0h-54v712h54V0z" horiz-adv-x="886" vert-adv-y="1000"/><glyph glyph-name="uni0417" unicode="З" d="M538 192q0-90-66-144T306-6q-91 0-155 56T70 202h53q16-74 66.5-117T312 42q75 0 123.5 41T484 194q0 146-158 146h-89v48h92q68 0 105.5 37T472 531q0 66-43 102.5T313 670q-72 0-121.5-43T126 510H71q17 97 82 152.5T313 718q94 0 153.5-51T526 532q0-120-107-165 119-41 119-175z" horiz-adv-x="620" vert-adv-y="1000"/><glyph glyph-name="uni0418" unicode="И" d="M610 0h-54v624L164 0h-54v712h54V90l392 622h54V0z" horiz-adv-x="720" vert-adv-y="1000"/><glyph glyph-name="uni0419" unicode="Й" d="M500 880q-10-120-140-120T220 880h51q8-80 89-80t89 80h51M610 0h-54v624L164 0h-54v712h54V90l392 622h54V0z" horiz-adv-x="720" vert-adv-y="1000"/><glyph glyph-name="uni041A" unicode="К" d="M600 0h-76L170 371l331 341h72L235 372 600 0M115 0v712h54V0h-54z" horiz-adv-x="600" vert-adv-y="1000"/><glyph glyph-name="uni041B" unicode="Л" d="M570 0h-54v664H238V407q0-219-50.5-313T34 0H5v48h18q31 0 54 9t44 34.5q21 25.5 34.5 68t21.5 112q8 69.5 8 163.5v277h385V0z" horiz-adv-x="680" vert-adv-y="1000"/><glyph glyph-name="uni041C" unicode="М" d="M708 0h-54v587L438 100h-54L164 587V0h-54v712h54l248-549 242 549h54V0z" horiz-adv-x="818" vert-adv-y="1000"/><glyph glyph-name="uni041D" unicode="Н" d="M589 0h-54v335H164V0h-54v712h54V383h371v329h54V0z" horiz-adv-x="699" vert-adv-y="1000"/><glyph glyph-name="uni041E" unicode="О" d="M506.5 183.5l4.75 25.25Q516 234 516 356t-9.5 172.5Q497 579 461 615q-55 55-135 55t-135-55q-36-36-45.5-86.5T136 356q0-122 9.5-172.5T191 97q55-55 135-55t135 55q36 36 45.5 86.5m51.5 365l6-27.25Q570 494 570 356t-12-192.5Q546 109 499 62 431-6 326-6T153 62q-47 47-59 101.5T82 356q0 138 12 192.5T153 650q68 68 173 68t173-68q47-47 59-101.5z" horiz-adv-x="652" vert-adv-y="1000"/><glyph glyph-name="uni041F" unicode="П" d="M589 0h-54v664H164V0h-54v712h479V0z" horiz-adv-x="699" vert-adv-y="1000"/><glyph glyph-name="uni0420" unicode="Р" d="M526 657l30-27.5Q586 602 586 507t-60-150q-60-55-155-55H164V0h-54v712h261q95 0 155-55m-39-267.5l22.5 19.75Q532 429 532 507t-45 117.5Q442 664 365 664H164V350h201q77 0 122 39.5z" horiz-adv-x="631" vert-adv-y="1000"/><glyph glyph-name="uni0421" unicode="С" d="M568 202q-18-96-83-152T326-6Q221-6 153 62q-47 47-59 101.5T82 356q0 138 12 192.5T153 650q68 68 173 68 95 0 159.5-55.5T568 510h-55q-16 74-65.5 117T326 670q-80 0-135-55-36-36-45.5-86.5T136 356q0-122 9.5-172.5T191 97q55-55 135-55 72 0 122.5 43T515 202h53z" horiz-adv-x="644" vert-adv-y="1000"/><glyph glyph-name="uni0422" unicode="Т" d="M509 664H296V0h-54v664H30v48h479v-48z" horiz-adv-x="539" vert-adv-y="1000"/><glyph glyph-name="uni0423" unicode="У" d="M522 712L263 108Q217 0 129 0H75v48h42q39 0 60.5 18t40.5 62l31 74L12 712h58l207-449 187 449h58z" horiz-adv-x="534" vert-adv-y="1000"/><glyph glyph-name="uni0424" unicode="Ф" d="M633 594.5l35.5-35.75Q704 523 704 380t-71-214.5Q562 94 407 90V-3h-54v93q-155 4-226 75.5T56 380q0 143 71 214.5T353 670v65h54v-65q155-4 226-75.5M353 137v486q-134-2-188.5-63.5T110 380q0-118 54.5-179.5T353 137m242.5 63.5l27.25 30.75Q650 262 650 380t-54.5 179.5Q541 621 407 623V137q134 2 188.5 63.5z" horiz-adv-x="760" vert-adv-y="1000"/><glyph glyph-name="uni0425" unicode="Х" d="M514 0h-63L265 317 79 0H18l218 365L32 712h63l170-299 171 299h62L294 365 514 0z" horiz-adv-x="532" vert-adv-y="1000"/><glyph glyph-name="uni0426" unicode="Ц" d="M674-180h-54V0H110v712h54V48h371v664h54V48h85v-228z" horiz-adv-x="714" vert-adv-y="1000"/><glyph glyph-name="uni0427" unicode="Ч" d="M534 0h-54v300q-141-30-208-30-84 0-138 41.5T80 449v263h54V456q0-80 41-109t106-29q56 0 199 28v366h54V0z" horiz-adv-x="644" vert-adv-y="1000"/><glyph glyph-name="uni0428" unicode="Ш" d="M890 0H110v712h54V48h309v664h54V48h309v664h54V0z" horiz-adv-x="1000" vert-adv-y="1000"/><glyph glyph-name="uni0429" unicode="Щ" d="M975-180h-54V0H110v712h54V48h309v664h54V48h309v664h54V48h85v-228z" horiz-adv-x="1015" vert-adv-y="1000"/><glyph glyph-name="uni042A" unicode="Ъ" d="M626.5 354l29.25-28Q685 298 685 205T626.5 56Q568 0 470 0H207v664H30v48h231V410h209q98 0 156.5-56m-39-265l21.75 20.5Q631 130 631 205t-43.5 116Q544 362 464 362H261V48h203q80 0 123.5 41z" horiz-adv-x="728" vert-adv-y="1000"/><glyph glyph-name="uni042B" unicode="Ы" d="M529.5 354l29.25-28Q588 298 588 205T529.5 56Q471 0 373 0H110v712h54V410h209q98 0 156.5-56m-39-265l21.75 20.5Q534 130 534 205t-43.5 116Q447 362 367 362H164V48h203q80 0 123.5 41M744 0h-54v712h54V0z" horiz-adv-x="854" vert-adv-y="1000"/><glyph glyph-name="uni042C" unicode="Ь" d="M529.5 354l29.25-28Q588 298 588 205T529.5 56Q471 0 373 0H110v712h54V410h209q98 0 156.5-56m-39-265l21.75 20.5Q534 130 534 205t-43.5 116Q447 362 367 362H164V48h203q80 0 123.5 41z" horiz-adv-x="631" vert-adv-y="1000"/><glyph glyph-name="uni042D" unicode="Э" d="M550 548.5l6-27.25Q562 494 562 356t-12-192.5Q538 109 491 62 423-6 318-6q-94 0-159 56T76 202h53q16-74 66.5-117T318 42q80 0 135 55 35 34 45 82.5T508 335H222v48h286q0 103-10.5 150.5T453 615q-55 55-135 55-72 0-121.5-43T131 510H76q18 97 82.5 152.5T318 718q105 0 173-68 47-47 59-101.5z" horiz-adv-x="644" vert-adv-y="1000"/><glyph glyph-name="uni042E" unicode="Ю" d="M806 548.5l6-27.25Q818 494 818 356t-12-192.5Q794 109 747 62 679-6 574-6T401 62q-46 46-58.5 98.5T330 335H164V0h-54v712h54V383h166q0 118 12.5 169.5T401 650q68 68 173 68t173-68q47-47 59-101.5m-51.5-365l4.75 25.25Q764 234 764 356t-9.5 172.5Q745 579 709 615q-55 55-135 55t-135-55q-36-36-45.5-86.5T384 356q0-122 9.5-172.5T439 97q55-55 135-55t135 55q36 36 45.5 86.5z" horiz-adv-x="900" vert-adv-y="1000"/><glyph glyph-name="uni042F" unicode="Я" d="M547 0h-54v302H293L127 0H64l170 307q-75 14-119 67.5T71 507q0 93 58.5 149T286 712h261V0m-54 350v314H292q-80 0-123.5-41T125 507q0-75 43.5-116T292 350h201z" horiz-adv-x="657" vert-adv-y="1000"/><glyph glyph-name="uni0430" unicode="а" d="M431 0h-51v48q-30-30-62.5-42T233-6Q134-6 91 38q-35 37-35 94 0 66 44.5 102.5T224 271h156v54q0 59-32 88.5T244 443q-51 0-80.5-14T111 382l-37 32q30 41 69.5 57.5T244 488q187 0 187-158V0m-51 168v62H230q-123 0-123-97 0-48 30.5-71T233 39q82 0 120 37 27 26 27 92z" horiz-adv-x="524" vert-adv-y="1000"/><glyph glyph-name="uni0431" unicode="б" d="M461 241q0-136-59-195Q352-6 270-6q-72 0-121 39.5T85 142q-10 43-10 148 0 191 9 253t49 102q19 19 46.5 32.5t65 20.5q37.5 7 61 10t67.5 5.5q44 2.5 53 3.5v-49q-9-1-57-3.5t-75.5-5.5q-27.5-3-64-15T173 612q-31-31-40-77t-9-125q16 33 60 55t89 22q80 0 125-44 63-60 63-202m-51-5q0 67-9 104.5T368 402q-38 40-98 40-58 0-98-40-46-48-46-164 0-112 46-159 40-40 98-40 60 0 98 40 23 23 32.5 58.5T410 236z" horiz-adv-x="528" vert-adv-y="1000"/><glyph glyph-name="uni0432" unicode="в" d="M463 131q0-61-37.5-96T321 0H97v482h219q62 0 100.5-34t38.5-90q0-82-82-108 41-13 65.5-44t24.5-75m-78-63l13.5 12.5Q412 93 412 135t-27 67.5Q358 228 310 228H148V43h162q48 0 75 25m-7 224.5l13 11.25Q404 315 404 355t-26 62q-26 22-73 22H148V270h157q47 0 73 22.5z" horiz-adv-x="535" vert-adv-y="1000"/><glyph glyph-name="uni0433" unicode="г" d="M401 437H152V0h-51v482h300v-45z" horiz-adv-x="411" vert-adv-y="1000"/><glyph glyph-name="uni0434" unicode="д" d="M515-150h-51V0H76v-150H25V45h59q34 48 52 112.5T154 342v140h286V45h75v-195M389 45v392H203V329q0-198-61-284h247z" horiz-adv-x="551" vert-adv-y="1000"/><glyph glyph-name="uni0435" unicode="е" d="M455 230H120q0-93 40-141.5T277 40q42 0 72 13.5T410 98l38-30q-39-39-78-56.5T274-6Q174-6 121.5 57T69 241q0 117 51 182t142 65q91 0 142-62t51-173v-23m-51 41q-4 62-17 91-16 38-49.5 59.5T262 443q-42 0-75-21.5T137 362q-13-29-17-91h284z" horiz-adv-x="523" vert-adv-y="1000"/><glyph glyph-name="uni0436" unicode="ж" d="M376 249l225 233h66L442 253 690 0h-70L376 249M98 482l225-233L79 0H9l248 253L32 482h66M375 0h-51v482h51V0z" horiz-adv-x="699" vert-adv-y="1000"/><glyph glyph-name="uni0437" unicode="з" d="M405 133q0-62-53-100T223-5q-59 0-101.5 15.5T37 64l35 35q34-33 66.5-46T220 40q52 0 94 26t42 68q0 44-30.5 68T245 226h-69v43h71q45 0 72.5 23t27.5 65q0 41-32 63.5T228 443q-78 0-139-42l-30 36q73 51 169 51 74 0 121.5-34.5T397 358q0-38-21-67.5T316 249q41-11 65-42.5t24-73.5z" horiz-adv-x="477" vert-adv-y="1000"/><glyph glyph-name="uni0438" unicode="и" d="M476 0h-51v408L148 0H97v482h51V74l277 408h51V0z" horiz-adv-x="573" vert-adv-y="1000"/><glyph glyph-name="uni0439" unicode="й" d="M427 697q-10-120-140-120T147 697h51q8-80 89-80t89 80h51M476 0h-51v408L148 0H97v482h51V74l277 408h51V0z" horiz-adv-x="573" vert-adv-y="1000"/><glyph glyph-name="uni043A" unicode="к" d="M154 249l233 233h66L220 253 476 0h-70L154 249m-1 233V0h-51v482h51z" horiz-adv-x="485" vert-adv-y="1000"/><glyph glyph-name="uni043B" unicode="л" d="M145 482h291V0h-51v439H195V252q0-139-41-195.5T42 0H20v43h15q21 0 36.5 6.5t34 27.5q18.5 21 29 70T145 271v211z" horiz-adv-x="533" vert-adv-y="1000"/><glyph glyph-name="uni043C" unicode="м" d="M551 0h-51v378L349 68h-48L148 378V0H97v482h51l178-363 174 363h51V0z" horiz-adv-x="648" vert-adv-y="1000"/><glyph glyph-name="uni043D" unicode="н" d="M462 0h-51v227H148V0H97v482h51V272h263v210h51V0z" horiz-adv-x="559" vert-adv-y="1000"/><glyph glyph-name="uni043E" unicode="о" d="M397 435q60-60 60-194T397 47Q344-6 263-6T129 47q-60 60-60 194t60 194q53 53 134 53t134-53M363 80q43 43 43 161t-43 161q-41 41-100 41t-100-41q-43-43-43-161t43-161q41-41 100-41t100 41z" horiz-adv-x="526" vert-adv-y="1000"/><glyph glyph-name="uni043F" unicode="п" d="M462 0h-51v437H148V0H97v482h365V0z" horiz-adv-x="553" vert-adv-y="1000"/><glyph glyph-name="uni0440" unicode="р" d="M409 446q62-62 62-205T409 36Q367-6 291-6q-45 0-79 14.5T148 62v-292H97v712h51v-62q30 39 64 53.5t79 14.5q76 0 118-42m6-280l2.5 16q2.5 16 2.5 59t-5 75q-5 32-18.5 63t-42 47.5Q326 443 284 443t-70.5-16.5Q185 410 171.5 379T153 316q-5-32-5-75t5-75q5-32 18.5-63t42-47.5Q242 39 284 39t70.5 16.5Q383 72 396.5 103t18.5 63z" horiz-adv-x="540" vert-adv-y="1000"/><glyph glyph-name="uni0441" unicode="с" d="M440 68q-37-42-72.5-58T281-6q-99 0-155.5 66T69 241q0 115 56.5 181T281 488q51 0 86.5-16t72.5-58l-35-32q-31 34-58 47.5T281 443q-85 0-128-64-33-48-33-138t33-138q43-64 128-64 38 0 65.5 13.5T405 100l35-32z" horiz-adv-x="493" vert-adv-y="1000"/><glyph glyph-name="uni0442" unicode="т" d="M399 437H235V0h-51v437H10v45h389v-45z" horiz-adv-x="409" vert-adv-y="1000"/><glyph glyph-name="uni0443" unicode="у" d="M416 482L192-131q-14-40-33-56-32-31-91-31H44v45h19q40 0 57.5 14t30.5 52L190 0 14 482h56L215 60l145 422h56z" horiz-adv-x="430" vert-adv-y="1000"/><glyph glyph-name="uni0444" unicode="ф" d="M542.5 420l32.25-31.5Q607 357 607 241T542.5 62Q478-1 359-6v-224h-51V-6Q189-1 124.5 62T60 241q0 116 64.5 179T308 488v224h51V488q119-5 183.5-68M308 39v404q-96-3-146.5-57.5T111 241q0-90 50.5-144.5T308 39m197.5 57.5l25.25 27.25Q556 151 556 241t-50.5 144.5Q455 440 359 443V39q96 3 146.5 57.5z" horiz-adv-x="667" vert-adv-y="1000"/><glyph glyph-name="uni0445" unicode="х" d="M420 0h-62L231 203 102 0H40l163 246L47 482h62l122-194 120 194h62L257 246 420 0z" horiz-adv-x="460" vert-adv-y="1000"/><glyph glyph-name="uni0446" unicode="ц" d="M537-150h-51V0H97v482h51V43h263v439h51V43h75v-193z" horiz-adv-x="573" vert-adv-y="1000"/><glyph glyph-name="uni0447" unicode="ч" d="M433 0h-51v195q-100-21-160-21-143 0-143 140v168h51V319q0-97 101-97 65 0 151 18v242h51V0z" horiz-adv-x="530" vert-adv-y="1000"/><glyph glyph-name="uni0448" unicode="ш" d="M696 0H97v482h51V45h223v437h51V45h223v437h51V0z" horiz-adv-x="793" vert-adv-y="1000"/><glyph glyph-name="uni0449" unicode="щ" d="M771-150h-51V0H97v482h51V45h223v437h51V45h223v437h51V45h75v-195z" horiz-adv-x="807" vert-adv-y="1000"/><glyph glyph-name="uni044A" unicode="ъ" d="M462.5 245l20.25-19.5Q503 206 503 142T462.5 39Q422 0 354 0H142v439H10v43h183V284h161q68 0 108.5-39M346 45q106 0 106 97t-106 97H193V45h153z" horiz-adv-x="543" vert-adv-y="1000"/><glyph glyph-name="uni044B" unicode="ы" d="M407.5 245l20.25-19.5Q448 206 448 142T407.5 39Q367 0 299 0H97v482h51V284h151q68 0 108.5-39M291 45q106 0 106 97t-106 97H148V45h143M582 0h-51v482h51V0z" horiz-adv-x="679" vert-adv-y="1000"/><glyph glyph-name="uni044C" unicode="ь" d="M417.5 245l20.25-19.5Q458 206 458 142T417.5 39Q377 0 309 0H97v482h51V284h161q68 0 108.5-39M301 45q106 0 106 97t-106 97H148V45h153z" horiz-adv-x="498" vert-adv-y="1000"/><glyph glyph-name="uni044D" unicode="э" d="M367 422l28.5-33Q424 356 424 241T367 60Q310-6 209-6q-52 0-85 16.5T53 68l35 32q30-32 56.5-46.5T211 39q83 0 122.5 53.5T373 230H144v41h228q-4 77-45 124.5T210 443q-39 0-66-14.5T88 382l-35 32q39 41 72 57.5t84 16.5q101 0 158-66z" horiz-adv-x="493" vert-adv-y="1000"/><glyph glyph-name="uni044E" unicode="ю" d="M583 435q60-60 60-194T583 47Q530-6 449-6T315 47q-58 57-60 179H148V0H97v482h51V269h107q6 112 60 166 53 53 134 53t134-53M549 80q43 43 43 161t-43 161q-41 41-100 41t-100-41q-43-43-43-161t43-161q41-41 100-41t100 41z" horiz-adv-x="712" vert-adv-y="1000"/><glyph glyph-name="uni044F" unicode="я" d="M427 0h-51v196H241L127 0H67l118 198q-56 8-88.5 46.5T64 340q0 64 40.5 103T213 482h214V0m-51 239v200H223q-52 0-79.5-26T116 339q0-48 27.5-74t79.5-26h153z" horiz-adv-x="524" vert-adv-y="1000"/><glyph glyph-name="uni0450" unicode="ѐ" d="M455 230H120q0-93 40-141.5T277 40q42 0 72 13.5T410 98l38-30q-39-39-78-56.5T274-6Q174-6 121.5 57T69 241q0 117 51 182t142 65q91 0 142-62t51-173v-23m-51 41q-4 62-17 91-16 38-49.5 59.5T262 443q-42 0-75-21.5T137 362q-13-29-17-91h284m-93 319h-58L147 737h67l97-147z" horiz-adv-x="523" vert-adv-y="1000"/><glyph glyph-name="uni0451" unicode="ё" d="M455 230H120q0-93 40-141.5T277 40q42 0 72 13.5T410 98l38-30q-39-39-78-56.5T274-6Q174-6 121.5 57T69 241q0 117 51 182t142 65q91 0 142-62t51-173v-23m-51 41q-4 62-17 91-16 38-49.5 59.5T262 443q-42 0-75-21.5T137 362q-13-29-17-91h284M189 600h-58v77h58v-77m208 0h-58v77h58v-77z" horiz-adv-x="523" vert-adv-y="1000"/><glyph glyph-name="uni0452" unicode="ђ" d="M468-85q0-63-35-104t-101-41h-44v45h35q43 0 68.5 28.5T417-84v383q0 144-128 144-65 0-103-38t-38-106V0H97v564H36v38h61v110h51V602h254v-38H148V425q60 63 148 63 81 0 126.5-48T468 308V-85z" horiz-adv-x="559" vert-adv-y="1000"/><glyph glyph-name="uni0453" unicode="ѓ" d="M401 437H152V0h-51v482h300v-45m-53 300L242 590h-58l97 147h67z" horiz-adv-x="411" vert-adv-y="1000"/><glyph glyph-name="uni0454" unicode="є" d="M440 68q-38-41-71-57.5T284-6Q183-6 126 60T69 241q0 115 57 181t158 66q51 0 84-16.5t72-57.5l-35-32q-29 32-56 46.5T283 443q-76 0-117-47.5T121 271h228v-41H120q0-84 39.5-137.5T282 39q40 0 66.5 14.5T405 100l35-32z" horiz-adv-x="493" vert-adv-y="1000"/><glyph glyph-name="uni0455" unicode="ѕ" d="M438 137q0-66-52-104.5T245-6Q122-6 50 63l35 35q56-59 158-59 145 0 145 98 0 38-22 57t-70 24l-80 7Q71 237 71 351q0 63 47 100t126 37q100 0 169-51l-34-34q-56 41-135 41-60 0-91.5-24T121 351q0-38 23.5-57t74.5-24l78-7q68-7 104.5-34t36.5-92z" horiz-adv-x="494" vert-adv-y="1000"/><glyph glyph-name="uni0456" unicode="і" d="M148 0H97v482h51V0m6 649H91v63h63v-63z" horiz-adv-x="245" vert-adv-y="1000"/><glyph glyph-name="uni0457" unicode="ї" d="M148 0H97v482h51V0M48 600h-58v77h58v-77m208 0h-58v77h58v-77z" horiz-adv-x="245" vert-adv-y="1000"/><glyph glyph-name="uni0458" unicode="ј" d="M148-105q0-59-29-92t-87-33h-44v45h35q41 0 57.5 19T97-104v586h51v-587m6 754H91v63h63v-63z" horiz-adv-x="245" vert-adv-y="1000"/><glyph glyph-name="uni0459" unicode="љ" d="M716.5 245l20.25-19.5Q757 206 757 142T716.5 39Q676 0 608 0H396v439H195V252q0-139-41-195.5T42 0H20v43h15q21 0 36.5 6.5t34 27.5q18.5 21 29 70T145 271v211h302V284h161q68 0 108.5-39M679 68.5l13.5 12.75Q706 94 706 142t-27.5 73.5Q651 241 600 241H447V43h153q52 0 79 25.5z" horiz-adv-x="797" vert-adv-y="1000"/><glyph glyph-name="uni045A" unicode="њ" d="M731.5 245l20.25-19.5Q772 206 772 142T731.5 39Q691 0 623 0H411v241H148V0H97v482h51V284h263v198h51V284h161q68 0 108.5-39M694 68.5l13.5 12.75Q721 94 721 142t-27.5 73.5Q666 241 615 241H462V43h153q52 0 79 25.5z" horiz-adv-x="812" vert-adv-y="1000"/><glyph glyph-name="uni045B" unicode="ћ" d="M468 0h-51v299q0 70-34.5 107T284 443q-64 0-100-38t-36-106V0H97v564H36v38h61v110h51V602h254v-38H148V425q32 34 64.5 48.5T291 488q82 0 129.5-48.5T468 308V0z" horiz-adv-x="559" vert-adv-y="1000"/><glyph glyph-name="uni045C" unicode="ќ" d="M154 249l233 233h66L220 253 476 0h-70L154 249m-1 233V0h-51v482h51m221 255L268 590h-58l97 147h67z" horiz-adv-x="485" vert-adv-y="1000"/><glyph glyph-name="uni045D" unicode="ѝ" d="M476 0h-51v408L148 0H97v482h51V74l277 408h51V0M317 590h-58L153 737h67l97-147z" horiz-adv-x="573" vert-adv-y="1000"/><glyph glyph-name="uni045E" unicode="ў" d="M416 482L192-131q-14-40-33-56-32-31-91-31H44v45h19q40 0 57.5 14t30.5 52L190 0 14 482h56L215 60l145 422h56m-61 215q-10-120-140-120T75 697h51q8-80 89-80t89 80h51z" horiz-adv-x="430" vert-adv-y="1000"/><glyph glyph-name="uni045F" unicode="џ" d="M462 0H305v-150h-51V0H97v482h51V43h263v439h51V0z" horiz-adv-x="559" vert-adv-y="1000"/><glyph glyph-name="uni0462" unicode="Ѣ" d="M540.5 354l29.25-28Q599 298 599 205T540.5 56Q482 0 384 0H121v559H40v42h81v111h54V601h178v-42H175V410h209q98 0 156.5-56m-39-265l21.75 20.5Q545 130 545 205t-43.5 116Q458 362 378 362H175V48h203q80 0 123.5 41z" horiz-adv-x="642" vert-adv-y="1000"/><glyph glyph-name="uni0463" unicode="ѣ" d="M417.5 245l20.25-19.5Q458 206 458 142T417.5 39Q377 0 309 0H97v390H32v36h65v56h51v-56h136v-36H148V284h161q68 0 108.5-39M380 68.5l13.5 12.75Q407 94 407 142t-27.5 73.5Q352 241 301 241H148V43h153q52 0 79 25.5z" horiz-adv-x="498" vert-adv-y="1000"/><glyph glyph-name="uni0472" unicode="Ѳ" d="M558 548.5l6-27.25Q570 494 570 356t-12-192.5Q546 109 499 62 431-6 326-6T153 62q-47 47-59 101.5T82 356q0 138 12 192.5T153 650q68 68 173 68t173-68q47-47 59-101.5M516 335H136q0-107 10-155.5T191 97q55-55 135-55t135 55q34 34 44 82t11 156m0 48q-1 104-11 151t-44 81q-55 55-135 55t-135-55q-34-34-44.5-81.5T136 383h380z" horiz-adv-x="652" vert-adv-y="1000"/><glyph glyph-name="uni0473" unicode="ѳ" d="M397 435q60-60 60-194T397 47Q344-6 263-6T129 47q-60 60-60 194t60 194q53 53 134 53t134-53M263 39h29.5Q322 39 363 80t43 150H120q0-108 43-150 41-41 100-41M163 402q-39-39-43-131h285q-2 91-42 131-41 41-100 41t-100-41z" horiz-adv-x="526" vert-adv-y="1000"/><glyph glyph-name="uni0474" unicode="Ѵ" d="M620 664h-37q-74 0-101-80L290 0h-46L10 712h57L267 95l165 509q16 50 50.5 79t83.5 29h54v-48z" horiz-adv-x="534" vert-adv-y="1000"/><glyph glyph-name="uni0475" unicode="ѵ" d="M478 439h-19q-36 0-52.5-13T376 373L240 0h-50L14 482h56L215 60l115 335q13 37 33 56 34 31 91 31h24v-43z" horiz-adv-x="430" vert-adv-y="1000"/><glyph glyph-name="uni0490" unicode="Ґ" d="M540 664H172V0h-54v712h368v170h54V664z" horiz-adv-x="564" vert-adv-y="1000"/><glyph glyph-name="uni0491" unicode="ґ" d="M401 439H152V0h-51v482h249v160h51V439z" horiz-adv-x="411" vert-adv-y="1000"/><glyph glyph-name="uni0492" unicode="Ғ" d="M534 664H166V380h178v-42H166V0h-54v338H31v42h81v332h422v-48z" horiz-adv-x="558" vert-adv-y="1000"/><glyph glyph-name="uni0493" unicode="ғ" d="M387 439H138V282h136v-36H138V0H87v246H22v36h65v200h300v-43z" horiz-adv-x="397" vert-adv-y="1000"/><glyph glyph-name="uni0496" unicode="Җ" d="M886-180h-54V0h-22L471 371l316 341h72L536 372 841 48h45v-228M0 0l350 372L27 712h72l316-341L76 0H0m470 0h-54v712h54V0z" horiz-adv-x="886" vert-adv-y="1000"/><glyph glyph-name="uni0497" unicode="җ" d="M690-150h-51V0h-19L376 249l225 233h66L442 253 646 45h44v-195M98 482l225-233L79 0H9l248 253L32 482h66M375 0h-51v482h51V0z" horiz-adv-x="699" vert-adv-y="1000"/><glyph glyph-name="uni049A" unicode="Қ" d="M600-180h-54V0h-22L170 371l331 341h72L235 372 553 48h47v-228M115 0v712h54V0h-54z" horiz-adv-x="600" vert-adv-y="1000"/><glyph glyph-name="uni049B" unicode="қ" d="M476-150h-51V0h-19L154 249l233 233h66L220 253 430 45h46v-195M153 482V0h-51v482h51z" horiz-adv-x="485" vert-adv-y="1000"/><glyph glyph-name="uni049C" unicode="Ҝ" d="M211 184v161h-42V0h-54v712h54V393h42v161h53V393h27l252 319h72L337 372 642 0h-76L294 345h-30V184h-53z" horiz-adv-x="642" vert-adv-y="1000"/><glyph glyph-name="uni049D" unicode="ҝ" d="M193 94v134h-40V0h-51v482h51V271h40v134h50V271h25l164 211h66L315 253 521 0h-70L267 228h-24V94h-50z" horiz-adv-x="530" vert-adv-y="1000"/><glyph glyph-name="uni04A2" unicode="Ң" d="M616-180h-54V0h-27v335H164V0h-54v712h54V383h371v329h54V48h27v-228z" horiz-adv-x="699" vert-adv-y="1000"/><glyph glyph-name="uni04A3" unicode="ң" d="M487-150h-51V0h-25v227H148V0H97v482h51V272h263v210h51V45h25v-195z" horiz-adv-x="559" vert-adv-y="1000"/><glyph glyph-name="uni04AE" unicode="Ү" d="M484 712L274 295V0h-54v295L10 712h58l181-360 177 360h58z" horiz-adv-x="494" vert-adv-y="1000"/><glyph glyph-name="uni04AF" unicode="ү" d="M416 482L241 0v-230h-51V0L14 482h56L215 60l145 422h56z" horiz-adv-x="430" vert-adv-y="1000"/><glyph glyph-name="uni04B0" unicode="Ұ" d="M484 712L274 295h129v-42H274V0h-54v253H91v42h129L10 712h58l181-360 177 360h58z" horiz-adv-x="494" vert-adv-y="1000"/><glyph glyph-name="uni04B1" unicode="ұ" d="M416 482L241 0h95v-36h-95v-194h-51v194H95V0h95L14 482h56L215 60l145 422h56z" horiz-adv-x="430" vert-adv-y="1000"/><glyph glyph-name="uni04B2" unicode="Ҳ" d="M514-180h-54V0h-9L265 317 79 0H18l218 365L32 712h63l170-299 171 299h62L294 365 485 48h29v-228z" horiz-adv-x="532" vert-adv-y="1000"/><glyph glyph-name="uni04B3" unicode="ҳ" d="M420-150h-51V0h-11L231 203 102 0H40l163 246L47 482h62l122-194 120 194h62L257 246 390 45h30v-195z" horiz-adv-x="460" vert-adv-y="1000"/><glyph glyph-name="uni04B6" unicode="Ҷ" d="M561-180h-54V0h-27v300q-141-30-208-30-84 0-138 41.5T80 449v263h54V456q0-80 41-109t106-29q56 0 199 28v366h54V48h27v-228z" horiz-adv-x="644" vert-adv-y="1000"/><glyph glyph-name="uni04B7" unicode="ҷ" d="M458-150h-51V0h-25v195q-100-21-160-21-143 0-143 140v168h51V319q0-97 101-97 65 0 151 18v242h51V45h25v-195z" horiz-adv-x="530" vert-adv-y="1000"/><glyph glyph-name="uni04B8" unicode="Ҹ" d="M281 107v163h-9q-84 0-138 41.5T80 449v263h54V456q0-80 41-109t106-29v162h53V321q38 5 146 25v366h54V0h-54v300q-84-18-146-26V107h-53z" horiz-adv-x="644" vert-adv-y="1000"/><glyph glyph-name="uni04B9" unicode="ҹ" d="M231 42v132h-9Q79 174 79 314v168h51V319q0-97 101-97v132h50V224q45 4 101 16v242h51V0h-51v195q-47-11-101-17V42h-50z" horiz-adv-x="530" vert-adv-y="1000"/><glyph glyph-name="uni04BA" unicode="Һ" d="M564 0h-54v256q0 80-41 109t-106 29q-56 0-199-28V0h-54v712h54V412q141 30 208 30 84 0 138-41.5T564 263V0z" horiz-adv-x="644" vert-adv-y="1000"/><glyph glyph-name="uni04BB" unicode="һ" d="M451 0h-51v163q0 97-101 97-65 0-151-18V0H97v482h51V287q100 21 160 21 143 0 143-140V0z" horiz-adv-x="530" vert-adv-y="1000"/><glyph glyph-name="uni04C0" unicode="Ӏ" d="M164 0h-54v712h54V0z" horiz-adv-x="274" vert-adv-y="1000"/><glyph glyph-name="uni04CF" unicode="ӏ" d="M146 0H95v712h51V0z" horiz-adv-x="241" vert-adv-y="1000"/><glyph glyph-name="uni04D8" unicode="Ә" d="M557 548.5l6-27.25Q569 494 569 356t-12-192.5Q545 109 498 62 430-6 325-6 212-6 138 76q-58 65-58 172v116h435q0 116-9.5 165.5T460 615q-55 55-135 55-72 0-122.5-43T136 510H82q16 94 83 151t160 57q105 0 173-68 47-47 59-101.5M515 316H134v-64q0-87 43-141 57-69 148-69 80 0 135 55 33 33 43.5 78.5T515 316z" horiz-adv-x="651" vert-adv-y="1000"/><glyph glyph-name="uni04D9" unicode="ә" d="M403 252q0 93-40 141.5T246 442q-42 0-72-13.5T113 384l-38 30q39 39 78 56.5t96 17.5q100 0 152.5-63T454 241q0-117-51-182T261-6q-91 0-142 62T68 229v23h335m0-41H119q4-62 17-91 16-38 49.5-59.5T261 39q42 0 75.5 21.5T386 120q13 33 17 91z" horiz-adv-x="523" vert-adv-y="1000"/><glyph glyph-name="uni04E2" unicode="Ӣ" d="M610 0h-54v624L164 0h-54v712h54V90l392 622h54V0M508 800H212v46h296v-46z" horiz-adv-x="720" vert-adv-y="1000"/><glyph glyph-name="uni04E3" unicode="ӣ" d="M476 0h-51v408L148 0H97v482h51V74l277 408h51V0m-42 610H138v46h296v-46z" horiz-adv-x="573" vert-adv-y="1000"/><glyph glyph-name="uni04E8" unicode="Ө" d="M558 548.5l6-27.25Q570 494 570 356t-12-192.5Q546 109 499 62 431-6 326-6T153 62q-47 47-59 101.5T82 356q0 138 12 192.5T153 650q68 68 173 68t173-68q47-47 59-101.5M516 335H136q0-107 10-155.5T191 97q55-55 135-55t135 55q34 34 44 82t11 156m0 48q-1 104-11 151t-44 81q-55 55-135 55t-135-55q-34-34-44.5-81.5T136 383h380z" horiz-adv-x="652" vert-adv-y="1000"/><glyph glyph-name="uni04E9" unicode="ө" d="M397 435q60-60 60-194T397 47Q344-6 263-6T129 47q-60 60-60 194t60 194q53 53 134 53t134-53M263 39h29.5Q322 39 363 80t43 150H120q0-108 43-150 41-41 100-41M163 402q-39-39-43-131h285q-2 91-42 131-41 41-100 41t-100-41z" horiz-adv-x="526" vert-adv-y="1000"/><glyph glyph-name="uni04EE" unicode="Ӯ" d="M522 712L263 108Q217 0 129 0H75v48h42q39 0 60.5 18t40.5 62l31 74L12 712h58l207-449 187 449h58m-97 88H129v46h296v-46z" horiz-adv-x="534" vert-adv-y="1000"/><glyph glyph-name="uni04EF" unicode="ӯ" d="M363 610H67v46h296v-46m53-128L192-131q-14-40-33-56-32-31-91-31H44v45h19q40 0 57.5 14t30.5 52L190 0 14 482h56L215 60l145 422h56z" horiz-adv-x="430" vert-adv-y="1000"/><glyph glyph-name="uni1E80" unicode="Ẁ" d="M822 712L644 0h-55L421 620 253 0h-55L20 712h57L227 93l166 619h56L615 93l150 619h57m-375 68h-58L283 927h67l97-147z" horiz-adv-x="842" vert-adv-y="1000"/><glyph glyph-name="uni1E81" unicode="ẁ" d="M698 482L544 0h-52L356 402 220 0h-52L14 482h56L193 60l138 422h50L519 60l123 422h56M387 590h-58L223 737h67l97-147z" horiz-adv-x="712" vert-adv-y="1000"/><glyph glyph-name="uni1E82" unicode="Ẃ" d="M822 712L644 0h-55L421 620 253 0h-55L20 712h57L227 93l166 619h56L615 93l150 619h57M558 927L452 780h-58l97 147h67z" horiz-adv-x="842" vert-adv-y="1000"/><glyph glyph-name="uni1E83" unicode="ẃ" d="M698 482L544 0h-52L356 402 220 0h-52L14 482h56L193 60l138 422h50L519 60l123 422h56M490 737L384 590h-58l97 147h67z" horiz-adv-x="712" vert-adv-y="1000"/><glyph glyph-name="uni1E84" unicode="Ẅ" d="M822 712L644 0h-55L421 620 253 0h-55L20 712h57L227 93l166 619h56L615 93l150 619h57m-477 78h-58v77h58v-77m208 0h-58v77h58v-77z" horiz-adv-x="842" vert-adv-y="1000"/><glyph glyph-name="uni1E85" unicode="ẅ" d="M698 482L544 0h-52L356 402 220 0h-52L14 482h56L193 60l138 422h50L519 60l123 422h56M281 600h-58v77h58v-77m208 0h-58v77h58v-77z" horiz-adv-x="712" vert-adv-y="1000"/><glyph glyph-name="uni1E8A" unicode="Ẋ" d="M514 0h-63L265 317 79 0H18l218 365L32 712h63l170-299 171 299h62L294 365 514 0M296 800h-62v63h62v-63z" horiz-adv-x="532" vert-adv-y="1000"/><glyph glyph-name="uni1E8B" unicode="ẋ" d="M420 0h-62L231 203 102 0H40l163 246L47 482h62l122-194 120 194h62L257 246 420 0M262 610h-62v63h62v-63z" horiz-adv-x="460" vert-adv-y="1000"/><glyph glyph-name="uni1EF2" unicode="Ỳ" d="M484 712L274 295V0h-54v295L10 712h58l181-360 177 360h58m-201 68h-58L119 927h67l97-147z" horiz-adv-x="494" vert-adv-y="1000"/><glyph glyph-name="uni1EF3" unicode="ỳ" d="M416 482L192-131q-14-40-33-56-32-31-91-31H44v45h19q40 0 57.5 14t30.5 52L190 0 14 482h56L215 60l145 422h56M237 590h-58L73 737h67l97-147z" horiz-adv-x="430" vert-adv-y="1000"/><glyph glyph-name="uni2013" unicode="–" d="M461 240H53v47h408v-47z" horiz-adv-x="514" vert-adv-y="1000"/><glyph glyph-name="uni2014" unicode="—" d="M791 240H82v47h709v-47z" horiz-adv-x="873" vert-adv-y="1000"/><glyph glyph-name="uni2015" unicode="―" d="M791 240H82v47h709v-47z" horiz-adv-x="873" vert-adv-y="1000"/><glyph glyph-name="uni2018" unicode="‘" d="M165 642H95v70l70 70V642z" horiz-adv-x="260" vert-adv-y="1000"/><glyph glyph-name="uni2019" unicode="’" d="M165 642l-70-70v140h70v-70z" horiz-adv-x="260" vert-adv-y="1000"/><glyph glyph-name="uni201A" unicode="‚" d="M165 0L95-70V70h70V0z" horiz-adv-x="260" vert-adv-y="1000"/><glyph glyph-name="uni201C" unicode="“" d="M165 642H95v70l70 70V642m156 0h-70v70l70 70V642z" horiz-adv-x="416" vert-adv-y="1000"/><glyph glyph-name="uni201D" unicode="”" d="M165 642l-70-70v140h70v-70m156 0l-70-70v140h70v-70z" horiz-adv-x="416" vert-adv-y="1000"/><glyph glyph-name="uni201E" unicode="„" d="M165 0L95-70V70h70V0m156 0l-70-70V70h70V0z" horiz-adv-x="416" vert-adv-y="1000"/><glyph glyph-name="uni2020" unicode="†" d="M534 457H331V0h-51v457H80v45h200v210h51V502h203v-45z" horiz-adv-x="614" vert-adv-y="1000"/><glyph glyph-name="uni2021" unicode="‡" d="M534-20H331v-210h-51v210H80v45h200v432H80v45h200v210h51V502h203v-45H331V25h203v-45z" horiz-adv-x="614" vert-adv-y="1000"/><glyph glyph-name="uni2022" unicode="•" d="M388 449.5l24-23.75Q436 402 436 334t-48-115.5Q340 171 273 171t-115 47.5Q110 266 110 334t48 115.5Q206 497 273 497t115-47.5z" horiz-adv-x="546" vert-adv-y="1000"/><glyph glyph-name="uni2026" unicode="…" d="M95 0v74h74V0H95m230 0v74h74V0h-74m230 0v74h74V0h-74z" horiz-adv-x="724" vert-adv-y="1000"/><glyph glyph-name="uni2030" unicode="‰" d="M288 480v103q0 98-87 98-88 0-88-98V480q0-97 88-97 87 0 87 97m44-2q0-60-36-96.5T201 345q-59 0-95.5 36.5T69 478v107q0 60 36.5 97t95.5 37q59 0 95-37t36-97V478M271 0h-45l332 712h45L271 0m444 128v103q0 98-87 98-88 0-88-98V128q0-97 88-97 87 0 87 97m44-2q0-60-36-96.5T628-7q-59 0-95.5 36.5T496 126v107q0 60 36.5 97t95.5 37q59 0 95-37t36-97V126m296 2v103q0 98-87 98-88 0-88-98V128q0-97 88-97 87 0 87 97m44-2q0-60-36-96.5T968-7q-59 0-95.5 36.5T836 126v107q0 60 36.5 97t95.5 37q59 0 95-37t36-97V126z" horiz-adv-x="1168" vert-adv-y="1000"/><glyph glyph-name="uni2039" unicode="‹" d="M238 69L42 265l196 196v-66L108 265l130-130V69z" horiz-adv-x="320" vert-adv-y="1000"/><glyph glyph-name="uni203A" unicode="›" d="M278 265L82 69v66l130 130L82 395v66l196-196z" horiz-adv-x="320" vert-adv-y="1000"/><glyph glyph-name="uni2044" unicode="⁄" d="M277 712L-55 0h-45l332 712h45z" horiz-adv-x="177" vert-adv-y="1000"/><glyph glyph-name="uni2070" unicode="⁰" d="M274 399q0-53-33-85.5T157 281q-51 0-84 32.5T40 399v199q0 53 33 85.5t84 32.5q51 0 84-32.5t33-85.5V399m-44 2v195q0 36-19.5 58.5T157 677q-34 0-53.5-22.5T84 596V401q0-36 19-58t54-22q34 0 53.5 22t19.5 58z" horiz-adv-x="313" vert-adv-y="1000"/><glyph glyph-name="uni2074" unicode="⁴" d="M290 352h-52v-67h-44v67H24v40l154 320h47L72 392h122v120h44V392h52v-40z" horiz-adv-x="313" vert-adv-y="1000"/><glyph glyph-name="uni2075" unicode="⁵" d="M278 426q0-79-34-113-32-32-86-32-56 0-86 30-27 27-30 75h44q8-65 72-65 34 0 53 19 23 23 23 86 0 103-72 103-57 0-70-42H52v225h216v-40H92V539q25 28 76 28 48 0 74-26 36-37 36-115z" horiz-adv-x="313" vert-adv-y="1000"/><glyph glyph-name="uni2076" unicode="⁶" d="M276 408q0-56-32-91.5T158 281q-54 0-86.5 34T39 405q0 40 26 95l105 212h46l-95-191q17 8 44 8 49 0 80-34t31-87m-44-2q0 37-20 61.5T157 492q-34 0-54-23t-20-63q0-39 20-62t54-23q34 0 54.5 23t20.5 62z" horiz-adv-x="313" vert-adv-y="1000"/><glyph glyph-name="uni2077" unicode="⁷" d="M283 673L135 285H91l148 387H88v-71H45v111h238v-39z" horiz-adv-x="313" vert-adv-y="1000"/><glyph glyph-name="uni2078" unicode="⁸" d="M283 403q0-54-36-88t-90-34q-54 0-90 34t-36 88q0 68 64 104-56 31-56 94 0 50 33.5 82.5T157 716q51 0 84.5-32.5T275 601q0-64-56-94 64-36 64-104m-67.5-58.5l11.75 11.75Q239 368 239 403t-23.5 59Q192 486 157 486t-58.5-24Q75 438 75 403t23.5-58.5Q122 321 157 321t58.5 23.5m-5 202l10.25 10.75Q231 568 231 601t-20.5 54Q190 676 157 676t-53.5-21Q83 634 83 601t20.5-54.5Q124 525 157 525t53.5 21.5z" horiz-adv-x="313" vert-adv-y="1000"/><glyph glyph-name="uni2079" unicode="⁹" d="M275 592q0-40-27-94L143 285H97l96 191q-21-8-45-8-50 0-80.5 34T37 589q0 56 32.5 91.5T156 716q54 0 86.5-34t32.5-90m-64.5-63.5l10.25 11.75Q231 552 231 591t-20.5 62Q190 676 156 676t-54.5-23Q81 630 81 591q0-37 20-61.5t55-24.5q34 0 54.5 23.5z" horiz-adv-x="313" vert-adv-y="1000"/><glyph glyph-name="uni2080" unicode="₀" d="M274-36q0-53-33-85.5T157-154q-51 0-84 32.5T40-36v199q0 53 33 85.5t84 32.5q51 0 84-32.5t33-85.5V-36m-44 2v195q0 36-19.5 58.5T157 242q-34 0-53.5-22.5T84 161V-34q0-36 19-58t54-22q34 0 53.5 22T230-34z" horiz-adv-x="313" vert-adv-y="1000"/><glyph glyph-name="uni2081" unicode="₁" d="M196-150h-44v378l-80-71v51l80 69h44v-427z" horiz-adv-x="313" vert-adv-y="1000"/><glyph glyph-name="uni2082" unicode="₂" d="M280-150H44v40l168 213q23 31 23 62 0 36-19 56t-54 20q-32 0-53-18.5T88 165H44q0 51 32 83.5t86 32.5q54 0 86-31t32-85q0-43-34-87L97-110h183v-40z" horiz-adv-x="313" vert-adv-y="1000"/><glyph glyph-name="uni2083" unicode="₃" d="M287-32q0-57-35-89.5T162-154q-54 0-89.5 29.5T35-40h45q2-37 25-55.5t57-18.5q35 0 58 22.5T243-32q0 81-84 81h-8v39h8q37 0 56.5 20t19.5 56q0 36-21.5 56.5T161 241q-33 0-53-18.5T85 171H41q4 51 37 80.5t83 29.5q53 0 85.5-31.5T279 165q0-69-57-94 65-24 65-103z" horiz-adv-x="313" vert-adv-y="1000"/><glyph glyph-name="uni2084" unicode="₄" d="M290-83h-52v-67h-44v67H24v40l154 320h47L72-43h122V77h44V-43h52v-40z" horiz-adv-x="313" vert-adv-y="1000"/><glyph glyph-name="uni2085" unicode="₅" d="M278-9q0-79-34-113-32-32-86-32-56 0-86 30-27 27-30 75h44q8-65 72-65 34 0 53 19 23 23 23 86 0 103-72 103-57 0-70-42H52v225h216v-40H92V104q25 28 76 28 48 0 74-26 36-37 36-115z" horiz-adv-x="313" vert-adv-y="1000"/><glyph glyph-name="uni2086" unicode="₆" d="M276-27q0-56-32-91.5T158-154q-54 0-86.5 34T39-30q0 40 26 95l105 212h46L121 86q17 8 44 8 49 0 80-34t31-87m-44-2q0 37-20 61.5T157 57q-34 0-54-23T83-29q0-39 20-62t54-23q34 0 54.5 23T232-29z" horiz-adv-x="313" vert-adv-y="1000"/><glyph glyph-name="uni2087" unicode="₇" d="M283 238L135-150H91l148 387H88v-71H45v111h238v-39z" horiz-adv-x="313" vert-adv-y="1000"/><glyph glyph-name="uni2088" unicode="₈" d="M283-32q0-54-36-88t-90-34q-54 0-90 34T31-32q0 68 64 104-56 31-56 94 0 50 33.5 82.5T157 281q51 0 84.5-32.5T275 166q0-64-56-94 64-36 64-104m-67.5-58.5l11.75 11.75Q239-67 239-32t-23.5 59Q192 51 157 51T98.5 27Q75 3 75-32t23.5-58.5Q122-114 157-114t58.5 23.5m-5 202l10.25 10.75Q231 133 231 166t-20.5 54Q190 241 157 241t-53.5-21Q83 199 83 166t20.5-54.5Q124 90 157 90t53.5 21.5z" horiz-adv-x="313" vert-adv-y="1000"/><glyph glyph-name="uni2089" unicode="₉" d="M275 157q0-40-27-94L143-150H97l96 191q-21-8-45-8-50 0-80.5 34T37 154q0 56 32.5 91.5T156 281q54 0 86.5-34t32.5-90m-44-1q0 39-20.5 62T156 241q-34 0-54.5-23T81 156q0-37 20-61.5T156 70q34 0 54.5 23t20.5 63z" horiz-adv-x="313" vert-adv-y="1000"/><glyph glyph-name="uni20AC" unicode="€" d="M600 202q-18-96-83-152T358-6Q253-6 185 62q-39 39-53.5 82T115 268H50v38h64v106H50v38h65q2 77 16.5 119t53.5 81q68 68 173 68 95 0 159.5-55.5T600 510h-55q-16 74-65.5 117T358 670q-80 0-135-55-28-28-39.5-64T169 450h244v-38H168V306h245v-38H169q2-68 13.5-105.5T223 97q55-55 135-55 72 0 122.5 43T547 202h53z" horiz-adv-x="676" vert-adv-y="1000"/><glyph glyph-name="uni20B4" unicode="₴" d="M601 412h-77q-9-12-21-21-45-39-127-51l-83-13q-58-9-80-21h388v-38H171q-20-30-20-79 0-69 49-108t134-39q65 0 110 18.5t92 65.5l38-38q-50-50-104.5-72T337-6Q226-6 161.5 47.5T97 191q0 43 15 77H50v38h86q10 12 22 22 25 21 51.5 31.5T285 377l83 13q42 7 72 22H50v38h437q19 28 19 75 0 69-43.5 108T341 672q-104 0-173-66l-35 35q47 41 94 59t111 18q102 0 161.5-52.5T559 523q0-39-13-73h55v-38z" horiz-adv-x="651" vert-adv-y="1000"/><glyph glyph-name="uni2116" unicode="№" d="M548 0h-51L136 616V0H85v712h51L497 98v614h51V0m261 435q25 25 25 107t-25 107q-24 24-60 24t-60-24q-25-25-25-107t25-107q24-24 60-24t60 24m31 246q41-41 41-139t-41-139q-35-35-91-35t-91 35q-41 41-41 139t41 139q35 35 91 35t91-35m39-396H617v44h262v-44z" horiz-adv-x="940" vert-adv-y="1000"/><glyph glyph-name="uni2122" unicode="™" d="M753 285h-44v328L599 395h-46L443 613V285h-44v427h44l133-270 133 270h44V285M320 671H198V285h-44v386H32v41h288v-41z" horiz-adv-x="809" vert-adv-y="1000"/><glyph glyph-name="uni2126" unicode="Ω" d="M570 356q0-101-5-152t-24-86q-20-38-62-71h91V0H384v47q73 35 105 88 17 28 22 78t5 143q0 122-9.5 172.5T461 615q-55 55-135 55t-135-55q-36-36-45.5-86.5T136 356q0-93 5-143t22-78q32-53 105-88V0H82v47h91q-42 33-62 71-19 35-24 86t-5 152q0 138 12 192.5T153 650q68 68 173 68t173-68q47-47 59-101.5T570 356z" horiz-adv-x="652" vert-adv-y="1000"/><glyph glyph-name="uni2150" unicode="⅐" d="M196 285h-44v378l-80-71v51l80 69h44V285m394 427L258 0h-45l332 712h45m183-324L625 0h-44l148 387H578v-71h-43v111h238v-39z" horiz-adv-x="803" vert-adv-y="1000"/><glyph glyph-name="uni2151" unicode="⅑" d="M196 285h-44v378l-80-71v51l80 69h44V285m394 427L258 0h-45l332 712h45m175-405q0-40-27-94L633 0h-46l96 191q-21-8-45-8-50 0-80.5 34T527 304q0 56 32.5 91.5T646 431q54 0 86.5-34t32.5-90m-44-1q0 39-20.5 62T646 391q-34 0-54.5-23T571 306q0-37 20-61.5t55-24.5q34 0 54.5 23t20.5 63z" horiz-adv-x="803" vert-adv-y="1000"/><glyph glyph-name="uni2152" unicode="⅒" d="M196 285h-44v378l-80-71v51l80 69h44V285m394 427L258 0h-45l332 712h45M686 0h-44v378l-80-71v51l80 69h44V0m391 114q0-53-33-85.5T960-4q-51 0-84 32.5T843 114v199q0 53 33 85.5t84 32.5q51 0 84-32.5t33-85.5V114m-44 2v195q0 36-19.5 58.5T960 392q-34 0-53.5-22.5T887 311V116q0-36 19-58t54-22q34 0 53.5 22t19.5 58z" horiz-adv-x="1116" vert-adv-y="1000"/><glyph glyph-name="uni2153" unicode="⅓" d="M196 285h-44v378l-80-71v51l80 69h44V285m394 427L258 0h-45l332 712h45m182-594q0-57-35-89.5T647-4q-54 0-89.5 29.5T520 110h45q2-37 25-55.5T647 36q35 0 58 22.5t23 59.5q0 81-84 81h-8v39h8q37 0 56.5 20t19.5 56q0 36-21.5 56.5T646 391q-33 0-53-18.5T570 321h-44q4 51 37 80.5t83 29.5q53 0 85.5-31.5T764 315q0-69-57-94 65-24 65-103z" horiz-adv-x="803" vert-adv-y="1000"/><glyph glyph-name="uni2154" unicode="⅔" d="M280 285H44v40l168 213q23 31 23 62 0 36-19 56t-54 20q-32 0-53-18.5T88 600H44q0 52 32 84t86 32q54 0 86-31t32-85q0-43-34-87L97 325h183v-40m310 427L258 0h-45l332 712h45m182-594q0-57-35-89.5T647-4q-54 0-89.5 29.5T520 110h45q2-37 25-55.5T647 36q35 0 58 22.5t23 59.5q0 81-84 81h-8v39h8q37 0 56.5 20t19.5 56q0 36-21.5 56.5T646 391q-33 0-53-18.5T570 321h-44q4 51 37 80.5t83 29.5q53 0 85.5-31.5T764 315q0-69-57-94 65-24 65-103z" horiz-adv-x="803" vert-adv-y="1000"/><glyph glyph-name="uni2155" unicode="⅕" d="M196 285h-44v378l-80-71v51l80 69h44V285m394 427L258 0h-45l332 712h45m178-571q0-79-34-113-32-32-86-32-56 0-86 30-27 27-30 75h44q8-65 72-65 34 0 53 19 23 23 23 86 0 103-72 103-57 0-70-42h-40v225h216v-40H582V254q25 28 76 28 48 0 74-26 36-37 36-115z" horiz-adv-x="803" vert-adv-y="1000"/><glyph glyph-name="uni2156" unicode="⅖" d="M280 285H44v40l168 213q23 31 23 62 0 36-19 56t-54 20q-32 0-53-18.5T88 600H44q0 52 32 84t86 32q54 0 86-31t32-85q0-43-34-87L97 325h183v-40m310 427L258 0h-45l332 712h45m178-571q0-79-34-113-32-32-86-32-56 0-86 30-27 27-30 75h44q8-65 72-65 34 0 53 19 23 23 23 86 0 103-72 103-57 0-70-42h-40v225h216v-40H582V254q25 28 76 28 48 0 74-26 36-37 36-115z" horiz-adv-x="803" vert-adv-y="1000"/><glyph glyph-name="uni2157" unicode="⅗" d="M282 403q0-57-35-89.5T157 281q-54 0-89.5 29.5T30 395h45q2-37 25-55.5t57-18.5q35 0 58 22.5t23 59.5q0 81-84 81h-8v39h8q37 0 56.5 20t19.5 56q0 36-21.5 56.5T156 676q-33 0-53-18.5T80 606H36q4 51 37 80.5t83 29.5q53 0 85.5-31.5T274 600q0-68-57-94 65-24 65-103m308 309L258 0h-45l332 712h45m178-571q0-79-34-113-32-32-86-32-56 0-86 30-27 27-30 75h44q8-65 72-65 34 0 53 19 23 23 23 86 0 103-72 103-57 0-70-42h-40v225h216v-40H582V254q25 28 76 28 48 0 74-26 36-37 36-115z" horiz-adv-x="803" vert-adv-y="1000"/><glyph glyph-name="uni2158" unicode="⅘" d="M290 352h-52v-67h-44v67H24v40l154 320h47L72 392h122v120h44V392h52v-40m300 360L258 0h-45l332 712h45m178-571q0-79-34-113-32-32-86-32-56 0-86 30-27 27-30 75h44q8-65 72-65 34 0 53 19 23 23 23 86 0 103-72 103-57 0-70-42h-40v225h216v-40H582V254q25 28 76 28 48 0 74-26 36-37 36-115z" horiz-adv-x="803" vert-adv-y="1000"/><glyph glyph-name="uni2159" unicode="⅙" d="M196 285h-44v378l-80-71v51l80 69h44V285m394 427L258 0h-45l332 712h45m176-589q0-56-32-91.5T648-4q-54 0-86.5 34T529 120q0 40 26 95l105 212h46l-95-191q17 8 44 8 49 0 80-34t31-87m-44-2q0 37-20 61.5T647 207q-34 0-54-23t-20-63q0-39 20-62t54-23q34 0 54.5 23t20.5 62z" horiz-adv-x="803" vert-adv-y="1000"/><glyph glyph-name="uni215A" unicode="⅚" d="M278 426q0-79-34-113-32-32-86-32-56 0-86 30-27 27-30 75h44q8-65 72-65 34 0 53 19 23 23 23 86 0 103-72 103-57 0-70-42H52v225h216v-40H92V539q25 28 76 28 48 0 74-26 36-37 36-115m312 286L258 0h-45l332 712h45m176-589q0-56-32-91.5T648-4q-54 0-86.5 34T529 120q0 40 26 95l105 212h46l-95-191q17 8 44 8 49 0 80-34t31-87m-44-2q0 37-20 61.5T647 207q-34 0-54-23t-20-63q0-39 20-62t54-23q34 0 54.5 23t20.5 62z" horiz-adv-x="803" vert-adv-y="1000"/><glyph glyph-name="uni215B" unicode="⅛" d="M196 285h-44v378l-80-71v51l80 69h44V285m394 427L258 0h-45l332 712h45m183-594q0-54-36-88T647-4q-54 0-90 34t-36 88q0 68 64 104-56 31-56 94 0 50 33.5 82.5T647 431q51 0 84.5-32.5T765 316q0-64-56-94 64-36 64-104m-67.5-58.5l11.75 11.75Q729 83 729 118t-23.5 59Q682 201 647 201t-58.5-24Q565 153 565 118t23.5-58.5Q612 36 647 36t58.5 23.5m-5 202l10.25 10.75Q721 283 721 316t-20.5 54Q680 391 647 391t-53.5-21Q573 349 573 316t20.5-54.5Q614 240 647 240t53.5 21.5z" horiz-adv-x="803" vert-adv-y="1000"/><glyph glyph-name="uni215C" unicode="⅜" d="M282 403q0-57-35-89.5T157 281q-54 0-89.5 29.5T30 395h45q2-37 25-55.5t57-18.5q35 0 58 22.5t23 59.5q0 81-84 81h-8v39h8q37 0 56.5 20t19.5 56q0 36-21.5 56.5T156 676q-33 0-53-18.5T80 606H36q4 51 37 80.5t83 29.5q53 0 85.5-31.5T274 600q0-68-57-94 65-24 65-103m308 309L258 0h-45l332 712h45m183-594q0-54-36-88T647-4q-54 0-90 34t-36 88q0 68 64 104-56 31-56 94 0 50 33.5 82.5T647 431q51 0 84.5-32.5T765 316q0-64-56-94 64-36 64-104m-67.5-58.5l11.75 11.75Q729 83 729 118t-23.5 59Q682 201 647 201t-58.5-24Q565 153 565 118t23.5-58.5Q612 36 647 36t58.5 23.5m-5 202l10.25 10.75Q721 283 721 316t-20.5 54Q680 391 647 391t-53.5-21Q573 349 573 316t20.5-54.5Q614 240 647 240t53.5 21.5z" horiz-adv-x="803" vert-adv-y="1000"/><glyph glyph-name="uni215D" unicode="⅝" d="M278 426q0-79-34-113-32-32-86-32-56 0-86 30-27 27-30 75h44q8-65 72-65 34 0 53 19 23 23 23 86 0 103-72 103-57 0-70-42H52v225h216v-40H92V539q25 28 76 28 48 0 74-26 36-37 36-115m312 286L258 0h-45l332 712h45m183-594q0-54-36-88T647-4q-54 0-90 34t-36 88q0 68 64 104-56 31-56 94 0 50 33.5 82.5T647 431q51 0 84.5-32.5T765 316q0-64-56-94 64-36 64-104m-67.5-58.5l11.75 11.75Q729 83 729 118t-23.5 59Q682 201 647 201t-58.5-24Q565 153 565 118t23.5-58.5Q612 36 647 36t58.5 23.5m-5 202l10.25 10.75Q721 283 721 316t-20.5 54Q680 391 647 391t-53.5-21Q573 349 573 316t20.5-54.5Q614 240 647 240t53.5 21.5z" horiz-adv-x="803" vert-adv-y="1000"/><glyph glyph-name="uni215E" unicode="⅞" d="M283 673L135 285H91l148 387H88v-71H45v111h238v-39m307 39L258 0h-45l332 712h45m183-594q0-54-36-88T647-4q-54 0-90 34t-36 88q0 68 64 104-56 31-56 94 0 50 33.5 82.5T647 431q51 0 84.5-32.5T765 316q0-64-56-94 64-36 64-104m-67.5-58.5l11.75 11.75Q729 83 729 118t-23.5 59Q682 201 647 201t-58.5-24Q565 153 565 118t23.5-58.5Q612 36 647 36t58.5 23.5m-5 202l10.25 10.75Q721 283 721 316t-20.5 54Q680 391 647 391t-53.5-21Q573 349 573 316t20.5-54.5Q614 240 647 240t53.5 21.5z" horiz-adv-x="803" vert-adv-y="1000"/><glyph glyph-name="uni215F" unicode="⅟" d="M196 285h-44v378l-80-71v51l80 69h44V285m394 427L258 0h-45l332 712h45z" horiz-adv-x="490" vert-adv-y="1000"/><glyph glyph-name="uni2189" unicode="↉" d="M274 399q0-53-33-85.5T157 281q-51 0-84 32.5T40 399v199q0 53 33 85.5t84 32.5q51 0 84-32.5t33-85.5V399m-44 2v195q0 36-19.5 58.5T157 677q-34 0-53.5-22.5T84 596V401q0-36 19-58t54-22q34 0 53.5 22t19.5 58m360 311L258 0h-45l332 712h45m182-594q0-57-35-89.5T647-4q-54 0-89.5 29.5T520 110h45q2-37 25-55.5T647 36q35 0 58 22.5t23 59.5q0 81-84 81h-8v39h8q37 0 56.5 20t19.5 56q0 36-21.5 56.5T646 391q-33 0-53-18.5T570 321h-44q4 51 37 80.5t83 29.5q53 0 85.5-31.5T764 315q0-69-57-94 65-24 65-103z" horiz-adv-x="803" vert-adv-y="1000"/><glyph glyph-name="uni2190" unicode="←" d="M971 238H152l379-379h-69L58 263l404 404h69L152 288h819v-50z" horiz-adv-x="1027" vert-adv-y="1000"/><glyph glyph-name="uni2191" unicode="↑" d="M918 247L539 626v-819h-50v819L110 247v69l404 404 404-404v-69z" horiz-adv-x="1027" vert-adv-y="1000"/><glyph glyph-name="uni2192" unicode="→" d="M971 263L567-141h-69l379 379H58v50h819L498 667h69l404-404z" horiz-adv-x="1027" vert-adv-y="1000"/><glyph glyph-name="uni2193" unicode="↓" d="M918 211L514-193 110 211v69L489-99v819h50V-99l379 379v-69z" horiz-adv-x="1027" vert-adv-y="1000"/><glyph glyph-name="uni2196" unicode="↖" d="M854-42l-35-35-580 579V-34l-48 48v572h571l49-49H275L854-42z" horiz-adv-x="1027" vert-adv-y="1000"/><glyph glyph-name="uni2197" unicode="↗" d="M836 14l-48-48v536L208-77l-35 35 579 579H216l49 49h571V14z" horiz-adv-x="1027" vert-adv-y="1000"/><glyph glyph-name="uni2198" unicode="↘" d="M836-77H265l-49 48h536L173 550l35 36L788 7v536l48-49V-77z" horiz-adv-x="1027" vert-adv-y="1000"/><glyph glyph-name="uni2199" unicode="↙" d="M854 550L275-29h536l-49-48H191v571l48 49V7l580 579 35-36z" horiz-adv-x="1027" vert-adv-y="1000"/><glyph glyph-name="uni2202" unicode="∂" d="M443 241q0-134-58-194Q334-6 256-6T127 47q-58 60-58 194 0 139 58 197 50 50 122 50 92 0 143-68v86q0 75-36.5 121T246 673q-42 0-67.5-12T121 620l-33 33q41 36 74 50.5t84 14.5q93 0 145-57t52-152V241M351 80q41 43 41 161t-41 161q-39 41-95 41t-95-41q-41-43-41-161t41-161q39-41 95-41t95 41z" horiz-adv-x="540" vert-adv-y="1000"/><glyph glyph-name="uni2206" unicode="∆" d="M581 0H10l262 712h47L581 0m-70 48L295 640 80 48h431z" horiz-adv-x="591" vert-adv-y="1000"/><glyph glyph-name="uni220F" unicode="∏" d="M589-230h-54v942H164v-942h-54v990h479v-990z" horiz-adv-x="699" vert-adv-y="1000"/><glyph glyph-name="uni2211" unicode="∑" d="M495-230H63v48l207 461L63 712v48h432v-48H124l195-409v-48L124-182h371v-48z" horiz-adv-x="551" vert-adv-y="1000"/><glyph glyph-name="uni2212" unicode="−" d="M461 240H53v47h408v-47z" horiz-adv-x="514" vert-adv-y="1000"/><glyph glyph-name="uni2219" unicode="∙" d="M372 449.5l24-23.75Q420 402 420 334t-48-115.5Q324 171 257 171t-115 47.5Q94 266 94 334t48 115.5Q190 497 257 497t115-47.5z" horiz-adv-x="514" vert-adv-y="1000"/><glyph glyph-name="uni221A" unicode="√" d="M520 664h-88L215 0h-46L10 482h56L192 95l199 617h129v-48z" horiz-adv-x="550" vert-adv-y="1000"/><glyph glyph-name="uni221E" unicode="∞" d="M678.5 367l20.75-21.5Q720 324 720 260t-41.5-106Q637 112 573 112q-51 0-90.5 24.5T396 220q-47-59-87-84t-89-25q-64 0-106 42.5T72 260q0 64 42 107t106 43q48 0 88.5-25.5T396 300q48 60 87 85t90 25q64 0 105.5-43M366 260q-46 56-76 80.5T223 365q-46 0-74.5-29.5T120 260q0-46 28.5-74t74.5-28q37 0 67.5 24t75.5 78m277.5-74l14.25 14Q672 214 672 260t-28.5 74.5Q615 363 569 363q-37 0-67.5-24T426 260q45-54 75.5-78t67.5-24q46 0 74.5 28z" horiz-adv-x="792" vert-adv-y="1000"/><glyph glyph-name="uni222B" unicode="∫" d="M299 667h-35q-74 0-74-80v-691q0-57-30.5-91.5T74-230H30v45h35q74 0 74 80v691q0 57 30.5 91.5T255 712h44v-45z" horiz-adv-x="329" vert-adv-y="1000"/><glyph glyph-name="uni2248" unicode="≈" d="M461 357q-39-39-62-50.5T345 295q-28 0-102 31-54 23-76 23t-38-8q-16-8-45-37l-31 31q39 39 62 50.5t54 11.5q28 0 102-31 54-23 76-23t38 8q16 8 45 37l31-31m0-160q-39-39-62-50.5T345 135q-28 0-102 31-54 23-76 23t-38-8q-16-8-45-37l-31 31q39 39 62 50.5t54 11.5q28 0 102-31 54-23 76-23t38 8q16 8 45 37l31-31z" horiz-adv-x="514" vert-adv-y="1000"/><glyph glyph-name="uni2260" unicode="≠" d="M461 163H190L86 59 53 92l71 71H53v47h118l106 106H53v47h271l104 104 33-33-71-71h71v-47H343L237 210h224v-47z" horiz-adv-x="514" vert-adv-y="1000"/><glyph glyph-name="uni2264" unicode="≤" d="M409 119L105 280v48l304 161v-55L155 304l254-130v-55m0-125L105 155v55L409 49V-6z" horiz-adv-x="514" vert-adv-y="1000"/><glyph glyph-name="uni2265" unicode="≥" d="M409 280L105 119v55l254 130-254 130v55l304-161v-48m0-125L105-6v55l304 161v-55z" horiz-adv-x="514" vert-adv-y="1000"/><glyph glyph-name="uni22C5" unicode="⋅" d="M294 227h-74v74h74v-74z" horiz-adv-x="514" vert-adv-y="1000"/><glyph glyph-name="uni25CA" unicode="◊" d="M582 356L327-7 72 356l255 363 255-363m-57 0L327 641 129 356 327 69l198 287z" horiz-adv-x="654" vert-adv-y="1000"/><glyph glyph-name="uniFB01" unicode="ﬁ" d="M272 444H163V0h-51v444H46v38h66v104q0 57 30.5 91.5T228 712h44v-45h-35q-74 0-74-80V482h109v-38M450 0h-51v482h51V0m6 649h-63v63h63v-63z" horiz-adv-x="547" vert-adv-y="1000"/><glyph glyph-name="uniFB02" unicode="ﬂ" d="M272 444H163V0h-51v444H46v38h66v104q0 57 30.5 91.5T228 712h44v-45h-35q-74 0-74-80V482h109v-38M554 0h-44q-58 0-87 33t-29 92v587h51V126q0-43 16.5-62T519 45h35V0z" horiz-adv-x="586" vert-adv-y="1000"/></font>
</defs>
</svg>
