<svg><defs><font id="DINPro-Bold" horiz-adv-x="1222" vert-adv-y="1222"><font-face font-family="DIN Pro Bold" font-weight="400" ascent="1015" descent="-206"/><glyph glyph-name="uni21" unicode="!" d="M273 712l-33-489h-96l-32 489h161M267 0H118v148h149V0z" horiz-adv-x="347" vert-adv-y="1000"/><glyph glyph-name="uni22" unicode="&quot;" d="M190 501H68v211h122V501m205 0H274v211h121V501z" horiz-adv-x="464" vert-adv-y="1000"/><glyph glyph-name="uni23" unicode="#" d="M643 420h-89l-16-108h69V190h-89L488 0H351l31 190H266L236 0H99l30 190H60v122h89l16 108H95v121h89l28 177h137l-28-177h116l28 177h136l-27-177h69V420m-226 0H302l-17-108h116l16 108z" horiz-adv-x="691" vert-adv-y="1000"/><glyph glyph-name="uni24" unicode="$" d="M571 210q0-89-59-144.5T356-2v-112H255V-6Q107-1 19 88l90 90q57-57 159-60v181l-32 4q-90 12-138 60-51 51-51 139 0 87 55.5 145.5T255 716v90h101v-89q120-7 197-82l-88-87q-44 42-123 48V422l38-6q91-14 136-56 55-52 55-150m-136-4q0 39-22 60-20 19-71 26V120q93 11 93 86M268 428v167q-42-6-64.5-30T181 507q0-31 21-51 23-22 66-28z" horiz-adv-x="619" vert-adv-y="1000"/><glyph glyph-name="uni25" unicode="%" d="M248 486v91q0 57-50 57-51 0-51-57v-91q0-57 51-57 50 0 50 57m94-4q0-65-41-101t-103-36q-62 0-104 36T52 482v99q0 65 42 101t104 36q62 0 103-36t41-101v-99m360-348v92q0 57-51 57t-51-57v-92q0-56 51-56t51 56m94-3q0-65-41.5-101T651-6q-62 0-103.5 36T506 131v99q0 65 41.5 101T651 367q62 0 103.5-36T796 230v-99M644 712L307 0H205l337 712h102z" horiz-adv-x="848" vert-adv-y="1000"/><glyph glyph-name="uni26" unicode="&amp;" d="M696 0H531l-52 62q-25-21-43-32.5T379.5 6Q341-6 295-6 179-6 119.5 51T60 210q0 106 128 191-71 81-71 151 0 74 51 120t139 46q83 0 132.5-47T489 550q0-71-73-124l-51-37 120-142q33 44 36 125h123q-8-145-76-221L696 0M400 154L258 321q-37-26-54.5-50T186 212q0-44 31-72t77-28q58 0 106 42m-34 395q0 25-16 41.5T307 607q-28 0-43.5-16T248 549q0-12 7.5-27t15-24.5Q278 488 295 469l30 20q41 29 41 60z" horiz-adv-x="721" vert-adv-y="1000"/><glyph glyph-name="uni27" unicode="'" d="M191 501H68v211h123V501z" horiz-adv-x="259" vert-adv-y="1000"/><glyph glyph-name="uni28" unicode="(" d="M80 138v436q0 85 26 129 22 39 88 103l88-88q-42-42-56-66-15-28-15-84V144q0-55 15-84 14-24 56-66l-88-88Q128-30 106 9 80 52 80 138z" horiz-adv-x="336" vert-adv-y="1000"/><glyph glyph-name="uni29" unicode=")" d="M256 138q0-86-26-129-22-39-88-103L54-6q42 42 56 66 15 29 15 84v424q0 56-15 84-14 24-56 66l88 88q66-64 88-103 26-44 26-129V138z" horiz-adv-x="336" vert-adv-y="1000"/><glyph glyph-name="uni2a" unicode="*" d="M440 460l-46-79-105 66 4-125h-92l5 125-106-66-45 79 110 58-110 58 45 80 106-67-5 125h92l-4-125 105 67 46-80-111-58 111-58z" horiz-adv-x="494" vert-adv-y="1000"/><glyph glyph-name="uni2b" unicode="+" d="M493 216H333V56H211v160H50v122h161v160h122V338h160V216z" horiz-adv-x="543" vert-adv-y="1000"/><glyph glyph-name="uni2c" unicode="," d="M211-55L68-165v307h143V-55z" horiz-adv-x="279" vert-adv-y="1000"/><glyph glyph-name="uni2d" unicode="-" d="M367 225H59v121h308V225z" horiz-adv-x="426" vert-adv-y="1000"/><glyph glyph-name="uni2e" unicode="." d="M217 0H68v148h149V0z" horiz-adv-x="285" vert-adv-y="1000"/><glyph glyph-name="uni2f" unicode="/" d="M407 786L122-74H0l285 860h122z" horiz-adv-x="403" vert-adv-y="1000"/><glyph glyph-name="uni30" unicode="0" d="M488 206q0-98-62.5-155T272-6q-91 0-154 57T55 206v300q0 98 63 155t154 57q91 0 153.5-57T488 506V206m-130 1v297q0 45-23.5 71T272 601q-39 0-63-26t-24-71V207q0-45 24-70.5t63-25.5q39 0 62.5 25.5T358 207z" horiz-adv-x="543" vert-adv-y="1000"/><glyph glyph-name="uni31" unicode="1" d="M378 0H248v572L103 446v140l145 126h130V0z" horiz-adv-x="543" vert-adv-y="1000"/><glyph glyph-name="uni32" unicode="2" d="M492 0H59v117l266 309q37 44 37 86 0 40-22.5 64.5T276 601q-37 0-62-21.5T189 510H59q0 95 61.5 151.5T276 718q96 0 156-56t60-151q0-48-17-81t-59-82L217 117h275V0z" horiz-adv-x="543" vert-adv-y="1000"/><glyph glyph-name="uni33" unicode="3" d="M495 206q0-102-64.5-157T269-6q-95 0-160.5 52.5T42 204h130q1-46 28.5-69.5T269 111q43 0 69.5 26t26.5 73q0 45-26.5 71.5T265 308h-19v113h19q45 0 67.5 24.5T355 510q0 43-25 67t-62 24q-37 0-61.5-23T180 515H50q2 93 64 148t154 55q95 0 156-57t61-147q0-102-82-146 92-49 92-162z" horiz-adv-x="543" vert-adv-y="1000"/><glyph glyph-name="uni34" unicode="4" d="M512 101h-65V0H322v101H31v123l244 488h142L173 224h149v133h125V224h65V101z" horiz-adv-x="543" vert-adv-y="1000"/><glyph glyph-name="uni35" unicode="5" d="M494 240q0-65-13-108t-50-80Q373-6 274-6 172-6 115 51q-51 51-58 148h130q11-88 87-88 39 0 62 23 28 28 28 106 0 128-87 128-67 0-86-58H72v402h406V595H190V442q38 36 107 36 85 0 133-48 64-64 64-190z" horiz-adv-x="543" vert-adv-y="1000"/><glyph glyph-name="uni36" unicode="6" d="M492 216q0-103-62.5-162.5T270-6q-97 0-159.5 58.5T48 214q0 68 60 190l150 308h142L252 418q22 9 53 9 76 0 131.5-58T492 216m-130-1q0 47-25.5 75.5T270 319q-41 0-66.5-28T178 215q0-48 25.5-76t66.5-28q41 0 66.5 28t25.5 76z" horiz-adv-x="543" vert-adv-y="1000"/><glyph glyph-name="uni37" unicode="7" d="M503 595L272 0H131l231 595H174V483H50v229h453V595z" horiz-adv-x="543" vert-adv-y="1000"/><glyph glyph-name="uni38" unicode="8" d="M410 367q90-60 90-160T435.5 50.5Q371-6 272-6T108.5 50.5Q44 107 44 207q0 101 89 160-80 56-80 148t63.5 147.5Q180 718 272 718t155-55.5Q490 607 490 515t-80-148m-68.5-227.5l14.25 14.25Q370 168 370 209t-28.5 70Q313 308 272 308t-69.5-29Q174 250 174 209t28.5-69.5Q231 111 272 111t69.5 28.5M360 511q0 38-25 64t-63 26q-38 0-63.5-26T183 511q0-39 25.5-64.5T272 421q38 0 63 25.5t25 64.5z" horiz-adv-x="543" vert-adv-y="1000"/><glyph glyph-name="uni39" unicode="9" d="M495 498q0-70-59-190L285 0H144l148 294q-22-9-53-9-76 0-132 58T51 496q0 103 62.5 162.5T273 718q97 0 159.5-58.5T495 498m-155.5-77l12.75 14Q365 449 365 497t-25.5 76Q314 601 273 601t-66.5-28Q181 545 181 497q0-47 25.5-75.5T273 393q41 0 66.5 28z" horiz-adv-x="543" vert-adv-y="1000"/><glyph glyph-name="uni3a" unicode=":" d="M241 271H93v148h148V271m0-271H93v148h148V0z" horiz-adv-x="309" vert-adv-y="1000"/><glyph glyph-name="uni3b" unicode=";" d="M238-55L96-165v307h142V-55m3 326H93v148h148V271z" horiz-adv-x="309" vert-adv-y="1000"/><glyph glyph-name="uni3c" unicode="&lt;" d="M475 42L69 229v113l406 187V392L234 285l241-106V42z" horiz-adv-x="543" vert-adv-y="1000"/><glyph glyph-name="uni3d" unicode="=" d="M493 333H50v122h443V333m0-217H50v122h443V116z" horiz-adv-x="543" vert-adv-y="1000"/><glyph glyph-name="uni3e" unicode="&gt;" d="M475 229L69 42v137l241 106L69 392v137l406-187V229z" horiz-adv-x="543" vert-adv-y="1000"/><glyph glyph-name="uni3f" unicode="?" d="M487 518q0-60-49-125l-74-98q-18-23-18-51v-21H216v30q0 54 38 104l74 95q29 38 29 67 0 36-22 59t-59 23q-38 0-59-23.5T196 518H66q0 91 60 145.5T276 718q89 0 150-54t61-146M350 0H212v133h138V0z" horiz-adv-x="523" vert-adv-y="1000"/><glyph glyph-name="uni40" unicode="@" d="M700 0H579v46Q531-6 459-6q-79 0-126 50-29 31-38 72t-9 115q0 73 9 113.5t37 71.5q46 51 126 51 73 0 118-49v45q0 67-35 102t-100 35H317q-65 0-100-35t-35-102V174q0-37 9.5-57T226 75l-90-90Q92 25 74.5 63T57 167v299q0 127 62 189 61 61 188 61h144q127 0 188-61t61-189V0M557.5 135l9.25 16.5Q576 168 576 231t-18.5 95.5Q539 359 493 359t-64-32q-18-32-18-96t18-96.5q18-32.5 64-32.5t64.5 33z" horiz-adv-x="758" vert-adv-y="1000"/><glyph glyph-name="uni41" unicode="A" d="M633 0H488l-42 126H193L150 0H5l259 712h109L633 0M409 243l-87 259-90-259h177z" horiz-adv-x="638" vert-adv-y="1000"/><glyph glyph-name="uni42" unicode="B" d="M599 205q0-97-60-151T381 0H83v712h286q103 0 161.5-54T589 512q0-54-27.5-92.5T501 365q98-46 98-160m-163-56l12 12.5q12 12.5 12 50.5t-24 62.5Q412 299 367 299H222V124h145q45 0 69 25m-10 297.5l12 11.25Q450 469 450 506t-24 59.5Q402 588 358 588H222V424h136q44 0 68 22.5z" horiz-adv-x="658" vert-adv-y="1000"/><glyph glyph-name="uni43" unicode="C" d="M583 219q-19-109-89-167T322-6Q208-6 131 69q-49 49-60.5 107.5T59 356q0 121 11.5 179.5T131 643q77 75 191 75 102 0 172-58t89-167H441q-24 101-119 101-57 0-89-37-20-23-27.5-62.5T198 356q0-99 7.5-138.5T233 155q32-37 89-37 96 0 120 101h141z" horiz-adv-x="620" vert-adv-y="1000"/><glyph glyph-name="uni44" unicode="D" d="M592.5 513.5l3.75-26.25Q600 461 600 356t-7.5-157.5Q585 146 555 104 480 0 340 0H83v712h257q140 0 215-104 30-42 37.5-94.5M456 228l2.5 19q2.5 19 2.5 109t-5 128q-5 38-24 60-35 44-104 44H222V124h106q69 0 104 44 19 22 24 60z" horiz-adv-x="659" vert-adv-y="1000"/><glyph glyph-name="uni45" unicode="E" d="M552 0H83v712h469V588H222V421h281V297H222V124h330V0z" horiz-adv-x="605" vert-adv-y="1000"/><glyph glyph-name="uni46" unicode="F" d="M552 588H222V413h281V289H222V0H83v712h469V588z" horiz-adv-x="590" vert-adv-y="1000"/><glyph glyph-name="uni47" unicode="G" d="M590 292q0-79-15-128t-53-89Q445-6 321-6 208-6 131 69q-49 49-60.5 107.5T59 356q0 121 11.5 179.5T131 643q77 75 190 75 117 0 184.5-65T589 490H449q-24 104-128 104-54 0-89-38-20-23-27-62t-7-138q0-100 7-139t27-62q34-37 89-37 64 0 99 40 32 36 32 95v26H321v117h269V292z" horiz-adv-x="649" vert-adv-y="1000"/><glyph glyph-name="uni48" unicode="H" d="M602 0H463v298H222V0H83v712h139V421h241v291h139V0z" horiz-adv-x="685" vert-adv-y="1000"/><glyph glyph-name="uni49" unicode="I" d="M222 0H83v712h139V0z" horiz-adv-x="305" vert-adv-y="1000"/><glyph glyph-name="uni4a" unicode="J" d="M437 234q0-113-73-176.5T186-6Q128-6 85 11T3 67l92 91q40-40 91-40 52 0 82 31t30 91v472h139V234z" horiz-adv-x="511" vert-adv-y="1000"/><glyph glyph-name="uni4b" unicode="K" d="M659 0H497L314 324l-92-110V0H83v712h139V402l251 310h169L406 429 659 0z" horiz-adv-x="665" vert-adv-y="1000"/><glyph glyph-name="uni4c" unicode="L" d="M545 0H83v712h139V124h323V0z" horiz-adv-x="575" vert-adv-y="1000"/><glyph glyph-name="uni4d" unicode="M" d="M728 0H589v415L453 145h-94L222 415V0H83v712h137l186-385 185 385h137V0z" horiz-adv-x="811" vert-adv-y="1000"/><glyph glyph-name="uni4e" unicode="N" d="M628 0H504L222 437V0H83v712h124l282-436v436h139V0z" horiz-adv-x="711" vert-adv-y="1000"/><glyph glyph-name="uni4f" unicode="O" d="M573 535l6-29.5q6-29.5 6-149.5t-12-179q-12-59-61-108Q437-6 322-6 206-6 131 69q-49 49-60.5 107.5T59 356q0 121 11.5 179.5T131 643q75 75 191 75 115 0 190-75 49-49 61-108M446 356q0 99-7.5 138T411 556q-33 38-89 38-55 0-90-38-20-23-27-62t-7-138q0-99 7-137.5t27-61.5q36-39 90-39 55 0 89 39 20 24 27.5 62.5T446 356z" horiz-adv-x="644" vert-adv-y="1000"/><glyph glyph-name="uni50" unicode="P" d="M530.5 648l31.75-32Q594 584 594 490t-63.5-158Q467 268 359 268H222V0H83v712h276q108 0 171.5-64M427 419.5l14 13.25Q455 446 455 490t-28 71q-28 27-75 27H222V393h130q47 0 75 26.5z" horiz-adv-x="628" vert-adv-y="1000"/><glyph glyph-name="uni51" unicode="Q" d="M585 356q0-103-7.5-156T541 104l61-61-73-73-64 62Q405-6 322-6 208-6 131 69q-49 49-60.5 107.5T59 356q0 121 11.5 179.5T131 643q77 75 191 75 115 0 190-75 49-49 61-108t12-179m-139 0q0 99-7.5 138T411 556q-33 38-89 38-55 0-90-38-20-23-27-62t-7-138q0-99 7-137.5t27-61.5q36-39 90-39 26 0 46 13l-62 61 73 74 54-54q13 40 13 144z" horiz-adv-x="643" vert-adv-y="1000"/><glyph glyph-name="uni52" unicode="R" d="M622 0H461L322 284H222V0H83v712h279q106 0 168.5-63T593 494q0-71-37-119t-93-68L622 0M426 426l14 13q14 13 14 55t-28 68q-28 26-73 26H222V400h131q45 0 73 26z" horiz-adv-x="654" vert-adv-y="1000"/><glyph glyph-name="uni53" unicode="S" d="M543 210q0-101-74-158.5T279-6q-85 0-147 21.5T19 88l90 90q60-60 171-60 62 0 94.5 23t32.5 66q0 37-22 59-19 18-64 24l-85 13q-90 13-138 59-51 50-51 140 0 97 67 156.5T295 718q144 0 230-83l-88-87q-50 49-146 49-53 0-81-25.5T182 507q0-32 20-51 23-21 65-27l85-13q91-13 136-56 55-51 55-150z" horiz-adv-x="591" vert-adv-y="1000"/><glyph glyph-name="uni54" unicode="T" d="M541 588H355V0H216v588H30v124h511V588z" horiz-adv-x="571" vert-adv-y="1000"/><glyph glyph-name="uni55" unicode="U" d="M596 244q0-111-75-180.5T334-6Q222-6 147 63.5T72 244v468h139V249q0-61 33-96t90-35q57 0 90.5 35t33.5 96v463h138V244z" horiz-adv-x="668" vert-adv-y="1000"/><glyph glyph-name="uni56" unicode="V" d="M578 712L342 0H238L3 712h144l143-464 143 464h145z" horiz-adv-x="581" vert-adv-y="1000"/><glyph glyph-name="uni57" unicode="W" d="M881 712L690 0H574L443 432 312 0H196L6 712h145l110-449 130 449h104l130-449 111 449h145z" horiz-adv-x="887" vert-adv-y="1000"/><glyph glyph-name="uni58" unicode="X" d="M598 0H439L301 248 164 0H5l221 365L19 712h158l124-230 125 230h157L376 365 598 0z" horiz-adv-x="603" vert-adv-y="1000"/><glyph glyph-name="uni59" unicode="Y" d="M569 712L355 292V0H217v292L3 712h151l133-287 131 287h151z" horiz-adv-x="572" vert-adv-y="1000"/><glyph glyph-name="uni5a" unicode="Z" d="M508 0H40v112l304 476H53v124h455V602L203 124h305V0z" horiz-adv-x="548" vert-adv-y="1000"/><glyph glyph-name="uni5b" unicode="[" d="M337-74H80v860h257V669H210V43h127V-74z" horiz-adv-x="378" vert-adv-y="1000"/><glyph glyph-name="uni5c" unicode="\" d="M403-74H281L0 773h122L403-74z" horiz-adv-x="403" vert-adv-y="1000"/><glyph glyph-name="uni5d" unicode="]" d="M299-74H42V42h127v628H42v116h257V-74z" horiz-adv-x="378" vert-adv-y="1000"/><glyph glyph-name="uni5e" unicode="^" d="M539 389H403L301 577 199 389H63l178 330h120l178-330z" horiz-adv-x="602" vert-adv-y="1000"/><glyph glyph-name="uni5f" unicode="_" d="M602-178H0v87h602v-87z" horiz-adv-x="602" vert-adv-y="1000"/><glyph glyph-name="uni60" unicode="`" d="M305 604h-87L104 774h137l64-170z" horiz-adv-x="500" vert-adv-y="1000"/><glyph glyph-name="uni61" unicode="a" d="M467 0H340v45q-27-27-55.5-38.5T212-5Q125-5 79 41 36 86 36 158q0 66 46 108.5T216 309h121v26q0 43-23 62.5T240 417q-61 0-100-45l-82 81q38 42 79.5 58T245 527q222 0 222-184V0M337 192v28h-99q-77 0-77-60 0-59 79-59 51 0 77 25 20 17 20 66z" horiz-adv-x="534" vert-adv-y="1000"/><glyph glyph-name="uni62" unicode="b" d="M509 261q0-81-10-133t-44-87Q410-6 329-6T199 49V0H73v712h130V475q45 52 126 52t126-47q34-35 44-87t10-132m-133-59.5l1.5 11.75Q379 225 379 261t-3 59.5q-3 23.5-11.5 45.5t-27 33Q319 410 291 410t-46.5-11q-18.5-11-27-33T206 320.5q-3-23.5-3-59.5t3-59.5q3-23.5 11.5-46t27-33.5q18.5-11 46.5-11t46.5 11q18.5 11 27 33.5t11.5 46z" horiz-adv-x="560" vert-adv-y="1000"/><glyph glyph-name="uni63" unicode="c" d="M452 65Q384-6 280-6q-33 0-64 7.5t-62.5 26Q122 46 99 75.5t-37.5 77Q47 200 47 261t14.5 108.5Q76 417 99 446t54.5 48q31.5 19 62.5 26t64 7q105 0 172-70l-88-88q-38 41-84 41t-74-34q-29-36-29-115 0-80 29-116 28-34 74-34t84 41l88-87z" horiz-adv-x="480" vert-adv-y="1000"/><glyph glyph-name="uni64" unicode="d" d="M488 0H361v49Q312-6 232-6q-82 0-127 47-34 35-44 87T51 261q0 80 10 132t44 87q45 47 126 47 80 0 127-52v237h130V0M358 261q0 73-17.5 111T269 410q-28 0-46.5-11t-27-33q-8.5-22-11.5-45.5t-3-59.5q0-36 3-59.5t11.5-46q8.5-22.5 27-33.5t46.5-11q28 0 46.5 11t27.5 33q9 22 12 46.5t3 59.5z" horiz-adv-x="561" vert-adv-y="1000"/><glyph glyph-name="uni65" unicode="e" d="M501 220H175q0-52 30-84t84-32q40 0 65.5 11.5T407 153l79-77q-42-43-86.5-62.5T288-6q-50 0-90.5 12.5T122 48q-35 29-55 83T47 261q0 125 62 195.5T274 527q107 0 167-69.5T501 275v-55m-128 89q-1 34-12 56-24 54-87 54t-87-54q-11-22-12-56h198z" horiz-adv-x="548" vert-adv-y="1000"/><glyph glyph-name="uni66" unicode="f" d="M315 407h-96V0H89v407H35v99h54v65q0 61 39 105t113 44h74V610h-51q-45 0-45-47v-57h96v-99z" horiz-adv-x="342" vert-adv-y="1000"/><glyph glyph-name="uni67" unicode="g" d="M482 19q0-95-62.5-155.5T253-197q-62 0-106 15t-83 53l81 82q41-40 102-40 54 0 79.5 31.5T352 21v53q-47-52-124-52-78 0-124 46-34 34-43.5 80.5T51 275q0 80 9.5 126t43.5 80q46 46 125 46 77 0 127-55v49h126V19M352 275q0 63-17 99t-69 36q-28 0-45.5-10.5t-26-31.5q-8.5-21-11-42t-2.5-51q0-30 2.5-51t10.5-42q8-21 26-32t46-11q28 0 46 11t26 32q8 21 11 42t3 51z" horiz-adv-x="555" vert-adv-y="1000"/><glyph glyph-name="uni68" unicode="h" d="M506 0H376v315q0 49-25.5 72T290 410q-36 0-61.5-23T203 315V0H73v712h130V473q49 54 127 54 77 0 123-46 53-53 53-148V0z" horiz-adv-x="573" vert-adv-y="1000"/><glyph glyph-name="uni69" unicode="i" d="M203 0H73v506h130V0m1 610H71v106h133V610z" horiz-adv-x="275" vert-adv-y="1000"/><glyph glyph-name="uni6a" unicode="j" d="M203-46q0-61-38.5-105T51-195h-74v110h50q46 0 46 47v544h130V-46m1 656H71v106h133V610z" horiz-adv-x="275" vert-adv-y="1000"/><glyph glyph-name="uni6b" unicode="k" d="M547 0H386L258 217l-55-62V0H73v712h130V308l173 213h157L347 311 547 0z" horiz-adv-x="559" vert-adv-y="1000"/><glyph glyph-name="uni6c" unicode="l" d="M294 0h-74q-75 0-113.5 44T68 149v563h130V157q0-47 46-47h50V0z" horiz-adv-x="325" vert-adv-y="1000"/><glyph glyph-name="uni6d" unicode="m" d="M809 0H679v315q0 49-25.5 72T593 410q-35 0-61-22.5T506 318V0H376v315q0 49-25.5 72T290 410q-36 0-61.5-23T203 315V0H73v521h127v-48q52 54 130 54 90 0 138-66 63 66 156 66 82 0 128-46 57-57 57-148V0z" horiz-adv-x="876" vert-adv-y="1000"/><glyph glyph-name="uni6e" unicode="n" d="M506 0H376v315q0 49-25.5 72T290 410q-36 0-61.5-23T203 315V0H73v521h127v-48q51 54 130 54 77 0 123-46 53-53 53-148V0z" horiz-adv-x="573" vert-adv-y="1000"/><glyph glyph-name="uni6f" unicode="o" d="M492 261q0-75-12.5-121.5T433 58Q371-6 271-6q-99 0-161 64-34 36-46.5 82.5T51 261q0 74 12.5 120t46.5 82q62 64 161 64 102 0 162-64 34-36 46.5-82T492 261m-130 0q0 97-30 126-23 23-61 23-37 0-60-23-30-29-30-126 0-98 30-127 23-23 60-23 38 0 61 23 30 29 30 127z" horiz-adv-x="543" vert-adv-y="1000"/><glyph glyph-name="uni70" unicode="p" d="M509 261q0-81-10-133t-44-87Q410-6 329-6T203 46v-237H73v712h126v-49q49 55 130 55t126-47q34-35 44-87t10-132m-133-59.5l1.5 11.75Q379 225 379 261t-3 59.5q-3 23.5-11.5 45.5t-27 33Q319 410 291 410t-46.5-11q-18.5-11-27-33T206 320.5q-3-23.5-3-59.5t3-59.5q3-23.5 11.5-46t27-33.5q18.5-11 46.5-11t46.5 11q18.5 11 27 33.5t11.5 46z" horiz-adv-x="560" vert-adv-y="1000"/><glyph glyph-name="uni71" unicode="q" d="M488-191H358V46Q311-6 231-6q-81 0-126 47-34 35-44 87T51 261q0 80 10 132t44 87q45 47 127 47 80 0 129-55v49h127v-712M358 261q0 73-17.5 111T269 410q-28 0-46.5-11t-27-33q-8.5-22-11.5-45.5t-3-59.5q0-36 3-59.5t11.5-46q8.5-22.5 27-33.5t46.5-11q54 0 71.5 38T358 261z" horiz-adv-x="561" vert-adv-y="1000"/><glyph glyph-name="uni72" unicode="r" d="M454 478l-98-99q-31 31-69 31-33 0-58.5-25T203 314V0H73v521h127v-50q20 24 55.5 40t75.5 16q74 0 123-49z" horiz-adv-x="455" vert-adv-y="1000"/><glyph glyph-name="uni73" unicode="s" d="M465 164q0-83-62-126.5T244-6Q172-6 120 9T22 69l85 85q48-49 139-49 38 0 65 13.5t27 40.5q0 43-55 48l-84 8Q49 230 49 361q0 78 58.5 122T250 527q133 0 199-61l-80-81q-39 35-121 35-37 0-55.5-14.5T174 370q0-39 54-45l82-8q155-15 155-153z" horiz-adv-x="501" vert-adv-y="1000"/><glyph glyph-name="uni74" unicode="t" d="M307 0h-71q-74 0-112.5 44T85 149v258H30v99h55v154h130V506h92v-99h-92V157q0-47 45-47h47V0z" horiz-adv-x="352" vert-adv-y="1000"/><glyph glyph-name="uni75" unicode="u" d="M500 0H373v48Q322-6 243-6q-77 0-123 46-53 53-53 148v333h130V206q0-49 25.5-72t60.5-23q36 0 61.5 23t25.5 72v315h130V0z" horiz-adv-x="573" vert-adv-y="1000"/><glyph glyph-name="uni76" unicode="v" d="M489 521L298 0H196L4 521h137l106-322 105 322h137z" horiz-adv-x="493" vert-adv-y="1000"/><glyph glyph-name="uni77" unicode="w" d="M755 521L596 0H489L380 327 271 0H164L4 521h138l84-322 106 322h95l107-322 84 322h137z" horiz-adv-x="759" vert-adv-y="1000"/><glyph glyph-name="uni78" unicode="x" d="M515 0H359l-96 156L168 0H12l180 266L19 521h156l88-149 89 149h156L335 266 515 0z" horiz-adv-x="527" vert-adv-y="1000"/><glyph glyph-name="uni79" unicode="y" d="M490 521L267-84q-17-45-39-67-40-40-112-40H65v117h30q28 0 41.5 9.5T160-27l22 64L4 521h137l108-322 104 322h137z" horiz-adv-x="494" vert-adv-y="1000"/><glyph glyph-name="uni7a" unicode="z" d="M434 0H37v99l231 305H50v117h384v-99L200 117h234V0z" horiz-adv-x="478" vert-adv-y="1000"/><glyph glyph-name="uni7b" unicode="{" d="M414-74H312q-75 0-112 37-42 42-42 111v145q0 43-17 60-19 19-52 19H43v116h46q33 0 52 19 17 17 17 60v145q0 69 42 111 37 37 112 37h102V669h-53q-43 0-57-14-16-17-16-64V456q0-33-13-55.5t-25-30q-12-7.5-31-14.5 19-7 31-14.5t25-30q13-22.5 13-55.5V121q0-47 16-64 14-14 57-14h53V-74z" horiz-adv-x="457" vert-adv-y="1000"/><glyph glyph-name="uni7c" unicode="|" d="M240-74H110v860h130V-74z" horiz-adv-x="350" vert-adv-y="1000"/><glyph glyph-name="uni7d" unicode="}" d="M414 298h-46q-33 0-52-19-17-17-17-60V74q0-69-42-111-37-37-112-37H43V43h53q43 0 57 14 16 17 16 64v135q0 33 13 55.5t25 30q12 7.5 31 14.5-19 7-31 14.5t-25 30Q169 423 169 456v135q0 47-16 64-14 14-57 14H43v117h102q75 0 112-37 42-42 42-111V493q0-43 17-60 19-19 52-19h46V298z" horiz-adv-x="457" vert-adv-y="1000"/><glyph glyph-name="uni7e" unicode="~" d="M569 281q-47-47-83.5-66.5T404 195q-53 0-117 34-46 24-82 24-44 0-86-42l-82 82q48 48 83.5 67t80.5 19q53 0 117-34 46-24 81-24 45 0 87 42l83-82z" horiz-adv-x="606" vert-adv-y="1000"/><glyph glyph-name="unia1" unicode="¡" d="M236-191H75l32 489h97l32-489m-12 579H87v133h137V388z" horiz-adv-x="347" vert-adv-y="1000"/><glyph glyph-name="unia2" unicode="¢" d="M469 180q-58-61-136-75V0H232v105q-83 17-134 83.5T47 366q0 111 51 177.5T232 627v85h101v-85q78-14 136-75l-86-84q-31 32-64 41V223q33 9 64 41l86-84m-223 45v282q-21-6-38-26-31-39-31-115t31-115q15-20 38-26z" horiz-adv-x="499" vert-adv-y="1000"/><glyph glyph-name="unia3" unicode="£" d="M534 0H101v297H40v100h61v81q0 113 73 176.5T352 718q58 0 100.5-17t81.5-56l-91-91q-40 40-91 40-52 0-82.5-31T239 472v-75h113V297H239V124h295V0z" horiz-adv-x="579" vert-adv-y="1000"/><glyph glyph-name="unia4" unicode="¤" d="M610 96l-85-86-74 73q-54-32-117-32-62 0-116 32l-74-73-86 86 74 73q-33 56-33 117t33 117l-74 73 86 86 74-73q54 32 116 32 63 0 117-32l74 73 85-86-73-73q32-54 32-117t-32-117l73-73M417.5 203l17.25 17Q452 237 452 286t-34.5 83Q383 403 334 403t-83-34q-34-34-34-83t34-83q34-34 83-34t83.5 34z" horiz-adv-x="669" vert-adv-y="1000"/><glyph glyph-name="unia5" unicode="¥" d="M568 712L432 442h74V342H381l-26-50v-51h151V141H355V0H217v141H65v100h152v51l-26 50H65v100h75L3 712h151l132-288 132 288h150z" horiz-adv-x="571" vert-adv-y="1000"/><glyph glyph-name="unia6" unicode="¦" d="M240 436H110v350h130V436m0-510H110v350h130V-74z" horiz-adv-x="353" vert-adv-y="1000"/><glyph glyph-name="unia7" unicode="§" d="M473 274q0-50-28-90t-62-59q81-41 81-139 0-87-58.5-135T266-197q-81 0-139.5 44.5T67-19h125q2-28 21.5-45.5T266-82q34 0 53.5 17.5T339-18q0 51-70 74l-62 21q-75 25-110.5 68T61 265q0 51 28 90.5t63 58.5q-76 40-76 131 0 73 50 123t142 50q94 0 142.5-48T460 546H338q-3 61-70 61-34 0-52-16.5T198 548q0-44 67-66l62-20q75-24 110.5-68T473 274m-125-5q0 43-25 68-23 21-56 21-36 0-57-21-24-24-24-68 0-43 24-67 21-21 57-21 35 0 56 21 25 25 25 67z" horiz-adv-x="531" vert-adv-y="1000"/><glyph glyph-name="unia8" unicode="¨" d="M416 606H305v125h111V606m-221 0H84v125h111V606z" horiz-adv-x="500" vert-adv-y="1000"/><glyph glyph-name="unia9" unicode="©" d="M678 612l53-53q53-53 53-203T678 100Q572-6 422-6T166 100Q60 206 60 356t106 256q106 106 256 106t256-106m-60-456.5l39.5 40.25Q697 236 697 356t-79 200.5Q539 637 422 637t-196.5-80.5Q146 476 146 356t79.5-200.5Q305 75 422 75t196 80.5M561 212q-58-52-132-52-78 0-128.5 51.5T250 356q0 93 50.5 145T429 553q71 0 132-53l-56-56q-38 32-76 32-46 0-70-32t-24-88q0-56 24-88t70-32q38 0 76 32l56-56z" horiz-adv-x="844" vert-adv-y="1000"/><glyph glyph-name="uniaa" unicode="ª" d="M392 296H289v36q-40-40-101-40-69 0-105 38-35 35-35 92 0 53 36.5 87T190 543h97v20q0 34-18 49.5T210 628q-29 0-45.5-7.5T131 594l-67 65q30 33 64 45.5t87 12.5q177 0 177-147V296M287 449v23h-81q-27 0-41.5-12.5T150 425q0-46 57-46 45 0 65 19 15 14 15 51z" horiz-adv-x="454" vert-adv-y="1000"/><glyph glyph-name="uniab" unicode="«" d="M562 27L312 275l250 248V368l-96-93 96-93V27m-279 0L34 275l249 248V368l-94-93 94-93V27z" horiz-adv-x="628" vert-adv-y="1000"/><glyph glyph-name="uniac" unicode="¬" d="M497 94H376v145H46v121h451V94z" horiz-adv-x="543" vert-adv-y="1000"/><glyph glyph-name="uniad" unicode="­" d="M367 225H59v121h308V225z" horiz-adv-x="426" vert-adv-y="1000"/><glyph glyph-name="uniae" unicode="®" d="M678 612l53-53q53-53 53-203T678 100Q572-6 422-6T166 100Q60 206 60 356t106 256q106 106 256 106t256-106m-59.5-456.5l39.75 40.25Q698 236 698 356t-79.5 200.5Q539 637 422 637t-196.5-80.5Q146 476 146 356t79.5-200.5Q305 75 422 75t196.5 80.5M585 164h-98l-70 149h-41V164h-86v385h157q57 0 92.5-35.5T575 428q0-37-20-63.5T504 326l81-162M474 392.5l7.5 7.25Q489 407 489 428t-15 35.5Q459 478 436 478h-60V378h60q23 0 38 14.5z" horiz-adv-x="844" vert-adv-y="1000"/><glyph glyph-name="uniaf" unicode="¯" d="M408 623H91v88h317v-88z" horiz-adv-x="500" vert-adv-y="1000"/><glyph glyph-name="unib0" unicode="°" d="M423 542q0-76-53.5-130T239 358q-77 0-130.5 54T55 542q0 77 54 131t130 54q76 0 130-54t54-131m-128-57l11.5 11.5Q318 508 318 542t-23.5 57Q271 622 238 622t-55.5-23Q160 576 160 542t23-57q23-23 56-23t56 23z" horiz-adv-x="478" vert-adv-y="1000"/><glyph glyph-name="unib1" unicode="±" d="M493 341H333V180H211v161H50v121h161v161h122V462h160V341m0-341H50v122h443V0z" horiz-adv-x="543" vert-adv-y="1000"/><glyph glyph-name="unib2" unicode="²" d="M306 285H34v85l156 171q22 23 22 47 0 20-11 31.5T170 631q-42 0-42-44H34q0 60 38.5 94.5T170 716q60 0 98-34.5t38-93.5q0-30-12-51.5T254 484L149 370h157v-85z" horiz-adv-x="332" vert-adv-y="1000"/><glyph glyph-name="unib3" unicode="³" d="M310 412q0-63-40.5-97T169 281q-59 0-100 33t-41 99h94q0-23 13-35.5t34-12.5q21 0 34 13t13 37q0 21-13.5 34.5T167 463h-13v81h13q22 0 33 12.5t11 30.5q0 21-12 32.5T169 631q-18 0-30-11t-12-31H33q0 58 39 92.5t97 34.5q59 0 97.5-35.5T305 590q0-57-45-84 50-32 50-94z" horiz-adv-x="332" vert-adv-y="1000"/><glyph glyph-name="unib4" unicode="´" d="M396 774L282 604h-87l64 170h137z" horiz-adv-x="500" vert-adv-y="1000"/><glyph glyph-name="unib5" unicode="µ" d="M503 0H376v48Q325-6 246-6q-27 0-46 14v-199H70v712h130V206q0-49 25.5-72t60.5-23q36 0 61.5 23t25.5 72v315h130V0z" horiz-adv-x="576" vert-adv-y="1000"/><glyph glyph-name="unib6" unicode="¶" d="M585-191H455v779H355v-779H225v499q-76 0-133 59.5T35 509q0 97 62.5 150T266 712h319v-903z" horiz-adv-x="668" vert-adv-y="1000"/><glyph glyph-name="unib7" unicode="·" d="M217 212H68v148h149V212z" horiz-adv-x="285" vert-adv-y="1000"/><glyph glyph-name="unib8" unicode="¸" d="M325-60l-44-146H160l69 146h96z" horiz-adv-x="500" vert-adv-y="1000"/><glyph glyph-name="unib9" unicode="¹" d="M239 285h-95v321l-90-78v106l90 78h95V285z" horiz-adv-x="332" vert-adv-y="1000"/><glyph glyph-name="uniba" unicode="º" d="M396.5 600l5.25-18.5Q407 563 407 504t-10-95.5Q387 372 359 343q-49-51-128-51t-128 51q-28 29-38 65.5T55 504q0 59 10.5 96t37.5 66q49 51 128 51t128-51q27-29 37.5-66M302 504q0 78-23 101-18 18-48 18t-48-18q-23-23-23-101 0-77 23-100 18-18 48-18t48 18q23 23 23 100z" horiz-adv-x="462" vert-adv-y="1000"/><glyph glyph-name="unibb" unicode="»" d="M595 275L345 27v155l94 93-94 93v155l250-248m-279 0L67 27v155l95 93-95 93v155l249-248z" horiz-adv-x="628" vert-adv-y="1000"/><glyph glyph-name="unibc" unicode="¼" d="M239 285h-95v321l-90-78v106l90 78h95V285m416 427L318 0H217l337 712h101M857 57h-33V0h-90v57H558v89l143 281h103L660 146h74v62h90v-62h33V57z" horiz-adv-x="872" vert-adv-y="1000"/><glyph glyph-name="unibd" unicode="½" d="M239 285h-95v321l-90-78v106l90 78h95V285m416 427L318 0H217l337 712h101M846 0H574v85l156 171q22 23 22 47 0 20-11 31.5T710 346q-42 0-42-44h-94q0 60 38.5 94.5T710 431q60 0 98-34.5t38-93.5q0-30-12-51.5T794 199L689 85h157V0z" horiz-adv-x="872" vert-adv-y="1000"/><glyph glyph-name="unibe" unicode="¾" d="M310 412q0-63-40.5-97T169 281q-59 0-100 33t-41 99h94q0-23 13-35.5t34-12.5q21 0 34 13t13 37q0 21-13.5 34.5T167 463h-13v81h13q22 0 33 12.5t11 30.5q0 21-12 32.5T169 631q-18 0-30-11t-12-31H33q0 58 39 92.5t97 34.5q59 0 97.5-35.5T305 590q0-57-45-84 50-32 50-94m345 300L318 0H217l337 712h101M857 57h-33V0h-90v57H558v89l143 281h103L660 146h74v62h90v-62h33V57z" horiz-adv-x="872" vert-adv-y="1000"/><glyph glyph-name="unibf" unicode="¿" d="M457 4q0-91-60.5-146T246-197q-88 0-149 54T36 3q0 60 49 125l74 99q18 23 18 51v20h130v-30q0-54-38-104l-74-95q-29-38-29-67 0-36 21.5-59T246-80q38 0 59.5 24T327 4h130M311 388H173v133h138V388z" horiz-adv-x="523" vert-adv-y="1000"/><glyph glyph-name="unic0" unicode="À" d="M633 0H488l-42 126H193L150 0H5l259 712h109L633 0M409 243l-87 259-90-259h177m-37 538h-87L171 951h137l64-170z" horiz-adv-x="638" vert-adv-y="1000"/><glyph glyph-name="unic1" unicode="Á" d="M633 0H488l-42 126H193L150 0H5l259 712h109L633 0M409 243l-87 259-90-259h177m54 708L349 781h-87l64 170h137z" horiz-adv-x="638" vert-adv-y="1000"/><glyph glyph-name="unic2" unicode="Â" d="M633 0H488l-42 126H193L150 0H5l259 712h109L633 0M409 243l-87 259-90-259h177m92 538H400l-83 91-83-91H133l132 169h104l132-169z" horiz-adv-x="638" vert-adv-y="1000"/><glyph glyph-name="unic3" unicode="Ã" d="M633 0H488l-42 126H193L150 0H5l259 712h109L633 0M409 243l-87 259-90-259h177m88 606q-59-59-113-59-40 0-78 23-31 18-56 18-29 0-58-29l-56 57q58 59 112 59 39 0 77-23 30-18 55-18 30 0 59 29l58-57z" horiz-adv-x="638" vert-adv-y="1000"/><glyph glyph-name="unic4" unicode="Ä" d="M633 0H488l-42 126H193L150 0H5l259 712h109L633 0M409 243l-87 259-90-259h177m76 540H374v125h111V783m-221 0H153v125h111V783z" horiz-adv-x="638" vert-adv-y="1000"/><glyph glyph-name="unic5" unicode="Å" d="M633 0H488l-42 126H193L150 0H5l259 712h109L633 0M409 243l-87 259-90-259h177m39 641q0-54-38.5-92.5T317 753q-54 0-92.5 38.5T186 884q0 54 38.5 92.5T317 1015q54 0 92.5-38t38.5-93m-90-41.5l8.5 8.75Q375 860 375 884t-17 41q-17 17-41 17t-41-17q-17-17-17-41t17-41.5q17-17.5 41-17.5t41 17.5z" horiz-adv-x="638" vert-adv-y="1000"/><glyph glyph-name="unic6" unicode="Æ" d="M926 0H458v156H233L152 0H3l372 712h551V588H596V420h282V296H596V124h330V0M458 273v315L293 273h165z" horiz-adv-x="979" vert-adv-y="1000"/><glyph glyph-name="unic7" unicode="Ç" d="M583 219q-19-109-89-167T322-6Q208-6 131 69q-49 49-60.5 107.5T59 356q0 121 11.5 179.5T131 643q77 75 191 75 102 0 172-58t89-167H441q-24 101-119 101-57 0-89-37-20-23-27.5-62.5T198 356q0-99 7.5-138.5T233 155q32-37 89-37 96 0 120 101h141M379-60l-44-146H214l69 146h96z" horiz-adv-x="620" vert-adv-y="1000"/><glyph glyph-name="unic8" unicode="È" d="M552 0H83v712h469V588H222V421h281V297H222V124h330V0M365 781h-87L164 951h137l64-170z" horiz-adv-x="605" vert-adv-y="1000"/><glyph glyph-name="unic9" unicode="É" d="M552 0H83v712h469V588H222V421h281V297H222V124h330V0m-97 951L341 781h-87l64 170h137z" horiz-adv-x="605" vert-adv-y="1000"/><glyph glyph-name="unica" unicode="Ê" d="M552 0H83v712h469V588H222V421h281V297H222V124h330V0m-58 781H393l-83 91-83-91H126l132 169h104l132-169z" horiz-adv-x="605" vert-adv-y="1000"/><glyph glyph-name="unicb" unicode="Ë" d="M552 0H83v712h469V588H222V421h281V297H222V124h330V0m-76 783H365v125h111V783m-221 0H144v125h111V783z" horiz-adv-x="605" vert-adv-y="1000"/><glyph glyph-name="unicc" unicode="Ì" d="M222 0H83v712h139V0m0 781h-87L21 951h137l64-170z" horiz-adv-x="305" vert-adv-y="1000"/><glyph glyph-name="unicd" unicode="Í" d="M222 0H83v712h139V0m62 951L170 781H83l64 170h137z" horiz-adv-x="305" vert-adv-y="1000"/><glyph glyph-name="unice" unicode="Î" d="M222 0H83v712h139V0m114 781H235l-83 91-83-91H-32l132 169h104l132-169z" horiz-adv-x="305" vert-adv-y="1000"/><glyph glyph-name="unicf" unicode="Ï" d="M222 0H83v712h139V0m97 783H208v125h111V783m-221 0H-13v125H98V783z" horiz-adv-x="305" vert-adv-y="1000"/><glyph glyph-name="unid0" unicode="Ð" d="M615.5 513.5l3.75-26.25Q623 461 623 356t-7.5-157.5Q608 146 578 104 503 0 363 0H106v306H37v106h69v300h257q140 0 215-104 30-42 37.5-94.5M479 228l2.5 19q2.5 19 2.5 109t-5 128q-5 38-24 60-35 44-104 44H245V412h116V306H245V124h106q69 0 104 44 19 22 24 60z" horiz-adv-x="682" vert-adv-y="1000"/><glyph glyph-name="unid1" unicode="Ñ" d="M628 0H504L222 437V0H83v712h124l282-436v436h139V0m-92 849q-59-59-113-59-40 0-78 23-31 18-56 18-29 0-58-29l-56 57q58 59 112 59 39 0 77-23 30-18 55-18 30 0 59 29l58-57z" horiz-adv-x="711" vert-adv-y="1000"/><glyph glyph-name="unid2" unicode="Ò" d="M573 535l6-29.5q6-29.5 6-149.5t-12-179q-12-59-61-108Q437-6 322-6 206-6 131 69q-49 49-60.5 107.5T59 356q0 121 11.5 179.5T131 643q75 75 191 75 115 0 190-75 49-49 61-108M446 356q0 99-7.5 138T411 556q-33 38-89 38-55 0-90-38-20-23-27-62t-7-138q0-99 7-137.5t27-61.5q36-39 90-39 55 0 89 39 20 24 27.5 62.5T446 356m-69 425h-87L176 951h137l64-170z" horiz-adv-x="644" vert-adv-y="1000"/><glyph glyph-name="unid3" unicode="Ó" d="M573 535l6-29.5q6-29.5 6-149.5t-12-179q-12-59-61-108Q437-6 322-6 206-6 131 69q-49 49-60.5 107.5T59 356q0 121 11.5 179.5T131 643q75 75 191 75 115 0 190-75 49-49 61-108M446 356q0 99-7.5 138T411 556q-33 38-89 38-55 0-90-38-20-23-27-62t-7-138q0-99 7-137.5t27-61.5q36-39 90-39 55 0 89 39 20 24 27.5 62.5T446 356m22 595L354 781h-87l64 170h137z" horiz-adv-x="644" vert-adv-y="1000"/><glyph glyph-name="unid4" unicode="Ô" d="M573 535l6-29.5q6-29.5 6-149.5t-12-179q-12-59-61-108Q437-6 322-6 206-6 131 69q-49 49-60.5 107.5T59 356q0 121 11.5 179.5T131 643q75 75 191 75 115 0 190-75 49-49 61-108M446 356q0 99-7.5 138T411 556q-33 38-89 38-55 0-90-38-20-23-27-62t-7-138q0-99 7-137.5t27-61.5q36-39 90-39 55 0 89 39 20 24 27.5 62.5T446 356m60 425H405l-83 91-83-91H138l132 169h104l132-169z" horiz-adv-x="644" vert-adv-y="1000"/><glyph glyph-name="unid5" unicode="Õ" d="M573 535l6-29.5q6-29.5 6-149.5t-12-179q-12-59-61-108Q437-6 322-6 206-6 131 69q-49 49-60.5 107.5T59 356q0 121 11.5 179.5T131 643q75 75 191 75 115 0 190-75 49-49 61-108M446 356q0 99-7.5 138T411 556q-33 38-89 38-55 0-90-38-20-23-27-62t-7-138q0-99 7-137.5t27-61.5q36-39 90-39 55 0 89 39 20 24 27.5 62.5T446 356m56 493q-59-59-113-59-40 0-78 23-31 18-56 18-29 0-58-29l-56 57q58 59 112 59 39 0 77-23 30-18 55-18 30 0 59 29l58-57z" horiz-adv-x="644" vert-adv-y="1000"/><glyph glyph-name="unid6" unicode="Ö" d="M573 535l6-29.5q6-29.5 6-149.5t-12-179q-12-59-61-108Q437-6 322-6 206-6 131 69q-49 49-60.5 107.5T59 356q0 121 11.5 179.5T131 643q75 75 191 75 115 0 190-75 49-49 61-108M446 356q0 99-7.5 138T411 556q-33 38-89 38-55 0-90-38-20-23-27-62t-7-138q0-99 7-137.5t27-61.5q36-39 90-39 55 0 89 39 20 24 27.5 62.5T446 356m42 427H377v125h111V783m-221 0H156v125h111V783z" horiz-adv-x="644" vert-adv-y="1000"/><glyph glyph-name="unid7" unicode="×" d="M494 145l-82-82-141 141L131 63l-82 82 141 141L49 427l82 82 140-141 141 141 82-82-141-141 141-141z" horiz-adv-x="543" vert-adv-y="1000"/><glyph glyph-name="unid8" unicode="Ø" d="M573 535l6-29.5q6-29.5 6-149.5t-12-179q-12-59-61-108Q437-6 322-6q-65 0-113 21l-29-59H81l53 110-3 3q-49 49-60.5 107.5T59 356q0 121 11.5 179.5T131 643q75 75 191 75 61 0 113-22l29 60h98l-53-110 3-3q49-49 61-108M446 356q0 109-10 150L258 135q28-17 64-17 55 0 89 39 20 24 27.5 62.5T446 356m-248 0q0-113 9-150l178 371q-28 17-63 17-55 0-90-38-20-23-27-62t-7-138z" horiz-adv-x="644" vert-adv-y="1000"/><glyph glyph-name="unid9" unicode="Ù" d="M596 244q0-111-75-180.5T334-6Q222-6 147 63.5T72 244v468h139V249q0-61 33-96t90-35q57 0 90.5 35t33.5 96v463h138V244M389 781h-87L188 951h137l64-170z" horiz-adv-x="668" vert-adv-y="1000"/><glyph glyph-name="unida" unicode="Ú" d="M596 244q0-111-75-180.5T334-6Q222-6 147 63.5T72 244v468h139V249q0-61 33-96t90-35q57 0 90.5 35t33.5 96v463h138V244M480 951L366 781h-87l64 170h137z" horiz-adv-x="668" vert-adv-y="1000"/><glyph glyph-name="unidb" unicode="Û" d="M596 244q0-111-75-180.5T334-6Q222-6 147 63.5T72 244v468h139V249q0-61 33-96t90-35q57 0 90.5 35t33.5 96v463h138V244m-78 537H417l-83 91-83-91H150l132 169h104l132-169z" horiz-adv-x="668" vert-adv-y="1000"/><glyph glyph-name="unidc" unicode="Ü" d="M596 244q0-111-75-180.5T334-6Q222-6 147 63.5T72 244v468h139V249q0-61 33-96t90-35q57 0 90.5 35t33.5 96v463h138V244m-96 539H389v125h111V783m-221 0H168v125h111V783z" horiz-adv-x="668" vert-adv-y="1000"/><glyph glyph-name="unidd" unicode="Ý" d="M569 712L355 292V0H217v292L3 712h151l133-287 131 287h151M431 951L317 781h-87l64 170h137z" horiz-adv-x="572" vert-adv-y="1000"/><glyph glyph-name="unide" unicode="Þ" d="M530 517.5l32-31.75Q594 454 594 360t-64-158q-64-64-171-64H222V0H83v712h139V581h137q107 0 171-63.5M427 289l14 13.5q14 13.5 14 57.5t-28 70.5Q399 457 352 457H222V262h130q47 0 75 27z" horiz-adv-x="633" vert-adv-y="1000"/><glyph glyph-name="unidf" unicode="ß" d="M516 161q0-76-41-119Q435 0 349 0h-52v110h26q27 0 44 15 18 15 18 47v144q0 30-15 45-15 16-45 16h-28v102h28q26 0 43 15t17 45q0 28-19 46-23 20-70 20-50 0-71.5-23.5T203 511V0H73v521q0 100 61.5 148.5T298 718q99 0 158-44t59-131q0-76-61-113 62-30 62-109V161z" horiz-adv-x="574" vert-adv-y="1000"/><glyph glyph-name="unie0" unicode="à" d="M467 0H340v45q-27-27-55.5-38.5T212-5Q125-5 79 41 36 86 36 158q0 66 46 108.5T216 309h121v26q0 43-23 62.5T240 417q-61 0-100-45l-82 81q38 42 79.5 58T245 527q222 0 222-184V0M337 192v28h-99q-77 0-77-60 0-59 79-59 51 0 77 25 20 17 20 66m-21 412h-87L115 774h137l64-170z" horiz-adv-x="534" vert-adv-y="1000"/><glyph glyph-name="unie1" unicode="á" d="M467 0H340v45q-27-27-55.5-38.5T212-5Q125-5 79 41 36 86 36 158q0 66 46 108.5T216 309h121v26q0 43-23 62.5T240 417q-61 0-100-45l-82 81q38 42 79.5 58T245 527q222 0 222-184V0M337 192v28h-99q-77 0-77-60 0-59 79-59 51 0 77 25 20 17 20 66m70 582L293 604h-87l64 170h137z" horiz-adv-x="534" vert-adv-y="1000"/><glyph glyph-name="unie2" unicode="â" d="M467 0H340v45q-27-27-55.5-38.5T212-5Q125-5 79 41 36 86 36 158q0 66 46 108.5T216 309h121v26q0 43-23 62.5T240 417q-61 0-100-45l-82 81q38 42 79.5 58T245 527q222 0 222-184V0M337 192v28h-99q-77 0-77-60 0-59 79-59 51 0 77 25 20 17 20 66m108 412H344l-83 91-83-91H77l132 169h104l132-169z" horiz-adv-x="534" vert-adv-y="1000"/><glyph glyph-name="unie3" unicode="ã" d="M467 0H340v45q-27-27-55.5-38.5T212-5Q125-5 79 41 36 86 36 158q0 66 46 108.5T216 309h121v26q0 43-23 62.5T240 417q-61 0-100-45l-82 81q38 42 79.5 58T245 527q222 0 222-184V0M337 192v28h-99q-77 0-77-60 0-59 79-59 51 0 77 25 20 17 20 66m99 479q-58-58-113-58-39 0-77 22-31 18-56 18-30 0-58-28l-57 57q58 58 112 58 40 0 78-22 30-19 55-19 29 0 58 29l58-57z" horiz-adv-x="534" vert-adv-y="1000"/><glyph glyph-name="unie4" unicode="ä" d="M467 0H340v45q-27-27-55.5-38.5T212-5Q125-5 79 41 36 86 36 158q0 66 46 108.5T216 309h121v26q0 43-23 62.5T240 417q-61 0-100-45l-82 81q38 42 79.5 58T245 527q222 0 222-184V0M337 192v28h-99q-77 0-77-60 0-59 79-59 51 0 77 25 20 17 20 66m91 414H317v125h111V606m-221 0H96v125h111V606z" horiz-adv-x="534" vert-adv-y="1000"/><glyph glyph-name="unie5" unicode="å" d="M467 0H340v45q-27-27-55.5-38.5T212-5Q125-5 79 41 36 86 36 158q0 66 46 108.5T216 309h121v26q0 43-23 62.5T240 417q-61 0-100-45l-82 81q38 42 79.5 58T245 527q222 0 222-184V0M337 192v28h-99q-77 0-77-60 0-59 79-59 51 0 77 25 20 17 20 66m55 523q0-54-38.5-92.5T261 584q-54 0-92.5 38.5T130 715q0 54 38.5 92.5T261 846q54 0 92.5-38t38.5-93m-90-41.5l8.5 8.75Q319 691 319 715t-17 41q-17 17-41 17t-41-17q-17-17-17-41t17-41.5q17-17.5 41-17.5t41 17.5z" horiz-adv-x="534" vert-adv-y="1000"/><glyph glyph-name="unie6" unicode="æ" d="M337 192v28h-99q-77 0-77-60 0-59 79-59 51 0 77 25 20 17 20 66m326 117q-1 34-12 56-23 54-87 54t-87-54q-10-22-12-56h198M395 67q-39-41-78.5-57T212-6Q126-6 79 41 36 86 36 158q0 66 46 108.5T216 309h121v26q0 43-23 62.5T240 417q-61 0-100-45l-82 81q38 42 79.5 58T245 527q119 0 171-57 54 57 148 57 107 0 167-69.5T791 275v-55H465q0-52 30-84t84-32q40 0 65.5 11.5T697 153l79-77q-42-43-86.5-62.5T578-6Q458-6 395 67z" horiz-adv-x="838" vert-adv-y="1000"/><glyph glyph-name="unie7" unicode="ç" d="M452 65Q384-6 280-6q-33 0-64 7.5t-62.5 26Q122 46 99 75.5t-37.5 77Q47 200 47 261t14.5 108.5Q76 417 99 446t54.5 48q31.5 19 62.5 26t64 7q105 0 172-70l-88-88q-38 41-84 41t-74-34q-29-36-29-115 0-80 29-116 28-34 74-34t84 41l88-87M325-60l-44-146H160l69 146h96z" horiz-adv-x="480" vert-adv-y="1000"/><glyph glyph-name="unie8" unicode="è" d="M501 220H175q0-52 30-84t84-32q40 0 65.5 11.5T407 153l79-77q-42-43-86.5-62.5T288-6q-50 0-90.5 12.5T122 48q-35 29-55 83T47 261q0 125 62 195.5T274 527q107 0 167-69.5T501 275v-55m-128 89q-1 34-12 56-24 54-87 54t-87-54q-11-22-12-56h198m-41 295h-87L131 774h137l64-170z" horiz-adv-x="548" vert-adv-y="1000"/><glyph glyph-name="unie9" unicode="é" d="M501 220H175q0-52 30-84t84-32q40 0 65.5 11.5T407 153l79-77q-42-43-86.5-62.5T288-6q-50 0-90.5 12.5T122 48q-35 29-55 83T47 261q0 125 62 195.5T274 527q107 0 167-69.5T501 275v-55m-128 89q-1 34-12 56-24 54-87 54t-87-54q-11-22-12-56h198m50 465L309 604h-87l64 170h137z" horiz-adv-x="548" vert-adv-y="1000"/><glyph glyph-name="uniea" unicode="ê" d="M501 220H175q0-52 30-84t84-32q40 0 65.5 11.5T407 153l79-77q-42-43-86.5-62.5T288-6q-50 0-90.5 12.5T122 48q-35 29-55 83T47 261q0 125 62 195.5T274 527q107 0 167-69.5T501 275v-55m-128 89q-1 34-12 56-24 54-87 54t-87-54q-11-22-12-56h198m88 295H360l-83 91-83-91H93l132 169h104l132-169z" horiz-adv-x="548" vert-adv-y="1000"/><glyph glyph-name="unieb" unicode="ë" d="M501 220H175q0-52 30-84t84-32q40 0 65.5 11.5T407 153l79-77q-42-43-86.5-62.5T288-6q-50 0-90.5 12.5T122 48q-35 29-55 83T47 261q0 125 62 195.5T274 527q107 0 167-69.5T501 275v-55m-128 89q-1 34-12 56-24 54-87 54t-87-54q-11-22-12-56h198m70 297H332v125h111V606m-221 0H111v125h111V606z" horiz-adv-x="548" vert-adv-y="1000"/><glyph glyph-name="uniec" unicode="ì" d="M203 0H73v506h130V0m-1 604h-87L1 774h137l64-170z" horiz-adv-x="275" vert-adv-y="1000"/><glyph glyph-name="unied" unicode="í" d="M203 0H73v506h130V0m70 774L159 604H72l64 170h137z" horiz-adv-x="275" vert-adv-y="1000"/><glyph glyph-name="uniee" unicode="î" d="M203 0H73v506h130V0m118 604H220l-83 91-83-91H-47L85 773h104l132-169z" horiz-adv-x="275" vert-adv-y="1000"/><glyph glyph-name="unief" unicode="ï" d="M203 0H73v506h130V0m101 606H193v125h111V606m-221 0H-28v125H83V606z" horiz-adv-x="275" vert-adv-y="1000"/><glyph glyph-name="unif0" unicode="ð" d="M486 254q0-73-12.5-118T428 56Q368-6 271-6T114 56q-33 35-45.5 80T56 254q0 72 12.5 117t45.5 80q32 34 89 49 29 8 58 8 12 0 18-1l-34 62H131v91h68l-31 60h139l31-60h92v-91h-46l40-77q37-72 49.5-119T486 254m-130 0q0 92-27 120-22 22-58 22-35 0-57-22-28-29-28-120 0-92 28-121 22-22 57-22 36 0 58 22 27 28 27 121z" horiz-adv-x="543" vert-adv-y="1000"/><glyph glyph-name="unif1" unicode="ñ" d="M506 0H376v315q0 49-25.5 72T290 410q-36 0-61.5-23T203 315V0H73v521h127v-48q51 54 130 54 77 0 123-46 53-53 53-148V0m-41 671q-58-58-113-58-38 0-77 22-31 18-56 18-30 0-58-28l-57 57q58 58 112 58 40 0 78-22 30-19 55-19 29 0 58 29l58-57z" horiz-adv-x="573" vert-adv-y="1000"/><glyph glyph-name="unif2" unicode="ò" d="M492 261q0-75-12.5-121.5T433 58Q371-6 271-6q-99 0-161 64-34 36-46.5 82.5T51 261q0 74 12.5 120t46.5 82q62 64 161 64 102 0 162-64 34-36 46.5-82T492 261m-130 0q0 97-30 126-23 23-61 23-37 0-60-23-30-29-30-126 0-98 30-127 23-23 60-23 38 0 61 23 30 29 30 127m-39 343h-87L122 774h137l64-170z" horiz-adv-x="543" vert-adv-y="1000"/><glyph glyph-name="unif3" unicode="ó" d="M492 261q0-75-12.5-121.5T433 58Q371-6 271-6q-99 0-161 64-34 36-46.5 82.5T51 261q0 74 12.5 120t46.5 82q62 64 161 64 102 0 162-64 34-36 46.5-82T492 261m-130 0q0 97-30 126-23 23-61 23-37 0-60-23-30-29-30-126 0-98 30-127 23-23 60-23 38 0 61 23 30 29 30 127m56 513L304 604h-87l64 170h137z" horiz-adv-x="543" vert-adv-y="1000"/><glyph glyph-name="unif4" unicode="ô" d="M492 261q0-75-12.5-121.5T433 58Q371-6 271-6q-99 0-161 64-34 36-46.5 82.5T51 261q0 74 12.5 120t46.5 82q62 64 161 64 102 0 162-64 34-36 46.5-82T492 261m-130 0q0 97-30 126-23 23-61 23-37 0-60-23-30-29-30-126 0-98 30-127 23-23 60-23 38 0 61 23 30 29 30 127m94 343H355l-83 91-83-91H88l132 169h104l132-169z" horiz-adv-x="543" vert-adv-y="1000"/><glyph glyph-name="unif5" unicode="õ" d="M492 261q0-75-12.5-121.5T433 58Q371-6 271-6q-99 0-161 64-34 36-46.5 82.5T51 261q0 74 12.5 120t46.5 82q62 64 161 64 102 0 162-64 34-36 46.5-82T492 261m-130 0q0 97-30 126-23 23-61 23-37 0-60-23-30-29-30-126 0-98 30-127 23-23 60-23 38 0 61 23 30 29 30 127m85 410q-58-58-113-58-38 0-77 22-31 18-56 18-30 0-58-28l-57 57q58 58 112 58 40 0 78-22 30-19 55-19 29 0 58 29l58-57z" horiz-adv-x="543" vert-adv-y="1000"/><glyph glyph-name="unif6" unicode="ö" d="M492 261q0-75-12.5-121.5T433 58Q371-6 271-6q-99 0-161 64-34 36-46.5 82.5T51 261q0 74 12.5 120t46.5 82q62 64 161 64 102 0 162-64 34-36 46.5-82T492 261m-130 0q0 97-30 126-23 23-61 23-37 0-60-23-30-29-30-126 0-98 30-127 23-23 60-23 38 0 61 23 30 29 30 127m76 345H327v125h111V606m-221 0H106v125h111V606z" horiz-adv-x="543" vert-adv-y="1000"/><glyph glyph-name="unif7" unicode="÷" d="M497 225H46v121h451V225M337 423H207v130h130V423m0-405H207v130h130V18z" horiz-adv-x="543" vert-adv-y="1000"/><glyph glyph-name="unif8" unicode="ø" d="M480 381l6-22.5q6-22.5 6-97.5t-12.5-121.5Q467 93 433 58 373-6 271-6q-58 0-104 23l-36-61H52l59 101q-35 37-47.5 82.5T51 261q0 74 12.5 120.5T110 463q60 64 161 64 61 0 105-22l35 60h80l-59-100q36-39 48-84M362 261q0 53-8 85L223 124q21-13 48-13 38 0 61 23 30 30 30 127m-42 136q-21 13-49 13-37 0-60-23-30-30-30-126 0-58 7-86l132 222z" horiz-adv-x="543" vert-adv-y="1000"/><glyph glyph-name="unif9" unicode="ù" d="M500 0H373v48Q322-6 243-6q-77 0-123 46-53 53-53 148v333h130V206q0-49 25.5-72t60.5-23q36 0 61.5 23t25.5 72v315h130V0M338 604h-87L137 774h137l64-170z" horiz-adv-x="573" vert-adv-y="1000"/><glyph glyph-name="unifa" unicode="ú" d="M500 0H373v48Q322-6 243-6q-77 0-123 46-53 53-53 148v333h130V206q0-49 25.5-72t60.5-23q36 0 61.5 23t25.5 72v315h130V0m-71 774L315 604h-87l64 170h137z" horiz-adv-x="573" vert-adv-y="1000"/><glyph glyph-name="unifb" unicode="û" d="M500 0H373v48Q322-6 243-6q-77 0-123 46-53 53-53 148v333h130V206q0-49 25.5-72t60.5-23q36 0 61.5 23t25.5 72v315h130V0m-33 604H366l-83 91-83-91H99l132 169h104l132-169z" horiz-adv-x="573" vert-adv-y="1000"/><glyph glyph-name="unifc" unicode="ü" d="M500 0H373v48Q322-6 243-6q-77 0-123 46-53 53-53 148v333h130V206q0-49 25.5-72t60.5-23q36 0 61.5 23t25.5 72v315h130V0m-50 606H339v125h111V606m-221 0H118v125h111V606z" horiz-adv-x="573" vert-adv-y="1000"/><glyph glyph-name="unifd" unicode="ý" d="M490 521L267-84q-17-45-39-67-40-40-112-40H65v117h30q28 0 41.5 9.5T160-27l22 64L4 521h137l108-322 104 322h137M390 774L276 604h-87l64 170h137z" horiz-adv-x="494" vert-adv-y="1000"/><glyph glyph-name="unife" unicode="þ" d="M499 393.5l5-25.75Q509 342 509 261t-10-133q-10-52-44-87Q410-6 329-6T203 46v-237H73v903h130V475q45 52 126 52t126-47q34-35 44-86.5m-123-192l1.5 11.75Q379 225 379 261t-3 59.5q-3 23.5-11.5 45.5t-27 33Q319 410 291 410t-46.5-11q-18.5-11-27-33T206 320.5q-3-23.5-3-59.5t3-59.5q3-23.5 11.5-46t27-33.5q18.5-11 46.5-11t46.5 11q18.5 11 27 33.5t11.5 46z" horiz-adv-x="562" vert-adv-y="1000"/><glyph glyph-name="uniff" unicode="ÿ" d="M490 521L267-84q-17-45-39-67-40-40-112-40H65v117h30q28 0 41.5 9.5T160-27l22 64L4 521h137l108-322 104 322h137m-75 85H304v125h111V606m-221 0H83v125h111V606z" horiz-adv-x="494" vert-adv-y="1000"/><glyph glyph-name="uni0100" unicode="Ā" d="M633 0H488l-42 126H193L150 0H5l259 712h109L633 0M409 243l-87 259-90-259h177M159 793v88h317v-88H159z" horiz-adv-x="638" vert-adv-y="1000"/><glyph glyph-name="uni0101" unicode="ā" d="M467 0H340v45q-27-27-55.5-38.5T212-5Q125-5 79 41 36 86 36 158q0 66 46 108.5T216 309h121v26q0 43-23 62.5T240 417q-61 0-100-45l-82 81q38 42 79.5 58T245 527q222 0 222-184V0M337 192v28h-99q-77 0-77-60 0-59 79-59 51 0 77 25 20 17 20 66m87 431H107v88h317v-88z" horiz-adv-x="534" vert-adv-y="1000"/><glyph glyph-name="uni0102" unicode="Ă" d="M633 0H488l-42 126H193L150 0H5l259 712h109L633 0M409 243l-87 259-90-259h177m73 687q-4-77-49-114t-115-37q-70 0-115.5 37T154 930h87q7-60 77-60t77 60h87z" horiz-adv-x="638" vert-adv-y="1000"/><glyph glyph-name="uni0103" unicode="ă" d="M467 0H340v45q-27-27-55.5-38.5T212-5Q125-5 79 41 36 86 36 158q0 66 46 108.5T216 309h121v26q0 43-23 62.5T240 417q-61 0-100-45l-82 81q38 42 79.5 58T245 527q222 0 222-184V0M337 192v28h-99q-77 0-77-60 0-59 79-59 51 0 77 25 20 17 20 66m82 556q-4-77-49-114t-115-37q-70 0-115.5 37T91 748h87q7-60 77-60t77 60h87z" horiz-adv-x="534" vert-adv-y="1000"/><glyph glyph-name="uni0104" unicode="Ą" d="M633 0H488l-42 126H193L150 0H5l259 712h109L633 0M409 243l-87 259-90-259h177M584-60l-44-146H419l69 146h96z" horiz-adv-x="638" vert-adv-y="1000"/><glyph glyph-name="uni0105" unicode="ą" d="M467 0H340v45q-27-27-55.5-38.5T212-5Q125-5 79 41 36 86 36 158q0 66 46 108.5T216 309h121v26q0 43-23 62.5T240 417q-61 0-100-45l-82 81q38 42 79.5 58T245 527q222 0 222-184V0M337 192v28h-99q-77 0-77-60 0-59 79-59 51 0 77 25 20 17 20 66m99-252l-44-146H271l69 146h96z" horiz-adv-x="534" vert-adv-y="1000"/><glyph glyph-name="uni0106" unicode="Ć" d="M583 219q-19-109-89-167T322-6Q208-6 131 69q-49 49-60.5 107.5T59 356q0 121 11.5 179.5T131 643q77 75 191 75 102 0 172-58t89-167H441q-24 101-119 101-57 0-89-37-20-23-27.5-62.5T198 356q0-99 7.5-138.5T233 155q32-37 89-37 96 0 120 101h141M456 951L342 781h-87l64 170h137z" horiz-adv-x="620" vert-adv-y="1000"/><glyph glyph-name="uni0107" unicode="ć" d="M452 65Q384-6 280-6q-33 0-64 7.5t-62.5 26Q122 46 99 75.5t-37.5 77Q47 200 47 261t14.5 108.5Q76 417 99 446t54.5 48q31.5 19 62.5 26t64 7q105 0 172-70l-88-88q-38 41-84 41t-74-34q-29-36-29-115 0-80 29-116 28-34 74-34t84 41l88-87m-41 709L297 604h-87l64 170h137z" horiz-adv-x="480" vert-adv-y="1000"/><glyph glyph-name="uni0108" unicode="Ĉ" d="M583 219q-19-109-89-167T322-6Q208-6 131 69q-49 49-60.5 107.5T59 356q0 121 11.5 179.5T131 643q77 75 191 75 102 0 172-58t89-167H441q-24 101-119 101-57 0-89-37-20-23-27.5-62.5T198 356q0-99 7.5-138.5T233 155q32-37 89-37 96 0 120 101h141m-77 562H405l-83 91-83-91H138l132 169h104l132-169z" horiz-adv-x="620" vert-adv-y="1000"/><glyph glyph-name="uni0109" unicode="ĉ" d="M452 65Q384-6 280-6q-33 0-64 7.5t-62.5 26Q122 46 99 75.5t-37.5 77Q47 200 47 261t14.5 108.5Q76 417 99 446t54.5 48q31.5 19 62.5 26t64 7q105 0 172-70l-88-88q-38 41-84 41t-74-34q-29-36-29-115 0-80 29-116 28-34 74-34t84 41l88-87m12 539H363l-83 91-83-91H96l132 169h104l132-169z" horiz-adv-x="480" vert-adv-y="1000"/><glyph glyph-name="uni010A" unicode="Ċ" d="M583 219q-19-109-89-167T322-6Q208-6 131 69q-49 49-60.5 107.5T59 356q0 121 11.5 179.5T131 643q77 75 191 75 102 0 172-58t89-167H441q-24 101-119 101-57 0-89-37-20-23-27.5-62.5T198 356q0-99 7.5-138.5T233 155q32-37 89-37 96 0 120 101h141M261 789v116h115V789H261z" horiz-adv-x="620" vert-adv-y="1000"/><glyph glyph-name="uni010B" unicode="ċ" d="M452 65Q384-6 280-6q-33 0-64 7.5t-62.5 26Q122 46 99 75.5t-37.5 77Q47 200 47 261t14.5 108.5Q76 417 99 446t54.5 48q31.5 19 62.5 26t64 7q105 0 172-70l-88-88q-38 41-84 41t-74-34q-29-36-29-115 0-80 29-116 28-34 74-34t84 41l88-87M222 612v115h115V612H222z" horiz-adv-x="480" vert-adv-y="1000"/><glyph glyph-name="uni010C" unicode="Č" d="M583 219q-19-109-89-167T322-6Q208-6 131 69q-49 49-60.5 107.5T59 356q0 121 11.5 179.5T131 643q77 75 191 75 102 0 172-58t89-167H441q-24 101-119 101-57 0-89-37-20-23-27.5-62.5T198 356q0-99 7.5-138.5T233 155q32-37 89-37 96 0 120 101h141m-77 731L374 781H270L138 950h101l83-90 83 90h101z" horiz-adv-x="620" vert-adv-y="1000"/><glyph glyph-name="uni010D" unicode="č" d="M452 65Q384-6 280-6q-33 0-64 7.5t-62.5 26Q122 46 99 75.5t-37.5 77Q47 200 47 261t14.5 108.5Q76 417 99 446t54.5 48q31.5 19 62.5 26t64 7q105 0 172-70l-88-88q-38 41-84 41t-74-34q-29-36-29-115 0-80 29-116 28-34 74-34t84 41l88-87m12 708L332 604H228L96 773h101l83-90 83 90h101z" horiz-adv-x="480" vert-adv-y="1000"/><glyph glyph-name="uni010E" unicode="Ď" d="M592.5 513.5l3.75-26.25Q600 461 600 356t-7.5-157.5Q585 146 555 104 480 0 340 0H83v712h257q140 0 215-104 30-42 37.5-94.5M456 228l2.5 19q2.5 19 2.5 109t-5 128q-5 38-24 60-35 44-104 44H222V124h106q69 0 104 44 19 22 24 60m57 722L381 781H277L145 950h101l83-90 83 90h101z" horiz-adv-x="659" vert-adv-y="1000"/><glyph glyph-name="uni010F" unicode="ď" d="M488 0H361v49Q312-6 232-6q-82 0-127 47-34 35-44 87T51 261q0 80 10 132t44 87q45 47 126 47 80 0 127-52v237h130V0M358 261q0 73-17.5 111T269 410q-28 0-46.5-11t-27-33q-8.5-22-11.5-45.5t-3-59.5q0-36 3-59.5t11.5-46q8.5-22.5 27-33.5t46.5-11q28 0 46.5 11t27.5 33q9 22 12 46.5t3 59.5m340 480l-60-166h-91l36 166h115z" horiz-adv-x="561" vert-adv-y="1000"/><glyph glyph-name="uni0110" unicode="Đ" d="M615.5 513.5l3.75-26.25Q623 461 623 356t-7.5-157.5Q608 146 578 104 503 0 363 0H106v306H37v106h69v300h257q140 0 215-104 30-42 37.5-94.5M479 228l2.5 19q2.5 19 2.5 109t-5 128q-5 38-24 60-35 44-104 44H245V412h116V306H245V124h106q69 0 104 44 19 22 24 60z" horiz-adv-x="682" vert-adv-y="1000"/><glyph glyph-name="uni0111" unicode="đ" d="M488 0H361v49Q312-6 232-6q-82 0-127 47-34 35-44 87T51 261q0 80 10 132t44 87q45 47 126 47 80 0 127-52v92h-89v82h89v63h130v-63h60v-82h-60V0M358 261q0 73-17.5 111T269 410q-28 0-46.5-11t-27-33q-8.5-22-11.5-45.5t-3-59.5q0-36 3-59.5t11.5-46q8.5-22.5 27-33.5t46.5-11q28 0 46.5 11t27.5 33q9 22 12 46.5t3 59.5z" horiz-adv-x="581" vert-adv-y="1000"/><glyph glyph-name="uni0112" unicode="Ē" d="M552 0H83v712h469V588H222V421h281V297H222V124h330V0M148 793v88h317v-88H148z" horiz-adv-x="605" vert-adv-y="1000"/><glyph glyph-name="uni0113" unicode="ē" d="M501 220H175q0-52 30-84t84-32q40 0 65.5 11.5T407 153l79-77q-42-43-86.5-62.5T288-6q-50 0-90.5 12.5T122 48q-35 29-55 83T47 261q0 125 62 195.5T274 527q107 0 167-69.5T501 275v-55m-128 89q-1 34-12 56-24 54-87 54t-87-54q-11-22-12-56h198m58 314H114v88h317v-88z" horiz-adv-x="548" vert-adv-y="1000"/><glyph glyph-name="uni0114" unicode="Ĕ" d="M552 0H83v712h469V588H222V421h281V297H222V124h330V0m-78 930q-4-77-49-114t-115-37q-70 0-115.5 37T146 930h87q7-60 77-60t77 60h87z" horiz-adv-x="605" vert-adv-y="1000"/><glyph glyph-name="uni0115" unicode="ĕ" d="M501 220H175q0-52 30-84t84-32q40 0 65.5 11.5T407 153l79-77q-42-43-86.5-62.5T288-6q-50 0-90.5 12.5T122 48q-35 29-55 83T47 261q0 125 62 195.5T274 527q107 0 167-69.5T501 275v-55m-128 89q-1 34-12 56-24 54-87 54t-87-54q-11-22-12-56h198m68 439q-4-77-49-114t-115-37q-70 0-115.5 37T113 748h87q7-60 77-60t77 60h87z" horiz-adv-x="548" vert-adv-y="1000"/><glyph glyph-name="uni0116" unicode="Ė" d="M552 0H83v712h469V588H222V421h281V297H222V124h330V0M249 789v116h115V789H249z" horiz-adv-x="605" vert-adv-y="1000"/><glyph glyph-name="uni0117" unicode="ė" d="M501 220H175q0-52 30-84t84-32q40 0 65.5 11.5T407 153l79-77q-42-43-86.5-62.5T288-6q-50 0-90.5 12.5T122 48q-35 29-55 83T47 261q0 125 62 195.5T274 527q107 0 167-69.5T501 275v-55m-128 89q-1 34-12 56-24 54-87 54t-87-54q-11-22-12-56h198M215 612v115h115V612H215z" horiz-adv-x="548" vert-adv-y="1000"/><glyph glyph-name="uni0118" unicode="Ę" d="M552 0H83v712h469V588H222V421h281V297H222V124h330V0m0-60l-44-146H387l69 146h96z" horiz-adv-x="605" vert-adv-y="1000"/><glyph glyph-name="uni0119" unicode="ę" d="M501 220H175q0-52 30-84t84-32q40 0 65.5 11.5T407 153l79-77q-42-43-86.5-62.5T288-6q-50 0-90.5 12.5T122 48q-35 29-55 83T47 261q0 125 62 195.5T274 527q107 0 167-69.5T501 275v-55m-128 89q-1 34-12 56-24 54-87 54t-87-54q-11-22-12-56h198m34-369l-44-146H242l69 146h96z" horiz-adv-x="548" vert-adv-y="1000"/><glyph glyph-name="uni011A" unicode="Ě" d="M552 0H83v712h469V588H222V421h281V297H222V124h330V0m-62 950L358 781H254L122 950h101l83-90 83 90h101z" horiz-adv-x="605" vert-adv-y="1000"/><glyph glyph-name="uni011B" unicode="ě" d="M501 220H175q0-52 30-84t84-32q40 0 65.5 11.5T407 153l79-77q-42-43-86.5-62.5T288-6q-50 0-90.5 12.5T122 48q-35 29-55 83T47 261q0 125 62 195.5T274 527q107 0 167-69.5T501 275v-55m-128 89q-1 34-12 56-24 54-87 54t-87-54q-11-22-12-56h198m85 464L326 604H222L90 773h101l83-90 83 90h101z" horiz-adv-x="548" vert-adv-y="1000"/><glyph glyph-name="uni011C" unicode="Ĝ" d="M590 292q0-79-15-128t-53-89Q445-6 321-6 208-6 131 69q-49 49-60.5 107.5T59 356q0 121 11.5 179.5T131 643q77 75 190 75 117 0 184.5-65T589 490H449q-24 104-128 104-54 0-89-38-20-23-27-62t-7-138q0-100 7-139t27-62q34-37 89-37 64 0 99 40 32 36 32 95v26H321v117h269V292m-84 489H405l-83 91-83-91H138l132 169h104l132-169z" horiz-adv-x="649" vert-adv-y="1000"/><glyph glyph-name="uni011D" unicode="ĝ" d="M482 19q0-95-62.5-155.5T253-197q-62 0-106 15t-83 53l81 82q41-40 102-40 54 0 79.5 31.5T352 21v53q-47-52-124-52-78 0-124 46-34 34-43.5 80.5T51 275q0 80 9.5 126t43.5 80q46 46 125 46 77 0 127-55v49h126V19M352 275q0 63-17 99t-69 36q-28 0-45.5-10.5t-26-31.5q-8.5-21-11-42t-2.5-51q0-30 2.5-51t10.5-42q8-21 26-32t46-11q28 0 46 11t26 32q8 21 11 42t3 51m98 329H349l-83 91-83-91H82l132 169h104l132-169z" horiz-adv-x="555" vert-adv-y="1000"/><glyph glyph-name="uni011E" unicode="Ğ" d="M590 292q0-79-15-128t-53-89Q445-6 321-6 208-6 131 69q-49 49-60.5 107.5T59 356q0 121 11.5 179.5T131 643q77 75 190 75 117 0 184.5-65T589 490H449q-24 104-128 104-54 0-89-38-20-23-27-62t-7-138q0-100 7-139t27-62q34-37 89-37 64 0 99 40 32 36 32 95v26H321v117h269V292M485 930q-4-77-49-114t-115-37q-70 0-115.5 37T157 930h87q7-60 77-60t77 60h87z" horiz-adv-x="649" vert-adv-y="1000"/><glyph glyph-name="uni011F" unicode="ğ" d="M482 19q0-95-62.5-155.5T253-197q-62 0-106 15t-83 53l81 82q41-40 102-40 54 0 79.5 31.5T352 21v53q-47-52-124-52-78 0-124 46-34 34-43.5 80.5T51 275q0 80 9.5 126t43.5 80q46 46 125 46 77 0 127-55v49h126V19M352 275q0 63-17 99t-69 36q-28 0-45.5-10.5t-26-31.5q-8.5-21-11-42t-2.5-51q0-30 2.5-51t10.5-42q8-21 26-32t46-11q28 0 46 11t26 32q8 21 11 42t3 51m78 473q-4-77-49-114t-115-37q-70 0-115.5 37T102 748h87q7-60 77-60t77 60h87z" horiz-adv-x="555" vert-adv-y="1000"/><glyph glyph-name="uni0120" unicode="Ġ" d="M590 292q0-79-15-128t-53-89Q445-6 321-6 208-6 131 69q-49 49-60.5 107.5T59 356q0 121 11.5 179.5T131 643q77 75 190 75 117 0 184.5-65T589 490H449q-24 104-128 104-54 0-89-38-20-23-27-62t-7-138q0-100 7-139t27-62q34-37 89-37 64 0 99 40 32 36 32 95v26H321v117h269V292M263 789v116h115V789H263z" horiz-adv-x="649" vert-adv-y="1000"/><glyph glyph-name="uni0121" unicode="ġ" d="M482 19q0-95-62.5-155.5T253-197q-62 0-106 15t-83 53l81 82q41-40 102-40 54 0 79.5 31.5T352 21v53q-47-52-124-52-78 0-124 46-34 34-43.5 80.5T51 275q0 80 9.5 126t43.5 80q46 46 125 46 77 0 127-55v49h126V19M352 275q0 63-17 99t-69 36q-28 0-45.5-10.5t-26-31.5q-8.5-21-11-42t-2.5-51q0-30 2.5-51t10.5-42q8-21 26-32t46-11q28 0 46 11t26 32q8 21 11 42t3 51M208 612v115h115V612H208z" horiz-adv-x="555" vert-adv-y="1000"/><glyph glyph-name="uni0122" unicode="Ģ" d="M590 292q0-79-15-128t-53-89Q445-6 321-6 208-6 131 69q-49 49-60.5 107.5T59 356q0 121 11.5 179.5T131 643q77 75 190 75 117 0 184.5-65T589 490H449q-24 104-128 104-54 0-89-38-20-23-27-62t-7-138q0-100 7-139t27-62q34-37 89-37 64 0 99 40 32 36 32 95v26H321v117h269V292M399-60l-44-146H234l69 146h96z" horiz-adv-x="649" vert-adv-y="1000"/><glyph glyph-name="uni0123" unicode="ģ" d="M482 19q0-95-62.5-155.5T253-197q-62 0-106 15t-83 53l81 82q41-40 102-40 54 0 79.5 31.5T352 21v53q-47-52-124-52-78 0-124 46-34 34-43.5 80.5T51 275q0 80 9.5 126t43.5 80q46 46 125 46 77 0 127-55v49h126V19M352 275q0 63-17 99t-69 36q-28 0-45.5-10.5t-26-31.5q-8.5-21-11-42t-2.5-51q0-30 2.5-51t10.5-42q8-21 26-32t46-11q28 0 46 11t26 32q8 21 11 42t3 51m71 499L309 604h-87l64 170h137z" horiz-adv-x="555" vert-adv-y="1000"/><glyph glyph-name="uni0124" unicode="Ĥ" d="M602 0H463v298H222V0H83v712h139V421h241v291h139V0m-75 781H426l-83 91-83-91H159l132 169h104l132-169z" horiz-adv-x="685" vert-adv-y="1000"/><glyph glyph-name="uni0125" unicode="ĥ" d="M506 0H376v315q0 49-25.5 72T290 410q-36 0-61.5-23T203 315V0H73v712h130V473q49 54 127 54 77 0 123-46 53-53 53-148V0M323 781H222l-83 91-83-91H-45L87 950h104l132-169z" horiz-adv-x="573" vert-adv-y="1000"/><glyph glyph-name="uni0126" unicode="Ħ" d="M694 508h-69V0H486v298H245V0H106v508H37v106h69v98h139v-98h241v98h139v-98h69V508m-208-86v86H245v-86h241z" horiz-adv-x="731" vert-adv-y="1000"/><glyph glyph-name="uni0127" unicode="ħ" d="M521 0H391v315q0 49-25.5 72T305 410q-36 0-61.5-23T218 315V0H88v567H37v82h51v63h130v-63h85v-82h-85v-94q50 54 127 54t123-46q53-53 53-148V0z" horiz-adv-x="588" vert-adv-y="1000"/><glyph glyph-name="uni0128" unicode="Ĩ" d="M222 0H83v712h139V0m110 849q-59-59-113-59-40 0-78 23-31 18-56 18-29 0-58-29l-56 57q58 59 112 59 39 0 77-23 30-18 55-18 30 0 59 29l58-57z" horiz-adv-x="305" vert-adv-y="1000"/><glyph glyph-name="uni0129" unicode="ĩ" d="M203 0H73v506h130V0m116 671q-58-58-113-58-38 0-77 22-31 18-56 18-30 0-58-28l-57 57q58 58 112 58 40 0 78-22 30-19 55-19 29 0 58 29l58-57z" horiz-adv-x="275" vert-adv-y="1000"/><glyph glyph-name="uni012A" unicode="Ī" d="M222 0H83v712h139V0M-5 793v88h317v-88H-5z" horiz-adv-x="305" vert-adv-y="1000"/><glyph glyph-name="uni012B" unicode="ī" d="M203 0H73v506h130V0m93 623H-21v88h317v-88z" horiz-adv-x="275" vert-adv-y="1000"/><glyph glyph-name="uni012C" unicode="Ĭ" d="M222 0H83v712h139V0m94 930q-4-77-49-114t-115-37q-70 0-115.5 37T-12 930h87q7-60 77-60t77 60h87z" horiz-adv-x="305" vert-adv-y="1000"/><glyph glyph-name="uni012D" unicode="ĭ" d="M203 0H73v506h130V0m99 748q-4-77-49-114t-115-37q-70 0-115.5 37T-26 748h87q7-60 77-60t77 60h87z" horiz-adv-x="275" vert-adv-y="1000"/><glyph glyph-name="uni012E" unicode="Į" d="M222 0H83v712h139V0m-43-60l-44-146H14L83-60h96z" horiz-adv-x="305" vert-adv-y="1000"/><glyph glyph-name="uni012F" unicode="į" d="M203 0H73v506h130V0m1 610H71v106h133V610M169-60l-44-146H4L73-60h96z" horiz-adv-x="275" vert-adv-y="1000"/><glyph glyph-name="uni0130" unicode="İ" d="M222 0H83v712h139V0M94 789v116h115V789H94z" horiz-adv-x="305" vert-adv-y="1000"/><glyph glyph-name="uni0131" unicode="ı" d="M203 0H73v506h130V0z" horiz-adv-x="275" vert-adv-y="1000"/><glyph glyph-name="uni0132" unicode="Ĳ" d="M222 0H83v712h139V0m520 234q0-113-73-176.5T491-6q-58 0-101 17t-82 56l92 91q40-40 91-40 52 0 82 31t30 91v472h139V234z" horiz-adv-x="816" vert-adv-y="1000"/><glyph glyph-name="uni0133" unicode="ĳ" d="M203 0H73v506h130V0m1 610H71v106h133V610M478-46q0-61-38.5-105T326-195h-74v110h50q46 0 46 47v544h130V-46m1 656H346v106h133V610z" horiz-adv-x="550" vert-adv-y="1000"/><glyph glyph-name="uni0134" unicode="Ĵ" d="M437 234q0-113-73-176.5T186-6Q128-6 85 11T3 67l92 91q40-40 91-40 52 0 82 31t30 91v472h139V234m114 547H450l-83 91-83-91H183l132 169h104l132-169z" horiz-adv-x="511" vert-adv-y="1000"/><glyph glyph-name="uni0135" unicode="ĵ" d="M203-46q0-61-38.5-105T51-195h-74v110h50q46 0 46 47v544h130V-46m119 650H221l-83 91-83-91H-46L86 773h104l132-169z" horiz-adv-x="275" vert-adv-y="1000"/><glyph glyph-name="uni0136" unicode="Ķ" d="M659 0H497L314 324l-92-110V0H83v712h139V402l251 310h169L406 429 659 0M431-60l-44-146H266l69 146h96z" horiz-adv-x="665" vert-adv-y="1000"/><glyph glyph-name="uni0137" unicode="ķ" d="M547 0H386L258 217l-55-62V0H73v712h130V308l173 213h157L347 311 547 0M354-60l-44-146H189l69 146h96z" horiz-adv-x="559" vert-adv-y="1000"/><glyph glyph-name="uni0138" unicode="ĸ" d="M547 0H386L258 217l-55-62V0H73v521h130V308l173 213h157L347 311 547 0z" horiz-adv-x="559" vert-adv-y="1000"/><glyph glyph-name="uni0139" unicode="Ĺ" d="M545 0H83v712h139V124h323V0M284 951L170 781H83l64 170h137z" horiz-adv-x="575" vert-adv-y="1000"/><glyph glyph-name="uni013A" unicode="ĺ" d="M294 0h-74q-75 0-113.5 44T68 149v563h130V157q0-47 46-47h50V0m-26 951L154 781H67l64 170h137z" horiz-adv-x="325" vert-adv-y="1000"/><glyph glyph-name="uni013B" unicode="Ļ" d="M545 0H83v712h139V124h323V0M362-60l-44-146H197l69 146h96z" horiz-adv-x="575" vert-adv-y="1000"/><glyph glyph-name="uni013C" unicode="ļ" d="M294 0h-74q-75 0-113.5 44T68 149v563h130V157q0-47 46-47h50V0m-56-60l-44-146H73l69 146h96z" horiz-adv-x="325" vert-adv-y="1000"/><glyph glyph-name="uni013D" unicode="Ľ" d="M545 0H83v712h139V124h323V0m-77 712l-60-166h-91l36 166h115z" horiz-adv-x="575" vert-adv-y="1000"/><glyph glyph-name="uni013E" unicode="ľ" d="M294 0h-74q-75 0-113.5 44T68 149v563h130V157q0-47 46-47h50V0m115 741l-60-166h-91l36 166h115z" horiz-adv-x="325" vert-adv-y="1000"/><glyph glyph-name="uni013F" unicode="Ŀ" d="M545 0H83v712h139V124h323V0M380 300v116h115V300H380z" horiz-adv-x="575" vert-adv-y="1000"/><glyph glyph-name="uni0140" unicode="ŀ" d="M294 0h-74q-75 0-113.5 44T68 149v563h130V157q0-47 46-47h50V0m-12 228v115h115V228H282z" horiz-adv-x="414" vert-adv-y="1000"/><glyph glyph-name="uni0141" unicode="Ł" d="M563 0H101v244l-64-41v116l64 41v352h139V447l128 81V413l-128-81V124h323V0z" horiz-adv-x="593" vert-adv-y="1000"/><glyph glyph-name="uni0142" unicode="ł" d="M309 0h-74q-75 0-113 43.5T84 149v153l-54-33v109l54 34v300h130V490l60 37V418l-60-38V157q0-47 45-47h50V0z" horiz-adv-x="336" vert-adv-y="1000"/><glyph glyph-name="uni0143" unicode="Ń" d="M628 0H504L222 437V0H83v712h124l282-436v436h139V0M501 951L387 781h-87l64 170h137z" horiz-adv-x="711" vert-adv-y="1000"/><glyph glyph-name="uni0144" unicode="ń" d="M506 0H376v315q0 49-25.5 72T290 410q-36 0-61.5-23T203 315V0H73v521h127v-48q51 54 130 54 77 0 123-46 53-53 53-148V0m-77 774L315 604h-87l64 170h137z" horiz-adv-x="573" vert-adv-y="1000"/><glyph glyph-name="uni0145" unicode="Ņ" d="M628 0H504L222 437V0H83v712h124l282-436v436h139V0M430-60l-44-146H265l69 146h96z" horiz-adv-x="711" vert-adv-y="1000"/><glyph glyph-name="uni0146" unicode="ņ" d="M506 0H376v315q0 49-25.5 72T290 410q-36 0-61.5-23T203 315V0H73v521h127v-48q51 54 130 54 77 0 123-46 53-53 53-148V0M361-60l-44-146H196l69 146h96z" horiz-adv-x="573" vert-adv-y="1000"/><glyph glyph-name="uni0147" unicode="Ň" d="M628 0H504L222 437V0H83v712h124l282-436v436h139V0m-89 950L407 781H303L171 950h101l83-90 83 90h101z" horiz-adv-x="711" vert-adv-y="1000"/><glyph glyph-name="uni0148" unicode="ň" d="M506 0H376v315q0 49-25.5 72T290 410q-36 0-61.5-23T203 315V0H73v521h127v-48q51 54 130 54 77 0 123-46 53-53 53-148V0m-36 773L338 604H234L102 773h101l83-90 83 90h101z" horiz-adv-x="573" vert-adv-y="1000"/><glyph glyph-name="uni0149" unicode="ŉ" d="M506 0H376v315q0 49-25.5 72T290 410q-36 0-61.5-23T203 315V0H73v521h127v-48q51 54 130 54 77 0 123-46 53-53 53-148V0M75 623l-113-88v206H75V623z" horiz-adv-x="573" vert-adv-y="1000"/><glyph glyph-name="uni014A" unicode="Ŋ" d="M489 23L222 437V0H83v712h124l282-436v436h139V-57q0-61-38.5-105T476-206h-74v110h41q46 0 46 47v72z" horiz-adv-x="711" vert-adv-y="1000"/><glyph glyph-name="uni014B" unicode="ŋ" d="M376 315q0 49-25.5 72T290 410q-36 0-61.5-23T203 315V0H73v521h127v-48q51 54 130 54 77 0 123-46 53-53 53-148V-57q0-61-38.5-105T354-206h-74v110h50q46 0 46 47v364z" horiz-adv-x="573" vert-adv-y="1000"/><glyph glyph-name="uni014C" unicode="Ō" d="M573 535l6-29.5q6-29.5 6-149.5t-12-179q-12-59-61-108Q437-6 322-6 206-6 131 69q-49 49-60.5 107.5T59 356q0 121 11.5 179.5T131 643q75 75 191 75 115 0 190-75 49-49 61-108M446 356q0 99-7.5 138T411 556q-33 38-89 38-55 0-90-38-20-23-27-62t-7-138q0-99 7-137.5t27-61.5q36-39 90-39 55 0 89 39 20 24 27.5 62.5T446 356M162 793v88h317v-88H162z" horiz-adv-x="644" vert-adv-y="1000"/><glyph glyph-name="uni014D" unicode="ō" d="M492 261q0-75-12.5-121.5T433 58Q371-6 271-6q-99 0-161 64-34 36-46.5 82.5T51 261q0 74 12.5 120t46.5 82q62 64 161 64 102 0 162-64 34-36 46.5-82T492 261m-130 0q0 97-30 126-23 23-61 23-37 0-60-23-30-29-30-126 0-98 30-127 23-23 60-23 38 0 61 23 30 29 30 127m67 362H112v88h317v-88z" horiz-adv-x="543" vert-adv-y="1000"/><glyph glyph-name="uni014E" unicode="Ŏ" d="M573 535l6-29.5q6-29.5 6-149.5t-12-179q-12-59-61-108Q437-6 322-6 206-6 131 69q-49 49-60.5 107.5T59 356q0 121 11.5 179.5T131 643q75 75 191 75 115 0 190-75 49-49 61-108M446 356q0 99-7.5 138T411 556q-33 38-89 38-55 0-90-38-20-23-27-62t-7-138q0-99 7-137.5t27-61.5q36-39 90-39 55 0 89 39 20 24 27.5 62.5T446 356m40 576q-4-77-49-114t-115-37q-70 0-115.5 37T158 932h87q7-60 77-60t77 60h87z" horiz-adv-x="644" vert-adv-y="1000"/><glyph glyph-name="uni014F" unicode="ŏ" d="M492 261q0-75-12.5-121.5T433 58Q371-6 271-6q-99 0-161 64-34 36-46.5 82.5T51 261q0 74 12.5 120t46.5 82q62 64 161 64 102 0 162-64 34-36 46.5-82T492 261m-130 0q0 97-30 126-23 23-61 23-37 0-60-23-30-29-30-126 0-98 30-127 23-23 60-23 38 0 61 23 30 29 30 127m74 487q-4-77-49-114t-115-37q-70 0-115.5 37T108 748h87q7-60 77-60t77 60h87z" horiz-adv-x="543" vert-adv-y="1000"/><glyph glyph-name="uni0150" unicode="Ő" d="M573 535l6-29.5q6-29.5 6-149.5t-12-179q-12-59-61-108Q437-6 322-6 206-6 131 69q-49 49-60.5 107.5T59 356q0 121 11.5 179.5T131 643q75 75 191 75 115 0 190-75 49-49 61-108M446 356q0 99-7.5 138T411 556q-33 38-89 38-55 0-90-38-20-23-27-62t-7-138q0-99 7-137.5t27-61.5q36-39 90-39 55 0 89 39 20 24 27.5 62.5T446 356m-87 595L246 781h-88l64 170h137m202 0L446 781h-86l63 170h138z" horiz-adv-x="644" vert-adv-y="1000"/><glyph glyph-name="uni0151" unicode="ő" d="M492 261q0-75-12.5-121.5T433 58Q371-6 271-6q-99 0-161 64-34 36-46.5 82.5T51 261q0 74 12.5 120t46.5 82q62 64 161 64 102 0 162-64 34-36 46.5-82T492 261m-130 0q0 97-30 126-23 23-61 23-37 0-60-23-30-29-30-126 0-98 30-127 23-23 60-23 38 0 61 23 30 29 30 127m-53 513L196 604h-88l64 170h137m202 0L396 604h-86l63 170h138z" horiz-adv-x="543" vert-adv-y="1000"/><glyph glyph-name="uni0152" unicode="Œ" d="M912 0H446v44q-19-22-54.5-36T322-6Q208-6 131 69q-49 49-60.5 107.5T59 356q0 121 11.5 179.5T131 643q77 75 191 75 77 0 124-50v44h465V588H585V421h278V297H585V124h327V0M446 356q0 100-7 138.5T411 556q-33 38-89 38-55 0-90-38-20-23-27-62t-7-138q0-99 7-137.5t27-61.5q36-39 90-39 55 0 89 39 21 23 28 61.5t7 137.5z" horiz-adv-x="966" vert-adv-y="1000"/><glyph glyph-name="uni0153" unicode="œ" d="M816 220H490q0-52 30-84t84-32q40 0 65.5 11.5T721 153l80-77q-42-43-86.5-62.5T603-6Q489-6 430 61 375-6 271-6q-99 0-161 64-34 36-46.5 82T51 261q0 74 12.5 120t46.5 82q62 64 161 64 105 0 161-68 57 68 157 68 106 0 166.5-69.5T816 278v-58m-128 89q-1 34-12 56-24 54-87 54t-87-54q-11-22-12-56h198m-326-48q0 97-30 126-23 23-61 23-37 0-60-23-30-29-30-126 0-98 30-127 23-23 60-23 38 0 61 23 30 29 30 127z" horiz-adv-x="863" vert-adv-y="1000"/><glyph glyph-name="uni0154" unicode="Ŕ" d="M622 0H461L322 284H222V0H83v712h279q106 0 168.5-63T593 494q0-71-37-119t-93-68L622 0M426 426l14 13q14 13 14 55t-28 68q-28 26-73 26H222V400h131q45 0 73 26m47 525L359 781h-87l64 170h137z" horiz-adv-x="654" vert-adv-y="1000"/><glyph glyph-name="uni0155" unicode="ŕ" d="M454 478l-98-99q-31 31-69 31-33 0-58.5-25T203 314V0H73v521h127v-50q20 24 55.5 40t75.5 16q74 0 123-49m-82 296L258 604h-87l64 170h137z" horiz-adv-x="455" vert-adv-y="1000"/><glyph glyph-name="uni0156" unicode="Ŗ" d="M622 0H461L322 284H222V0H83v712h279q106 0 168.5-63T593 494q0-71-37-119t-93-68L622 0M426 426l14 13q14 13 14 55t-28 68q-28 26-73 26H222V400h131q45 0 73 26M402-60l-44-146H237l69 146h96z" horiz-adv-x="654" vert-adv-y="1000"/><glyph glyph-name="uni0157" unicode="ŗ" d="M454 478l-98-99q-31 31-69 31-33 0-58.5-25T203 314V0H73v521h127v-50q20 24 55.5 40t75.5 16q74 0 123-49M188-60l-44-146H23L92-60h96z" horiz-adv-x="455" vert-adv-y="1000"/><glyph glyph-name="uni0158" unicode="Ř" d="M622 0H461L322 284H222V0H83v712h279q106 0 168.5-63T593 494q0-71-37-119t-93-68L622 0M426 426l14 13q14 13 14 55t-28 68q-28 26-73 26H222V400h131q45 0 73 26m85 524L379 781H275L143 950h101l83-90 83 90h101z" horiz-adv-x="654" vert-adv-y="1000"/><glyph glyph-name="uni0159" unicode="ř" d="M454 478l-98-99q-31 31-69 31-33 0-58.5-25T203 314V0H73v521h127v-50q20 24 55.5 40t75.5 16q74 0 123-49m-42 295L280 604H176L44 773h101l83-90 83 90h101z" horiz-adv-x="455" vert-adv-y="1000"/><glyph glyph-name="uni015A" unicode="Ś" d="M543 210q0-101-74-158.5T279-6q-85 0-147 21.5T19 88l90 90q60-60 171-60 62 0 94.5 23t32.5 66q0 37-22 59-19 18-64 24l-85 13q-90 13-138 59-51 50-51 140 0 97 67 156.5T295 718q144 0 230-83l-88-87q-50 49-146 49-53 0-81-25.5T182 507q0-32 20-51 23-21 65-27l85-13q91-13 136-56 55-51 55-150m-95 741L334 781h-87l64 170h137z" horiz-adv-x="591" vert-adv-y="1000"/><glyph glyph-name="uni015B" unicode="ś" d="M465 164q0-83-62-126.5T244-6Q172-6 120 9T22 69l85 85q48-49 139-49 38 0 65 13.5t27 40.5q0 43-55 48l-84 8Q49 230 49 361q0 78 58.5 122T250 527q133 0 199-61l-80-81q-39 35-121 35-37 0-55.5-14.5T174 370q0-39 54-45l82-8q155-15 155-153m-72 610L279 604h-87l64 170h137z" horiz-adv-x="501" vert-adv-y="1000"/><glyph glyph-name="uni015C" unicode="Ŝ" d="M543 210q0-101-74-158.5T279-6q-85 0-147 21.5T19 88l90 90q60-60 171-60 62 0 94.5 23t32.5 66q0 37-22 59-19 18-64 24l-85 13q-90 13-138 59-51 50-51 140 0 97 67 156.5T295 718q144 0 230-83l-88-87q-50 49-146 49-53 0-81-25.5T182 507q0-32 20-51 23-21 65-27l85-13q91-13 136-56 55-51 55-150m-63 571H379l-83 91-83-91H112l132 169h104l132-169z" horiz-adv-x="591" vert-adv-y="1000"/><glyph glyph-name="uni015D" unicode="ŝ" d="M465 164q0-83-62-126.5T244-6Q172-6 120 9T22 69l85 85q48-49 139-49 38 0 65 13.5t27 40.5q0 43-55 48l-84 8Q49 230 49 361q0 78 58.5 122T250 527q133 0 199-61l-80-81q-39 35-121 35-37 0-55.5-14.5T174 370q0-39 54-45l82-8q155-15 155-153m-19 440H345l-83 91-83-91H78l132 169h104l132-169z" horiz-adv-x="501" vert-adv-y="1000"/><glyph glyph-name="uni015E" unicode="Ş" d="M543 210q0-101-74-158.5T279-6q-85 0-147 21.5T19 88l90 90q60-60 171-60 62 0 94.5 23t32.5 66q0 37-22 59-19 18-64 24l-85 13q-90 13-138 59-51 50-51 140 0 97 67 156.5T295 718q144 0 230-83l-88-87q-50 49-146 49-53 0-81-25.5T182 507q0-32 20-51 23-21 65-27l85-13q91-13 136-56 55-51 55-150M370-60l-44-146H205l69 146h96z" horiz-adv-x="591" vert-adv-y="1000"/><glyph glyph-name="uni015F" unicode="ş" d="M465 164q0-83-62-126.5T244-6Q172-6 120 9T22 69l85 85q48-49 139-49 38 0 65 13.5t27 40.5q0 43-55 48l-84 8Q49 230 49 361q0 78 58.5 122T250 527q133 0 199-61l-80-81q-39 35-121 35-37 0-55.5-14.5T174 370q0-39 54-45l82-8q155-15 155-153M325-60l-44-146H160l69 146h96z" horiz-adv-x="501" vert-adv-y="1000"/><glyph glyph-name="uni0160" unicode="Š" d="M543 210q0-101-74-158.5T279-6q-85 0-147 21.5T19 88l90 90q60-60 171-60 62 0 94.5 23t32.5 66q0 37-22 59-19 18-64 24l-85 13q-90 13-138 59-51 50-51 140 0 97 67 156.5T295 718q144 0 230-83l-88-87q-50 49-146 49-53 0-81-25.5T182 507q0-32 20-51 23-21 65-27l85-13q91-13 136-56 55-51 55-150m-65 740L346 781H242L110 950h101l83-90 83 90h101z" horiz-adv-x="591" vert-adv-y="1000"/><glyph glyph-name="uni0161" unicode="š" d="M465 164q0-83-62-126.5T244-6Q172-6 120 9T22 69l85 85q48-49 139-49 38 0 65 13.5t27 40.5q0 43-55 48l-84 8Q49 230 49 361q0 78 58.5 122T250 527q133 0 199-61l-80-81q-39 35-121 35-37 0-55.5-14.5T174 370q0-39 54-45l82-8q155-15 155-153m-31 609L302 604H198L66 773h101l83-90 83 90h101z" horiz-adv-x="501" vert-adv-y="1000"/><glyph glyph-name="uni0162" unicode="Ţ" d="M541 588H355V0H216v588H30v124h511V588M333-60l-44-146H168l69 146h96z" horiz-adv-x="571" vert-adv-y="1000"/><glyph glyph-name="uni0163" unicode="ţ" d="M307 0h-71q-74 0-112.5 44T85 149v258H30v99h55v154h130V506h92v-99h-92V157q0-47 45-47h47V0m-56-60l-44-146H86l69 146h96z" horiz-adv-x="352" vert-adv-y="1000"/><glyph glyph-name="uni0164" unicode="Ť" d="M541 588H355V0H216v588H30v124h511V588m-80 362L329 781H225L93 950h101l83-90 83 90h101z" horiz-adv-x="571" vert-adv-y="1000"/><glyph glyph-name="uni0165" unicode="ť" d="M307 0h-71q-74 0-112.5 44T85 149v258H30v99h55v154h130V506h92v-99h-92V157q0-47 45-47h47V0m118 741l-60-166h-91l36 166h115z" horiz-adv-x="352" vert-adv-y="1000"/><glyph glyph-name="uni0166" unicode="Ŧ" d="M541 588H355V412h92V306h-92V0H216v306h-93v106h93v176H30v124h511V588z" horiz-adv-x="571" vert-adv-y="1000"/><glyph glyph-name="uni0167" unicode="ŧ" d="M307 0h-71q-74 0-112.5 44T85 149v88H30v99h55v71H30v99h55v154h130V506h92v-99h-92v-71h92v-99h-92v-80q0-47 45-47h47V0z" horiz-adv-x="352" vert-adv-y="1000"/><glyph glyph-name="uni0168" unicode="Ũ" d="M596 244q0-111-75-180.5T334-6Q222-6 147 63.5T72 244v468h139V249q0-61 33-96t90-35q57 0 90.5 35t33.5 96v463h138V244m-82 605q-59-59-113-59-40 0-78 23-31 18-56 18-29 0-58-29l-56 57q58 59 112 59 39 0 77-23 30-18 55-18 30 0 59 29l58-57z" horiz-adv-x="668" vert-adv-y="1000"/><glyph glyph-name="uni0169" unicode="ũ" d="M500 0H373v48Q322-6 243-6q-77 0-123 46-53 53-53 148v333h130V206q0-49 25.5-72t60.5-23q36 0 61.5 23t25.5 72v315h130V0m-35 671q-58-58-113-58-38 0-77 22-31 18-56 18-30 0-58-28l-57 57q58 58 112 58 40 0 78-22 30-19 55-19 29 0 58 29l58-57z" horiz-adv-x="573" vert-adv-y="1000"/><glyph glyph-name="uni016A" unicode="Ū" d="M596 244q0-111-75-180.5T334-6Q222-6 147 63.5T72 244v468h139V249q0-61 33-96t90-35q57 0 90.5 35t33.5 96v463h138V244M175 793v88h317v-88H175z" horiz-adv-x="668" vert-adv-y="1000"/><glyph glyph-name="uni016B" unicode="ū" d="M500 0H373v48Q322-6 243-6q-77 0-123 46-53 53-53 148v333h130V206q0-49 25.5-72t60.5-23q36 0 61.5 23t25.5 72v315h130V0m-56 623H127v88h317v-88z" horiz-adv-x="573" vert-adv-y="1000"/><glyph glyph-name="uni016C" unicode="Ŭ" d="M596 244q0-111-75-180.5T334-6Q222-6 147 63.5T72 244v468h139V249q0-61 33-96t90-35q57 0 90.5 35t33.5 96v463h138V244m-98 686q-4-77-49-114t-115-37q-70 0-115.5 37T170 930h87q7-60 77-60t77 60h87z" horiz-adv-x="668" vert-adv-y="1000"/><glyph glyph-name="uni016D" unicode="ŭ" d="M500 0H373v48Q322-6 243-6q-77 0-123 46-53 53-53 148v333h130V206q0-49 25.5-72t60.5-23q36 0 61.5 23t25.5 72v315h130V0m-53 748q-4-77-49-114t-115-37q-70 0-115.5 37T119 748h87q7-60 77-60t77 60h87z" horiz-adv-x="573" vert-adv-y="1000"/><glyph glyph-name="uni016E" unicode="Ů" d="M596 244q0-111-75-180.5T334-6Q222-6 147 63.5T72 244v468h139V249q0-61 33-96t90-35q57 0 90.5 35t33.5 96v463h138V244M465 892q0-54-38.5-92.5T334 761q-54 0-92.5 38.5T203 892q0 54 38.5 92.5T334 1023q54 0 92.5-38t38.5-93m-90-41.5l8.5 8.75Q392 868 392 892t-17 41q-17 17-41 17t-41-17q-17-17-17-41t17-41.5q17-17.5 41-17.5t41 17.5z" horiz-adv-x="668" vert-adv-y="1000"/><glyph glyph-name="uni016F" unicode="ů" d="M500 0H373v48Q322-6 243-6q-77 0-123 46-53 53-53 148v333h130V206q0-49 25.5-72t60.5-23q36 0 61.5 23t25.5 72v315h130V0m-83 715q0-54-38.5-92.5T286 584q-54 0-92.5 38.5T155 715q0 54 38.5 92.5T286 846q54 0 92.5-38t38.5-93m-90-41.5l8.5 8.75Q344 691 344 715t-17 41q-17 17-41 17t-41-17q-17-17-17-41t17-41.5q17-17.5 41-17.5t41 17.5z" horiz-adv-x="573" vert-adv-y="1000"/><glyph glyph-name="uni0170" unicode="Ű" d="M596 244q0-111-75-180.5T334-6Q222-6 147 63.5T72 244v468h139V249q0-61 33-96t90-35q57 0 90.5 35t33.5 96v463h138V244M364 951L251 781h-88l64 170h137m202 0L451 781h-86l63 170h138z" horiz-adv-x="668" vert-adv-y="1000"/><glyph glyph-name="uni0171" unicode="ű" d="M500 0H373v48Q322-6 243-6q-77 0-123 46-53 53-53 148v333h130V206q0-49 25.5-72t60.5-23q36 0 61.5 23t25.5 72v315h130V0M316 774L203 604h-88l64 170h137m202 0L403 604h-86l63 170h138z" horiz-adv-x="573" vert-adv-y="1000"/><glyph glyph-name="uni0172" unicode="Ų" d="M596 244q0-111-75-180.5T334-6Q222-6 147 63.5T72 244v468h139V249q0-61 33-96t90-35q57 0 90.5 35t33.5 96v463h138V244M500-60l-44-146H335l69 146h96z" horiz-adv-x="668" vert-adv-y="1000"/><glyph glyph-name="uni0173" unicode="ų" d="M500 0H373v48Q322-6 243-6q-77 0-123 46-53 53-53 148v333h130V206q0-49 25.5-72t60.5-23q36 0 61.5 23t25.5 72v315h130V0m-31-60l-44-146H304l69 146h96z" horiz-adv-x="573" vert-adv-y="1000"/><glyph glyph-name="uni0174" unicode="Ŵ" d="M881 712L690 0H574L443 432 312 0H196L6 712h145l110-449 130 449h104l130-449 111 449h145m-254 69H526l-83 91-83-91H259l132 169h104l132-169z" horiz-adv-x="887" vert-adv-y="1000"/><glyph glyph-name="uni0175" unicode="ŵ" d="M755 521L596 0H489L380 327 271 0H164L4 521h138l84-322 106 322h95l107-322 84 322h137m-191 83H463l-83 91-83-91H196l132 169h104l132-169z" horiz-adv-x="759" vert-adv-y="1000"/><glyph glyph-name="uni0176" unicode="Ŷ" d="M569 712L355 292V0H217v292L3 712h151l133-287 131 287h151m-99 69H369l-83 91-83-91H102l132 169h104l132-169z" horiz-adv-x="572" vert-adv-y="1000"/><glyph glyph-name="uni0177" unicode="ŷ" d="M490 521L267-84q-17-45-39-67-40-40-112-40H65v117h30q28 0 41.5 9.5T160-27l22 64L4 521h137l108-322 104 322h137m-57 83H332l-83 91-83-91H65l132 169h104l132-169z" horiz-adv-x="494" vert-adv-y="1000"/><glyph glyph-name="uni0178" unicode="Ÿ" d="M569 712L355 292V0H217v292L3 712h151l133-287 131 287h151m-117 71H341v125h111V783m-221 0H120v125h111V783z" horiz-adv-x="572" vert-adv-y="1000"/><glyph glyph-name="uni0179" unicode="Ź" d="M508 0H40v112l304 476H53v124h455V602L203 124h305V0m-80 951L314 781h-87l64 170h137z" horiz-adv-x="548" vert-adv-y="1000"/><glyph glyph-name="uni017A" unicode="ź" d="M434 0H37v99l231 305H50v117h384v-99L200 117h234V0m-53 774L267 604h-87l64 170h137z" horiz-adv-x="478" vert-adv-y="1000"/><glyph glyph-name="uni017B" unicode="Ż" d="M508 0H40v112l304 476H53v124h455V602L203 124h305V0M215 789v116h115V789H215z" horiz-adv-x="548" vert-adv-y="1000"/><glyph glyph-name="uni017C" unicode="ż" d="M434 0H37v99l231 305H50v117h384v-99L200 117h234V0M182 612v115h115V612H182z" horiz-adv-x="478" vert-adv-y="1000"/><glyph glyph-name="uni017D" unicode="Ž" d="M508 0H40v112l304 476H53v124h455V602L203 124h305V0m-47 950L329 781H225L93 950h101l83-90 83 90h101z" horiz-adv-x="548" vert-adv-y="1000"/><glyph glyph-name="uni017E" unicode="ž" d="M434 0H37v99l231 305H50v117h384v-99L200 117h234V0m-8 773L294 604H190L58 773h101l83-90 83 90h101z" horiz-adv-x="478" vert-adv-y="1000"/><glyph glyph-name="uni017F" unicode="ſ" d="M203 563V0H73v571q0 61 39 105t113 44h74V610h-51q-45 0-45-47z" horiz-adv-x="275" vert-adv-y="1000"/><glyph glyph-name="uni018F" unicode="Ə" d="M590 356q0-121-11.5-180T518 69Q441-6 328-6 204-6 127 75q-38 40-53 89T59 292v104h391q-1 73-8 105.5T416 556q-33 38-88 38-104 0-128-104H60q15 98 83 163t185 65q113 0 190-75 47-47 59.5-107.5T590 356m-141-77H197v-26q0-59 32-95 35-40 99-40 56 0 88 37 17 18 24 44t9 80z" horiz-adv-x="649" vert-adv-y="1000"/><glyph glyph-name="uni0192" unicode="ƒ" d="M397 610h-69q-46 0-54-47l-29-166h96V297H228l-87-488H11l87 488H31v100h84l31 174q11 66 58.5 107T320 719h77V610z" horiz-adv-x="427" vert-adv-y="1000"/><glyph glyph-name="uni01B5" unicode="Ƶ" d="M508 0H40v112l124 195h-50v106h118l112 175H53v124h455V602L387 413h51V307H320L203 124h305V0z" horiz-adv-x="548" vert-adv-y="1000"/><glyph glyph-name="uni01B6" unicode="ƶ" d="M434 0H37v99l90 119h-23v82h85l79 104H50v117h384v-99l-94-122h43v-82H277l-77-101h234V0z" horiz-adv-x="478" vert-adv-y="1000"/><glyph glyph-name="uni01C4" unicode="Ǆ" d="M592.5 513.5l3.75-26.25Q600 461 600 356t-7.5-157.5Q585 146 555 104 480 0 340 0H83v712h257q140 0 215-104 30-42 37.5-94.5M456 228l2.5 19q2.5 19 2.5 109t-5 128q-5 38-24 60-35 44-104 44H222V124h106q69 0 104 44 19 22 24 60M1167 0H699v112l304 476H712v124h455V602L862 124h305V0m-47 950L988 781H884L752 950h101l83-90 83 90h101z" horiz-adv-x="1207" vert-adv-y="1000"/><glyph glyph-name="uni01C5" unicode="ǅ" d="M592.5 513.5l3.75-26.25Q600 461 600 356t-7.5-157.5Q585 146 555 104 480 0 340 0H83v712h257q140 0 215-104 30-42 37.5-94.5M456 228l2.5 19q2.5 19 2.5 109t-5 128q-5 38-24 60-35 44-104 44H222V124h106q69 0 104 44 19 22 24 60M1093 0H696v99l231 305H709v117h384v-99L859 117h234V0m-8 773L953 604H849L717 773h101l83-90 83 90h101z" horiz-adv-x="1137" vert-adv-y="1000"/><glyph glyph-name="uni01C6" unicode="ǆ" d="M488 0H361v49Q312-6 232-6q-82 0-127 47-34 35-44 87T51 261q0 80 10 132t44 87q45 47 126 47 80 0 127-52v237h130V0M358 261q0 73-17.5 111T269 410q-28 0-46.5-11t-27-33q-8.5-22-11.5-45.5t-3-59.5q0-36 3-59.5t11.5-46q8.5-22.5 27-33.5t46.5-11q28 0 46.5 11t27.5 33q9 22 12 46.5t3 59.5M995 0H598v99l231 305H611v117h384v-99L761 117h234V0m-8 773L855 604H751L619 773h101l83-90 83 90h101z" horiz-adv-x="1039" vert-adv-y="1000"/><glyph glyph-name="uni01C7" unicode="Ǉ" d="M545 0H83v712h139V124h323V0m467 234q0-113-73-176.5T761-6q-58 0-101 17t-82 56l92 91q40-40 91-40 52 0 82 31t30 91v472h139V234z" horiz-adv-x="1086" vert-adv-y="1000"/><glyph glyph-name="uni01C8" unicode="ǈ" d="M545 0H83v712h139V124h323V0m233-46q0-61-38.5-105T626-195h-74v110h50q46 0 46 47v544h130V-46m1 656H646v106h133V610z" horiz-adv-x="850" vert-adv-y="1000"/><glyph glyph-name="uni01C9" unicode="ǉ" d="M294 0h-74q-75 0-113.5 44T68 149v563h130V157q0-47 46-47h50V0m234-46q0-61-38.5-105T376-195h-74v110h50q46 0 46 47v544h130V-46m1 656H396v106h133V610z" horiz-adv-x="600" vert-adv-y="1000"/><glyph glyph-name="uni01CA" unicode="Ǌ" d="M628 0H504L222 437V0H83v712h124l282-436v436h139V0m520 234q0-113-73-176.5T897-6q-58 0-101 17t-82 56l92 91q40-40 91-40 52 0 82 31t30 91v472h139V234z" horiz-adv-x="1222" vert-adv-y="1000"/><glyph glyph-name="uni01CB" unicode="ǋ" d="M628 0H504L222 437V0H83v712h124l282-436v436h139V0m286-46q0-61-38.5-105T762-195h-74v110h50q46 0 46 47v544h130V-46m1 656H782v106h133V610z" horiz-adv-x="986" vert-adv-y="1000"/><glyph glyph-name="uni01CC" unicode="ǌ" d="M506 0H376v315q0 49-25.5 72T290 410q-36 0-61.5-23T203 315V0H73v521h127v-48q51 54 130 54 77 0 123-46 53-53 53-148V0m270-46q0-61-38.5-105T624-195h-74v110h50q46 0 46 47v544h130V-46m1 656H644v106h133V610z" horiz-adv-x="848" vert-adv-y="1000"/><glyph glyph-name="uni01F1" unicode="Ǳ" d="M592.5 513.5l3.75-26.25Q600 461 600 356t-7.5-157.5Q585 146 555 104 480 0 340 0H83v712h257q140 0 215-104 30-42 37.5-94.5M456 228l2.5 19q2.5 19 2.5 109t-5 128q-5 38-24 60-35 44-104 44H222V124h106q69 0 104 44 19 22 24 60M1167 0H699v112l304 476H712v124h455V602L862 124h305V0z" horiz-adv-x="1207" vert-adv-y="1000"/><glyph glyph-name="uni01F2" unicode="ǲ" d="M592.5 513.5l3.75-26.25Q600 461 600 356t-7.5-157.5Q585 146 555 104 480 0 340 0H83v712h257q140 0 215-104 30-42 37.5-94.5M456 228l2.5 19q2.5 19 2.5 109t-5 128q-5 38-24 60-35 44-104 44H222V124h106q69 0 104 44 19 22 24 60M1093 0H696v99l231 305H709v117h384v-99L859 117h234V0z" horiz-adv-x="1137" vert-adv-y="1000"/><glyph glyph-name="uni01F3" unicode="ǳ" d="M488 0H361v49Q312-6 232-6q-82 0-127 47-34 35-44 87T51 261q0 80 10 132t44 87q45 47 126 47 80 0 127-52v237h130V0M358 261q0 73-17.5 111T269 410q-28 0-46.5-11t-27-33q-8.5-22-11.5-45.5t-3-59.5q0-36 3-59.5t11.5-46q8.5-22.5 27-33.5t46.5-11q28 0 46.5 11t27.5 33q9 22 12 46.5t3 59.5M995 0H598v99l231 305H611v117h384v-99L761 117h234V0z" horiz-adv-x="1039" vert-adv-y="1000"/><glyph glyph-name="uni01FA" unicode="Ǻ" d="M633 0H488l-42 126H193L150 0H5l259 712h109L633 0M409 243l-87 259-90-259h177m39 641q0-54-38.5-92.5T317 753q-54 0-92.5 38.5T186 884q0 54 38.5 92.5T317 1015q54 0 92.5-38t38.5-93m-90-41.5l8.5 8.75Q375 860 375 884t-17 41q-17 17-41 17t-41-17q-17-17-17-41t17-41.5q17-17.5 41-17.5t41 17.5M463 1195l-114-170h-87l64 170h137z" horiz-adv-x="638" vert-adv-y="1000"/><glyph glyph-name="uni01FB" unicode="ǻ" d="M467 0H340v45q-27-27-55.5-38.5T212-5Q125-5 79 41 36 86 36 158q0 66 46 108.5T216 309h121v26q0 43-23 62.5T240 417q-61 0-100-45l-82 81q38 42 79.5 58T245 527q222 0 222-184V0M337 192v28h-99q-77 0-77-60 0-59 79-59 51 0 77 25 20 17 20 66m55 523q0-54-38.5-92.5T261 584q-54 0-92.5 38.5T130 715q0 54 38.5 92.5T261 846q54 0 92.5-38t38.5-93m-90-41.5l8.5 8.75Q319 691 319 715t-17 41q-17 17-41 17t-41-17q-17-17-17-41t17-41.5q17-17.5 41-17.5t41 17.5M407 1026L293 856h-87l64 170h137z" horiz-adv-x="534" vert-adv-y="1000"/><glyph glyph-name="uni01FC" unicode="Ǽ" d="M926 0H458v156H233L152 0H3l372 712h551V588H596V420h282V296H596V124h330V0M458 273v315L293 273h165m201 678L545 781h-87l64 170h137z" horiz-adv-x="979" vert-adv-y="1000"/><glyph glyph-name="uni01FD" unicode="ǽ" d="M337 192v28h-99q-77 0-77-60 0-59 79-59 51 0 77 25 20 17 20 66m326 117q-1 34-12 56-23 54-87 54t-87-54q-10-22-12-56h198M395 67q-39-41-78.5-57T212-6Q126-6 79 41 36 86 36 158q0 66 46 108.5T216 309h121v26q0 43-23 62.5T240 417q-61 0-100-45l-82 81q38 42 79.5 58T245 527q119 0 171-57 54 57 148 57 107 0 167-69.5T791 275v-55H465q0-52 30-84t84-32q40 0 65.5 11.5T697 153l79-77q-42-43-86.5-62.5T578-6Q458-6 395 67m141 707L422 604h-87l64 170h137z" horiz-adv-x="838" vert-adv-y="1000"/><glyph glyph-name="uni01FE" unicode="Ǿ" d="M573 535l6-29.5q6-29.5 6-149.5t-12-179q-12-59-61-108Q437-6 322-6q-65 0-113 21l-29-59H81l53 110-3 3q-49 49-60.5 107.5T59 356q0 121 11.5 179.5T131 643q75 75 191 75 61 0 113-22l29 60h98l-53-110 3-3q49-49 61-108M446 356q0 109-10 150L258 135q28-17 64-17 55 0 89 39 20 24 27.5 62.5T446 356m-248 0q0-113 9-150l178 371q-28 17-63 17-55 0-90-38-20-23-27-62t-7-138m270 595L354 781h-87l64 170h137z" horiz-adv-x="644" vert-adv-y="1000"/><glyph glyph-name="uni01FF" unicode="ǿ" d="M480 381l6-22.5q6-22.5 6-97.5t-12.5-121.5Q467 93 433 58 373-6 271-6q-58 0-104 23l-36-61H52l59 101q-35 37-47.5 82.5T51 261q0 74 12.5 120.5T110 463q60 64 161 64 61 0 105-22l35 60h80l-59-100q36-39 48-84M362 261q0 53-8 85L223 124q21-13 48-13 38 0 61 23 30 30 30 127m-42 136q-21 13-49 13-37 0-60-23-30-30-30-126 0-58 7-86l132 222m98 377L304 604h-87l64 170h137z" horiz-adv-x="543" vert-adv-y="1000"/><glyph glyph-name="uni0218" unicode="Ș" d="M543 210q0-101-74-158.5T279-6q-85 0-147 21.5T19 88l90 90q60-60 171-60 62 0 94.5 23t32.5 66q0 37-22 59-19 18-64 24l-85 13q-90 13-138 59-51 50-51 140 0 97 67 156.5T295 718q144 0 230-83l-88-87q-50 49-146 49-53 0-81-25.5T182 507q0-32 20-51 23-21 65-27l85-13q91-13 136-56 55-51 55-150M370-60l-44-146H205l69 146h96z" horiz-adv-x="591" vert-adv-y="1000"/><glyph glyph-name="uni0219" unicode="ș" d="M465 164q0-83-62-126.5T244-6Q172-6 120 9T22 69l85 85q48-49 139-49 38 0 65 13.5t27 40.5q0 43-55 48l-84 8Q49 230 49 361q0 78 58.5 122T250 527q133 0 199-61l-80-81q-39 35-121 35-37 0-55.5-14.5T174 370q0-39 54-45l82-8q155-15 155-153M325-60l-44-146H160l69 146h96z" horiz-adv-x="501" vert-adv-y="1000"/><glyph glyph-name="uni021A" unicode="Ț" d="M541 588H355V0H216v588H30v124h511V588M333-60l-44-146H168l69 146h96z" horiz-adv-x="571" vert-adv-y="1000"/><glyph glyph-name="uni021B" unicode="ț" d="M307 0h-71q-74 0-112.5 44T85 149v258H30v99h55v154h130V506h92v-99h-92V157q0-47 45-47h47V0m-56-60l-44-146H86l69 146h96z" horiz-adv-x="352" vert-adv-y="1000"/><glyph glyph-name="uni0237" unicode="ȷ" d="M203-46q0-61-38.5-105T51-195h-74v110h50q46 0 46 47v544h130V-46z" horiz-adv-x="275" vert-adv-y="1000"/><glyph glyph-name="uni0259" unicode="ə" d="M47 301h326q0 52-30 84t-84 32q-40 0-65.5-11.5T141 368l-79 77q42 43 86.5 62.5T260 527q50 0 90.5-12.5T426 473q35-29 55-83t20-130q0-125-62-195.5T274-6Q167-6 107 63.5T47 246v55m128-89q1-34 12-56 24-54 87-54t87 54q11 22 12 56H175z" horiz-adv-x="548" vert-adv-y="1000"/><glyph glyph-name="uni02BB" unicode="ʻ" d="M204 589H68v123l136 105V589z" horiz-adv-x="273" vert-adv-y="1000"/><glyph glyph-name="uni02BC" unicode="ʼ" d="M204 588L68 485v227h136V588z" horiz-adv-x="273" vert-adv-y="1000"/><glyph glyph-name="uni02C6" unicode="ˆ" d="M434 604H333l-83 91-83-91H66l132 169h104l132-169z" horiz-adv-x="500" vert-adv-y="1000"/><glyph glyph-name="uni02C7" unicode="ˇ" d="M434 773L302 604H198L66 773h101l83-90 83 90h101z" horiz-adv-x="500" vert-adv-y="1000"/><glyph glyph-name="uni02D8" unicode="˘" d="M414 748q-4-77-49-114t-115-37q-70 0-115.5 37T86 748h87q7-60 77-60t77 60h87z" horiz-adv-x="500" vert-adv-y="1000"/><glyph glyph-name="uni02D9" unicode="˙" d="M308 612H192v116h116V612z" horiz-adv-x="500" vert-adv-y="1000"/><glyph glyph-name="uni02DA" unicode="˚" d="M381 715q0-54-38.5-92.5T250 584q-54 0-92.5 38.5T119 715q0 54 38.5 92.5T250 846q54 0 92.5-38t38.5-93m-90-41.5l8.5 8.75Q308 691 308 715t-17 41q-17 17-41 17t-41-17q-17-17-17-41t17-41.5q17-17.5 41-17.5t41 17.5z" horiz-adv-x="500" vert-adv-y="1000"/><glyph glyph-name="uni02DB" unicode="˛" d="M407-60l-44-146H242l69 146h96z" horiz-adv-x="500" vert-adv-y="1000"/><glyph glyph-name="uni02DC" unicode="˜" d="M447 671q-58-58-113-58-38 0-77 22-31 18-56 18-30 0-58-28l-57 57q58 58 112 58 40 0 78-22 30-19 55-19 29 0 58 29l58-57z" horiz-adv-x="500" vert-adv-y="1000"/><glyph glyph-name="uni02DD" unicode="˝" d="M260 774L147 604H59l64 170h137m202 0L347 604h-86l63 170h138z" horiz-adv-x="500" vert-adv-y="1000"/><glyph glyph-name="uni037E" unicode=";" d="M238-55L96-165v307h142V-55m3 326H93v148h148V271z" horiz-adv-x="309" vert-adv-y="1000"/><glyph glyph-name="uni0384" unicode="΄" d="M242 622l-116-49v158h116V622z" horiz-adv-x="360" vert-adv-y="1000"/><glyph glyph-name="uni0385" unicode="΅" d="M454 590H343v125h111V590m-153 49l-115-49v158h115V639m-163-49H27v125h111V590z" horiz-adv-x="481" vert-adv-y="1000"/><glyph glyph-name="uni0386" unicode="Ά" d="M633 0H488l-42 126H193L150 0H5l259 712h109L633 0M409 243l-87 259-90-259h177M90 603l-116-49v158H90V603z" horiz-adv-x="638" vert-adv-y="1000"/><glyph glyph-name="uni0387" unicode="·" d="M217 212H68v148h149V212z" horiz-adv-x="285" vert-adv-y="1000"/><glyph glyph-name="uni0388" unicode="Έ" d="M552 0H83v712h469V588H222V421h281V297H222V124h330V0M10 603l-116-49v158H10V603z" horiz-adv-x="605" vert-adv-y="1000"/><glyph glyph-name="uni0389" unicode="Ή" d="M602 0H463v298H222V0H83v712h139V421h241v291h139V0M10 603l-116-49v158H10V603z" horiz-adv-x="685" vert-adv-y="1000"/><glyph glyph-name="uni038A" unicode="Ί" d="M222 0H83v712h139V0M10 603l-116-49v158H10V603z" horiz-adv-x="305" vert-adv-y="1000"/><glyph glyph-name="uni038C" unicode="Ό" d="M573 535l6-29.5q6-29.5 6-149.5t-12-179q-12-59-61-108Q437-6 322-6 206-6 131 69q-49 49-60.5 107.5T59 356q0 121 11.5 179.5T131 643q75 75 191 75 115 0 190-75 49-49 61-108M446 356q0 99-7.5 138T411 556q-33 38-89 38-55 0-90-38-20-23-27-62t-7-138q0-99 7-137.5t27-61.5q36-39 90-39 55 0 89 39 20 24 27.5 62.5T446 356M30 603l-116-49v158H30V603z" horiz-adv-x="644" vert-adv-y="1000"/><glyph glyph-name="uni038E" unicode="Ύ" d="M569 712L355 292V0H217v292L3 712h151l133-287 131 287h151M-30 603l-116-49v158h116V603z" horiz-adv-x="572" vert-adv-y="1000"/><glyph glyph-name="uni038F" unicode="Ώ" d="M585 356q0-121-23-178-13-31-36-54h59V0H366v110q37 18 53 43 27 38 27 196 0 101-7 142t-28 64q-34 39-89 39-54 0-90-39-20-23-27-64.5T198 349q0-159 26-196 18-27 54-43V0H59v124h59q-24 22-37 54-22 57-22 178t11.5 179.5Q82 594 131 643q77 75 191 75 115 0 190-75 49-49 61-108t12-179M30 603l-116-49v158H30V603z" horiz-adv-x="644" vert-adv-y="1000"/><glyph glyph-name="uni0390" unicode="ΐ" d="M294 0h-74q-75 0-113.5 44T68 149v372h130V157q0-47 46-47h50V0m60 590H243v125h111V590m-153 49L86 590v158h115V639M38 590H-73v125H38V590z" horiz-adv-x="325" vert-adv-y="1000"/><glyph glyph-name="uni0391" unicode="Α" d="M633 0H488l-42 126H193L150 0H5l259 712h109L633 0M409 243l-87 259-90-259h177z" horiz-adv-x="638" vert-adv-y="1000"/><glyph glyph-name="uni0392" unicode="Β" d="M599 205q0-97-60-151T381 0H83v712h286q103 0 161.5-54T589 512q0-54-27.5-92.5T501 365q98-46 98-160M426 446.5l12 11.25Q450 469 450 506t-24 59.5Q402 588 358 588H222V424h136q44 0 68 22.5M436 149l12 12.5q12 12.5 12 50.5t-24 62.5Q412 299 367 299H222V124h145q45 0 69 25z" horiz-adv-x="658" vert-adv-y="1000"/><glyph glyph-name="uni0393" unicode="Γ" d="M539 588H222V0H83v712h456V588z" horiz-adv-x="568" vert-adv-y="1000"/><glyph glyph-name="uni0394" unicode="Δ" d="M631 0H3l260 712h108L631 0M450 117L320 502 186 117h264z" horiz-adv-x="634" vert-adv-y="1000"/><glyph glyph-name="uni0395" unicode="Ε" d="M552 0H83v712h469V588H222V421h281V297H222V124h330V0z" horiz-adv-x="605" vert-adv-y="1000"/><glyph glyph-name="uni0396" unicode="Ζ" d="M508 0H40v112l304 476H53v124h455V602L203 124h305V0z" horiz-adv-x="548" vert-adv-y="1000"/><glyph glyph-name="uni0397" unicode="Η" d="M602 0H463v298H222V0H83v712h139V421h241v291h139V0z" horiz-adv-x="685" vert-adv-y="1000"/><glyph glyph-name="uni0398" unicode="Θ" d="M573 535l6-29.5q6-29.5 6-149.5t-12-179q-12-59-61-108Q437-6 322-6 208-6 131 69q-49 49-60.5 107.5T59 356q0 121 11.5 179.5T131 643q77 75 191 75 115 0 190-75 49-49 61-108M411 157q18 19 25.5 48.5T445 300H198q2-65 9.5-94t24.5-49q36-39 90-39 55 0 89 39M232 556q-17-19-24.5-47.5T199 419h246q-2 61-9.5 89.5T411 556q-33 38-89 38-55 0-90-38z" horiz-adv-x="644" vert-adv-y="1000"/><glyph glyph-name="uni0399" unicode="Ι" d="M222 0H83v712h139V0z" horiz-adv-x="305" vert-adv-y="1000"/><glyph glyph-name="uni039A" unicode="Κ" d="M659 0H497L314 324l-92-110V0H83v712h139V402l251 310h169L406 429 659 0z" horiz-adv-x="665" vert-adv-y="1000"/><glyph glyph-name="uni039B" unicode="Λ" d="M603 0H458L309 498 153 0H8l240 712h114L603 0z" horiz-adv-x="611" vert-adv-y="1000"/><glyph glyph-name="uni039C" unicode="Μ" d="M728 0H589v415L453 145h-94L222 415V0H83v712h137l186-385 185 385h137V0z" horiz-adv-x="811" vert-adv-y="1000"/><glyph glyph-name="uni039D" unicode="Ν" d="M628 0H504L222 437V0H83v712h124l282-436v436h139V0z" horiz-adv-x="711" vert-adv-y="1000"/><glyph glyph-name="uni039E" unicode="Ξ" d="M544 0H53v124h176v173H101v124h128v167H53v124h491V588H368V421h128V297H368V124h176V0z" horiz-adv-x="597" vert-adv-y="1000"/><glyph glyph-name="uni039F" unicode="Ο" d="M573 535l6-29.5q6-29.5 6-149.5t-12-179q-12-59-61-108Q437-6 322-6 206-6 131 69q-49 49-60.5 107.5T59 356q0 121 11.5 179.5T131 643q75 75 191 75 115 0 190-75 49-49 61-108M446 356q0 99-7.5 138T411 556q-33 38-89 38-55 0-90-38-20-23-27-62t-7-138q0-99 7-137.5t27-61.5q36-39 90-39 55 0 89 39 20 24 27.5 62.5T446 356z" horiz-adv-x="644" vert-adv-y="1000"/><glyph glyph-name="uni03A0" unicode="Π" d="M599 0H460v588H222V0H83v712h516V0z" horiz-adv-x="682" vert-adv-y="1000"/><glyph glyph-name="uni03A1" unicode="Ρ" d="M530.5 648l31.75-32Q594 584 594 490t-63.5-158Q467 268 359 268H222V0H83v712h276q108 0 171.5-64M427 419.5l14 13.25Q455 446 455 490t-28 71q-28 27-75 27H222V393h130q47 0 75 26.5z" horiz-adv-x="628" vert-adv-y="1000"/><glyph glyph-name="uni03A3" unicode="Σ" d="M511 588H224l131-212-152-252h305V0H40v111l161 263L56 606v106h455V588z" horiz-adv-x="547" vert-adv-y="1000"/><glyph glyph-name="uni03A4" unicode="Τ" d="M541 588H355V0H216v588H30v124h511V588z" horiz-adv-x="571" vert-adv-y="1000"/><glyph glyph-name="uni03A5" unicode="Υ" d="M569 712L355 292V0H217v292L3 712h151l133-287 131 287h151z" horiz-adv-x="572" vert-adv-y="1000"/><glyph glyph-name="uni03A6" unicode="Φ" d="M658 583q71-71 71-224t-71-224q-78-78-200-78V0H319v57q-122 0-200 78-71 71-71 224t71 224q78 78 200 78v51h139v-51q122 0 200-78m-68-224q0 98-33 137-35 41-99 41V181q65 0 99 40 33 39 33 138M319 181v356q-64 0-99-41-33-39-33-137 0-99 33-138 34-40 99-40z" horiz-adv-x="777" vert-adv-y="1000"/><glyph glyph-name="uni03A7" unicode="Χ" d="M598 0H439L301 248 164 0H5l221 365L19 712h158l124-230 125 230h157L376 365 598 0z" horiz-adv-x="603" vert-adv-y="1000"/><glyph glyph-name="uni03A8" unicode="Ψ" d="M695 363q0-99-65-164-77-77-188-78V0H303v121q-111 1-188 78-65 65-65 164v349h138V363q0-48 30-80 35-36 85-38v467h139V245q50 2 85 38 30 32 30 80v349h138V363z" horiz-adv-x="745" vert-adv-y="1000"/><glyph glyph-name="uni03A9" unicode="Ω" d="M585 356q0-121-23-178-13-31-36-54h59V0H366v110q37 18 53 43 27 38 27 196 0 101-7 142t-28 64q-34 39-89 39-54 0-90-39-20-23-27-64.5T198 349q0-159 26-196 18-27 54-43V0H59v124h59q-24 22-37 54-22 57-22 178t11.5 179.5Q82 594 131 643q77 75 191 75 115 0 190-75 49-49 61-108t12-179z" horiz-adv-x="644" vert-adv-y="1000"/><glyph glyph-name="uni03AA" unicode="Ϊ" d="M222 0H83v712h139V0m94 783H205v125h111V783m-221 0H-16v125H95V783z" horiz-adv-x="305" vert-adv-y="1000"/><glyph glyph-name="uni03AB" unicode="Ϋ" d="M569 712L355 292V0H217v292L3 712h151l133-287 131 287h151m-118 71H340v125h111V783m-221 0H119v125h111V783z" horiz-adv-x="572" vert-adv-y="1000"/><glyph glyph-name="uni03AC" unicode="ά" d="M488 0H361v49Q312-6 232-6q-81 0-128 47-24 24-36.5 65.5t-14.5 72Q51 209 51 261t2 82.5Q55 374 67.5 415t36.5 65q47 47 127 47 81 0 129-54v48h128V0M355 201.5l1.5 11.75Q358 225 358 261t-3 59.5q-3 23.5-11.5 45.5t-27 33Q298 410 270 410q-54 0-71.5-38T181 261q0-35 3-59.5t12-46.5q9-22 27.5-33t46.5-11q28 0 46.5 11t27 33.5q8.5 22.5 11.5 46M342 622l-116-49v158h116V622z" horiz-adv-x="561" vert-adv-y="1000"/><glyph glyph-name="uni03AD" unicode="έ" d="M490 85q-55-52-105.5-71T258-5q-88 0-150.5 39T45 151q0 83 77 119-25 12-44 39.5T59 377q0 68 60 109t145 41q61 0 104-15t96-57l-73-88q-35 28-61 40t-60 12q-36 0-59-15.5T188 363q0-21 18-35t47-14h98v-99h-99q-39 0-57-15.5T177 164q0-26 26.5-42.5T269 105q71 0 137 58l84-78M332 622l-116-49v158h116V622z" horiz-adv-x="510" vert-adv-y="1000"/><glyph glyph-name="uni03AE" unicode="ή" d="M506 0H376v315q0 49-25.5 72T290 410q-36 0-61.5-23T203 315V0H73v521h127v-48q51 54 130 54 77 0 123-46 53-53 53-148V0M352 622l-116-49v158h116V622z" horiz-adv-x="573" vert-adv-y="1000"/><glyph glyph-name="uni03AF" unicode="ί" d="M294 0h-74q-75 0-113.5 44T68 149v372h130V157q0-47 46-47h50V0M194 622L78 573v158h116V622z" horiz-adv-x="325" vert-adv-y="1000"/><glyph glyph-name="uni03B0" unicode="ΰ" d="M489 240q0-69-12-110t-43-74Q374-6 272-6 171-6 111 56q-31 33-43 74T56 240v281h130V207q0-50 25-73t61-23q36 0 61.5 23t25.5 73v314h130V240m-3 350H375v125h111V590m-153 49l-115-49v158h115V639m-163-49H59v125h111V590z" horiz-adv-x="545" vert-adv-y="1000"/><glyph glyph-name="uni03B1" unicode="α" d="M488 0H361v49Q312-6 232-6q-81 0-128 47-24 24-36.5 65.5t-14.5 72Q51 209 51 261t2 82.5Q55 374 67.5 415t36.5 65q47 47 127 47 81 0 129-54v48h128V0M355 201.5l1.5 11.75Q358 225 358 261t-3 59.5q-3 23.5-11.5 45.5t-27 33Q298 410 270 410q-54 0-71.5-38T181 261q0-35 3-59.5t12-46.5q9-22 27.5-33t46.5-11q28 0 46.5 11t27 33.5q8.5 22.5 11.5 46z" horiz-adv-x="561" vert-adv-y="1000"/><glyph glyph-name="uni03B2" unicode="β" d="M531 218q0-110-58-169Q418-6 333-6q-83 0-134 55V0H73v520q0 92 61.5 143.5T294 715q95 0 154-47.5T507 535q0-65-29-103-23-29-52-41 40-14 63-40 42-48 42-133m-129 10q0 69-44 89-29 13-72 13h-51v103h61q87 0 87 88 0 36-21 59-23 25-65 25-93 0-93-99V211q0-45 26-73t67-28q44 0 69 21 36 31 36 97z" horiz-adv-x="579" vert-adv-y="1000"/><glyph glyph-name="uni03B3" unicode="γ" d="M490 521L311 15v-206H182V15L4 521h138l106-340 104 340h138z" horiz-adv-x="494" vert-adv-y="1000"/><glyph glyph-name="uni03B4" unicode="δ" d="M486 265q0-137-54-202Q375-6 266-6 162-6 106 61q-55 65-55 195 0 138 65 199 45 43 106 43 23 0 35-4L110 615v97h344V611H274l110-92q102-85 102-254m-132-9q0 97-33 126-19 16-50 16-29 0-51-15-39-28-39-127t36-128q19-16 51-16 33 0 51 15 35 27 35 129z" horiz-adv-x="537" vert-adv-y="1000"/><glyph glyph-name="uni03B5" unicode="ε" d="M490 85q-55-52-105.5-71T258-5q-88 0-150.5 39T45 151q0 83 77 119-25 12-44 39.5T59 377q0 68 60 109t145 41q61 0 104-15t96-57l-73-88q-35 28-61 40t-60 12q-36 0-59-15.5T188 363q0-21 18-35t47-14h98v-99h-99q-39 0-57-15.5T177 164q0-26 26.5-42.5T269 105q71 0 137 58l84-78z" horiz-adv-x="510" vert-adv-y="1000"/><glyph glyph-name="uni03B6" unicode="ζ" d="M472-19q0-15-3-30.5t-14-37q-11-21.5-29-38T373.5-153Q339-165 293-165v101q57 0 57 41 0 26-49 26h-44Q43 3 43 161q0 142 191 243H76v117h384V404h-19q-42-18-82.5-40.5t-83-52.5Q233 281 207 245.5T181 175q0-33 23.5-46t74.5-13h29q164 0 164-135z" horiz-adv-x="500" vert-adv-y="1000"/><glyph glyph-name="uni03B7" unicode="η" d="M506 0H376v315q0 49-25.5 72T290 410q-36 0-61.5-23T203 315V0H73v521h127v-48q51 54 130 54 77 0 123-46 53-53 53-148V0z" horiz-adv-x="573" vert-adv-y="1000"/><glyph glyph-name="uni03B8" unicode="θ" d="M512 440.5l.5-14.75Q513 411 513 356t-1-84.5q-1-29.5-6.5-74t-19.5-77Q472 88 450 63 390-6 288-6 185-6 125 63q-22 25-36 57.5t-19.5 77Q64 242 63 271.5T62 356q0 55 1 84.5t6.5 74Q75 559 89 591.5t36 57.5q62 69 163 69 100 0 162-69 22-25 36-57.5t19.5-77q5.5-44.5 6.5-74M382 311H193q0-135 27-167 26-33 68-33 41 0 67 33 27 32 27 167m0 109q0 116-27 148-26 33-67 33-42 0-68-33-27-32-27-148h189z" horiz-adv-x="575" vert-adv-y="1000"/><glyph glyph-name="uni03B9" unicode="ι" d="M294 0h-74q-75 0-113.5 44T68 149v372h130V157q0-47 46-47h50V0z" horiz-adv-x="325" vert-adv-y="1000"/><glyph glyph-name="uni03BA" unicode="κ" d="M548 0H386L258 217l-55-62V0H72v521h131V308l173 213h157L347 311 548 0z" horiz-adv-x="560" vert-adv-y="1000"/><glyph glyph-name="uni03BB" unicode="λ" d="M522 0h-54q-62 0-96.5 32.5T318 127l-60 193L145 0H8l188 486-21 74q-12 42-57 42H86v115h48q73 0 113-41 23-23 38-66l152-458q13-42 48-42h37V0z" horiz-adv-x="514" vert-adv-y="1000"/><glyph glyph-name="uni03BC" unicode="μ" d="M503 0H376v48Q325-6 246-6q-27 0-46 14v-199H70v712h130V206q0-49 25.5-72t60.5-23q36 0 61.5 23t25.5 72v315h130V0z" horiz-adv-x="576" vert-adv-y="1000"/><glyph glyph-name="uni03BD" unicode="ν" d="M490 521L298 0H196L4 521h138l106-321 104 321h138z" horiz-adv-x="494" vert-adv-y="1000"/><glyph glyph-name="uni03BE" unicode="ξ" d="M497 628l-72-84q-61 67-134 67-44 0-69.5-25.5T196 516q0-41 25-63.5t68-22.5h120V321H299q-15 0-31.5-3.5T229 304q-22-10-36.5-34T178 212q0-48 28.5-72t74.5-24h44q155 0 155-135 0-15-3-30.5t-14-37q-11-21.5-29-38T381.5-153Q347-165 301-165v101q57 0 57 41 0 16-12.5 21T305 3h-44Q159 3 101 53T43 196q0 68 33.5 115.5T165 379q-43 14-69 52t-26 88q0 92 61.5 146.5T287 720q127 0 210-92z" horiz-adv-x="509" vert-adv-y="1000"/><glyph glyph-name="uni03BF" unicode="ο" d="M492 261q0-75-12.5-121.5T433 58Q371-6 271-6q-99 0-161 64-34 36-46.5 82.5T51 261q0 74 12.5 120t46.5 82q62 64 161 64 102 0 162-64 34-36 46.5-82T492 261m-130 0q0 97-30 126-23 23-61 23-37 0-60-23-30-29-30-126 0-98 30-127 23-23 60-23 38 0 61 23 30 29 30 127z" horiz-adv-x="543" vert-adv-y="1000"/><glyph glyph-name="uni03C0" unicode="π" d="M511 0H382v399H202V0H72v521h439V0z" horiz-adv-x="578" vert-adv-y="1000"/><glyph glyph-name="uni03C1" unicode="ρ" d="M485 259q0-139-60-204Q370-6 283-6q-50 0-102 46v-231H51v451q0 80 12 121.5t37 70.5q62 75 164 75 103 0 163-64 35-37 46.5-82T485 259m-130 1q0 83-19 115-22 34-70 34-44 0-65-33-20-31-20-115 0-80 15-108 23-40 71-40 52 0 70 39t18 108z" horiz-adv-x="536" vert-adv-y="1000"/><glyph glyph-name="uni03C2" unicode="ς" d="M452 457l-89-88q-38 41-82 41-47 0-75-34t-28-115q0-127 116-139 146-16 146-141 0-15-3-30.5t-14-37q-11-21.5-29-38T341.5-153Q307-165 261-165v101q57 0 57 41 0 29-64 35-93 7-150 68T47 261q0 75 21.5 130t57.5 83q36 28 74 40.5t81 12.5q104 0 171-70z" horiz-adv-x="480" vert-adv-y="1000"/><glyph glyph-name="uni03C3" unicode="σ" d="M521 410h-83q24-19 39.5-62t15.5-87q0-74-13-120.5T433 58Q371-6 272-6T111 58q-34 36-47 82.5T51 261q0 74 12.5 119.5T110 461q58 60 160 60h251V410M363 261q0 99-31 130-22 22-61 22-36 0-60-24-30-30-30-128 0-97 30-127 23-23 61-23t61 23q30 30 30 127z" horiz-adv-x="567" vert-adv-y="1000"/><glyph glyph-name="uni03C4" unicode="τ" d="M383 404H268V0H137v404H22v117h361V404z" horiz-adv-x="405" vert-adv-y="1000"/><glyph glyph-name="uni03C5" unicode="υ" d="M489 240q0-69-12-110t-43-74Q374-6 272-6 171-6 111 56q-31 33-43 74T56 240v281h130V207q0-50 25-73t61-23q36 0 61.5 23t25.5 73v314h130V240z" horiz-adv-x="545" vert-adv-y="1000"/><glyph glyph-name="uni03C6" unicode="φ" d="M648 263Q648-2 416-6v-185H286V-6Q166-1 108.5 72.5T51 261q0 184 158 262l46-96q-73-46-73-170 0-142 104-149v413h115q131 0 189-62t58-196m-131 2q0 73-20 108.5T416 409V108q62 2 81.5 40.5T517 265z" horiz-adv-x="699" vert-adv-y="1000"/><glyph glyph-name="uni03C7" unicode="χ" d="M515 0H359l-96 156L168 0H12l180 266L19 521h156l88-149 89 149h156L335 266 515 0z" horiz-adv-x="527" vert-adv-y="1000"/><glyph glyph-name="uni03C8" unicode="ψ" d="M642 261q0-73-12.5-120.5T586 59Q531-3 416-3v-188H285V-3Q170-3 115 59q-57 62-57 202v260h131V237q0-126 96-126v410h131V111q95 0 95 126v284h131V261z" horiz-adv-x="700" vert-adv-y="1000"/><glyph glyph-name="uni03C9" unicode="ω" d="M708 261q0-129-43-190Q610-6 514-6q-89 0-135 71Q333-6 244-6 149-6 94 71q-43 61-43 190 0 138 56 199 63 67 161 67V409q-38 0-62-29-15-18-20-43t-5-76q0-87 22-121 19-28 49-28 40 0 55 51 7 26 7 64v142h130V227q0-43 6-64 14-51 56-51 30 0 49 28 22 34 22 121 0 52-4.5 77T553 380q-24 29-63 29v118q98 0 161-67 57-62 57-199z" horiz-adv-x="759" vert-adv-y="1000"/><glyph glyph-name="uni03CA" unicode="ϊ" d="M294 0h-74q-75 0-113.5 44T68 149v372h130V157q0-47 46-47h50V0m10 606H193v125h111V606m-221 0H-28v125H83V606z" horiz-adv-x="325" vert-adv-y="1000"/><glyph glyph-name="uni03CB" unicode="ϋ" d="M489 240q0-69-12-110t-43-74Q374-6 272-6 171-6 111 56q-31 33-43 74T56 240v281h130V207q0-50 25-73t61-23q36 0 61.5 23t25.5 73v314h130V240m-46 366H332v125h111V606m-221 0H111v125h111V606z" horiz-adv-x="545" vert-adv-y="1000"/><glyph glyph-name="uni03CC" unicode="ό" d="M492 261q0-75-12.5-121.5T433 58Q371-6 271-6q-99 0-161 64-34 36-46.5 82.5T51 261q0 74 12.5 120t46.5 82q62 64 161 64 102 0 162-64 34-36 46.5-82T492 261m-130 0q0 97-30 126-23 23-61 23-37 0-60-23-30-29-30-126 0-98 30-127 23-23 60-23 38 0 61 23 30 29 30 127m-30 361l-116-49v158h116V622z" horiz-adv-x="543" vert-adv-y="1000"/><glyph glyph-name="uni03CD" unicode="ύ" d="M489 240q0-69-12-110t-43-74Q374-6 272-6 171-6 111 56q-31 33-43 74T56 240v281h130V207q0-50 25-73t61-23q36 0 61.5 23t25.5 73v314h130V240M332 622l-116-49v158h116V622z" horiz-adv-x="545" vert-adv-y="1000"/><glyph glyph-name="uni03CE" unicode="ώ" d="M708 261q0-129-43-190Q610-6 514-6q-89 0-135 71Q333-6 244-6 149-6 94 71q-43 61-43 190 0 138 56 199 63 67 161 67V409q-38 0-62-29-15-18-20-43t-5-76q0-87 22-121 19-28 49-28 40 0 55 51 7 26 7 64v142h130V227q0-43 6-64 14-51 56-51 30 0 49 28 22 34 22 121 0 52-4.5 77T553 380q-24 29-63 29v118q98 0 161-67 57-62 57-199M440 622l-116-49v158h116V622z" horiz-adv-x="759" vert-adv-y="1000"/><glyph glyph-name="uni03D0" unicode="ϐ" d="M531 218q0-110-58-169Q418-6 333-6q-82 0-130 52v-237H73v712q0 92 61.5 143T294 715q95 0 154-47.5T507 535q0-65-29-103-23-29-52-41 40-14 63-40 42-48 42-133m-129 10q0 69-44 89-29 13-72 13h-51v103h61q87 0 87 88 0 36-21 59-23 25-65 25-94 0-94-99V211q0-45 26.5-73t67.5-28q44 0 69 21 36 31 36 97z" horiz-adv-x="579" vert-adv-y="1000"/><glyph glyph-name="uni0400" unicode="Ѐ" d="M365 781h-87L164 951h137l64-170M552 0H83v712h469V588H222V421h281V297H222V124h330V0z" horiz-adv-x="605" vert-adv-y="1000"/><glyph glyph-name="uni0401" unicode="Ё" d="M552 0H83v712h469V588H222V421h281V297H222V124h330V0m-76 783H365v125h111V783m-221 0H144v125h111V783z" horiz-adv-x="605" vert-adv-y="1000"/><glyph glyph-name="uni0402" unicode="Ђ" d="M621 388.5l31.5-29.75Q684 329 684 225T620.5 60.5Q557 0 453 0h-42v119h31q47 0 75 27.5t28 77.5q0 50-28 77t-75 27H323V0H185v588H28v124h512V588H323V448h130q105 0 168-59.5z" horiz-adv-x="748" vert-adv-y="1000"/><glyph glyph-name="uni0403" unicode="Ѓ" d="M534 588H225V0H86v712h448V588m-94 363L326 781h-87l64 170h137z" horiz-adv-x="561" vert-adv-y="1000"/><glyph glyph-name="uni0404" unicode="Є" d="M582 216q-18-107-88.5-164.5T321-6Q208-6 131 69q-49 49-60.5 107.5T59 356q0 121 11.5 179.5T131 643q77 75 190 75 102 0 172.5-57.5T582 496H443q-11 46-41.5 73.5T322 597q-57 0-91-39-18-20-25.5-49t-9.5-91h218V297H196q2-65 9.5-94t25.5-49q34-39 91-39 96 0 122 101h138z" horiz-adv-x="619" vert-adv-y="1000"/><glyph glyph-name="uni0405" unicode="Ѕ" d="M543 210q0-101-74-158.5T279-6q-85 0-147 21.5T19 88l90 90q60-60 171-60 62 0 94.5 23t32.5 66q0 37-22 59-19 18-64 24l-85 13q-90 13-138 59-51 50-51 140 0 97 67 156.5T295 718q144 0 230-83l-88-87q-50 49-146 49-53 0-81-25.5T182 507q0-32 20-51 23-21 65-27l85-13q91-13 136-56 55-51 55-150z" horiz-adv-x="591" vert-adv-y="1000"/><glyph glyph-name="uni0406" unicode="І" d="M222 0H83v712h139V0z" horiz-adv-x="305" vert-adv-y="1000"/><glyph glyph-name="uni0407" unicode="Ї" d="M222 0H83v712h139V0m97 783H208v125h111V783m-221 0H-13v125H98V783z" horiz-adv-x="305" vert-adv-y="1000"/><glyph glyph-name="uni0408" unicode="Ј" d="M437 234q0-113-73-176.5T186-6Q128-6 85 11T3 67l92 91q40-40 91-40 52 0 82 31t30 91v472h139V234z" horiz-adv-x="511" vert-adv-y="1000"/><glyph glyph-name="uni0409" unicode="Љ" d="M732 319H602V124h130q47 0 75 27t28 71q0 44-28 70.5T732 319M159 712h443V444h141q104 0 167.5-62T974 222q0-98-64-160T743 0H463v588H293V381q0-147-25.5-231.5t-72-117Q149 0 72 0H17v124h20q29 0 49.5 10.5t38 38q17.5 27.5 26 81.5t8.5 135v323z" horiz-adv-x="1008" vert-adv-y="1000"/><glyph glyph-name="uni040A" unicode="Њ" d="M910.5 382l31.75-31Q974 320 974 222T910 62Q846 0 743 0H463v320H222V0H83v712h139V444h241v268h139V444h141q104 0 167.5-62M732 319H602V124h130q47 0 75 27t28 71q0 44-28 70.5T732 319z" horiz-adv-x="1008" vert-adv-y="1000"/><glyph glyph-name="uni040B" unicode="Ћ" d="M684 0H545v231q0 44-28.5 70.5T442 328H323V0H185v588H29v124h511V588H323V448h130q104 0 167.5-60T684 231V0z" horiz-adv-x="748" vert-adv-y="1000"/><glyph glyph-name="uni040C" unicode="Ќ" d="M224 0H85v712h139V0m421 0H475L225 373l230 339h166L382 378 645 0M487 951L373 781h-87l64 170h137z" horiz-adv-x="641" vert-adv-y="1000"/><glyph glyph-name="uni040D" unicode="Ѝ" d="M623 0H484v457L207 0H83v712h139V256l277 456h124V0M401 781h-87L200 951h137l64-170z" horiz-adv-x="706" vert-adv-y="1000"/><glyph glyph-name="uni040E" unicode="Ў" d="M460 893q-3-75-49-109t-113-34q-67 0-113 34t-49 109h98q4-62 64-62t64 62h98m117-181L325 120Q274 0 166 0H81v124h56q54 0 74 45l21 49L4 712h145l149-343 135 343h144z" horiz-adv-x="581" vert-adv-y="1000"/><glyph glyph-name="uni040F" unicode="Џ" d="M602 0H410v-158H276V0H83v712h139V124h241v588h139V0z" horiz-adv-x="686" vert-adv-y="1000"/><glyph glyph-name="uni0410" unicode="А" d="M633 0H488l-42 126H193L150 0H5l259 712h109L633 0M409 243l-87 259-90-259h177z" horiz-adv-x="638" vert-adv-y="1000"/><glyph glyph-name="uni0411" unicode="Б" d="M536.5 382.5l31.25-30.75Q599 321 599 222T536.5 61.5Q474 0 368 0H83v712h471V588H222V444h146q106 0 168.5-61.5M460 222q0 44-26.5 71T361 320H222V124h139q46 0 72.5 26.5T460 222z" horiz-adv-x="654" vert-adv-y="1000"/><glyph glyph-name="uni0412" unicode="В" d="M501 365q34-18 54-38 44-47 44-123 0-94-59-149T381 0H83v712h286q101 0 160.5-53T589 516q0-102-88-151m-279 59h136q43 0 67.5 22t24.5 60q0 38-24.5 60T358 588H222V424m0-300h145q43 0 68 24t25 64q0 40-25 63.5T367 299H222V124z" horiz-adv-x="658" vert-adv-y="1000"/><glyph glyph-name="uni0413" unicode="Г" d="M534 588H225V0H86v712h448V588z" horiz-adv-x="561" vert-adv-y="1000"/><glyph glyph-name="uni0414" unicode="Д" d="M677-158H543V0H148v-158H14v282h67q85 131 85 406v182h429V124h82v-282M456 124v464H299V485q0-234-63-361h220z" horiz-adv-x="705" vert-adv-y="1000"/><glyph glyph-name="uni0415" unicode="Е" d="M552 0H83v712h469V588H222V421h281V297H222V124h330V0z" horiz-adv-x="605" vert-adv-y="1000"/><glyph glyph-name="uni0416" unicode="Ж" d="M947 0H779L541 373l218 339h164L690 378 947 0M162 0H-6l257 378L18 712h164l218-339L162 0m378 0H401v712h139V0z" horiz-adv-x="941" vert-adv-y="1000"/><glyph glyph-name="uni0417" unicode="З" d="M293-6Q193-6 122.5 51.5T34 216h138q27-101 122-101 52 0 83 26.5t31 69.5q0 46-27.5 71T300 307h-92v114h93q46 0 71.5 23.5T398 511q0 41-28 64.5T295 599q-49 0-79.5-28.5T174 496H35q18 107 88.5 164.5T296 718q106 0 173.5-54T537 521q0-103-93-153 103-46 103-162 0-96-71-154T293-6z" horiz-adv-x="606" vert-adv-y="1000"/><glyph glyph-name="uni0418" unicode="И" d="M623 0H484v457L207 0H83v712h139V256l277 456h124V0z" horiz-adv-x="706" vert-adv-y="1000"/><glyph glyph-name="uni0419" unicode="Й" d="M516 893q-3-75-49-109t-113-34q-67 0-113 34t-49 109h98q4-62 64-62t64 62h98M623 0H484v457L207 0H83v712h139V256l277 456h124V0z" horiz-adv-x="706" vert-adv-y="1000"/><glyph glyph-name="uni041A" unicode="К" d="M224 0H85v712h139V0m421 0H475L225 373l230 339h166L382 378 645 0z" horiz-adv-x="641" vert-adv-y="1000"/><glyph glyph-name="uni041B" unicode="Л" d="M602 0H463v588H293V381q0-147-25.5-231.5t-72-117Q149 0 72 0H17v124h20q29 0 49.5 10.5t38 38q17.5 27.5 26 81.5t8.5 135v323h443V0z" horiz-adv-x="686" vert-adv-y="1000"/><glyph glyph-name="uni041C" unicode="М" d="M728 0H589v415L453 145h-94L222 415V0H83v712h137l186-385 185 385h137V0z" horiz-adv-x="811" vert-adv-y="1000"/><glyph glyph-name="uni041D" unicode="Н" d="M602 0H463v298H222V0H83v712h139V421h241v291h139V0z" horiz-adv-x="685" vert-adv-y="1000"/><glyph glyph-name="uni041E" unicode="О" d="M573 535l6-29.5q6-29.5 6-149.5t-12-179q-12-59-61-108Q437-6 322-6 206-6 131 69q-49 49-60.5 107.5T59 356q0 121 11.5 179.5T131 643q75 75 191 75 115 0 190-75 49-49 61-108M446 356q0 99-7.5 138T411 556q-33 38-89 38-55 0-90-38-20-23-27-62t-7-138q0-99 7-137.5t27-61.5q36-39 90-39 55 0 89 39 20 24 27.5 62.5T446 356z" horiz-adv-x="644" vert-adv-y="1000"/><glyph glyph-name="uni041F" unicode="П" d="M602 0H463v588H222V0H83v712h519V0z" horiz-adv-x="685" vert-adv-y="1000"/><glyph glyph-name="uni0420" unicode="Р" d="M530.5 648l31.75-32Q594 584 594 490t-63.5-158Q467 268 359 268H222V0H83v712h276q108 0 171.5-64M427 419.5l14 13.25Q455 446 455 490t-28 71q-28 27-75 27H222V393h130q47 0 75 26.5z" horiz-adv-x="628" vert-adv-y="1000"/><glyph glyph-name="uni0421" unicode="С" d="M583 219q-19-109-89-167T322-6Q208-6 131 69q-49 49-60.5 107.5T59 356q0 121 11.5 179.5T131 643q77 75 191 75 102 0 172-58t89-167H441q-24 101-119 101-57 0-89-37-20-23-27.5-62.5T198 356q0-99 7.5-138.5T233 155q32-37 89-37 96 0 120 101h141z" horiz-adv-x="620" vert-adv-y="1000"/><glyph glyph-name="uni0422" unicode="Т" d="M541 588H355V0H216v588H30v124h511V588z" horiz-adv-x="571" vert-adv-y="1000"/><glyph glyph-name="uni0423" unicode="У" d="M577 712L325 120Q274 0 166 0H81v124h56q54 0 74 45l21 49L4 712h145l149-343 135 343h144z" horiz-adv-x="581" vert-adv-y="1000"/><glyph glyph-name="uni0424" unicode="Ф" d="M778 378q0-285-301-296V-5H338v87Q38 93 38 378q0 139 72.5 214T338 674v70h139v-70q155-7 228-82t73-214M340 200v356q-88-4-125.5-46.5T177 378q0-89 37.5-131.5T340 200m261 46.5l19 21.25Q639 289 639 378t-38 131.5Q563 552 475 556V200q88 4 126 46.5z" horiz-adv-x="814" vert-adv-y="1000"/><glyph glyph-name="uni0425" unicode="Х" d="M598 0H439L301 248 164 0H5l221 365L19 712h158l124-230 125 230h157L376 365 598 0z" horiz-adv-x="603" vert-adv-y="1000"/><glyph glyph-name="uni0426" unicode="Ц" d="M685-158H551V0H83v712h139V124h241v588h139V124h83v-282z" horiz-adv-x="712" vert-adv-y="1000"/><glyph glyph-name="uni0427" unicode="Ч" d="M565 0H427v267q-117-19-181-19-75 0-128.5 45T64 421v291h139V457q0-85 89-85 62 0 135 15v325h138V0z" horiz-adv-x="648" vert-adv-y="1000"/><glyph glyph-name="uni0428" unicode="Ш" d="M905 0H83v712h139V124h203v588h139V124h202v588h139V0z" horiz-adv-x="988" vert-adv-y="1000"/><glyph glyph-name="uni0429" unicode="Щ" d="M987-158H853V0H83v712h139V124h203v588h139V124h202v588h139V124h82v-282z" horiz-adv-x="1014" vert-adv-y="1000"/><glyph glyph-name="uni042A" unicode="Ъ" d="M629 382l32-31q32-31 32-129T628.5 62Q564 0 462 0H182v588H30v124h291V444h141q103 0 167-62M526 151l14 13.5q14 13.5 14 57.5t-28.5 71Q497 320 451 320H321V124h130q47 0 75 27z" horiz-adv-x="727" vert-adv-y="1000"/><glyph glyph-name="uni042B" unicode="Ы" d="M810 0H671v712h139V0M530.5 382l31.75-31Q594 320 594 222T530 62Q466 0 363 0H83v712h139V444h141q104 0 167.5-62M427 151l14 13.5q14 13.5 14 57.5t-28 71q-28 27-75 27H222V124h130q47 0 75 27z" horiz-adv-x="893" vert-adv-y="1000"/><glyph glyph-name="uni042C" unicode="Ь" d="M530.5 382l31.75-31Q594 320 594 222T530 62Q466 0 363 0H83v712h139V444h141q104 0 167.5-62M427 151l14 13.5q14 13.5 14 57.5t-28 71q-28 27-75 27H222V124h130q47 0 75 27z" horiz-adv-x="628" vert-adv-y="1000"/><glyph glyph-name="uni042D" unicode="Э" d="M37 216h138q26-101 122-101 57 0 91 39 18 20 25.5 49.5T423 297H202v121h221q-2 62-9.5 91T388 558q-34 39-91 39-49 0-79.5-27.5T176 496H37q18 107 88.5 164.5T298 718q113 0 190-75 49-49 60.5-107.5T560 356q0-121-11.5-179.5T488 69Q411-6 298-6 196-6 125.5 51.5T37 216z" horiz-adv-x="619" vert-adv-y="1000"/><glyph glyph-name="uni042E" unicode="Ю" d="M843 535l6-29.5q6-29.5 6-149.5t-12-179q-12-59-61-108Q707-6 592-6 476-6 401 69q-43 42-57 93t-15 136H222V0H83v712h139V422h107q2 80 16.5 130t55.5 91q75 75 191 75 115 0 190-75 49-49 61-108M716 356q0 99-7.5 138T681 556q-33 38-89 38-55 0-90-38-20-23-27-62t-7-138q0-99 7-137.5t27-61.5q36-39 90-39 55 0 89 39 20 24 27.5 62.5T716 356z" horiz-adv-x="914" vert-adv-y="1000"/><glyph glyph-name="uni042F" unicode="Я" d="M314 268L197 0H32l147 296q-57 26-89.5 76.5T57 490q0 101 65 161.5T291 712h276V0H428v268H314m114 123v199H298q-47 0-75-27t-28-71q0-44 28.5-72.5T298 391h130z" horiz-adv-x="650" vert-adv-y="1000"/><glyph glyph-name="uni0430" unicode="а" d="M467 0H340v45q-27-27-55.5-38.5T212-5Q125-5 79 41 36 86 36 158q0 66 46 108.5T216 309h121v26q0 43-23 62.5T240 417q-61 0-100-45l-82 81q38 42 79.5 58T245 527q222 0 222-184V0M337 192v28h-99q-77 0-77-60 0-59 79-59 51 0 77 25 20 17 20 66z" horiz-adv-x="534" vert-adv-y="1000"/><glyph glyph-name="uni0431" unicode="б" d="M218 136q21-25 62-25t63 26q27 33 27 123 0 86-26 118-21 28-64 28t-65-27q-26-34-26-118 0-93 29-125M282-6Q153-6 101 75q-42 66-42 229 0 124 7.5 190.5t24 102.5q16.5 36 51.5 63 45 35 114.5 46T455 718V606q-15-1-51.5-2.5t-59-3q-22.5-1.5-52-7.5T242 576q-36-19-51-46t-15-74q15 26 51.5 43t78.5 17q81 0 128-42 66-62 66-211 0-77-15-125t-49-84Q379-6 282-6z" horiz-adv-x="548" vert-adv-y="1000"/><glyph glyph-name="uni0432" unicode="в" d="M498 150q0-69-43-109.5T338 0H72v521h257q73 0 117-39t44-104q0-72-66-110 74-38 74-118M298 425h-97V313h97q63 0 63 57 0 55-63 55m71-268q0 29-17 45t-48 16H201V96h103q30 0 47.5 16.5T369 157z" horiz-adv-x="550" vert-adv-y="1000"/><glyph glyph-name="uni0433" unicode="г" d="M421 406H206V0H76v521h345V406z" horiz-adv-x="434" vert-adv-y="1000"/><glyph glyph-name="uni0434" unicode="д" d="M557-128H434V0H136v-128H13v243h53q51 91 51 247v159h374V115h66v-243M361 115v291H242v-68q0-141-40-223h159z" horiz-adv-x="580" vert-adv-y="1000"/><glyph glyph-name="uni0435" unicode="е" d="M501 220H175q0-52 30-84t84-32q40 0 65.5 11.5T407 153l79-77q-42-43-86.5-62.5T288-6q-50 0-90.5 12.5T122 48q-35 29-55 83T47 261q0 125 62 195.5T274 527q107 0 167-69.5T501 275v-55m-128 89q-1 34-12 56-24 54-87 54t-87-54q-11-22-12-56h198z" horiz-adv-x="548" vert-adv-y="1000"/><glyph glyph-name="uni0436" unicode="ж" d="M769 0H617L448 273l161 248h149L587 278 769 0M447 0H316v521h131V0M147 0H-6l183 278L6 521h149l160-248L147 0z" horiz-adv-x="763" vert-adv-y="1000"/><glyph glyph-name="uni0437" unicode="з" d="M444 154q0-71-58.5-115.5T245-6Q99-6 17 68l75 81q51-45 131-45 38 0 65 15.5t27 43.5q0 56-75 56h-79v93h77q32 0 51.5 15.5T309 369q0 53-89 53-62 0-113-36l-72 80q78 61 210 61 80 0 135.5-37.5T436 386q0-36-19.5-66.5T365 273q36-15 57.5-46.5T444 154z" horiz-adv-x="496" vert-adv-y="1000"/><glyph glyph-name="uni0438" unicode="и" d="M517 0H386v318L203 0H72v521h131V211l183 310h131V0z" horiz-adv-x="589" vert-adv-y="1000"/><glyph glyph-name="uni0439" unicode="й" d="M456 722q-2-75-48.5-109T294 579q-67 0-113 34t-49 109h98q4-62 64-62t64 62h98M517 0H386v318L203 0H72v521h131V211l183 310h131V0z" horiz-adv-x="589" vert-adv-y="1000"/><glyph glyph-name="uni043A" unicode="к" d="M204 0H73v521h131V0m336 0H384L205 273l171 248h152L344 278 540 0z" horiz-adv-x="534" vert-adv-y="1000"/><glyph glyph-name="uni043B" unicode="л" d="M498 0H368v406H243V281q0-159-41-220T76 0H14v115h16q21 0 33 4.5t26.5 22q14.5 17.5 21 59.5t6.5 109v211h381V0z" horiz-adv-x="571" vert-adv-y="1000"/><glyph glyph-name="uni043C" unicode="м" d="M604 0H474v301l-98-193h-74l-99 193V0H72v521h129l138-274 137 274h128V0z" horiz-adv-x="677" vert-adv-y="1000"/><glyph glyph-name="uni043D" unicode="н" d="M501 0H370v209H203V0H72v521h131V324h167v197h131V0z" horiz-adv-x="573" vert-adv-y="1000"/><glyph glyph-name="uni043E" unicode="о" d="M492 261q0-75-12.5-121.5T433 58Q371-6 271-6q-99 0-161 64-34 36-46.5 82.5T51 261q0 74 12.5 120t46.5 82q62 64 161 64 102 0 162-64 34-36 46.5-82T492 261m-130 0q0 97-30 126-23 23-61 23-37 0-60-23-30-29-30-126 0-98 30-127 23-23 60-23 38 0 61 23 30 29 30 127z" horiz-adv-x="543" vert-adv-y="1000"/><glyph glyph-name="uni043F" unicode="п" d="M501 0H370v406H203V0H72v521h429V0z" horiz-adv-x="568" vert-adv-y="1000"/><glyph glyph-name="uni0440" unicode="р" d="M509 261q0-81-10-133t-44-87Q410-6 329-6T203 46v-237H73v712h126v-49q49 55 130 55t126-47q34-35 44-87t10-132m-133-59.5l1.5 11.75Q379 225 379 261t-3 59.5q-3 23.5-11.5 45.5t-27 33Q319 410 291 410t-46.5-11q-18.5-11-27-33T206 320.5q-3-23.5-3-59.5t3-59.5q3-23.5 11.5-46t27-33.5q18.5-11 46.5-11t46.5 11q18.5 11 27 33.5t11.5 46z" horiz-adv-x="560" vert-adv-y="1000"/><glyph glyph-name="uni0441" unicode="с" d="M452 65Q384-6 280-6q-33 0-64 7.5t-62.5 26Q122 46 99 75.5t-37.5 77Q47 200 47 261t14.5 108.5Q76 417 99 446t54.5 48q31.5 19 62.5 26t64 7q105 0 172-70l-88-88q-38 41-84 41t-74-34q-29-36-29-115 0-80 29-116 28-34 74-34t84 41l88-87z" horiz-adv-x="480" vert-adv-y="1000"/><glyph glyph-name="uni0442" unicode="т" d="M445 406H295V0H164v406H11v115h434V406z" horiz-adv-x="456" vert-adv-y="1000"/><glyph glyph-name="uni0443" unicode="у" d="M490 521L267-84q-21-56-56.5-81.5T116-191H65v117h30q29 0 42 9.5T160-27l22 64L4 521h137l108-322 104 322h137z" horiz-adv-x="494" vert-adv-y="1000"/><glyph glyph-name="uni0444" unicode="ф" d="M681 264q0-128-67-195T428-5v-186H298V-5Q179 2 112 69T45 264q0 247 253 262v186h130V526q253-15 253-262m-131-1q0 146-124 147V111q124 3 124 152M300 111v299q-124-1-124-147 0-149 124-152z" horiz-adv-x="726" vert-adv-y="1000"/><glyph glyph-name="uni0445" unicode="х" d="M515 0H359l-96 156L168 0H12l180 266L19 521h156l88-149 89 149h156L335 266 515 0z" horiz-adv-x="527" vert-adv-y="1000"/><glyph glyph-name="uni0446" unicode="ц" d="M571-128H447V0H72v521h131V115h167v406h131V115h70v-243z" horiz-adv-x="594" vert-adv-y="1000"/><glyph glyph-name="uni0447" unicode="ч" d="M476 0H346v183q-79-14-142-14-64 0-105 38T58 311v210h130V347q0-63 64-63 25 0 94 9v228h130V0z" horiz-adv-x="548" vert-adv-y="1000"/><glyph glyph-name="uni0448" unicode="ш" d="M749 0H72v521h131V115h143v406h130V115h143v406h130V0z" horiz-adv-x="822" vert-adv-y="1000"/><glyph glyph-name="uni0449" unicode="щ" d="M819-128H696V0H72v521h131V115h143v406h130V115h143v406h130V115h70v-243z" horiz-adv-x="843" vert-adv-y="1000"/><glyph glyph-name="uni044A" unicode="ъ" d="M510 287l24-23q24-23 24-97T510 46.5Q462 0 385 0H134v406H12v115h253V333h120q77 0 125-46m-149-56H261V102h100q32 0 50.5 17.5T430 167q0 29-18.5 46.5T361 231z" horiz-adv-x="590" vert-adv-y="1000"/><glyph glyph-name="uni044B" unicode="ы" d="M687 0H556v521h131V0M446.5 287l24.25-23Q495 241 495 167T446.5 46.5Q398 0 321 0H72v521h131V333h118q77 0 125.5-46M297 231h-98V102h98q32 0 50.5 17.5T366 167q0 29-18.5 46.5T297 231z" horiz-adv-x="763" vert-adv-y="1000"/><glyph glyph-name="uni044C" unicode="ь" d="M448 287l24-23q24-23 24-97T447.5 46.5Q399 0 323 0H72v521h131V333h120q77 0 125-46m-149-56H199V102h100q31 0 49.5 17.5T367 167q0 29-18.5 46.5T299 231z" horiz-adv-x="529" vert-adv-y="1000"/><glyph glyph-name="uni044D" unicode="э" d="M199 527q111 0 172.5-69T433 264q0-130-61-200T199-6q-54 0-92 16T28 64l87 86q23-23 41.5-32.5T200 108q91 0 103 111H150v89h153q-15 105-104 105-42 0-84-42l-87 86q41 38 79 54t92 16z" horiz-adv-x="480" vert-adv-y="1000"/><glyph glyph-name="uni044E" unicode="ю" d="M722 261q0-75-12.5-121.5T663 58Q601-6 501-6q-99 0-161 64-50 53-58 153h-79V0H72v521h131V321h80q7 88 57 142 62 64 161 64 102 0 162-64 34-36 46.5-82T722 261m-130 0q0 97-30 126-23 23-61 23-37 0-60-23-30-29-30-126 0-98 30-127 23-23 60-23 38 0 61 23 30 29 30 127z" horiz-adv-x="774" vert-adv-y="1000"/><glyph glyph-name="uni044F" unicode="я" d="M335 288v129H233q-32 0-50.5-17.5T164 352q0-29 18.5-46.5T233 288h102M177 0H29l105 213q-45 17-71 55t-26 90q0 71 48.5 117T210 521h253V0H333v185h-70L177 0z" horiz-adv-x="535" vert-adv-y="1000"/><glyph glyph-name="uni0450" unicode="ѐ" d="M332 604h-87L131 774h137l64-170m169-384H175q0-52 30-84t84-32q40 0 65.5 11.5T407 153l79-77q-42-43-86.5-62.5T288-6q-50 0-90.5 12.5T122 48q-35 29-55 83T47 261q0 125 62 195.5T274 527q107 0 167-69.5T501 275v-55m-128 89q-1 34-12 56-24 54-87 54t-87-54q-11-22-12-56h198z" horiz-adv-x="548" vert-adv-y="1000"/><glyph glyph-name="uni0451" unicode="ё" d="M501 220H175q0-52 30-84t84-32q40 0 65.5 11.5T407 153l79-77q-42-43-86.5-62.5T288-6q-50 0-90.5 12.5T122 48q-35 29-55 83T47 261q0 125 62 195.5T274 527q107 0 167-69.5T501 275v-55m-128 89q-1 34-12 56-24 54-87 54t-87-54q-11-22-12-56h198m70 297H332v125h111V606m-221 0H111v125h111V606z" horiz-adv-x="548" vert-adv-y="1000"/><glyph glyph-name="uni0452" unicode="ђ" d="M506-26q0-169-171-169h-60v110h36q32 0 48.5 20.5T376-17v281q0 49-25.5 72T290 359q-36 0-61.5-23T203 264V0H73v525H26v100h47v87h130v-87h229V525H203V422q49 54 127 54 77 0 123-46 53-53 53-148V-26z" horiz-adv-x="573" vert-adv-y="1000"/><glyph glyph-name="uni0453" unicode="ѓ" d="M421 406H206V0H76v521h345V406m-53 368L254 604h-87l64 170h137z" horiz-adv-x="434" vert-adv-y="1000"/><glyph glyph-name="uni0454" unicode="є" d="M452 64q-40-38-78.5-54T281-6Q169-6 108 64T47 264q0 124 62 193.5T281 527q54 0 92-16t79-54l-86-86q-43 42-85 42-90 0-103-105h155v-89H178q12-111 103-111 25 0 43.5 9.5T366 150l86-86z" horiz-adv-x="480" vert-adv-y="1000"/><glyph glyph-name="uni0455" unicode="ѕ" d="M465 164q0-83-62-126.5T244-6Q172-6 119.5 9T22 69l85 85q49-49 139-49 38 0 65 13.5t27 40.5q0 43-55 48l-82 8Q49 230 49 361q0 78 58.5 122T250 527q134 0 199-61l-80-81q-39 35-121 35-37 0-55.5-14.5T174 370q0-40 54-45l82-8q76-7 115.5-46.5T465 164z" horiz-adv-x="501" vert-adv-y="1000"/><glyph glyph-name="uni0456" unicode="і" d="M203 0H73v506h130V0m1 610H71v106h133V610z" horiz-adv-x="275" vert-adv-y="1000"/><glyph glyph-name="uni0457" unicode="ї" d="M203 0H73v506h130V0m101 606H193v125h111V606m-221 0H-28v125H83V606z" horiz-adv-x="275" vert-adv-y="1000"/><glyph glyph-name="uni0458" unicode="ј" d="M203-46q0-61-38.5-105T51-195h-74v110h50q46 0 46 47v544h130V-46m1 656H71v106h133V610z" horiz-adv-x="275" vert-adv-y="1000"/><glyph glyph-name="uni0459" unicode="љ" d="M664 167q0 29-18.5 46.5T595 231H495V102h100q32 0 50.5 17.5T664 167M117 521h381V333h121q77 0 125.5-46T793 167q0-74-48.5-120.5T619 0H368v406H243V281q0-159-41-220T76 0H14v115h16q21 0 33 4.5t26.5 22q14.5 17.5 21 59.5t6.5 109v211z" horiz-adv-x="824" vert-adv-y="1000"/><glyph glyph-name="uni045A" unicode="њ" d="M747 287l24-23q24-23 24-97T746.5 46.5Q698 0 622 0H370v218H203V0H72v521h131V333h167v188h131V333h121q77 0 125-46m-81-120q0 29-18.5 46.5T597 231H497V102h100q32 0 50.5 17.5T666 167z" horiz-adv-x="827" vert-adv-y="1000"/><glyph glyph-name="uni045B" unicode="ћ" d="M506 0H376v264q0 49-25.5 72T290 359q-36 0-61.5-23T203 264V0H73v525H26v100h47v87h130v-87h229V525H203V422q49 54 127 54 77 0 123-46 53-53 53-148V0z" horiz-adv-x="573" vert-adv-y="1000"/><glyph glyph-name="uni045C" unicode="ќ" d="M204 0H73v521h131V0m336 0H384L205 273l171 248h152L344 278 540 0M426 774L312 604h-87l64 170h137z" horiz-adv-x="534" vert-adv-y="1000"/><glyph glyph-name="uni045D" unicode="ѝ" d="M517 0H386v318L203 0H72v521h131V211l183 310h131V0M343 604h-87L142 774h137l64-170z" horiz-adv-x="589" vert-adv-y="1000"/><glyph glyph-name="uni045E" unicode="ў" d="M411 722q-2-75-48.5-109T249 579q-67 0-113 34T87 722h98q4-62 64-62t64 62h98m79-201L267-84q-21-56-56.5-81.5T116-191H65v117h30q29 0 42 9.5T160-27l22 64L4 521h137l108-322 104 322h137z" horiz-adv-x="494" vert-adv-y="1000"/><glyph glyph-name="uni045F" unicode="џ" d="M501 0H347v-128H224V0H72v521h131V115h167v406h131V0z" horiz-adv-x="573" vert-adv-y="1000"/><glyph glyph-name="uni0462" unicode="Ѣ" d="M553.5 382l31.75-31Q617 320 617 222T553 62Q489 0 386 0H106v528H37v106h69v78h139v-78h116V528H245v-84h141q104 0 167.5-62M450 151l14 13.5q14 13.5 14 57.5t-28 71q-28 27-75 27H245V124h130q47 0 75 27z" horiz-adv-x="651" vert-adv-y="1000"/><glyph glyph-name="uni0463" unicode="ѣ" d="M472 287l24-23q24-23 24-97T471.5 46.5Q423 0 347 0H96v400H37v82h59v39h131v-39h89v-82h-89v-67h120q77 0 125-46m-149-56H223V102h100q31 0 49.5 17.5T391 167q0 29-18.5 46.5T323 231z" horiz-adv-x="553" vert-adv-y="1000"/><glyph glyph-name="uni0472" unicode="Ѳ" d="M573 535l6-29.5q6-29.5 6-149.5t-12-179q-12-59-61-108Q437-6 322-6 208-6 131 69q-49 49-60.5 107.5T59 356q0 121 11.5 179.5T131 643q77 75 191 75 115 0 190-75 49-49 61-108M411 157q18 19 25.5 48.5T445 300H198q2-65 9.5-94t24.5-49q36-39 90-39 55 0 89 39M232 556q-17-19-24.5-47.5T199 419h246q-2 61-9.5 89.5T411 556q-33 38-89 38-55 0-90-38z" horiz-adv-x="644" vert-adv-y="1000"/><glyph glyph-name="uni0473" unicode="ѳ" d="M492 261q0-75-12.5-121.5T433 58Q373-6 271-6 170-6 110 58q-34 35-46.5 81.5T51 261q0 74 12.5 120.5T110 463q60 64 161 64 102 0 162-64 34-35 46.5-81.5T492 261M332 134q24 24 29 86H182q3-60 29-86 23-23 60-23 38 0 61 23M211 387q-24-24-29-78h178q-3 52-28 78-23 23-61 23-37 0-60-23z" horiz-adv-x="543" vert-adv-y="1000"/><glyph glyph-name="uni0474" unicode="Ѵ" d="M290 248l106 344q16 52 57.5 86T555 712h85V588h-44q-59 0-74-45L342 0H238L3 712h144l143-464z" horiz-adv-x="581" vert-adv-y="1000"/><glyph glyph-name="uni0475" unicode="ѵ" d="M429 357L298 0H196L4 521h137l106-322 70 215q35 107 151 107h51V404h-25q-28 0-41-9.5T429 357z" horiz-adv-x="493" vert-adv-y="1000"/><glyph glyph-name="uni0490" unicode="Ґ" d="M534 588H225V0H86v712h314v158h134V588z" horiz-adv-x="561" vert-adv-y="1000"/><glyph glyph-name="uni0491" unicode="ґ" d="M421 406H206V0H76v521h222v128h123V406z" horiz-adv-x="434" vert-adv-y="1000"/><glyph glyph-name="uni0492" unicode="Ғ" d="M554 588H245V412h116V306H245V0H106v306H37v106h69v300h448V588z" horiz-adv-x="581" vert-adv-y="1000"/><glyph glyph-name="uni0493" unicode="ғ" d="M316 245h-89V0H97v245H37v82h60v194h345V406H227v-79h89v-82z" horiz-adv-x="455" vert-adv-y="1000"/><glyph glyph-name="uni0496" unicode="Җ" d="M923 712L690 378l172-254h85v-282H813V0h-34L541 373l218 339h164M162 0H-6l257 378L18 712h164l218-339L162 0m378 0H401v712h139V0z" horiz-adv-x="941" vert-adv-y="1000"/><glyph glyph-name="uni0497" unicode="җ" d="M758 521L587 278l106-163h76v-243H646V0h-29L448 273l161 248h149M147 0H-6l183 278L6 521h149l160-248L147 0m300 0H316v521h131V0z" horiz-adv-x="763" vert-adv-y="1000"/><glyph glyph-name="uni049A" unicode="Қ" d="M621 712L382 378l176-254h87v-282H511V0h-36L225 373l230 339h166M224 0H85v712h139V0z" horiz-adv-x="640" vert-adv-y="1000"/><glyph glyph-name="uni049B" unicode="қ" d="M540-128H417V0h-33L205 273l171 248h152L344 278l115-163h81v-243M204 0H73v521h131V0z" horiz-adv-x="533" vert-adv-y="1000"/><glyph glyph-name="uni049C" unicode="Ҝ" d="M725 0H558L387 301h-27V163h-92v138h-44V0H85v712h139V425h44v138h92V425h27l151 287h163L502 366 725 0z" horiz-adv-x="721" vert-adv-y="1000"/><glyph glyph-name="uni049D" unicode="ҝ" d="M615 0H460L359 211h-29V94h-91v117h-36V0H73v521h130V319h36v117h91V319h24l98 202h152L470 277 615 0z" horiz-adv-x="609" vert-adv-y="1000"/><glyph glyph-name="uni04A2" unicode="Ң" d="M602 712V124h64v-282H532V0h-69v298H222V0H83v712h139V421h241v291h139z" horiz-adv-x="685" vert-adv-y="1000"/><glyph glyph-name="uni04A3" unicode="ң" d="M501 521V115h57v-243H435V0h-65v209H203V0H72v521h131V324h167v197h131z" horiz-adv-x="573" vert-adv-y="1000"/><glyph glyph-name="uni04AE" unicode="Ү" d="M569 712L355 292V0H217v292L3 712h151l133-287 131 287h151z" horiz-adv-x="572" vert-adv-y="1000"/><glyph glyph-name="uni04AF" unicode="ү" d="M490 521L311 15v-206H182V15L4 521h138l106-340 104 340h138z" horiz-adv-x="494" vert-adv-y="1000"/><glyph glyph-name="uni04B0" unicode="Ұ" d="M569 712L355 292h94V186h-94V0H217v186h-92v106h92L3 712h151l133-287 131 287h151z" horiz-adv-x="572" vert-adv-y="1000"/><glyph glyph-name="uni04B1" unicode="ұ" d="M490 521L311 15h77v-82h-77v-124H182v124h-73v82h73L4 521h138l106-340 104 340h138z" horiz-adv-x="494" vert-adv-y="1000"/><glyph glyph-name="uni04B2" unicode="Ҳ" d="M583 712L376 365l146-241h76v-282H464V0h-25L301 248 164 0H5l221 365L19 712h158l124-230 125 230h157z" horiz-adv-x="603" vert-adv-y="1000"/><glyph glyph-name="uni04B3" unicode="ҳ" d="M508 521L335 266l102-151h78v-243H392V0h-33l-96 156L168 0H12l180 266L19 521h156l88-149 89 149h156z" horiz-adv-x="527" vert-adv-y="1000"/><glyph glyph-name="uni04B6" unicode="Ҷ" d="M565 712V124h65v-282H496V0h-69v267q-117-19-181-19-75 0-128.5 45T64 421v291h139V457q0-85 89-85 62 0 135 15v325h138z" horiz-adv-x="649" vert-adv-y="1000"/><glyph glyph-name="uni04B7" unicode="ҷ" d="M476 521V115h58v-243H411V0h-65v183q-79-14-142-14-64 0-105 38T58 311v210h130V347q0-63 64-63 25 0 94 9v228h130z" horiz-adv-x="548" vert-adv-y="1000"/><glyph glyph-name="uni04B8" unicode="Ҹ" d="M371 111h-99v137h-19q-78 0-133.5 45T64 421v291h139V457q0-37 17.5-55.5T272 376v134h99V376q38 3 70 11v325h139V0H441v267q-32-7-70-11V111z" horiz-adv-x="664" vert-adv-y="1000"/><glyph glyph-name="uni04B9" unicode="ҹ" d="M315 55h-80v114h-14q-71 0-117 38T58 311v210h130V347q0-44 47-57v108h80V287q22 1 47 7v227h130V0H362v183q-27-6-47-8V55z" horiz-adv-x="564" vert-adv-y="1000"/><glyph glyph-name="uni04BA" unicode="Һ" d="M83 712h138V445q117 19 181 19 75 0 128.5-45T584 291V0H445v255q0 85-89 85-62 0-135-15V0H83v712z" horiz-adv-x="648" vert-adv-y="1000"/><glyph glyph-name="uni04BB" unicode="һ" d="M72 521h130V338q79 14 142 14 64 0 105-38t41-104V0H360v174q0 63-64 63-25 0-94-9V0H72v521z" horiz-adv-x="548" vert-adv-y="1000"/><glyph glyph-name="uni04C0" unicode="Ӏ" d="M222 0H83v712h139V0z" horiz-adv-x="305" vert-adv-y="1000"/><glyph glyph-name="uni04CF" unicode="ӏ" d="M198 0H68v712h130V0z" horiz-adv-x="266" vert-adv-y="1000"/><glyph glyph-name="uni04D8" unicode="Ә" d="M590 356q0-121-11.5-180T518 69Q441-6 328-6 204-6 127 75q-38 40-53 89T59 292v104h391q-1 73-8 105.5T416 556q-33 38-88 38-104 0-128-104H60q15 98 83 163t185 65q113 0 190-75 47-47 59.5-107.5T590 356m-141-77H197v-26q0-59 32-95 35-40 99-40 56 0 88 37 17 18 24 44t9 80z" horiz-adv-x="649" vert-adv-y="1000"/><glyph glyph-name="uni04D9" unicode="ә" d="M47 301h326q0 52-30 84t-84 32q-40 0-65.5-11.5T141 368l-79 77q42 43 86.5 62.5T260 527q50 0 90.5-12.5T426 473q35-29 55-83t20-130q0-125-62-195.5T274-6Q167-6 107 63.5T47 246v55m128-89q1-34 12-56 24-54 87-54t87 54q11 22 12 56H175z" horiz-adv-x="548" vert-adv-y="1000"/><glyph glyph-name="uni04E2" unicode="Ӣ" d="M623 0H484v457L207 0H83v712h139V256l277 456h124V0M194 793v88h317v-88H194z" horiz-adv-x="706" vert-adv-y="1000"/><glyph glyph-name="uni04E3" unicode="ӣ" d="M517 0H386v318L203 0H72v521h131V211l183 310h131V0m-64 623H136v88h317v-88z" horiz-adv-x="589" vert-adv-y="1000"/><glyph glyph-name="uni04E8" unicode="Ө" d="M573 535l6-29.5q6-29.5 6-149.5t-12-179q-12-59-61-108Q437-6 322-6 208-6 131 69q-49 49-60.5 107.5T59 356q0 121 11.5 179.5T131 643q77 75 191 75 115 0 190-75 49-49 61-108M411 157q18 19 25.5 48.5T445 300H198q2-65 9.5-94t24.5-49q36-39 90-39 55 0 89 39M232 556q-17-19-24.5-47.5T199 419h246q-2 61-9.5 89.5T411 556q-33 38-89 38-55 0-90-38z" horiz-adv-x="644" vert-adv-y="1000"/><glyph glyph-name="uni04E9" unicode="ө" d="M492 261q0-75-12.5-121.5T433 58Q373-6 271-6 170-6 110 58q-34 35-46.5 81.5T51 261q0 74 12.5 120.5T110 463q60 64 161 64 102 0 162-64 34-35 46.5-81.5T492 261M332 134q24 24 29 86H182q3-60 29-86 23-23 60-23 38 0 61 23M211 387q-24-24-29-78h178q-3 52-28 78-23 23-61 23-37 0-60-23z" horiz-adv-x="543" vert-adv-y="1000"/><glyph glyph-name="uni04EE" unicode="Ӯ" d="M577 712L325 120Q274 0 166 0H81v124h56q54 0 74 45l21 49L4 712h145l149-343 135 343h144m-436 81v88h317v-88H141z" horiz-adv-x="581" vert-adv-y="1000"/><glyph glyph-name="uni04EF" unicode="ӯ" d="M490 521L267-84q-21-56-56.5-81.5T116-191H65v117h30q29 0 42 9.5T160-27l22 64L4 521h137l108-322 104 322h137m-84 102H89v88h317v-88z" horiz-adv-x="494" vert-adv-y="1000"/><glyph glyph-name="uni1E80" unicode="Ẁ" d="M881 712L690 0H574L443 432 312 0H196L6 712h145l110-449 130 449h104l130-449 111 449h145m-393 69h-87L287 951h137l64-170z" horiz-adv-x="887" vert-adv-y="1000"/><glyph glyph-name="uni1E81" unicode="ẁ" d="M755 521L596 0H489L380 327 271 0H164L4 521h138l84-322 106 322h95l107-322 84 322h137m-331 83h-87L223 774h137l64-170z" horiz-adv-x="759" vert-adv-y="1000"/><glyph glyph-name="uni1E82" unicode="Ẃ" d="M881 712L690 0H574L443 432 312 0H196L6 712h145l110-449 130 449h104l130-449 111 449h145M600 951L486 781h-87l64 170h137z" horiz-adv-x="887" vert-adv-y="1000"/><glyph glyph-name="uni1E83" unicode="ẃ" d="M755 521L596 0H489L380 327 271 0H164L4 521h138l84-322 106 322h95l107-322 84 322h137M537 774L423 604h-87l64 170h137z" horiz-adv-x="759" vert-adv-y="1000"/><glyph glyph-name="uni1E84" unicode="Ẅ" d="M881 712L690 0H574L443 432 312 0H196L6 712h145l110-449 130 449h104l130-449 111 449h145m-272 71H498v125h111V783m-221 0H277v125h111V783z" horiz-adv-x="887" vert-adv-y="1000"/><glyph glyph-name="uni1E85" unicode="ẅ" d="M755 521L596 0H489L380 327 271 0H164L4 521h138l84-322 106 322h95l107-322 84 322h137m-210 85H434v125h111V606m-221 0H213v125h111V606z" horiz-adv-x="759" vert-adv-y="1000"/><glyph glyph-name="uni1E8A" unicode="Ẋ" d="M598 0H439L301 248 164 0H5l221 365L19 712h158l124-230 125 230h157L376 365 598 0M244 789v116h115V789H244z" horiz-adv-x="603" vert-adv-y="1000"/><glyph glyph-name="uni1E8B" unicode="ẋ" d="M515 0H359l-96 156L168 0H12l180 266L19 521h156l88-149 89 149h156L335 266 515 0M206 612v115h115V612H206z" horiz-adv-x="527" vert-adv-y="1000"/><glyph glyph-name="uni1EF2" unicode="Ỳ" d="M569 712L355 292V0H217v292L3 712h151l133-287 131 287h151m-237 69h-87L131 951h137l64-170z" horiz-adv-x="572" vert-adv-y="1000"/><glyph glyph-name="uni1EF3" unicode="ỳ" d="M490 521L267-84q-17-45-39-67-40-40-112-40H65v117h30q28 0 41.5 9.5T160-27l22 64L4 521h137l108-322 104 322h137m-207 83h-87L82 774h137l64-170z" horiz-adv-x="494" vert-adv-y="1000"/><glyph glyph-name="uni2013" unicode="–" d="M493 225H50v121h443V225z" horiz-adv-x="543" vert-adv-y="1000"/><glyph glyph-name="uni2014" unicode="—" d="M968 226H59v125h909V226z" horiz-adv-x="1027" vert-adv-y="1000"/><glyph glyph-name="uni2015" unicode="―" d="M968 226H59v125h909V226z" horiz-adv-x="1027" vert-adv-y="1000"/><glyph glyph-name="uni2018" unicode="‘" d="M204 589H68v123l136 105V589z" horiz-adv-x="273" vert-adv-y="1000"/><glyph glyph-name="uni2019" unicode="’" d="M204 588L68 485v227h136V588z" horiz-adv-x="273" vert-adv-y="1000"/><glyph glyph-name="uni201A" unicode="‚" d="M204 0L68-104v228h136V0z" horiz-adv-x="271" vert-adv-y="1000"/><glyph glyph-name="uni201C" unicode="“" d="M414 589H278v123l136 105V589m-211 0H68v123l135 105V589z" horiz-adv-x="482" vert-adv-y="1000"/><glyph glyph-name="uni201D" unicode="”" d="M414 588L278 485v227h136V588m-211 0L68 485v227h135V588z" horiz-adv-x="482" vert-adv-y="1000"/><glyph glyph-name="uni201E" unicode="„" d="M414 0L278-104v228h136V0M203 0L68-104v228h135V0z" horiz-adv-x="485" vert-adv-y="1000"/><glyph glyph-name="uni2020" unicode="†" d="M522 410H354V0H224v410H57v117h167v185h130V527h168V410z" horiz-adv-x="579" vert-adv-y="1000"/><glyph glyph-name="uni2021" unicode="‡" d="M522-6H354v-185H224V-6H57v117h167v299H57v117h167v185h130V527h168V410H354V111h168V-6z" horiz-adv-x="579" vert-adv-y="1000"/><glyph glyph-name="uni2022" unicode="•" d="M361.5 449.5l23.75-23.75Q409 402 409 334t-47.5-115.5Q314 171 246 171t-115.5 47.5Q83 266 83 334t47.5 115.5Q178 497 246 497t115.5-47.5z" horiz-adv-x="493" vert-adv-y="1000"/><glyph glyph-name="uni2026" unicode="…" d="M210 0H68v141h142V0m283 0H352v141h141V0m285 0H637v141h141V0z" horiz-adv-x="846" vert-adv-y="1000"/><glyph glyph-name="uni2030" unicode="‰" d="M1158 131q0-65-41.5-101T1013-6q-62 0-103.5 36T868 131v99q0 65 41.5 101t103.5 36q62 0 103.5-36t41.5-101v-99m-362 0q0-65-41.5-101T651-6q-62 0-103.5 36T506 131v99q0 65 41.5 101T651 367q62 0 103.5-36T796 230v-99M342 482q0-65-41.5-101T197 345q-62 0-103.5 36T52 482v99q0 65 41.5 101T197 718q62 0 103.5-36T342 581v-99m302 230L307 0H205l337 712h102m420-578v92q0 57-51 57t-51-57v-91q0-57 51-57t51 56m-362 1v91q0 57-51 57t-51-57v-91q0-57 51-57t51 57M248 486v91q0 57-51 57t-51-57v-91q0-57 51-57t51 57z" horiz-adv-x="1211" vert-adv-y="1000"/><glyph glyph-name="uni2039" unicode="‹" d="M283 27L34 275l249 248V368l-94-93 94-93V27z" horiz-adv-x="350" vert-adv-y="1000"/><glyph glyph-name="uni203A" unicode="›" d="M316 275L67 27v155l95 93-95 93v155l249-248z" horiz-adv-x="350" vert-adv-y="1000"/><glyph glyph-name="uni2044" unicode="⁄" d="M323 712L-14 0h-101l337 712h101z" horiz-adv-x="208" vert-adv-y="1000"/><glyph glyph-name="uni2070" unicode="⁰" d="M302 414q0-62-39.5-97.5T166 281q-56 0-96 35.5T30 414v170q0 61 40 96.5t96 35.5q57 0 96.5-35t39.5-97V414m-94-2v172q0 22-12 35t-30 13q-18 0-29.5-12.5T125 584V412q0-22 11.5-34t29.5-12q18 0 30 12t12 34z" horiz-adv-x="332" vert-adv-y="1000"/><glyph glyph-name="uni2074" unicode="⁴" d="M317 342h-33v-57h-90v57H18v89l143 281h103L120 431h74v62h90v-62h33v-89z" horiz-adv-x="332" vert-adv-y="1000"/><glyph glyph-name="uni2075" unicode="⁵" d="M305 429q0-73-39-112-36-36-98-36-66 0-100 36-32 32-37 95h94q5-46 43-46 20 0 30 12 13 13 13 51 0 64-43 64-34 0-42-30H39v249h257v-85H125v-73q23 18 58 18 53 0 83-30 39-39 39-113z" horiz-adv-x="332" vert-adv-y="1000"/><glyph glyph-name="uni2076" unicode="⁶" d="M305 418q0-64-40.5-100.5T164 281q-60 0-100 36T24 418q0 40 36 115l88 179h103l-85-169q8 3 25 3 44 0 79-35t35-93m-108-39.5l6.5 7.25Q210 393 210 418t-12.5 39Q185 471 164 471q-20 0-32.5-14T119 418q0-25 12.5-39.5T164 364q20 0 33 14.5z" horiz-adv-x="332" vert-adv-y="1000"/><glyph glyph-name="uni2077" unicode="⁷" d="M311 628L176 285H82l134 342H108v-69H22v154h289v-84z" horiz-adv-x="332" vert-adv-y="1000"/><glyph glyph-name="uni2078" unicode="⁸" d="M308 412q0-63-40-97t-102-34q-62 0-102 34t-40 97q0 56 49 93-44 35-44 85 0 58 40 92t97 34q57 0 97.5-34t40.5-92q0-51-45-85 49-37 49-93m-108-32l7 7q7 7 7 27t-14 34.5Q186 463 166 463t-34-14.5Q118 434 118 414t14-34q14-14 34-14t34 14m9 208q0 18-12 30.5T166 631q-19 0-31-12.5T123 588q0-19 12.5-32t30.5-13q19 0 31 13t12 32z" horiz-adv-x="332" vert-adv-y="1000"/><glyph glyph-name="uni2079" unicode="⁹" d="M308 579q0-41-36-115l-88-179H81l85 169q-7-3-25-3-44 0-79 35t-35 93q0 64 40.5 100.5T168 716q60 0 100-36t40-101m-94 1q0 23-13 37t-33 14q-20 0-33-14t-13-37q0-23 13-38t33-15q19 0 32.5 14.5T214 580z" horiz-adv-x="332" vert-adv-y="1000"/><glyph glyph-name="uni2080" unicode="₀" d="M302-21q0-62-39.5-97.5T166-154q-56 0-96 35.5T30-21v170q0 61 40 96.5t96 35.5q57 0 96.5-35t39.5-97V-21m-94-2v172q0 22-12 35t-30 13q-18 0-29.5-12.5T125 149V-23q0-22 11.5-34T166-69q18 0 30 12t12 34z" horiz-adv-x="332" vert-adv-y="1000"/><glyph glyph-name="uni2081" unicode="₁" d="M239-150h-95v321L54 93v106l90 78h95v-427z" horiz-adv-x="332" vert-adv-y="1000"/><glyph glyph-name="uni2082" unicode="₂" d="M306-150H34v85l156 171q22 23 22 47 0 20-11 31.5T170 196q-42 0-42-44H34q0 60 38.5 94.5T170 281q60 0 98-34.5t38-93.5q0-30-12-51.5T254 49L149-65h157v-85z" horiz-adv-x="332" vert-adv-y="1000"/><glyph glyph-name="uni2083" unicode="₃" d="M310-23q0-63-40.5-97T169-154q-59 0-100 33T28-22h94q0-23 13-35.5T169-70q21 0 34 13t13 37q0 21-13.5 34.5T167 28h-13v81h13q22 0 33 12.5t11 30.5q0 21-12 32.5T169 196q-18 0-30-11t-12-31H33q0 58 39 92.5t97 34.5q59 0 97.5-35.5T305 155q0-57-45-84 50-32 50-94z" horiz-adv-x="332" vert-adv-y="1000"/><glyph glyph-name="uni2084" unicode="₄" d="M317-93h-33v-57h-90v57H18v89l143 281h103L120-4h74v62h90V-4h33v-89z" horiz-adv-x="332" vert-adv-y="1000"/><glyph glyph-name="uni2085" unicode="₅" d="M305-6q0-73-39-112-36-36-98-36-66 0-100 36-32 32-37 95h94q5-46 43-46 20 0 30 12 13 13 13 51 0 64-43 64-34 0-42-30H39v249h257v-85H125v-73q23 18 58 18 53 0 83-30 39-39 39-113z" horiz-adv-x="332" vert-adv-y="1000"/><glyph glyph-name="uni2086" unicode="₆" d="M305-17q0-64-40.5-100.5T164-154q-60 0-100 36T24-17q0 40 36 115l88 179h103l-85-169q8 3 25 3 44 0 79-35t35-93M197-56.5l6.5 7.25Q210-42 210-17t-12.5 39Q185 36 164 36q-20 0-32.5-14T119-17q0-25 12.5-39.5T164-71q20 0 33 14.5z" horiz-adv-x="332" vert-adv-y="1000"/><glyph glyph-name="uni2087" unicode="₇" d="M311 193L176-150H82l134 342H108v-69H22v154h289v-84z" horiz-adv-x="332" vert-adv-y="1000"/><glyph glyph-name="uni2088" unicode="₈" d="M308-23q0-63-40-97t-102-34q-62 0-102 34T24-23q0 56 49 93-44 35-44 85 0 58 40 92t97 34q57 0 97.5-34t40.5-92q0-51-45-85 49-37 49-93M200-55l7 7q7 7 7 27t-14 34.5Q186 28 166 28t-34-14.5Q118-1 118-21t14-34q14-14 34-14t34 14m9 208q0 18-12 30.5T166 196q-19 0-31-12.5T123 153q0-19 12.5-32t30.5-13q19 0 31 13t12 32z" horiz-adv-x="332" vert-adv-y="1000"/><glyph glyph-name="uni2089" unicode="₉" d="M308 144q0-42-36-115l-88-179H81l85 169q-7-3-25-3-44 0-79 35t-35 93q0 64 40.5 100.5T168 281q60 0 100-36t40-101m-94 1q0 23-13 37t-33 14q-20 0-33-14t-13-37q0-23 13-38t33-15q19 0 32.5 14.5T214 145z" horiz-adv-x="332" vert-adv-y="1000"/><glyph glyph-name="uni20AC" unicode="€" d="M632 219q-18-109-88.5-167T371-6Q256-6 180 70q-59 59-68 167H39v83h69v75H39v83h73q9 105 68 164 76 76 191 76 103 0 173-58t88-167H491q-24 101-120 101-56 0-88-37-24-27-29-79h148v-83H247v-75h155v-83H253q7-58 30-82 32-37 88-37 97 0 121 101h140z" horiz-adv-x="684" vert-adv-y="1000"/><glyph glyph-name="uni20B4" unicode="₴" d="M584 478h52v-83h-77q-11-19-25-33-29-28-69-42h171v-83H229q-4-13-4-31 0-88 126-88 112 0 172 60l90-90q-51-51-113-72.5T353-6Q238-6 163.5 51.5T89 210q0 18 1 27H39v83h74q13 24 31 41 23 21 53 34H39v83h406q6 14 6 29 0 39-28.5 64.5T341 597q-95 0-146-49l-88 87q86 83 230 83 114 0 181-59.5T585 502q0-5-.5-12.5T584 478z" horiz-adv-x="675" vert-adv-y="1000"/><glyph glyph-name="uni2116" unicode="№" d="M568 0H453L199 456V0H69v712h115l254-456v456h130V0m347 225H625v93h290v-93m-95 313q0 66-17 84-10 12-32 12-23 0-33-12-17-17-17-84t17-84q13-13 33-13 19 0 32 13 17 16 17 84m101-4q0-98-41-139-42-44-109-44t-109 44q-41 41-41 139t41 140q41 43 109 43t109-43q41-44 41-140z" horiz-adv-x="965" vert-adv-y="1000"/><glyph glyph-name="uni2122" unicode="™" d="M860 285h-95v252l-80-157h-84l-80 157V285h-95v427h95l122-228 122 228h95V285M360 627H250V285h-95v342H45v85h315v-85z" horiz-adv-x="924" vert-adv-y="1000"/><glyph glyph-name="uni2126" unicode="Ω" d="M585 356q0-121-23-178-13-31-36-54h59V0H366v110q37 18 53 43 27 38 27 196 0 101-7 142t-28 64q-34 39-89 39-54 0-90-39-20-23-27-64.5T198 349q0-159 26-196 18-27 54-43V0H59v124h59q-24 22-37 54-22 57-22 178t11.5 179.5Q82 594 131 643q77 75 191 75 115 0 190-75 49-49 61-108t12-179z" horiz-adv-x="644" vert-adv-y="1000"/><glyph glyph-name="uni2150" unicode="⅐" d="M239 285h-95v321l-90-78v106l90 78h95V285m416 427L318 0H217l337 712h101m196-369L716 0h-94l134 342H648v-69h-86v154h289v-84z" horiz-adv-x="872" vert-adv-y="1000"/><glyph glyph-name="uni2151" unicode="⅑" d="M239 285h-95v321l-90-78v106l90 78h95V285m416 427L318 0H217l337 712h101m193-418q0-42-36-115L724 0H621l85 169q-7-3-25-3-44 0-79 35t-35 93q0 64 40.5 100.5T708 431q60 0 100-36t40-101m-94 1q0 23-13 37t-33 14q-20 0-33-14t-13-37q0-23 13-38t33-15q19 0 32.5 14.5T754 295z" horiz-adv-x="872" vert-adv-y="1000"/><glyph glyph-name="uni2152" unicode="⅒" d="M239 285h-95v321l-90-78v106l90 78h95V285m416 427L318 0H217l337 712h101M779 0h-95v321l-90-78v106l90 78h95V0m395 129q0-62-39.5-97.5T1038-4q-56 0-96 35.5T902 129v170q0 61 40 96.5t96 35.5q57 0 96.5-35t39.5-97V129m-94-2v172q0 22-12 35t-30 13q-18 0-29.5-12.5T997 299V127q0-22 11.5-34t29.5-12q18 0 30 12t12 34z" horiz-adv-x="1204" vert-adv-y="1000"/><glyph glyph-name="uni2153" unicode="⅓" d="M239 285h-95v321l-90-78v106l90 78h95V285m416 427L318 0H217l337 712h101m195-585q0-63-40.5-97T709-4q-59 0-100 33t-41 99h94q0-23 13-35.5T709 80q21 0 34 13t13 37q0 21-13.5 34.5T707 178h-13v81h13q22 0 33 12.5t11 30.5q0 21-12 32.5T709 346q-18 0-30-11t-12-31h-94q0 58 39 92.5t97 34.5q59 0 97.5-35.5T845 305q0-57-45-84 50-32 50-94z" horiz-adv-x="872" vert-adv-y="1000"/><glyph glyph-name="uni2154" unicode="⅔" d="M306 285H34v85l156 171q22 23 22 47 0 20-11 31.5T170 631q-42 0-42-44H34q0 60 38.5 94.5T170 716q60 0 98-34.5t38-93.5q0-30-12-51.5T254 484L149 370h157v-85m349 427L318 0H217l337 712h101m195-585q0-63-40.5-97T709-4q-59 0-100 33t-41 99h94q0-23 13-35.5T709 80q21 0 34 13t13 37q0 21-13.5 34.5T707 178h-13v81h13q22 0 33 12.5t11 30.5q0 21-12 32.5T709 346q-18 0-30-11t-12-31h-94q0 58 39 92.5t97 34.5q59 0 97.5-35.5T845 305q0-57-45-84 50-32 50-94z" horiz-adv-x="872" vert-adv-y="1000"/><glyph glyph-name="uni2155" unicode="⅕" d="M239 285h-95v321l-90-78v106l90 78h95V285m416 427L318 0H217l337 712h101m190-568q0-73-39-112-36-36-98-36-66 0-100 36-32 32-37 95h94q5-46 43-46 20 0 30 12 13 13 13 51 0 64-43 64-34 0-42-30h-87v249h257v-85H665v-73q23 18 58 18 53 0 83-30 39-39 39-113z" horiz-adv-x="872" vert-adv-y="1000"/><glyph glyph-name="uni2156" unicode="⅖" d="M306 285H34v85l156 171q22 23 22 47 0 20-11 31.5T170 631q-42 0-42-44H34q0 60 38.5 94.5T170 716q60 0 98-34.5t38-93.5q0-30-12-51.5T254 484L149 370h157v-85m349 427L318 0H217l337 712h101m190-568q0-73-39-112-36-36-98-36-66 0-100 36-32 32-37 95h94q5-46 43-46 20 0 30 12 13 13 13 51 0 64-43 64-34 0-42-30h-87v249h257v-85H665v-73q23 18 58 18 53 0 83-30 39-39 39-113z" horiz-adv-x="872" vert-adv-y="1000"/><glyph glyph-name="uni2157" unicode="⅗" d="M310 412q0-63-40.5-97T169 281q-59 0-100 33t-41 99h94q0-23 13-35.5t34-12.5q21 0 34 13t13 37q0 21-13.5 34.5T167 463h-13v81h13q22 0 33 12.5t11 30.5q0 21-12 32.5T169 631q-18 0-30-11t-12-31H33q0 58 39 92.5t97 34.5q59 0 97.5-35.5T305 590q0-57-45-84 50-32 50-94m345 300L318 0H217l337 712h101m190-568q0-73-39-112-36-36-98-36-66 0-100 36-32 32-37 95h94q5-46 43-46 20 0 30 12 13 13 13 51 0 64-43 64-34 0-42-30h-87v249h257v-85H665v-73q23 18 58 18 53 0 83-30 39-39 39-113z" horiz-adv-x="872" vert-adv-y="1000"/><glyph glyph-name="uni2158" unicode="⅘" d="M317 342h-33v-57h-90v57H18v89l143 281h103L120 431h74v62h90v-62h33v-89m338 370L318 0H217l337 712h101m190-568q0-73-39-112-36-36-98-36-66 0-100 36-32 32-37 95h94q5-46 43-46 20 0 30 12 13 13 13 51 0 64-43 64-34 0-42-30h-87v249h257v-85H665v-73q23 18 58 18 53 0 83-30 39-39 39-113z" horiz-adv-x="872" vert-adv-y="1000"/><glyph glyph-name="uni2159" unicode="⅙" d="M239 285h-95v321l-90-78v106l90 78h95V285m416 427L318 0H217l337 712h101m190-579q0-64-40.5-100.5T704-4q-60 0-100 36t-40 101q0 40 36 115l88 179h103l-85-169q8 3 25 3 44 0 79-35t35-93M737 93.5l6.5 7.25Q750 108 750 133t-12.5 39Q725 186 704 186q-20 0-32.5-14T659 133q0-25 12.5-39.5T704 79q20 0 33 14.5z" horiz-adv-x="872" vert-adv-y="1000"/><glyph glyph-name="uni215A" unicode="⅚" d="M305 429q0-73-39-112-36-36-98-36-66 0-100 36-32 32-37 95h94q5-46 43-46 20 0 30 12 13 13 13 51 0 64-43 64-34 0-42-30H39v249h257v-85H125v-73q23 18 58 18 53 0 83-30 39-39 39-113m350 283L318 0H217l337 712h101m190-579q0-64-40.5-100.5T704-4q-60 0-100 36t-40 101q0 40 36 115l88 179h103l-85-169q8 3 25 3 44 0 79-35t35-93M737 93.5l6.5 7.25Q750 108 750 133t-12.5 39Q725 186 704 186q-20 0-32.5-14T659 133q0-25 12.5-39.5T704 79q20 0 33 14.5z" horiz-adv-x="872" vert-adv-y="1000"/><glyph glyph-name="uni215B" unicode="⅛" d="M239 285h-95v321l-90-78v106l90 78h95V285m416 427L318 0H217l337 712h101m193-585q0-63-40-97T706-4q-62 0-102 34t-40 97q0 56 49 93-44 35-44 85 0 58 40 92t97 34q57 0 97.5-34t40.5-92q0-51-45-85 49-37 49-93M740 95l7 7q7 7 7 27t-14 34.5Q726 178 706 178t-34-14.5Q658 149 658 129t14-34q14-14 34-14t34 14m9 208q0 18-12 30.5T706 346q-19 0-31-12.5T663 303q0-19 12.5-32t30.5-13q19 0 31 13t12 32z" horiz-adv-x="872" vert-adv-y="1000"/><glyph glyph-name="uni215C" unicode="⅜" d="M310 412q0-63-40.5-97T169 281q-59 0-100 33t-41 99h94q0-23 13-35.5t34-12.5q21 0 34 13t13 37q0 21-13.5 34.5T167 463h-13v81h13q22 0 33 12.5t11 30.5q0 21-12 32.5T169 631q-18 0-30-11t-12-31H33q0 58 39 92.5t97 34.5q59 0 97.5-35.5T305 590q0-57-45-84 50-32 50-94m345 300L318 0H217l337 712h101m193-585q0-63-40-97T706-4q-62 0-102 34t-40 97q0 56 49 93-44 35-44 85 0 58 40 92t97 34q57 0 97.5-34t40.5-92q0-51-45-85 49-37 49-93M740 95l7 7q7 7 7 27t-14 34.5Q726 178 706 178t-34-14.5Q658 149 658 129t14-34q14-14 34-14t34 14m9 208q0 18-12 30.5T706 346q-19 0-31-12.5T663 303q0-19 12.5-32t30.5-13q19 0 31 13t12 32z" horiz-adv-x="872" vert-adv-y="1000"/><glyph glyph-name="uni215D" unicode="⅝" d="M305 429q0-73-39-112-36-36-98-36-66 0-100 36-32 32-37 95h94q5-46 43-46 20 0 30 12 13 13 13 51 0 64-43 64-34 0-42-30H39v249h257v-85H125v-73q23 18 58 18 53 0 83-30 39-39 39-113m350 283L318 0H217l337 712h101m193-585q0-63-40-97T706-4q-62 0-102 34t-40 97q0 56 49 93-44 35-44 85 0 58 40 92t97 34q57 0 97.5-34t40.5-92q0-51-45-85 49-37 49-93M740 95l7 7q7 7 7 27t-14 34.5Q726 178 706 178t-34-14.5Q658 149 658 129t14-34q14-14 34-14t34 14m9 208q0 18-12 30.5T706 346q-19 0-31-12.5T663 303q0-19 12.5-32t30.5-13q19 0 31 13t12 32z" horiz-adv-x="872" vert-adv-y="1000"/><glyph glyph-name="uni215E" unicode="⅞" d="M311 628L176 285H82l134 342H108v-69H22v154h289v-84m344 84L318 0H217l337 712h101m193-585q0-63-40-97T706-4q-62 0-102 34t-40 97q0 56 49 93-44 35-44 85 0 58 40 92t97 34q57 0 97.5-34t40.5-92q0-51-45-85 49-37 49-93M740 95l7 7q7 7 7 27t-14 34.5Q726 178 706 178t-34-14.5Q658 149 658 129t14-34q14-14 34-14t34 14m9 208q0 18-12 30.5T706 346q-19 0-31-12.5T663 303q0-19 12.5-32t30.5-13q19 0 31 13t12 32z" horiz-adv-x="872" vert-adv-y="1000"/><glyph glyph-name="uni215F" unicode="⅟" d="M239 285h-95v321l-90-78v106l90 78h95V285m416 427L318 0H217l337 712h101z" horiz-adv-x="540" vert-adv-y="1000"/><glyph glyph-name="uni2189" unicode="↉" d="M302 414q0-62-39.5-97.5T166 281q-56 0-96 35.5T30 414v170q0 61 40 96.5t96 35.5q57 0 96.5-35t39.5-97V414m-94-2v172q0 22-12 35t-30 13q-18 0-29.5-12.5T125 584V412q0-22 11.5-34t29.5-12q18 0 30 12t12 34m447 300L318 0H217l337 712h101m195-585q0-63-40.5-97T709-4q-59 0-100 33t-41 99h94q0-23 13-35.5T709 80q21 0 34 13t13 37q0 21-13.5 34.5T707 178h-13v81h13q22 0 33 12.5t11 30.5q0 21-12 32.5T709 346q-18 0-30-11t-12-31h-94q0 58 39 92.5t97 34.5q59 0 97.5-35.5T845 305q0-57-45-84 50-32 50-94z" horiz-adv-x="872" vert-adv-y="1000"/><glyph glyph-name="uni2190" unicode="←" d="M436-100L50 285l386 385h164L273 346h704V223H273l327-323H436z" horiz-adv-x="1027" vert-adv-y="1000"/><glyph glyph-name="uni2191" unicode="↑" d="M899 200L575 527v-705H453v705L129 200v164l385 385 385-385V200z" horiz-adv-x="1027" vert-adv-y="1000"/><glyph glyph-name="uni2192" unicode="→" d="M429-100l327 324H51v122h705L429 670h164l385-385-385-385H429z" horiz-adv-x="1027" vert-adv-y="1000"/><glyph glyph-name="uni2193" unicode="↓" d="M898 208L513-178 128 208v164L452 45v704h123V45l323 327V208z" horiz-adv-x="1027" vert-adv-y="1000"/><glyph glyph-name="uni2196" unicode="↖" d="M884 1l-87-87-497 498 1-460L185 68v545h546l116-116-460 2L884 1z" horiz-adv-x="1027" vert-adv-y="1000"/><glyph glyph-name="uni2197" unicode="↗" d="M841 69L725-47l2 459L229-86 142 1l498 498-460-2 116 116h545V69z" horiz-adv-x="1027" vert-adv-y="1000"/><glyph glyph-name="uni2198" unicode="↘" d="M850-63H305L190 52l459-2-498 498 87 87 498-498-2 459 116-116V-63z" horiz-adv-x="1027" vert-adv-y="1000"/><glyph glyph-name="uni2199" unicode="↙" d="M874 548L377 51l460 1L721-63l-546-1 1 545 116 116-2-459 497 497 87-87z" horiz-adv-x="1027" vert-adv-y="1000"/><glyph glyph-name="uni2202" unicode="∂" d="M482 254q0-72-12.5-117.5T425 56Q367-6 269-6q-97 0-155 62-33 35-45.5 80.5T56 254q0 73 12.5 118.5T114 453q56 60 150 60 55 0 87-29v27q0 35-25 66t-79 31q-61 0-102-40l-81 82q39 38 83 53t106 15q111 0 170-65t59-172V254m-130 0q0 91-27 120-22 22-56 22t-56-22q-27-29-27-120 0-92 27-121 22-22 56-22t56 22q27 29 27 121z" horiz-adv-x="555" vert-adv-y="1000"/><glyph glyph-name="uni2206" unicode="∆" d="M631 0H3l260 712h108L631 0M450 117L320 502 186 117h264z" horiz-adv-x="634" vert-adv-y="1000"/><glyph glyph-name="uni220F" unicode="∏" d="M602-191H463v828H222v-828H83v951h519v-951z" horiz-adv-x="685" vert-adv-y="1000"/><glyph glyph-name="uni2211" unicode="∑" d="M515-191H40v110l189 376L43 650v110h468V636H205l141-279V228L200-67h315v-124z" horiz-adv-x="552" vert-adv-y="1000"/><glyph glyph-name="uni2212" unicode="−" d="M493 225H50v121h443V225z" horiz-adv-x="543" vert-adv-y="1000"/><glyph glyph-name="uni2219" unicode="∙" d="M386 449.5l24-23.75Q434 402 434 334t-48-115.5Q338 171 271 171t-115 47.5Q108 266 108 334t48 115.5Q204 497 271 497t115-47.5z" horiz-adv-x="543" vert-adv-y="1000"/><glyph glyph-name="uni221A" unicode="√" d="M566 588h-92L280 0H175L3 521h141l84-273 143 464h195V588z" horiz-adv-x="596" vert-adv-y="1000"/><glyph glyph-name="uni221E" unicode="∞" d="M746 420l25-27q25-27 25-109t-50-135q-50-53-140-53-98 0-181 94-83-94-180-94-90 0-140 53T55 284q0 82 50 136t140 54q96 0 180-95 84 95 181 95 90 0 140-54M337 281q-19 23-30 34.5T279 337q-17 10-34 10-27 0-45.5-18T181 281q0-30 18.5-47.5T245 216q17 0 34 10t28.5 21.5Q319 259 337 281m314-47.5l9.5 8.75Q670 251 670 281t-19 47.5Q632 346 605 346q-24 0-43.5-15.5T514 281q19-23 30-34t27.5-21q16.5-10 33.5-10 27 0 46 17.5z" horiz-adv-x="851" vert-adv-y="1000"/><glyph glyph-name="uni222B" unicode="∫" d="M433 615h-49q-71 0-71-71V-5q0-86-52-133.5T122-186H57v110h49q71 0 71 70v549q0 86 52 134t139 48h65V615z" horiz-adv-x="490" vert-adv-y="1000"/><glyph glyph-name="uni2248" unicode="≈" d="M569 393q-47-47-83.5-66.5T404 307q-55 0-117 33-46 24-82 24-44 0-86-42l-82 82q48 48 83.5 67t80.5 19q55 0 117-33 48-25 81-25 44 0 87 43l83-82m0-226q-48-48-83.5-67T405 81q-55 0-117 33-48 25-81 25-44 0-87-43l-83 82q47 47 84 66.5t82 19.5q54 0 116-33 46-24 82-24 44 0 86 42l82-82z" horiz-adv-x="606" vert-adv-y="1000"/><glyph glyph-name="uni2260" unicode="≠" d="M552 116H232L129-13 50 49l55 67H50v122h149l78 95H50v122h320l103 129 79-62-55-67h55V333H404l-78-95h226V116z" horiz-adv-x="602" vert-adv-y="1000"/><glyph glyph-name="uni2264" unicode="≤" d="M475 175L69 362v114l406 186V525L234 419l241-107V175m0-217L69 145v137L475 95V-42z" horiz-adv-x="543" vert-adv-y="1000"/><glyph glyph-name="uni2265" unicode="≥" d="M475 362L69 175v137l241 107L69 525v137l406-186V362m0-217L69-42V95l406 187V145z" horiz-adv-x="543" vert-adv-y="1000"/><glyph glyph-name="uni22C5" unicode="⋅" d="M346 212H197v148h149V212z" horiz-adv-x="543" vert-adv-y="1000"/><glyph glyph-name="uni25CA" unicode="◊" d="M581 341L318-26 55 341l263 366 263-366m-146 0L318 505 201 341l117-165 117 165z" horiz-adv-x="636" vert-adv-y="1000"/><glyph glyph-name="uniFB01" unicode="ﬁ" d="M315 407h-96V0H89v407H35v99h54v65q0 61 39 105t113 44h74V610h-51q-45 0-45-47v-57h96v-99M534 0H404v506h130V0m1 610H402v106h133V610z" horiz-adv-x="606" vert-adv-y="1000"/><glyph glyph-name="uniFB02" unicode="ﬂ" d="M315 407h-96V0H89v407H35v99h54v65q0 61 39 105t113 44h74V610h-51q-45 0-45-47v-57h96v-99M628 0h-74q-75 0-113.5 44T402 149v563h130V157q0-47 46-47h50V0z" horiz-adv-x="659" vert-adv-y="1000"/></font>
</defs>
</svg>
