<?xml version="1.0" encoding="UTF-8"?>
<!DOCTYPE svg PUBLIC "-//W3C//DTD SVG 1.1//EN" "http://www.w3.org/Graphics/SVG/1.1/DTD/svg11.dtd">
<!-- Creator: CorelDRAW 2019 (64-Bit) -->
<svg xmlns="http://www.w3.org/2000/svg" xml:space="preserve" width="52mm" height="52mm" version="1.1" style="shape-rendering:geometricPrecision; text-rendering:geometricPrecision; image-rendering:optimizeQuality; fill-rule:evenodd; clip-rule:evenodd"
viewBox="0 0 5200 5200"
 xmlns:xlink="http://www.w3.org/1999/xlink"
 xmlns:xodm="http://www.corel.com/coreldraw/odm/2003">
 <defs>
  <style type="text/css">
   <![CDATA[
    .fil0 {fill:#E63C24;fill-rule:nonzero}
   ]]>
  </style>
 </defs>
 <g id="Слой_x0020_1">
  <metadata id="CorelCorpID_0Corel-Layer"/>
  <path class="fil0" d="M78.72 3022.69l540.22 -53.63c32.58,180.7 97.7,312.88 196.72,397.82 98.96,84.94 232.41,127.07 400.34,127.07 177.53,0 311.66,-37.65 401.67,-113 90.05,-75.34 135.39,-163.49 135.39,-264.36 0,-65.17 -19.19,-120.06 -56.84,-166.03 -37.69,-45.35 -104.08,-84.94 -198.61,-118.16 -64.48,-22.99 -211.33,-62.58 -441.21,-120.05 -295.68,-74.08 -503.21,-164.72 -622.63,-272.65 -167.93,-151.37 -251.61,-335.91 -251.61,-553.66 0,-139.83 39.6,-271.38 118.16,-393.34 79.19,-121.95 192.82,-214.54 341.61,-278.44 148.79,-63.85 327.58,-95.75 538.32,-95.75 342.93,0 601.55,75.98 774.59,228.61 173.68,152.59 264.37,355.64 273.33,610.46l-555.57 19.14c-23.62,-141.77 -74.08,-243.28 -151.37,-305.23 -77.24,-61.95 -193.45,-93.22 -347.99,-93.22 -159.65,0 -284.82,33.22 -374.83,99.6 -58.1,42.81 -87.51,99.6 -87.51,171.15 0,65.12 27.46,120.69 82.4,166.66 69.6,59.38 238.8,120.69 507.64,184.54 268.85,63.22 467.42,129.65 595.8,197.31 128.97,68.33 229.88,160.91 302.69,279.07 72.77,118.15 109.2,263.73 109.2,436.77 0,157.08 -43.44,304.6 -130.92,441.9 -87.47,137.29 -210.74,239.47 -370.39,305.86 -159.65,67.06 -358.85,100.28 -597.06,100.28 -346.73,0 -612.99,-79.83 -798.85,-240.11 -185.8,-159.65 -296.26,-392.7 -332.69,-698.61zm2701.17 -1854.4l1097.06 0c217.75,0 379.3,8.96 485.92,26.83 107.29,18.51 202.46,56.2 286.72,113.04 84.3,57.47 154.53,133.45 210.74,228.62 56.2,95.12 84.3,202.41 84.3,320.52 0,127.75 -34.48,245.86 -103.44,352.52 -68.97,107.25 -162.87,187.07 -280.98,240.74 166.67,49.15 294.37,132.18 384.42,249.66 89.38,117.52 134.09,255.45 134.09,414.42 0,125.17 -28.74,246.49 -86.84,364.65 -58.11,118.11 -137.3,212.64 -238.21,283.5 -100.24,70.24 -224.14,113.68 -371.62,130.29 -91.95,9.54 -314.82,15.97 -667.97,18.5l-934.19 0 0 -2743.29zm555.52 455.96l0 632.18 362.74 0c215.18,0 349.26,-3.22 401.62,-9.6 94.53,-10.86 169.24,-43.39 223.5,-97.7 54.3,-54.25 81.09,-125.16 81.09,-213.27 0,-84.94 -23.62,-153.27 -70.23,-206.26 -46.61,-52.99 -116.21,-84.94 -208.16,-95.8 -54.94,-6.38 -212.64,-9.55 -472.53,-9.55l-318.03 0zm0 1088.1l0 735.62 513.43 0c199.21,0 326.32,-5.74 379.94,-16.61 82.36,-15.29 149.43,-51.72 201.15,-109.82 51.73,-58.74 77.93,-135.99 77.93,-233.69 0,-83.04 -19.82,-152.63 -60.05,-210.11 -39.6,-57.47 -97.7,-99.6 -173.05,-125.8 -75.34,-26.15 -239.48,-39.59 -491.71,-39.59l-447.64 0z"/>
 </g>
</svg>
