<svg width="175" height="56" fill="none" xmlns="http://www.w3.org/2000/svg"><path d="M31.147 28.776L26.193 24a.385.385 0 00-.543.008l-.37.384.158 9.616.024 1.184.047 2.831.747-3.654.92-.95-.086-5.411a.925.925 0 01.904-.933h.055c.503-.008.928.4.936.902l.023 1.411.032 2.102.047 2.965.723-3.765 1.345-1.388a.371.371 0 00-.008-.526zm-11.253 1.161l-.039-2.478v-.087l-.998 3.632-.763.792.086 5.263a.925.925 0 01-.904.933h-.055a.925.925 0 01-.936-.902l-.055-3.341v-.031l-.04-2.596-1.014 3.678-.904.933a.395.395 0 00-.102.196.755.755 0 00-.07.346l.07 4.258c.008.447.377.8.825.792l4.365-.11c.07-.015.141-.039.204-.062a.372.372 0 00.212-.11l.307-.314-.189-10.76v-.032zm3.586-3.694l-.04-2.227c0-.07.009-.134.024-.204l-.935 3.42-.834.862.157 9.6.024 1.2.047 2.918.77-3.765.976-1.004-.173-10.502-.016-.298z" fill="#F37546"/><path d="M10.993 10.87v6.189c14.815.117 26.822 12.094 27.184 26.988h6.26c-.095-18.345-15.028-33.176-33.444-33.176zM38.24 26.456c.283.102.44.4.204.62-.212.203-.472.117-.645-.204-.078-.15-.408-.275-.857.376-.078.15-.204.102-.126-.07.339-.77 1.007-.879 1.424-.722zm-1.447.063c.118.22-.008.407-.307.486-.133.031-.314.274.118.784.102.094.04.189-.086.087-.559-.448-.504-1.02-.283-1.326.149-.204.424-.274.558-.031zm-3.57-5.977c.047-.047.134-.063.18.118.08.314-.196.267-.078.431.047.07.102.102.142.04.15-.244.346-.37.817-.134.205.479.063.667-.188.8-.063.032-.04.094.023.141.158.118.126-.157.44-.055.181.055.15.15.103.189-.087.078-.212.227-1.046.14-.37-.038-.7.267-.85.4-.054.056-.149.024-.196-.023-.047-.047-.07-.14-.016-.196.15-.141.472-.455.457-.823-.024-.832.133-.942.212-1.028zm-4.875-2.157c.094-.298.29-.407.503-.282.236.149.15.416-.063.549-.323.204-.896.22-1.313-.36-.095-.126.008-.189.094-.08.48.471.731.307.779.173zm-16.27-5.098c.024-.36.393-.211.433-.102.039.118.251.055.18-.07-.566-.926.197-1.64.732-1.051.055.055.023.188-.165.22-.323.062-.433 1.09.306 1.082.905.102 1.502.643 1.66 1.537.023.126-.087.173-.158.078-.141-.196-.377-.745-1.454-.588-.276.04-.3-.36-.11-.33.243.04.235-.305-.016-.227-.22.063-1.455.267-1.408-.549zm.826 2.918c-.731.047-1.235-.518-1.022-1.184.196-.628.959-.338.967-.024.008.314-.275.416-.488.267-.188-.134-.566.87.535.847.118 0 .134.086.008.094zm1.99.141c-.881-.086-1.07.267-1.125.369-.032.063-.157.031-.181-.086-.04-.228.165-.44.464-.487.086-.015.086-.149-.008-.133-.417.078-.676-.031-.747-.079-.047-.031-.102-.101-.102-.133 0-.04.055-.102.11-.125.07-.032.346-.134.755-.016.094.023.11-.11.023-.126-.298-.07-.48-.298-.424-.517.031-.118.157-.134.188-.07.048.101.213.47 1.094.462.298-.008.534.243.526.494a.523.523 0 01-.574.447zm2.885-3.592c-.047-.086-.165-.118-.267-.11-.252.016-.354.44-.142.502.496.157.464 1.31-.44 1.27-.55-.023-.7-.391-.598-.548.063-.102.213-.118.291-.07.228.132.66-.19.338-.66-.275-.392-1.832-.745-1.879.432-.008.14-.189.14-.22.007-.165-.76.086-1.82.912-2.117.613-.22.794.408.558.423-.267.016-.314.369-.07.408.416.079 1.171-.525 1.65.118.19.25-.046.518-.133.345zm8.846 7.153c-.424-.463.063-.8.213-.76.086.023.157-.103-.016-.142-.377-.079-.605-.306-.74-.87-.29-1.224.819-1.938 1.463-1.57.779.448.205 1.444-.102 1.303-.15-.07-.361-.032-.26.36.15.589.661.997 1.668.738.873-.228 1.785-.33 2.257-.134.149.063.063.197-.055.165-.74-.22-1.597.55-1.974.863-.425.33-1.8.76-2.454.047zm3.256 1.78c-.74-.8-.079-1.388.37-1.49.283-.07.188-.376.007-.337-.133.031-.212-.165-.133-.29.063-.11.652-.416 1.478-.008 1.195.588 1.195 1.921.834 2.47-.055.087-.11.055-.08-.054.363-1.208-.935-2.236-1.682-1.718-.637.439-.731.902-.487 1.247.094.133.228.094.283-.008.361-.627.762-.243.731.024-.016.172-.582.972-1.321.164zm2.162 2.84c-.008.125-.086.196-.196.094-.118-.102-.543.117-.574-.126-.024-.188-.205-.125-.189-.055.016.07-.299.377-.74.275-.078-.447.245-.737.315-.722.071.016.15-.157-.039-.196-.244-.047 0-.455-.094-.58-.095-.118-.016-.196.11-.196.094 0 .417.039.377.439-.023.235.386.666.621.659.401-.008.417.313.41.408zm.991 1.615a.459.459 0 01-.645-.008c-.173-.18-.157-.462.032-.643a.459.459 0 01.645.008c.165.18.149.47-.032.643zm.236-.87c-.763-.777.07-1.302.244-1.31.267-.016.629.408-.016.73-.102.054-.157.18-.023.282.33.258.802.196 1.281-.416.559-.714-.393-2.063-1.62-1.773-.11.024-.141-.031-.047-.086.574-.322 1.903-.243 2.422.98.362.848.016 1.412-.094 1.475-.134.07-.33-.016-.283-.157.055-.172-.252-.29-.338-.008-.142.447-.763 1.067-1.526.283zm3.334 3.992c-.566-.165-.77-.408-.833-.792-.024-.173-.158-.118-.142-.024.024.157-.33.62-.77.173-.685-.69-.166-2.04.204-2.44.338-.36 1.156-1.168.983-1.913-.024-.118.118-.196.165-.047.165.478.008 1.388-.267 2.243-.323.996.055 1.521.637 1.71.377.117.44-.087.37-.244-.127-.313.903-.831 1.304-.031.339.667-.448 1.726-1.65 1.365zm1.754 9.357c.015-.071.055-.15.008-.22-.032-.04-.063-.11.007-.133.103-.024.063-.165.142-.212.134-.07.267.094.409.031.102-.078.04-.22.055-.33.04-.14.236-.156.354-.109.15.047.204.204.204.345.008.086-.023.228.087.259.243.04.519-.086.613-.322a.733.733 0 00-.236-.831c-.236-.196-.558-.235-.841-.353-.063-.04-.008.032 0 .063.126.306-.047.674-.338.816-.205.086-.425-.055-.504-.244a.238.238 0 01.079-.306c.118-.101.307-.03.354.11.04.047.102-.008.134-.031.133-.102.228-.306.11-.455-.103-.11-.252-.18-.354-.29a1.137 1.137 0 01-.386-.769c-.015-.078.095-.141.142-.063.024.102.016.22.047.314.079.314.354.518.645.628.26.125.558.149.818.29.314.164.59.463.613.831.032.455-.244.91-.668 1.083-.118.062-.283.03-.354.156-.047.18-.157.361-.338.432-.15.063-.354-.04-.338-.212-.008-.086.078-.149.07-.235-.055-.094-.196-.094-.29-.118-.095-.04-.22-.031-.244-.125zm.212 3.2c-.118-.024-.142-.142-.087-.18.103-.056.457-.244.378-1.122-.024-.298.204-.55.456-.557.252-.008.495.227.495.525-.015.879.354 1.043.457 1.09.062.032.047.157-.071.189-.22.055-.449-.126-.52-.424-.023-.086-.156-.078-.125.024.11.408.008.682-.016.753-.023.055-.094.11-.126.11-.039 0-.102-.048-.133-.102-.047-.071-.158-.33-.071-.746.016-.094-.118-.102-.134-.008-.063.29-.275.487-.503.448zm1.612 1.71c-.668.203-1.235-.299-1.18-1.028.008-.126.103-.11.095 0-.032 1.098.983.73.841.541-.15-.212-.047-.494.268-.478.314.008.605.768-.024.964zm1.91-.8c-.125-.079-.188.133-.07.18.118.039.26.416-.102.431-.81.047-.606-1.184-.535-1.412.079-.25-.267-.258-.228-.015.032.188-.37.164-.33-.11.157-1.075-.393-1.31-.59-1.451-.102-.07-.047-.18.079-.157.896.157 1.43.76 1.533 1.663-.008.737 1.022.635 1.077.314.04-.189.166-.22.22-.165.59.525-.125 1.286-1.053.721zm-.447-2.173c-.142-.032-.134-.212.008-.22 1.171-.047.833-1.6.44-1.866-.464-.322-.794.11-.66.329.047.078.03.228-.072.29-.165.102-.526-.047-.55-.596-.031-.902 1.124-.925 1.274-.431.063.212.487.117.503-.141.008-.102-.023-.22-.11-.267-.173-.086.094-.322.354-.133.645.478.04 1.223.11 1.647.047.243.393.196.417-.071.015-.235.645-.055.424.557-.314.816-1.383 1.067-2.138.902zm10.253-19.17c.063.016.095.04.095.079 0 .29-.087.76-.252 1.411-.173.651-.299 1.09-.385 1.318-.047.118-.118.18-.205.18-.102 0-.165-.094-.18-.29a4.755 4.755 0 00-.598-2.031h-1.62c.008.094.016.243.016.447 0 .282-.016.643-.04 1.075-.007.595-.015 1.388-.031 2.376s-.016 1.796-.016 2.424c0 .603.024 1.098.063 1.49.04.384.134.682.291.886.063.086-.086.172-.464.25-.37.08-.731.119-1.077.119l-.205-.016c-.078-.008-.133-.102-.173-.275a4.494 4.494 0 01-.047-.737c0-.196.016-.62.04-1.27.086-2.62.133-4.252.133-4.879 0-.557-.031-1.004-.094-1.349a2.25 2.25 0 00-.33-.863c-.063-.086.094-.172.48-.25a4.948 4.948 0 011.1-.11h3.216c.118 0 .22.007.283.015zm6.692 6.557c0 .22-.04.431-.11.628-.157.525-.417.949-.802 1.286a5.879 5.879 0 01-1.352.87c-.512.244-1 .369-1.463.377a.158.158 0 01-.07-.016c-.04 0-.064-.008-.064-.015a3.37 3.37 0 00-.267-.777 10.267 10.267 0 00-.472-.886c-.299-.51-.503-.91-.605-1.2a6.714 6.714 0 01-.425-2.29c0-.353.031-.683.087-.997a4.51 4.51 0 01.471-1.349 3.62 3.62 0 01.865-1.074 5.628 5.628 0 011.636-.902 4.831 4.831 0 011.8-.282c.032 0 .048.039.048.11v.046c-.008.306-.095.777-.268 1.412-.173.636-.298 1.051-.385 1.263-.047.118-.11.18-.197.18-.047 0-.086-.023-.117-.078a.52.52 0 01-.063-.212c-.048-.776-.244-1.443-.598-2a2.19 2.19 0 00-.645.33c-.22.157-.409.368-.574.62a3.71 3.71 0 00-.432 1.074 5.093 5.093 0 00-.142 1.192c0 .125.008.22.016.274l.07-.047c.276-.164.598-.274.968-.353.37-.07.747-.11 1.116-.11.315 0 .582.024.81.063.22.047.33.102.33.165 0 .502-.259 1.004-.786 1.498-.11.11-.196.173-.251.173-.079 0-.134-.095-.158-.275-.07-.58-.464-.87-1.163-.87-.291 0-.598.047-.913.133.08.73.3 1.474.645 2.25l.386.699c.353.58.581 1.059.676 1.427.102-.055.244-.172.424-.353.228-.258.378-.627.449-1.098.008-.047.015-.125.015-.243 0-.384-.118-.604-.353-.643-.071-.016-.032-.078.117-.188.15-.11.26-.18.33-.212.04-.016.127-.055.26-.125.134-.071.26-.118.386-.157a.652.652 0 01.314-.032c.307.095.456.314.456.714zm6.896-1.718c0 .118-.008.299-.023.518-.079.941-.338 1.718-.763 2.314-.487.674-1.203 1.231-2.147 1.67a3.817 3.817 0 01-.755.322c-.306.094-.456.118-.464.063a4.3 4.3 0 00-.29-.769 13.302 13.302 0 00-.472-.878c-.315-.55-.535-.996-.669-1.341a5.02 5.02 0 01-.33-1.844c0-.282.016-.533.047-.76.126-1.036.417-1.844.873-2.424.338-.44.77-.8 1.29-1.09a7.024 7.024 0 011.698-.667.647.647 0 01.142-.023c.07 0 .11.008.118.023.063.259.157.51.267.745.11.236.275.542.488.902.039.07.125.228.251.463.126.235.236.463.33.674a5.65 5.65 0 01.41 2.102zm-1.494.667a5.55 5.55 0 00-.597-2.502 6.786 6.786 0 00-.401-.714c-.032-.055-.102-.188-.22-.392-.11-.204-.213-.4-.3-.58a3.28 3.28 0 01-.196-.518 1.75 1.75 0 00-.267.275 3.687 3.687 0 00-.543.964 6.128 6.128 0 00-.4 2.251c0 .8.18 1.57.534 2.299.063.125.212.4.448.823.126.227.26.463.385.714.126.25.228.486.307.698.362-.33.66-.792.897-1.38a5.237 5.237 0 00.353-1.938zm8.705 3.6c.118.165.173.251.173.275.016.062-.07.125-.26.18a3.668 3.668 0 01-.597.118 5.951 5.951 0 01-.653.062c-.243 0-.377-.047-.409-.133a2.888 2.888 0 01-.07-.494 14.59 14.59 0 00-.205-1.365 25.296 25.296 0 00-.629-2.525c-.26-.84-.519-1.553-.786-2.134-.669.722-1.078 1.922-1.227 3.608-.016.243-.024.44-.024.58 0 .44.04.848.118 1.232.08.384.181.675.323.863.047.063-.032.125-.236.188a4.82 4.82 0 01-.763.149c-.306.04-.55.047-.747.031-.157-.007-.228-.368-.228-1.09 0-.51.024-.91.07-1.208.064-.454.158-.917.276-1.404.118-.486.362-1.05.708-1.701A6.212 6.212 0 0169 23.953a9.715 9.715 0 01-.393-.988 2.266 2.266 0 01-.126-.698c0-.196.095-.361.283-.502.19-.142.386-.251.59-.322.425-.157.66-.196.692-.133a.45.45 0 01-.008.172 1.418 1.418 0 00-.008.322c0 .353.283 1.184.85 2.478.22.51.432 1.114.652 1.812.213.698.401 1.357.55 1.969.158.611.245 1.02.276 1.223.102.643.22 1.051.338 1.208zm7.061-4.267c0 .118-.007.299-.023.518-.079.941-.338 1.718-.763 2.314-.487.674-1.203 1.231-2.147 1.67a3.814 3.814 0 01-.754.322c-.307.094-.456.118-.464.063a4.309 4.309 0 00-.291-.769 13.302 13.302 0 00-.472-.878c-.315-.55-.535-.996-.668-1.341a5.02 5.02 0 01-.33-1.844c0-.282.015-.533.046-.76.126-1.036.417-1.844.873-2.424.338-.44.77-.8 1.29-1.09a7.024 7.024 0 011.698-.667.647.647 0 01.142-.023c.07 0 .11.008.118.023.063.259.157.51.267.745.11.236.275.542.488.902.039.07.126.228.251.463.126.235.236.463.33.674a5.5 5.5 0 01.41 2.102zm-1.486.667a5.55 5.55 0 00-.597-2.502 6.786 6.786 0 00-.401-.714c-.032-.055-.103-.188-.22-.392-.11-.204-.213-.4-.3-.58a3.28 3.28 0 01-.196-.518 1.72 1.72 0 00-.267.275 3.687 3.687 0 00-.543.964 6.128 6.128 0 00-.4 2.251c0 .8.18 1.57.534 2.299.063.125.212.4.448.823.126.227.26.463.385.714.126.25.228.486.307.698.362-.33.66-.792.896-1.38a5.237 5.237 0 00.354-1.938zm7.557-5.506c.063.016.094.04.094.079 0 .29-.086.76-.251 1.411-.173.651-.3 1.09-.386 1.318-.047.118-.118.18-.204.18-.102 0-.165-.094-.18-.29a4.755 4.755 0 00-.599-2.031h-1.611c.007.094.015.243.015.447 0 .282-.015.643-.04 1.075-.007.595-.015 1.388-.03 2.376-.016.988-.016 1.796-.016 2.424 0 .603.023 1.098.063 1.49.039.384.133.682.29.886.063.086-.086.172-.463.25-.37.08-.732.119-1.078.119l-.204-.016c-.079-.008-.134-.102-.173-.275a4.493 4.493 0 01-.047-.737c0-.196.016-.62.04-1.27.085-2.62.133-4.252.133-4.879 0-.557-.032-1.004-.095-1.349a2.25 2.25 0 00-.33-.863c-.063-.086.094-.172.48-.25a4.948 4.948 0 011.1-.11h3.217c.11 0 .212.007.275.015zm6.605 9.616a5.25 5.25 0 01-1.085.118l-.204-.016c-.15-.008-.22-.36-.22-1.067 0-.188.015-.596.039-1.223l.11-3.326a9.577 9.577 0 00-1.667 1.67c-.464.605-.7 1.154-.7 1.632v.424c.024.36.063.674.11.925s.126.455.228.596c.063.087-.087.173-.456.251-.37.079-.731.118-1.085.118l-.205-.016c-.149-.008-.22-.345-.22-1.004 0-.33.016-.643.04-.933l.015-.353c0-.157.016-.808.047-1.969a97.22 97.22 0 00.087-3.082c0-.494-.016-.847-.055-1.067a1.448 1.448 0 00-.299-.643c-.047-.07.024-.172.228-.306a3.57 3.57 0 01.731-.345c.283-.102.527-.14.708-.125.142.008.22.384.22 1.137 0 .306-.016.69-.039 1.153l-.024 1.121c0 .361-.007.942-.023 1.734a6.28 6.28 0 011.046-.87c.393-.26.833-.51 1.329-.762l.023-.847c0-.572-.016-.972-.055-1.207a1.645 1.645 0 00-.307-.683c-.047-.07.032-.172.228-.306.205-.125.449-.243.732-.345.283-.102.527-.14.707-.125.15.008.22.368.22 1.074 0 .165-.015.565-.047 1.208-.007.596-.015 1.388-.031 2.384-.016.997-.016 1.804-.016 2.432 0 .604.024 1.098.063 1.482.04.384.134.675.291.879.055.117-.094.203-.464.282zm7.196.008c-.37.078-.732.117-1.086.117l-.204-.015c-.142-.008-.22-.353-.22-1.028 0-.18.007-.415.023-.73l.016-.533.023-.556c.008-.298.032-.98.063-2.055a68.39 68.39 0 00.055-2.267c0-.44-.015-.8-.055-1.098a3.479 3.479 0 00-.189-.784h-2.099c.079.463.228.886.44 1.286.213.4.488.792.826 1.177.04.047.126.148.252.29.125.149.236.29.314.431a.823.823 0 01.118.392c0 .118-.04.22-.11.29-.031.032-.18.173-.448.424a9.98 9.98 0 00-.763.73c-.212.227-.401.525-.582.878a4.828 4.828 0 00-.314.933 4.28 4.28 0 00-.11.918c0 .447.07.76.204.94.063.087-.094.174-.488.252a5.647 5.647 0 01-1.124.118l-.204-.016c-.08 0-.11-.102-.095-.314 0-.125.008-.235.024-.314.078-.627.204-1.152.37-1.576.165-.424.424-.84.77-1.255.29-.337.59-.635.896-.886.307-.251.472-.384.496-.408.055-.063-.008-.228-.181-.486a7.543 7.543 0 00-.574-.73c-.409-.47-.724-.949-.936-1.45a4.855 4.855 0 01-.362-1.656c-.007-.133.173-.274.543-.407.37-.134.676-.22.912-.252.063-.007.118-.015.157-.015h3.114c.071-.008.181-.016.315-.016.079 0 .141.008.18.016.142.008.22.369.22 1.074 0 .212-.007.463-.023.753l-.015.4a223.504 223.504 0 00-.063 4.808c0 .604.023 1.098.063 1.49.039.385.133.683.291.887.078.086-.08.164-.44.243zm14.208-.659c0 .094-.094.196-.275.306-.181.11-.393.196-.621.274-.236.079-.417.118-.558.118l-4.042-.016c-.142.008-.22-.33-.22-1.004a47 47 0 01.039-1.207l.024-.573c.008-.29.031-.973.063-2.047.039-1.075.055-1.82.055-2.251 0-.565-.032-1.02-.095-1.365s-.173-.627-.346-.863c-.063-.086.095-.172.472-.25a5.424 5.424 0 011.101-.118h.401l3.507-.016.039.04a4.405 4.405 0 01-.306 1.56 4.82 4.82 0 01-.842 1.38l-.173.173a4.03 4.03 0 00-.409.424.611.611 0 00-.149.384.53.53 0 00.063.22c.118.204.346.478.668.83.291.322.496.573.622.754a5.69 5.69 0 01.982 3.247zm-1.541-.024c-.008-.454-.133-.964-.369-1.529a6.172 6.172 0 00-1.038-1.655l-.244-.25a4.605 4.605 0 01-.456-.518.794.794 0 01-.165-.463.58.58 0 01.149-.385c.039-.047.173-.196.401-.447.26-.274.433-.47.511-.596.425-.62.645-1.396.645-2.321 0-.055-.016-.094-.047-.102-.032-.016-.071-.016-.118-.016-.047.008-.079.008-.094.008h-1.652c.008.094.016.243.016.447 0 .282-.016.643-.039 1.075a195.326 195.326 0 00-.063 4.62c0 .525.008.948.031 1.285.024.33.071.612.15.847h2.382zm8.068-2.564c0 .172-.024.36-.071.572-.141.604-.401 1.09-.762 1.451a4.6 4.6 0 01-1.337.926c-.535.25-1.054.384-1.549.392a.158.158 0 01-.071-.016c-.039 0-.063-.008-.063-.015a3.67 3.67 0 00-.252-.77c-.11-.242-.267-.556-.464-.94-.275-.502-.464-.887-.558-1.153-.283-.8-.425-1.569-.425-2.314 0-.337.032-.659.087-.965.212-1.098.629-1.906 1.258-2.423a5.845 5.845 0 011.636-.902 4.766 4.766 0 011.793-.282c.031 0 .047.03.047.094v.062c-.016.306-.11.769-.275 1.389-.166.62-.291 1.05-.37 1.286-.047.117-.118.18-.205.18-.102 0-.165-.094-.18-.29a4.31 4.31 0 00-.582-1.984c-.535.125-.944.447-1.227.94-.338.605-.503 1.358-.487 2.26 0 .964.228 1.937.692 2.902.086.196.212.431.361.713.173.322.299.589.393.793.095.204.166.423.228.65.087-.054.189-.149.291-.266.103-.118.181-.235.228-.337a2.96 2.96 0 00.362-1.153 1.15 1.15 0 00-.055-.494c-.055-.165-.149-.251-.299-.275-.094-.016-.055-.086.134-.204.189-.117.291-.188.307-.196a3.18 3.18 0 00.259-.125c.134-.071.26-.118.385-.157a.694.694 0 01.323-.032c.299.063.448.283.448.683zm6.597.18c0 .22-.039.431-.11.628-.157.525-.416.949-.802 1.286a5.87 5.87 0 01-1.352.87c-.511.244-.999.369-1.463.377a.162.162 0 01-.071-.016c-.039 0-.062-.008-.062-.015a3.85 3.85 0 00-.268-.777 10.165 10.165 0 00-.472-.886c-.298-.51-.503-.91-.605-1.2-.283-.785-.425-1.545-.425-2.29 0-.353.032-.683.087-.997.086-.478.244-.925.472-1.349.228-.423.511-.776.865-1.074a5.685 5.685 0 011.627-.902 4.833 4.833 0 011.801-.282c.031 0 .047.039.047.11v.046c-.008.306-.094.777-.267 1.412-.173.636-.299 1.051-.385 1.263-.048.118-.111.18-.197.18-.047 0-.087-.023-.118-.078a.528.528 0 01-.063-.212c-.047-.776-.244-1.443-.598-2a2.188 2.188 0 00-.644.33 2.284 2.284 0 00-.574.62 3.692 3.692 0 00-.433 1.074 5.114 5.114 0 00-.141 1.192c0 .125.007.22.015.274l.071-.047c.275-.164.598-.274.967-.353.37-.07.747-.11 1.117-.11.314 0 .582.024.81.063.22.047.33.102.33.165 0 .502-.259 1.004-.786 1.498-.11.11-.197.173-.252.173-.079 0-.134-.095-.157-.275-.071-.58-.464-.87-1.164-.87-.291 0-.598.047-.912.133.079.73.299 1.474.645 2.25l.385.699c.354.58.582 1.059.676 1.427.102-.055.244-.172.425-.353.228-.258.377-.627.448-1.098a1.5 1.5 0 00.016-.243c0-.384-.118-.604-.354-.643-.071-.016-.031-.078.118-.188s.259-.18.33-.212a3.22 3.22 0 00.26-.125 2.19 2.19 0 01.385-.157.653.653 0 01.315-.032c.314.095.463.314.463.714zm6.731 3.067a5.215 5.215 0 01-1.085.117l-.204-.015c-.15-.008-.22-.353-.22-1.028 0-.18.008-.415.023-.73l.016-.533.024-.556c.007-.298.031-.98.062-2.055.04-1.075.056-1.828.056-2.267 0-.44-.016-.8-.056-1.098a3.49 3.49 0 00-.188-.784h-2.1c.079.463.228.886.441 1.286.212.4.487.792.825 1.177.04.047.126.148.252.29.126.149.236.29.314.431a.819.819 0 01.118.392.4.4 0 01-.11.29c-.031.032-.181.173-.448.424-.299.259-.55.502-.763.73-.212.227-.401.525-.582.878a4.39 4.39 0 00-.314.933 4.28 4.28 0 00-.11.918c0 .447.071.76.204.94.063.087-.094.174-.487.252a5.672 5.672 0 01-1.133.118l-.204-.016c-.079 0-.11-.102-.094-.314 0-.125.007-.235.023-.314.079-.627.205-1.152.37-1.576.165-.424.424-.84.77-1.255.291-.337.59-.635.897-.886.306-.251.472-.384.495-.408.055-.063-.008-.228-.181-.486a7.497 7.497 0 00-.574-.73c-.409-.47-.723-.949-.935-1.45a4.827 4.827 0 01-.362-1.656c-.008-.133.173-.274.542-.407.37-.134.677-.22.913-.252.062-.007.118-.015.157-.015h3.114c.071-.008.181-.016.314-.016.079 0 .142.008.181.016.15.008.22.369.22 1.074 0 .212-.008.463-.023.753l-.016.4c-.008.26-.024.965-.039 2.126-.016 1.16-.024 2.047-.024 2.682 0 .604.024 1.098.063 1.49.039.385.134.683.291.887.086.086-.071.164-.433.243zm12.44-3.71c-.157.11-.267.188-.322.22-.385.211-.692.313-.92.313-.267 0-.48-.063-.629-.188a.6.6 0 01-.228-.502 1.31 1.31 0 01.212-.65c.063-.087.15-.19.26-.307.33-.306.605-.65.825-1.043.221-.392.386-.823.504-1.286.118-.463.173-.926.173-1.388 0-.173-.008-.299-.016-.377h-2.107c.007.259.007.62-.016 1.09a5.71 5.71 0 00-.016.424l-.016.62c0 .752.008 1.348.016 1.788l.016 1.804v.407c0 .66.023 1.2.063 1.608.039.408.133.73.291.941.07.087-.079.173-.449.251a5.283 5.283 0 01-1.093.118l-.204-.016c-.142-.007-.22-.337-.22-.996 0-.345.016-.666.039-.956l.016-.338c.008-.612.016-1.396.031-2.353.016-.957.016-1.796.016-2.525 0-.557-.031-1.012-.094-1.365s-.173-.635-.331-.863c-.063-.086.095-.172.464-.25a4.815 4.815 0 011.085-.11h4.05c.189 0 .275.054.275.156 0 .934-.149 1.687-.456 2.26-.306.572-.566.972-.786 1.207-.22.235-.346.369-.385.408l-.197.18a1.52 1.52 0 00-.362.447 1.023 1.023 0 00-.094.44c0 .188.063.337.189.447.125.11.306.172.542.18.079.031.04.094-.126.204zm9.633-5.929c.33 0 .495.039.495.117 0 .29-.086.753-.251 1.396-.165.643-.299 1.09-.393 1.334a.339.339 0 01-.095.133c-.039.031-.07.047-.102.047a.152.152 0 01-.126-.07c-.039-.048-.055-.118-.063-.22a4.26 4.26 0 00-.542-1.89c-.307.313-.574.792-.802 1.427-.181.51-.338 1.208-.472 2.094a28.171 28.171 0 00-.275 2.494c-.024.322-.04.66-.04 1.004 0 .761.103 1.279.307 1.545.063.087-.086.173-.456.251-.37.079-.731.118-1.085.118l-.205-.016c-.125-.008-.196-.266-.196-.776 0-.322.031-.824.094-1.514.047-.62.126-1.255.228-1.898a1.496 1.496 0 01-.401.118 2.08 2.08 0 01-.362.039c-.393 0-.699-.165-.912-.486a3.05 3.05 0 01-.322-.722 7.578 7.578 0 01-.212-.941 3.489 3.489 0 01-.063-.431c-.016-.126-.024-.228-.04-.306-.094-.604-.165-.98-.196-1.138-.008-.039-.032-.14-.063-.313a1.384 1.384 0 00-.15-.44.502.502 0 00-.243-.25c-.063-.024-.055-.063.015-.126.079-.063.166-.118.252-.173.094-.055.149-.086.165-.102.039-.015.157-.07.354-.172.197-.102.362-.15.511-.15a.548.548 0 01.44.33c.063.15.126.353.181.612.055.259.126.651.205 1.184.031.26.063.455.086.58.087.534.189.997.307 1.397s.299.682.55.855c.496-2.534 1.298-4.087 2.399-4.66l.039-.023c.102-.055.236-.102.401-.149a1.11 1.11 0 01.275-.062h.016a7.8 7.8 0 01.747-.047zm7.022 6.392c0 .172-.023.36-.071.572-.141.604-.401 1.09-.762 1.451a4.586 4.586 0 01-1.337.926c-.535.25-1.054.384-1.549.392a.158.158 0 01-.071-.016c-.039 0-.063-.008-.063-.015a3.612 3.612 0 00-.252-.77c-.11-.242-.267-.556-.463-.94-.276-.502-.464-.887-.559-1.153-.283-.8-.424-1.569-.424-2.314 0-.337.031-.659.086-.965.212-1.098.629-1.906 1.258-2.423a5.845 5.845 0 011.636-.902 4.766 4.766 0 011.793-.282c.031 0 .047.03.047.094v.062c-.016.306-.11.769-.275 1.389-.166.62-.291 1.05-.37 1.286-.047.117-.118.18-.204.18-.103 0-.166-.094-.181-.29a4.31 4.31 0 00-.582-1.984c-.535.125-.944.447-1.227.94-.338.605-.503 1.358-.487 2.26 0 .964.228 1.937.692 2.902.086.196.212.431.361.713.173.322.299.589.393.793.095.204.166.423.229.65a1.44 1.44 0 00.29-.266c.103-.118.181-.235.229-.337.196-.346.314-.73.361-1.153a1.15 1.15 0 00-.055-.494c-.055-.165-.149-.251-.299-.275-.094-.016-.055-.086.134-.204.189-.117.291-.188.307-.196a3.02 3.02 0 00.259-.125c.134-.071.26-.118.386-.157a.689.689 0 01.322-.032c.299.063.448.283.448.683zm6.511 3.239a5.25 5.25 0 01-1.085.118l-.205-.016c-.141-.008-.22-.36-.22-1.067 0-.188.016-.596.04-1.223l.11-3.326a9.574 9.574 0 00-1.667 1.67c-.464.605-.7 1.154-.7 1.632v.424c.023.36.063.674.11.925s.126.455.228.596c.063.087-.087.173-.456.251-.37.079-.731.118-1.085.118l-.205-.016c-.141-.008-.22-.345-.22-1.004 0-.33.016-.643.039-.933l.016-.353c0-.157.016-.808.047-1.969.055-1.45.087-2.478.087-3.082 0-.494-.016-.847-.055-1.067a1.456 1.456 0 00-.299-.643c-.047-.07.024-.172.228-.306a3.57 3.57 0 01.731-.345c.283-.102.527-.14.708-.125.142.008.22.384.22 1.137 0 .306-.016.69-.039 1.153l-.024 1.121c0 .361-.008.942-.023 1.734.306-.322.66-.612 1.045-.87.394-.26.834-.51 1.329-.762l.024-.847c0-.572-.016-.972-.055-1.207a1.642 1.642 0 00-.307-.683c-.047-.07.032-.172.228-.306.205-.125.449-.243.732-.345.283-.102.526-.14.707-.125.142.008.221.368.221 1.074 0 .165-.016.565-.048 1.208-.008.596-.015 1.388-.031 2.384-.016.997-.016 1.804-.016 2.432 0 .604.024 1.098.063 1.482.039.384.134.675.291.879.055.117-.102.203-.464.282z" fill="#F37546"/></svg>