<?xml version="1.0" encoding="UTF-8"?>
<!DOCTYPE svg PUBLIC "-//W3C//DTD SVG 1.1//EN" "http://www.w3.org/Graphics/SVG/1.1/DTD/svg11.dtd">
<!-- Creator: CorelDRAW 2019 (64-Bit) -->
<svg xmlns="http://www.w3.org/2000/svg" xml:space="preserve" width="52mm" height="52mm" version="1.1" style="shape-rendering:geometricPrecision; text-rendering:geometricPrecision; image-rendering:optimizeQuality; fill-rule:evenodd; clip-rule:evenodd"
viewBox="0 0 5200 5200"
 xmlns:xlink="http://www.w3.org/1999/xlink"
 xmlns:xodm="http://www.corel.com/coreldraw/odm/2003">
 <defs>
  <style type="text/css">
   <![CDATA[
    .fil0 {fill:black;fill-rule:nonzero}
   ]]>
  </style>
 </defs>
 <g id="Слой_x0020_1">
  <metadata id="CorelCorpID_0Corel-Layer"/>
  <path class="fil0" d="M798.1 2149.8l479.4 0c221.64,-563.59 499.99,-954.48 835.89,-1170.11 335.92,-216.5 692.46,-324.74 1067.89,-324.74 509.44,0 956.18,186.42 1340.2,560.13 384.03,372.86 575.6,837.62 575.6,1394.34 0,540.37 -186.43,997.42 -558.42,1371.12 -371.99,373.72 -822.17,561.02 -1349.66,561.02 -471.64,0 -897.76,-154.66 -1279.2,-463.93 -381.46,-308.42 -591.93,-725.09 -632.3,-1247.42l-479.4 0 0 1618.56 -701.02 0 0 -3701.05 701.02 0 0 1402.08zm3587.65 456.18c0,-336.78 -114.27,-631.44 -343.65,-883.17 -229.38,-251.72 -518.89,-377.15 -868.56,-377.15 -329.89,0 -614.25,116.84 -853.1,349.66 -237.96,232.82 -357.38,538.67 -357.38,915.81 0,373.72 121.99,675.27 366.83,905.51 243.99,229.38 529.22,344.5 855.67,344.5 333.35,0 616.85,-122 849.66,-365.12 233.68,-243.13 350.53,-539.53 350.53,-890.04z"/>
 </g>
</svg>
