<?xml version="1.0" encoding="UTF-8"?>
<!DOCTYPE svg PUBLIC "-//W3C//DTD SVG 1.1//EN" "http://www.w3.org/Graphics/SVG/1.1/DTD/svg11.dtd">
<!-- Creator: CorelDRAW 2017 -->
<svg xmlns="http://www.w3.org/2000/svg" xml:space="preserve" width="5cm" height="5cm" version="1.1" style="shape-rendering:geometricPrecision; text-rendering:geometricPrecision; image-rendering:optimizeQuality; fill-rule:evenodd; clip-rule:evenodd"
viewBox="0 0 5000 5000"
 xmlns:xlink="http://www.w3.org/1999/xlink">
 <defs>
  <style type="text/css">
   <![CDATA[
    .fil0 {fill:#F37546;fill-rule:nonzero}
   ]]>
  </style>
 </defs>
 <g id="Слой_x0020_1">
  <metadata id="CorelCorpID_0Corel-Layer"/>
  <g id="_707218344">
   <path class="fil0" d="M3013 2697l-740 -714c-23,-22 -59,-22 -81,2l-55 57 23 1438 4 177 7 423 111 -546 138 -143 -13 -808c-1,-76 60,-138 136,-140l8 0c76,-1 139,60 140,135l4 210 5 315 7 443 108 -563 201 -207c21,-22 21,-58 -2,-79zm-1682 174l-6 -371 0 -13 -149 544 -115 118 13 786c0,76 -60,138 -136,139l-9 0c-76,2 -138,-59 -139,-135l-9 -499 0 -5 -6 -389 -151 551 -136 139c-8,8 -13,18 -15,29 -8,16 -12,34 -11,52l11 636c1,67 56,120 123,118l653 -16c11,-2 21,-5 30,-9 12,-2 23,-7 32,-16l46 -47 -28 -1609 0 -5zm536 -552l-6 -333c0,-10 2,-20 4,-31l-140 512 -125 128 24 1435 3 180 7 436 115 -563 146 -150 -26 -1570 -2 -44zm0 0z"/>
   <path class="fil0" d="M0 20l0 925c2215,18 4009,1808 4064,4035l936 0c-14,-2743 -2246,-4960 -5000,-4960zm4073 2331c42,15 66,59 30,93 -31,30 -70,17 -96,-31 -12,-22 -61,-41 -128,57 -12,22 -30,15 -19,-11 51,-115 150,-132 213,-107zm-216 9c18,33 -1,61 -46,72 -19,5 -47,41 18,117 16,15 6,29 -13,13 -83,-67 -75,-153 -42,-198 23,-31 64,-41 83,-5zm-533 -894c7,-7 20,-9 27,18 12,47 -29,40 -12,64 7,11 16,16 22,6 22,-37 51,-55 122,-20 30,72 9,100 -29,120 -9,5 -5,14 4,21 23,18 19,-23 65,-8 27,8 23,22 16,28 -13,12 -32,34 -157,21 -55,-6 -104,40 -127,60 -8,8 -23,3 -30,-4 -7,-7 -10,-21 -2,-29 22,-21 71,-68 69,-123 -3,-124 20,-140 32,-153zm-729 -322c14,-44 43,-61 75,-42 36,22 23,62 -9,82 -48,31 -134,33 -196,-54 -14,-19 2,-28 14,-12 72,70 110,46 117,26zm-2433 -762c4,-54 58,-31 65,-15 6,17 37,8 27,-11 -85,-139 29,-245 109,-157 9,9 4,28 -24,33 -48,9 -65,163 45,161 136,16 225,97 248,230 3,19 -13,27 -23,12 -21,-29 -57,-111 -217,-88 -41,6 -45,-54 -17,-49 37,6 36,-45 -2,-33 -33,9 -217,40 -210,-83zm124 436c-110,7 -185,-77 -153,-177 30,-94 143,-51 145,-4 2,47 -41,62 -73,40 -28,-20 -84,130 80,126 18,0 20,13 2,14zm297 21c-132,-13 -160,40 -168,55 -5,9 -23,5 -27,-12 -6,-34 25,-66 69,-73 13,-2 13,-22 -2,-19 -62,12 -100,-5 -111,-12 -7,-5 -16,-16 -16,-20 0,-6 9,-16 17,-19 10,-5 51,-20 113,-2 14,3 16,-16 3,-19 -44,-11 -72,-44 -63,-78 4,-17 23,-20 28,-10 7,15 32,70 163,69 44,-2 79,36 79,74 -6,41 -44,71 -87,66l1 0zm431 -537c-7,-13 -25,-18 -40,-16 -37,2 -53,65 -21,75 74,24 69,196 -65,190 -83,-4 -105,-58 -90,-82 9,-16 32,-18 44,-11 34,20 98,-28 51,-99 -41,-58 -274,-111 -281,65 -1,21 -29,21 -33,2 -25,-114 13,-273 136,-317 91,-33 118,61 83,64 -40,2 -47,55 -11,61 62,12 175,-79 247,18 29,37 -7,77 -20,51zm1322 1069c-63,-69 9,-119 32,-114 12,4 23,-16 -2,-21 -57,-12 -90,-46 -111,-130 -43,-183 122,-290 219,-235 116,67 30,216 -16,195 -22,-11 -54,-5 -39,54 23,88 99,149 249,110 131,-33 267,-49 338,-20 22,9 9,30 -9,24 -111,-33 -238,83 -295,129 -63,49 -269,114 -367,7zm487 266c-111,-120 -12,-208 55,-223 43,-11 28,-56 1,-50 -20,5 -32,-25 -20,-44 9,-16 97,-62 221,-1 178,88 178,287 125,369 -9,13 -16,9 -12,-8 54,-181 -140,-335 -252,-257 -96,65 -110,135 -73,186 14,20 34,14 42,-1 54,-94 114,-37 110,3 -2,26 -87,146 -198,25zm323 424c-1,19 -12,30 -29,14 -18,-15 -82,18 -87,-19 -3,-28 -30,-19 -28,-9 2,11 -44,57 -110,41 -12,-67 36,-110 47,-107 10,2 22,-23 -6,-30 -37,-7 0,-68 -14,-87 -14,-18 -2,-30 16,-30 14,0 62,6 56,65 -3,35 58,100 93,99 60,-2 62,47 61,61zm149 241c-27,27 -70,26 -96,-1 -27,-27 -23,-69 5,-97 27,-26 70,-26 97,2 24,27 22,70 -5,96zm35 -130c-114,-116 10,-195 37,-195 40,-2 93,61 -2,109 -16,8 -24,26 -4,42 50,39 120,30 192,-62 83,-107 -58,-308 -242,-265 -16,3 -21,-5 -7,-13 86,-48 284,-36 362,147 54,127 2,211 -14,221 -20,10 -49,-3 -42,-24 8,-26 -38,-43 -51,-1 -21,67 -115,160 -228,42zm498 597c-85,-25 -115,-61 -125,-118 -4,-26 -23,-18 -21,-4 3,23 -50,93 -115,26 -103,-103 -25,-304 30,-364 51,-54 173,-175 147,-287 -4,-17 17,-29 25,-7 24,72 1,208 -40,336 -48,149 9,227 96,255 56,18 65,-13 55,-36 -20,-47 135,-125 195,-5 51,100 -67,258 -247,204zm263 1399c2,-10 8,-23 1,-33 -5,-6 -9,-16 2,-20 15,-3 9,-24 21,-31 20,-11 40,14 61,5 16,-12 6,-33 9,-50 6,-21 35,-23 53,-16 23,7 30,31 30,52 2,13 -3,34 13,38 36,6 77,-13 92,-48 16,-45 2,-95 -36,-125 -35,-30 -83,-35 -125,-53 -9,-6 -2,5 0,9 19,46 -7,101 -51,122 -31,13 -64,-9 -76,-37 -8,-16 -3,-36 12,-46 18,-15 46,-4 53,17 6,7 16,-2 20,-5 19,-16 34,-46 16,-69 -16,-16 -37,-26 -53,-43 -33,-30 -54,-71 -58,-115 -2,-12 14,-21 21,-9 4,15 2,33 7,47 12,47 53,78 97,94 39,19 83,22 122,43 47,25 88,69 92,125 5,68 -37,136 -100,162 -18,9 -43,5 -53,23 -7,27 -24,54 -51,65 -23,9 -53,-6 -51,-32 -2,-13 12,-22 10,-35 -8,-14 -29,-14 -43,-18 -15,-6 -33,-5 -36,-19zm31 479c-17,-4 -21,-22 -13,-27 16,-8 68,-36 56,-167 -3,-45 30,-83 68,-83 37,-2 74,34 74,79 -2,131 53,156 69,163 9,5 7,23 -11,28 -33,9 -67,-19 -78,-63 -3,-13 -23,-12 -19,3 16,62 2,102 -2,113 -3,8 -14,16 -19,16 -6,0 -16,-7 -20,-16 -7,-10 -23,-49 -10,-111 2,-14 -18,-15 -20,-1 -9,43 -41,73 -76,67zm241 255c-100,30 -185,-44 -177,-153 2,-20 16,-17 15,0 -5,163 147,109 125,80 -23,-31 -7,-73 40,-71 47,1 90,114 -4,144zm286 -120c-19,-12 -28,20 -11,27 18,5 39,62 -15,65 -121,7 -91,-178 -80,-211 12,-37 -40,-39 -34,-2 5,28 -55,24 -49,-17 23,-161 -59,-196 -88,-217 -16,-10 -8,-27 12,-24 134,24 214,114 229,249 -2,110 153,95 161,47 6,-28 25,-33 33,-24 88,79 -19,192 -157,107zm-67 -325c-21,-5 -20,-32 1,-33 175,-7 125,-239 66,-279 -69,-48 -119,17 -99,49 7,12 5,34 -11,43 -24,16 -79,-7 -82,-89 -5,-135 168,-139 190,-65 9,32 73,18 76,-21 1,-15 -4,-33 -16,-40 -26,-13 14,-48 53,-20 97,72 5,183 16,247 7,36 58,29 62,-11 2,-35 96,-9 63,83 -47,122 -206,160 -319,135z"/>
  </g>
 </g>
</svg>
