<?xml version="1.0" encoding="UTF-8"?>
<!DOCTYPE svg PUBLIC "-//W3C//DTD SVG 1.1//EN" "http://www.w3.org/Graphics/SVG/1.1/DTD/svg11.dtd">
<!-- Creator: CorelDRAW 2017 -->
<svg xmlns="http://www.w3.org/2000/svg" xml:space="preserve" width="5cm" height="5cm" version="1.1" style="shape-rendering:geometricPrecision; text-rendering:geometricPrecision; image-rendering:optimizeQuality; fill-rule:evenodd; clip-rule:evenodd"
viewBox="0 0 5000 5000"
 xmlns:xlink="http://www.w3.org/1999/xlink">
 <defs>
  <style type="text/css">
   <![CDATA[
    .fil0 {fill:#F37546;fill-rule:nonzero}
   ]]>
  </style>
 </defs>
 <g id="Слой_x0020_1">
  <metadata id="CorelCorpID_0Corel-Layer"/>
  <path class="fil0" d="M3013 2697l-740 -714c-23,-22 -59,-22 -81,2l-1701 1753c-8,8 -13,18 -15,29 -8,16 -12,34 -11,52l11 636c1,67 56,120 123,118l653 -16c11,-2 21,-5 30,-9 12,-2 23,-7 32,-16 621,-631 1097,-1131 1701,-1755 21,-22 21,-58 -2,-79z"/>
  <path class="fil0" d="M0 20l0 925c2215,18 4009,1808 4064,4035l936 0c-14,-2743 -2246,-4960 -5000,-4960z"/>
 </g>
</svg>
