<?xml version="1.0" encoding="UTF-8"?>
<!DOCTYPE svg PUBLIC "-//W3C//DTD SVG 1.1//EN" "http://www.w3.org/Graphics/SVG/1.1/DTD/svg11.dtd">
<!-- Creator: CorelDRAW 2019 (64-Bit) -->
<svg xmlns="http://www.w3.org/2000/svg" xml:space="preserve" width="52mm" height="52mm" version="1.1" style="shape-rendering:geometricPrecision; text-rendering:geometricPrecision; image-rendering:optimizeQuality; fill-rule:evenodd; clip-rule:evenodd"
viewBox="0 0 5200 5200"
 xmlns:xlink="http://www.w3.org/1999/xlink"
 xmlns:xodm="http://www.corel.com/coreldraw/odm/2003">
 <defs>
  <style type="text/css">
   <![CDATA[
    .fil0 {fill:#FFDB0D;fill-rule:nonzero}
   ]]>
  </style>
 </defs>
 <g id="Слой_x0020_1">
  <metadata id="CorelCorpID_0Corel-Layer"/>
  <path class="fil0" d="M1009.65 3495.78l-422.93 -1679.52 0 1819.46c0,100.69 -22.7,176.18 -67.53,226.54 -44.82,50.32 -104.35,75.49 -178.01,75.49 -71.82,0 -130.76,-25.17 -176.18,-74.9 -45.41,-49.71 -68.14,-125.23 -68.14,-227.13l0 -2085.87c0,-115.4 30.08,-192.72 89.64,-233.26 60.16,-39.9 141.18,-60.15 242.46,-60.15l165.73 0c99.44,0 171.26,9.23 216.08,27 44.82,17.85 78.57,50.36 100.06,97.01 21.49,46.63 46.04,122.8 73.66,228.37l383.05 1444.99 383.03 -1444.99c27.62,-105.57 52.19,-181.71 73.65,-228.37 21.49,-46.65 54.65,-79.19 99.44,-97.01 44.85,-17.77 117.26,-27 216.71,-27l165.13 0c101.9,0 182.93,20.25 243.08,60.15 59.57,40.54 89.64,117.86 89.64,233.26l0 2085.87c0,100.69 -22.73,176.18 -67.52,226.54 -44.83,50.32 -104.98,75.49 -179.85,75.49 -70.6,0 -128.93,-25.17 -174.34,-75.49 -45.44,-50.36 -68.15,-125.85 -68.15,-226.54l0 -1819.46 -422.93 1679.52c-27.62,108.65 -49.74,189.06 -67.53,240.01 -17.17,50.33 -49.11,96.98 -95.77,138.72 -47.25,42.37 -111.7,63.24 -194.57,63.24 -62.61,0 -115.42,-13.5 -158.37,-40.53 -42.96,-27 -76.74,-61.38 -100.69,-103.12 -23.92,-42.36 -42.96,-88.39 -56.46,-139.34 -14.12,-50.95 -28.24,-104.36 -42.36,-158.98l-0.03 0zm3099.54 -621.44l-489.25 0 0 746.42c0,106.81 -25.16,187.25 -75.49,242.49 -50.33,55.24 -114.18,82.86 -190.29,82.86 -80.44,0 -145.48,-27 -194.59,-81.65 -49.12,-54.62 -73.66,-135.03 -73.66,-240l0 -2032.45c0,-117.25 26.97,-201.33 81.03,-251.66 54.02,-50.36 139.34,-75.52 257.2,-75.52l685.05 0c202.56,0 358.48,15.36 467.75,46.65 108.03,30.08 201.34,79.82 279.91,149.18 78.57,69.96 138.11,154.68 178.64,255.34 41.12,100.68 61.37,214.25 61.37,340.07 0,268.87 -82.86,472.04 -248,610.8 -165.73,138.1 -411.89,207.47 -739.67,207.47l0 0zm-129.52 -1208.04l-359.73 0 0 806.57 359.73 0c125.82,0 231.42,-13.5 316.12,-39.88 84.1,-26.41 148.55,-69.36 193.37,-129.54 44.2,-59.54 66.29,-138.73 66.29,-235.72 0,-116.61 -34.37,-211.14 -102.52,-284.23 -76.71,-77.95 -234.47,-117.2 -473.26,-117.2l0 0z"/>
 </g>
</svg>
