<svg xmlns="http://www.w3.org/2000/svg" width="68mm" height="60mm" viewBox="0 0 6800 6000" shape-rendering="geometricPrecision" text-rendering="geometricPrecision" image-rendering="optimizeQuality" fill-rule="evenodd" clip-rule="evenodd"><g id="Слой_x0020_1"><path id="path4512" d="M1899.67 2040.58c-6.48-6.48-6.48-19.44-6.48-38.89v-45.37c0-330.53 136.1-635.13 349.97-849 213.87-220.35 518.47-362.93 849-362.93v259.24c-259.24 6.48-492.55 116.66-661.05 285.16-168.5 174.98-272.2 408.3-272.2 667.53v64.8l-259.24 19.46zm1360.99 3130.28c0-252.76 103.69-479.59 272.2-648.09 162.02-162.02 395.34-265.72 648.09-265.72h1270.26c285.16 0 550.88-116.66 738.82-304.6 187.95-187.95 304.6-453.66 304.6-738.82 0-272.2-103.69-518.47-272.2-699.94-168.5-187.95-408.3-311.08-674.01-337.01l-136.1-12.96 19.44-136.1v-51.85c6.48-12.96 6.48-25.92 6.48-45.37 0-207.39-84.25-395.34-220.35-531.44-136.1-136.1-324.05-220.35-531.43-220.35-19.44 0-38.89 6.48-58.33 6.48-19.44 0-38.89 0-51.85 6.48l-90.73 12.96-45.37-77.77c-142.58-220.35-337.01-408.3-570.32-537.92-226.83-129.62-486.07-200.91-758.27-200.91-421.26 0-803.63 168.5-1088.79 440.7-285.16 272.2-460.14 648.09-479.59 1069.35l-6.48 129.62-123.13.01c-304.6 0-583.28 123.14-784.19 330.53-200.91 200.91-324.05 473.11-324.05 784.19 0 304.6 123.14 583.28 324.05 784.19 207.39 207.39 486.07 330.53 790.67 330.53h1192.49c174.98 0 337.01-71.29 453.66-181.47 116.66-116.66 187.95-272.2 194.43-447.18v-110.18l-252.76 252.76-181.47-187.95 473.11-473.11 97.21-90.73 90.73 90.73 479.59 473.11-187.95 187.95-252.76-252.76v116.66c-6.48 246.27-116.66 466.63-278.68 628.65-168.5 162.02-388.85 259.24-635.13 259.24H1420.08c-382.37 0-725.86-155.54-972.14-408.3-252.76-246.27-408.3-589.76-408.3-972.14 0-382.37 155.54-725.86 401.82-972.14 220.35-220.35 518.47-369.41 849-401.82 45.37-440.7 246.27-836.04 550.88-1127.68C2171.87 323.13 2619.05 128.7 3111.6 128.7c317.56 0 622.17 77.77 887.89 226.83 246.27 136.1 460.14 330.53 622.17 563.84h64.81c285.16 0 537.92 110.18 719.38 291.64 181.47 187.95 298.12 440.7 298.12 719.38 278.68 58.33 531.43 200.91 712.9 401.82 213.87 233.31 343.49 544.4 343.49 881.4 0 362.93-149.06 686.98-382.37 926.77-239.79 233.31-563.84 382.37-926.77 382.37l-1270.27.02c-181.47 0-343.49 71.29-460.15 187.95-123.14 116.66-194.43 278.68-194.43 460.14v272.2l252.76-252.76 187.95 187.95-479.59 473.11-90.73 90.73-97.21-90.73-473.11-473.11 181.47-187.95 252.76 252.76-.01-272.2z" fill="#05a4fa" fill-rule="nonzero"/></g></svg>