<svg xmlns="http://www.w3.org/2000/svg" width="210mm" height="230mm" viewBox="0 0 21000 23000" shape-rendering="geometricPrecision" text-rendering="geometricPrecision" image-rendering="optimizeQuality" fill-rule="evenodd" clip-rule="evenodd"><defs><style>.fil1,.fil2{fill:#fecb24}</style></defs><g id="Слой_x0020_1"><g id="_2004223804464"><path d="M15075.33 812.06c26.19-29.05 256.47-11.92 296.92-11.92h4181.65c751.3 0 647.95-66.2 647.95 237.39l.76 4819.53c.2 106.05-3.93 87.56-162.71 87.46h-4819.52c-185.49.09-160.26 64.43-160.26-320.72V1766.48c0-111.69-14.76-928.39 15.21-954.42zM841.63 5918.66c-1.7-2.18-3.24-5.42-3.98-7.26l-9.46-1269.65c0-264.69-14.96-3743.48 8.41-3829.02l13511.42 3.2c24.29 136.47 5.55 487.99 5.55 646.82l.04 4150.93c0 384.07 44.19 319.21-216.61 319.21l-13288.15-9.95c-1.38-3.32-5.1-2.46-7.22-4.28zM389.35 95.97c-43.74 30.16-165.26 47.51-238.2 187.69-56.1 107.81-43.19 239.6-43.19 379.27l-.05 5548.08c-.34 280.99 124.79 445.24 410.87 445.22l19247.74-.07c141.27 0 767.9 17.56 855.01-6.76 320.47-89.48 283.43-346.34 283.43-570l.02-5548.08c.27-299.29-110.87-442.56-419.58-442.42-3767.98 1.61-20071.68-9.73-20096.05 7.07z" fill="#fecd23"/><path class="fil1" d="M834.04 8418.09c0-53.98-5.05-66.19 49.27-66.19l19293.65.59c11.24 33.78 11.55 26.75 11.55 65.6v5001.38c0 48.22 2.6 51.58-47.36 51.58l-19304.8-4.51-2.31-5048.45zm-726.13-394.84v5791.06c0 231.74 163.1 389.09 390.64 389.09H20525.9c215.5 0 379.13-142.88 379.13-389.09V8023.25c0-245.81-149.02-387.82-389.25-387.82H498.55c-228.21 0-390.64 155.58-390.64 387.82zm18889.11 7396.34l-12474.06 1.23c-143.92 0-296.15-14.03-397.07 51.73-226 147.3-226.76 427.8-42.25 593.43 96.82 86.91 195.9 84.19 358.32 84.18h12413.31c149.08-.01 286.19 16.69 399.22-43.21 218.59-115.84 275.33-396.37 87.45-582.29-85.45-84.55-190.35-105.07-344.92-105.07zm-30.38 4378.6l-12443.68 1.2c-134.18 0-300.94-15.09-395.6 49.14-287.56 195.14-202.23 581.28 102.84 668.01 61.28 17.43 139.89 11.73 211.76 11.73l12443.69-.04c151.74-.05 277.62 15.4 394.6-53.41 82.44-48.5 164.99-154.02 169.75-271.53 7.03-173.46-38.53-236.88-126.42-316.95-90.48-82.44-201.35-88.05-356.94-88.15z"/><path class="fil1" d="M6201.77 9592.51c-99.39 52.37-180.57 98.14-223.65 215.2-50.07 136.05-21.96 264.06 46.83 353.78 31.89 41.6 75.37 79.11 121.26 102.51 60.89 31.03 99.47 38.99 184.36 39.35 1920.75 8.32 3859.54-.08 5781.41-.08h5325.78c245.76 0 1654.72 23.68 1767.26-16.56 104.17-37.23 174.16-111.99 225.64-208.7 44.54-83.71 30.13-246.29-50.1-353.16-74.16-98.78-178.77-140.85-302.51-142.42-725.5-9.24-1497.75-.03-2227.54-.03-1382.08 0-10603.48-13.74-10648.74 10.11zm-3891.24 238.81c2.12-1.76 5.33-3.4 7.14-4.17 1.84-.78 5.1-2.95 7.44-3.79l117.45-5.99c320.33.86 1942.01-12.31 2049.45 4.76 28.7 79.15 9.14 1920.89 8.3 2169.82-12.45 32.14 6.99 12.19-29.38 22.34-148.96.29-2082.61 13.87-2177.4-6.89l-.05-2161.79c7.4-26.5-7.16-12.46 17.05-14.29zm2900.1 2595.97c19.21-118.17 6.55-2484.9 6.55-2723.42 0-253.57 34.62-514.86-301.56-608.02-69.98-19.39-2434.97-5.94-2726.18-5.94-207.1 0-542.74-37.71-612.78 293.96-17.24 81.62-5.14 2522.28-5.14 2729.57 0 149.71-17.29 301.53 36.02 421.17 41.81 93.86 141.65 181.6 258.6 195.23 117.63 13.72 2494.65 3.81 2733.06 3.81 211.31 0 550.58 67.85 611.43-306.36zM2283 15697.42c0-55.34 14.09-49.97 68.44-49.97h2035.13c99.47 0 119.07-12.35 119.1 49.97.17 349.99 14.94 1946.34-4.14 2163.6-90.33 12.12-2081.51 14.28-2160.45 7.25l-54.43-9.8-3.65-2161.05zm-711.48-364.47v2855.03c0 69.91 4.4 117.05 26.31 168.93 8.53 20.22 61.02 102.87 79.97 120.25 69.65 63.85 159.79 104.6 288.89 104.6h2855.26c244.67 0 395.23-147.21 395.23-393.78v-2855.03c0-252.87-142.74-394.14-395.23-394.14H1966.69c-127.62 0-220.1 20.05-290.6 102.56-73.17 85.65-104.57 145.12-104.57 291.58zm715.59 4703.74c65.8-25.44 1405.61-12.05 1664.09-12.05 71.08 0 519.99-18.67 547.39 16.49 10.58 25.11 16.98 2142.77-1.02 2196.54-19.89 10.13-2113.68 27.57-2214.21 3.13l3.75-2204.11zm-715.59-330.07v2865.15c0 244.46 159.25 388.96 395.17 388.96h2855.26c248.89 0 395.23-142.07 395.23-399.08v-2844.91c0-138.93-31.29-216.99-103.8-291.79-77.98-80.45-156.24-105.18-291.43-105.18H1961.63c-243.83 0-390.11 142.56-390.11 386.85zM17153.58 2290.36c191.72-52.47 499.79 47.25 599.4 143.13 97.37 93.69 209.93 185.65 246.53 334.72 12 48.9 31.73 83.69 42.15 136.76 83.47 425.06-209.71 801.8-622.24 885.93-222.67 45.4-457.69-41.33-587.52-152.18-58.77-50.19-150.62-139.37-186.24-198.6-96.92-161.16-148.12-420.58-81.37-603.66 112.39-308.28 264.3-457.16 589.29-546.1zm1028.78 2154.18c126.48 138.38 465.69 468.56 603.88 600.46 72.8 69.49 172.44 162.2 321.99 153.15 256.01-15.48 457.65-320.79 285.97-558.06-66.22-91.5-146.45-166.02-233.94-252.9l-480.79-480.46c-41.56-43.1-112.15-73.07-85.2-152.25 13.69-40.22 60.84-108.29 79.16-154.05 139.83-349.24 156.73-829.45-31.93-1194.75-59.76-115.69-111.02-209.95-180.19-296.3l-243.77-241.24c-99.13-70.11-179.53-123.66-296.11-179.9-523.02-252.35-1243.33-138.89-1636.35 262.4-223.69 228.4-259.83 279.14-387.31 573.37-91.43 211.02-119.01 646.19-58.67 843.68 4.86 15.93 26.53 66.75 31.77 84.33l99.59 266.51c96.08 222.63 368.92 489.73 580.25 613.91 95.32 56.01 228.03 112.37 343.32 143.04 108.74 28.93 293.06 61 412.08 59.56 186.95-2.26 419.87-69.33 591-134.51 60.86-23.19 103.64-63.19 158.28-76.75l126.97 120.76zM6223.12 21751.71c-102.29 56.03-201.71 89.28-250.75 239.94-49.53 152.17-4.5 282.77 79.97 372.14 94.51 99.99 193.36 113.79 369.37 113.73h5892.78c301.99 0 621.41 70.1 728.19-253.03 54.16-163.91-11.53-336.26-148.26-416.15-127.6-74.56-103.06-61.46-296.43-61.4-909.95.25-6355-6.12-6374.87 4.77zm25.64-4377.48c-258.97 51.75-403.93 358.2-207.6 597.24 83.74 101.94 182.39 118.69 350.17 118.51l5882.66-.02c144.65 0 358.67 12.52 495.25-3.67 267.98-31.77 381.23-389.12 209.43-593.3-99.61-118.37-204.2-124.42-360.43-124.32l-5882.65.01c-116.46 0-392.82-13.24-486.83 5.55zm-293.1-5422.77c19.1 120.65 114.05 238.73 216.07 277.28 116.38 43.99 321.68 24.2 462.61 24.2h5872.52c190.08 0 284.33 25.69 413.43-70.68 226.36-168.98 173.45-517.28-69.85-623.99-107.27-47.05-329.54-25.98-465.07-25.98H6512.84c-174.1 0-300.85-20.24-421.02 69.35-89.4 66.66-159.77 200.74-136.16 349.82z"/><path class="fil2" d="M841.63 5918.66c9.97-843.93-.07-1696.87-.07-2542.43 0-264.85-14.07-2490.22 8.38-2542.97l13478.44-1.93 4.67 5082.11-13491.42 5.22zm0 0c2.12 1.82 5.84.96 7.22 4.28l13288.15 9.95c260.8 0 216.61 64.86 216.61-319.21l-.04-4150.93c0-158.83 18.74-510.35-5.55-646.82L836.6 812.73c-23.37 85.54-8.41 3564.33-8.41 3829.02l9.46 1269.65c.74 1.84 2.28 5.08 3.98 7.26zm14238.7-5094.81l5104.97 1.94-2.64 5095.65-5106.6-3.65 4.27-5093.94zm-5-11.79c-29.97 26.03-15.21 842.73-15.21 954.42V5623.8c0 385.15-25.23 320.81 160.26 320.72h4819.52c158.78.1 162.91 18.59 162.71-87.46l-.76-4819.53c0-303.59 103.35-237.39-647.95-237.39h-4181.65c-40.45 0-270.73-17.13-296.92 11.92zM4477.04 20052c16.92 30.18 14.31 1747.55 9.4 2105.5-.4 29.59 1.35 47.37-10.11 58.68-27.98 27.61-1731.48 9.12-2033.77 9.71-178.23.34-139.6 47.12-139.62-271.7l-.81-1843.59c-.92-96.19 30.05-68.43 130.3-68.08 317.3 1.1 2002.92-14.45 2044.61 9.48zm-2193.68 2188.8c100.53 24.44 2194.32 7 2214.21-3.13 18-53.77 11.6-2171.43 1.02-2196.54-27.4-35.16-476.31-16.49-547.39-16.49-258.48 0-1598.29-13.39-1664.09 12.05l-3.75 2204.11zm57.95-6571.03h2106.02c50.11 0 30.09 142.52 30.09 240.25v1792c.08 48.29 5.1 82.65-6.08 125.93-.48 1.83-1.48 5.16-2.67 7.55l-2148.74 1.49c-5.92-13.6-3.27-1.78-6.9-25.14-1.65-10.59-1.98-17.44-2.37-28.17l.53-2005.36c-.41-46.33-14.87-108.55 30.12-108.55zm-37.39 2173.99c50.05 13.02 2129.21 13.24 2180.85 0 25.15-74.03 9.28-940.17 9.28-1093.42 0-66.12 17.23-1024.22-12.85-1092.49l-2173.68 4.33-12.86 136.48c.99 359.7-13.03 1979.13 9.26 2045.1z"/><path class="fil2" d="M2303.92 17843.76c-22.29-65.97-8.27-1685.4-9.26-2045.1l12.86-136.48 2173.68-4.33c30.08 68.27 12.85 1026.37 12.85 1092.49 0 153.25 15.87 1019.39-9.28 1093.42-51.64 13.24-2130.8 13.02-2180.85 0zM2283 15697.42l3.65 2161.05 54.43 9.8c78.94 7.03 2070.12 4.87 2160.45-7.25 19.08-217.26 4.31-1813.61 4.14-2163.6-.03-62.32-19.63-49.97-119.1-49.97H2351.44c-54.35 0-68.44-5.37-68.44 49.97zm2187.93-3683.13c36.37-10.15 16.93 9.8 29.38-22.34.84-248.93 20.4-2090.67-8.3-2169.82-107.44-17.07-1729.12-3.9-2049.45-4.76l-117.45 5.99c-2.34.84-5.6 3.01-7.44 3.79-1.81.77-5.02 2.41-7.14 4.17l2164.83 1.29c17.43 110.13 10.46 2128.08-4.43 2181.68z"/></g></g></svg>