<?xml version="1.0" encoding="UTF-8"?>
<!DOCTYPE svg PUBLIC "-//W3C//DTD SVG 1.1//EN" "http://www.w3.org/Graphics/SVG/1.1/DTD/svg11.dtd">
<!-- Creator: CorelDRAW 2019 (64-Bit) -->
<svg xmlns="http://www.w3.org/2000/svg" xml:space="preserve" width="51mm" height="41mm" version="1.1" style="shape-rendering:geometricPrecision; text-rendering:geometricPrecision; image-rendering:optimizeQuality; fill-rule:evenodd; clip-rule:evenodd"
viewBox="0 0 5100 4100"
 xmlns:xlink="http://www.w3.org/1999/xlink"
 xmlns:xodm="http://www.corel.com/coreldraw/odm/2003"
 aria-hidden="true"
 focusable="false"
 data-prefix="fas"
 data-icon="angle-double-right"
 role="img">
 <defs>
  <style type="text/css">
   <![CDATA[
    .fil0 {fill:#FF1E71}
   ]]>
  </style>
 </defs>
 <g id="Слой_x0020_1">
  <metadata id="CorelCorpID_0Corel-Layer"/>
  <path class="fil0" d="M2551 2263l-1699 1699c-118,118 -307,118 -425,0l-283 -283c-118,-118 -118,-307 0,-425l1203 -1203 -1203 -1203c-118,-118 -118,-307 0,-425l283 -283c118,-118 307,-118 425,0l1699 1699c118,118 118,307 0,425l0 0 0 0 0 -1zm2407 -425l-1699 -1699c-118,-118 -307,-118 -425,0l-283 283c-118,118 -118,307 0,425l1203 1203 -1203 1203c-118,118 -118,307 0,425l283 283c118,118 307,118 425,0l1699 -1699c118,-118 118,-307 0,-425l0 0 0 1z"/>
 </g>
</svg>
