<svg width="32.8mm" height="14.5mm" viewBox="0 0 3280 1450" shape-rendering="geometricPrecision" text-rendering="geometricPrecision" image-rendering="optimizeQuality" fill-rule="evenodd" clip-rule="evenodd"><defs><style>.fil2{fill:#000;fill-rule:nonzero}</style></defs><g id="Слой_x0020_1"><g id="_1823391391152"><path d="M717.01 23.86c389.78 0 705.76 315.98 705.76 705.76s-315.98 705.75-705.76 705.75S11.25 1119.4 11.25 729.62 327.23 23.86 717.01 23.86z"/><path d="M270.1 121.21h893.82c12.16 0 22.12 9.95 22.12 22.12V1315.9c0 12.17-9.96 22.13-22.12 22.13H270.1c-12.17 0-22.12-9.96-22.12-22.13V143.33c0-12.17 9.95-22.12 22.12-22.12z" fill="#fefefe"/><path class="fil2" d="M270.1 100.3h893.82c11.85 0 22.61 4.84 30.4 12.62 7.79 7.79 12.62 18.56 12.62 30.41V1315.9c0 11.86-4.83 22.62-12.62 30.41-7.79 7.79-18.55 12.62-30.4 12.62H270.1c-11.85 0-22.61-4.83-30.4-12.62-7.79-7.79-12.62-18.55-12.62-30.41V143.33c0-11.86 4.83-22.62 12.62-30.41 7.79-7.78 18.55-12.62 30.4-12.62zm893.82 41.81H270.1c-.31 0-.61.14-.84.37-.23.23-.38.54-.38.85V1315.9c0 .32.15.62.38.85.23.23.53.37.84.37h893.82c.31 0 .61-.14.84-.37.23-.23.37-.53.37-.85V143.33c0-.31-.14-.62-.37-.85-.23-.23-.53-.37-.84-.37z"/><path class="fil2" d="M403.28 286.46l34.06 72.91 110.94-137.8c2.03-2.52 5.73-2.93 8.25-.89l21.97 17.64a5.877 5.877 0 01.9 8.26L434.19 426.94a5.865 5.865 0 01-8.25.9c-.81-.65-1.4-1.48-1.77-2.38l-57.22-122.48a5.863 5.863 0 012.83-7.79l.03-.01-.01-.01 25.56-11.88a5.882 5.882 0 017.8 2.87l.12.3zm266.71-7.63c-11.55 0-20.91-9.36-20.91-20.9 0-11.55 9.36-20.91 20.91-20.91h424.78c11.54 0 20.9 9.36 20.9 20.91 0 11.54-9.36 20.9-20.9 20.9H669.99zm0 121.69c-11.55 0-20.91-9.36-20.91-20.91 0-11.54 9.36-20.9 20.91-20.9h424.78c11.54 0 20.9 9.36 20.9 20.9 0 11.55-9.36 20.91-20.9 20.91H669.99zm-401.11 143.8c-11.54 0-20.9-9.36-20.9-20.9 0-11.55 9.36-20.91 20.9-20.91h896.25c11.55 0 20.91 9.36 20.91 20.91 0 11.54-9.36 20.9-20.91 20.9H268.88zM316 666.01c-11.54 0-20.9-9.36-20.9-20.9 0-11.55 9.36-20.91 20.9-20.91h769.92c11.55 0 20.91 9.36 20.91 20.91 0 11.54-9.36 20.9-20.91 20.9H316zm559.18 78.43c74.52 0 141.98 30.21 190.82 79.04 48.83 48.84 79.04 116.3 79.04 190.82s-30.21 141.98-79.04 190.82c-48.84 48.83-116.3 79.04-190.82 79.04-74.51 0-141.98-30.21-190.82-79.04-48.83-48.84-79.04-116.3-79.04-190.82s30.21-141.98 79.04-190.82c48.84-48.83 116.31-79.04 190.82-79.04zm149.44 120.43c-38.25-38.24-91.08-61.9-149.44-61.9s-111.19 23.66-149.43 61.9c-38.24 38.24-61.89 91.07-61.89 149.43 0 58.36 23.65 111.19 61.89 149.43 38.24 38.24 91.07 61.89 149.43 61.89 58.36 0 111.19-23.65 149.44-61.89 38.24-38.24 61.89-91.07 61.89-149.43 0-58.36-23.65-111.19-61.89-149.43zm-706.78-76.76c-12.56 0-22.74-9.36-22.74-20.91 0-11.54 10.18-20.9 22.74-20.9h264.74c12.56 0 22.74 9.36 22.74 20.9 0 11.55-10.18 20.91-22.74 20.91H317.84zM316 907.17c-11.54 0-20.9-9.36-20.9-20.91 0-11.54 9.36-20.9 20.9-20.9h243.37c11.54 0 20.9 9.36 20.9 20.9 0 11.55-9.36 20.91-20.9 20.91H316zm0 117.25c-11.54 0-20.9-9.36-20.9-20.9 0-11.55 9.36-20.91 20.9-20.91h243.37c11.54 0 20.9 9.36 20.9 20.91 0 11.54-9.36 20.9-20.9 20.9H316zm0 126.11c-11.54 0-20.9-9.36-20.9-20.9 0-11.55 9.36-20.91 20.9-20.91h243.37c11.54 0 20.9 9.36 20.9 20.91 0 11.54-9.36 20.9-20.9 20.9H316zm1.84 110.62c-12.56 0-22.74-9.36-22.74-20.9 0-11.55 10.18-20.91 22.74-20.91h264.74c12.56 0 22.74 9.36 22.74 20.91 0 11.54-10.18 20.9-22.74 20.9H317.84z"/></g><path class="fil2" d="M2108.37 14.56c90.92 0 167.94 31.56 231.05 94.67 63.11 63.11 94.66 140.12 94.66 231.05 0 90.92-31.55 167.94-94.66 231.05-63.11 63.11-140.13 94.66-231.05 94.66-83.15 0-154.78-27.07-214.9-81.2-60.12-54.14-94.96-122.18-104.53-204.13h-99.6v273.67h-103.19V26.23h103.19v255.73h102.29c13.16-77.17 49.2-141.03 108.12-191.57 58.92-50.55 128.46-75.83 208.62-75.83zM1950 501.34c42.77 42.77 95.56 64.16 158.37 64.16s115.6-21.39 158.37-64.16c42.77-42.77 64.16-96.46 64.16-161.06 0-64.61-21.39-118.29-64.16-161.06-42.77-42.77-95.56-64.16-158.37-64.16-63.41 0-116.35 21.24-158.82 63.71s-63.71 96.31-63.71 161.51c0 64.6 21.39 118.29 64.16 161.06zm825.95-307.32c61.61 0 114.25 22.88 157.92 68.64 43.67 45.77 65.5 101.55 65.5 167.35 0 66.4-21.83 122.33-65.5 167.79-43.67 45.46-96.31 68.19-157.92 68.19-68.2 0-120.54-25.12-157.03-75.37v243.16h-96.9V205.69h96.9v64.6c36.49-50.85 88.83-76.27 157.03-76.27zM2659.3 532.75c26.92 27.21 60.72 40.82 101.39 40.82 40.68 0 74.48-13.61 101.4-40.82 26.92-27.22 40.38-61.47 40.38-102.74 0-41.28-13.46-75.52-40.38-102.74s-60.72-40.83-101.4-40.83c-40.67 0-74.47 13.61-101.39 40.83s-40.38 61.46-40.38 102.74c0 41.27 13.46 75.52 40.38 102.74zm-471.97 256.11v628.1h-103.19V969.21l-191.12 315.85h-12.56l-191.12-316.74v448.64h-103.19v-628.1h111.26l189.33 314.05 190.22-314.05h110.37zm314.95 332c47.85 0 87.03 13.6 117.54 40.82 30.51 27.22 45.76 62.96 45.76 107.23 0 43.66-15.25 79.26-45.76 106.77-30.51 27.52-69.69 41.28-117.54 41.28h-195.61V968.32h96.91v152.54h98.7zm217.14-152.54h96.91v448.64h-96.91V968.32zm-216.25 361.6c19.15 0 35.15-5.68 48.01-17.05 12.86-11.36 19.29-26.02 19.29-43.96 0-18.55-6.43-33.35-19.29-44.42s-28.86-16.6-48.01-16.6h-99.59v122.03h99.59zm768.08-361.6v93.31h-146.26v355.33h-96.9v-355.33h-147.16v-93.31h390.32z"/><path d="M2024.45 275.88l31.73 67.93 130.06-161.55c4.99-6.21 12.05-9.81 19.41-10.61 7.3-.79 14.93 1.22 21.14 6.21l29.9 24.02c6.21 5 9.81 12.05 10.61 19.41a28.68 28.68 0 01-6.21 21.14L2110.3 429.74l-46.89 58.24c-.47.59-.96 1.15-1.46 1.68l.01.01-.36.35a28.78 28.78 0 01-17.58 8.55c-7.3.79-14.93-1.21-21.14-6.21l-.01-.01c-.59-.47-1.15-.96-1.69-1.47l-.01.01-.43-.43a30.72 30.72 0 01-2.95-3.4 28.887 28.887 0 01-3.56-6.32l-77.44-165.77c-3.38-7.22-3.52-15.12-1.01-22.02a28.703 28.703 0 0114.17-15.92l.86-.42-.02-.04 34.79-16.17c7.25-3.34 15.14-3.44 22.04-.89 6.95 2.56 12.92 7.77 16.25 15.01.17.37.33.73.47 1.1l.11.26z" fill="#f3b840" fill-rule="nonzero"/></g></svg>