<svg xmlns="http://www.w3.org/2000/svg" width="70" height="45" shape-rendering="geometricPrecision" text-rendering="geometricPrecision" image-rendering="optimizeQuality" fill-rule="evenodd" clip-rule="evenodd"><defs><style>.fil1{fill:#000}.fil0,.fil2{fill:#000;fill-rule:nonzero}</style></defs><g id="Слой_x0020_1"><g id="_2162027632112"><path class="fil0" d="M48.47 15.62c1.62 0 2.77-.02 3.46-.06 0 .6-.07 1.06-.21 1.35-.62.15-1.1.42-1.43.82-.34.39-.79 1.21-1.37 2.45l-5.08 10.99c-.87 1.88-1.62 3.3-2.24 4.24-.62.94-1.22 1.58-1.78 1.92-.57.33-1.23.5-1.99.5-1.03 0-1.9-.24-2.59-.72-.07-.25-.1-.58-.1-.98 0-.46.04-.9.14-1.32.78.13 1.52.19 2.21.19 1.47 0 2.63-.62 3.49-1.85.39-.53.92-1.5 1.59-2.92a843.69 843.69 0 00-4.7-9.46c-.56-1.04-1.01-1.83-1.35-2.35-.35-.53-.67-.89-.97-1.09-.3-.2-.65-.34-1.07-.42-.14-.38-.21-.83-.21-1.35 1.75.04 3.05.06 3.91.06 1.17 0 2.7-.02 4.59-.06 0 .54-.08.99-.24 1.35-.78.1-1.35.27-1.69.49-.35.22-.52.52-.52.92 0 .44.24 1.12.73 2.04.78 1.45 1.82 3.61 3.1 6.47l.32-.72 2.38-5.46c.39-.9.59-1.6.59-2.08 0-.5-.18-.87-.52-1.11-.35-.24-.89-.43-1.62-.55a3.56 3.56 0 01-.25-1.35c.72.04 1.86.06 3.42.06z"/><path id="1" class="fil0" d="M69.27 28.75c.12.27.18.71.18 1.32-.95-.04-2.16-.06-3.63-.06-1.75 0-3.08.02-3.97.06 0-.63.04-1.07.13-1.32 1.02-.04 1.52-.27 1.52-.69 0-.27-.2-.69-.62-1.26l-1.97-2.67-1.45 1.92c-.6.82-.9 1.44-.9 1.88 0 .55.41.82 1.21.82.14.31.21.75.21 1.32-.85-.04-2.06-.06-3.63-.06-.97 0-1.92.02-2.87.06 0-.61.07-1.05.21-1.32.65-.04 1.25-.25 1.8-.63.55-.37 1.24-1.1 2.07-2.16l2.42-3.05c-.9-1.15-1.77-2.25-2.63-3.3-.71-.86-1.23-1.47-1.57-1.82-.33-.36-.63-.6-.88-.72-.25-.13-.56-.21-.93-.26-.16-.31-.24-.73-.24-1.25 1.33.04 2.54.06 3.62.06 1.87 0 3.19-.02 3.98-.06 0 .27-.06.69-.18 1.25-.48.03-.84.08-1.08.18-.25.09-.37.25-.37.48 0 .32.31.87.94 1.67.3.33.81.97 1.55 1.91l1.38-1.91c.56-.75.83-1.31.83-1.67 0-.41-.4-.63-1.21-.66-.13-.29-.2-.71-.2-1.25 1.15.04 2.17.06 3.07.06.97 0 1.94-.02 2.9-.06 0 .37-.07.79-.2 1.25-.56.05-1.02.2-1.4.46-.38.26-.92.83-1.61 1.71l-2.56 3.27 3.11 3.92c.76 1.01 1.34 1.69 1.73 2.03.39.35.81.53 1.24.55z"/><path class="fil0" d="M4.9 1.73h24.11c.81 0 1.55.33 2.09.86.53.54.86 1.27.86 2.09v33.67c0 .81-.33 1.55-.86 2.08v.01c-.54.53-1.28.86-2.09.86H4.9c-.81 0-1.55-.33-2.09-.86v-.01a2.94 2.94 0 01-.86-2.08V4.68c0-.82.33-1.55.86-2.09.54-.53 1.28-.86 2.09-.86zm24.11 2.03H4.9c-.25 0-.48.11-.64.27-.17.17-.27.4-.27.65v33.67c0 .25.1.48.26.65h.01c.16.16.39.27.64.27h24.11c.25 0 .48-.11.65-.27.16-.17.27-.4.27-.65V4.68c0-.25-.11-.48-.27-.65a.94.94 0 00-.65-.27z"/><path class="fil0" d="M2.97 9.11h27.98v.68H2.97z"/><path class="fil1" d="M8.23 7.41h.09c.52 0 .95.43.95.95v2.49c0 .52-.43.95-.95.95h-.09c-.52 0-.94-.43-.94-.95V8.36c0-.52.42-.95.94-.95z"/><path class="fil2" d="M8.23 7.28h.09A1.073 1.073 0 019.4 8.36v2.49c0 .3-.12.57-.31.77-.2.19-.47.31-.77.31h-.09a1.073 1.073 0 01-1.08-1.08V8.36c0-.3.12-.57.32-.76.19-.2.46-.32.76-.32zm.09.27h-.09c-.22 0-.42.09-.57.24-.15.14-.24.35-.24.57v2.49c0 .23.09.43.24.57.15.15.35.24.57.24h.09c.23 0 .43-.09.57-.24.15-.14.24-.34.24-.57V8.36c0-.22-.09-.43-.24-.57a.768.768 0 00-.57-.24z"/><path class="fil1" d="M11.73 7.41h.09c.52 0 .95.43.95.95v2.49c0 .52-.43.95-.95.95h-.09c-.52 0-.94-.43-.94-.95V8.36c0-.52.42-.95.94-.95z"/><path class="fil2" d="M11.73 7.28h.09a1.073 1.073 0 011.08 1.08v2.49c0 .3-.12.57-.31.77-.2.19-.47.31-.77.31h-.09a1.073 1.073 0 01-1.08-1.08V8.36c0-.3.12-.57.32-.76.19-.2.46-.32.76-.32zm.09.27h-.09c-.22 0-.42.09-.57.24-.15.14-.24.35-.24.57v2.49c0 .23.09.43.24.57.15.15.35.24.57.24h.09c.23 0 .43-.09.57-.24.15-.14.24-.34.24-.57V8.36c0-.22-.09-.43-.24-.57a.768.768 0 00-.57-.24z"/><path class="fil1" d="M15.23 7.41h.09c.52 0 .95.43.95.95v2.49c0 .52-.43.95-.95.95h-.09c-.52 0-.94-.43-.94-.95V8.36c0-.52.42-.95.94-.95z"/><path class="fil2" d="M15.23 7.28h.09c.3 0 .57.12.76.32.2.19.32.46.32.76v2.49a1.073 1.073 0 01-1.08 1.08h-.09a1.073 1.073 0 01-1.08-1.08V8.36c0-.3.12-.57.32-.76.19-.2.46-.32.76-.32zm.09.27h-.09c-.22 0-.42.09-.57.24-.15.14-.24.35-.24.57v2.49c0 .23.09.43.24.57.15.15.35.24.57.24h.09c.22 0 .43-.09.57-.24.15-.14.24-.34.24-.57V8.36c0-.22-.09-.43-.24-.57a.785.785 0 00-.57-.24z"/><path class="fil1" d="M18.73 7.41h.09c.52 0 .95.43.95.95v2.49c0 .52-.43.95-.95.95h-.09c-.52 0-.94-.43-.94-.95V8.36c0-.52.42-.95.94-.95z"/><path class="fil2" d="M18.73 7.28h.09c.3 0 .57.12.76.32.2.19.32.46.32.76v2.49a1.073 1.073 0 01-1.08 1.08h-.09a1.073 1.073 0 01-1.08-1.08V8.36c0-.3.12-.57.32-.76.19-.2.46-.32.76-.32zm.09.27h-.09c-.22 0-.43.09-.57.24-.15.14-.24.35-.24.57v2.49c0 .23.09.43.24.57.14.15.35.24.57.24h.09c.22 0 .43-.09.57-.24.15-.14.24-.34.24-.57V8.36c0-.22-.09-.43-.24-.57a.785.785 0 00-.57-.24z"/><path class="fil1" d="M22.23 7.41h.09c.52 0 .94.43.94.95v2.49c0 .52-.42.95-.94.95h-.09c-.52 0-.95-.43-.95-.95V8.36c0-.52.43-.95.95-.95z"/><path class="fil2" d="M22.23 7.28h.09c.3 0 .57.12.76.32.2.19.32.46.32.76v2.49a1.073 1.073 0 01-1.08 1.08h-.09a1.073 1.073 0 01-1.08-1.08V8.36c0-.3.12-.57.32-.76.19-.2.46-.32.76-.32zm.09.27h-.09c-.22 0-.43.09-.57.24-.15.14-.24.35-.24.57v2.49c0 .23.09.43.24.57.14.15.35.24.57.24h.09c.22 0 .43-.09.57-.24.15-.14.24-.34.24-.57V8.36c0-.22-.09-.43-.24-.57a.785.785 0 00-.57-.24z"/><path class="fil1" d="M25.73 7.41h.09c.52 0 .94.43.94.95v2.49c0 .52-.42.95-.94.95h-.09c-.52 0-.95-.43-.95-.95V8.36c0-.52.43-.95.95-.95z"/><path class="fil2" d="M25.73 7.28h.09c.3 0 .57.12.76.32.2.19.32.46.32.76v2.49a1.073 1.073 0 01-1.08 1.08h-.09a1.073 1.073 0 01-1.08-1.08V8.36c0-.3.12-.57.32-.76.19-.2.46-.32.76-.32zm.09.27h-.09c-.22 0-.43.09-.57.24-.15.14-.24.35-.24.57v2.49c0 .23.09.43.24.57.14.15.35.24.57.24h.09c.22 0 .42-.09.57-.24.15-.14.24-.34.24-.57V8.36c0-.22-.09-.43-.24-.57a.802.802 0 00-.57-.24z"/><path class="fil0" d="M2.97 15.09h27.98v.68H2.97z"/><path class="fil1" d="M8.23 13.39h.09c.52 0 .95.42.95.94v2.5c0 .52-.43.94-.95.94h-.09c-.52 0-.94-.42-.94-.94v-2.5c0-.52.42-.94.94-.94z"/><path class="fil2" d="M8.23 13.25h.09c.3 0 .57.12.77.32.19.19.31.47.31.76v2.5c0 .29-.12.56-.31.76-.2.2-.47.32-.77.32h-.09c-.3 0-.57-.12-.76-.32-.2-.2-.32-.47-.32-.76v-2.5c0-.29.12-.57.32-.76.19-.2.46-.32.76-.32zm.09.27h-.09c-.22 0-.42.1-.57.24-.15.15-.24.35-.24.57v2.5c0 .22.09.42.24.57.15.14.35.24.57.24h.09c.23 0 .43-.1.57-.24.15-.15.24-.35.24-.57v-2.5c0-.22-.09-.42-.24-.57a.808.808 0 00-.57-.24z"/><path class="fil1" d="M11.73 13.39h.09c.52 0 .95.42.95.94v2.5c0 .52-.43.94-.95.94h-.09c-.52 0-.94-.42-.94-.94v-2.5c0-.52.42-.94.94-.94z"/><path class="fil2" d="M11.73 13.25h.09c.3 0 .57.12.77.32.19.19.31.47.31.76v2.5c0 .29-.12.56-.31.76-.2.2-.47.32-.77.32h-.09c-.3 0-.57-.12-.76-.32-.2-.2-.32-.47-.32-.76v-2.5c0-.29.12-.57.32-.76.19-.2.46-.32.76-.32zm.09.27h-.09c-.22 0-.42.1-.57.24-.15.15-.24.35-.24.57v2.5c0 .22.09.42.24.57.15.14.35.24.57.24h.09c.23 0 .43-.1.57-.24.15-.15.24-.35.24-.57v-2.5c0-.22-.09-.42-.24-.57a.808.808 0 00-.57-.24z"/><path class="fil0" d="M2.97 21.06h27.98v.68H2.97z"/><path class="fil1" d="M8.23 19.36h.09c.52 0 .95.43.95.95v2.49c0 .52-.43.95-.95.95h-.09c-.52 0-.94-.43-.94-.95v-2.49c0-.52.42-.95.94-.95z"/><path class="fil2" d="M8.23 19.23h.09a1.073 1.073 0 011.08 1.08v2.49a1.073 1.073 0 01-1.08 1.08h-.09c-.3 0-.57-.12-.76-.32-.2-.19-.32-.46-.32-.76v-2.49c0-.3.12-.57.32-.76.19-.2.46-.32.76-.32zm.09.27h-.09c-.22 0-.42.09-.57.24-.15.14-.24.34-.24.57v2.49c0 .22.09.43.24.57.15.15.35.24.57.24h.09c.23 0 .43-.09.57-.24.15-.14.24-.35.24-.57v-2.49c0-.23-.09-.43-.24-.57a.768.768 0 00-.57-.24z"/><path class="fil1" d="M11.73 19.36h.09c.52 0 .95.43.95.95v2.49c0 .52-.43.95-.95.95h-.09c-.52 0-.94-.43-.94-.95v-2.49c0-.52.42-.95.94-.95z"/><path class="fil2" d="M11.73 19.23h.09a1.073 1.073 0 011.08 1.08v2.49a1.073 1.073 0 01-1.08 1.08h-.09c-.3 0-.57-.12-.76-.32-.2-.19-.32-.46-.32-.76v-2.49c0-.3.12-.57.32-.76.19-.2.46-.32.76-.32zm.09.27h-.09c-.22 0-.42.09-.57.24-.15.14-.24.34-.24.57v2.49c0 .22.09.43.24.57.15.15.35.24.57.24h.09c.23 0 .43-.09.57-.24.15-.14.24-.35.24-.57v-2.49c0-.23-.09-.43-.24-.57a.768.768 0 00-.57-.24z"/><path class="fil1" d="M15.23 19.36h.09c.52 0 .95.43.95.95v2.49c0 .52-.43.95-.95.95h-.09c-.52 0-.94-.43-.94-.95v-2.49c0-.52.42-.95.94-.95z"/><path class="fil2" d="M15.23 19.23h.09c.3 0 .57.12.76.32.2.19.32.46.32.76v2.49c0 .3-.12.57-.32.76-.19.2-.46.32-.76.32h-.09c-.3 0-.57-.12-.76-.32-.2-.19-.32-.46-.32-.76v-2.49c0-.3.12-.57.32-.76.19-.2.46-.32.76-.32zm.09.27h-.09c-.22 0-.42.09-.57.24-.15.14-.24.34-.24.57v2.49c0 .22.09.43.24.57.15.15.35.24.57.24h.09c.22 0 .43-.09.57-.24.15-.14.24-.35.24-.57v-2.49c0-.23-.09-.43-.24-.57a.785.785 0 00-.57-.24z"/><path class="fil1" d="M18.73 19.36h.09c.52 0 .95.43.95.95v2.49c0 .52-.43.95-.95.95h-.09c-.52 0-.94-.43-.94-.95v-2.49c0-.52.42-.95.94-.95z"/><path class="fil2" d="M18.73 19.23h.09c.3 0 .57.12.76.32.2.19.32.46.32.76v2.49c0 .3-.12.57-.32.76-.19.2-.46.32-.76.32h-.09c-.3 0-.57-.12-.76-.32-.2-.19-.32-.46-.32-.76v-2.49c0-.3.12-.57.32-.76.19-.2.46-.32.76-.32zm.09.27h-.09c-.22 0-.43.09-.57.24-.15.14-.24.34-.24.57v2.49c0 .22.09.43.24.57.14.15.35.24.57.24h.09c.22 0 .43-.09.57-.24.15-.14.24-.35.24-.57v-2.49c0-.23-.09-.43-.24-.57a.785.785 0 00-.57-.24z"/><path class="fil1" d="M22.23 19.36h.09c.52 0 .94.43.94.95v2.49c0 .52-.42.95-.94.95h-.09c-.52 0-.95-.43-.95-.95v-2.49c0-.52.43-.95.95-.95z"/><path class="fil2" d="M22.23 19.23h.09c.3 0 .57.12.76.32.2.19.32.46.32.76v2.49c0 .3-.12.57-.32.76-.19.2-.46.32-.76.32h-.09c-.3 0-.57-.12-.76-.32-.2-.19-.32-.46-.32-.76v-2.49c0-.3.12-.57.32-.76.19-.2.46-.32.76-.32zm.09.27h-.09c-.22 0-.43.09-.57.24-.15.14-.24.34-.24.57v2.49c0 .22.09.43.24.57.14.15.35.24.57.24h.09c.22 0 .43-.09.57-.24.15-.14.24-.35.24-.57v-2.49c0-.23-.09-.43-.24-.57a.785.785 0 00-.57-.24z"/><path class="fil1" d="M25.73 19.36h.09c.52 0 .94.43.94.95v2.49c0 .52-.42.95-.94.95h-.09c-.52 0-.95-.43-.95-.95v-2.49c0-.52.43-.95.95-.95z"/><path class="fil2" d="M25.73 19.23h.09c.3 0 .57.12.76.32.2.19.32.46.32.76v2.49c0 .3-.12.57-.32.76-.19.2-.46.32-.76.32h-.09c-.3 0-.57-.12-.76-.32-.2-.19-.32-.46-.32-.76v-2.49c0-.3.12-.57.32-.76.19-.2.46-.32.76-.32zm.09.27h-.09c-.22 0-.43.09-.57.24-.15.14-.24.34-.24.57v2.49c0 .22.09.43.24.57.14.15.35.24.57.24h.09c.22 0 .42-.09.57-.24.15-.14.24-.35.24-.57v-2.49c0-.23-.09-.43-.24-.57a.802.802 0 00-.57-.24z"/><path class="fil0" d="M2.97 27.04h27.98v.68H2.97z"/><path class="fil1" d="M8.23 25.34h.09c.52 0 .95.42.95.94v2.5c0 .52-.43.94-.95.94h-.09c-.52 0-.94-.42-.94-.94v-2.5c0-.52.42-.94.94-.94z"/><path class="fil2" d="M8.23 25.2h.09a1.073 1.073 0 011.08 1.08v2.5c0 .29-.12.56-.31.76-.2.19-.47.32-.77.32h-.09c-.3 0-.57-.13-.76-.32-.2-.2-.32-.47-.32-.76v-2.5c0-.3.12-.57.32-.76.19-.2.46-.32.76-.32zm.09.27h-.09c-.22 0-.42.1-.57.24-.15.15-.24.35-.24.57v2.5c0 .22.09.42.24.57.15.14.35.23.57.23h.09a.8.8 0 00.81-.8v-2.5c0-.22-.09-.42-.24-.57a.808.808 0 00-.57-.24z"/><path class="fil1" d="M11.73 25.34h.09c.52 0 .95.42.95.94v2.5c0 .52-.43.94-.95.94h-.09c-.52 0-.94-.42-.94-.94v-2.5c0-.52.42-.94.94-.94z"/><path class="fil2" d="M11.73 25.2h.09a1.073 1.073 0 011.08 1.08v2.5c0 .29-.12.56-.31.76-.2.19-.47.32-.77.32h-.09c-.3 0-.57-.13-.76-.32-.2-.2-.32-.47-.32-.76v-2.5c0-.3.12-.57.32-.76.19-.2.46-.32.76-.32zm.09.27h-.09c-.22 0-.42.1-.57.24-.15.15-.24.35-.24.57v2.5c0 .22.09.42.24.57.15.14.35.23.57.23h.09a.8.8 0 00.81-.8v-2.5c0-.22-.09-.42-.24-.57a.808.808 0 00-.57-.24z"/><path class="fil1" d="M22.23 25.34h.09c.52 0 .94.42.94.94v2.5c0 .52-.42.94-.94.94h-.09c-.52 0-.95-.42-.95-.94v-2.5c0-.52.43-.94.95-.94z"/><path class="fil2" d="M22.23 25.2h.09c.3 0 .57.12.76.32.2.19.32.46.32.76v2.5c0 .29-.12.56-.32.76-.19.19-.46.32-.76.32h-.09c-.3 0-.57-.13-.76-.32-.2-.2-.32-.47-.32-.76v-2.5c0-.3.12-.57.32-.76.19-.2.46-.32.76-.32zm.09.27h-.09c-.22 0-.43.1-.57.24-.15.15-.24.35-.24.57v2.5a.802.802 0 00.81.8h.09a.802.802 0 00.81-.8v-2.5c0-.22-.09-.42-.24-.57a.826.826 0 00-.57-.24z"/><path class="fil1" d="M25.73 25.34h.09c.52 0 .94.42.94.94v2.5c0 .52-.42.94-.94.94h-.09c-.52 0-.95-.42-.95-.94v-2.5c0-.52.43-.94.95-.94z"/><path class="fil2" d="M25.73 25.2h.09c.3 0 .57.12.76.32.2.19.32.46.32.76v2.5c0 .29-.12.56-.32.76-.19.19-.46.32-.76.32h-.09c-.3 0-.57-.13-.76-.32-.2-.2-.32-.47-.32-.76v-2.5c0-.3.12-.56.32-.76.19-.2.46-.32.76-.32zm.09.27h-.09c-.22 0-.43.1-.57.24-.15.15-.24.35-.24.57v2.5a.802.802 0 00.81.8h.09c.22 0 .42-.09.57-.23.15-.15.24-.35.24-.57v-2.5c0-.22-.09-.42-.24-.57a.845.845 0 00-.57-.24z"/><path class="fil0" d="M2.97 33.01h27.98v.68H2.97z"/><path class="fil1" d="M8.23 31.31h.09c.52 0 .95.43.95.95v2.49c0 .52-.43.94-.95.94h-.09c-.52 0-.94-.42-.94-.94v-2.49c0-.52.42-.95.94-.95z"/><path class="fil2" d="M8.23 31.18h.09c.3 0 .57.12.77.31.19.2.31.47.31.77v2.49a1.073 1.073 0 01-1.08 1.08h-.09c-.3 0-.57-.12-.76-.32-.2-.19-.32-.46-.32-.76v-2.49a1.073 1.073 0 011.08-1.08zm.09.27h-.09c-.22 0-.42.09-.57.24-.15.14-.24.34-.24.57v2.49c0 .22.09.42.24.57.15.15.35.24.57.24h.09c.23 0 .43-.09.57-.24.15-.15.24-.35.24-.57v-2.49c0-.23-.09-.43-.24-.57a.768.768 0 00-.57-.24z"/><path class="fil1" d="M11.73 31.31h.09c.52 0 .95.43.95.95v2.49c0 .52-.43.94-.95.94h-.09c-.52 0-.94-.42-.94-.94v-2.49c0-.52.42-.95.94-.95z"/><path class="fil2" d="M11.73 31.18h.09c.3 0 .57.12.77.31.19.2.31.47.31.77v2.49a1.073 1.073 0 01-1.08 1.08h-.09c-.3 0-.57-.12-.76-.32-.2-.19-.32-.46-.32-.76v-2.49a1.073 1.073 0 011.08-1.08zm.09.27h-.09c-.22 0-.42.09-.57.24-.15.14-.24.34-.24.57v2.49c0 .22.09.42.24.57.15.15.35.24.57.24h.09c.23 0 .43-.09.57-.24.15-.15.24-.35.24-.57v-2.49c0-.23-.09-.43-.24-.57a.768.768 0 00-.57-.24z"/><path class="fil1" d="M15.23 31.31h.09c.52 0 .95.43.95.95v2.49c0 .52-.43.94-.95.94h-.09c-.52 0-.94-.42-.94-.94v-2.49c0-.52.42-.95.94-.95z"/><path class="fil2" d="M15.23 31.18h.09a1.073 1.073 0 011.08 1.08v2.49c0 .3-.12.57-.32.76-.19.2-.46.32-.76.32h-.09c-.3 0-.57-.12-.76-.32-.2-.19-.32-.46-.32-.76v-2.49a1.073 1.073 0 011.08-1.08zm.09.27h-.09c-.22 0-.42.09-.57.24-.15.14-.24.34-.24.57v2.49c0 .22.09.42.24.57.15.15.35.24.57.24h.09c.22 0 .43-.09.57-.24.15-.15.24-.35.24-.57v-2.49c0-.23-.09-.43-.24-.57a.785.785 0 00-.57-.24z"/><path class="fil1" d="M18.73 31.31h.09c.52 0 .95.43.95.95v2.49c0 .52-.43.94-.95.94h-.09c-.52 0-.94-.42-.94-.94v-2.49c0-.52.42-.95.94-.95z"/><path class="fil2" d="M18.73 31.18h.09a1.073 1.073 0 011.08 1.08v2.49c0 .3-.12.57-.32.76-.19.2-.46.32-.76.32h-.09c-.3 0-.57-.12-.76-.32-.2-.19-.32-.46-.32-.76v-2.49a1.073 1.073 0 011.08-1.08zm.09.27h-.09c-.22 0-.43.09-.57.24-.15.14-.24.34-.24.57v2.49c0 .22.09.42.24.57.14.15.35.24.57.24h.09c.22 0 .43-.09.57-.24.15-.15.24-.35.24-.57v-2.49c0-.23-.09-.43-.24-.57a.785.785 0 00-.57-.24z"/><path class="fil1" d="M22.23 31.31h.09c.52 0 .94.43.94.95v2.49c0 .52-.42.94-.94.94h-.09c-.52 0-.95-.42-.95-.94v-2.49c0-.52.43-.95.95-.95z"/><path class="fil2" d="M22.23 31.18h.09a1.073 1.073 0 011.08 1.08v2.49c0 .3-.12.57-.32.76-.19.2-.46.32-.76.32h-.09c-.3 0-.57-.12-.76-.32-.2-.19-.32-.46-.32-.76v-2.49a1.073 1.073 0 011.08-1.08zm.09.27h-.09c-.22 0-.43.09-.57.24-.15.14-.24.34-.24.57v2.49c0 .22.09.42.24.57.14.15.35.24.57.24h.09c.22 0 .43-.09.57-.24.15-.15.24-.35.24-.57v-2.49c0-.23-.09-.43-.24-.57a.785.785 0 00-.57-.24z"/><path class="fil1" d="M25.73 31.31h.09c.52 0 .94.43.94.95v2.49c0 .52-.42.94-.94.94h-.09c-.52 0-.95-.42-.95-.94v-2.49c0-.52.43-.95.95-.95z"/><path class="fil2" d="M25.73 31.18h.09a1.073 1.073 0 011.08 1.08v2.49c0 .3-.12.57-.32.76-.19.2-.46.32-.76.32h-.09c-.3 0-.57-.12-.76-.32-.2-.19-.32-.46-.32-.76v-2.49a1.073 1.073 0 011.08-1.08zm.09.27h-.09c-.22 0-.43.09-.57.24-.15.14-.24.34-.24.57v2.49c0 .22.09.42.24.57.14.15.35.24.57.24h.09c.22 0 .42-.09.57-.24.15-.15.24-.35.24-.57v-2.49c0-.23-.09-.43-.24-.57a.802.802 0 00-.57-.24zm8.71-22.53h1.26l1.28 3.94 1.41-3.94h1.17v4.93h-.81V9.88l-1.43 3.97h-.73l-1.35-4.16v4.16h-.8z"/><path id="1" class="fil2" d="M45.51 8.92h.82v4.93h-.82V8.92zm-4.57 0h.82v1.93h1.03c.68 0 1.19.13 1.56.4.37.27.55.63.55 1.1 0 .41-.16.77-.46 1.06-.3.29-.79.44-1.46.44h-2.04V8.92zm.82 4.24h.86c.51 0 .89-.06 1.11-.19.22-.13.33-.33.33-.61 0-.21-.08-.4-.25-.57-.16-.17-.52-.25-1.08-.25h-.97v1.62z"/><path id="2" class="fil2" d="M47.18 8.92h3.91v.69h-1.55v4.24h-.82V9.61h-1.54z"/><path id="3" class="fil2" d="M51.87 8.92h.82v3.76l2.28-3.76h.88v4.93h-.82v-3.74l-2.27 3.74h-.89z"/><path id="4" class="fil2" d="M57.11 8.92h.82v4.24h1.86V8.92h.82v4.24h1.86V8.92h.82v4.24h.54v2.08h-.68v-1.39h-6.04z"/><path id="5" class="fil2" d="M64.75 8.92h.81v3.76l2.28-3.76h.88v4.93h-.82v-3.74l-2.27 3.74h-.88z"/></g></g></svg>