<svg id="Слой_1" data-name="Слой 1" xmlns="http://www.w3.org/2000/svg" viewBox="0 0 466.26 463.51"><defs><clipPath id="clip-path"><path fill="none" d="M57.96 44.4h380.01v360.4H57.96z"/></clipPath><style>.cls-3{fill:none;stroke:#195147;stroke-miterlimit:10;stroke-width:5px}</style></defs><g clip-path="url(#clip-path)"><path class="cls-3" d="M320.13 219.03v-8.6l5.86-.07m-9.12 56.14l6.41 9.38m9.23 5.58l6.13 8.78m1.29-14.51l10.84 15.39m-146.6-112.23l-32.24 53.16-.12 28.83-7.22-.03-18.74 29.83h71.09l62.11 66.27v-32.22l-12.31-12.14"/><path class="cls-3" d="M236.55 156.65l96.5 1.2 8.09.03 15.51 15.8-27.99-.12-70.76-.28-12.42 21.04-23.63 39.98-.08 29.13 44.97 49.16 22.05-21.95"/><path class="cls-3" d="M258.43 122.47l-110.99-.02 89.09-40.42 93.96 75.77m-108.58 20.18l14.64-21.33-14.64-18.25h-99.98l-20.87 18.12 20.88 21.46h99.97zm-21.11-41.27l-4.85-14.07m49.76 70.19l-.18 45.61 43.26 52.2 76.41.24-29.14-36.91-.01-9.62h-15.92l.06 8.94 6.03 8.47M277.4 301.6l-43.92-51.63h-11.57"/><path class="cls-3" d="M320.19 253.29l-12.67-.26v-13.1l12.61-7.03h21.37v-9.99l-5.3-3.92-7.42-23.32.1-23.59m-39.28.28l-16.54 23.09-.14 34.95 26.03 37.32"/><path class="cls-3" d="M336.2 218.99l-16.07.04-25.86 14.94.16 27.09m33.5-67.9l-21.48-.09-3.22 2.59-30.17-.21"/><ellipse class="cls-3" cx="312.69" cy="198.39" rx="5.25" ry="5.3"/><path class="cls-3" d="M154.05 138.4l11.18 18.98m7.06 20.6l12.81-21.33m-51.42 21.33L145 158.04m-22.69-19.77l9.67 18.38m-30.92-.13l133.49.13"/></g></svg>