<svg xmlns="http://www.w3.org/2000/svg" id="svg10" height="566.929" width="1700.787" version="1.1"><path id="path2" d="M38.086 289.791l190.493 190.682 167.226-167.395c6.223-6.243 9.653-14.548 9.653-23.366.013-8.819-3.416-17.12-9.653-23.385l-.734-.717c-6.218-6.225-14.515-9.659-23.323-9.659-8.814 0-17.123 3.434-23.36 9.677l-72.327 72.41c-12.68 12.708-29.542 19.685-47.483 19.685-17.94 0-34.81-6.977-47.487-19.685l-.716-.717c-26.179-26.207-26.179-68.852 0-95.06l48.11-48.167c12.717-12.747 19.704-29.663 19.704-47.645 0-17.902-6.926-34.733-19.527-47.42z" fill="#be0b1a" fill-rule="evenodd"/><path id="path4" d="M562.303 289.712L371.81 99.017 204.592 266.42c-12.858 12.885-12.858 33.858 0 46.738l.716.717c6.227 6.225 14.528 9.663 23.337 9.663 8.822 0 17.114-3.438 23.35-9.663l72.327-72.41c12.69-12.69 29.556-19.717 47.488-19.717 17.931 0 34.784 7.027 47.478 19.717l.716.717c26.197 26.207 26.197 68.852 0 95.06l-48.102 48.167c-12.707 12.725-19.708 29.645-19.708 47.627 0 17.902 6.94 34.751 19.536 47.437z" fill="#565757" fill-rule="evenodd"/><path id="path6" d="M1432.995 166.382c16.826 0 29.361 11.673 29.361 29.663 0 17.991-12.535 29.65-29.361 29.65h-53.37v-59.313zm-600.805-28.3v130.09l103.364-130.09h27.19v173.753h-29.997V183.869L831.081 311.835h-28.876V138.082zm779.072 129.077h-90.652l-18.82 44.676h-32.353l75.996-173.753h41.18l75.827 173.753h-32.371zm-79.58-26.305h68.513l-31.36-74.472h-5.816zm-924.195-15.871c0-54.464 42.069-89.865 95.13-89.865 35.146 0 61.06 12.473 82.563 37.074l-20.239 20.336c-16.389-17.402-35.129-29.123-62.325-29.123-36.19 0-63.133 24.065-63.133 61.578 0 37.503 26.943 61.591 63.133 61.591 27.196 0 45.936-11.72 62.325-29.14l20.239 20.34c-21.503 24.597-47.417 37.083-82.564 37.083-53.06 0-95.129-35.42-95.129-89.874zm825.525 29.03c34.224 0 61.357-22.866 61.357-57.967 0-35.11-27.133-57.964-61.357-57.964h-83.39v173.753h30.003v-57.822zm-141.016 13.146h-90.657l-18.82 44.676h-32.353l75.982-173.753h41.194l75.827 173.753h-32.37zm-79.602-26.305h68.53l-31.36-74.472h-5.811zm-98.714 70.981v-73.224h-100.54v73.224h-30.002V138.082h30.002v72.224h100.54v-72.224h29.997v173.753z" fill="#be0b1a" fill-rule="evenodd"/><path id="path8" d="M640.963 426.775h48.681l-23.514-54.994h-.937zm271.448 14.677v-85.45h73.269v14.969h-57.225v19.5h45.64l.018 14.658h-45.658v21.646h57.225v14.677zm126.162-69.671h-.924l-30.7 69.67h-17.543l37.626-85.449h22.267l36.58 85.45h-17.512zm-171.236 18.69c6.67 0 12.676-2.545 12.676-9.744 0-7.207-5.693-9.756-11.757-9.756h-31.403v19.5zm2.882 36.304c7.89 0 13.49-3.013 13.49-10.818s-5.57-10.828-13.49-10.828h-33.366v21.646zm-2.882-70.773c16.853 0 28.69 8.712 28.69 23.26 0 7.695-5.49 14.47-10.993 17.204 8.495 3.243 14.7 11.004 14.7 19.49 0 17.129-10.82 25.496-30.824 25.496h-47.933v-85.45zm295.32 42.725c0-17.53-12.226-29.437-30.922-29.437-18.665 0-30.904 11.906-30.904 29.437 0 17.513 12.239 29.437 30.904 29.437 18.696 0 30.922-11.924 30.922-29.437zm16.026 0c0 26.274-19.523 44.397-46.948 44.397-27.395 0-46.917-18.123-46.917-44.397 0-26.27 19.522-44.393 46.917-44.393 27.425 0 46.948 18.124 46.948 44.393zm155.69 13.38h.938l32.711-56.105h15.063v85.45h-16.03v-56.835l-23.81 42.158h-16.699l-23.81-42.158v56.835h-16.044v-85.45h15.094zm229.99 29.345h-12.787v-36.323h-45.746v36.323h-16.03v-85.45h16.03v34.469h45.746v-34.469h16.031v85.45zm60.371 0h-12.782V370.97h-30.798v-14.969h77.635v14.969h-30.793v70.48zm-224.389 0v-85.45h73.286v14.969h-57.242v19.5h45.658v14.658h-45.658v21.646h57.242v14.677zm-130.913-85.45v85.45h-16.03V370.97h-46.949v70.48h-16.026c.03-28.486.03-56.976.03-85.449zm-538.997 85.45v-85.45h73.282v14.969h-57.238v19.5h45.653v14.658H746.48v21.646h57.238v14.677zm-11.182-14.677v14.677H611.138v-14.677h12.283l31.156-70.773h22.267l30.312 70.773z" fill="#565757" fill-rule="evenodd"/></svg>