<svg xmlns="http://www.w3.org/2000/svg" width="73" height="73" fill="none"><path fill-rule="evenodd" d="M.22 59.712c.438 9.37 4.818 12.785 11.242 12.712h6.79c4.307 0 33.142.363 43.508-.3 7.592-.436 10.293-4.14 10.73-11.114.292-4.504 1.022-39.445-.22-50.995-.51-4.867-4.16-7.918-8.614-9.226C61.028.072 57.743.436 54.97.3 48.253 0 41.172.218 34.675.363c-3.87.073-15.695-.654-23.287 0C3.14 1.09.365 5.448 0 14.456c-.073 2.688.365 5.884.292 9.662 0 9.88-.584 25.716-.073 35.595z" fill="#ba131a"/><path d="M25.915 14.746c.146.654-.292 1.308-.95 1.525a1.05 1.05 0 01-1.387-.872s-.365-2.034-2.2-2.107h-.146c-.95 0-1.825.508-2.555 1.38-.803 1.017-1.314 2.397-1.46 4.213v.58c0 1.235.146 2.325.438 3.196.292.8.657 1.526 1.24 1.96.146.145.292.29.438.363.657.436 1.387.58 2.117.508.73-.145 1.46-.508 2.117-1.235.22-.218.365-.436.584-.726.365-.58 1.168-.8 1.68-.436s.657 1.1.22 1.67a5.49 5.49 0 01-.803 1.017c-1.095 1.162-2.336 1.89-3.577 2.107a5.165 5.165 0 01-3.723-.8 5.144 5.144 0 01-.73-.58c-.803-.726-1.387-1.743-1.825-2.906a13.034 13.034 0 01-.584-3.923v-.726c.073-2.397.876-4.36 2.044-5.812 1.24-1.525 2.847-2.397 4.6-2.397h.292c3.43.29 4.16 3.923 4.16 3.995zm22.63 41.48c-.657 1.017-1.387 1.89-2.044 2.688-.73.8-1.533 1.453-2.263 2.034-.438.363-1.095.29-1.387-.145s-.146-1.1.292-1.453c.657-.508 1.387-1.1 2.044-1.816l1.168-1.38c-1.314-.29-2.482-1.235-2.336-3.487.292-5.085 5.986-3.705 6.716-3.487.438.073.73.436.73.944l-.365 10.17c0 .58-.51 1.1-1.022 1.1-.584.073-1.022-.363-.95-.944l.146-4.286c-.365 0-.51.073-.73.073zm.657-2.18l.073-3.05c-1.095-.145-3.285-.29-3.358 1.598-.146 2.034 2.117 1.743 3.285 1.453zm-16.06-3.196c0-.58.438-1.1.95-1.162a.886.886 0 011.022.872l.146 5.23 3.87-5.593c.365-.508.95-.654 1.387-.363.292.218.438.508.365.872l-.146 8.136c0 .58-.51 1.1-1.022 1.1-.584.073-1.022-.363-.95-.944l.146-4.94-3.723 5.376c-.146.29-.438.436-.803.51a.886.886 0 01-1.022-.872l-.22-8.21zm-8.76 3.56l3.65-.363-.146-3.414c0-.58.438-1.1.95-1.162.584-.073 1.022.29 1.022.872l.365 9.444c0 .58-.438 1.1-.95 1.162-.584.073-1.022-.29-1.022-.872l-.146-4.068-3.577.363.292 3.632c.073.58-.365 1.1-.95 1.162s-1.022-.29-1.095-.8l-.73-9.444c-.073-.58.365-1.1.95-1.162s1.022.29 1.095.8l.292 3.85zM65.19 39.518c-.584 0-.95-.436-.95-1.017a1.26 1.26 0 011.095-1.1h2.482c.584 0 .95.436.95 1.017a1.26 1.26 0 01-1.095 1.1H65.19zm-7.008 1.235l2.7.073-1.168-4.14-1.533 4.068zm3.285 2.18l-4.088-.073-.657 1.89c-.22.58-.803.872-1.314.726s-.803-.726-.584-1.235l4.015-10.97c.22-.58.803-.872 1.314-.726a.79.79 0 01.584.581l3.212 11.26c.146.508-.146 1.162-.73 1.308a.922.922 0 01-1.24-.58l-.51-2.18zm-13.578 0c0 .58-.51 1.1-1.022 1.1-.584 0-1.022-.436-.95-.944l.438-9.226c0-.58.51-1.1 1.022-1.1h.146l5.256.073c.51 0 .876.436.876.944l-.365 9.153c0 .58-.51 1.1-1.022 1.1-.584.073-1.022-.363-.95-.944l.22-8.21-3.285-.073-.365 8.136zm-13.797.944c-.146.58-.657.944-1.168.944-.51-.073-.876-.58-.803-1.1l1.97-10.097c.146-.58.657-.944 1.168-.944a1.05 1.05 0 01.803.654l1.898 5.52 1.97-5.376c.22-.58.803-.872 1.314-.726.365.073.584.436.657.8l1.752 9.952a1.13 1.13 0 01-.803 1.235c-.584.145-1.095-.145-1.168-.726l-1.168-6.465-1.68 4.577c-.073.29-.292.508-.584.654-.51.218-1.095 0-1.24-.508l-1.606-4.722-1.314 6.32zM25.04 34.94c-.365.145-.73.436-.95.8-.292.436-.51.944-.584 1.526-.22 1.1-.146 2.325.22 3.27.292.8.803 1.308 1.314 1.598.365.218.73.218 1.168.218.365-.073.803-.218 1.095-.51 1.46-1.162 1.46-3.85.876-5.376-.146-.508-.438-.872-.73-1.162-.657-.508-1.752-.654-2.41-.363zm-.584-1.89a4.66 4.66 0 013.139 0c1.168.436 1.97 1.38 2.41 2.615s.51 2.833.365 4.213v.218c-.22 1.453-1.022 2.615-1.97 3.414-.657.51-1.387.872-2.2.944-.803.145-1.533 0-2.263-.363-.876-.436-1.606-1.308-2.117-2.542-.51-1.453-.657-3.05-.365-4.504.146-.872.51-1.67.95-2.397.584-.726 1.24-1.307 2.044-1.598zm-2.993 11.696c.51.363.584 1.162.146 1.743s-1.168.726-1.68.363c-1.24-.944-2.7-2.252-4.015-3.632-.876-.944-1.752-1.96-2.482-3.05l-1.095 1.67.292 4.358c.073.654-.438 1.308-1.095 1.453s-1.24-.363-1.314-1.017l-.95-13.875c-.073-.654.438-1.308 1.095-1.453s1.24.363 1.314 1.017l.365 5.666 1.606-2.107c1.533-1.89 3.066-3.487 4.453-4.867.51-.51 1.24-.51 1.68 0s.365 1.235-.146 1.743a44.94 44.94 0 00-4.234 4.576c-.146.218-.292.363-.51.58a27.61 27.61 0 002.701 3.414c1.387 1.38 2.7 2.615 3.87 3.414zm32.193-22.01c-.51.872-1.387 1.89-2.336 2.833-1.022 1.017-2.2 1.96-3.212 2.47a.91.91 0 01-1.314-.436c-.22-.508.073-1.1.584-1.38.803-.436 1.752-1.162 2.628-2.034.51-.51 1.022-1.1 1.387-1.598-1.314-.363-2.2-1.235-2.41-2.978-.073-.508 0-1.1.146-1.598.22-.726.584-1.453 1.24-1.96s1.46-.872 2.555-1.017c.803-.073 1.752 0 2.92.3.438.073.73.436.73.944l-.365 10.75c0 .58-.51 1.1-1.022 1.1-.584.073-1.022-.363-.95-.944l.146-4.504c-.22 0-.438 0-.73.073zm.803-2.18l.146-3.414c-.657-.145-1.168-.145-1.68-.145-.584.073-1.022.218-1.314.436-.22.218-.438.508-.51.8 0 .363-.073.654 0 .944.073.872.51 1.235 1.168 1.38.584.218 1.387.145 2.2 0zm-12.63-2.47c-.584.218-1.022.654-1.314 1.235-.292.654-.51 1.453-.438 2.252 0 .51.073 1.1.292 1.526.22.654.657 1.162 1.022 1.38s.73.218 1.095.218c.365-.073.73-.218 1.095-.436.51-.363.95-1.017 1.095-1.743.073-.51.146-1.1.146-1.598 0-.726-.146-1.38-.438-1.89-.292-.58-.803-.872-1.387-.944a3.142 3.142 0 00-1.168 0zm-.51-1.89a4.27 4.27 0 011.387-.218c.365 0 .73 0 1.095.073 1.168.218 1.97.872 2.41 1.743.438.8.657 1.816.657 2.76 0 .726-.073 1.453-.22 2.107a5.195 5.195 0 01-1.97 3.124 4.603 4.603 0 01-1.022.58 3.856 3.856 0 01-2.555.218 3.57 3.57 0 01-.803-.291c-.803-.436-1.46-1.162-1.825-2.325a7.18 7.18 0 01-.365-2.179c0-1.1.22-2.252.73-3.27.51-1.1 1.314-1.89 2.482-2.325zM30.952 19.83c.584-.073 1.095-.145 1.533-.363a1.28 1.28 0 00.657-1.162c0-.145 0-.29-.073-.363-.292-.8-1.24-1.1-2.117-1.017v2.906zm0 2.034v3.777c.22 0 .438.073.584.073.876 0 1.533-.145 2.044-.436.438-.29.73-.654.73-1.162.073-1.308-.876-2.325-2.044-2.325-.438-.073-.95.073-1.314.073zm4.16-3.777c0 .872-.22 1.598-.657 2.18.292.145.51.363.73.58a4.513 4.513 0 011.168 2.688c.073 2.906-2.482 4.286-5.1 4.14a6.56 6.56 0 01-1.606-.218c-.365-.073-.657-.436-.657-.872l-.073-10.315c0-.508.292-.944.803-1.162a4.81 4.81 0 011.68-.29c.803 0 1.606.218 2.2.58.657.363 1.168.944 1.387 1.67.073.363.146.654.146 1.017z" fill="#fff"/></svg>