<svg width="1012" height="296pt" viewBox="0 0 759 296" xmlns="http://www.w3.org/2000/svg"><g id="#e72726ff" fill="#e72726"><path d="M95.2 27.38c.76-1.62 1.53-3.27 2.74-4.61 2.33.78 1.51 3.2 1 4.91-1.25-.09-2.5-.19-3.74-.3zm-7.95 20.9c3.52-4.18 4.51-9.69 7.57-14.15.43 8.01 3.78 15.5 4.39 23.45 1.58 4.7 3.12 9.45 3.7 14.39.52.54 1.55 1.61 2.07 2.14l-.51 2.35c2.89-2.17 6.44-3.33 9.05-5.9 5.22-3.85 10.91-7.2 15.36-11.99 1.67-1.62 3.11-3.47 4.89-4.97 1.16-.96 2.27.62 3.32 1.03-2.14 6.12-6.05 11.39-7.32 17.82-.62 1.9-1.63 3.63-2.75 5.28-.49 2.15-1.19 4.28-2.36 6.16-1.49 8.19-5.72 15.47-7.61 23.53-11.17.79-22.41-.29-33.62.07-5.65.86-11.37-1.05-16.99.59-2.29-8.96-6.39-17.34-9.31-26.1-.92-3.23-2.75-6.07-3.89-9.21-1.3-4.47-4.09-8.41-4.61-13.12-.4-.67-1.2-2-1.6-2.67 3.19 1.83 6.51 3.41 9.94 4.72 2.99 3.04 7 4.63 10.69 6.61 3.26 1.67 5.69 4.46 8.28 6.96 1.7-3.63 3.06-7.41 4.18-11.26l1.08-1.36c1.59-4.97 4.45-9.4 6.05-14.37m-10.1 33.78c-3.04-3.29-5.9-6.81-9.51-9.52-4.32-3.41-9.54-5.34-14.03-8.49.63 1.76 1.22 3.53 1.72 5.33 2.31 4.11 3.04 8.88 5.34 13.01 2.6 8.26 5.99 16.25 8.76 24.45 2.98-.38 6-.64 9-.39l.7-1.56.24 1.78c3.75-1.02 7.66-1.44 11.53-1.1 8.19.64 16.39-.46 24.58.2.54-1.84 1.19-3.64 1.68-5.49 1.34-7.23 5.01-13.76 6.23-21.02 1.94-3.06 2.52-6.71 3.62-10.11.35-.31 1.05-.94 1.4-1.25.17-1.85.59-3.68 1.04-5.48-7.88 7.4-17.14 13.02-25.99 19.16-2.34-6.09-4.35-12.31-6.69-18.4-1.16-5.87-3.21-11.56-3.77-17.54-5 12.26-10.89 24.15-15.85 36.42zm64.01-35.1c1.2-1.04 2.34-2.34 3.97-2.67 1.33.09 1.51 1.59 2.13 2.48-1.91 1.55-4.09 1.66-6.1.19z"/><path d="M65.93 46.61c1.09-.5 2.17-1 3.26-1.5 2.77 3.38 3.36 7.75 5.22 11.57.18 1.42.37 2.84.56 4.27-.44.45-1.31 1.35-1.75 1.79-.87-2.58-2.41-4.83-3.69-7.21-1.19-2.98-2.1-6.07-3.6-8.92zm-26.3 4.05c.44-.86.87-1.73 1.3-2.6 1.45.85 2.89 1.73 4.29 2.66-.83.96-1.65 1.93-2.49 2.88-.79-.21-1.58-.42-2.38-.64-.18-.57-.54-1.72-.72-2.3zm68.95 6.81c1.78-3.4 3.95-6.58 5.54-10.07 1.03.45 2.07.9 3.11 1.35-.89 2.55-1.4 5.32-3.13 7.48-1.21 1.56-2.49 3.12-2.96 5.09-1.55 1.83-3.15 4.02-5.86 3.74 1.47-2.37 2.35-5 3.3-7.59zM38.03 127.9c.05-1.9.16-5.34 2.98-4.68 5.18-1.37 3.18 7.22 7.95 6.8 4.12-.19 7.97-1.86 11.97-2.72 13.45-3.27 27.44-3.81 41.21-2.75 10.61 1.05 21.59 2.88 30.81 8.55 7.34 4.43 13.14 12.12 13.53 20.91.9 10.15-4.75 19.83-12.6 25.88-8.75 6.76-19.99 8.63-30.73 9.4 9.65 2.67 19.72 4.77 28.18 10.44 8.05 5.19 14.88 12.93 17.49 22.28 2.69 10.11.32 21.4-6.21 29.59-5.9 7.79-14.72 12.71-23.76 15.98-18.1 6.52-38.04 7.16-56.81 3.4-11.92-2.36-23.71-7.88-31.37-17.59-5.02-6.15-7.38-14.5-5.88-22.35 1.37-8.15 8.09-15.33 16.38-16.54 6.42-.91 13.75-.04 18.53 4.76 6.26 5.78 7.78 15.5 4.68 23.27-2.81 7.61-9.97 12.75-17.75 14.37 9.72 6.67 21.53 10.93 33.44 10.01 9.68-.67 19.26-6.25 23.56-15.13 4.92-9.8 5.56-21.26 4-31.95-1.43-9.38-6.11-19.07-14.86-23.6-7.45-3.59-15.98-1.74-23.93-2.3-.18-1.96-.15-3.92.2-5.85 7.79-.34 16.05.85 23.31-2.64 8.17-3.84 13.11-12.53 14.14-21.27.71-7.23.48-14.97-3.12-21.48-3.98-7.3-12.04-11.82-20.24-12.34-17.37-1.28-34.4 10.48-40.01 26.85-1.33 3.76-1.74 7.74-2.04 11.69-1.97.14-3.94.18-5.91.04.85-13.68 2.44-27.32 2.86-41.03z"/></g><g id="#000000ff"><path d="M550.22 75.23c3.57-3.03 8.62-2.55 12.81-1.29.54-.31 1.61-.94 2.15-1.26.07 2.94.13 5.87.13 8.81-1.83-3.07-3.76-7.82-8.16-7.24-2.9.04-3.69 3.28-3.84 5.6-.4 4.97-.7 10.18.89 14.98 1.01 2.96 4.96 3.14 7.21 1.54 2.57-1.43 3.08-4.57 4.22-7.03.85 2.98.65 6.09.39 9.13-.52-.33-1.54-1-2.05-1.33-3.83 1.52-8.35 2.07-12.06-.07-7.47-4.33-8.02-16.29-1.69-21.84zm20.45 21.42c3.51-8.15 5.98-16.76 10.25-24.55 3.47 7.37 6.22 15.05 9.39 22.55.48 1.82 2.16 2.62 3.74 3.38-4.65.06-9.47.96-13.98-.56.89-.15 2.68-.46 3.58-.62-.65-1.53-1.29-3.06-1.91-4.59-2.62-.01-5.23-.01-7.84-.01-.64 1.55-1.26 3.11-1.9 4.66.7.06 2.11.19 2.81.25l-.02 1.14c-2.48-.04-4.95-.16-7.4-.46.82-.3 2.46-.89 3.28-1.19m3.7-5.65c2.27 0 4.56-.01 6.84-.02-1.14-2.81-2.27-5.62-3.41-8.42-1.15 2.81-2.29 5.63-3.43 8.44zm26.59-17.75c7.45.15 14.94-.35 22.38.32-1.23.36-2.42.88-3.57 1.4-.05 7.27-.01 14.55-.03 21.83.89.19 2.66.58 3.55.77-4.35 1.17-8.87.6-13.29.63v-1.18c.69-.01 2.07-.04 2.76-.06-.03-7.48-.01-14.97 0-22.45-2.16-.01-4.31-.01-6.45-.02-.31 7.11-.26 14.43-2.67 21.21-1.07 3.71-7.38 3.82-8.25-.05-.83-2.3 1.28-4.91 3.73-4.44 2.35-.07 2.87 2.58 3.69 4.23 1.7-6.86 2.29-13.9 2.23-20.95-1.32.01-2.63.03-3.94.05-.04-.33-.11-.97-.14-1.29zm33.43.38c3.8-1.2 8.29-.96 11.64 1.37 7.16 4.76 6.98 17.1-.35 21.62-5.17 3.24-12.77 2.28-16.53-2.68-4.71-6.39-2.85-17.62 5.24-20.31m2.77.67c-2.67 1-2.95 4.24-3.19 6.67-.28 4.65-.61 9.57 1 14.03 1.42 3.53 7.54 3.04 8.26-.76 1.22-5.26.99-10.82.27-16.14-.25-3-3.54-5.12-6.34-3.8zm17.21-.74c4.62-.23 9.46-1.03 13.95.46-.9.16-2.68.48-3.57.64-.01 3.11-.01 6.23 0 9.34h9c.01-3.03-.02-6.05 0-9.07-1.14-.51-2.28-.99-3.44-1.41 4.66-.22 9.48-.9 14.04.44-.9.18-2.7.55-3.6.73-.01 7.37.01 14.75-.01 22.12.89.18 2.65.55 3.53.74-4.33 1.22-8.85.6-13.27.65v-1.18c.69-.01 2.07-.04 2.76-.06-.02-3.9-.02-7.81-.01-11.71-3.01 0-6.01 0-9 .01 0 3.82 0 7.64-.05 11.47.9.23 2.68.69 3.57.91-4.59 1.03-9.32.7-13.95.3 1.23-.41 2.47-.86 3.7-1.34-.04-7.23-.01-14.45-.03-21.67-1.2-.52-2.38-1-3.62-1.37zm32.11-.02c4.73-.36 9.56-.72 14.24.31-1.24.31-2.48.61-3.72.88-.01 2.9-.01 5.8 0 8.7 4.4-.01 9.91-.15 12.66 4.01 2.74 4.23-.84 9.96-5.6 10.4-5.84.63-11.86.82-17.67-.16.9-.23 2.71-.68 3.61-.91 0-7.28 0-14.56-.01-21.85-1.17-.5-2.32-.98-3.51-1.38m10.56 10.93c-.07 4.28-.06 8.55-.01 12.83 1.55-.49 3.49-.34 4.76-1.5 3.28-3.99 1.53-12.19-4.75-11.33z"/><path d="M710.48 73.53c4.69-.41 9.42-.48 14.11.07-1.23.35-2.43.82-3.58 1.33-.02 7.28-.01 14.55-.01 21.83.91.24 2.72.7 3.63.94-4.69.83-9.56.96-14.22-.06.9-.22 2.69-.64 3.59-.86 0-7.28 0-14.57-.01-21.86-1.17-.5-2.31-.99-3.51-1.39zm-67.99 37.2c3.19-.61 6.69-.38 9.55 1.3 7.69 4.28 8.02 16.94.8 21.81-5.01 3.47-12.66 2.75-16.62-2.01-5.52-6.68-2.92-19.26 6.27-21.1m.78 1.36c-2.02 1.22-2.21 3.82-2.49 5.92-.4 4.55-.52 9.25.62 13.72.58 2.49 3.42 3.74 5.75 2.93 2.9-.7 3.25-4.15 3.5-6.61.18-4.36.41-8.83-.57-13.11-.5-3.05-4.3-4.42-6.81-2.85zm-118.98-.61c4.25-1.36 8.77-.55 13.15-.72l.15 1.18c-.71.03-2.13.08-2.85.1.01 3.49 0 6.97.03 10.46 1.65-.25 3.35-.35 4.95-.91 1.9-2.57 1.1-6.06 2.02-8.98 1.53-3.38 8.01-2.89 7.84 1.34 0 3.93-5.13 4.14-7.17 1.58-.05 2.38-.52 4.71-1.28 6.96 1.87.64 4.4.9 5.18 3.08.91 2.73.94 5.74 2.36 8.31 1.21-1.36 2.4-2.74 3.62-4.1.21 4.84-5.47 7.9-9.47 5.37-3.4-2.84-2.13-7.88-3.38-11.71-1.57.03-3.13.06-4.69.1v10.77c.87.2 2.6.59 3.47.79-4.55.91-9.48 1.27-13.95-.14.87-.15 2.61-.44 3.48-.59.01-7.39-.03-14.78.02-22.17l-3.48-.72zm30.45-.01c3.96-1.23 8.14-.6 12.21-.75 3.69.02 8.04-.38 10.89 2.48 2.68 2.48 2.82 7.15.02 9.6-3.45 3.17-8.54 2.6-12.86 2.76v8.92c.73.01 2.18.03 2.9.03 0 .3-.01.9-.01 1.2-4.46.03-8.98.38-13.38-.56 1.24-.32 2.48-.62 3.74-.91.01-7.35-.01-14.71.01-22.06-.88-.18-2.64-.53-3.52-.71m10.27.39c-.01 4.19-.03 8.38.01 12.58 2.14-.41 5.08.23 6.44-1.92 1.61-2.68 1.66-6.3-.02-8.97-1.4-2.13-4.3-1.34-6.43-1.69zM584 134.29c3.46-8.22 6.24-16.73 10.15-24.76 3.77 7.29 6.3 15.13 9.6 22.63.55 1.77 2.34 2.52 3.7 3.58-4.65 0-9.31.16-13.95-.24 1.15-.47 2.3-.92 3.47-1.36-.63-1.47-1.24-2.93-1.85-4.4-2.62.01-5.23.01-7.83.02-.63 1.58-1.26 3.15-1.87 4.73h2.55c.01.34.04 1.02.05 1.36-2.38-.02-4.75-.18-7.06-.68l3.04-.88m3.79-5.79c2.28 0 4.56-.01 6.85-.02-1.14-2.8-2.29-5.6-3.43-8.39-1.17 2.79-2.29 5.6-3.42 8.41zm28.3 6.32c-9.15-4.42-8.75-20.42 1.02-23.84 3.8-1.78 7.92 1.42 11.6-.53.14 2.9.29 5.79.35 8.69-1.78-2.84-3.25-6.93-7.07-7.4-2.58-.61-4.61 1.77-4.8 4.15-.7 5.19-.85 10.6.42 15.71.56 2.63 3.54 3.97 5.97 2.97 3.5-1.06 4.49-4.92 6.28-7.66.15 3.06-.02 6.13-.26 9.18-.67-.47-1.33-.95-1.98-1.43-3.67 1.41-7.91 2.02-11.53.16zm45.38-14.35c-.24-3.24-.09-6.49.08-9.73 7.47.03 14.94-.03 22.42.04.05 3.24.15 6.48.04 9.71-1.7-3.62-2.79-8.72-7.72-8.86-.09 7.62-.01 15.24-.04 22.86.67 0 2.02-.01 2.69-.01.01.3.04.92.05 1.23-4.44-.07-9 .56-13.33-.66.9-.19 2.69-.56 3.59-.75-.02-7.57.04-15.14-.04-22.71-4.92.19-6.08 5.21-7.74 8.88zm24.86-9.48c4.73-.35 9.49-.41 14.23.03-1.21.44-2.4.9-3.58 1.39.03 2.84.01 5.68.02 8.52 3.88.1 8.34-.26 11.42 2.59 3.02 2.4 2.74 7.4-.11 9.82-2.81 2.48-6.81 2.36-10.32 2.44-3.84-.12-7.81.49-11.51-.78.88-.17 2.64-.49 3.52-.65v-22c-1.24-.43-2.46-.89-3.67-1.36m10.74 10.99c-.1 4.27-.11 8.55 0 12.82 1.49-.4 3.13-.46 4.5-1.27 3.59-3.87 1.86-12.42-4.5-11.55z"/><path d="M710.48 110.98c4.7-.28 9.48-.61 14.16.28-.91.25-2.73.74-3.64.99v22.09c.88.17 2.65.5 3.53.67-4.54 1.18-9.53 1.24-14.05-.03.88-.16 2.64-.47 3.52-.63 0-7.33-.01-14.65 0-21.98-1.2-.41-2.38-.88-3.52-1.39z"/></g><path d="M387.14 132.91c1.27-.78 2.82-.24 4.21-.29-.71 10.42-3.38 21.89-11.86 28.78-10.27 8.31-25.23 8.25-36.8 2.77-8.06-3.4-14.62-10.47-23.63-11.45-3.12-.52-5.63 1.91-6.7 4.59-3.22 7.45-2.62 15.78-2.58 23.71.38 6.4.68 12.92 2.59 19.09 2-.33 2.56-2.72 3.79-4.06 9.49-14.44 29.63-20.25 45.49-13.7 7.36 3.11 13.29 9.1 16.68 16.31 7.74 16.09 6.5 35.94-2.44 51.3-5.38 9.68-14.36 17.29-24.97 20.61-12.24 3.86-26.5 4.16-37.72-2.79-9.28-5.44-15.12-15.1-18.78-24.94-6.34-17.8-6.71-37.55-2.23-55.83 4.86-17.78 14.25-35.41 29.94-45.84 11.34-7.82 27.17-10.78 39.64-3.88 5.85 3.29 12.02 8.09 19.15 6.71 4.7-1.57 5.02-7.08 6.22-11.09m-52.81 54.63c-7.57 2.31-12.51 9.82-13.35 17.46-1.18 11.78-1.81 23.62-2.82 35.42-.41 5.42-1.07 11.13 1.02 16.31 1.79 4.67 5.81 8.7 10.87 9.55 5.18 1.02 10.47-1.44 13.97-5.19 3.96-4.08 5.76-9.73 6.26-15.29.97-12.27 1.83-24.55 2.82-36.82.4-4.98.31-10.33-2.37-14.72-3.14-5.61-10.17-8.76-16.4-6.72zm-151.93.89c13.45-13.18 37.5-14.26 51.01-.6.23-2.7.45-5.4.68-8.09 10.37.09 20.74-.14 31.11.13.02 2.39-.04 4.79-.22 7.17-1.67 21.31-3.21 42.62-4.89 63.92-.16 3.09-.53 6.71 1.84 9.14 2.05 2.45 6.05 2.37 8.23.13 2.47-2.12 2.58-5.6 3.69-8.44 1.24-1.15 2.92-.31 4.38-.25-.97 15.71-19.26 25.05-33.41 20.74-7.09-1.67-12.5-7.29-15.05-13.96-6.68 7.51-15.54 13.72-25.77 14.72-8.95 1.25-18.12-2.22-24.58-8.41-8.66-8.05-12.63-20.04-13.16-31.61-.62-16.11 4.43-33.13 16.14-44.59m31.05-2.81c-5.87 1.72-10.5 6.66-12.5 12.37-1.43 3.84-1.67 7.97-1.97 12.01-.77 11.02-1.72 22.03-2.46 33.04-.36 6.52 1.04 13.77 6.17 18.26 4.17 3.99 10.97 4.2 15.71 1.12 6.88-4.14 10.2-12.24 10.88-19.96 1-12.16 1.83-24.33 2.81-36.49.45-5.3-.35-11.03-3.73-15.32-3.35-4.48-9.51-6.71-14.91-5.03zm195.49 6.27c8.44-10.48 22.68-15.6 35.89-13.33 7 .86 13.18 4.59 18.4 9.15.21-2.66.42-5.31.61-7.96 8.73-.01 17.45.03 26.19-.04 1.54.07 3.18-.11 4.66.49.66 1.52.25 3.23.25 4.83-1.75 22.99-3.61 45.97-5.19 68.96-.52 3.96 2.66 8.73 7.02 7.86 4.19-.77 5.74-5.18 6.48-8.84 0-1.52 1.49-2 2.75-2.06 2.92.6 1.29 4.21.86 6.16-5.55 15.47-27.41 21.17-40.22 11.19-3.42-2.47-5.41-6.3-7.08-10.06-6.56 7.53-15.38 13.68-25.53 14.77-9.2 1.33-18.71-2.22-25.21-8.76-7.23-6.88-10.99-16.65-12.35-26.38-1.98-16.12 2.18-33.26 12.47-45.98m34.45-6.31c-8.1 2.24-13.24 10.34-14.06 18.39-1.16 12.63-1.94 25.3-2.98 37.94-.58 7.12.85 15.28 6.79 19.92 5.05 4.26 12.89 3.16 17.52-1.19 5.74-4.88 8.15-12.52 8.58-19.83.87-11.66 1.74-23.32 2.66-34.98.38-5.19-.3-10.82-3.64-15.03-3.29-4.57-9.43-6.83-14.87-5.22zm86.64 7.5c8.84-9.76 22.15-14.01 34.96-14.88 11.54-.64 23.59-.29 34.33 4.46 5.2 2.37 10.36 6.04 12.38 11.61 2.16 6.58.18 14.7-5.61 18.82-6.09 4.24-13.47 5.87-20.47 7.96 8.54.52 18.66 1.71 23.93 9.37 5.72 9.76 2.81 23.19-5.47 30.62-10.88 10.15-26.59 12.85-40.98 12.12-12.23-.57-25.5-2.68-34.74-11.44-8.31-7.39-10.96-19.04-10.9-29.74-.05-13.75 2.88-28.56 12.57-38.9m24.75 4.9c-.81 6.9-1.13 13.86-1.66 20.79 6.84-.33 14.62 1.33 20.47-3.2 6.85-5.6 9.02-15.58 6.76-23.9-1.43-5.32-6.54-9.94-12.3-9.14-7.44 1.06-12.45 8.36-13.27 15.45m-1.98 25.25c-.78 9.24-1.56 18.48-2.08 27.74-.43 6.29 2.06 13.36 7.94 16.38 4.93 2.66 11.19 1.15 15.12-2.6 5.74-5.19 7.11-13.45 6.89-20.82-.26-6.57-2.19-13.9-7.96-17.76-5.9-3.83-13.25-2.77-19.91-2.94zm84.79-32.67c10.33-11.73 28.23-15.74 42.64-9.78 3.92 1.62 7.27 4.3 10.51 6.98.21-2.67.41-5.33.6-8 10.37.02 20.74-.1 31.12.07.19 5.43-.5 10.82-.88 16.22-1.41 18.96-2.9 37.92-4.3 56.88-.33 3.09.48 6.75 3.43 8.33 2.32 1.46 5.34.45 7.12-1.41 2.41-2.17 2.11-5.74 3.58-8.43 1.31-.56 2.75.06 4.12.13-1.05 16.06-20.04 25.41-34.35 20.44-6.65-1.92-11.8-7.27-14.05-13.74-6.71 7.62-15.73 13.86-26.08 14.82-8.93 1.14-18.1-2.29-24.45-8.57-8.58-8.05-12.43-19.97-13.06-31.46-.6-15.18 3.93-30.94 14.05-42.48m34.62-5.28c-9.54 1.77-15.25 11.57-15.61 20.7-.89 11.7-1.75 23.41-2.68 35.1-.46 5.49-.06 11.34 2.77 16.2 2.34 4.01 6.53 7.25 11.34 7.26 5.61.2 10.62-3.42 13.7-7.86 3.89-5.39 4.89-12.18 5.24-18.65.72-12 2.09-23.98 2.5-36 .36-9.1-7.59-18.72-17.26-16.75z" id="#111211ff" fill="#111211"/></svg>