<?xml version="1.0" encoding="UTF-8"?>
<!DOCTYPE svg PUBLIC "-//W3C//DTD SVG 1.1//EN" "http://www.w3.org/Graphics/SVG/1.1/DTD/svg11.dtd">
<!-- Creator: CorelDRAW 2019 (64-Bit) -->
<svg xmlns="http://www.w3.org/2000/svg" xml:space="preserve" width="210mm" height="95mm" version="1.1" style="shape-rendering:geometricPrecision; text-rendering:geometricPrecision; image-rendering:optimizeQuality; fill-rule:evenodd; clip-rule:evenodd"
viewBox="0 0 21000 9500"
 xmlns:xlink="http://www.w3.org/1999/xlink"
 xmlns:xodm="http://www.corel.com/coreldraw/odm/2003"
 aria-hidden="true"
 focusable="false"
 data-prefix="fas"
 data-icon="sort-numeric-up-alt"
 role="img">
 <defs>
  <style type="text/css">
   <![CDATA[
    .fil1 {fill:none;fill-rule:nonzero}
    .fil0 {fill:black;fill-rule:nonzero}
   ]]>
  </style>
 </defs>
 <g id="Слой_x0020_1">
  <metadata id="CorelCorpID_0Corel-Layer"/>
  <path class="fil0" d="M20545.92 5289.55c137.38,-140.55 214.66,-331.37 214.66,-530.15 0,-198.79 -77.28,-389.6 -214.65,-530.16l-4400.89 -3750c-460.73,-470.63 -1251.97,-136.41 -1251.97,530.15l0 2250 -13936.15 0c-405.01,0.01 -733.47,335.87 -733.47,750.01l-0.01 1499.99c0.01,414.15 328.47,750.01 733.49,750.01l13936.14 -0.01 0 2250c0,666.09 790.33,1002.19 1251.96,530.16l4400.89 -3750z"/>
  <path class="fil1" d="M16500 -2937.5c517.68,0 937.5,419.82 937.5,937.5 0,517.68 -419.82,937.5 -937.5,937.5 -517.68,0 -937.5,-419.82 -937.5,-937.5"/>
  <path class="fil1" d="M18000 7000c0,-414.15 -335.86,-750.01 -750,-750.01l-2250 0.01c-283.58,0.17 -542.89,160.41 -669.89,413.86l-750 1500c-52.19,104.2 -79.48,219.48 -79.48,336.13 0,413.96 335.4,749.73 749.36,750l750.01 0.01 0 3000 -750 0c-414.14,-0.01 -750,335.85 -750,749.99l0 1500c0,414.14 335.86,750 750,750l4500 0.01c414.14,-0.01 750,-335.87 750,-750.01l0 -1500c0,-414.14 -335.86,-750 -750,-750l0 0.01 -750 0"/>
 </g>
</svg>
