<svg xmlns="http://www.w3.org/2000/svg" xml:space="preserve" width="52mm" height="52mm" version="1.1" style="shape-rendering:geometricPrecision; text-rendering:geometricPrecision; image-rendering:optimizeQuality; fill-rule:evenodd; clip-rule:evenodd"
viewBox="0 0 5200 5200"
 xmlns:xlink="http://www.w3.org/1999/xlink"
 xmlns:xodm="http://www.corel.com/coreldraw/odm/2003">
   <path style="fill: #05a4fa" d="M2917.4 4449.11l223.88 0 0 464.98 -223.88 0 0 -464.98zm-396.09 0l172.22 0 0 464.98 -172.22 0 0 -464.98zm-447.75 0l223.88 0 0 464.98 -223.88 0 0 -464.98zm1532.7 327.2l0 -17.21c0,-155.4 132.82,-332.55 275.54,-344.43l0 499.42 -206.66 0c-60.47,0 -68.88,-76.42 -68.88,-137.78zm-2066.56 137.78l-206.66 0 0 -499.42c142.72,11.88 275.54,189.03 275.54,344.43l0 17.21c0,61.36 -8.41,137.78 -68.88,137.78zm-206.66 -2256l809.41 0 0 1274.38c0,80.39 40.15,120.55 120.54,120.55l688.86 0c80.39,0 120.54,-40.16 120.54,-120.55l0 -1274.38 809.41 0 0 1532.7c-344.51,80.26 -546.47,373.51 -464.98,723.3l-68.89 0 0 -568.31c0,-55.8 -74.83,-103.33 -137.76,-103.33l-1205.5 0c-62.93,0 -137.77,47.53 -137.77,103.33l0 568.31 -68.88 0c81.49,-349.79 -120.48,-643.04 -464.98,-723.3l0 -1532.7zm1016.06 1033.28l516.64 0 0 155 -516.64 0 0 -155zm1739.35 -68.89c0,-100.8 91.07,-206.65 154.99,-206.65 87.13,0 144.87,-11.49 210.11,65.44 85.38,100.71 72.76,330.65 -175.66,330.65 -99.55,0 -189.44,-99.16 -189.44,-189.44zm-3151.5 189.44c-248.42,0 -261.04,-229.94 -175.66,-330.65 114.62,-135.19 365.1,-58.74 365.1,123.99 0,105.84 -81.85,206.66 -189.44,206.66zm1412.15 -1153.83l516.64 0 0 826.63 -516.64 0 0 -826.63zm1739.35 258.32c0,-145.65 152.79,-275.54 258.32,-275.54 368.97,0 426.82,551.08 -17.22,551.08 -128.31,0 -241.1,-144.58 -241.1,-275.54zm-3203.16 275.54c-453.03,0 -369.8,-551.08 -34.45,-551.08 145.66,0 275.55,152.79 275.55,258.32 0,143.46 -103.43,292.76 -241.1,292.76zm430.53 -861.06c744.75,-173.51 1546.52,-179.02 2307.83,-51.84 88.49,14.78 190.97,44.81 275.36,51.84l0 120.54 -2583.19 0 0 -120.54zm1102.16 -895.51c0,-281.24 361.65,-281.24 361.65,0 0,249.24 -361.65,246.54 -361.65,0zm-206.65 -17.22c0,548.93 774.95,548.93 774.95,0 0,-196.01 -122.3,-299.32 -241.09,-378.87 5.65,-67.82 35.18,-101.45 51.67,-172.22l627.71 61.14c218.34,31.79 399.5,65.53 595,111.08 0,168.49 -32.43,378.75 -48.93,536.6 -18,172.31 -19.86,400.09 -54.4,548.34 -803.62,-187.22 -1831.25,-187.22 -2634.86,0l-52.97 -532.55c-13.39,-172.38 -50.36,-371.49 -50.36,-552.39 403.64,-94.04 509.54,-92.7 890.4,-142.88 95.15,-12.53 236.78,-7.08 332.31,-29.34 15.46,66.37 38.06,96.57 51.67,154.99 -46.35,63.26 -241.1,154.46 -241.1,396.1zm189.43 -1102.17l396.1 0c-10.95,46.99 -160.12,463.09 -206.66,516.64l-189.44 -516.64zm-258.31 -120.55c0,58.57 64.13,194.77 83.64,243.56l74.28 194.42c7.22,65.78 -208.26,45.84 -378.75,64.5 -113.48,12.41 -244.78,31.24 -362.31,51l-512.62 107.34c-137.07,50.99 -50.72,277.89 -40.73,510.11 10.8,251.29 103.2,960.27 103.2,1136.73 -96.36,-22.45 -350.72,-170.34 -573.14,46.82 -73.07,71.34 -125.4,124.13 -156.91,239.28 -34.06,124.44 -20.28,220.61 20.52,320.1 43.41,105.87 106.5,162.57 192.89,220.42 -36.08,135.13 -86.1,49.2 -86.1,327.21 0,139.71 105.93,263.24 200.29,316.35 202.15,113.8 334.47,17.95 419.68,10.85l0 1119.39 2962.06 0 0 -1119.39c91.63,7.63 204.88,99.09 408.39,-4.92 175.97,-89.94 211.58,-232.04 211.58,-408.39 0,-128.41 -63.45,-156.22 -86.11,-241.1 280.17,-187.6 317.12,-520.22 65.04,-771.11 -229.71,-228.64 -474.89,-80.39 -581.68,-55.51 0,-364.65 123.78,-1334.07 122.17,-1515.96 -1.25,-140.36 -80.89,-136.54 -244.12,-170.33 -252.69,-52.3 -448.76,-90.57 -707.72,-118.89 -454.4,-49.71 -425.58,44.07 -309.4,-246.62 168.09,-420.52 167.93,-341.97 -738.05,-341.97 -44.75,0 -86.1,61.48 -86.1,86.11zm1360.48 3702.59c119.62,0 138.94,75.43 189.43,68.88 131.57,-17.05 185.63,-275.54 -223.87,-275.54 -233.46,0 -277.34,283.06 -106.18,270.78 57.01,-4.09 97.94,-64.12 140.62,-64.12zm-1980.45 68.88c101.15,-23.57 69.44,-68.88 189.43,-68.88 42.68,0 83.61,60.03 140.62,64.12 134.01,9.62 216.57,-270.78 -209.5,-270.78 -67.15,0 -380.87,137.8 -120.55,275.54z"/>
</svg>
