<svg style="shape-rendering:geometricPrecision; text-rendering:geometricPrecision; image-rendering:optimizeQuality; fill-rule:evenodd; clip-rule:evenodd" viewBox="0 0 5200 5200">
	<path style="fill: #05a4fa" d="M2514.55 2943.48c0,-63.76 95.29,-105.56 177.77,-105.56 131.71,0 21.1,-4.66 148.22,224.01 18.85,33.9 108.36,164.88 151.78,164.88 73.86,0 33.34,-89.27 33.34,-161.11 0,-128.99 -6.33,-105.24 22.22,-227.78l516.67 0c0,117.99 2.25,201.91 -51.78,309.33 -201.21,400.04 -715.13,416.81 -940.41,43.97l-57.81 -247.74zm-105.56 -822.22l1066.67 0 0 177.78 -1066.67 0 0 -177.78zm1.16 -533.34l1067.39 -7.09 1.32 182.75 -1063.62 1.63 -5.09 -177.29zm-512.27 -27.77c-57.12,-30.23 -85.38,-84.02 -213.12,-125.77 -93.19,-30.46 -502.87,-49.07 -608.51,-6.98 -99.38,39.6 -117.41,189.76 -71.48,253.64 61.92,86.12 111.97,84.95 243.12,84.66 108.89,-0.25 190.03,9.39 235.83,91.94 55.64,100.28 31.77,114.21 -42.63,179.05 -23.08,20.12 -79.86,59.08 -93.21,79.01 58.48,28.06 361.05,7.21 601.76,203.8 88.29,72.11 132.21,116.91 190.94,214.62 48.42,80.57 85.57,192.87 85.1,320.45 -0.73,194.99 42.87,398.28 158.66,546.89 411.91,528.66 1167.38,401.59 1413.61,-219.02 77.21,-194.6 64.21,-1041.91 44.38,-1238.96l1244.44 0 0 -716.66 -177.78 0c0,-80.15 11.75,-251.09 -26.4,-306.94 -23.92,-35.02 -64.09,-48.62 -106.93,-48.62 -59.1,0 -113.48,76.56 -175.75,129.8l-205.77 210.9c-15.38,15.2 -12.22,14.76 -40.24,15.32 -481.62,9.55 -973.23,-0.46 -1456.02,-0.46 -162.91,0 -277.24,5.55 -433.33,5.55 -196.63,0 -344.2,34.71 -473.05,195.7 -20.88,26.09 -85.7,102.41 -93.62,132.08z"/>
	<path style="fill: #05a4fa" d="M86.77 3865.7c0,110.1 3.98,188.74 55.87,288.57 66.3,127.56 161.54,206.83 291.66,258.35 67.53,26.73 155.49,30.86 246.91,30.86l911.67 -10.56c84.13,-7.6 143.52,-57.67 195.25,-115.86 71.14,-80.03 81.97,-128.01 81.97,-229.14 2.2,-306.32 11.59,-616.93 11.11,-922.22 -0.15,-98.35 22.72,-127.77 96.08,-215.03 223.14,-265.41 -148.5,-570.77 -407.57,-623.47 -88.91,-18.08 -259.71,-28.28 -355.17,-28.16 -143.58,0.17 -68.02,-20.1 -141.24,36.54 -181.47,160.24 -357.46,328.43 -518.48,509.29 -228.82,240.2 -468.06,681.9 -468.06,1020.83z"/>
</svg>
