<?xml version="1.0" encoding="UTF-8"?>
<!DOCTYPE svg PUBLIC "-//W3C//DTD SVG 1.1//EN" "http://www.w3.org/Graphics/SVG/1.1/DTD/svg11.dtd">
<!-- Creator: CorelDRAW 2019 (64-Bit) -->
<svg xmlns="http://www.w3.org/2000/svg" xml:space="preserve" width="52mm" height="52mm" version="1.1" style="shape-rendering:geometricPrecision; text-rendering:geometricPrecision; image-rendering:optimizeQuality; fill-rule:evenodd; clip-rule:evenodd"
viewBox="0 0 5200 5200"
 xmlns:xlink="http://www.w3.org/1999/xlink"
 xmlns:xodm="http://www.corel.com/coreldraw/odm/2003">
 <defs>
  <style type="text/css">
   <![CDATA[
    .fil0 {fill:#449FB7}
    .fil1 {fill:#449FB7;fill-rule:nonzero}
   ]]>
  </style>
 </defs>
 <g id="Слой_x0020_1">
  <metadata id="CorelCorpID_0Corel-Layer"/>
  <g id="_2367304790688">
   <path class="fil0" d="M1016.24 1219.56l0 -558.51 2208.05 0 0 597.47 -2169.09 0c-29.93,0 -38.96,-9.03 -38.96,-38.96zm-194.83 -662.42l0 818.28c0,31.28 46.65,77.93 77.93,77.93l2441.84 0c31.28,0 77.94,-46.65 77.94,-77.93l0 -818.28c0,-77.42 -52.42,-103.91 -129.89,-103.91l-2350.93 0c-62.82,0 -116.89,36.89 -116.89,103.91z"/>
   <path class="fil1" d="M692.86 108.64l2859.13 0c103.76,0 198.03,42.38 266.3,110.66 68.28,68.28 110.67,162.55 110.67,266.31l0 3550.76c0,103.77 -42.39,198.04 -110.67,266.32 -68.27,68.27 -162.54,110.66 -266.3,110.66l-2859.13 0c-103.76,0 -198.03,-42.39 -266.31,-110.66 -68.28,-68.29 -110.66,-162.56 -110.66,-266.32l0 -3550.76c0,-103.76 42.38,-198.03 110.66,-266.31 68.28,-68.28 162.55,-110.66 266.31,-110.66zm2859.13 184.09l-2859.13 0c-52.94,0 -101.15,21.73 -136.15,56.73 -35,35 -56.73,83.21 -56.73,136.15l0 3550.76c0,52.95 21.73,101.15 56.73,136.16 35,35 83.21,56.73 136.15,56.73l2859.13 0c52.94,0 101.15,-21.73 136.14,-56.73 35.01,-35.01 56.74,-83.21 56.74,-136.16l0 -3550.76c0,-52.94 -21.73,-101.15 -56.74,-136.15 -34.99,-35 -83.2,-56.73 -136.14,-56.73z"/>
   <path class="fil1" d="M4048.4 803.93l100.84 0c103.76,0 198.03,42.39 266.31,110.66 68.28,68.29 110.66,162.56 110.66,266.32l0 3550.76c0,103.76 -42.38,198.04 -110.66,266.31 -68.28,68.28 -162.55,110.66 -266.31,110.66l-2859.13 0c-103.76,0 -198.03,-42.38 -266.31,-110.66 -68.27,-68.27 -110.66,-162.55 -110.66,-266.31l0 -199.71 184.09 0 0 199.71c0,52.94 21.73,101.15 56.74,136.15 34.99,35 83.2,56.73 136.14,56.73l2859.13 0c52.94,0 101.15,-21.73 136.15,-56.73 35,-35 56.73,-83.21 56.73,-136.15l0 -3550.76c0,-52.95 -21.73,-101.15 -56.73,-136.16 -35,-34.99 -83.21,-56.73 -136.15,-56.73l-100.84 0 0 -184.09z"/>
   <path class="fil1" d="M2754.64 2718.98c193.91,0 369.48,78.61 496.56,205.69 127.09,127.09 205.7,302.66 205.7,496.57 0,193.91 -78.61,369.48 -205.7,496.56 -127.08,127.08 -302.65,205.7 -496.56,205.7 -193.91,0 -369.48,-78.62 -496.56,-205.7 -127.09,-127.08 -205.7,-302.65 -205.7,-496.56 0,-193.91 78.61,-369.48 205.7,-496.57 127.08,-127.08 302.65,-205.69 496.56,-205.69zm344.23 358.03c-88.09,-88.09 -209.8,-142.58 -344.23,-142.58 -134.43,0 -256.15,54.49 -344.23,142.58 -88.09,88.08 -142.57,209.8 -142.57,344.23 0,134.43 54.48,256.14 142.57,344.22 88.08,88.09 209.8,142.58 344.23,142.58 134.43,0 256.14,-54.49 344.23,-142.57 88.09,-88.09 142.57,-209.8 142.57,-344.23 0,-134.43 -54.48,-256.15 -142.57,-344.23z"/>
   <path class="fil1" d="M1113.36 1590.86l544.4 0c53.83,0 102.72,21.96 138.11,57.34 35.37,35.37 57.33,84.26 57.33,138.11l0 544.4c0,53.84 -21.95,102.72 -57.33,138.11 -35.39,35.38 -84.28,57.34 -138.11,57.34l-544.4 0c-53.85,0 -102.74,-21.97 -138.11,-57.34 -35.38,-35.39 -57.34,-84.27 -57.34,-138.11l0 -544.4c0,-53.85 21.96,-102.74 57.34,-138.11 35.37,-35.38 84.26,-57.34 138.11,-57.34zm544.4 192.15l-544.4 0c-0.81,0 -1.62,0.4 -2.26,1.04 -0.64,0.64 -1.05,1.45 -1.05,2.26l0 544.4c0,0.8 0.41,1.62 1.05,2.26 0.64,0.64 1.45,1.04 2.26,1.04l544.4 0c0.8,0 1.61,-0.4 2.26,-1.04 0.64,-0.64 1.04,-1.46 1.04,-2.26l0 -544.4c0,-0.81 -0.4,-1.62 -1.04,-2.26 -0.65,-0.64 -1.46,-1.04 -2.26,-1.04z"/>
   <path class="fil1" d="M2464.62 1590.86l544.39 0c53.84,0 102.73,21.96 138.12,57.34 35.37,35.37 57.33,84.26 57.33,138.11l0 544.4c0,53.84 -21.96,102.72 -57.33,138.11 -35.39,35.38 -84.28,57.34 -138.12,57.34l-544.39 0c-53.85,0 -102.74,-21.97 -138.12,-57.34 -35.37,-35.39 -57.33,-84.27 -57.33,-138.11l0 -544.4c0,-53.85 21.96,-102.74 57.33,-138.11 35.38,-35.38 84.27,-57.34 138.12,-57.34zm544.39 192.15l-544.39 0c-0.81,0 -1.62,0.4 -2.26,1.04 -0.64,0.64 -1.05,1.45 -1.05,2.26l0 544.4c0,0.8 0.41,1.62 1.05,2.26 0.64,0.64 1.45,1.04 2.26,1.04l544.39 0c0.81,0 1.62,-0.4 2.26,-1.04 0.65,-0.64 1.05,-1.46 1.05,-2.26l0 -544.4c0,-0.81 -0.4,-1.62 -1.05,-2.26 -0.64,-0.64 -1.45,-1.04 -2.26,-1.04z"/>
   <path class="fil1" d="M1113.36 2709.35l544.4 0c53.83,0 102.72,21.96 138.11,57.34 35.37,35.37 57.33,84.26 57.33,138.11l0 811.14c0,53.85 -21.96,102.74 -57.33,138.12 -35.39,35.37 -84.28,57.33 -138.11,57.33l-544.4 0c-53.85,0 -102.74,-21.96 -138.11,-57.33 -35.38,-35.38 -57.34,-84.27 -57.34,-138.12l0 -811.14c0,-53.85 21.96,-102.74 57.34,-138.11 35.37,-35.38 84.26,-57.34 138.11,-57.34zm544.4 192.14l-544.4 0c-0.81,0 -1.62,0.41 -2.26,1.05 -0.64,0.64 -1.05,1.45 -1.05,2.26l0 811.14c0,0.81 0.41,1.62 1.05,2.26 0.64,0.65 1.45,1.05 2.26,1.05l544.4 0c0.8,0 1.61,-0.4 2.26,-1.05 0.64,-0.64 1.04,-1.45 1.04,-2.26l0 -811.14c0,-0.81 -0.4,-1.62 -1.04,-2.26 -0.65,-0.64 -1.46,-1.05 -2.26,-1.05z"/>
  </g>
 </g>
</svg>
