<svg viewBox="0 0 5200 5200">
    <path d="M3961.46 3720.35c138.36,0 263.64,56.09 354.32,146.77 90.68,90.68 146.78,215.96 146.78,354.32 0,138.37 -56.1,263.65 -146.78,354.33 -90.68,90.68 -215.96,146.77 -354.32,146.77 -138.37,0 -263.65,-56.09 -354.32,-146.77 -90.69,-90.68 -146.78,-215.96 -146.78,-354.33 0,-138.36 56.09,-263.64 146.78,-354.32 90.67,-90.68 215.95,-146.77 354.32,-146.77zm245.62 255.47c-62.85,-62.86 -149.7,-101.74 -245.62,-101.74 -95.93,0 -182.77,38.88 -245.63,101.74 -62.85,62.85 -101.73,149.7 -101.73,245.62 0,95.93 38.88,182.77 101.73,245.63 62.86,62.85 149.7,101.73 245.63,101.73 95.92,0 182.77,-38.88 245.62,-101.73 62.86,-62.86 101.74,-149.7 101.74,-245.63 0,-95.92 -38.88,-182.77 -101.74,-245.62z"/>
   <path d="M4416.33 3271.22c21.24,0 38.44,34.41 38.44,76.86 0,42.46 -17.2,76.87 -38.44,76.87l-842.09 0c-21.22,0 -38.44,-34.41 -38.44,-76.87 0,-42.45 17.22,-76.86 38.44,-76.86l842.09 0zm0 -341.69c21.24,0 38.44,34.42 38.44,76.87 0,42.45 -17.2,76.87 -38.44,76.87l-842.09 0c-21.22,0 -38.44,-34.42 -38.44,-76.87 0,-42.45 17.22,-76.87 38.44,-76.87l842.09 0zm-1191.07 1355.08c25.46,0 46.1,34.41 46.1,76.87 0,42.44 -20.64,76.87 -46.1,76.87l-1010.09 0c-25.46,0 -46.1,-34.43 -46.1,-76.87 0,-42.46 20.64,-76.87 46.1,-76.87l1010.09 0zm0 -349.82c25.46,0 46.1,34.42 46.1,76.87 0,42.45 -20.64,76.87 -46.1,76.87l-1010.09 0c-25.46,0 -46.1,-34.42 -46.1,-76.87 0,-42.45 20.64,-76.87 46.1,-76.87l1010.09 0zm1191.07 -1338.26c21.24,0 38.44,34.41 38.44,76.87 0,42.45 -17.2,76.87 -38.44,76.87l-842.09 0c-21.22,0 -38.44,-34.42 -38.44,-76.87 0,-42.46 17.22,-76.87 38.44,-76.87l842.09 0zm0 -309.15c21.24,0 38.44,34.41 38.44,76.87 0,42.46 -17.2,76.87 -38.44,76.87l-842.09 0c-21.22,0 -38.44,-34.41 -38.44,-76.87 0,-42.46 17.22,-76.87 38.44,-76.87l842.09 0zm0 -326.78c21.24,0 38.44,34.41 38.44,76.87 0,42.45 -17.2,76.86 -38.44,76.86l-842.09 0c-21.22,0 -38.44,-34.41 -38.44,-76.86 0,-42.46 17.22,-76.87 38.44,-76.87l842.09 0zm-3750.77 -1860.6l2387.74 0c86.66,0 165.39,35.4 222.41,92.41 57.02,57.03 92.42,135.75 92.42,222.41l0 2965.35c0,86.65 -35.4,165.38 -92.42,222.4 -57.02,57.02 -135.75,92.42 -222.41,92.42l-2387.74 0c-86.65,0 -165.38,-35.4 -222.39,-92.42 -57.03,-57.02 -92.42,-135.75 -92.42,-222.4l0 -2965.35c0,-86.65 35.39,-165.38 92.42,-222.41 57.01,-57.01 135.74,-92.41 222.39,-92.41zm2387.74 153.74l-2387.74 0c-44.21,0 -84.47,18.14 -113.7,47.37 -29.22,29.24 -47.37,69.5 -47.37,113.71l0 2965.35c0,44.21 18.15,84.47 47.37,113.7 29.23,29.23 69.49,47.38 113.7,47.38l2387.74 0c44.23,0 84.48,-18.15 113.71,-47.38 29.23,-29.23 47.38,-69.49 47.38,-113.7l0 -2965.35c0,-44.21 -18.15,-84.47 -47.38,-113.71 -29.23,-29.23 -69.48,-47.37 -113.71,-47.37zm386.79 1251.27l1094.34 0c86.66,0 165.38,35.4 222.4,92.42 57.03,57.02 92.42,135.75 92.42,222.4l0 2965.35c0,86.65 -35.39,165.38 -92.42,222.41 -57.02,57.01 -135.74,92.41 -222.4,92.41l-2387.74 0c-86.65,0 -165.39,-35.4 -222.4,-92.41 -57.02,-57.03 -92.42,-135.76 -92.42,-222.41l0 -993.4 153.73 0 0 993.4c0,44.21 18.16,84.47 47.39,113.71 29.22,29.23 69.48,47.37 113.7,47.37l2387.74 0c44.22,0 84.47,-18.14 113.7,-47.37 29.23,-29.24 47.38,-69.5 47.38,-113.71l0 -2965.35c0,-44.22 -18.15,-84.47 -47.38,-113.7 -29.23,-29.23 -69.48,-47.38 -113.7,-47.38l-1094.34 0 0 -153.74zm-2504.46 -477.25l0 -466.43 1844.01 0 0 498.97 -1811.47 0c-24.99,0 -32.54,-7.55 -32.54,-32.54zm-162.71 -553.2l0 683.36c0,26.12 38.96,65.09 65.08,65.09l2039.26 0c26.12,0 65.09,-38.97 65.09,-65.09l0 -683.36c0,-64.66 -43.78,-86.78 -108.48,-86.78l-1963.33 0c-52.46,0 -97.62,30.8 -97.62,86.78zm1941.64 2234.5l141.01 0 0 520.66 -141.01 0 0 -520.66zm-173.56 -54.24l0 629.14c0,156.81 147.41,119.31 368.8,119.31 64.7,0 108.47,-22.12 108.47,-86.77l0 -694.22c0,-117.07 -201.62,-86.77 -347.1,-86.77 -84.23,0 -130.17,33.34 -130.17,119.31zm-1681.3 249.49l141.01 0 0 130.16 -141.01 0 0 -130.16zm-162.71 -86.78l0 325.41c0,97.93 267.36,65.09 401.35,65.09 103.87,0 75.92,-258.82 75.92,-357.96 0,-160.49 -141.1,-119.32 -390.49,-119.32 -52.47,0 -86.78,34.31 -86.78,86.78zm780.99 86.78l141.02 0 0 130.16 -141.02 0 0 -130.16zm-162.7 -86.78l0 325.41c0,97.93 267.36,65.09 401.34,65.09 99.86,0 75.93,-245.44 75.93,-336.26 0,-182.53 -95.86,-141.02 -390.5,-141.02 -52.46,0 -86.77,34.31 -86.77,86.78zm780.99 86.78l141.01 0 0 130.16 -141.01 0 0 -130.16zm-173.55 -32.54c0,400.05 -30.18,336.26 390.49,336.26 39.64,0 86.78,-29.94 86.78,-65.09l0 -347.1c0,-96.5 -253.57,-65.09 -379.65,-65.09 -77.36,0 -97.62,63.02 -97.62,141.02zm791.84 -748.45l141.01 0 0 141.01 -141.01 0 0 -141.01zm-173.56 -54.24c0,420.6 -58.25,357.95 412.19,357.95 26.12,0 65.08,-38.96 65.08,-65.08 0,-459.31 63.99,-412.19 -347.1,-412.19 -84.23,0 -130.17,33.35 -130.17,119.32zm173.56 -531.51l141.01 0 0 141.02 -141.01 0 0 -141.02zm-173.56 -54.23c0,420.6 -58.25,357.95 412.19,357.95 26.12,0 65.08,-38.96 65.08,-65.08 0,-459.32 63.99,-412.19 -347.1,-412.19 -84.23,0 -130.17,33.34 -130.17,119.32zm-444.73 639.98l141.01 0 0 141.01 -141.01 0 0 -141.01zm-173.55 -43.39c0,409.85 -45.52,347.1 401.34,347.1 50.64,0 75.93,-25.29 75.93,-75.92 0,-450.65 61.73,-401.35 -347.11,-401.35 -89.27,0 -130.16,40.89 -130.16,130.17zm173.55 -542.36l141.01 0 0 141.02 -141.01 0 0 -141.02zm-173.55 -43.39c0,409.85 -45.52,347.11 401.34,347.11 50.64,0 75.93,-25.29 75.93,-75.93 0,-450.64 61.73,-401.34 -347.11,-401.34 -89.27,0 -130.16,40.89 -130.16,130.16zm-444.74 629.14l141.02 0 0 141.01 -141.02 0 0 -141.01zm-162.7 -86.78l0 314.57c0,50.63 25.29,75.92 75.93,75.92 446.86,0 401.34,62.75 401.34,-347.1 0,-166.48 -145.47,-130.17 -357.95,-130.17 -64.57,0 -119.32,20.9 -119.32,86.78zm162.7 -498.97l141.02 0 0 141.02 -141.02 0 0 -141.02zm-162.7 -86.78l0 314.57c0,50.64 25.29,75.93 75.93,75.93 446.86,0 401.34,62.74 401.34,-347.11 0,-166.48 -145.47,-130.16 -357.95,-130.16 -64.57,0 -119.32,20.89 -119.32,86.77zm-455.58 672.53l141.01 0 0 141.01 -141.01 0 0 -141.01zm-162.71 -86.78l0 325.41c0,26.12 38.97,65.08 65.08,65.08l325.42 0c121.38,0 86.77,-191.96 86.77,-357.95 0,-151.85 -138.68,-119.32 -336.26,-119.32 -73.71,0 -141.01,12.44 -141.01,86.78zm162.71 -498.97l141.01 0 0 141.02 -141.01 0 0 -141.02zm-162.71 -86.78l0 325.42c0,26.12 38.97,65.08 65.08,65.08l325.42 0c121.38,0 86.77,-191.96 86.77,-357.95 0,-151.85 -138.68,-119.32 -336.26,-119.32 -73.71,0 -141.01,12.44 -141.01,86.77z"/>
</svg>
