<svg xmlns="http://www.w3.org/2000/svg" width="210mm" height="210mm" viewBox="0 0 21000 21000" aria-hidden="true" data-prefix="fas" data-icon="check-square" shape-rendering="geometricPrecision" text-rendering="geometricPrecision" image-rendering="optimizeQuality" fill-rule="evenodd" clip-rule="evenodd"><g id="Слой_x0020_1"><path d="M18753 20995H2253C1010 20995 3 19988 3 18745V2245C3 1002 1010-5 2253-5h16500c1243 0 2250 1007 2250 2250v16500c0 1243-1007 2250-2250 2250zm-9595-4597l8625-8625c293-293 293-768 0-1061l-1061-1061c-293-293-768-293-1061 0l-7034 7034-3284-3284c-293-293-768-293-1061 0l-1061 1061c-293 293-293 768 0 1061l4875 4875c293 293 768 293 1061 0z" fill="#fff" id="_1638127418064"/></g></svg>