<svg xmlns="http://www.w3.org/2000/svg" width="210mm" height="184mm" viewBox="0 0 21000 18400" aria-hidden="true" data-prefix="fas" data-icon="object-group" shape-rendering="geometricPrecision" text-rendering="geometricPrecision" image-rendering="optimizeQuality" fill-rule="evenodd" clip-rule="evenodd"><path d="M19688 3950V2637h820c272 0 492-220 492-492V504c0-272-220-492-492-492h-1641c-272 0-492 220-492 492v820H2625V504c0-272-220-492-492-492H492C220 12 0 232 0 504v1641c0 272 220 492 492 492h820v13125H492c-272 0-492 220-492 492v1641c0 272 220 492 492 492h1641c272 0 492-220 492-492v-820h15750v820c0 272 220 492 492 492h1641c272 0 492-220 492-492v-1641c0-272-220-492-492-492h-820V3949zM3938 10020V4442c0-272 220-492 492-492h6891c272 0 492 220 492 492v5578c0 272-220 492-492 492H4430c-272 0-492-220-492-492zm13125 3938c0 272-220 492-492 492H9680c-272 0-492-220-492-492v-2133h2953c544 0 984-441 984-984V7888h3445c272 0 492 220 492 492v5578z" fill="#fff" id="Слой_x0020_1"/></svg>