<svg xmlns="http://www.w3.org/2000/svg" width="210mm" height="158mm" viewBox="0 0 21000 15800" aria-hidden="true" data-prefix="fas" data-icon="envelope" shape-rendering="geometricPrecision" text-rendering="geometricPrecision" image-rendering="optimizeQuality" fill-rule="evenodd" clip-rule="evenodd"><path d="M20602 5226c160-127 398-8 398 193v8388c0 1087-882 1969-1969 1969H1968C881 15776-1 14894-1 13807V5423c0-205 234-320 398-193 919 714 2137 1620 6321 4659 865 632 2326 1961 3782 1952 1464 12 2953-1345 3786-1952 4184-3039 5398-3950 6316-4663zm-10102 5299c952 16 2321-1198 3011-1698 5443-3950 5857-4294 7112-5279 238-185 377-472 377-775v-779c0-1087-882-1969-1969-1969H1968C881 25-1 907-1 1994v779c0 304 139 587 377 775 1255 980 1669 1329 7112 5279 689 500 2059 1714 3011 1698z" fill="#fff" id="Слой_x0020_1"/></svg>