<svg xmlns="http://www.w3.org/2000/svg" width="210mm" height="210mm" viewBox="0 0 21000 21000" aria-hidden="true" data-prefix="fas" data-icon="phone" shape-rendering="geometricPrecision" text-rendering="geometricPrecision" image-rendering="optimizeQuality" fill-rule="evenodd" clip-rule="evenodd"><path d="M20237 1009L15971 25c-463-107-939 135-1128 570l-1969 4594c-172 402-57 874 283 1148l2486 2034c-1477 3146-4056 5763-7268 7268l-2034-2486c-279-340-746-455-1148-283L599 14839c-439 193-681 669-574 1132l984 4266c103 443 496 763 960 763 10504 0 19031-8511 19031-19031 0-459-316-857-763-960z" fill="#fff" id="Слой_x0020_1"/></svg>