<svg xmlns="http://www.w3.org/2000/svg" width="204mm" height="204mm" viewBox="0 0 20400 20400" aria-hidden="true" data-prefix="fas" data-icon="clock" shape-rendering="geometricPrecision" text-rendering="geometricPrecision" image-rendering="optimizeQuality" fill-rule="evenodd" clip-rule="evenodd"><path d="M10200 28C4581 28 28 4581 28 10200s4553 10172 10172 10172 10172-4553 10172-10172S15819 28 10200 28zm3794 12838l-820 1025c-124 156-313 246-512 246-149 0-294-51-410-144l-2748-2039c-389-311-615-783-615-1281V4293c0-362 294-656 656-656h1312c362 0 656 294 656 656v5906l2379 1743c156 125 246 313 246 512 0 149-51 294-144 410z" fill="#fff" id="Слой_x0020_1"/></svg>