<svg width="24" height="24" fill="none" xmlns="http://www.w3.org/2000/svg"><path d="M20 9a.5.5 0 000-1v1zM4 8a.5.5 0 000 1V8zm11.5-4a.5.5 0 00-1 0h1zm-1 2a.5.5 0 001 0h-1zm-5-2a.5.5 0 00-1 0h1zm-1 2a.5.5 0 001 0h-1zM8 12.5a.5.5 0 000-1v1zm-1-1a.5.5 0 000 1v-1zm6 1a.5.5 0 000-1v1zm-2-1a.5.5 0 000 1v-1zm6 1a.5.5 0 000-1v1zm-1-1a.5.5 0 000 1v-1zm-8 5a.5.5 0 000-1v1zm-1-1a.5.5 0 000 1v-1zm6 1a.5.5 0 000-1v1zm-2-1a.5.5 0 000 1v-1zm6 1a.5.5 0 000-1v1zm-1-1a.5.5 0 000 1v-1zM19.5 7v11h1V7h-1zM18 19.5H6v1h12v-1zM4.5 18V7h-1v11h1zM18 4.5H6v1h12v-1zm-12 15A1.5 1.5 0 014.5 18h-1A2.5 2.5 0 006 20.5v-1zM19.5 18a1.5 1.5 0 01-1.5 1.5v1a2.5 2.5 0 002.5-2.5h-1zm1-11A2.5 2.5 0 0018 4.5v1A1.5 1.5 0 0119.5 7h1zm-16 0A1.5 1.5 0 016 5.5v-1A2.5 2.5 0 003.5 7h1zM20 8H4v1h16V8zm-5.5-4v2h1V4h-1zm-6 0v2h1V4h-1zM8 11.5H7v1h1v-1zm5 0h-2v1h2v-1zm4 0h-1v1h1v-1zm-9 4H7v1h1v-1zm5 0h-2v1h2v-1zm4 0h-1v1h1v-1z" fill="#FF7643"/></svg>