<?xml version="1.0" encoding="UTF-8"?>
<!DOCTYPE svg PUBLIC "-//W3C//DTD SVG 1.1//EN" "http://www.w3.org/Graphics/SVG/1.1/DTD/svg11.dtd">
<!-- Creator: CorelDRAW 2019 (64-Bit) -->
<svg xmlns="http://www.w3.org/2000/svg" xml:space="preserve" width="52mm" height="52mm" version="1.1" style="shape-rendering:geometricPrecision; text-rendering:geometricPrecision; image-rendering:optimizeQuality; fill-rule:evenodd; clip-rule:evenodd"
viewBox="0 0 5200 5200"
 xmlns:xlink="http://www.w3.org/1999/xlink"
 xmlns:xodm="http://www.corel.com/coreldraw/odm/2003">
 <defs>
  <style type="text/css">
   <![CDATA[
    .fil0 {fill:white}
   ]]>
  </style>
 </defs>
 <g id="Слой_x0020_1">
  <metadata id="CorelCorpID_0Corel-Layer"/>
  <path class="fil0" d="M80.03 2810.27c0,246.46 38.9,489.89 95.22,682.97 49.84,170.87 111.54,325.2 192.23,480.22 5.75,11.04 10.12,21.07 16.76,32.06l34.19 60.71c6.58,10.98 11.21,19.37 17.95,30.85l74.24 115.57c13.64,20.47 26.09,37.16 40.12,57.49 38.65,55.99 81.83,109.82 126.42,161 59.87,68.71 122.19,133.67 187.12,197.92 43.24,42.78 217.72,187.34 248.83,233.81 128.22,-135.45 267.07,-293.59 400.58,-426.42 16.33,-16.25 46,-44.23 57.66,-61.65 -10.92,-16.31 -124.69,-117.72 -147.09,-140.33 -11.07,-11.16 -20.13,-17.29 -31.19,-28.45 -42.62,-43.01 -91.5,-80.71 -131.48,-126.12 -5.86,-6.64 -6.88,-9.58 -13.53,-16.3 -11.44,-11.56 -18.53,-17.99 -28.8,-30.85l-54.03 -62.57c-9.43,-10.82 -16.85,-20.1 -25.38,-31.56 -7.62,-10.23 -21.1,-23.04 -24.03,-35.62 20.09,-4.68 256.89,-148.03 301.91,-172.61 16.62,-9.07 86.74,-53.76 102.11,-57.87 -4.04,-17.3 -16.97,-32.51 -25.34,-47.87l-107.39 -185.46c-9.16,-15.91 -17.14,-30.56 -26.76,-46.44 -9.6,-15.86 -17.06,-30.33 -26.75,-46.46 -9.8,-16.3 -18.03,-33.1 -27.97,-47.95 -11.26,3 -37.89,21.11 -50.59,28.04 -17.99,9.82 -34.07,19.22 -51.59,29.75l-101.33 58.66c-67.38,38.8 -134.4,80.32 -203.22,116.74 -25.13,-47.51 -42.39,-106.87 -59.31,-157.62 -38.66,-116.03 -59.92,-231.92 -77.46,-356.37 -4.64,-32.87 -4.7,-68.86 -8.91,-99.55l-3.45 -107.72c0,-67.03 3.98,-143.15 12.4,-204.53 16.62,-121.34 38.65,-243.21 76.73,-357.1 17.33,-51.81 34.12,-110.71 60,-159.63 86.02,45.52 168.03,98.09 253.01,145.58l101.34 58.64c15.64,9.39 34.74,24.26 52.38,28.97 26.29,-39.28 57.34,-97.5 80.5,-139.13l107.43 -185.42c7.58,-13.56 23.07,-35.87 26.28,-49.64 -17.2,-4.59 -35.44,-18.82 -50.67,-27.97l-300.9 -173.61c-9.46,-5.16 -17.09,-10.4 -25.47,-15.2 -7.48,-4.29 -10.16,-5.19 -27.39,-14.53 38.79,-51.71 43.66,-58.05 52.77,-68.83 51.19,-60.57 104.17,-119.78 162.49,-173.73 79.46,-73.49 168.36,-146.5 260.81,-202.86 67.4,-41.09 127.18,-74.79 198.6,-110.51 85.38,-42.69 174.7,-73.54 265.61,-103.15 80.85,-26.33 219.04,-56.7 307.42,-64.06l0 469.09 433.84 0 0 -469.09c111.16,9.25 292.65,52.82 397.45,93.34 181.17,70.04 326.5,143.34 481.07,259.16 52.39,39.25 101.11,83.79 151.05,125.53 27.69,23.15 51.86,51.66 77.4,77.15 5.3,5.29 10.04,9.36 14.79,15.04l112.76 133.99c4.86,6.46 10.72,12.11 12.77,19.76 -20.7,4.83 -379,223.8 -404.02,230.48 5.2,22.31 161,280.25 186.17,326.31 9.09,16.65 18.18,33.15 28.04,47.88 14.9,-3.47 86.81,-49.18 102.2,-57.78l101.7 -58.28c57.37,-34.4 143.08,-85.51 202.83,-117.13 5.78,10.93 9.77,23.73 15.36,36.16 17.46,38.81 29.67,78.68 43.27,119.42 38.13,114.25 65.45,230.98 77.19,353.93 17.43,182.58 18.99,325.95 -11.47,506.92 -33.54,199.29 -94.66,374.8 -184.88,555.37 -22.61,45.25 -50.33,86.78 -75.91,130.15 -5.03,8.53 -11.23,20.23 -18.12,25.27 -14.19,-3.79 -82.72,-60 -95.67,-69.72l-235.52 -176.63c-16.35,-12.27 -31.7,-24.45 -48.42,-35.64 0.28,12.22 4,29.47 5.89,42.91 1.98,13.99 4.16,29.13 6.5,45.03l146.03 1028.05c3.37,25.53 -0.54,23.43 25.1,19.36 28.27,-4.49 60.22,-8.79 90.19,-12.95 334.82,-46.38 669.77,-97.76 1004.68,-142.34 29.61,-3.94 24.78,-1.32 -10.18,-27.56 -40.06,-30.07 -77.06,-58.48 -117.37,-88.7 -60.92,-45.66 -173.47,-134.31 -234.35,-175.08 15.66,-29.61 81.25,-124.87 109.33,-175.38 212.15,-381.63 327.22,-792.61 327.22,-1237.31 0,-404.96 -94.75,-747.26 -219.67,-1027.63l-50.58 -103.97c-18.18,-36.38 -35.61,-68.66 -54.99,-102.27 -79.75,-138.34 -184.36,-294.58 -292.33,-409.96l-36.53 -42.1c-6.64,-6.72 -12.85,-11.95 -19.01,-18.95 -7.63,-8.66 -10.34,-13.1 -18.99,-21.67 -13.83,-13.7 -25.56,-25.55 -39.33,-39.31 -110.49,-110.5 -230.82,-213.87 -361.31,-300.29 -71.39,-47.28 -143.03,-93.4 -218.72,-133.78 -9.51,-5.07 -14.08,-8.46 -24.39,-13.57l-79.55 -39.76c-88.54,-44.28 -182.83,-82.19 -276.92,-113.53 -558.68,-186.1 -1178.88,-179.27 -1726.49,40.71 -18.34,7.37 -36.52,14.63 -55.54,23.09 -19.26,8.57 -36.1,14.68 -55.13,23.51 -87.56,40.63 -171.93,83.91 -254.24,133.5l-187.06 124.77c-16.3,11.72 -30.14,21.16 -45.32,33.31 -39.77,31.81 -130.87,102.86 -171.17,143.36l-210.38 218.04 -70.05 84.5c-53.33,65.48 -99.33,136.27 -146.2,206.3l-30.05 48.58c-10.24,17.2 -19.28,32.15 -28.89,49.74 -118.93,217.8 -209.98,428.12 -263.65,674.53 -37.61,172.67 -63.51,353.64 -63.51,562.85z"/>
  <path class="fil0" d="M2756.28 2476.75c-6.45,0 -75.87,-43.38 -176.25,-43.38 -206.78,0 -376.9,170.02 -376.9,376.9 0,207.11 169.72,376.9 376.9,376.9 149.23,0 264.48,-86.56 321.14,-180.49 14.26,-23.63 31.25,-58.43 38.95,-85.78 4.92,-17.46 8.23,-32.21 11.42,-50.95 1.62,-9.52 4.4,-49.48 6.76,-55.6 3.86,-10.04 40.38,-39.02 46.81,-45.38 46.84,-46.35 101.91,-93.86 146.37,-138.34l143.67 -135.61c7.23,-7.27 10.5,-8.61 17.64,-14.9 11.74,-10.34 20.71,-22.39 32.68,-32.39l162.57 -151.97c21.03,-21.05 87.86,-79.31 96.94,-92.87l-848.7 273.86z"/>
 </g>
</svg>
