<svg width="20" height="22" fill="none" xmlns="http://www.w3.org/2000/svg"><path d="M12.896 13.349a.62.62 0 00.23.044.594.594 0 00.345-.107l.485-.346.485.346c.163.116.383.14.575.063.192-.077.31-.238.31-.419v-1.956c.417-.322.68-.787.68-1.303 0-.968-.92-1.755-2.05-1.755s-2.05.787-2.05 1.755c0 .517.263.982.679 1.303v1.956c0 .181.119.342.31.419zm1.732-.708l-.327-.233a.612.612 0 00-.69 0l-.328.233v-1.313a2.351 2.351 0 001.346 0v1.313zm-.672-4.127c.745 0 1.35.519 1.35 1.157s-.605 1.157-1.35 1.157c-.745 0-1.351-.52-1.351-1.157 0-.638.606-1.157 1.35-1.157z" fill="#FF7643"/><path d="M18.081.687H1.782C1.08.687.506 1.177.506 1.78v18.25c0 .602.573 1.092 1.276 1.092h16.3c.703 0 1.276-.49 1.276-1.093V1.78c0-.602-.573-1.093-1.277-1.093zm.578 19.342c0 .273-.259.495-.578.495H1.782c-.318 0-.578-.222-.578-.495V1.78c0-.273.26-.495.578-.495h16.3c.318 0 .577.222.577.495v18.25z" fill="#FF7643"/><path d="M17.047 2.162H2.817c-.308 0-.56.214-.56.478v11.278c0 .165.157.3.35.3.193 0 .35-.135.35-.3V2.76h13.95v16.29H2.957v-3.724c0-.165-.157-.299-.35-.299-.193 0-.35.134-.35.3v3.843c0 .263.252.478.56.478h14.23c.308 0 .559-.215.559-.478V2.64c0-.264-.25-.478-.559-.478z" fill="#FF7643"/><path d="M16.005 4.606c0-.339-.322-.615-.718-.615H4.577c-.396 0-.719.276-.719.615v1.14c0 .34.323.616.719.616h7.492c.193 0 .349-.134.349-.3 0-.164-.156-.298-.35-.298h-7.49c-.011 0-.02-.008-.02-.017v-1.14c0-.01.009-.018.02-.018h10.71c.01 0 .02.008.02.017v1.14c0 .01-.01.018-.02.018H13.67c-.193 0-.349.134-.349.299 0 .165.156.299.35.299h1.615c.396 0 .718-.276.718-.615v-1.14zm-10.06 11.96c-.284.542-.094.806.116.933.492.295 1.1-.171 1.392-.396l.004-.002c.094.184.252.33.457.418.509.222.935.002 1.244-.276.073.114.165.214.274.296.276.207.672.28 1.09.28a5.57 5.57 0 001.102-.128c.187-.04.302-.201.257-.362-.046-.16-.235-.259-.422-.22-.744.155-1.344.148-1.566-.019-.192-.144-.23-.395-.235-.532-.005-.132-.11-.245-.258-.28a.378.378 0 00-.387.13c-.352.482-.594.66-.784.578a.27.27 0 01-.152-.172.458.458 0 01.064-.392c.102-.141.05-.325-.113-.412-.164-.087-.38-.043-.48.097-.152.21-.347.387-.56.55-.246.189-.392.273-.477.31.035-.112.153-.33.487-.751a39.52 39.52 0 011.075-1.306l.007-.008c.11-.126.087-.303-.053-.406a.393.393 0 00-.476.018c-.795.692-2.083 1.019-3.281.834-.19-.03-.372.078-.406.24-.034.163.092.319.281.348.805.125 1.625.06 2.362-.168l-.086.111c-.127.16-.339.426-.476.687zm2.915-8.65c-.193 0-.35.134-.35.299 0 .165.157.299.35.299h1.072c.193 0 .349-.134.349-.299 0-.165-.156-.3-.35-.3H8.86zm-4.653.598h2.915c.193 0 .35-.134.35-.299 0-.165-.157-.3-.35-.3H4.207c-.192 0-.349.135-.349.3 0 .165.157.299.35.299zm0 1.381h5.725c.193 0 .349-.134.349-.299 0-.165-.156-.299-.35-.299H4.208c-.192 0-.349.134-.349.3 0 .164.157.298.35.298zm6.073 1.083c0-.166-.155-.3-.348-.3h-2.81c-.193 0-.35.134-.35.3 0 .165.157.299.35.299h2.81c.193 0 .349-.134.349-.3zm-6.073.299h1.22c.192 0 .348-.134.348-.3 0-.165-.156-.298-.349-.298H4.207c-.192 0-.349.133-.349.299 0 .165.157.299.35.299zm0 1.381h4.361c.193 0 .35-.134.35-.3 0-.164-.157-.298-.35-.298h-4.36c-.193 0-.35.134-.35.299 0 .165.157.299.35.299z" fill="#FF7643"/></svg>