<?xml version="1.0" encoding="UTF-8"?>
<!DOCTYPE svg PUBLIC "-//W3C//DTD SVG 1.1//EN" "http://www.w3.org/Graphics/SVG/1.1/DTD/svg11.dtd">
<!-- Creator: CorelDRAW 2019 (64-Bit) -->
<svg xmlns="http://www.w3.org/2000/svg" xml:space="preserve" width="52mm" height="52mm" version="1.1" style="shape-rendering:geometricPrecision; text-rendering:geometricPrecision; image-rendering:optimizeQuality; fill-rule:evenodd; clip-rule:evenodd"
viewBox="0 0 5200 5200"
 xmlns:xlink="http://www.w3.org/1999/xlink"
 xmlns:xodm="http://www.corel.com/coreldraw/odm/2003">
 <defs>
  <style type="text/css">
   <![CDATA[
    .fil0 {fill:white}
   ]]>
  </style>
 </defs>
 <g id="Слой_x0020_1">
  <metadata id="CorelCorpID_0Corel-Layer"/>
  <path class="fil0" d="M1398.79 2538.78c195.58,0 391.16,0.05 586.73,0 29.65,-0.01 217.35,3 245.25,10.46 18.54,4.95 15.95,1.71 9.1,18.11 -6.16,14.75 -17.72,33.89 -24.75,47.96 -8.47,16.93 -16.74,34.36 -25.45,51.08l-122.45 239.8c-9.23,17.74 -17.24,28.92 -27.29,49.23 -17.18,34.69 -32.72,65.5 -49.3,98.66l-299.32 583.34c-17.85,35.68 -33.78,62.13 -51.03,96.92 -113.8,229.45 -238.34,454.41 -352.04,683.68 -17.36,34.99 -31.95,63.67 -49.31,98.66 -17.25,34.79 -33.18,61.24 -51.03,96.93 -17.82,35.64 -31.98,63.12 -50.95,97l-100.41 195.51c-32.61,65.23 -67.94,129.44 -102.04,193.88 35.4,-9.45 71.52,-68.88 98.12,-95.76 34.14,-34.51 63.38,-66.76 97.14,-101.84 10.89,-11.31 11.14,-14.15 20.53,-25.39 39.56,-47.32 134.5,-137.65 166.87,-180.07 14.76,-19.35 29.82,-31.49 47.29,-49.64 10.89,-11.31 11.14,-14.15 20.54,-25.39l71.15 -76.8c9.28,-9.16 17.06,-15.9 25.52,-25.51l260.23 -285.68c72.31,-71.24 160.56,-179.95 237.36,-257.54l283.16 -308.67c10.89,-11.32 11.14,-14.15 20.54,-25.39l168.36 -183.67c28.15,-33.68 65.52,-65.96 93.93,-99.95 56.73,-67.86 195.66,-207.86 233.25,-256.55l142.05 -153.86c18.03,-17.88 26.91,-32.45 45.84,-51.1 9.72,-9.58 16.72,-15.64 25,-26.02 36.98,-46.35 82.35,-84.13 118.75,-131.26l233.71 -256.08c9.55,-9.65 16.23,-15.45 25.71,-25.31 11.5,-11.94 12.6,-16.43 22.9,-28.12l166 -180.94c38.34,-45.86 183.19,-192.31 212.79,-231.09l141.58 -154.33c16.05,-15.81 35.32,-37.12 47.19,-54.86 -92.62,0 -174.01,-5.1 -270.41,-5.1 -76.65,0 -209.32,7.4 -277.66,-2.95 -64.92,-9.82 -200.4,-2.15 -273.36,-2.15 -98.31,0 -178.94,-5.1 -275.51,-5.1 6.28,-23.52 962.05,-1451.26 1086.74,-1637.76 12.44,-18.61 24.98,-35.83 35.71,-56.12l-1096.94 0c-57.38,0 -100.8,5.62 -153.08,5.08 -27.9,-0.29 -50.75,-4.6 -64.35,12.18 -16.6,20.49 -396.22,750.83 -406.72,771.86 -85.88,172.1 -183.15,339.51 -268.66,511.94 -9.34,18.83 -17.44,29.73 -27.33,49.2l-461.52 880.32c-18.15,29.8 -101.08,181.8 -108.13,208.2z"/>
  <path class="fil0" d="M286.54 2574.49c0,440.76 81.8,742.35 265.27,1112.28l59.06 104.21c22.12,36.79 41.1,66.17 63.41,99.86 11.36,17.15 21.58,29.53 33.71,47.92 80.93,122.62 254.86,315.85 365.8,409.71l69.9 57.65 168.39 -336.72 -228.01 -251.62c-60.31,-74.53 -148,-200.43 -192.16,-287.43 -104.98,-206.85 -187.24,-418.49 -216.16,-651.18l-11.54 -182.35c0.16,-36.14 -5.37,-52.9 -5.26,-91.69l8.84 -185.11c9.85,-74.5 2.59,-79.23 21.29,-172.59 32.45,-162.09 78.6,-291.42 141.91,-439.72 15.98,-37.43 43.31,-92.05 62.92,-125.85 53.56,-92.31 126.52,-208.17 195.23,-289.47l112.17 -127.62 178.64 -163.2c18.53,-15.65 35.37,-28.31 53.85,-43.09 196.13,-156.89 461.88,-276.87 720.09,-341.13 57.99,-14.43 50.78,0.79 98.64,-95.24l132.65 -255.1c28.75,-57.4 38.09,-57.83 -22.11,-57.83 -96.74,0 -296.11,45.2 -395.86,73.53 -192.91,54.78 -441.69,162.06 -608.21,274.44l-233.57 169.49c-75.87,59.99 -212.77,194.89 -276.13,269.79 -338.98,400.66 -562.76,920.33 -562.76,1478.06zm3311.23 -1627.55c42.17,11.26 241.07,178.89 279.1,210.69 217.51,181.87 407.74,446.3 513.18,711.31 8.35,20.99 15.84,39.71 23.32,58.32 41.56,103.44 87.68,276.7 103.07,386.72 2.93,20.99 7.05,52.44 9.12,72.51 2.53,24.48 5.43,55.08 6.05,75.59 1.71,57.45 4.93,103.59 4.93,158.33 0,44.95 -5.49,71.22 -5.16,112.18 0.31,39.15 -1.75,73.49 -6.45,110.9 -37.75,300.32 -128.66,529.63 -278.91,782.31 -39.34,66.17 -151.39,220.59 -203.07,271.42l-58.7 63.75c-142.11,142 -292.54,259.54 -471.52,355.01 -256.01,136.57 -545.77,227.9 -843.53,227.9 -290.99,0 -427.35,-10.02 -699.67,-101.36 -176.42,-59.17 -156.9,-87.04 -237.9,0.53l-66.32 71.43c-12.86,13.9 -16.06,21.61 -30.49,35.84l-98.28 110.9c166.08,87.88 331.11,149.1 535.66,199.05 97.36,23.77 209.03,38.89 317.16,50.18 82.75,8.64 173.28,7.29 259.16,5.74 29.89,-0.54 67.76,2.61 96.46,-0.61 257.28,-28.85 366.42,-37.93 614.96,-124.83 45.38,-15.87 88.86,-32.89 132.12,-51.56 82.59,-35.64 112.68,-53.83 185.62,-89.89 70.48,-34.84 167.19,-95.6 231.33,-141.12 45.99,-32.64 168.11,-122.14 207.93,-159.41l142.74 -137.87c232.99,-232.2 380.98,-487.61 502.09,-788.73 142.33,-353.89 180.85,-802.85 115.89,-1193.9 -23.42,-141.01 -67.31,-311.55 -120.2,-446.13 -9.2,-23.41 -17.63,-43.94 -26.91,-64.93l-160.5 -313.98 -241.16 -325.17c-9.41,-11.11 -9.67,-14.08 -20.56,-25.36l-43.41 -48.43c-56.12,-60.67 -160.19,-152.2 -225.43,-203.14 -40.74,-31.8 -195.95,-155.21 -232.54,-155.21 -26.27,0 -144.89,188.06 -163.51,219.15 -12.89,21.53 -39.65,56.01 -45.67,81.87z"/>
 </g>
</svg>
