<svg width="24" height="24" fill="none" xmlns="http://www.w3.org/2000/svg"><path fill-rule="evenodd" clip-rule="evenodd" d="M13.333 18.09a.84.84 0 01-.833.848.841.841 0 01-.833-.849.84.84 0 01.833-.849c.46 0 .833.38.833.85zm.5-12.459c0 .282-.223.51-.5.51h-1.666a.504.504 0 01-.5-.51c0-.282.223-.508.5-.508h1.666c.277 0 .5.226.5.508zM17 18.792a1.18 1.18 0 01-1.167 1.19H9.167A1.18 1.18 0 018 18.792V5.207a1.18 1.18 0 011.167-1.189h6.666A1.18 1.18 0 0117 5.207v13.585zM15.833 3H9.167C7.972 3 7 3.99 7 5.207v13.585C7 20.01 7.972 21 9.167 21h6.666C17.028 21 18 20.01 18 18.792V5.207C18 3.99 17.028 3 15.833 3z" fill="#FF7643"/></svg>