<svg width="34" height="32" fill="none" xmlns="http://www.w3.org/2000/svg"><g clip-path="url(#clip0)" stroke="#fff" stroke-width="2" stroke-linecap="round" stroke-linejoin="round"><path d="M23.889 28v-2.667c0-1.414-.58-2.77-1.614-3.77A5.606 5.606 0 0018.378 20H7.356a5.606 5.606 0 00-3.897 1.562 5.247 5.247 0 00-1.614 3.771V28m11.022-13.333c3.043 0 5.51-2.388 5.51-5.334 0-2.945-2.466-5.333-5.51-5.333-3.044 0-5.511 2.388-5.511 5.333 0 2.946 2.467 5.334 5.51 5.334zM32.156 28v-2.667A5.224 5.224 0 0031 22.07a5.528 5.528 0 00-2.978-1.897m-5.511-16a5.529 5.529 0 012.987 1.897 5.224 5.224 0 011.157 3.27 5.224 5.224 0 01-1.157 3.27 5.53 5.53 0 01-2.987 1.897"/></g><defs><clipPath id="clip0"><path fill="#fff" transform="translate(.467)" d="M0 0h33.067v32H0z"/></clipPath></defs></svg>