<?xml version="1.0" encoding="UTF-8"?>
<!DOCTYPE svg PUBLIC "-//W3C//DTD SVG 1.1//EN" "http://www.w3.org/Graphics/SVG/1.1/DTD/svg11.dtd">
<!-- Creator: CorelDRAW 2019 (64-Bit) -->
<svg xmlns="http://www.w3.org/2000/svg" xml:space="preserve" width="52mm" height="52mm" version="1.1" style="shape-rendering:geometricPrecision; text-rendering:geometricPrecision; image-rendering:optimizeQuality; fill-rule:evenodd; clip-rule:evenodd"
viewBox="0 0 5200 5200"
 xmlns:xlink="http://www.w3.org/1999/xlink"
 xmlns:xodm="http://www.corel.com/coreldraw/odm/2003">
 <defs>
  <style type="text/css">
   <![CDATA[
    .fil0 {fill:white}
   ]]>
  </style>
 </defs>
 <g id="Слой_x0020_1">
  <metadata id="CorelCorpID_0Corel-Layer"/>
  <path class="fil0" d="M1504.85 484.99l2570.66 -0.12c63.67,-0.26 120.71,12.3 165.42,33.12 42.36,19.73 81.52,54.37 108.5,90.03 104.67,138.39 61.58,337.53 -107.14,425.28 -85.57,44.51 -252.3,31.63 -365.44,31.63l-2372 0c6.18,-26.49 67.92,-128.38 67.92,-245.56 0,-115.11 0.7,-165.27 -43.24,-275.46l-24.68 -58.92zm-1217.34 282.14l0 3683.38c0,102.13 57.6,133.36 129.31,205.07l211.53 206.44c10.64,9.84 12.83,9.67 23.34,18.45 72.88,60.93 212.3,244.02 304.58,244.02 113.17,0 132.58,-42.12 204.96,-113.74l75.86 -70.43c26.52,-26.52 49.37,-49.16 75.71,-75.8l301.77 -288.62c20.48,5.47 62.27,54.82 79.58,71.95 15.54,15.37 26.1,20.44 41.97,36.39 44.82,45.05 87.33,91.38 134.95,131.51l254.19 247.38c44.85,45.38 90.54,82.26 158.07,82.26 88.65,0 151.76,-80.65 210.24,-139.8 15.37,-15.55 24.36,-20.04 39.3,-33.85 24.81,-22.96 46.28,-46.41 70.47,-70.6 27,-27.01 286.05,-274.41 286.05,-278.22 0,-11.71 -25.63,-71.1 -30.6,-84.34 -23.36,-62.27 -62.06,-229.72 -63.45,-291.83 -28.54,7.62 -89.46,88.73 -129.84,120.94 -64.33,51.32 -117.14,119.39 -159.05,154.43l-223.12 215.75 -236.38 -223.4c-48.04,-42.3 -91.57,-94.12 -156.74,-151.51 -52.65,-46.37 -74.19,-79.78 -138.26,-133.43 -28.34,-23.73 -57.69,-66.38 -132.15,-66.38 -44.74,0 -83,16.55 -108.27,38.03 -57.02,48.48 -243.46,232.68 -305.79,295.05l-154.02 149.01c-14.89,14.32 -24.12,18.44 -39.37,33.77 -14.11,14.2 -24.61,27.38 -40.41,37.96l-297.03 -288.14c-11.95,-9.53 -42.57,-28.66 -42.57,-46.24l0 -3625.91c0,-236.25 318.46,-365.71 505.55,-192.08 172.14,159.74 96.91,415.65 -105.07,482.85 -93.91,31.24 -121.88,2.75 -189.97,39.91 -92.99,50.75 -115.44,180.51 -39.49,266.32 19.55,22.09 66.78,50.85 105.88,50.85l3019.85 0 0 1473.36c120.73,0 147.29,-13.66 290.52,7.28 19.09,2.79 36.06,7.99 54.31,8.39l0 -1499.47c0,-19.67 35.69,-18.6 88.69,-41.94 34.12,-15.02 59.2,-28.44 89.31,-46.52 84.23,-50.57 149.27,-123.02 203.46,-204.06 135.77,-203.03 121.2,-494.44 -23.94,-686.74 -23.7,-31.41 -44.28,-58.13 -71.41,-85.33l-86.46 -70.28c-97.35,-65.56 -226.53,-113.83 -356.39,-113.83l-3213.16 0c-337.28,0 -616.51,294.73 -616.51,621.74zm2058.51 2795.19c157.04,0 320.65,-21.76 460.49,-72.43 16.63,-6.02 49.29,-24.73 60.74,-23.07 14.51,2.11 139.1,89.3 -114.45,183.57 -246.68,91.73 -741.61,85.05 -930.07,-61.12 -71.89,-55.75 -38.85,-104.33 -3.84,-120.37 13.92,-6.38 6.15,-5.82 48.2,13.3 56.11,25.51 150.15,48.78 218.57,58.35 83.06,11.63 166.78,21.77 260.36,21.77zm57.47 -120.17c-157.82,0 -256.48,1.11 -410.93,-43.61 -59.94,-17.35 -210.8,-71.24 -210.8,-134.03 0,-34.94 24.56,-59.73 39.95,-64.55 4.86,-1.52 141.51,48.31 199.07,60.64 189.6,40.61 412.34,48.34 607.86,9.63 155.59,-30.81 210.53,-66.81 239.85,-73.64 102.94,68.93 9.44,129.68 -62.01,162.65 -10.34,4.77 -22.18,9.98 -32.72,14.31 -102.1,41.92 -248.3,68.6 -370.27,68.6zm-1321.83 -360.5c0,-29.98 27.58,-41.47 41.79,-62.7 145.74,77.12 372.27,99.27 538.14,99.27l0 146.29c-131.86,0 -257.12,-4.51 -378.2,-44.99 -55.65,-18.6 -201.73,-66.98 -201.73,-137.87zm0 -256.01c0,-33.56 22.35,-64.34 39.91,-69.81 13.74,-4.28 19.65,3.07 35.4,10.02 55.92,24.7 137.63,46.35 197.64,58.52 50.82,10.3 324.59,46.31 374.9,22.17 -6.82,25.55 -27.73,24.6 -51.45,73.94 -29.7,61.79 -3.02,81.03 -32.92,81.04 -137.89,0.05 -435.12,-34.88 -538.91,-137.76 -7.29,-7.23 -24.57,-27.31 -24.57,-38.12zm606.06 -94.04c-143.07,0 -256.04,-4 -386.03,-42.4 -346.4,-102.34 -178.97,-203.16 -178.24,-203.16l111.68 39.83c235.45,79.21 581.1,75.99 819,2.65l114.26 -42.48c90.34,60.5 30.49,111.32 -40.69,152.63 -99.58,57.81 -314.32,92.93 -439.98,92.93zm-36.58 -266.46c-110.61,0 -248.73,-14.26 -336.25,-39.92 -59.76,-17.53 -233.23,-64.32 -233.23,-148.17 0,-14.61 25.37,-47.51 36.57,-52.72 16.16,-7.53 38.6,9.74 61.21,17.63 42.18,14.72 94.68,30.56 137.66,39.98 261.89,57.39 545.56,47.57 795.87,-39.4 25.35,-8.81 33.98,-16.75 60.64,-22.96 17.9,26.73 81.26,58.19 -2.12,123.28 -79.51,62.07 -218.07,92.98 -320.88,107.53 -58.74,8.31 -131.16,14.75 -199.47,14.75zm-689.65 -428.42l0 1024.03c0,89.43 30.74,123.74 76.95,168.61 38.39,37.29 106.8,67.79 162.72,88.07 128.11,46.45 294.36,67.25 460.43,67.25 0,152.05 -20.32,210.01 84.77,296.63 45,37.08 96.78,61.05 158.8,81.54 266.14,87.91 611.89,89.24 877.77,1.27 97.94,-32.41 247.52,-105.71 247.52,-227.93l0 -548.58c0,-239.86 -498.45,-297.81 -700.1,-297.81 12.97,-27.03 5.1,-516.36 5.23,-616.51 0.16,-132.45 -33.9,-195.23 -160.21,-257.77 -321.04,-158.97 -1049.74,-139.93 -1191.42,118.27 -15.53,28.32 -22.46,61.05 -22.46,102.93z"/>
  <path class="fil0" d="M3192.42 4131.81c0,-166.24 12.73,-277.46 85.32,-421.47l124.4 -189.09c43.39,-53.77 109.74,-112.13 167.43,-151.26 23.48,-15.93 39.29,-24.68 64.72,-39.78 226.22,-134.33 534.63,-145.78 775.34,-39.44 26.88,11.88 44.27,18.76 70.28,34.21 64.13,38.11 134.48,83.66 187.24,136.69 144.88,145.6 265.08,363.75 265.08,586.54 0,202.55 -25.07,325.42 -123.11,488.18 -30.15,50.04 -74.02,110.8 -113.24,153.21 -30.03,32.46 -32.74,30.26 -57.45,52.27 -12.21,10.88 -13.72,13.41 -27.85,24.4 -335.4,260.93 -761.74,262.49 -1094.27,2.98 -178.82,-139.55 -323.89,-399.09 -323.89,-637.44zm-161.97 -73.15c0,119.14 1.36,167.8 30.28,283.2 9.27,36.98 17.29,61.55 29.1,96.3l56.57 126.29c8.85,14.51 13.06,25.36 22.08,40.62 16.75,28.33 31.25,49.95 48.96,76.42 41.84,62.54 90.79,112.86 143.37,164.89 67.13,66.42 177.32,134.91 261.71,177.16 263.11,131.75 618.11,125.46 883.1,-1.73 636.11,-305.33 795.16,-1151.07 284.24,-1661.95l-65.27 -60.12c-36.54,-32.64 -71.79,-55.89 -112.08,-81.24 -162.29,-102.07 -326.72,-156.13 -534.26,-161.44 -143.3,-3.67 -314.09,34.24 -420.78,82.12 -57.36,25.74 -113.49,56.4 -165.15,90.85 -57.14,38.1 -97.15,69.45 -144.47,116.77 -100.39,100.4 -147.36,157.25 -216.45,295.57 -51.49,103.06 -100.95,264.25 -100.95,416.29zm522.47 151.52l388.85 3c12.1,45.98 3,338.71 3,409.74 1.56,70.05 83.33,57.41 135.84,57.48 56.67,0.07 114.84,8.8 115.19,-78.12 0.52,-128.86 -0.25,-257.98 -0.25,-386.88 94.04,0 188.09,0 282.13,0 153.11,0 162.03,4.47 161.97,-120.17 -0.02,-41.86 9.39,-90.09 -25.98,-115.09 -25.34,-17.91 -88.92,-10.3 -130.76,-10.3 -95.79,0 -191.57,0 -287.36,0l0.02 -360.52c0.2,-46.75 0.89,-71.96 -27.99,-92.17 -26.24,-18.37 -66.19,-12.25 -107.87,-12.3 -145.25,-0.19 -120.17,41.07 -120.17,245.56l-0.02 178.02c0.94,32 10.4,37.64 -10.18,41.31 -38.66,6.89 -288.52,-1.56 -366.31,-0.23 -81.71,1.39 -72.61,99.31 -67.47,172.63 2.6,36.97 18.21,67.16 57.36,68.04z"/>
 </g>
</svg>
