<svg xmlns="http://www.w3.org/2000/svg" width="210mm" height="205mm" viewBox="0 0 21000 20500" aria-hidden="true" data-prefix="fas" data-icon="arrow-right" shape-rendering="geometricPrecision" text-rendering="geometricPrecision" image-rendering="optimizeQuality" fill-rule="evenodd" clip-rule="evenodd"><path d="M8929.69 1385.94L9970.32 345.31c440.63-440.63 1153.13-440.63 1589.06 0l9112.5 9107.81c440.63 440.63 440.63 1153.13 0 1589.06l-9112.5 9112.51c-440.63 440.63-1153.13 440.63-1589.06 0l-1040.63-1040.63c-445.31-445.31-435.94-1171.88 18.75-1607.81L14596.88 12125H1125c-623.44 0-1125-501.56-1125-1125V9500c0-623.44 501.56-1125 1125-1125h13471.88L8948.44 2993.75c-459.38-435.94-468.75-1162.5-18.75-1607.81z" fill-rule="nonzero" id="Слой_x0020_1"/></svg>