<svg xmlns="http://www.w3.org/2000/svg" width="210mm" height="205mm" viewBox="0 0 21000 20500" aria-hidden="true" data-prefix="fas" data-icon="arrow-left" shape-rendering="geometricPrecision" text-rendering="geometricPrecision" image-rendering="optimizeQuality" fill-rule="evenodd" clip-rule="evenodd"><path d="M12070.31 19114.06l-1040.63 1040.63c-440.63 440.63-1153.13 440.63-1589.06 0l-9112.5-9107.81c-440.63-440.63-440.63-1153.13 0-1589.06l9112.5-9112.51c440.63-440.63 1153.13-440.63 1589.06 0l1040.63 1040.63c445.31 445.31 435.94 1171.88-18.75 1607.81L6403.12 8375H19875c623.44 0 1125 501.56 1125 1125v1500c0 623.44-501.56 1125-1125 1125H6403.12l5648.44 5381.25c459.38 435.94 468.75 1162.5 18.75 1607.81z" fill="#fff" fill-rule="nonzero" id="Слой_x0020_1"/></svg>