<svg xmlns="http://www.w3.org/2000/svg" width="210mm" height="20mm" viewBox="0 0 21000 2000" xmlns:xlink="http://www.w3.org/1999/xlink" shape-rendering="geometricPrecision" text-rendering="geometricPrecision" image-rendering="optimizeQuality" fill-rule="evenodd" clip-rule="evenodd"><defs><linearGradient id="id0" gradientUnits="userSpaceOnUse" x1="2859" y1="-224" x2="3284" y2="1510"><stop offset="0" stop-color="#ffbe1d"/><stop offset="1" stop-color="#ff8d03"/></linearGradient><linearGradient id="id1" gradientUnits="userSpaceOnUse" xlink:href="#id0" x1="8996" y1="-224" x2="9421" y2="1510"/><linearGradient id="id2" gradientUnits="userSpaceOnUse" xlink:href="#id0" x1="13061" y1="743" x2="13349" y2="829"/><style>.str0{stroke:#0082c8;stroke-width:15}.fil3{fill:none;fill-rule:nonzero}.fil0{fill:#0082c8}.fil1{fill-rule:nonzero}.fil2{fill:#0082c8}.fil2,.fil6{fill-rule:nonzero}.fil1,.fil6{fill:#2e2e2e}</style></defs><g id="Слой_x0020_1"><path class="fil0" d="M812 1255c-6 0-66 13-107 13-16 0-33 1-49 0-21-2-45-4-65-8-26-5-52-10-77-19-24-9-46-17-69-28l-32-16c-34-19-62-41-92-65-3-2-4-4-7-6-13-12-24-21-36-36l-12-13c-5-5-7-8-11-13-30-37-53-77-74-119-5-11-9-22-14-34-28-70-44-174-33-250 6-44 7-55 20-102 2-7 3-12 6-19 7-18 13-35 20-52 12-27 26-53 43-78 7-10 13-19 20-28l45-53c5-6 12-11 18-17l32-29c9-8 18-14 28-21l29-19c2-1 5-3 7-5 3-2 5-3 7-4 15-9 32-17 48-25l17-7c33-15 76-26 112-33 6-1 14-2 21-3 19-3 47-6 67-6h25l45 3c44 6 79 13 119 26 6 2 12 4 18 7 6 2 12 4 18 7l33 15c45 21 85 51 123 82 17 14 41 39 54 56 14 18 29 36 41 56 2 4 7 13 10 15 0-6-6-13-8-17-19-31-40-66-65-93l-13-14c-6-8-18-19-26-27l-35-31c-3-2-4-4-7-6s-5-3-7-6c-3-3-4-4-8-6-5-4-10-7-15-11-14-10-29-20-45-28l-4-3c-36-22-90-42-131-53-22-6-42-11-65-14-35-5-73-6-112-6l-11 1h-1c-8 1-17 1-25 1-7 1-17 2-23 3-8 1-16 2-23 4-48 9-95 23-139 44l-85 48c-18 12-36 25-52 40l-21 19c-13 13-28 26-39 41-4 5-8 9-12 14-20 25-39 50-54 78l-22 43c-2 3-3 6-4 9-3 6-6 13-8 19-24 59-34 103-42 169l-2 88c0 25 10 79 16 104 13 51 32 106 59 151l30 48c24 36 54 68 85 97l68 54c16 11 33 20 49 29 14 8 29 16 45 22 12 5 25 11 38 15 7 2 12 4 19 6 37 11 71 18 109 23 9 1 25 2 41 3h56c1 0 3 0 4-1 7-1 18-2 24-2 29-1 72-13 100-19 5-1 7-1 10-4zm350-830z"/><path class="fil0" d="M700 243v862c0 13 20 17 27 7 5-7 2-39 2-48v-67c5 1 5 4 8 8l24 28c3 4 5 5 8 9 5 6 19 26 27 26 12 0 24-14 12-27l-77-89c-3-6-2-73-2-83 6 2 12 13 17 17 9 9 15 18 23 27l4 4 12 14c12 14 27 2 27-11 0-6-4-7-7-11-15-18-31-35-46-54l-13-15c-21-27-18-12-18-55v-74c5 1 7 5 10 8 10 10 65 63 67 69 1 4 1 11 2 17 1 5 1 14 2 18 0 6 1 12 1 17l4 55c1 15 1 26 16 26 22 0 14-27 13-44l-5-57c8 5 42 41 51 51 12 12 7 5 10 25 3 21 1 42 5 63 5 35-5 54 21 54 8 0 14-7 12-16l-7-85c8 6 52 51 62 62 9 9 22 26 35 13 12-13-4-25-13-34-11-11-57-55-62-63l85 7c16 2 21-20 11-28-6-4-49-5-62-6l-49-4c-25-3-13 4-42-26-9-9-28-26-34-35l83 6c20 3 22-24 9-29l-79-7c-10-1-40 0-46-3-2-1-75-74-77-78 10 0 103-2 108 1 7 3 30 26 39 34 16 13 38 35 54 46 14 10 33-11 17-25l-55-47c-2-1-8-7-9-8h67c28 0 17 1 44 23 6 5 11 11 17 15l31 27c11 9 27 29 38 10 5-8 3-15-4-20l-39-34c-7-6-18-13-23-20h102c6 0 9-1 13-4 3-2 2-1 4-4 7-13-2-23-18-22h-102l36-32c6-5 12-10 18-16 5-4 16-12 16-18 0-9-7-18-16-18-6 0-7 3-10 6s-6 5-9 7l-80 69c-5 3-74 1-83 1 5-7 56-48 66-58 9-9-2-25-14-25-7 0-28 22-35 28l-49 42c-3 3-12 12-15 13-6 2-99 0-110 0 3-5 14-15 19-20 6-6 54-56 59-57 9-3 56-4 71-6l27-1c5 0 4-1 9-1 7 0 13 0 18-2 15-5 10-31-6-29l-58 4c-9 0-20 2-29 2 5-8 41-42 51-51 11-11 7-8 25-10 15-1 103-6 110-9 12-5 8-30-8-29l-57 4c-9 0-20 2-29 2 5-8 61-61 72-73 12-12 8-28-10-28-7 0-17 13-23 18-11 11-53 56-62 61 0-14 4-42 5-57 1-10 1-19 2-30 1-14-19-20-27-10-4 5-5 50-6 62l-4 49c-3 26 2 16-25 43l-8 8-2 2c-6 6-19 22-25 24 1-18 3-38 5-55 1-10 1-18 2-29 2-15-22-22-29-9-1 2-2 15-2 18l-5 62c-1 10-1 38-4 46-2 6-33 35-38 40l-19 19-5 5-10 10c-3 3-2 3-7 4 0-11-2-102 1-108 2-3 6-7 9-10l68-79c19-19-8-39-21-22-16 21-35 39-51 60-3 3-1 3-5 4 0-11-2-78 1-83 2-4 6-7 9-10l22-25c6-7 12-13 17-20 2-2 3-3 4-5l17-20c2-2 3-2 4-5 3-4 7-7 8-10 5-10-7-21-16-21-10 0-33 34-42 42-4 4-5 6-8 9-5 5-11 16-17 17v-62c0-6 1-15 1-19-1-7-1-12-1-19 0-9 0-12-5-16-10-8-24-2-24 10z"/><path class="fil1" d="M2249 811h22v73c10 0 17-2 21-6s9-13 16-28c5-11 8-19 12-23 3-5 7-8 13-11s12-5 18-5h14v19h-8c-7 0-12 2-16 5s-7 11-12 22c-6 14-10 23-14 27s-9 7-14 9c11 3 22 13 32 30l35 56h-28l-28-45c-8-13-14-21-19-26s-12-7-20-7v78h-22V812z"/><path id="1" class="fil1" d="M5059 979v-23h23v23c0 9-2 16-5 21s-8 9-15 12l-6-9c4-2 8-5 10-8 2-4 3-9 3-16h-12z"/><path id="2" class="fil1" d="M2378 897c0-28 8-49 22-65 15-16 34-24 58-24 15 0 29 4 42 11 12 7 22 18 28 31 7 13 10 28 10 45s-3 32-10 45-17 24-29 30c-13 7-26 10-41 10-16 0-30-4-42-11-12-8-22-18-28-31s-10-27-10-42zm23 0c0 20 5 36 16 48s24 17 41 17 30-6 41-18 16-28 16-50c0-14-2-25-7-36-5-10-11-18-20-24s-19-8-30-8c-16 0-29 5-41 16-11 11-17 29-17 54z"/><path id="3" class="fil1" d="M2568 979V811h23v69h86v-69h22v168h-22v-79h-86v79z"/><path id="4" class="fil1" d="M2752 811h102v148h15v59h-20v-39h-111v39h-20v-59h13c14-20 20-61 20-123v-24zm80 20h-59v9c0 14-1 34-4 58-3 25-8 45-15 61h78V831z"/><path id="5" class="fil1" d="M2896 811h20v133l89-133h22v168h-20V847l-89 132h-22z"/><path id="6" class="fil1" d="M3064 811h22v148h87V811h22v148h16v66h-20v-46h-127z"/><path id="7" class="fil1" d="M3237 811h20v133l89-133h22v168h-20V847l-89 132h-22z"/><path id="8" class="fil1" d="M3398 897c0-28 7-49 22-65s34-24 58-24c15 0 29 4 42 11 12 7 22 18 28 31 7 13 10 28 10 45s-3 32-10 45-17 24-29 30c-13 7-26 10-41 10-16 0-30-4-42-11-12-8-22-18-28-31s-10-27-10-42zm23 0c0 20 5 36 16 48s24 17 41 17 30-6 41-18 16-28 16-50c0-14-2-25-7-36-5-10-11-18-20-24s-19-8-30-8c-16 0-29 5-41 16-11 11-17 29-17 54z"/><path id="9" class="fil1" d="M3588 979V811h22v69h87v-69h22v168h-22v-79h-87v79z"/><path id="10" class="fil1" d="M3757 811h20v133l89-133h22v168h-20V847l-89 132h-22z"/><path id="11" class="fil1" d="M3924 979V812h63c11 0 20 1 26 2 8 1 15 4 21 8s10 9 13 16 5 14 5 23c0 14-5 26-14 36s-25 15-49 15h-43v68h-22zm22-88h43c14 0 25-3 31-8s9-13 9-22c0-7-2-13-5-18-4-5-8-8-14-10-4-1-11-1-21-1h-43v60z"/><path id="12" class="fil1" d="M4069 897c0-28 7-49 22-65s34-24 58-24c15 0 29 4 42 11 12 7 22 18 28 31 7 13 10 28 10 45s-3 32-10 45-17 24-29 30c-13 7-26 10-41 10-16 0-30-4-42-11-12-8-22-18-28-31s-10-27-10-42zm23 0c0 20 5 36 16 48s24 17 41 17 30-6 41-18 16-28 16-50c0-14-2-25-7-36-5-10-11-18-20-24s-19-8-30-8c-16 0-29 5-41 16-11 11-17 29-17 54z"/><path id="13" class="fil1" d="M4257 979V812h63c13 0 23 2 31 5s14 9 18 16 7 14 7 22c0 7-2 14-6 20s-10 11-18 15c10 3 18 8 23 15s8 16 8 25c0 8-2 15-5 22s-7 12-12 16-11 6-18 8-16 3-27 3h-64zm22-97h36c10 0 17-1 21-2 6-2 10-4 13-8s4-9 4-15-1-10-4-15c-3-4-6-7-11-9s-13-2-25-2h-34v51zm0 77h42c7 0 12 0 15-1 5-1 9-2 13-5 3-2 6-5 8-9s3-9 3-14c0-6-2-12-5-16-3-5-8-8-13-10-6-2-14-3-25-3h-39v58z"/><path id="14" class="fil1" d="M4388 979l64-167h24l68 167h-25l-19-51h-71l-18 51h-24zm48-69h57l-17-46c-5-14-9-26-12-35-2 11-5 22-9 32l-18 49z"/><path id="15" class="fil1" d="M4563 979V811h22v69h87v-69h22v168h-22v-79h-87v79z"/><path id="16" class="fil1" d="M4732 811h20v133l89-133h22v168h-20V847l-89 132h-22z"/><path id="17" class="fil1" d="M4900 979V811h121v20h-99v51h93v20h-93v57h103v20z"/><path id="18" class="fil1" d="M3032 1239v-23h23v23c0 9-2 16-5 21s-8 9-15 12l-6-9c4-2 8-5 10-8 2-4 3-9 3-16h-12z"/><path id="19" class="fil1" d="M1403 1239v-167h63c13 0 23 2 31 5s14 9 18 16 7 14 7 22c0 7-2 14-6 20s-10 11-18 15c10 3 18 8 23 15s8 16 8 25c0 8-2 15-5 22s-7 12-12 16-11 6-18 8-16 3-27 3h-64zm22-97h36c10 0 17-1 21-2 6-2 10-4 13-8s4-9 4-15-1-10-4-15c-3-4-6-7-11-9s-13-2-25-2h-34v51zm0 77h42c7 0 12 0 15-1 5-1 9-2 13-5 3-2 6-5 8-9s3-9 3-14c0-6-2-12-5-16-3-5-8-8-13-10-6-2-14-3-25-3h-39v58z"/><path id="20" class="fil1" d="M1560 1239v-167h121v20h-98v51h92v20h-92v57h102v19z"/><path id="21" class="fil1" d="M1717 1239v-167h22v69h87v-69h22v167h-22v-78h-87v78z"/><path id="22" class="fil1" d="M1928 1239v-147h-55v-20h132v20h-55v147z"/><path id="23" class="fil1" d="M2029 1072h20v133l89-133h22v167h-20v-132l-89 132h-22z"/><path id="24" class="fil1" d="M2209 1072h105v167h-22v-148h-60v86c0 18-1 30-2 38-2 8-5 14-10 19s-12 7-20 7c-5 0-11-1-18-3l4-20c4 2 7 3 9 3 5 0 9-2 11-6 3-4 4-13 4-27v-118z"/><path id="25" class="fil1" d="M2483 1239v-167h-74c-15 0-26 2-34 5s-14 8-19 16-7 16-7 25c0 12 4 22 12 30s20 13 36 15c-6 3-10 6-13 8-6 6-13 13-18 22l-29 46h28l22-35c6-10 12-18 16-23s8-9 11-11 7-4 10-4c3-1 7-1 12-1h26v74h22zm-22-93h-48c-10 0-18-1-24-3s-10-5-13-10-4-10-4-15c0-8 3-14 9-20 6-5 15-8 27-8h53v55z"/><path id="26" class="fil1" d="M2520 1072h22v148h87v-148h22v148h16v66h-20v-47h-127z"/><path id="27" class="fil1" d="M2693 1072h20v133l89-133h22v167h-20v-132l-89 132h-22z"/><path id="28" class="fil1" d="M2861 1072h21v133l89-133h22v167h-20v-132l-89 132h-23z"/><path id="29" class="fil1" d="M3142 1072h22l55 103 48-103h22l-63 130c-8 16-14 27-19 32s-12 8-22 8c-6 0-13-1-21-4v-19c6 3 12 5 19 5 5 0 10-2 14-5s8-11 13-24l-68-123z"/><path id="30" class="fil1" d="M3307 1239v-167h63c13 0 23 2 31 5s14 9 18 16 7 14 7 22c0 7-2 14-6 20s-10 11-18 15c10 3 18 8 23 15s8 16 8 25c0 8-2 15-5 22s-7 12-12 16-11 6-18 8-16 3-27 3h-64zm22-97h36c10 0 17-1 21-2 6-2 10-4 13-8s4-9 4-15-1-10-4-15c-3-4-6-7-11-9s-13-2-25-2h-34v51zm0 77h42c7 0 12 0 15-1 5-1 9-2 13-5 3-2 6-5 8-9s3-9 3-14c0-6-2-12-5-16-3-5-8-8-13-10-6-2-14-3-25-3h-39v58z"/><path id="31" class="fil1" d="M3474 1072h105v167h-22v-148h-60v86c0 18-1 30-2 38-2 8-5 14-10 19s-12 7-20 7c-5 0-11-1-18-3l4-20c4 2 7 3 9 3 5 0 9-2 11-6 3-4 4-13 4-27v-118z"/><path id="32" class="fil1" d="M3597 1239l64-167h24l68 167h-25l-19-51h-71l-18 51h-24zm48-69h57l-17-46c-5-14-9-26-12-35-2 11-5 22-9 32l-18 49z"/><path id="33" class="fil1" d="M3873 1072v73c11 0 18-2 22-6s9-13 15-28c5-11 8-19 11-23 3-5 7-8 13-11s12-5 18-5h14v19h-8c-7 0-12 2-16 5s-8 11-12 22c-5 12-9 20-13 25-4 4-9 8-16 11 11 3 22 13 32 30l35 56h-27l-28-45c-7-12-14-21-19-25-5-5-12-7-21-7v78h-23v-78c-7 0-14 2-19 6-6 4-12 12-20 25l-1 2-28 45h-28l35-56c11-17 21-27 32-30-6-2-11-6-15-10s-8-13-14-26c-5-12-9-20-12-23s-9-5-15-5h-9v-19h13c7 0 14 2 19 5s10 7 13 11c3 5 7 12 12 24 6 15 12 24 16 28s12 6 22 6v-73h23z"/><path id="34" class="fil1" d="M3989 1239v-167h22v69h87v-69h22v167h-22v-78h-87v78z"/><path id="35" class="fil1" d="M4157 1239v-167h121v20h-98v51h92v20h-92v57h102v19z"/><path id="36" class="fil1" d="M4314 1239v-167h22v69h87v-69h22v167h-22v-78h-87v78z"/><path id="37" class="fil1" d="M4483 1072h20v133l89-133h22v167h-20v-132l-89 132h-22z"/><path id="38" class="fil1" d="M4651 1239v-167h121v20h-99v51h93v20h-93v57h103v19z"/><path id="39" class="fil1" d="M4871 1239v-167h63c13 0 23 2 31 5s14 9 18 16 7 14 7 22c0 7-2 14-6 20s-10 11-18 15c10 3 18 8 23 15s8 16 8 25c0 8-2 15-5 22s-7 12-12 16-11 6-18 8-16 3-27 3h-64zm22-97h36c10 0 17-1 21-2 6-2 10-4 13-8s4-9 4-15-1-10-4-15c-3-4-6-7-11-9s-13-2-25-2h-34v51zm0 77h42c7 0 12 0 15-1 5-1 9-2 13-5 3-2 6-5 8-9s3-9 3-14c0-6-2-12-5-16-3-5-8-8-13-10-6-2-14-3-25-3h-39v58z"/><path id="40" class="fil1" d="M5013 1158c0-28 7-49 22-65s34-24 58-24c15 0 29 4 42 11 12 7 22 18 28 31 7 13 10 28 10 45s-3 32-10 45-17 24-29 30c-13 7-26 10-41 10-16 0-30-4-42-11-12-8-22-18-28-31s-10-27-10-42zm23 0c0 20 5 36 16 48s24 17 41 17 30-6 41-18 16-28 16-50c0-14-2-25-7-36-5-10-11-18-20-24s-19-8-30-8c-16 0-29 5-41 16-11 11-17 29-17 54z"/><path id="41" class="fil1" d="M5193 1192l21-5c2 8 6 16 13 24s16 12 28 12 21-3 28-9 10-13 10-22-4-17-11-22-17-8-29-8h-11v-19c10 0 18-1 23-2s10-4 14-9 6-10 6-16c0-7-3-14-8-19-6-5-13-8-23-8-8 0-16 2-22 6s-10 10-12 17-3 12-3 16l-21-5c5-35 25-53 59-53 16 0 29 5 39 14s14 20 14 32c0 16-7 28-22 36 9 2 16 7 21 14 6 7 9 16 9 26 0 14-6 26-17 36s-26 15-44 15c-32 0-52-17-62-50z"/><path id="42" class="fil1" d="M5359 1072h102v148h15v59h-20v-39h-111v39h-20v-59h13c14-20 20-61 20-123v-24zm80 20h-59v9c0 14-1 34-4 58-3 25-8 45-15 61h78v-128z"/><path id="43" class="fil1" d="M5488 1072h22l55 103 48-103h22l-63 130c-8 16-14 27-19 32s-12 8-22 8c-6 0-13-1-21-4v-19c6 3 12 5 19 5 5 0 10-2 14-5s8-11 13-24l-68-123z"/><path id="44" class="fil1" d="M5637 1239l65-87-57-80h26l31 43c6 9 11 16 13 20 4-6 8-12 13-19l33-44h24l-58 79 63 88h-27l-42-60c-2-3-5-7-7-10-4 6-6 10-8 12l-43 58h-27z"/><path id="45" class="fil1" d="M5791 1239l64-167h24l68 167h-25l-19-51h-71l-18 51h-24zm48-69h57l-17-46c-5-14-9-26-12-35-2 11-5 22-9 32l-18 49z"/><path class="fil2" d="M1796 128h22l38 140-28 8c-15-32-26-54-34-65-13-18-29-32-48-42s-40-16-63-16c-27 0-52 7-75 22-23 14-41 36-55 63-14 28-21 59-21 94 0 36 7 68 21 96s34 50 58 65 51 23 79 23c27 0 54-8 82-23s52-37 72-64l24 16c-12 18-26 34-40 47-23 21-46 36-71 46s-52 15-81 15c-65 0-118-24-158-72-34-40-50-87-50-142 0-40 9-77 28-110s44-59 77-78 68-29 106-29c20 0 39 3 56 8 17 6 35 14 53 27l10-28z"/><path id="1" class="fil2" d="M2250 128h22l38 140-28 8c-15-32-26-54-34-65-13-18-29-32-48-42s-40-16-63-16c-27 0-52 7-75 22-23 14-41 36-55 63-14 28-21 59-21 94 0 36 7 68 21 96s34 50 58 65 51 23 79 23c27 0 54-8 82-23s52-37 72-64l24 16c-12 18-26 34-40 47-23 21-46 36-71 46s-52 15-81 15c-65 0-118-24-158-72-34-40-50-87-50-142 0-40 9-77 28-110s44-59 77-78 68-29 106-29c20 0 39 3 56 8 17 6 35 14 53 27l10-28z"/><path id="2" class="fil2" d="M2690 160h-211v320c0 19 2 30 6 34s16 6 35 6h11v25h-161v-25h10c18 0 29-2 34-6s8-14 8-32V194c0-17-2-29-7-34s-14-8-28-8h-17v-25h427v25h-14c-15 0-25 3-30 8s-7 17-7 34v285c0 19 2 31 6 35s16 6 36 6h9v25h-160v-25h12c15 0 25-1 29-3 5-2 8-5 9-9s2-15 2-33V159z"/><path id="3" class="fil3 str0" d="M1796 128h22l38 140-28 8c-15-32-26-54-34-65-13-18-29-32-48-42s-40-16-63-16c-27 0-52 7-75 22-23 14-41 36-55 63-14 28-21 59-21 94 0 36 7 68 21 96s34 50 58 65 51 23 79 23c27 0 54-8 82-23s52-37 72-64l24 16c-12 18-26 34-40 47-23 21-46 36-71 46s-52 15-81 15c-65 0-118-24-158-72-34-40-50-87-50-142 0-40 9-77 28-110s44-59 77-78 68-29 106-29c20 0 39 3 56 8 17 6 35 14 53 27l10-28z"/><path id="4" class="fil3 str0" d="M2250 128h22l38 140-28 8c-15-32-26-54-34-65-13-18-29-32-48-42s-40-16-63-16c-27 0-52 7-75 22-23 14-41 36-55 63-14 28-21 59-21 94 0 36 7 68 21 96s34 50 58 65 51 23 79 23c27 0 54-8 82-23s52-37 72-64l24 16c-12 18-26 34-40 47-23 21-46 36-71 46s-52 15-81 15c-65 0-118-24-158-72-34-40-50-87-50-142 0-40 9-77 28-110s44-59 77-78 68-29 106-29c20 0 39 3 56 8 17 6 35 14 53 27l10-28z"/><path id="5" class="fil3 str0" d="M2690 160h-211v320c0 19 2 30 6 34s16 6 35 6h11v25h-161v-25h10c18 0 29-2 34-6s8-14 8-32V194c0-17-2-29-7-34s-14-8-28-8h-17v-25h427v25h-14c-15 0-25 3-30 8s-7 17-7 34v285c0 19 2 31 6 35s16 6 36 6h9v25h-160v-25h12c15 0 25-1 29-3 5-2 8-5 9-9s2-15 2-33V159z"/><path d="M577 73c0 5 1 3 1 8 12 0 35-6 50-7 59-5 72-4 131 1 20 2 39 6 57 11s35 10 52 15c17 6 32 13 49 19 21 9 46 23 65 35l40 27c7 5 12 10 19 15 55 44 104 104 136 168 2 4 4 7 6 11l16 35c3 8 7 16 10 24 19 54 32 113 32 171 0 79-7 125-31 199-10 31-26 63-42 91-2 4-4 6-6 10l-27 40c-20 29-45 54-71 79-3 3-5 4-9 8-14 14-31 26-47 37-22 16-47 32-73 43l-12 6c-23 11-48 21-72 28-28 8-52 14-82 18-58 8-124 8-182-4-18-4-39-8-56-14-26-8-51-18-76-29-34-16-66-35-96-58-22-17-43-35-63-55-35-35-67-78-90-122-4 0-6 2-9 4l9 18c13 27 29 53 47 77l43 53c11 11 21 25 34 35 3 3 4 3 8 7 9 9 19 18 30 25 21 16 42 31 65 45 12 7 23 13 36 19 99 49 217 74 334 60 42-5 79-13 119-26l53-21c31-13 60-29 88-48 43-29 66-50 104-88 4-4 5-6 8-9 15-16 28-33 41-51 31-43 57-93 75-144 2-5 3-8 4-13 2-5 3-8 5-14 11-40 18-70 22-103l4627 15v-84l-4623-15v-2c0-71-17-141-43-206-13-33-30-64-49-94l-29-42c-5-7-10-13-16-20-2-2-2-3-4-5l-13-14c-12-12-23-25-36-36l-19-17c-7-5-12-10-19-16s-13-10-21-15l-90-52c-17-8-32-15-50-21s-36-12-55-17c-91-23-179-23-270-5-8 2-26 6-32 8zm2458 42h174v50h-24c-6 0-11 0-15 1-3 1-5 1-7 2l-3 3c-1 1-2 3-3 5s-1 4-1 7-1 8-1 13v127l136-143 9-11 3-4h-2c-3 0-8-1-13-1h-22v-50h174v51h-13c-5 0-10 0-15 1s-9 1-13 3c-4 1-8 3-11 4s-6 3-8 4c-6 4-11 8-15 12-4 3-7 6-10 9l-105 107 122 161c6 8 11 14 15 19s8 9 11 11 6 4 8 6c3 2 6 3 8 4 3 1 7 2 11 2s10 1 16 1h5c12 0 20-2 24-5 2-2 4-5 7-10 3-6 7-14 10-23l133-354h68l133 358c3 8 6 14 8 19s5 8 7 10 4 3 7 4 7 2 11 2h19v50h-174v-49l11-1 9-1h11c5 0 8-1 9-2 0 0 1-1 1-3s-1-4-2-8c-1-5-3-11-6-18l-92-257-96 267c-1 4-3 8-3 11-1 2-1 4-1 5v3l1 1 2 2 8 1 31 1v50h-329v-50h41s2 0 2-1l-3-6c-3-6-8-13-15-22l-85-116-40 40v75c0 6 0 11 1 15 0 3 1 5 2 7l3 3c1 1 2 2 4 2 1 0 4 1 9 1 6 0 13 1 23 1h13v50h-187v-50h25c6 0 10 0 14-1 3 0 5-1 6-1s2-1 3-2 2-3 3-4c1-2 1-5 2-9 1-5 1-10 1-17V201c0-7 0-12-1-17 0-4-1-6-2-8-1-1-1-3-2-3l-2-2c-1 0-3-1-7-1s-10-1-17-1h-22v-50h13zm2341-1h21v1h261v-1h22l1 1h13l46 129-50 18-5-11c-6-15-13-29-20-39s-14-18-22-24-17-10-26-13c-10-3-22-4-34-4h-14v304c0 7 0 12 1 16 0 4 1 6 1 8l2 4c2 2 1 2 3 3l4 1c2 0 5 1 10 1l33 1v50h-185v-50l33-1c4 0 7-1 9-1 2-1 3-1 5-2 1-1 2-2 2-3 1-2 2-4 2-8 1-5 1-10 1-17V171h-9c-10 0-20 1-27 2-8 1-14 3-20 5s-11 6-16 10c-6 4-11 9-16 15s-10 13-15 21-9 17-13 27l-4 12-50-18 45-129h13l1-1zm-912 1h61l115 308 112-308h147v50h-23c-6 0-11 0-15 1-3 0-5 1-6 1l-2 2c-1 1-2 2-2 4-1 2-1 4-2 8s-1 9-1 15v276c0 9 0 15 1 20 0 4 1 7 2 9 0 1 1 2 2 3s2 2 3 2c1 1 3 1 6 2 4 1 9 1 15 1h23v50h-184v-50h36c3 0 5-1 6-1s3-1 4-2 2-2 3-2l2-3c1-4 1-8 2-13V245l-115 315h-48l-117-312v227c0 7 0 13 1 17 0 4 1 6 2 8 1 1 2 3 3 4s2 2 4 3c1 1 4 1 7 2 4 1 10 1 16 1h22v50h-173v-50h21c7 0 12 0 16-1s7-1 9-2 3-2 4-3 2-2 3-4 1-4 2-9 1-11 1-19V198c0-7 0-13-1-17 0-4-1-6-1-7s-1-2-2-3-2-2-3-2c-1-1-4-1-7-2-4 0-9-1-15-1h-27v-50h92zm-571 0h174v50h-24c-14 0-22 1-25 4-1 1-2 3-3 7-1 5-2 12-2 20v205l192-207v-14c0-4-1-7-1-9 0-1-1-1-1-2l-3-3c-2-1-4-2-6-2-3-1-7-1-12-1h-29v-50h185v50h-27c-6 0-12 1-15 2-2 1-4 1-5 2s-2 3-2 7c-1 5-1 11-1 19v285c0 9 0 16 1 21l1 5s2 1 6 1c5 1 12 1 21 1h22v50h-185v-50h24c7 0 13 0 17-1 4 0 6-1 8-1l2-1c0-1 1-4 1-8V276l-192 206c0 6 1 12 1 16 1 3 1 5 1 5s2 1 6 1c5 1 12 1 21 1h24v50h-187v-50h23c8 0 15 0 20-1 4-1 6-1 7-2l1-3c1-4 2-10 2-18V193c0-8-1-14-1-19l-2-6c-1-1-2-2-5-2-4-1-8-2-14-2h-29v-50h13zm1211 0h59l133 358c3 8 6 15 9 20 2 4 5 8 7 9 2 2 4 3 7 4s7 2 11 2h19v50h-174v-50c5 0 22-1 27-1 4 0 8 0 10-1h2c1-1 2-2 3-2v-1c0-1-1-4-2-8-1-5-3-11-6-19l-25-72h-133l-30 82c-1 4-3 8-3 11-1 2-1 4-1 5v3l1 1 6 2h23l12 1v50h-150v-50h13c5 0 10 0 13-1 3 0 5-1 7-2s3-2 4-3l4-4c1-2 3-5 5-10s5-11 8-20l133-354h9zm-34 234h93l-46-130-47 130zM347 368c0 15 4 18 12 32l54 58c24 19 39 30 67 44 5 2 8 4 13 6s9 3 13 5c-1-10-19-42-24-51-9-16-21-30-32-44l-22-23-1-1c-3-3-2-2-5-4-7-5-10-10-21-18-10-8-25-19-38-19-8 0-16 7-16 15zm0 608c0 28 26 22 45 9l40-35c17-17 29-32 42-51l21-36c4-8 9-18 11-26-12 1-44 21-56 28l-6 4c-29 20-46 35-70 62-3 4-5 6-9 10-7 8-20 26-20 37zm293-663c0 27 4 50 8 72 5 27 17 53 19 61l13-28c10-31 17-70 17-103 0-27-2-87-26-87-18 0-22 12-26 33-3 15-4 36-4 52zM221 674c0 29 58 27 74 28 27 3 68-3 92-9l39-12c4-2 9-4 13-5-1-4-3-4-11-7-44-19-127-29-175-18-11 2-31 8-31 23zm235 4c0 72 34 139 91 182 6 4 10 7 16 11l18 10c23 11 62 24 86 24-12 25-21 64-24 93-3 31-8 125 26 125 26 0 28-58 28-88 0-27-7-76-16-101-4-10-7-20-11-29 13 0 8 3 20 0V462c0-11 2-12-7-12-73 0-145 39-185 97-26 38-41 83-41 130z" fill="url(#id0)"/><path class="fil0" d="M6948 1255c-6 0-66 13-107 13-16 0-33 1-49 0-21-2-45-4-65-8-26-5-52-10-77-19-24-9-46-17-69-28l-32-16c-34-19-62-41-92-65-3-2-4-4-7-6-13-12-24-21-36-36l-12-13c-5-5-7-8-11-13-30-37-53-77-74-119-5-11-9-22-14-34-28-70-44-174-33-250 6-44 7-55 20-102 2-7 3-12 6-19 7-18 13-35 20-52 12-27 26-53 43-78 7-10 12-19 20-28l45-53c5-6 12-11 18-17l32-29c9-8 18-14 28-21l29-19c2-1 5-3 7-5 3-2 5-3 7-4 15-9 32-17 48-25l17-7c33-15 76-26 112-33 6-1 14-2 21-3 19-3 47-6 67-6h25l45 3c44 6 79 13 119 26 6 2 12 4 18 7 6 2 12 4 18 7l33 15c45 21 85 51 123 82 17 14 41 39 54 56 14 18 29 36 41 56 2 4 7 13 10 15 0-6-6-13-8-17-19-31-40-66-65-93l-13-14c-6-8-18-19-26-27l-35-31c-3-2-4-4-7-6s-5-3-7-6c-3-3-4-4-8-6-5-4-10-7-15-11-14-10-29-20-45-28l-4-3c-36-22-90-42-131-53-22-6-42-11-65-14-35-5-73-6-112-6l-11 1h-1c-8 1-17 1-25 1-7 0-17 2-23 3-8 1-16 2-23 4-48 9-95 23-139 44l-85 48c-18 12-36 25-52 40l-21 19c-13 13-28 26-39 41-4 5-8 9-12 14-20 25-39 50-54 78l-22 43c-2 3-3 6-4 9-3 6-6 13-8 19-24 59-34 103-42 169l-2 88c0 25 10 79 16 104 13 51 32 106 59 151l30 48c24 36 54 68 85 97l68 54c16 11 33 20 49 29 14 8 29 16 45 22 12 5 25 11 38 15 7 2 12 4 19 6 37 11 71 18 109 23 9 1 25 2 41 3h60c7-1 18-2 24-2 29-1 72-13 100-19 5-1 7-1 10-4zm350-830z"/><path class="fil0" d="M6837 243v862c0 13 20 17 27 7 5-7 2-39 2-48v-67c5 1 5 4 8 8l24 28c3 4 5 5 8 9 5 6 19 26 27 26 12 0 24-14 12-27l-77-89c-3-5-2-73-2-83 6 2 12 13 17 17 9 9 15 18 23 27 2 2 2 2 4 5l12 14c12 14 27 2 27-11 0-6-4-7-7-11-15-18-31-35-46-54l-13-15c-21-27-18-12-18-55v-74c5 1 7 5 10 8 10 10 65 63 67 69 1 4 1 11 2 17 1 5 1 14 2 18 0 6 1 12 1 17l4 55c1 15 1 26 16 26 22 0 14-27 13-44l-5-57c8 5 42 41 51 51 12 12 7 5 10 25 3 21 1 42 5 63 5 35-5 54 21 54 8 0 14-7 12-16l-7-85c8 6 52 51 62 62 9 9 22 26 35 13 12-13-4-25-13-34-11-11-57-55-62-63l85 7c16 2 21-20 11-28-6-4-49-5-62-6l-49-4c-25-3-13 4-42-26-9-9-28-26-34-35l83 6c20 3 22-24 9-29l-79-7c-10-1-40 0-46-3-2-1-75-74-77-78 10 0 103-2 108 1 7 3 30 26 39 34 16 13 38 35 54 46 14 10 33-11 17-25l-55-47c-2-1-8-7-9-8h67c28 0 17 1 44 23 6 5 11 11 17 15l31 27c11 9 27 29 38 10 5-8 3-15-4-20l-39-34c-7-6-18-13-23-20h102c6 0 9-1 13-4 3-2 2-1 4-4 7-13-2-23-18-22h-102l36-32c6-5 12-10 18-16 5-4 16-12 16-18 0-9-7-18-16-18-6 0-7 3-10 6s-6 5-9 7l-80 69c-5 3-74 1-83 1 5-7 56-48 66-58 9-9-2-25-14-25-7 0-28 22-35 28l-49 42c-3 3-12 12-15 13-6 2-99 0-110 0 3-5 14-15 19-20 6-6 54-56 59-57 9-3 56-4 71-6l27-1c5 0 4-1 9-1 7 0 13 0 18-2 15-5 10-31-6-29l-58 4c-9 0-20 2-29 2 5-8 41-42 51-51 11-11 7-8 25-10 15-1 103-6 110-9 12-5 8-30-8-29l-57 4c-9 0-20 2-29 2 5-8 61-61 72-73 12-12 8-28-10-28-7 0-17 13-23 18-11 11-53 56-62 61 0-14 4-42 5-57 1-10 1-19 2-30 1-14-19-20-27-10-4 5-5 49-6 62l-4 49c-3 26 2 16-25 43l-8 8-2 2c-6 6-19 22-25 24 1-18 3-38 5-55 1-10 1-18 2-29 2-15-22-22-29-9-1 2-2 15-2 18l-5 62c-1 10-1 38-4 46-2 6-33 35-38 40l-19 19-5 5-10 10c-3 3-2 3-7 4 0-11-2-102 1-108 2-3 6-7 9-10l68-79c19-19-8-39-21-22-16 21-35 39-51 60-3 3-1 3-5 4 0-11-2-78 1-83 2-4 6-7 9-10l22-25c6-7 12-13 17-20 2-2 3-3 4-5l17-20c2-2 3-2 4-5 3-4 7-7 8-10 5-11-7-21-16-21-10 0-33 34-42 42-4 4-5 6-8 9-5 5-11 16-17 17v-62c0-6 1-15 1-19-1-7-1-12-1-19 0-9 0-12-5-16-9-8-24-2-24 10z"/><path class="fil2" d="M7933 128h22l38 140-28 8c-15-32-26-54-34-65-13-18-29-32-48-42s-40-16-63-16c-27 0-52 7-75 22-23 14-41 36-55 63-14 28-21 59-21 94 0 36 7 68 21 96s34 50 58 65 51 23 79 23c27 0 54-8 82-23s52-37 72-64l24 16c-12 18-26 34-40 47-23 21-46 36-71 46s-52 15-81 15c-65 0-118-24-158-72-34-40-50-87-50-142 0-40 9-77 28-110s44-59 77-78 68-29 106-29c20 0 39 3 56 8 17 6 35 14 53 27l10-28z"/><path id="1" class="fil2" d="M8387 128h22l38 140-28 8c-15-32-26-54-34-65-13-18-29-32-48-42s-40-16-63-16c-27 0-52 7-75 22-23 14-41 36-55 63-14 28-21 59-21 94 0 36 7 68 21 96s34 50 58 65 51 23 79 23c27 0 54-8 82-23s52-37 72-64l24 16c-12 18-26 34-40 47-23 21-46 36-71 46s-52 15-81 15c-65 0-118-24-158-72-34-40-50-87-50-142 0-40 9-77 28-110s44-59 77-78 68-29 106-29c20 0 39 3 56 8 17 6 35 14 53 27l10-28z"/><path id="2" class="fil2" d="M8827 160h-211v320c0 19 2 30 6 34s16 6 35 6h11v25h-161v-25h10c18 0 29-2 34-6s8-14 8-32V194c0-17-2-29-7-34s-14-8-28-8h-17v-25h427v25h-14c-15 0-25 3-30 8s-7 17-7 34v285c0 19 2 31 6 35s16 6 36 6h9v25h-160v-25h12c15 0 25-1 29-3 5-2 8-5 9-9s2-15 2-33V159z"/><path id="3" class="fil3 str0" d="M7933 128h22l38 140-28 8c-15-32-26-54-34-65-13-18-29-32-48-42s-40-16-63-16c-27 0-52 7-75 22-23 14-41 36-55 63-14 28-21 59-21 94 0 36 7 68 21 96s34 50 58 65 51 23 79 23c27 0 54-8 82-23s52-37 72-64l24 16c-12 18-26 34-40 47-23 21-46 36-71 46s-52 15-81 15c-65 0-118-24-158-72-34-40-50-87-50-142 0-40 9-77 28-110s44-59 77-78 68-29 106-29c20 0 39 3 56 8 17 6 35 14 53 27l10-28z"/><path id="4" class="fil3 str0" d="M8387 128h22l38 140-28 8c-15-32-26-54-34-65-13-18-29-32-48-42s-40-16-63-16c-27 0-52 7-75 22-23 14-41 36-55 63-14 28-21 59-21 94 0 36 7 68 21 96s34 50 58 65 51 23 79 23c27 0 54-8 82-23s52-37 72-64l24 16c-12 18-26 34-40 47-23 21-46 36-71 46s-52 15-81 15c-65 0-118-24-158-72-34-40-50-87-50-142 0-40 9-77 28-110s44-59 77-78 68-29 106-29c20 0 39 3 56 8 17 6 35 14 53 27l10-28z"/><path id="5" class="fil3 str0" d="M8827 160h-211v320c0 19 2 30 6 34s16 6 35 6h11v25h-161v-25h10c18 0 29-2 34-6s8-14 8-32V194c0-17-2-29-7-34s-14-8-28-8h-17v-25h427v25h-14c-15 0-25 3-30 8s-7 17-7 34v285c0 19 2 31 6 35s16 6 36 6h9v25h-160v-25h12c15 0 25-1 29-3 5-2 8-5 9-9s2-15 2-33V159z"/><path d="M6714 73c0 5 1 3 1 8 12 0 35-6 50-7 59-5 72-4 131 1 20 2 39 6 57 11s35 10 52 15c17 6 32 13 49 19 21 9 46 23 65 35l40 27c7 5 12 10 19 15 55 44 104 104 136 168 2 4 4 7 6 11l16 35c3 8 7 16 9 24 19 54 32 113 32 171 0 79-7 125-31 199-10 31-26 63-42 91-2 4-4 6-6 10l-27 40c-20 29-45 54-71 79-3 3-5 4-9 8-14 14-31 26-47 37-22 16-47 32-73 43l-12 6c-23 11-48 21-72 28-28 8-52 14-82 18-58 8-124 8-182-4-18-4-39-8-56-14-26-8-51-18-76-29-34-16-66-35-96-58-22-17-43-35-63-55-35-35-67-78-90-122-4 0-6 2-9 4l9 18c13 27 29 53 47 77l43 53c11 11 21 25 34 35 3 3 4 3 8 7 9 9 19 18 30 25 21 16 42 31 65 45 12 7 23 13 36 19 99 49 217 74 334 60 42-5 79-13 119-26l53-21c31-13 60-29 88-48 43-29 66-50 104-88 4-4 5-6 8-9 15-16 28-33 41-51 31-43 57-93 75-144 2-5 3-8 4-13 2-5 3-8 5-14 11-40 18-70 22-103l4627 15v-84l-4623-15v-2c0-71-17-141-43-206-13-33-30-64-49-94l-29-42c-5-7-10-13-16-20-2-2-2-3-4-5l-13-14c-12-12-23-25-36-36l-19-17c-7-5-12-10-19-16s-13-10-21-15l-90-52c-17-8-32-15-50-21s-36-12-55-17c-91-23-179-23-270-5-8 2-26 6-32 8zm2458 42h174v50h-24c-6 0-11 0-15 1-3 1-5 1-7 2l-3 3c-1 1-2 3-3 5s-1 4-1 7-1 8-1 13v127l136-143 9-11 3-4h-2c-3 0-8-1-13-1h-22v-50h174v51h-13c-5 0-10 0-15 1s-9 1-13 3c-4 1-8 3-11 4s-6 3-8 4c-6 4-11 8-15 12-4 3-7 6-10 9l-105 107 122 161c6 8 11 14 15 19s8 9 11 11 6 4 8 6c3 2 6 3 8 4 3 1 7 2 11 2s10 1 16 1h5c12 0 20-2 24-5 2-2 4-5 7-10 3-6 7-14 10-23l133-354h68l133 358c3 8 6 14 8 19s5 8 7 10 4 3 7 4 7 2 11 2h19v50h-174v-49l11-1 9-1h11c5 0 8-1 9-2 0 0 1-1 1-3s-1-4-2-8c-1-5-3-11-6-18l-92-257-96 267c-1 4-3 8-3 11-1 2-1 4-1 5v3l1 1 2 2 8 1 31 1v50h-329v-50h41s2 0 2-1l-3-6c-3-6-8-13-15-22l-85-116-40 40v75c0 6 0 11 1 15 0 3 1 5 2 7l3 3c1 1 2 2 4 2 1 0 4 1 9 1 6 0 13 1 23 1h13v50h-187v-50h25c6 0 10 0 14-1 3 0 5-1 6-1s2-1 3-2 2-3 3-4c1-2 1-5 2-9 1-5 1-10 1-17V201c0-7 0-12-1-17 0-4-1-6-2-8-1-1-1-3-2-3l-2-2c-1 0-3-1-7-1s-10-1-17-1h-22v-50h13zm2341-2h21v2h261v-2h22l1 2h13l46 129-50 18-5-11c-6-15-13-29-20-39s-14-18-22-24-17-10-26-13c-10-3-22-4-34-4h-14v304c0 7 0 12 1 16 0 4 1 6 1 8l2 4c2 2 1 2 3 3l4 1c2 0 5 1 10 1l33 1v50h-185v-50l33-1c4 0 7-1 9-1 2-1 3-1 5-2 1-1 2-2 2-3 1-2 2-4 2-8 1-5 1-10 1-17V171h-9c-10 0-20 1-27 2-8 1-14 3-20 5s-11 6-16 10c-6 4-11 9-16 15s-10 13-15 21-9 17-13 27l-4 12-50-18 45-129h13l1-2zm-912 2h61l115 307 112-307h147v50h-23c-6 0-11 0-15 1-3 0-5 1-6 1l-2 2c-1 1-2 2-2 4-1 2-1 4-2 8s-1 9-1 15v276c0 9 0 15 1 20 0 4 1 7 2 9 0 1 1 2 2 3s2 2 3 2c1 1 3 1 6 2 4 1 9 1 15 1h23v50h-184v-50h36c3 0 5-1 6-1s3-1 4-2 2-2 3-2l2-3c1-4 1-8 2-13V245l-115 315h-48l-117-312v227c0 7 0 13 1 17 0 4 1 6 2 8 1 1 2 3 3 4s2 2 4 3c1 1 4 1 7 2 4 1 10 1 16 1h22v50h-173v-50h21c7 0 12 0 16-1s7-1 9-2 3-2 4-3 2-2 3-4 1-4 2-9 1-11 1-19V198c0-7 0-13-1-17 0-4-1-6-1-7s-1-2-2-3-2-2-3-2c-1-1-4-1-7-2-4 0-9-1-15-1h-27v-50h92zm-571 0h174v50h-24c-14 0-22 1-25 4-1 1-2 3-3 7-1 5-2 12-2 20v205l192-207v-14c0-4-1-7-1-9 0-1-1-1-1-2l-3-3c-2-1-4-2-6-2-3-1-7-1-12-1h-29v-50h185v50h-27c-6 0-12 1-15 2-2 1-4 1-5 2s-2 3-2 7c-1 5-1 11-1 19v285c0 9 0 16 1 21l1 5s2 1 6 1c5 1 12 1 21 1h22v50h-185v-50h24c7 0 13 0 17-1 4 0 6-1 8-1l2-1c0-1 1-4 1-8V276l-192 206c0 6 1 12 1 16 1 3 1 5 1 5s2 1 6 1c5 1 12 1 21 1h24v50h-187v-50h23c8 0 15 0 20-1 4-1 6-1 7-2l1-3c1-4 2-10 2-18V193c0-8-1-14-1-19l-2-6c-1-1-2-2-5-2-4-1-8-2-14-2h-29v-50h13zm1211 0h59l133 358c3 8 6 15 9 20 2 4 5 8 7 9 2 2 4 3 7 4s7 2 11 2h19v50h-174v-50c5 0 22-1 27-1 4 0 8 0 10-1h2c1-1 2-2 3-2v-1c0-1-1-4-2-8-1-5-3-11-6-19l-25-72h-133l-30 82c-1 4-3 8-3 11-1 2-1 4-1 4v3l1 1 6 2h23l12 1v50h-150v-50h13c5 0 10 0 13-1 3 0 5-1 7-2s3-2 4-3l4-4c1-2 3-5 5-10s5-11 8-20l133-354h9zm-34 234h93l-46-130-47 130zm-4723 19c0 15 4 18 12 32l54 58c24 19 39 30 67 44 5 2 8 4 13 6s9 3 13 5c-1-10-19-42-24-51-9-16-21-30-32-44l-22-23-1-1c-3-3-2-2-5-4-7-5-10-10-21-18-10-8-25-19-38-19-8 0-16 7-16 15zm0 608c0 28 26 22 45 9l40-35c17-16 29-32 42-51l21-36c4-8 9-18 11-26-12 1-44 21-56 28l-6 4c-29 20-46 35-69 62-3 4-5 6-9 10-7 8-20 26-20 37zm293-663c0 27 4 50 8 72 5 27 17 53 19 61l13-28c10-31 17-70 17-103 0-27-2-87-26-87-18 0-22 12-26 33-3 15-4 36-4 52zm-419 361c0 29 58 27 74 28 27 3 68-3 92-9l39-12c4-2 9-4 13-5-1-4-3-4-11-7-44-19-127-29-175-18-11 2-31 8-31 23zm235 4c0 72 34 139 91 182 6 4 10 7 16 11l18 10c23 11 62 24 86 24-12 25-21 64-24 93-3 31-8 125 26 125 26 0 28-58 28-88 0-27-7-76-16-101-4-10-7-20-11-29 13 0 8 3 20 0V462c0-11 2-12-7-12-73 0-145 39-185 97-26 38-41 83-41 130z" fill="url(#id1)"/><path class="fil6" d="M7778 862h188v34h-149v256h-39z"/><path id="1" class="fil6" d="M7997 1152V862h110c19 0 34 1 44 3 14 2 26 7 36 14s17 16 23 28 9 25 9 40c0 25-8 45-24 63-16 17-44 26-85 26h-75v118h-39zm39-152h75c25 0 43-5 53-14s16-22 16-39c0-12-3-23-9-31-6-9-14-14-24-17-7-2-19-3-36-3h-74v104z"/><path id="2" class="fil6" d="M8230 862h39l95 178 83-178h38l-109 226c-14 28-25 47-34 55-9 9-21 13-37 13-10 0-22-2-36-7v-33c10 6 21 9 33 9 9 0 17-3 24-9s14-20 23-41l-118-213z"/><path id="3" class="fil6" d="M8519 862h228v290h-39V896h-151v256h-38z"/><path id="4" class="fil6" d="M8811 862h228v290h-38V896h-151v256h-39z"/><path id="5" class="fil6" d="M9071 1152l112-290h42l119 290h-44l-34-88h-123l-32 88h-41zm84-119h99l-30-80c-9-24-16-45-21-61-4 19-9 38-16 56l-32 85z"/><path id="6" class="fil6" d="M9488 862h39v127c18 0 30-3 37-10s16-23 27-49c8-19 15-33 20-40 5-8 13-15 22-20 10-5 20-8 32-8h23v33h-16c-12 0-21 3-27 9s-13 19-21 38c-10 25-18 40-25 47-7 6-15 11-24 15 19 5 37 23 56 52l60 97h-48l-49-79c-13-22-25-37-33-45-9-8-21-12-35-12v136h-39V863z"/><path id="7" class="fil6" d="M9708 1011c0-48 13-86 39-113s59-41 101-41c27 0 51 6 73 19s38 31 49 54 17 49 17 78-6 56-18 79-29 41-51 53-45 18-71 18c-27 0-52-7-74-20s-38-31-49-54-17-47-17-72zm40 1c0 35 9 62 28 83 19 20 43 30 71 30 29 0 53-10 72-30s28-49 28-86c0-24-4-44-12-62s-20-31-35-41-33-15-52-15c-27 0-51 9-70 28-20 19-29 50-29 93z"/><path id="8" class="fil6" d="M10035 1152V862h58l69 206c6 19 11 33 14 43 3-11 9-26 16-47l70-202h52v290h-37V909l-85 243h-35l-84-247v247h-37z"/><path id="9" class="fil6" d="M10375 862h229v290h-39V896h-151v256h-39z"/><path id="10" class="fil6" d="M10635 1152l112-290h42l119 290h-44l-34-88h-123l-32 88h-41zm84-119h99l-30-80c-9-24-16-45-21-61-4 19-9 38-16 56l-32 85z"/><path id="11" class="fil6" d="M10940 1152V862h38v120h151V862h39v290h-39v-136h-151v136z"/><path id="12" class="fil6" d="M11233 862h35v230l155-230h38v290h-35V923l-155 229h-38z"/><path id="13" class="fil6" d="M11525 862h35v230l155-230h38v290h-35V923l-155 229h-39V862zm145-70h24c-2 17-8 30-18 38-10 9-24 13-41 13s-31-4-41-13-16-22-18-39h24c2 9 6 16 11 20 6 5 13 7 22 7 11 0 19-2 24-7 6-4 9-11 11-21z"/><path class="fil0" d="M13441 1255c-6 0-66 13-107 13-16 0-33 1-49 0-21-2-45-4-65-8-26-5-52-10-77-19-24-9-46-17-69-28l-32-16c-34-19-62-41-92-65-3-2-4-4-7-6-13-12-24-21-36-36l-12-13c-5-5-7-8-11-13-30-37-53-77-74-119-5-11-9-22-14-34-28-70-44-174-33-250 6-44 7-55 20-102 2-7 3-12 6-19 7-18 13-35 20-52 12-27 26-53 43-78 7-10 13-19 20-28l45-53c5-6 12-11 18-17l32-29c9-8 18-14 28-21l29-19c2-1 5-3 7-5 3-2 5-3 7-4 15-9 32-17 48-25l17-7c33-15 76-26 112-33 6-1 14-2 21-3 19-3 47-6 67-6h25l45 3c44 6 79 13 119 26 6 2 12 4 18 7 6 2 12 4 18 7l33 15c45 21 85 51 123 82 17 14 41 39 54 56 14 18 29 36 41 56 2 4 7 13 10 15 0-6-6-13-8-17-19-31-40-66-65-93l-13-14c-6-8-18-19-26-27l-35-31c-3-2-4-4-7-6s-5-3-7-6c-3-3-4-4-8-6-5-4-10-7-15-11-14-10-29-20-45-28l-4-3c-36-22-90-42-131-53-22-6-42-11-65-14-35-5-73-6-112-6l-11 1h-1c-8 1-17 1-25 1-7 0-17 2-23 3-8 1-16 2-23 4-48 9-95 23-139 44l-85 48c-18 12-36 25-52 40l-21 19c-13 13-28 26-39 41-4 5-8 9-12 14-20 25-39 50-54 78l-22 43c-2 3-3 6-4 9-3 6-6 13-8 19-24 59-34 103-42 169l-2 88c0 25 10 79 16 104 13 51 32 106 59 151l30 48c24 36 53 68 85 97l68 54c16 11 33 20 49 29 14 8 29 16 45 22 12 5 25 11 38 15 7 2 12 4 19 6 37 11 71 18 109 23 9 1 25 2 41 3h60c7-1 18-2 24-2 29-1 72-13 100-19 5-1 7-1 10-4zm350-830z"/><path class="fil0" d="M13330 243v862c0 13 20 17 27 7 5-7 2-39 2-48v-67c5 1 5 4 8 8l24 28c3 4 5 5 8 9 5 6 19 26 27 26 12 0 24-14 12-27l-77-89c-3-5-2-73-2-83 6 2 12 13 17 17 9 9 15 18 23 27 2 2 2 2 4 5l12 14c12 14 27 2 27-11 0-6-4-7-7-11-15-18-31-35-46-54l-13-15c-21-27-18-12-18-55v-74c5 1 7 5 10 8 10 10 65 63 67 69 1 4 1 11 2 17 1 5 1 14 2 18 0 6 1 12 1 17l4 55c1 15 1 26 16 26 22 0 14-27 13-44l-5-57c8 5 42 41 51 51 12 12 7 5 10 25 3 21 1 42 5 63 5 35-5 54 21 54 8 0 14-7 12-16l-7-85c8 6 52 51 62 62 9 9 22 26 35 13 12-13-4-25-13-34-11-11-57-55-62-63l85 7c16 2 21-20 11-28-6-4-49-5-62-6l-49-4c-25-3-13 4-42-26-9-9-28-26-34-35l83 6c20 3 22-24 9-29l-79-7c-10-1-40 0-46-3-2-1-75-74-77-78 10 0 103-2 108 1 7 3 30 26 39 34 16 13 38 35 54 46 14 10 33-11 17-25l-55-47c-2-1-8-7-9-8h67c28 0 17 1 44 23 6 5 11 11 17 15l31 27c11 9 27 29 38 10 5-8 3-15-4-20l-39-34c-7-6-18-13-23-20h102c6 0 9-1 13-4 3-2 2-1 4-4 7-13-2-23-18-22h-102l36-32c6-5 12-10 18-16 5-4 16-12 16-18 0-9-7-18-16-18-6 0-7 3-10 6s-6 5-9 7l-80 69c-5 3-74 1-83 1 5-7 56-48 66-58 9-9-2-25-14-25-7 0-28 22-35 28l-49 42c-3 3-12 12-15 13-6 2-99 0-110 0 3-5 14-15 19-20 6-6 54-56 59-57 9-3 56-4 71-6l27-1c5 0 4-1 9-1 7 0 13 0 18-2 15-5 10-31-6-29l-58 4c-9 0-20 2-29 2 5-8 41-42 51-51 11-11 7-8 25-10 15-1 103-6 110-9 12-5 8-30-8-29l-57 4c-9 0-20 2-29 2 5-8 61-61 72-73 12-12 8-28-10-28-7 0-17 13-23 18-11 11-53 56-62 61 0-14 4-42 5-57 1-10 1-19 2-30 1-14-19-20-27-10-4 5-5 49-6 62l-4 49c-3 26 2 16-25 43l-8 8-2 2c-6 6-19 22-25 24 1-18 3-38 5-55 1-10 1-18 2-29 2-15-22-22-29-9-1 2-2 15-2 18l-5 62c-1 10-1 38-4 46-2 6-33 35-38 40l-19 19-5 5-10 10c-3 3-2 3-7 4 0-11-2-102 1-108 2-3 6-7 9-10l68-79c19-19-8-39-21-22-16 21-35 39-51 60-3 3-1 3-5 4 0-11-2-78 1-83 2-4 6-7 9-10l22-25c6-7 12-13 17-20 2-2 3-3 4-5l17-20c2-2 3-2 4-5 3-4 7-7 8-10 5-11-7-21-16-21-10 0-33 34-42 42-4 4-5 6-8 9-5 5-11 16-17 17v-62c0-6 1-15 1-19-1-7-1-12-1-19 0-9 0-12-5-16-9-8-24-2-24 10z"/><path class="fil2" d="M15011 131h22l38 140-28 8c-15-32-26-54-34-65-13-18-29-32-48-42s-40-16-63-16c-27 0-52 7-75 22-23 14-41 36-55 63-14 28-21 59-21 94 0 36 7 68 21 96s34 50 58 65 51 23 79 23c27 0 54-8 82-23s52-37 72-64l24 16c-12 18-26 34-40 47-23 21-46 36-71 46s-52 15-81 15c-65 0-118-24-158-72-34-40-50-87-50-142 0-40 9-77 28-110s44-59 77-78 68-29 106-29c20 0 39 3 56 8 17 6 35 14 53 27l10-28z"/><path id="1" class="fil2" d="M15465 131h22l38 140-28 8c-15-32-26-54-34-65-13-18-29-32-48-42s-40-16-63-16c-27 0-52 7-75 22-23 14-41 36-55 63-14 28-21 59-21 94 0 36 7 68 21 96s34 50 58 65 51 23 79 23c27 0 54-8 82-23s52-37 72-64l24 16c-12 18-26 34-40 47-23 21-46 36-71 46s-52 15-81 15c-65 0-118-24-158-72-34-40-50-87-50-142 0-40 9-77 28-110s44-59 77-78 68-29 106-29c20 0 39 3 56 8 17 6 35 14 53 27l10-28z"/><path id="2" class="fil2" d="M15905 164h-211v320c0 19 2 30 6 34s16 6 35 6h11v25h-161v-25h10c18 0 29-2 34-6s8-14 8-32V198c0-17-2-29-7-34s-14-8-28-8h-17v-25h427v25h-14c-15 0-25 3-30 8s-7 17-7 34v285c0 19 2 31 6 35s16 6 36 6h9v25h-160v-25h12c15 0 25-1 29-3 5-2 8-5 9-9s2-15 2-33V163z"/><path id="3" class="fil3 str0" d="M15011 131h22l38 140-28 8c-15-32-26-54-34-65-13-18-29-32-48-42s-40-16-63-16c-27 0-52 7-75 22-23 14-41 36-55 63-14 28-21 59-21 94 0 36 7 68 21 96s34 50 58 65 51 23 79 23c27 0 54-8 82-23s52-37 72-64l24 16c-12 18-26 34-40 47-23 21-46 36-71 46s-52 15-81 15c-65 0-118-24-158-72-34-40-50-87-50-142 0-40 9-77 28-110s44-59 77-78 68-29 106-29c20 0 39 3 56 8 17 6 35 14 53 27l10-28z"/><path id="4" class="fil3 str0" d="M15465 131h22l38 140-28 8c-15-32-26-54-34-65-13-18-29-32-48-42s-40-16-63-16c-27 0-52 7-75 22-23 14-41 36-55 63-14 28-21 59-21 94 0 36 7 68 21 96s34 50 58 65 51 23 79 23c27 0 54-8 82-23s52-37 72-64l24 16c-12 18-26 34-40 47-23 21-46 36-71 46s-52 15-81 15c-65 0-118-24-158-72-34-40-50-87-50-142 0-40 9-77 28-110s44-59 77-78 68-29 106-29c20 0 39 3 56 8 17 6 35 14 53 27l10-28z"/><path id="5" class="fil3 str0" d="M15905 164h-211v320c0 19 2 30 6 34s16 6 35 6h11v25h-161v-25h10c18 0 29-2 34-6s8-14 8-32V198c0-17-2-29-7-34s-14-8-28-8h-17v-25h427v25h-14c-15 0-25 3-30 8s-7 17-7 34v285c0 19 2 31 6 35s16 6 36 6h9v25h-160v-25h12c15 0 25-1 29-3 5-2 8-5 9-9s2-15 2-33V163z"/><path d="M13085 678c0 72 34 139 91 182 6 4 10 7 16 11l18 10c23 11 62 24 86 24-12 25-21 64-24 93-3 31-8 125 26 125 26 0 28-58 28-88 0-27-7-76-16-101-4-10-7-20-11-29 13 0 8 3 20 0V462c0-11 2-12-7-12-73 0-145 39-185 97-26 38-41 83-41 130zm-235-4c0 29 58 27 74 28 27 3 68-3 92-9l39-12c4-2 9-4 13-5-1-4-3-4-11-7-44-19-127-29-175-18-11 2-31 8-31 23zm419-361c0 27 4 50 8 72 5 27 17 53 19 61l13-28c10-31 17-70 17-103 0-27-2-87-26-87-18 0-22 12-26 33-3 15-4 36-4 52zm-293 663c0 28 26 22 45 9l40-35c17-16 29-32 42-51l21-36c4-8 9-18 11-26-12 1-44 21-56 28l-6 4c-29 20-46 35-70 62-3 4-5 6-9 10-7 8-20 26-20 37zm0-608c0 15 4 18 12 32l54 58c24 19 39 30 67 44 5 2 8 4 13 6s9 3 13 5c-1-10-19-42-24-51-9-16-21-30-32-44l-22-23-1-1c-3-3-2-2-5-4-7-5-10-10-21-18-10-8-25-19-38-19-8 0-16 7-16 15zm3227 659h93l-46-130-47 130zm34-234h59l133 358c3 8 6 15 9 20 2 4 5 8 7 9 2 2 4 3 7 4s7 1 11 1h19v50h-174v-50c5 0 22-1 27-1 4 0 8 0 10-1h2c1-1 2-2 3-2v-1c0-1-1-4-2-8-1-5-3-11-6-19l-25-72h-133l-30 82c-1 4-3 8-3 11-1 2-1 4-1 4v3l1 1 6 2h23l12 1v50h-150v-50h13c5 0 10 0 13-1 3 0 5-1 7-2s3-2 4-3l4-4c1-2 3-5 5-10s5-11 8-20l133-354h9zm-1211 0h174v50h-24c-14 0-22 1-25 4-1 1-2 3-3 7-1 5-2 12-2 20v205l192-207v-14c0-4-1-7-1-9 0-1-1-1-1-2l-3-3c-2-1-4-2-6-2-3-1-7-1-12-1h-29v-50h185v50h-27c-6 0-12 1-15 2-2 1-4 1-5 2s-2 3-2 7c-1 5-1 11-1 19v285c0 9 0 16 1 21l1 5s2 1 6 1c5 1 12 1 21 1h22v50h-185v-50h24c7 0 13 0 17-1 4 0 6-1 8-1l2-1c0-1 1-4 1-8V954l-192 206c0 6 1 12 1 16 1 3 1 5 1 5s2 1 6 1c5 1 12 1 21 1h24v50h-187v-50h23c8 0 15 0 20-1 4-1 6-1 7-2l1-3c1-4 2-10 2-18V871c0-8-1-14-1-19l-2-6c-1-1-2-2-5-2-4-1-8-2-14-2h-29v-50h13zm571 0h61l115 308 112-308h147v50h-23c-6 0-11 0-15 1-3 0-5 1-6 1l-2 2c-1 1-2 2-2 4-1 2-1 4-2 8s-1 9-1 15v276c0 9 0 15 1 20 0 4 1 7 2 9 0 1 1 2 2 3s2 2 3 2c1 1 3 1 6 1 4 1 9 1 15 1h23v50h-184v-50h36c3 0 5-1 6-1s3-1 4-2 2-1 3-2l2-3c1-4 1-8 2-13V922l-115 315h-48l-117-312v227c0 7 0 13 1 17 0 4 1 6 2 8 1 1 2 3 3 4s2 2 4 3c1 1 4 1 7 2 4 1 10 1 16 1h22v50h-173v-50h21c7 0 12 0 16-1s7-1 9-2 3-2 5-3c1-1 2-2 3-4s1-4 2-9 1-11 1-19V875c0-7 0-13-1-17 0-4-1-6-1-7s-1-2-2-3-2-2-3-2c-1-1-4-1-7-2-4 0-9-1-15-1h-27v-50h92zm912-2h21v2h261v-2h22l1 2h13l46 129-50 18-5-11c-6-15-13-29-20-39s-14-18-22-24-17-10-26-13c-10-3-22-4-34-4h-14v304c0 7 0 12 1 16 0 4 1 6 1 8l2 4c2 2 1 2 3 3l4 1c2 0 5 1 10 1l33 1v50h-185v-50l33-1c4 0 7-1 9-1 2-1 3-1 5-2 1-1 2-2 2-3 1-2 2-4 2-8 1-5 1-10 1-17V849h-9c-10 0-20 1-27 2-8 1-14 3-20 5s-11 6-16 10c-6 4-11 9-16 15s-10 13-15 21c-4 8-9 17-13 27l-4 12-50-18 45-129h13l1-2zm-2341 2h174v50h-24c-6 0-11 0-15 1-3 1-5 1-7 2l-3 3c-1 1-2 3-3 5s-1 4-1 7-1 8-1 13v127l136-143 9-11 3-4h-2c-3 0-8-1-13-1h-22v-50h174v51h-13c-5 0-10 0-15 1s-9 1-13 3c-4 1-8 3-11 4s-6 3-8 4c-6 4-11 8-15 12-4 3-7 6-10 9l-105 107 122 161c6 8 11 14 15 19s8 9 11 11 6 4 8 6c3 2 6 3 8 4 3 1 7 2 11 2s10 1 16 1h5c12 0 20-2 24-5 2-2 4-5 7-10 3-6 7-14 10-23l133-354h68l133 358c3 8 6 14 8 19s5 8 7 10 4 3 7 4 7 2 11 2h19v50h-174v-49l11-1 9-1h11c5 0 8-1 10-2 0 0 1-1 1-3s-1-4-2-8c-1-5-3-11-6-18l-92-257-96 267c-1 4-3 8-3 11-1 2-1 4-1 5v3l1 1 2 2 8 1 31 1v50h-329v-50h41s2 0 2-1l-3-6c-3-6-8-13-15-22l-85-116-40 40v75c0 6 0 11 1 15 0 3 1 5 2 7l3 3c1 1 2 2 4 2 1 0 4 1 9 1 6 0 13 1 23 1h13v50h-187v-50h25c6 0 10 0 14-1 3 0 5-1 6-1s2-1 3-2 2-3 3-4c1-2 1-5 2-9 1-5 1-10 1-17V879c0-7 0-12-1-17 0-4-1-6-2-8-1-1-1-3-2-3l-2-2c-1 0-3-1-7-1s-10-1-17-1h-22v-50h13zm-962-721c0 5 1 3 1 8 12 0 35-6 50-7 59-5 72-4 131 1 20 2 39 6 57 11s35 10 52 15c17 6 32 13 49 19 21 9 46 23 65 35l40 27c7 5 12 10 19 15 55 44 104 104 136 168 2 4 4 7 6 11l16 35c3 8 7 16 10 24 19 54 32 113 32 171 0 79-7 125-31 199-10 31-26 63-42 91-2 4-4 6-6 10l-27 40c-20 29-45 54-71 79-3 3-5 4-9 8-14 14-31 26-47 37-22 16-47 32-73 43l-12 6c-23 11-48 21-72 28-28 8-52 14-82 18-58 8-124 8-182-4-18-4-39-8-56-14-26-8-51-18-76-29-34-16-66-35-96-58-22-17-43-35-63-55-35-35-67-78-90-122-4 0-6 2-9 4l9 18c13 27 29 53 47 77l43 53c12 11 21 25 34 35 3 3 4 3 8 7 9 9 19 18 30 25 21 16 42 31 65 45 12 7 23 13 36 19 99 49 217 74 334 60 42-5 79-13 119-26l53-21c31-13 60-29 88-48 43-29 66-50 104-88 4-4 5-6 8-9 15-16 28-33 41-51 31-43 57-93 75-144 2-5 3-8 4-13 2-5 3-8 5-14 11-40 18-70 22-103l3142 10v-84l-3138-10v-2c0-71-17-141-43-206-13-33-30-64-49-94l-29-42c-5-7-10-13-16-20-2-2-2-3-4-5l-13-14c-12-12-23-25-36-36l-19-17c-7-5-12-10-19-16s-13-10-21-15l-90-52c-17-8-32-15-50-21s-36-12-55-17c-91-23-178-23-270-5-8 2-26 6-32 8z" fill="url(#id2)"/></g></svg>