<svg xmlns="http://www.w3.org/2000/svg" width="52mm" height="12mm" viewBox="0 0 5200 1200" shape-rendering="geometricPrecision" text-rendering="geometricPrecision" image-rendering="optimizeQuality" fill-rule="evenodd" clip-rule="evenodd"><defs><linearGradient id="id0" gradientUnits="userSpaceOnUse" x1="2464.16" y1="-161.29" x2="2824.16" y2="1273.19"><stop offset="0" stop-color="#ffbe1d"/><stop offset="1" stop-color="#ff8d03"/></linearGradient></defs><g id="Слой_x0020_1" fill-rule="nonzero"><path id="_45" d="M4951.85 1066.58l54.3-141.7h20.37l57.69 141.7H5063l-16.12-43.27h-60.24l-15.27 43.27H4951h.85zm40.73-58.56h48.36l-14.42-39.03c-4.23-11.87-7.63-22.06-10.18-29.69-1.7 9.33-4.24 18.66-7.63 27.15l-15.28 41.57h-.85zm-171.39 58.56l55.15-73.82-48.36-67.88h22.06l26.3 36.48c5.09 7.63 9.33 13.57 11.03 16.97 3.39-5.09 6.79-10.18 11.03-16.12l28-37.34h20.36l-49.21 67.03 53.45 74.67h-22.9l-35.64-50.91c-1.7-2.55-4.24-5.94-5.94-8.49-3.39 5.1-5.09 8.49-6.79 10.19l-36.48 49.21h-22.91.85v.01zm-126.42-141.7h18.66l46.68 87.4 40.73-87.4h18.66l-53.45 110.29c-6.79 13.58-11.89 22.91-16.12 27.15-4.24 4.25-10.18 6.79-18.67 6.79-5.1 0-11.03-.85-17.83-3.39v-16.12c5.1 2.54 10.19 4.24 16.12 4.24 4.25 0 8.49-1.7 11.88-4.24 3.4-2.55 6.79-9.34 11.03-20.37l-57.69-104.35zm-109.45 0h86.54v125.58h12.73v50.06h-16.97v-33.09h-94.18v33.09h-16.96v-50.06h11.02c11.89-16.97 16.97-51.76 16.97-104.36v-20.37l.85-.85zm67.87 16.96h-50.06v7.64c0 11.88-.84 28.85-3.39 49.21-2.55 21.21-6.79 38.18-12.73 51.76h66.18V941.84zm-208.72 84.85l17.82-4.24c1.7 6.78 5.09 13.57 11.03 20.36 5.94 6.79 13.57 10.18 23.76 10.18 10.18 0 17.81-2.54 23.75-7.63 5.94-5.1 8.49-11.02 8.49-18.67 0-7.64-3.4-14.41-9.34-18.67-5.93-4.24-14.42-6.78-24.6-6.78h-9.33v-16.13c8.48 0 15.27-.84 19.51-1.69 4.24-.85 8.49-3.4 11.88-7.64 3.39-4.24 5.09-8.48 5.09-13.57 0-5.94-2.55-11.88-6.79-16.12-5.09-4.25-11.03-6.79-19.51-6.79-6.79 0-13.58 1.7-18.67 5.1-5.09 3.39-8.48 8.48-10.18 14.41-1.7 5.94-2.55 10.18-2.55 13.58l-17.81-4.24c4.24-29.7 21.21-44.97 50.06-44.97 13.57 0 24.6 4.24 33.09 11.88 8.48 7.63 11.87 16.96 11.87 27.15 0 13.57-5.93 23.75-18.66 30.54 7.63 1.7 13.57 5.94 17.82 11.88 5.09 5.94 7.63 13.57 7.63 22.06 0 11.88-5.09 22.06-14.42 30.54-9.33 8.49-22.06 12.73-37.33 12.73-27.16 0-44.12-14.42-52.61-42.42v-.85zm-152.72-28.85c0-23.76 5.94-41.57 18.66-55.15 12.73-13.57 28.85-20.36 49.21-20.36 12.73 0 24.61 3.39 35.64 9.34 10.18 5.94 18.67 15.27 23.76 26.29 5.94 11.03 8.48 23.76 8.48 38.19 0 14.43-2.54 27.15-8.48 38.19-5.94 11.02-14.43 20.35-24.61 25.45-11.03 5.94-22.06 8.48-34.79 8.48-13.57 0-25.45-3.39-35.63-9.33-10.18-6.79-18.67-15.27-23.76-26.3-5.09-11.03-8.48-22.91-8.48-35.64v.85-.01zm19.51 0c0 16.97 4.24 30.56 13.58 40.73 9.33 10.18 20.36 14.42 34.78 14.42 14.43 0 25.46-5.09 34.79-15.27 9.33-10.18 13.58-23.76 13.58-42.42 0-11.88-1.7-21.22-5.94-30.55-4.24-8.48-9.34-15.27-16.97-20.36-7.64-5.09-16.12-6.79-25.46-6.79-13.57 0-24.6 4.24-34.78 13.58-9.34 9.33-14.43 24.6-14.43 45.81l.85.85zm-139.99 68.74v-141.7h53.45c11.03 0 19.51 1.7 26.3 4.24 6.79 2.55 11.88 7.63 15.27 13.57 3.4 5.94 5.94 11.88 5.94 18.67 0 5.94-1.69 11.89-5.09 16.97-3.39 5.09-8.48 9.33-15.27 12.72 8.48 2.55 15.27 6.79 19.51 12.73 4.25 5.94 6.79 13.58 6.79 21.22 0 6.79-1.69 12.73-4.24 18.67-2.55 5.94-5.94 10.18-10.18 13.57-4.24 3.4-9.34 5.09-15.27 6.79-5.94 1.7-13.58 2.55-22.91 2.55h-54.3zm18.66-82.31h30.55c8.48 0 14.42-.85 17.81-1.7 5.09-1.7 8.49-3.39 11.03-6.79 2.55-3.39 3.4-7.63 3.4-12.73 0-5.09-.85-8.48-3.4-12.72-2.54-3.4-5.09-5.94-9.33-7.64-4.24-1.7-11.03-1.7-21.21-1.7h-28.85v43.28zm0 65.33h35.64c5.94 0 10.18 0 12.72-.85 4.25-.84 7.64-1.7 11.03-4.23 2.55-1.71 5.09-4.25 6.79-7.64 1.7-3.39 2.55-7.64 2.55-11.88 0-5.1-1.7-10.18-4.25-13.57-2.54-4.25-6.78-6.79-11.03-8.5-5.09-1.69-11.87-2.54-21.21-2.54h-33.09v49.21h.85zm-205.33 16.98v-141.7h102.67v16.96h-84v43.27h78.91v16.98h-78.91v48.37h87.39v16.12H3984.6zm-142.54-141.7h16.97v112.85l75.51-112.85h18.67v141.7h-16.97V954.57l-75.51 112.01h-18.67v-141.7zm-143.39 141.7v-141.7h18.67v58.54h73.81v-58.54h18.67v141.7h-18.67v-66.19h-73.81v66.19h-18.67zm-133.21 0v-141.7h102.67v16.96h-83.15v43.27h78.06v16.98h-78.06v48.37h86.54v16.12h-106.06zm-142.54 0v-141.7h18.67v58.54h73.81v-58.54h18.67v141.7h-18.67v-66.19h-73.81v66.19h-18.67zm-98.42-141.7v61.93c9.33 0 15.27-1.7 18.66-5.09 3.4-3.39 7.64-11.03 12.73-23.76 4.24-9.33 6.79-16.12 9.33-19.51 2.55-4.23 5.94-6.78 11.03-9.33 5.1-2.55 10.19-4.24 15.28-4.24h11.88V941h-6.79c-5.94 0-10.18 1.7-13.58 4.24-3.39 2.55-6.79 9.33-10.18 18.67-4.24 10.17-7.64 16.96-11.03 21.21-3.39 3.4-7.64 6.79-13.57 9.34 9.33 2.54 18.66 11.03 27.15 25.45l29.69 47.52h-22.91l-23.75-38.19c-5.94-10.18-11.88-17.81-16.12-21.21-4.25-4.24-10.19-5.94-17.82-5.94v66.18h-19.52v-66.18c-5.94 0-11.88 1.7-16.12 5.09-5.09 3.4-10.18 10.19-16.97 21.22l-.85 1.69-23.75 38.18h-23.76l29.7-47.51c9.33-14.42 17.81-22.91 27.15-25.45-5.09-1.7-9.34-5.09-12.73-8.49-3.39-3.39-6.79-11.03-11.88-22.06-4.24-10.18-7.63-16.97-10.18-19.51-2.54-2.55-7.64-4.25-12.73-4.25h-7.63v-16.12h11.03c5.94 0 11.88 1.7 16.12 4.25 4.24 2.54 8.48 5.94 11.03 9.33 2.54 4.24 5.94 10.18 10.18 20.36 5.09 12.73 10.18 20.37 13.58 23.76 3.39 3.39 10.18 5.09 18.66 5.09v-61.94h19.52l-.85-.85zm-234.18 141.7l54.3-141.7h20.37l57.69 141.7h-21.21l-16.12-43.27h-60.24l-15.27 43.27h-20.37.85zm40.73-58.56h48.36l-14.42-39.03c-4.25-11.87-7.64-22.06-10.18-29.69-1.7 9.33-4.25 18.66-7.64 27.15l-15.27 41.57h-.85zm-145.09-83.14h89.09v141.7h-18.67V941h-50.9v72.97c0 15.27-.85 25.46-1.7 32.24-1.71 6.79-4.24 11.88-8.5 16.12-4.23 4.25-10.17 5.94-16.96 5.94-4.24 0-9.33-.84-15.28-2.54l3.4-16.97c3.39 1.7 5.94 2.54 7.63 2.54 4.24 0 7.64-1.69 9.34-5.09 2.54-3.39 3.39-11.03 3.39-22.9V923.19l-.85 1.69h.01zm-141.69 141.7v-141.7h53.45c11.03 0 19.52 1.7 26.3 4.24 6.79 2.55 11.88 7.63 15.28 13.57 3.39 5.94 5.93 11.88 5.93 18.67 0 5.94-1.69 11.89-5.09 16.97-3.39 5.09-8.48 9.33-15.27 12.72 8.49 2.55 15.27 6.79 19.52 12.73 4.24 5.94 6.78 13.58 6.78 21.22 0 6.79-1.69 12.73-4.24 18.67-2.54 5.94-5.94 10.18-10.18 13.57-4.24 3.4-9.33 5.09-15.27 6.79-5.94 1.7-13.58 2.55-22.91 2.55h-54.3zm18.66-82.31h30.55c8.48 0 14.42-.85 17.82-1.7 5.09-1.7 8.48-3.39 11.03-6.79 2.54-3.39 3.39-7.63 3.39-12.73 0-5.09-.85-8.48-3.39-12.72-2.55-3.4-5.09-5.94-9.34-7.64-4.24-1.7-11.03-1.7-21.21-1.7h-28.85v43.28zm0 65.33h35.64c5.94 0 10.18 0 12.73-.85 4.24-.84 7.63-1.7 11.03-4.23 2.54-1.71 5.09-4.25 6.78-7.64 1.7-3.39 2.55-7.64 2.55-11.88 0-5.1-1.7-10.18-4.24-13.57-2.55-4.25-6.79-6.79-11.03-8.5-5.09-1.69-11.88-2.54-21.21-2.54h-33.09v49.21h.84zm-158.66-124.72h18.67l46.66 87.4 40.73-87.4H2829l-53.46 110.29c-6.79 13.58-11.88 22.91-16.12 27.15-4.24 4.25-10.18 6.79-18.67 6.79-5.09 0-11.03-.85-17.81-3.39v-16.12c5.09 2.54 10.17 4.24 16.12 4.24 4.23 0 8.48-1.7 11.88-4.24 3.39-2.55 6.78-9.34 11.03-20.37l-57.71-104.35h.01zm-238.42 0h17.82v112.85l75.51-112.85h18.67v141.7h-16.97V954.57l-75.51 112.01h-19.52v-141.7zm-142.54 0h16.97v112.85l75.51-112.85h18.67v141.7h-16.97V954.57l-75.52 112.01h-18.66v-141.7zm-146.78 0h18.66v125.58h73.82V924.88h18.66v125.58h13.58v55.99h-16.98v-39.87h-107.74v-141.7zm-31.41 141.7v-141.7h-62.77c-12.73 0-22.06 1.7-28.85 4.24-6.79 2.55-11.89 6.78-16.12 13.57-4.24 6.79-5.95 13.58-5.95 21.22 0 10.17 3.39 18.67 10.18 25.46 6.79 6.78 16.97 11.02 30.54 12.72-5.09 2.55-8.48 5.09-11.03 6.79-5.09 5.09-11.02 11.02-15.27 18.67l-24.6 39.03H2045l18.67-29.7c5.09-8.48 10.18-15.27 13.58-19.51 3.39-4.25 6.78-7.64 9.33-9.34 2.54-1.7 5.94-3.39 8.48-3.39 2.55-.85 5.94-.85 10.19-.85h22.06v62.79h18.66-.85zm-18.66-78.92h-40.73c-8.48 0-15.27-.85-20.36-2.55-5.09-1.69-8.49-4.24-11.03-8.48-2.55-4.24-3.4-8.48-3.4-12.73 0-6.78 2.56-11.88 7.64-16.97 5.1-4.24 12.73-6.78 22.91-6.78h44.97v47.51zm-213.82-62.78h89.1v141.7h-18.67V941h-50.91v72.97c0 15.27-.85 25.46-1.7 32.24-1.7 6.79-4.24 11.88-8.48 16.12-4.25 4.25-10.18 5.94-16.97 5.94-4.24 0-9.34-.84-15.27-2.54l3.39-16.97c3.39 1.7 5.94 2.54 7.64 2.54 4.24 0 7.63-1.69 9.33-5.09 2.54-3.39 3.39-11.03 3.39-22.9V923.19l-.85 1.69zm-152.72 0h16.97v112.85l75.51-112.85h18.67v141.7h-16.97V954.57l-75.5 112.01h-18.68v-141.7zm-85.69 141.7V941.84h-46.67v-16.96h112v16.96h-46.67v124.74h-18.66zm-179.03 0v-141.7h18.67v58.54h73.81v-58.54h18.67v141.7h-18.67v-66.19h-73.81v66.19h-18.67zm-133.21 0v-141.7h102.66v16.96h-83.15v43.27h78.06v16.98h-78.06v48.37h86.55v16.12h-106.06zm-133.21 0v-141.7h53.45c11.03 0 19.52 1.7 26.31 4.24 6.78 2.55 11.88 7.63 15.27 13.57 3.39 5.94 5.94 11.88 5.94 18.67 0 5.94-1.7 11.89-5.09 16.97-3.4 5.09-8.49 9.33-15.27 12.72 8.48 2.55 15.27 6.79 19.51 12.73 4.24 5.94 6.79 13.58 6.79 21.22 0 6.79-1.7 12.73-4.24 18.67-2.55 5.94-5.94 10.18-10.19 13.57-4.24 3.4-9.33 5.09-15.27 6.79-5.94 1.7-13.57 2.55-22.91 2.55h-54.3zm18.67-82.31h30.54c8.49 0 14.43-.85 17.82-1.7 5.09-1.7 8.48-3.39 11.03-6.79 2.55-3.39 3.39-7.63 3.39-12.73 0-5.09-.84-8.48-3.39-12.72-2.55-3.4-5.09-5.94-9.33-7.64-4.25-1.7-11.03-1.7-21.21-1.7h-28.85v43.28zm0 65.33h35.63c5.94 0 10.18 0 12.73-.85 4.24-.84 7.64-1.7 11.03-4.23 2.55-1.71 5.09-4.25 6.79-7.64 1.69-3.39 2.54-7.64 2.54-11.88 0-5.1-1.69-10.18-4.24-13.57-2.54-4.25-6.79-6.79-11.03-8.5-5.09-1.69-11.88-2.54-21.21-2.54h-33.09v49.21h.85zm1363.49 16.98v-19.52h19.51v19.52c0 7.62-1.69 13.57-4.24 17.81-2.54 4.25-6.79 7.64-12.72 10.19l-5.1-7.64c3.4-1.7 6.79-4.24 8.49-6.79 1.7-3.39 2.54-7.63 2.54-13.57h-10.18 1.7zm1584.93-220.61V703.42h102.67v16.97h-84v43.28h78.9v16.97h-78.9V829h87.39v16.97h-106.06zm-142.54-142.55h16.97v112.85l75.51-112.85h18.67v142.55h-16.97v-112l-75.51 112h-18.67V703.42zm-143.39 142.55V703.42h18.66v58.55h73.82v-58.55h18.67v142.55h-18.67v-67.03h-73.82v67.03h-18.66zm-148.48 0l54.3-141.7h20.36l57.7 141.7h-21.21l-16.12-43.27h-60.25l-15.27 43.27h-20.36.85zm40.72-58.55h48.37l-14.43-39.03c-4.24-11.88-7.63-22.06-10.18-29.69-1.7 9.33-4.24 18.67-7.64 27.15l-15.27 41.57h-.85zm-151.87 58.55v-141.7h53.45c11.03 0 19.52 1.7 26.3 4.25 6.79 2.54 11.88 7.63 15.28 13.57 3.39 5.94 5.94 11.88 5.94 18.67 0 5.94-1.7 11.88-5.1 16.97-3.39 5.09-8.48 9.33-15.27 12.72 8.49 2.55 15.27 6.79 19.52 12.73 4.24 5.94 6.78 13.58 6.78 21.21 0 6.79-1.69 12.73-4.24 18.67-2.54 5.94-5.94 10.18-10.18 13.57-4.24 3.4-9.33 5.09-15.27 6.79-5.94 1.7-13.58 2.55-22.91 2.55h-54.3zm18.66-82.3h30.55c8.48 0 14.42-.84 17.82-1.7 5.09-1.7 8.48-3.4 11.03-6.79 2.54-3.39 3.39-7.64 3.39-12.73 0-5.09-.85-8.48-3.39-12.72-2.55-3.4-5.09-5.94-9.34-7.64-4.24-1.7-11.03-1.7-21.21-1.7h-28.85v43.28zm0 65.33h35.64c5.94 0 10.18 0 12.73-.84 4.24-.85 7.63-1.71 11.03-4.24 2.54-1.71 5.09-4.25 6.78-7.64 1.7-3.39 2.55-7.64 2.55-11.88 0-5.1-1.7-10.18-4.24-13.57-2.55-4.25-6.79-6.79-11.03-8.49-5.09-1.7-11.88-2.55-21.21-2.55h-33.09V829h.84zm-178.17-52.6c0-23.75 5.94-41.58 18.66-55.15 12.73-13.57 28.85-20.36 49.21-20.36 12.73 0 24.61 3.39 35.64 9.33 10.18 5.94 18.67 15.27 23.76 26.3 5.94 11.02 8.48 23.76 8.48 38.19 0 14.42-2.54 27.15-8.48 38.18-5.94 11.03-14.43 20.36-24.61 25.45-11.03 5.94-22.06 8.49-34.79 8.49-13.57 0-25.45-3.4-35.63-9.34-10.18-6.79-18.67-15.27-23.76-26.3-5.09-11.03-8.48-22.91-8.48-35.64v.85zm19.51 0c0 16.96 4.24 30.55 13.58 40.73 9.33 10.18 20.36 14.41 34.78 14.41 14.43 0 25.46-5.09 34.79-15.27 9.33-10.18 13.58-23.75 13.58-42.42 0-11.88-1.7-21.21-5.94-30.55-4.24-8.48-9.34-15.27-16.97-20.36-7.64-5.09-16.12-6.79-25.46-6.79-13.57 0-24.6 4.24-34.78 13.58-9.34 9.33-14.43 24.6-14.43 45.81l.85.85v.01zm-142.54 69.57v-141.7h53.45c9.34 0 16.97.85 22.06 1.7 6.79.85 12.73 3.39 17.82 6.79 5.09 3.39 8.49 7.63 11.03 13.57 2.55 5.94 4.24 11.88 4.24 19.52 0 11.88-4.24 22.06-11.88 30.54-7.63 8.49-21.21 12.73-41.57 12.73h-36.48v57.7h-18.67v-.85zm18.67-74.67h36.48c11.88 0 21.21-2.54 26.3-6.79 5.09-4.23 7.64-11.02 7.64-18.66 0-5.94-1.7-11.03-4.24-15.27-3.4-4.25-6.79-6.79-11.88-8.49-3.4-.85-9.34-.85-17.82-.85h-36.48v50.91-.85zm-160.36-67.88h16.97v112.85l75.51-112.85h18.67v142.55h-16.97v-112l-75.52 112h-18.66V703.42zm-143.39 142.55V703.42h18.66v58.55h73.82v-58.55h18.66v142.55h-18.66v-67.03h-73.82v67.03h-18.66zm-161.21-69.57c0-23.75 5.94-41.58 18.66-55.15 12.73-13.57 28.85-20.36 49.21-20.36 12.73 0 24.61 3.39 35.64 9.33 10.18 5.94 18.67 15.27 23.76 26.3 5.94 11.02 8.48 23.76 8.48 38.19 0 14.42-2.54 27.15-8.48 38.18-5.94 11.03-14.44 20.36-24.61 25.45-11.03 5.94-22.07 8.49-34.8 8.49-13.57 0-25.45-3.4-35.63-9.34-10.18-6.79-18.67-15.27-23.75-26.3-5.1-11.03-8.49-22.91-8.49-35.64v.85h.01zm19.51 0c0 16.96 4.24 30.55 13.58 40.73 9.33 10.18 20.36 14.41 34.78 14.41 14.43 0 25.46-5.09 34.79-15.27 9.33-10.18 13.58-23.75 13.58-42.42 0-11.88-1.7-21.21-5.94-30.55-4.24-8.48-9.34-15.27-16.97-20.36-7.64-5.09-16.12-6.79-25.46-6.79-13.57 0-24.6 4.24-34.78 13.58-9.34 9.33-14.44 24.6-14.44 45.81l.85.85.01.01zm-156.12-72.98h16.97v112.85l75.52-112.85h18.66v142.55h-16.97v-112l-75.51 112h-18.67V703.42zm-146.78 0h18.67V829h73.81V703.42h18.67V829h13.57v56h-16.96v-39.03h-107.76V703.42zm-142.54 0h16.97v112.85l75.51-112.85h18.67v142.55h-16.97v-112l-75.52 112h-18.66V703.42zm-122.18 0h86.54V829h12.73v50.07h-16.97v-33.09h-94.18v33.09h-16.97V829h11.03c11.88-16.97 16.97-51.76 16.97-104.35v-20.37l.85-.85v-.01zm67.88 16.97h-50.07v7.64c0 11.88-.85 28.85-3.4 49.21-2.54 21.21-6.78 38.18-12.72 51.76h66.19V720.39zm-224 125.58V703.42h19.52v58.55h72.95v-58.55h18.68v142.55h-18.68v-67.03h-72.95v67.03h-19.52zm-161.21-69.57c0-23.75 6.79-41.58 18.67-55.15 12.73-13.57 28.85-20.36 49.21-20.36 12.73 0 24.61 3.39 35.64 9.33 10.18 5.94 18.66 15.27 23.75 26.3 5.94 11.02 8.49 23.76 8.49 38.19 0 14.42-2.55 27.15-8.49 38.18-5.95 11.03-14.42 20.36-24.61 25.45-11.02 5.94-22.06 8.49-34.79 8.49-13.57 0-25.45-3.4-35.63-9.34-10.19-6.79-18.67-15.27-23.76-26.3-5.09-11.03-8.49-22.91-8.49-35.64v.85h.01zm19.52 0c0 16.96 4.24 30.55 13.57 40.73 9.34 10.18 20.36 14.41 34.79 14.41s25.46-5.09 34.79-15.27c9.33-10.18 13.57-23.75 13.57-42.42 0-11.88-1.7-21.21-5.94-30.55-4.24-8.48-9.33-15.27-16.96-20.36-7.64-5.09-16.13-6.79-25.46-6.79-13.57 0-24.61 4.24-34.79 13.58-9.33 9.33-14.42 24.6-14.42 45.81l.85.85v.01zm2255.22 69.57v-19.52h19.51v19.52c0 7.63-1.7 13.57-4.24 17.82-2.55 4.24-6.79 7.63-12.73 10.18l-5.09-7.63c3.4-1.71 6.79-4.24 8.49-6.79 1.69-3.39 2.54-7.63 2.54-13.57h-10.18 1.7v-.01zM1946.59 703.42h18.67v61.94c8.48 0 14.41-1.69 17.82-5.09 3.39-3.39 7.63-11.03 13.57-23.76 4.24-9.33 6.79-16.12 10.18-19.51 2.55-4.24 5.94-6.79 11.03-9.33 5.09-2.55 10.18-4.25 15.28-4.25h11.87v16.13h-6.78c-5.94 0-10.19 1.7-13.58 4.24-3.39 2.54-5.94 9.33-10.18 18.66-5.09 11.88-8.49 19.52-11.88 22.91-3.39 3.4-7.64 5.94-11.88 7.64 9.34 2.54 18.67 11.03 27.15 25.45l29.69 47.52h-23.75l-23.75-38.18c-6.79-11.03-11.88-17.82-16.13-22.06-4.24-4.25-10.18-5.94-16.96-5.94v66.18h-18.67v-141.7l-1.7-.85z" fill="#fff"/><path d="M1562.23 123.92h18.66l32.25 118.79-23.76 6.79c-12.73-27.15-22.06-45.82-28.85-55.15-11.02-15.28-24.6-27.15-40.73-35.64-16.12-8.48-33.93-13.57-53.45-13.57-22.91 0-44.12 5.94-63.63 18.66-19.52 11.88-34.79 30.56-46.67 53.46-11.88 23.75-17.82 50.06-17.82 79.76 0 30.55 5.94 57.7 17.82 81.45 11.88 23.75 28.85 42.42 49.21 55.15 20.37 12.73 43.27 19.51 67.03 19.51 22.91 0 45.82-6.78 69.57-19.51 23.76-12.73 44.12-31.4 61.09-54.31l20.37 13.58c-10.18 15.27-22.06 28.84-33.94 39.87-19.52 17.82-39.03 30.55-60.24 39.03-21.21 8.49-44.12 12.73-68.73 12.73-55.15 0-100.12-20.36-134.06-61.09-28.84-33.94-42.42-73.81-42.42-120.48 0-33.94 7.64-65.33 23.76-93.33s37.33-50.06 65.33-66.18c28-16.12 57.7-24.61 89.94-24.61 16.97 0 33.09 2.55 47.51 6.79 14.43 5.09 29.7 11.88 44.97 22.91l8.48-23.76-1.69-.85zm385.2 0h18.68l32.24 118.79-23.76 6.79c-12.73-27.15-22.06-45.82-28.85-55.15-11.03-15.28-24.6-27.15-40.72-35.64-16.12-8.48-33.95-13.57-53.47-13.57-22.9 0-44.12 5.94-63.63 18.66-19.52 11.88-34.79 30.56-46.67 53.46-11.87 23.75-17.81 50.06-17.81 79.76 0 30.55 5.94 57.7 17.81 81.45 11.88 23.75 28.85 42.42 49.21 55.15 20.37 12.73 43.28 19.51 67.03 19.51 22.91 0 45.82-6.78 69.58-19.51 23.75-12.73 44.12-31.4 61.09-54.31l20.36 13.58c-10.18 15.27-22.06 28.84-33.94 39.87-19.51 17.82-39.03 30.55-60.24 39.03-21.21 8.49-44.12 12.73-68.73 12.73-55.15 0-100.11-20.36-134.05-61.09-28.85-33.94-42.43-73.81-42.43-120.48 0-33.94 7.64-65.33 23.76-93.33s37.33-50.06 65.33-66.18c28-16.12 57.7-24.61 89.94-24.61 16.97 0 33.09 2.55 47.51 6.79 14.43 5.09 29.7 11.88 44.97 22.91l8.49-23.76-1.7-.85zm373.33 27.16h-179.03v271.5c0 16.12 1.71 25.46 5.1 28.85 3.39 3.4 13.58 5.09 29.7 5.09h9.33v21.21h-136.6v-21.21h8.48c15.27 0 24.61-1.69 28.85-5.09 4.24-3.39 6.79-11.88 6.79-27.15V179.92c0-14.42-1.7-24.6-5.94-28.84-4.25-4.25-11.88-6.79-23.76-6.79h-14.42v-21.21h362.29v21.21h-11.88c-12.72 0-21.21 2.54-25.45 6.79-4.24 4.24-5.94 14.42-5.94 28.84v241.81c0 16.13 1.7 26.31 5.09 29.7 3.39 3.4 13.58 5.09 30.54 5.09h7.64v21.21H2275.8v-21.21h10.18c12.72 0 21.21-.85 24.6-2.54 4.25-1.7 6.79-4.25 7.64-7.64.85-3.39 1.7-12.73 1.7-28V150.23l.84.85zm-758.53-27.16h18.66l32.25 118.79-23.76 6.79c-12.73-27.15-22.06-45.82-28.85-55.15-11.02-15.28-24.6-27.15-40.73-35.64-16.12-8.48-33.93-13.57-53.45-13.57-22.91 0-44.12 5.94-63.63 18.66-19.52 11.88-34.79 30.56-46.67 53.46-11.88 23.75-17.82 50.06-17.82 79.76 0 30.55 5.94 57.7 17.82 81.45 11.88 23.75 28.85 42.42 49.21 55.15 20.37 12.73 43.27 19.51 67.03 19.51 22.91 0 45.82-6.78 69.57-19.51 23.76-12.73 44.12-31.4 61.09-54.31l20.37 13.58c-10.18 15.27-22.06 28.84-33.94 39.87-19.52 17.82-39.03 30.55-60.24 39.03-21.21 8.49-44.12 12.73-68.73 12.73-55.15 0-100.12-20.36-134.06-61.09-28.84-33.94-42.42-73.81-42.42-120.48 0-33.94 7.64-65.33 23.76-93.33s37.33-50.06 65.33-66.18c28-16.12 57.7-24.61 89.94-24.61 16.97 0 33.09 2.55 47.51 6.79 14.43 5.09 29.7 11.88 44.97 22.91l8.48-23.76-1.69-.85zm385.2 0h18.68l32.24 118.79-23.76 6.79c-12.73-27.15-22.06-45.82-28.85-55.15-11.03-15.28-24.6-27.15-40.72-35.64-16.12-8.48-33.95-13.57-53.47-13.57-22.9 0-44.12 5.94-63.63 18.66-19.52 11.88-34.79 30.56-46.67 53.46-11.87 23.75-17.81 50.06-17.81 79.76 0 30.55 5.94 57.7 17.81 81.45 11.88 23.75 28.85 42.42 49.21 55.15 20.37 12.73 43.28 19.51 67.03 19.51 22.91 0 45.82-6.78 69.58-19.51 23.75-12.73 44.12-31.4 61.09-54.31l20.36 13.58c-10.18 15.27-22.06 28.84-33.94 39.87-19.51 17.82-39.03 30.55-60.24 39.03-21.21 8.49-44.12 12.73-68.73 12.73-55.15 0-100.11-20.36-134.05-61.09-28.85-33.94-42.43-73.81-42.43-120.48 0-33.94 7.64-65.33 23.76-93.33s37.33-50.06 65.33-66.18c28-16.12 57.7-24.61 89.94-24.61 16.97 0 33.09 2.55 47.51 6.79 14.43 5.09 29.7 11.88 44.97 22.91l8.49-23.76-1.7-.85zm373.33 27.16h-179.03v271.5c0 16.12 1.71 25.46 5.1 28.85 3.39 3.4 13.58 5.09 29.7 5.09h9.33v21.21h-136.6v-21.21h8.48c15.27 0 24.61-1.69 28.85-5.09 4.24-3.39 6.79-11.88 6.79-27.15V179.92c0-14.42-1.7-24.6-5.94-28.84-4.25-4.25-11.88-6.79-23.76-6.79h-14.42v-21.21h362.29v21.21h-11.88c-12.72 0-21.21 2.54-25.45 6.79-4.24 4.24-5.94 14.42-5.94 28.84v241.81c0 16.13 1.7 26.31 5.09 29.7 3.39 3.4 13.58 5.09 30.54 5.09h7.64v21.21H2275.8v-21.21h10.18c12.72 0 21.21-.85 24.6-2.54 4.25-1.7 6.79-4.25 7.64-7.64.85-3.39 1.7-12.73 1.7-28V150.23l.84.85zM727.34 1080.15c-5.09 0-56 11.02-90.79 11.02-13.57 0-28 .85-41.57 0-17.82-1.69-38.18-3.39-55.15-6.79-22.06-4.23-44.12-8.48-65.33-16.12-20.37-7.62-39.03-14.41-58.55-23.74l-27.15-13.58c-28.85-16.12-52.6-34.79-78.06-55.15-2.54-1.71-3.39-3.39-5.94-5.1-11.03-10.17-20.36-17.82-30.54-30.53l-10.18-11.03c-4.24-4.25-5.94-6.79-9.34-11.03-25.45-31.4-44.96-65.34-62.78-100.97-4.23-9.33-7.63-18.67-11.88-28.85-23.76-59.39-37.33-147.63-28-212.11 5.09-37.34 5.94-46.67 16.97-86.55 1.7-5.94 2.54-10.18 5.09-16.12 5.94-15.27 11.03-29.7 16.97-44.12 10.18-22.91 22.06-44.97 36.48-66.19 5.94-8.48 11.03-16.12 16.97-23.75l38.18-44.96c4.25-5.11 10.19-9.35 15.28-14.44l27.15-24.6c7.63-6.79 15.27-11.88 23.75-17.82l24.61-16.12c1.7-.85 4.24-2.55 5.94-4.24 2.54-1.7 4.24-2.55 5.94-3.4 12.72-7.63 27.15-14.42 40.72-21.21l14.43-5.94c28.01-12.73 64.49-22.06 95.04-28 5.09-.85 11.87-1.7 17.81-2.54 16.12-2.55 39.88-5.09 56.85-5.09h21.21l38.18 2.54c37.34 5.09 67.03 11.03 100.97 22.06 5.09 1.7 10.18 3.39 15.27 5.94 5.09 1.7 10.18 3.39 15.28 5.94l27.99 12.73c38.19 17.81 72.12 43.27 104.37 69.57 14.42 11.88 34.78 33.09 45.81 47.51 11.88 15.28 24.61 30.55 34.79 47.52 1.7 3.39 5.94 11.03 8.48 12.72 0-5.09-5.09-11.03-6.78-14.42-16.12-26.3-33.94-55.99-55.15-78.91l-11.03-11.87c-5.09-6.79-15.28-16.13-22.06-22.91l-29.7-26.31c-2.55-1.69-3.39-3.39-5.94-5.09-2.54-1.69-4.24-2.54-5.94-5.09-2.54-2.54-3.39-3.39-6.79-5.09-4.24-3.39-8.48-5.94-12.72-9.33-11.88-8.49-24.61-16.97-38.18-23.76l-3.4-2.54c-30.54-18.67-76.36-35.64-111.15-44.97-18.66-5.09-35.63-9.34-55.15-11.88-29.69-4.24-61.93-5.09-95.02-5.09l-9.34.85h-.85c-6.78.85-14.42.85-21.21.85-5.94.84-14.42 1.69-19.51 2.54-6.79.85-13.58 1.7-19.52 3.39-40.72 7.64-80.6 19.52-117.93 37.34l-72.12 40.72c-15.28 10.19-30.55 21.22-44.12 33.94l-17.82 16.12c-11.03 11.03-23.76 22.06-33.09 34.79-3.39 4.24-6.79 7.64-10.18 11.88-16.97 21.21-33.09 42.42-45.82 66.18l-18.67 36.48c-1.69 2.55-2.54 5.09-3.39 7.64-2.55 5.09-5.09 11.03-6.79 16.12-20.36 50.06-28.85 87.39-35.63 143.39l-1.7 74.66c0 21.22 8.48 67.03 13.58 88.24 11.03 43.28 27.15 89.94 50.05 128.12L175 894.33c20.36 30.54 45.82 57.69 72.12 82.31l57.69 45.81c13.58 9.34 28 16.97 41.58 24.61 11.88 6.79 24.6 13.58 38.18 18.67 10.18 4.24 21.21 9.33 32.24 12.73 5.94 1.69 10.18 3.39 16.12 5.09 31.4 9.33 60.24 15.27 92.48 19.51 7.64.85 21.22 1.7 34.79 2.55h47.52c.84 0 2.54 0 3.39-.85 5.94-.85 15.27-1.7 20.36-1.7 24.61-.85 61.09-11.03 84.85-16.12 4.24-.85 5.94-.85 8.48-3.39l2.55-3.4h-.01zm296.96-704.23zM632.31 221.5v731.37c0 11.03 16.97 14.43 22.91 5.94 4.24-5.94 1.7-33.09 1.7-40.72v-56.85c4.24.85 4.24 3.39 6.78 6.79l20.37 23.75c2.54 3.4 4.24 4.25 6.79 7.64 4.24 5.09 16.12 22.06 22.9 22.06 10.19 0 20.37-11.88 10.19-22.91l-65.34-75.51c-2.54-5.09-1.69-61.94-1.69-70.42 5.09 1.69 10.18 11.03 14.42 14.42 7.64 7.64 12.73 15.27 19.52 22.91 1.69 1.7 1.69 1.7 3.39 3.39l10.18 11.88c10.18 11.88 22.91 1.7 22.91-9.33 0-5.09-3.39-5.94-5.94-9.34-12.73-15.27-26.3-29.69-39.03-45.81l-11.03-12.73c-17.82-22.91-15.27-10.18-15.27-46.67v-62.78c4.24.85 5.94 4.24 8.48 6.79 8.49 8.48 55.15 53.45 56.85 58.54.85 3.39.85 9.33 1.7 14.42.85 4.25.85 11.88 1.69 15.28 0 5.09.85 10.18.85 14.42l3.4 46.67c.84 12.72.84 22.06 13.57 22.06 18.67 0 11.88-22.91 11.03-37.34l-4.24-48.36c6.79 4.24 35.63 34.79 43.27 43.27 10.18 10.18 5.94 4.24 8.49 21.21 2.54 17.82.84 35.64 4.24 53.46 4.24 29.69-4.24 45.81 17.82 45.81 6.78 0 11.87-5.93 10.18-13.57l-5.94-72.12c6.79 5.09 44.12 43.27 52.6 52.6 7.64 7.64 18.67 22.06 29.7 11.03 10.18-11.03-3.39-21.21-11.03-28.84-9.33-9.34-48.36-46.67-52.61-53.46l72.12 5.94c13.58 1.7 17.82-16.97 9.34-23.75-5.09-3.4-41.58-4.25-52.61-5.1l-41.57-3.39c-21.21-2.54-11.03 3.39-35.64-22.06-7.63-7.64-23.76-22.06-28.85-29.7l70.43 5.1c16.97 2.54 18.66-20.37 7.63-24.61l-67.03-5.94c-8.48-.85-33.93 0-39.03-2.54-1.69-.85-63.63-62.79-65.33-66.18 8.49 0 87.39-1.71 91.64.83 5.94 2.56 25.45 22.07 33.09 28.85 13.57 11.03 32.24 29.7 45.81 39.03 11.88 8.5 28-9.33 14.43-21.21l-46.67-39.88c-1.69-.84-6.79-5.94-7.63-6.79h56.84c23.76 0 14.43.85 37.34 19.52 5.09 4.24 9.33 9.33 14.42 12.73l26.3 22.9c9.34 7.64 22.91 24.62 32.24 8.5 4.25-6.79 2.55-12.73-3.39-16.97l-33.09-28.85c-5.94-5.1-15.27-11.03-19.51-16.97h86.54c5.09 0 7.63-.85 11.03-3.39 2.54-1.7 1.7-.85 3.39-3.4 5.94-11.03-1.69-19.51-15.27-18.66h-86.54l30.54-27.15c5.09-4.24 10.18-8.49 15.27-13.58 4.25-3.39 13.58-10.18 13.58-15.27 0-7.64-5.94-15.27-13.58-15.27-5.09 0-5.94 2.54-8.48 5.09-2.55 2.54-5.09 4.24-7.64 5.94l-67.87 58.54c-4.25 2.55-62.79.85-70.43.85 4.25-5.94 47.52-40.73 56-49.21 7.64-7.64-1.7-21.21-11.88-21.21-5.94 0-23.75 18.66-29.69 23.75l-41.58 35.64c-2.54 2.55-10.18 10.18-12.72 11.02-5.1 1.71-84 0-93.34 0 2.55-4.23 11.88-12.73 16.13-16.96 5.09-5.1 45.81-47.52 50.05-48.37 7.64-2.55 47.52-3.39 60.25-5.09l22.9-.85c4.25 0 3.4-.84 7.64-.84 5.94 0 11.03 0 15.27-1.71 12.73-4.24 8.49-26.3-5.09-24.6l-49.21 3.39c-7.64 0-16.97 1.7-24.6 1.7 4.24-6.79 34.78-35.64 43.27-43.26 9.33-9.35 5.94-6.79 21.21-8.5 12.73-.85 87.39-5.09 93.33-7.62 10.18-4.25 6.79-25.47-6.79-24.62l-48.36 3.39c-7.64 0-16.97 1.71-24.61 1.71 4.25-6.79 51.76-51.75 61.09-61.94 10.19-10.18 6.79-23.75-8.48-23.75-5.94 0-14.44 11.03-19.52 15.27-9.33 9.33-44.96 47.51-52.6 51.76 0-11.88 3.39-35.64 4.24-48.37.85-8.48.85-16.12 1.7-25.45.85-11.88-16.12-16.97-22.91-8.49-3.39 4.24-4.24 42.43-5.09 52.61l-3.39 41.57c-2.55 22.06 1.69 13.57-21.22 36.48-2.55 2.55-4.24 4.24-6.78 6.79-.85.84-.85.84-1.71 1.7-5.09 5.09-16.12 18.67-21.21 20.36.85-15.28 2.54-32.25 4.24-46.67.85-8.48.85-15.27 1.7-24.61 1.69-12.72-18.67-18.66-24.61-7.63-.85 1.7-1.7 12.73-1.7 15.27l-4.24 52.61c-.85 8.48-.85 32.24-3.39 39.03-1.7 5.09-28 29.69-32.24 33.93l-16.12 16.12c-1.7 1.71-2.55 2.56-4.25 4.25l-8.48 8.48c-2.55 2.56-1.7 2.56-5.94 3.4 0-9.34-1.7-86.55.85-91.63 1.69-2.55 5.09-5.94 7.63-8.49l57.7-67.03c16.12-16.12-6.79-33.09-17.82-18.67-13.57 17.82-29.69 33.09-43.27 50.91-2.55 2.54-.85 2.54-4.24 3.39 0-9.33-1.7-66.18.85-70.42 1.69-3.39 5.09-5.94 7.63-8.48l18.67-21.22c5.09-5.93 10.18-11.03 14.42-16.96 1.7-1.7 2.55-2.55 3.4-4.25l14.42-16.97c1.7-1.69 2.55-1.69 3.39-4.24 2.55-3.39 5.94-5.94 6.79-8.48 4.24-8.49-5.94-17.82-13.57-17.82-8.49 0-28 28.85-35.64 35.63-3.39 3.4-4.24 5.1-6.79 7.64-4.24 4.24-9.33 13.58-14.42 14.42v-52.6c0-5.09.85-12.73.85-16.12-.85-5.94-.85-10.18-.85-16.12 0-7.64 0-10.18-4.24-13.58-8.49-6.78-20.37-1.69-20.37 8.49h1.7l.01.01z" fill="#0082c8"/><path d="M527.95 77.26c0 4.24.85 2.54.85 6.79 10.18 0 29.69-5.09 42.42-5.94 50.06-4.25 61.09-3.4 111.15.85 16.97 1.69 33.09 5.09 48.36 9.33 15.28 4.24 29.7 8.48 44.12 12.73 14.43 5.09 27.15 11.03 41.58 16.12 17.82 7.63 39.03 19.51 55.15 29.69l33.94 22.91c5.94 4.24 10.18 8.49 16.12 12.73 46.66 37.33 88.24 88.24 115.39 142.54 1.7 3.39 3.39 5.94 5.09 9.33l13.57 29.7c2.55 6.79 5.94 13.57 8.5 20.36 16.12 45.82 27.14 95.88 27.14 145.09 0 67.03-5.94 106.06-26.3 168.84-8.49 26.31-22.06 53.46-35.64 77.21-1.69 3.4-3.39 5.1-5.09 8.49l-22.91 33.94c-16.97 24.6-38.18 45.81-60.24 67.03-2.54 2.54-4.24 3.39-7.63 6.78-11.88 11.88-26.31 22.06-39.88 31.4-18.67 13.57-39.87 27.15-61.94 36.48-3.38 1.7-6.78 3.39-10.17 5.09-19.52 9.33-40.74 17.83-61.09 23.76-23.76 6.79-44.13 11.88-69.58 15.27-49.22 6.79-105.21 6.79-154.43-3.39-15.27-3.4-33.09-6.79-47.51-11.88-22.06-6.79-43.27-15.27-64.48-24.61-28.85-13.57-56-29.69-81.46-49.21-18.66-14.42-36.48-29.69-53.45-46.66-29.69-29.7-56.85-66.18-76.36-103.52-3.39 0-5.09 1.71-7.64 3.4l7.64 15.27c11.03 22.91 24.61 44.98 39.88 65.33l36.48 44.97c9.33 9.33 17.82 21.22 28.85 29.7 2.54 2.54 3.39 2.54 6.79 5.94 7.63 7.63 16.12 15.28 25.45 21.22 17.82 13.57 35.64 26.3 55.15 38.18 10.18 5.94 19.52 11.02 30.55 16.12 83.99 41.57 184.11 62.79 283.38 50.91 35.64-4.25 67.03-11.03 100.97-22.06l44.97-17.82c26.3-11.03 50.91-24.62 74.66-40.74 36.49-24.6 56-42.42 88.24-74.66 3.4-3.4 4.25-5.09 6.79-7.63 12.73-13.57 23.76-28.01 34.79-43.27 26.3-36.48 48.36-78.92 63.63-122.18 1.7-4.24 2.55-6.79 3.4-11.03 1.69-4.24 2.54-6.79 4.24-11.88 9.33-33.95 15.27-59.39 18.67-87.39l3925.85 12.73v-71.27l-3922.46-12.73v-1.71c0-60.24-14.42-119.63-36.48-174.78-11.03-28-25.46-54.3-41.58-79.76l-24.6-35.63c-4.25-5.94-8.49-11.02-13.58-16.97-1.7-1.7-1.7-2.55-3.39-4.23l-11.03-11.89c-10.19-10.17-19.52-21.21-30.55-30.55l-16.12-14.42c-5.94-4.23-10.18-8.48-16.12-13.56-5.94-5.11-11.03-8.5-17.82-12.74l-76.36-44.12c-14.42-6.79-27.15-12.73-42.42-17.82-15.28-5.09-30.55-10.18-46.67-14.42-77.21-19.52-151.87-19.52-229.08-4.25-6.79 1.71-22.06 5.1-27.15 6.79l-2.55 1.71v-.01zm2085.54 35.63h147.63v42.43h-20.37c-5.09 0-9.33 0-12.72.85-2.55.84-4.24.84-5.94 1.69l-2.55 2.55c-.85.85-1.69 2.54-2.54 4.24-.85 1.7-.85 3.39-.85 5.94 0 2.55-.85 6.79-.85 11.03v107.75l115.39-121.33 7.64-9.33 2.54-3.39h-1.69c-2.55 0-6.79-.85-11.03-.85h-18.67v-42.42h147.63v43.27h-11.03c-4.24 0-8.48 0-12.72.85-4.25.84-7.64.84-11.03 2.54-3.4.85-6.79 2.55-9.34 3.4-2.54.84-5.09 2.54-6.78 3.39-5.1 3.39-9.34 6.79-12.73 10.18-3.4 2.55-5.94 5.09-8.49 7.64l-89.09 90.78 103.52 136.6c5.09 6.79 9.33 11.88 12.72 16.13 3.4 4.24 6.79 7.63 9.34 9.33 2.54 1.7 5.09 3.39 6.79 5.09 2.54 1.7 5.09 2.54 6.78 3.39 2.55.85 5.94 1.7 9.34 1.7 3.39 0 8.48.85 13.57.85h4.24c10.19 0 16.97-1.7 20.37-4.24 1.69-1.7 3.39-4.25 5.94-8.49 2.54-5.09 5.94-11.88 8.48-19.51l112.85-300.36h57.69l112.85 303.75c2.54 6.79 5.09 11.88 6.79 16.12 1.69 4.24 4.24 6.79 5.93 8.49 1.7 1.69 3.4 2.54 5.94 3.39 2.55.85 5.94 1.7 9.34 1.7h16.12v42.42h-147.63v-41.57l9.33-.85 7.63-.85h9.34c4.24 0 6.79-.85 7.63-1.7 0 0 .85-.85.85-2.54 0-1.7-.85-3.4-1.69-6.79-.85-4.24-2.55-9.33-5.1-15.27l-78.05-218.06-81.46 226.54c-.85 3.39-2.54 6.79-2.54 9.33-.85 1.7-.85 3.4-.85 4.25v2.54l.85.85 1.69 1.7 6.79.85 26.31.84v42.43h-279.16v-42.43h34.8s1.69 0 1.69-.84l-2.54-5.1c-2.55-5.09-6.79-11.03-12.73-18.66l-72.12-98.42-33.94 33.94v63.63c0 5.09 0 9.33.84 12.73 0 2.54.85 4.24 1.71 5.94.84.84 1.7 1.69 2.54 2.54.85.85 1.7 1.7 3.4 1.7.85 0 3.39.85 7.63.85 5.1 0 11.02.85 19.52.85h11.02v42.42H2601.6v-42.42h21.22c5.09 0 8.48 0 11.88-.85 2.54 0 4.24-.85 5.09-.85.85 0 1.69-.85 2.54-1.7.85-.85 1.7-2.54 2.55-3.39.85-1.7.85-4.24 1.7-7.64.84-4.24.84-8.48.84-14.42V185.86c0-5.94 0-10.18-.84-14.42 0-3.4-.85-5.09-1.7-6.79-.85-.85-.85-2.54-1.7-2.54l-1.7-1.7c-.84 0-2.54-.85-5.93-.85-3.4 0-8.5-.85-14.44-.85h-18.66v-42.42h11.03v-3.4h.01zm1986.25-.84h17.82v.84h221.45v-.84h18.66l.85.84h11.03l39.03 109.46-42.42 15.27-4.24-9.33c-5.1-12.73-11.03-24.61-16.97-33.09-5.94-8.49-11.88-15.28-18.67-20.37-6.79-5.09-14.42-8.48-22.06-11.03-8.48-2.54-18.67-3.39-28.85-3.39h-11.88v257.93c0 5.94 0 10.18.85 13.58 0 3.39.85 5.09.85 6.78l1.7 3.4c1.69 1.69.85 1.69 2.54 2.54l3.4.85c1.69 0 4.24.85 8.48.85l28 .85v42.42h-156.97v-42.42l28-.85c3.4 0 5.94-.85 7.64-.85 1.7-.85 2.55-.85 4.24-1.7.85-.84 1.7-1.69 1.7-2.54.85-1.7 1.7-3.39 1.7-6.79.84-4.24.84-8.48.84-14.42V160.41h-7.63c-8.49 0-16.97.85-22.91 1.7-6.79.84-11.88 2.54-16.97 4.24-5.09 1.69-9.33 5.09-13.57 8.48-5.1 3.4-9.34 7.64-13.58 12.73-4.23 5.09-8.48 11.03-12.73 17.82-4.23 6.78-7.62 14.42-11.02 22.91l-3.39 10.18-42.42-15.28 38.18-109.45h11.03l.84-.85-2.55-.84zm-773.8.84h51.76l97.57 261.33 95.03-261.33h124.72v42.43h-19.51c-5.09 0-9.34 0-12.73.85-2.54 0-4.24.84-5.09.84l-1.7 1.7c-.85.85-1.69 1.7-1.69 3.4-.85 1.69-.85 3.39-1.7 6.78-.85 3.4-.85 7.64-.85 12.73V415.8c0 7.63 0 12.72.85 16.96 0 3.4.84 5.94 1.7 7.64 0 .85.84 1.7 1.69 2.55.85.84 1.7 1.69 2.55 1.69.85.85 2.54.85 5.09 1.71 3.39.84 7.64.84 12.73.84h19.51v42.42h-156.12v-42.42h30.55c2.54 0 4.24-.84 5.09-.84.85 0 2.54-.85 3.39-1.71.85-.85 1.7-1.69 2.55-1.69l1.7-2.55c.84-3.39.84-6.79 1.69-11.03V223.19l-97.57 267.27h-40.73l-99.27-264.72v192.6c0 5.94 0 11.03.85 14.42 0 3.4.85 5.1 1.7 6.79.85.85 1.69 2.55 2.54 3.4.85.84 1.7 1.69 3.4 2.54.85.85 3.39.85 5.94 1.7 3.39.85 8.48.85 13.57.85h18.67v42.42h-146.79v-42.42h17.82c5.94 0 10.18 0 13.58-.85 3.39-.84 5.94-.84 7.63-1.7 1.7-.85 2.55-1.7 3.4-2.54.85-.85 1.69-1.7 2.54-3.4.85-1.69.85-3.39 1.7-7.63.85-4.25.85-9.34.85-16.12V183.32c0-5.94 0-11.03-.85-14.43 0-3.39-.85-5.09-.85-5.94 0-.84-.85-1.69-1.7-2.54-.84-.85-1.69-1.7-2.54-1.7-.85-.85-3.4-.85-5.94-1.7-3.4 0-7.64-.84-12.73-.84h-22.91v-42.43h78.06l.85-.85zm-484.47 0h147.63v42.43h-20.36c-11.88 0-18.67.85-21.21 3.39-.85.85-1.7 2.55-2.55 5.94-.85 4.24-1.7 10.18-1.7 16.97v173.93l162.91-175.63v-11.88c0-3.39-.85-5.93-.85-7.63 0-.85-.85-.85-.85-1.7l-2.54-2.54c-1.7-.85-3.4-1.7-5.09-1.7-2.55-.85-5.94-.85-10.19-.85h-24.6V111.2h156.96v42.42h-22.9c-5.1 0-10.19.85-12.73 1.7-1.7.85-3.4.85-4.24 1.69-.85.85-1.7 2.55-1.7 5.94-.85 4.25-.85 9.34-.85 16.12v241.82c0 7.63 0 13.57.85 17.81l.85 4.25s1.69.84 5.09.84c4.24.85 10.18.85 17.82.85h18.66v42.43h-156.96v-42.43h20.36c5.94 0 11.03 0 14.42-.85 3.4 0 5.09-.84 6.79-.84l1.7-.85c0-.85.85-3.4.85-6.79V249.5l-162.91 174.78c0 5.09.85 10.18.85 13.58.85 2.54.85 4.24.85 4.24s1.7.85 5.09.85c4.24.84 10.18.84 17.82.84h20.36v42.43h-158.66v-42.43h19.51c6.79 0 12.73 0 16.97-.84 3.4-.85 5.09-.85 5.94-1.7l.85-2.55c.85-3.39 1.7-8.48 1.7-15.27V179.07c0-6.78-.85-11.87-.85-16.12-.85-2.54-1.7-5.09-1.7-5.09-.85-.85-1.7-1.7-4.24-1.7-3.4-.84-6.79-1.7-11.88-1.7h-24.61v-42.42h11.03l-1.7.84.01.01zm1027.49 0h50.06l112.84 303.75c2.55 6.79 5.09 12.73 7.64 16.97 1.7 3.4 4.24 6.79 5.94 7.64 1.7 1.7 3.39 2.54 5.94 3.39 2.54.85 5.94 1.7 9.33 1.7h16.12v42.42H4429.2v-42.42c4.24 0 18.66-.85 22.91-.85 3.39 0 6.78 0 8.48-.85h1.7c.85-.85 1.7-1.69 2.54-1.69v-.85c0-.85-.84-3.4-1.69-6.79-.85-4.24-2.55-9.33-5.09-16.12l-21.22-61.09h-112.84l-25.45 69.57c-.85 3.4-2.55 6.79-2.55 9.34-.85 1.7-.85 3.39-.85 4.24v2.54l.85.85c2.55.85 2.55.85 5.09 1.71h19.52l10.18.84v42.42h-127.27v-42.42h11.03c4.24 0 8.48 0 11.03-.84 2.54 0 4.24-.85 5.94-1.71 1.69-.85 2.54-1.69 3.39-2.54.85-.85 2.55-2.55 3.39-3.4.85-1.69 2.55-4.24 4.25-8.48 1.69-4.24 4.23-9.33 6.78-16.97l112.85-300.36h7.63-.84zm-28.85 198.54h78.91l-39.03-110.3-39.88 110.3zM332.8 327.56c0 12.72 3.4 15.27 10.18 27.15l45.82 49.21c20.36 16.12 33.09 25.45 56.85 37.33 4.24 1.7 6.79 3.39 11.03 5.09 4.24 1.7 7.64 2.55 11.03 4.24-.85-8.48-16.12-35.63-20.36-43.27-7.64-13.57-17.82-25.45-27.15-37.33l-18.67-19.52-.85-.84c-2.55-2.55-1.7-1.7-4.24-3.4-5.94-4.24-8.49-8.48-17.82-15.27-8.48-6.79-21.21-16.12-32.24-16.12-6.79 0-13.58 5.94-13.58 12.73zm0 515.86c0 23.76 22.06 18.67 38.18 7.64l33.94-29.7c14.43-14.42 24.61-27.15 35.64-43.27l17.82-30.55c3.39-6.78 7.63-15.27 9.33-22.06-10.18.85-37.33 17.82-47.51 23.76l-5.1 3.4c-24.6 16.96-39.03 29.69-59.39 52.6-2.54 3.39-4.24 5.09-7.63 8.49-5.94 6.78-16.97 22.06-16.97 31.39l1.7-1.7h-.01zm248.6-562.53c0 22.91 3.4 42.42 6.79 61.09 4.24 22.91 14.42 44.97 16.12 51.76l11.03-23.76c8.49-26.3 14.43-59.38 14.43-87.39 0-22.91-1.7-73.82-22.06-73.82-15.28 0-18.67 10.18-22.06 28-2.55 12.73-3.4 30.54-3.4 44.13h-.85v-.01zm-355.5 306.3c0 24.6 49.21 22.9 62.78 23.75 22.91 2.55 57.7-2.54 78.06-7.63l33.09-10.19c3.4-1.69 7.64-3.39 11.03-4.23-.85-3.39-2.54-3.39-9.33-5.95-37.33-16.12-107.76-24.6-148.48-15.27-9.34 1.71-26.3 6.79-26.3 19.52h-.85zm199.39 3.39c0 61.09 28.84 117.94 77.21 154.42 5.09 3.39 8.48 5.94 13.57 9.33l15.27 8.5c19.52 9.33 52.61 20.35 72.97 20.35-10.18 21.22-17.82 54.31-20.36 78.92-2.55 26.3-6.79 106.06 22.06 106.06 22.06 0 23.76-49.22 23.76-74.67 0-22.91-5.94-64.48-13.58-85.69-3.39-8.5-5.94-16.97-9.33-24.62 11.03 0 6.78 2.56 16.97 0V407.31c0-9.33 1.69-10.18-5.94-10.18-61.94 0-123.03 33.09-156.97 82.3-22.06 32.24-34.79 70.43-34.79 110.3l-.84.85z" fill="url(#id0)"/></g></svg>